<?xml version="1.0" encoding="UTF-8" standalone="no"?><svg xmlns="http://www.w3.org/2000/svg" xmlns:xlink="http://www.w3.org/1999/xlink" contentScriptType="application/ecmascript" contentStyleType="text/css" height="1088.75px" preserveAspectRatio="none" style="width:2503px;height:1088px;" version="1.1" viewBox="0 0 2503 1088" width="2503.75px" zoomAndPan="magnify"><defs><filter height="300%" id="f1q7xpv6aanso1" width="300%" x="-1" y="-1"><feGaussianBlur result="blurOut" stdDeviation="2.5"/><feColorMatrix in="blurOut" result="blurOut2" type="matrix" values="0 0 0 0 0 0 0 0 0 0 0 0 0 0 0 0 0 0 .4 0"/><feOffset dx="5.0" dy="5.0" in="blurOut2" result="blurOut3"/><feBlend in="SourceGraphic" in2="blurOut3" mode="normal"/></filter></defs><g><!--MD5=[30c39e5172f78dae8ae1cf6136c3dbb6]
class SeriarCandidaturasAnunciosTask--><rect fill="#FEFECE" filter="url(#f1q7xpv6aanso1)" height="111.8848" id="SeriarCandidaturasAnunciosTask" style="stroke: #A80036; stroke-width: 1.875;" width="272.5" x="7.5" y="416.875"/><ellipse cx="26.25" cy="436.875" fill="#ADD1B2" rx="13.75" ry="13.75" style="stroke: #A80036; stroke-width: 1.25;"/><path d="M28.75,432.5 Q29.0039,431.875 29.2969,431.5625 Q29.5898,431.25 29.9219,431.25 Q30.5078,431.25 30.8789,431.6016 Q31.25,431.9531 31.25,432.7734 L31.25,434.7266 Q31.25,435.5469 30.8984,435.8984 Q30.5469,436.25 30,436.25 Q29.5117,436.25 29.1992,436.0352 Q28.8867,435.8203 28.75,435.2539 Q28.6914,434.8633 28.4766,434.6484 Q28.0859,434.2383 27.3828,434.0039 Q26.6797,433.75 25.9766,433.75 Q25.0977,433.75 24.3555,434.1016 Q23.6328,434.4531 23.0664,435.2344 Q22.5,436.0156 22.5,437.0898 L22.5,438.2422 Q22.5,439.5313 23.5547,440.3906 Q24.6094,441.25 26.4844,441.25 Q27.5977,441.25 28.3789,440.9961 Q28.8281,440.8594 29.3359,440.4102 Q29.668,440.1563 29.8438,440.0781 Q30.0195,440 30.2344,440 Q30.6445,440 30.9375,440.332 Q31.25,440.6445 31.25,441.0938 Q31.25,441.5234 30.8203,442.0313 Q30.1953,442.7734 29.1992,443.1836 Q27.8906,443.75 26.2891,443.75 Q24.4141,443.75 22.9102,443.0078 Q21.6992,442.4219 20.8398,441.1523 Q20,439.8828 20,438.3789 L20,437.0117 Q20,435.4492 20.7422,434.082 Q21.5039,432.7148 22.8125,431.9922 Q24.1406,431.25 25.625,431.25 Q26.5234,431.25 27.3047,431.5625 Q28.0859,431.875 28.75,432.5 Z "/><text fill="#000000" font-family="sans-serif" font-size="15" lengthAdjust="spacingAndGlyphs" textLength="232.5" x="43.75" y="443.0127">SeriarCandidaturasAnunciosTask</text><line style="stroke: #A80036; stroke-width: 1.875;" x1="8.75" x2="278.75" y1="456.875" y2="456.875"/><line style="stroke: #A80036; stroke-width: 1.875;" x1="8.75" x2="278.75" y1="466.875" y2="466.875"/><text fill="#000000" font-family="sans-serif" font-size="13.75" lengthAdjust="spacingAndGlyphs" textLength="242.5" x="15" y="486.1487">+SeriarCandidaturasAnunciosTask(info)</text><text fill="#000000" font-family="sans-serif" font-size="13.75" lengthAdjust="spacingAndGlyphs" textLength="37.5" x="15" y="503.4436">+run()</text><text fill="#000000" font-family="sans-serif" font-size="13.75" lengthAdjust="spacingAndGlyphs" textLength="202.5" x="15" y="520.7385">+seriarCandidaturasSubmetidas()</text><!--MD5=[74054751ba3b9eca75fda5044dcc84d9]
class TimerTask--><rect fill="#FEFECE" filter="url(#f1q7xpv6aanso1)" height="77.2949" id="TimerTask" style="stroke: #A80036; stroke-width: 1.875;" width="113.75" x="712.5" y="479.375"/><ellipse cx="731.25" cy="499.375" fill="#A9DCDF" rx="13.75" ry="13.75" style="stroke: #A80036; stroke-width: 1.25;"/><path d="M733.4375,501.25 L729.3164,501.25 L728.7695,502.5 L728.7695,502.5 L729.3555,502.5 L730,503.2813 L730,503.75 L730,504.2188 L729.3555,505 L728.7695,505 L726.4063,505 L725.6445,505 L725,504.2188 L725,503.75 L725,503.2813 L725.6445,502.5 L726.4063,502.5 L729.2969,495 L728.2031,495 L726.8945,495 L726.25,494.2188 L726.25,493.75 L726.25,493.2813 L726.8945,492.5 L728.2031,492.5 L732.793,492.5 L736.1523,502.5 L736.8555,502.5 L736.8555,502.5 L737.5,503.2813 L737.5,503.75 L737.5,504.2188 L736.8555,505 L736.1523,505 L733.7891,505 L733.1445,505 L732.5,504.2188 L732.5,503.75 L732.5,503.2813 L733.1445,502.5 L733.7891,502.5 L733.7891,502.5 L733.4375,501.25 Z M732.7539,498.75 L731.25,494.2773 L729.9609,498.75 L732.7539,498.75 Z "/><text fill="#000000" font-family="sans-serif" font-size="15" font-style="italic" lengthAdjust="spacingAndGlyphs" textLength="73.75" x="748.75" y="505.5127">TimerTask</text><line style="stroke: #A80036; stroke-width: 1.875;" x1="713.75" x2="825" y1="519.375" y2="519.375"/><line style="stroke: #A80036; stroke-width: 1.875;" x1="713.75" x2="825" y1="529.375" y2="529.375"/><text fill="#000000" font-family="sans-serif" font-size="13.75" lengthAdjust="spacingAndGlyphs" textLength="37.5" x="720" y="548.6487">+run()</text><!--MD5=[ecaed46f78f8cfe1e9ce18477649be18]
class Plataforma--><rect fill="#FEFECE" filter="url(#f1q7xpv6aanso1)" height="129.1797" id="Plataforma" style="stroke: #A80036; stroke-width: 1.875;" width="173.75" x="356.25" y="322.5"/><ellipse cx="401.4375" cy="342.5" fill="#ADD1B2" rx="13.75" ry="13.75" style="stroke: #A80036; stroke-width: 1.25;"/><path d="M403.9375,338.125 Q404.1914,337.5 404.4844,337.1875 Q404.7773,336.875 405.1094,336.875 Q405.6953,336.875 406.0664,337.2266 Q406.4375,337.5781 406.4375,338.3984 L406.4375,340.3516 Q406.4375,341.1719 406.0859,341.5234 Q405.7344,341.875 405.1875,341.875 Q404.6992,341.875 404.3867,341.6602 Q404.0742,341.4453 403.9375,340.8789 Q403.8789,340.4883 403.6641,340.2734 Q403.2734,339.8633 402.5703,339.6289 Q401.8672,339.375 401.1641,339.375 Q400.2852,339.375 399.543,339.7266 Q398.8203,340.0781 398.2539,340.8594 Q397.6875,341.6406 397.6875,342.7148 L397.6875,343.8672 Q397.6875,345.1563 398.7422,346.0156 Q399.7969,346.875 401.6719,346.875 Q402.7852,346.875 403.5664,346.6211 Q404.0156,346.4844 404.5234,346.0352 Q404.8555,345.7813 405.0313,345.7031 Q405.207,345.625 405.4219,345.625 Q405.832,345.625 406.125,345.957 Q406.4375,346.2695 406.4375,346.7188 Q406.4375,347.1484 406.0078,347.6563 Q405.3828,348.3984 404.3867,348.8086 Q403.0781,349.375 401.4766,349.375 Q399.6016,349.375 398.0977,348.6328 Q396.8867,348.0469 396.0273,346.7773 Q395.1875,345.5078 395.1875,344.0039 L395.1875,342.6367 Q395.1875,341.0742 395.9297,339.707 Q396.6914,338.3398 398,337.6172 Q399.3281,336.875 400.8125,336.875 Q401.7109,336.875 402.4922,337.1875 Q403.2734,337.5 403.9375,338.125 Z "/><text fill="#000000" font-family="sans-serif" font-size="15" lengthAdjust="spacingAndGlyphs" textLength="75" x="424.8125" y="348.6377">Plataforma</text><line style="stroke: #A80036; stroke-width: 1.875;" x1="357.5" x2="528.75" y1="362.5" y2="362.5"/><text fill="#000000" font-family="sans-serif" font-size="13.75" lengthAdjust="spacingAndGlyphs" textLength="113.75" x="363.75" y="381.7737">-String designacao</text><line style="stroke: #A80036; stroke-width: 1.875;" x1="357.5" x2="528.75" y1="389.7949" y2="389.7949"/><text fill="#000000" font-family="sans-serif" font-size="13.75" lengthAdjust="spacingAndGlyphs" textLength="116.25" x="363.75" y="409.0686">+agendaSeriacao()</text><text fill="#000000" font-family="sans-serif" font-size="13.75" lengthAdjust="spacingAndGlyphs" textLength="131.25" x="363.75" y="426.3635">+getRegistoAnuncio()</text><text fill="#000000" font-family="sans-serif" font-size="13.75" lengthAdjust="spacingAndGlyphs" textLength="158.75" x="363.75" y="443.6584">+getRegistoOrganizacao()</text><!--MD5=[548bd8e9f0dc9261535ca7b7174ac939]
class RegistoOrganizacoes--><rect fill="#FEFECE" filter="url(#f1q7xpv6aanso1)" height="77.2949" id="RegistoOrganizacoes" style="stroke: #A80036; stroke-width: 1.875;" width="260" x="639.375" y="218.125"/><ellipse cx="690.1875" cy="238.125" fill="#ADD1B2" rx="13.75" ry="13.75" style="stroke: #A80036; stroke-width: 1.25;"/><path d="M692.6875,233.75 Q692.9414,233.125 693.2344,232.8125 Q693.5273,232.5 693.8594,232.5 Q694.4453,232.5 694.8164,232.8516 Q695.1875,233.2031 695.1875,234.0234 L695.1875,235.9766 Q695.1875,236.7969 694.8359,237.1484 Q694.4844,237.5 693.9375,237.5 Q693.4492,237.5 693.1367,237.2852 Q692.8242,237.0703 692.6875,236.5039 Q692.6289,236.1133 692.4141,235.8984 Q692.0234,235.4883 691.3203,235.2539 Q690.6172,235 689.9141,235 Q689.0352,235 688.293,235.3516 Q687.5703,235.7031 687.0039,236.4844 Q686.4375,237.2656 686.4375,238.3398 L686.4375,239.4922 Q686.4375,240.7813 687.4922,241.6406 Q688.5469,242.5 690.4219,242.5 Q691.5352,242.5 692.3164,242.2461 Q692.7656,242.1094 693.2734,241.6602 Q693.6055,241.4063 693.7813,241.3281 Q693.957,241.25 694.1719,241.25 Q694.582,241.25 694.875,241.582 Q695.1875,241.8945 695.1875,242.3438 Q695.1875,242.7734 694.7578,243.2813 Q694.1328,244.0234 693.1367,244.4336 Q691.8281,245 690.2266,245 Q688.3516,245 686.8477,244.2578 Q685.6367,243.6719 684.7773,242.4023 Q683.9375,241.1328 683.9375,239.6289 L683.9375,238.2617 Q683.9375,236.6992 684.6797,235.332 Q685.4414,233.9648 686.75,233.2422 Q688.0781,232.5 689.5625,232.5 Q690.4609,232.5 691.2422,232.8125 Q692.0234,233.125 692.6875,233.75 Z "/><text fill="#000000" font-family="sans-serif" font-size="15" lengthAdjust="spacingAndGlyphs" textLength="148.75" x="714.8125" y="244.2627">RegistoOrganizacoes</text><line style="stroke: #A80036; stroke-width: 1.875;" x1="640.625" x2="898.125" y1="258.125" y2="258.125"/><line style="stroke: #A80036; stroke-width: 1.875;" x1="640.625" x2="898.125" y1="268.125" y2="268.125"/><text fill="#000000" font-family="sans-serif" font-size="13.75" lengthAdjust="spacingAndGlyphs" textLength="245" x="646.875" y="287.3987">+getOrganizacaoByEmailUtilizador(email)</text><!--MD5=[a7dddfa65532da486ef518ad0cedfd89]
class RegistoAnuncios--><rect fill="#FEFECE" filter="url(#f1q7xpv6aanso1)" height="77.2949" id="RegistoAnuncios" style="stroke: #A80036; stroke-width: 1.875;" width="268.75" x="635" y="356.875"/><ellipse cx="705.3125" cy="376.875" fill="#ADD1B2" rx="13.75" ry="13.75" style="stroke: #A80036; stroke-width: 1.25;"/><path d="M707.8125,372.5 Q708.0664,371.875 708.3594,371.5625 Q708.6523,371.25 708.9844,371.25 Q709.5703,371.25 709.9414,371.6016 Q710.3125,371.9531 710.3125,372.7734 L710.3125,374.7266 Q710.3125,375.5469 709.9609,375.8984 Q709.6094,376.25 709.0625,376.25 Q708.5742,376.25 708.2617,376.0352 Q707.9492,375.8203 707.8125,375.2539 Q707.7539,374.8633 707.5391,374.6484 Q707.1484,374.2383 706.4453,374.0039 Q705.7422,373.75 705.0391,373.75 Q704.1602,373.75 703.418,374.1016 Q702.6953,374.4531 702.1289,375.2344 Q701.5625,376.0156 701.5625,377.0898 L701.5625,378.2422 Q701.5625,379.5313 702.6172,380.3906 Q703.6719,381.25 705.5469,381.25 Q706.6602,381.25 707.4414,380.9961 Q707.8906,380.8594 708.3984,380.4102 Q708.7305,380.1563 708.9063,380.0781 Q709.082,380 709.2969,380 Q709.707,380 710,380.332 Q710.3125,380.6445 710.3125,381.0938 Q710.3125,381.5234 709.8828,382.0313 Q709.2578,382.7734 708.2617,383.1836 Q706.9531,383.75 705.3516,383.75 Q703.4766,383.75 701.9727,383.0078 Q700.7617,382.4219 699.9023,381.1523 Q699.0625,379.8828 699.0625,378.3789 L699.0625,377.0117 Q699.0625,375.4492 699.8047,374.082 Q700.5664,372.7148 701.875,371.9922 Q703.2031,371.25 704.6875,371.25 Q705.5859,371.25 706.3672,371.5625 Q707.1484,371.875 707.8125,372.5 Z "/><text fill="#000000" font-family="sans-serif" font-size="15" lengthAdjust="spacingAndGlyphs" textLength="117.5" x="730.9375" y="383.0127">RegistoAnuncios</text><line style="stroke: #A80036; stroke-width: 1.875;" x1="636.25" x2="902.5" y1="396.875" y2="396.875"/><line style="stroke: #A80036; stroke-width: 1.875;" x1="636.25" x2="902.5" y1="406.875" y2="406.875"/><text fill="#000000" font-family="sans-serif" font-size="13.75" lengthAdjust="spacingAndGlyphs" textLength="253.75" x="642.5" y="426.1487">+getAnunciosPorSeriarAutomaticamente()</text><!--MD5=[807977ceb130c090ed5febfb6de2bdea]
class Organizacao--><rect fill="#FEFECE" filter="url(#f1q7xpv6aanso1)" height="146.4746" id="Organizacao" style="stroke: #A80036; stroke-width: 1.875;" width="126.25" x="1136.875" y="97.5"/><ellipse cx="1155.625" cy="117.5" fill="#ADD1B2" rx="13.75" ry="13.75" style="stroke: #A80036; stroke-width: 1.25;"/><path d="M1158.125,113.125 Q1158.3789,112.5 1158.6719,112.1875 Q1158.9648,111.875 1159.2969,111.875 Q1159.8828,111.875 1160.2539,112.2266 Q1160.625,112.5781 1160.625,113.3984 L1160.625,115.3516 Q1160.625,116.1719 1160.2734,116.5234 Q1159.9219,116.875 1159.375,116.875 Q1158.8867,116.875 1158.5742,116.6602 Q1158.2617,116.4453 1158.125,115.8789 Q1158.0664,115.4883 1157.8516,115.2734 Q1157.4609,114.8633 1156.7578,114.6289 Q1156.0547,114.375 1155.3516,114.375 Q1154.4727,114.375 1153.7305,114.7266 Q1153.0078,115.0781 1152.4414,115.8594 Q1151.875,116.6406 1151.875,117.7148 L1151.875,118.8672 Q1151.875,120.1563 1152.9297,121.0156 Q1153.9844,121.875 1155.8594,121.875 Q1156.9727,121.875 1157.7539,121.6211 Q1158.2031,121.4844 1158.7109,121.0352 Q1159.043,120.7813 1159.2188,120.7031 Q1159.3945,120.625 1159.6094,120.625 Q1160.0195,120.625 1160.3125,120.957 Q1160.625,121.2695 1160.625,121.7188 Q1160.625,122.1484 1160.1953,122.6563 Q1159.5703,123.3984 1158.5742,123.8086 Q1157.2656,124.375 1155.6641,124.375 Q1153.7891,124.375 1152.2852,123.6328 Q1151.0742,123.0469 1150.2148,121.7773 Q1149.375,120.5078 1149.375,119.0039 L1149.375,117.6367 Q1149.375,116.0742 1150.1172,114.707 Q1150.8789,113.3398 1152.1875,112.6172 Q1153.5156,111.875 1155,111.875 Q1155.8984,111.875 1156.6797,112.1875 Q1157.4609,112.5 1158.125,113.125 Z "/><text fill="#000000" font-family="sans-serif" font-size="15" lengthAdjust="spacingAndGlyphs" textLength="86.25" x="1173.125" y="123.6377">Organizacao</text><line style="stroke: #A80036; stroke-width: 1.875;" x1="1138.125" x2="1261.875" y1="137.5" y2="137.5"/><text fill="#000000" font-family="sans-serif" font-size="13.75" lengthAdjust="spacingAndGlyphs" textLength="76.25" x="1144.375" y="156.7737">-String nome</text><text fill="#000000" font-family="sans-serif" font-size="13.75" lengthAdjust="spacingAndGlyphs" textLength="62.5" x="1144.375" y="174.0686">-String NIF</text><text fill="#000000" font-family="sans-serif" font-size="13.75" lengthAdjust="spacingAndGlyphs" textLength="92.5" x="1144.375" y="191.3635">-String website</text><text fill="#000000" font-family="sans-serif" font-size="13.75" lengthAdjust="spacingAndGlyphs" textLength="92.5" x="1144.375" y="208.6584">-String telefone</text><text fill="#000000" font-family="sans-serif" font-size="13.75" lengthAdjust="spacingAndGlyphs" textLength="73.75" x="1144.375" y="225.9534">-String email</text><line style="stroke: #A80036; stroke-width: 1.875;" x1="1138.125" x2="1261.875" y1="233.9746" y2="233.9746"/><!--MD5=[d0e9f237fb3c72e1245c36c562ad52c4]
class TipoRegimento--><rect fill="#FEFECE" filter="url(#f1q7xpv6aanso1)" height="111.8848" id="TipoRegimento" style="stroke: #A80036; stroke-width: 1.875;" width="167.5" x="1515" y="789.375"/><ellipse cx="1543.3125" cy="809.375" fill="#ADD1B2" rx="13.75" ry="13.75" style="stroke: #A80036; stroke-width: 1.25;"/><path d="M1545.8125,805 Q1546.0664,804.375 1546.3594,804.0625 Q1546.6523,803.75 1546.9844,803.75 Q1547.5703,803.75 1547.9414,804.1016 Q1548.3125,804.4531 1548.3125,805.2734 L1548.3125,807.2266 Q1548.3125,808.0469 1547.9609,808.3984 Q1547.6094,808.75 1547.0625,808.75 Q1546.5742,808.75 1546.2617,808.5352 Q1545.9492,808.3203 1545.8125,807.7539 Q1545.7539,807.3633 1545.5391,807.1484 Q1545.1484,806.7383 1544.4453,806.5039 Q1543.7422,806.25 1543.0391,806.25 Q1542.1602,806.25 1541.418,806.6016 Q1540.6953,806.9531 1540.1289,807.7344 Q1539.5625,808.5156 1539.5625,809.5898 L1539.5625,810.7422 Q1539.5625,812.0313 1540.6172,812.8906 Q1541.6719,813.75 1543.5469,813.75 Q1544.6602,813.75 1545.4414,813.4961 Q1545.8906,813.3594 1546.3984,812.9102 Q1546.7305,812.6563 1546.9063,812.5781 Q1547.082,812.5 1547.2969,812.5 Q1547.707,812.5 1548,812.832 Q1548.3125,813.1445 1548.3125,813.5938 Q1548.3125,814.0234 1547.8828,814.5313 Q1547.2578,815.2734 1546.2617,815.6836 Q1544.9531,816.25 1543.3516,816.25 Q1541.4766,816.25 1539.9727,815.5078 Q1538.7617,814.9219 1537.9023,813.6523 Q1537.0625,812.3828 1537.0625,810.8789 L1537.0625,809.5117 Q1537.0625,807.9492 1537.8047,806.582 Q1538.5664,805.2148 1539.875,804.4922 Q1541.2031,803.75 1542.6875,803.75 Q1543.5859,803.75 1544.3672,804.0625 Q1545.1484,804.375 1545.8125,805 Z "/><text fill="#000000" font-family="sans-serif" font-size="15" lengthAdjust="spacingAndGlyphs" textLength="106.25" x="1562.9375" y="815.5127">TipoRegimento</text><line style="stroke: #A80036; stroke-width: 1.875;" x1="1516.25" x2="1681.25" y1="829.375" y2="829.375"/><text fill="#000000" font-family="sans-serif" font-size="13.75" lengthAdjust="spacingAndGlyphs" textLength="113.75" x="1522.5" y="848.6487">-String designacao</text><text fill="#000000" font-family="sans-serif" font-size="13.75" lengthAdjust="spacingAndGlyphs" textLength="147.5" x="1522.5" y="865.9436">-String descricaoRegras</text><line style="stroke: #A80036; stroke-width: 1.875;" x1="1516.25" x2="1681.25" y1="873.9648" y2="873.9648"/><text fill="#000000" font-family="sans-serif" font-size="13.75" lengthAdjust="spacingAndGlyphs" textLength="152.5" x="1522.5" y="893.2385">+eAtribuicaoObrigatoria()</text><!--MD5=[1f687b5315377fe49fca59b457947463]
class Freelancer--><rect fill="#FEFECE" filter="url(#f1q7xpv6aanso1)" height="129.1797" id="Freelancer" style="stroke: #A80036; stroke-width: 1.875;" width="113.75" x="2376.25" y="357.5"/><ellipse cx="2395" cy="377.5" fill="#ADD1B2" rx="13.75" ry="13.75" style="stroke: #A80036; stroke-width: 1.25;"/><path d="M2397.5,373.125 Q2397.7539,372.5 2398.0469,372.1875 Q2398.3398,371.875 2398.6719,371.875 Q2399.2578,371.875 2399.6289,372.2266 Q2400,372.5781 2400,373.3984 L2400,375.3516 Q2400,376.1719 2399.6484,376.5234 Q2399.2969,376.875 2398.75,376.875 Q2398.2617,376.875 2397.9492,376.6602 Q2397.6367,376.4453 2397.5,375.8789 Q2397.4414,375.4883 2397.2266,375.2734 Q2396.8359,374.8633 2396.1328,374.6289 Q2395.4297,374.375 2394.7266,374.375 Q2393.8477,374.375 2393.1055,374.7266 Q2392.3828,375.0781 2391.8164,375.8594 Q2391.25,376.6406 2391.25,377.7148 L2391.25,378.8672 Q2391.25,380.1563 2392.3047,381.0156 Q2393.3594,381.875 2395.2344,381.875 Q2396.3477,381.875 2397.1289,381.6211 Q2397.5781,381.4844 2398.0859,381.0352 Q2398.418,380.7813 2398.5938,380.7031 Q2398.7695,380.625 2398.9844,380.625 Q2399.3945,380.625 2399.6875,380.957 Q2400,381.2695 2400,381.7188 Q2400,382.1484 2399.5703,382.6563 Q2398.9453,383.3984 2397.9492,383.8086 Q2396.6406,384.375 2395.0391,384.375 Q2393.1641,384.375 2391.6602,383.6328 Q2390.4492,383.0469 2389.5898,381.7773 Q2388.75,380.5078 2388.75,379.0039 L2388.75,377.6367 Q2388.75,376.0742 2389.4922,374.707 Q2390.2539,373.3398 2391.5625,372.6172 Q2392.8906,371.875 2394.375,371.875 Q2395.2734,371.875 2396.0547,372.1875 Q2396.8359,372.5 2397.5,373.125 Z "/><text fill="#000000" font-family="sans-serif" font-size="15" lengthAdjust="spacingAndGlyphs" textLength="73.75" x="2412.5" y="383.6377">Freelancer</text><line style="stroke: #A80036; stroke-width: 1.875;" x1="2377.5" x2="2488.75" y1="397.5" y2="397.5"/><text fill="#000000" font-family="sans-serif" font-size="13.75" lengthAdjust="spacingAndGlyphs" textLength="76.25" x="2383.75" y="416.7737">-String nome</text><text fill="#000000" font-family="sans-serif" font-size="13.75" lengthAdjust="spacingAndGlyphs" textLength="62.5" x="2383.75" y="434.0686">-String NIF</text><text fill="#000000" font-family="sans-serif" font-size="13.75" lengthAdjust="spacingAndGlyphs" textLength="92.5" x="2383.75" y="451.3635">-String telefone</text><text fill="#000000" font-family="sans-serif" font-size="13.75" lengthAdjust="spacingAndGlyphs" textLength="73.75" x="2383.75" y="468.6584">-String email</text><line style="stroke: #A80036; stroke-width: 1.875;" x1="2377.5" x2="2488.75" y1="476.6797" y2="476.6797"/><!--MD5=[19db0db7353a4bf63eefc676e5ba9b80]
class Anuncio--><rect fill="#FEFECE" filter="url(#f1q7xpv6aanso1)" height="232.9492" id="Anuncio" style="stroke: #A80036; stroke-width: 1.875;" width="222.5" x="1088.75" y="449.375"/><ellipse cx="1167.1875" cy="469.375" fill="#ADD1B2" rx="13.75" ry="13.75" style="stroke: #A80036; stroke-width: 1.25;"/><path d="M1169.6875,465 Q1169.9414,464.375 1170.2344,464.0625 Q1170.5273,463.75 1170.8594,463.75 Q1171.4453,463.75 1171.8164,464.1016 Q1172.1875,464.4531 1172.1875,465.2734 L1172.1875,467.2266 Q1172.1875,468.0469 1171.8359,468.3984 Q1171.4844,468.75 1170.9375,468.75 Q1170.4492,468.75 1170.1367,468.5352 Q1169.8242,468.3203 1169.6875,467.7539 Q1169.6289,467.3633 1169.4141,467.1484 Q1169.0234,466.7383 1168.3203,466.5039 Q1167.6172,466.25 1166.9141,466.25 Q1166.0352,466.25 1165.293,466.6016 Q1164.5703,466.9531 1164.0039,467.7344 Q1163.4375,468.5156 1163.4375,469.5898 L1163.4375,470.7422 Q1163.4375,472.0313 1164.4922,472.8906 Q1165.5469,473.75 1167.4219,473.75 Q1168.5352,473.75 1169.3164,473.4961 Q1169.7656,473.3594 1170.2734,472.9102 Q1170.6055,472.6563 1170.7813,472.5781 Q1170.957,472.5 1171.1719,472.5 Q1171.582,472.5 1171.875,472.832 Q1172.1875,473.1445 1172.1875,473.5938 Q1172.1875,474.0234 1171.7578,474.5313 Q1171.1328,475.2734 1170.1367,475.6836 Q1168.8281,476.25 1167.2266,476.25 Q1165.3516,476.25 1163.8477,475.5078 Q1162.6367,474.9219 1161.7773,473.6523 Q1160.9375,472.3828 1160.9375,470.8789 L1160.9375,469.5117 Q1160.9375,467.9492 1161.6797,466.582 Q1162.4414,465.2148 1163.75,464.4922 Q1165.0781,463.75 1166.5625,463.75 Q1167.4609,463.75 1168.2422,464.0625 Q1169.0234,464.375 1169.6875,465 Z "/><text fill="#000000" font-family="sans-serif" font-size="15" lengthAdjust="spacingAndGlyphs" textLength="55" x="1192.8125" y="475.5127">Anuncio</text><line style="stroke: #A80036; stroke-width: 1.875;" x1="1090" x2="1310" y1="489.375" y2="489.375"/><text fill="#000000" font-family="sans-serif" font-size="13.75" lengthAdjust="spacingAndGlyphs" textLength="148.75" x="1096.25" y="508.6487">-Date dtInicioPublicitacao</text><text fill="#000000" font-family="sans-serif" font-size="13.75" lengthAdjust="spacingAndGlyphs" textLength="138.75" x="1096.25" y="525.9436">-Date dtFimPublicitacao</text><text fill="#000000" font-family="sans-serif" font-size="13.75" lengthAdjust="spacingAndGlyphs" textLength="150" x="1096.25" y="543.2385">-Date dtInicioCandidatura</text><text fill="#000000" font-family="sans-serif" font-size="13.75" lengthAdjust="spacingAndGlyphs" textLength="140" x="1096.25" y="560.5334">-Date dtFimCandidatura</text><text fill="#000000" font-family="sans-serif" font-size="13.75" lengthAdjust="spacingAndGlyphs" textLength="131.25" x="1096.25" y="577.8284">-Date dtInicioSeriacao</text><text fill="#000000" font-family="sans-serif" font-size="13.75" lengthAdjust="spacingAndGlyphs" textLength="121.25" x="1096.25" y="595.1233">-Date dtFimSeriacao</text><line style="stroke: #A80036; stroke-width: 1.875;" x1="1090" x2="1310" y1="603.1445" y2="603.1445"/><text fill="#000000" font-family="sans-serif" font-size="13.75" lengthAdjust="spacingAndGlyphs" textLength="145" x="1096.25" y="622.4182">+getListaCandidaturas()</text><text fill="#000000" font-family="sans-serif" font-size="13.75" lengthAdjust="spacingAndGlyphs" textLength="178.75" x="1096.25" y="639.7131">+getNovoProcessoSeriacao()</text><text fill="#000000" font-family="sans-serif" font-size="13.75" lengthAdjust="spacingAndGlyphs" textLength="185" x="1096.25" y="657.0081">+registaProcessoSeriacao(ps)</text><text fill="#000000" font-family="sans-serif" font-size="13.75" lengthAdjust="spacingAndGlyphs" textLength="207.5" x="1096.25" y="674.303">+novoProcessoAtribuicao(anu,ps)</text><!--MD5=[ced2a86ae8bdfec1c757b7c305a75b1d]
class ListaCandidaturas--><rect fill="#FEFECE" filter="url(#f1q7xpv6aanso1)" height="129.1797" id="ListaCandidaturas" style="stroke: #A80036; stroke-width: 1.875;" width="217.5" x="1490" y="946.25"/><ellipse cx="1531.25" cy="966.25" fill="#ADD1B2" rx="13.75" ry="13.75" style="stroke: #A80036; stroke-width: 1.25;"/><path d="M1533.75,961.875 Q1534.0039,961.25 1534.2969,960.9375 Q1534.5898,960.625 1534.9219,960.625 Q1535.5078,960.625 1535.8789,960.9766 Q1536.25,961.3281 1536.25,962.1484 L1536.25,964.1016 Q1536.25,964.9219 1535.8984,965.2734 Q1535.5469,965.625 1535,965.625 Q1534.5117,965.625 1534.1992,965.4102 Q1533.8867,965.1953 1533.75,964.6289 Q1533.6914,964.2383 1533.4766,964.0234 Q1533.0859,963.6133 1532.3828,963.3789 Q1531.6797,963.125 1530.9766,963.125 Q1530.0977,963.125 1529.3555,963.4766 Q1528.6328,963.8281 1528.0664,964.6094 Q1527.5,965.3906 1527.5,966.4648 L1527.5,967.6172 Q1527.5,968.9063 1528.5547,969.7656 Q1529.6094,970.625 1531.4844,970.625 Q1532.5977,970.625 1533.3789,970.3711 Q1533.8281,970.2344 1534.3359,969.7852 Q1534.668,969.5313 1534.8438,969.4531 Q1535.0195,969.375 1535.2344,969.375 Q1535.6445,969.375 1535.9375,969.707 Q1536.25,970.0195 1536.25,970.4688 Q1536.25,970.8984 1535.8203,971.4063 Q1535.1953,972.1484 1534.1992,972.5586 Q1532.8906,973.125 1531.2891,973.125 Q1529.4141,973.125 1527.9102,972.3828 Q1526.6992,971.7969 1525.8398,970.5273 Q1525,969.2578 1525,967.7539 L1525,966.3867 Q1525,964.8242 1525.7422,963.457 Q1526.5039,962.0898 1527.8125,961.3672 Q1529.1406,960.625 1530.625,960.625 Q1531.5234,960.625 1532.3047,960.9375 Q1533.0859,961.25 1533.75,961.875 Z "/><text fill="#000000" font-family="sans-serif" font-size="15" lengthAdjust="spacingAndGlyphs" textLength="127.5" x="1553.75" y="972.3877">ListaCandidaturas</text><line style="stroke: #A80036; stroke-width: 1.875;" x1="1491.25" x2="1706.25" y1="986.25" y2="986.25"/><line style="stroke: #A80036; stroke-width: 1.875;" x1="1491.25" x2="1706.25" y1="996.25" y2="996.25"/><text fill="#000000" font-family="sans-serif" font-size="13.75" lengthAdjust="spacingAndGlyphs" textLength="108.75" x="1497.5" y="1015.5237">+getCandidatura()</text><text fill="#000000" font-family="sans-serif" font-size="13.75" lengthAdjust="spacingAndGlyphs" textLength="148.75" x="1497.5" y="1032.8186">+getCandidatura(candId)</text><text fill="#000000" font-family="sans-serif" font-size="13.75" lengthAdjust="spacingAndGlyphs" textLength="141.25" x="1497.5" y="1050.1135">+generateOrdem(cand)</text><text fill="#000000" font-family="sans-serif" font-size="13.75" lengthAdjust="spacingAndGlyphs" textLength="202.5" x="1497.5" y="1067.4084">+getCandidaturaByFrl(freelancer)</text><!--MD5=[475c5b924ed41035684e2831311827d2]
class Candidatura--><rect fill="#FEFECE" filter="url(#f1q7xpv6aanso1)" height="198.3594" id="Candidatura" style="stroke: #A80036; stroke-width: 1.875;" width="160" x="1956.25" y="470"/><ellipse cx="1990.75" cy="490" fill="#ADD1B2" rx="13.75" ry="13.75" style="stroke: #A80036; stroke-width: 1.25;"/><path d="M1993.25,485.625 Q1993.5039,485 1993.7969,484.6875 Q1994.0898,484.375 1994.4219,484.375 Q1995.0078,484.375 1995.3789,484.7266 Q1995.75,485.0781 1995.75,485.8984 L1995.75,487.8516 Q1995.75,488.6719 1995.3984,489.0234 Q1995.0469,489.375 1994.5,489.375 Q1994.0117,489.375 1993.6992,489.1602 Q1993.3867,488.9453 1993.25,488.3789 Q1993.1914,487.9883 1992.9766,487.7734 Q1992.5859,487.3633 1991.8828,487.1289 Q1991.1797,486.875 1990.4766,486.875 Q1989.5977,486.875 1988.8555,487.2266 Q1988.1328,487.5781 1987.5664,488.3594 Q1987,489.1406 1987,490.2148 L1987,491.3672 Q1987,492.6563 1988.0547,493.5156 Q1989.1094,494.375 1990.9844,494.375 Q1992.0977,494.375 1992.8789,494.1211 Q1993.3281,493.9844 1993.8359,493.5352 Q1994.168,493.2813 1994.3438,493.2031 Q1994.5195,493.125 1994.7344,493.125 Q1995.1445,493.125 1995.4375,493.457 Q1995.75,493.7695 1995.75,494.2188 Q1995.75,494.6484 1995.3203,495.1563 Q1994.6953,495.8984 1993.6992,496.3086 Q1992.3906,496.875 1990.7891,496.875 Q1988.9141,496.875 1987.4102,496.1328 Q1986.1992,495.5469 1985.3398,494.2773 Q1984.5,493.0078 1984.5,491.5039 L1984.5,490.1367 Q1984.5,488.5742 1985.2422,487.207 Q1986.0039,485.8398 1987.3125,485.1172 Q1988.6406,484.375 1990.125,484.375 Q1991.0234,484.375 1991.8047,484.6875 Q1992.5859,485 1993.25,485.625 Z "/><text fill="#000000" font-family="sans-serif" font-size="15" lengthAdjust="spacingAndGlyphs" textLength="85" x="2011.75" y="496.1377">Candidatura</text><line style="stroke: #A80036; stroke-width: 1.875;" x1="1957.5" x2="2115" y1="510" y2="510"/><text fill="#000000" font-family="sans-serif" font-size="13.75" lengthAdjust="spacingAndGlyphs" textLength="135" x="1963.75" y="529.2737">-Date dataCandidatura</text><text fill="#000000" font-family="sans-serif" font-size="13.75" lengthAdjust="spacingAndGlyphs" textLength="143.75" x="1963.75" y="546.5686">-Double valorPretendido</text><text fill="#000000" font-family="sans-serif" font-size="13.75" lengthAdjust="spacingAndGlyphs" textLength="88.75" x="1963.75" y="563.8635">-Integer nrDias</text><text fill="#000000" font-family="sans-serif" font-size="13.75" lengthAdjust="spacingAndGlyphs" textLength="145" x="1963.75" y="581.1584">-String txtApresentacao</text><text fill="#000000" font-family="sans-serif" font-size="13.75" lengthAdjust="spacingAndGlyphs" textLength="120" x="1963.75" y="598.4534">-String txtMotivacao</text><line style="stroke: #A80036; stroke-width: 1.875;" x1="1957.5" x2="2115" y1="606.4746" y2="606.4746"/><text fill="#000000" font-family="sans-serif" font-size="13.75" lengthAdjust="spacingAndGlyphs" textLength="101.25" x="1963.75" y="625.7483">+getFreelancer()</text><text fill="#000000" font-family="sans-serif" font-size="13.75" lengthAdjust="spacingAndGlyphs" textLength="132.5" x="1963.75" y="643.0432">+getValorPretendido()</text><text fill="#000000" font-family="sans-serif" font-size="13.75" lengthAdjust="spacingAndGlyphs" textLength="76.25" x="1963.75" y="660.3381">+getNrDias()</text><!--MD5=[716bba0e94eea125d5a66a891f2c3c34]
class Classificacao--><rect fill="#FEFECE" filter="url(#f1q7xpv6aanso1)" height="129.1797" id="Classificacao" style="stroke: #A80036; stroke-width: 1.875;" width="181.25" x="1508.125" y="426.25"/><ellipse cx="1548.25" cy="446.25" fill="#ADD1B2" rx="13.75" ry="13.75" style="stroke: #A80036; stroke-width: 1.25;"/><path d="M1550.75,441.875 Q1551.0039,441.25 1551.2969,440.9375 Q1551.5898,440.625 1551.9219,440.625 Q1552.5078,440.625 1552.8789,440.9766 Q1553.25,441.3281 1553.25,442.1484 L1553.25,444.1016 Q1553.25,444.9219 1552.8984,445.2734 Q1552.5469,445.625 1552,445.625 Q1551.5117,445.625 1551.1992,445.4102 Q1550.8867,445.1953 1550.75,444.6289 Q1550.6914,444.2383 1550.4766,444.0234 Q1550.0859,443.6133 1549.3828,443.3789 Q1548.6797,443.125 1547.9766,443.125 Q1547.0977,443.125 1546.3555,443.4766 Q1545.6328,443.8281 1545.0664,444.6094 Q1544.5,445.3906 1544.5,446.4648 L1544.5,447.6172 Q1544.5,448.9063 1545.5547,449.7656 Q1546.6094,450.625 1548.4844,450.625 Q1549.5977,450.625 1550.3789,450.3711 Q1550.8281,450.2344 1551.3359,449.7852 Q1551.668,449.5313 1551.8438,449.4531 Q1552.0195,449.375 1552.2344,449.375 Q1552.6445,449.375 1552.9375,449.707 Q1553.25,450.0195 1553.25,450.4688 Q1553.25,450.8984 1552.8203,451.4063 Q1552.1953,452.1484 1551.1992,452.5586 Q1549.8906,453.125 1548.2891,453.125 Q1546.4141,453.125 1544.9102,452.3828 Q1543.6992,451.7969 1542.8398,450.5273 Q1542,449.2578 1542,447.7539 L1542,446.3867 Q1542,444.8242 1542.7422,443.457 Q1543.5039,442.0898 1544.8125,441.3672 Q1546.1406,440.625 1547.625,440.625 Q1548.5234,440.625 1549.3047,440.9375 Q1550.0859,441.25 1550.75,441.875 Z "/><text fill="#000000" font-family="sans-serif" font-size="15" lengthAdjust="spacingAndGlyphs" textLength="93.75" x="1570.5" y="452.3877">Classificacao</text><line style="stroke: #A80036; stroke-width: 1.875;" x1="1509.375" x2="1688.125" y1="466.25" y2="466.25"/><text fill="#000000" font-family="sans-serif" font-size="13.75" lengthAdjust="spacingAndGlyphs" textLength="80" x="1515.625" y="485.5237">-Integer lugar</text><line style="stroke: #A80036; stroke-width: 1.875;" x1="1509.375" x2="1688.125" y1="493.5449" y2="493.5449"/><text fill="#000000" font-family="sans-serif" font-size="13.75" lengthAdjust="spacingAndGlyphs" textLength="162.5" x="1515.625" y="512.8186">Classificacao(cand,ordem)</text><text fill="#000000" font-family="sans-serif" font-size="13.75" lengthAdjust="spacingAndGlyphs" textLength="166.25" x="1515.625" y="530.1135">+validaClassificacao(class)</text><text fill="#000000" font-family="sans-serif" font-size="13.75" lengthAdjust="spacingAndGlyphs" textLength="153.75" x="1515.625" y="547.4084">+addClassificacao(class)</text><!--MD5=[aca0f236260d30190baee83e33cc7802]
class ProcessoSeriacao--><rect fill="#FEFECE" filter="url(#f1q7xpv6aanso1)" height="146.4746" id="ProcessoSeriacao" style="stroke: #A80036; stroke-width: 1.875;" width="227.5" x="1485" y="598.75"/><ellipse cx="1530.75" cy="618.75" fill="#ADD1B2" rx="13.75" ry="13.75" style="stroke: #A80036; stroke-width: 1.25;"/><path d="M1533.25,614.375 Q1533.5039,613.75 1533.7969,613.4375 Q1534.0898,613.125 1534.4219,613.125 Q1535.0078,613.125 1535.3789,613.4766 Q1535.75,613.8281 1535.75,614.6484 L1535.75,616.6016 Q1535.75,617.4219 1535.3984,617.7734 Q1535.0469,618.125 1534.5,618.125 Q1534.0117,618.125 1533.6992,617.9102 Q1533.3867,617.6953 1533.25,617.1289 Q1533.1914,616.7383 1532.9766,616.5234 Q1532.5859,616.1133 1531.8828,615.8789 Q1531.1797,615.625 1530.4766,615.625 Q1529.5977,615.625 1528.8555,615.9766 Q1528.1328,616.3281 1527.5664,617.1094 Q1527,617.8906 1527,618.9648 L1527,620.1172 Q1527,621.4063 1528.0547,622.2656 Q1529.1094,623.125 1530.9844,623.125 Q1532.0977,623.125 1532.8789,622.8711 Q1533.3281,622.7344 1533.8359,622.2852 Q1534.168,622.0313 1534.3438,621.9531 Q1534.5195,621.875 1534.7344,621.875 Q1535.1445,621.875 1535.4375,622.207 Q1535.75,622.5195 1535.75,622.9688 Q1535.75,623.3984 1535.3203,623.9063 Q1534.6953,624.6484 1533.6992,625.0586 Q1532.3906,625.625 1530.7891,625.625 Q1528.9141,625.625 1527.4102,624.8828 Q1526.1992,624.2969 1525.3398,623.0273 Q1524.5,621.7578 1524.5,620.2539 L1524.5,618.8867 Q1524.5,617.3242 1525.2422,615.957 Q1526.0039,614.5898 1527.3125,613.8672 Q1528.6406,613.125 1530.125,613.125 Q1531.0234,613.125 1531.8047,613.4375 Q1532.5859,613.75 1533.25,614.375 Z "/><text fill="#000000" font-family="sans-serif" font-size="15" lengthAdjust="spacingAndGlyphs" textLength="127.5" x="1554.25" y="624.8877">ProcessoSeriacao</text><line style="stroke: #A80036; stroke-width: 1.875;" x1="1486.25" x2="1711.25" y1="638.75" y2="638.75"/><text fill="#000000" font-family="sans-serif" font-size="13.75" lengthAdjust="spacingAndGlyphs" textLength="128.75" x="1492.5" y="658.0237">-Date dataRealizacao</text><line style="stroke: #A80036; stroke-width: 1.875;" x1="1486.25" x2="1711.25" y1="666.0449" y2="666.0449"/><text fill="#000000" font-family="sans-serif" font-size="13.75" lengthAdjust="spacingAndGlyphs" textLength="212.5" x="1492.5" y="685.3186">+ProcessoSeriacao(tipoRegimento)</text><text fill="#000000" font-family="sans-serif" font-size="13.75" lengthAdjust="spacingAndGlyphs" textLength="192.5" x="1492.5" y="702.6135">+addClassificacao(cand,ordem)</text><text fill="#000000" font-family="sans-serif" font-size="13.75" lengthAdjust="spacingAndGlyphs" textLength="52.5" x="1492.5" y="719.9084">+valida()</text><text fill="#000000" font-family="sans-serif" font-size="13.75" lengthAdjust="spacingAndGlyphs" textLength="157.5" x="1492.5" y="737.2034">+getMelhorClassificacao()</text><!--MD5=[5d1ab724c50d81e7fd2e67537350aa20]
class Adjudicacao--><rect fill="#FEFECE" filter="url(#f1q7xpv6aanso1)" height="215.6543" id="Adjudicacao" style="stroke: #A80036; stroke-width: 1.875;" width="340" x="1866.25" y="210"/><ellipse cx="1989.0625" cy="230" fill="#ADD1B2" rx="13.75" ry="13.75" style="stroke: #A80036; stroke-width: 1.25;"/><path d="M1991.5625,225.625 Q1991.8164,225 1992.1094,224.6875 Q1992.4023,224.375 1992.7344,224.375 Q1993.3203,224.375 1993.6914,224.7266 Q1994.0625,225.0781 1994.0625,225.8984 L1994.0625,227.8516 Q1994.0625,228.6719 1993.7109,229.0234 Q1993.3594,229.375 1992.8125,229.375 Q1992.3242,229.375 1992.0117,229.1602 Q1991.6992,228.9453 1991.5625,228.3789 Q1991.5039,227.9883 1991.2891,227.7734 Q1990.8984,227.3633 1990.1953,227.1289 Q1989.4922,226.875 1988.7891,226.875 Q1987.9102,226.875 1987.168,227.2266 Q1986.4453,227.5781 1985.8789,228.3594 Q1985.3125,229.1406 1985.3125,230.2148 L1985.3125,231.3672 Q1985.3125,232.6563 1986.3672,233.5156 Q1987.4219,234.375 1989.2969,234.375 Q1990.4102,234.375 1991.1914,234.1211 Q1991.6406,233.9844 1992.1484,233.5352 Q1992.4805,233.2813 1992.6563,233.2031 Q1992.832,233.125 1993.0469,233.125 Q1993.457,233.125 1993.75,233.457 Q1994.0625,233.7695 1994.0625,234.2188 Q1994.0625,234.6484 1993.6328,235.1563 Q1993.0078,235.8984 1992.0117,236.3086 Q1990.7031,236.875 1989.1016,236.875 Q1987.2266,236.875 1985.7227,236.1328 Q1984.5117,235.5469 1983.6523,234.2773 Q1982.8125,233.0078 1982.8125,231.5039 L1982.8125,230.1367 Q1982.8125,228.5742 1983.5547,227.207 Q1984.3164,225.8398 1985.625,225.1172 Q1986.9531,224.375 1988.4375,224.375 Q1989.3359,224.375 1990.1172,224.6875 Q1990.8984,225 1991.5625,225.625 Z "/><text fill="#000000" font-family="sans-serif" font-size="15" lengthAdjust="spacingAndGlyphs" textLength="83.75" x="2014.6875" y="236.1377">Adjudicacao</text><line style="stroke: #A80036; stroke-width: 1.875;" x1="1867.5" x2="2205" y1="250" y2="250"/><text fill="#000000" font-family="sans-serif" font-size="13.75" lengthAdjust="spacingAndGlyphs" textLength="98.75" x="1873.75" y="269.2737">-String dsTarefa</text><text fill="#000000" font-family="sans-serif" font-size="13.75" lengthAdjust="spacingAndGlyphs" textLength="57.5" x="1873.75" y="286.5686">-Date dtIn</text><text fill="#000000" font-family="sans-serif" font-size="13.75" lengthAdjust="spacingAndGlyphs" textLength="67.5" x="1873.75" y="303.8635">-Date dtFim</text><text fill="#000000" font-family="sans-serif" font-size="13.75" lengthAdjust="spacingAndGlyphs" textLength="122.5" x="1873.75" y="321.1584">-Date dtAdjudicacao</text><text fill="#000000" font-family="sans-serif" font-size="13.75" lengthAdjust="spacingAndGlyphs" textLength="142.5" x="1873.75" y="338.4534">-double valorPretendido</text><text fill="#000000" font-family="sans-serif" font-size="13.75" lengthAdjust="spacingAndGlyphs" textLength="86.25" x="1873.75" y="355.7483">-String refAnu</text><text fill="#000000" font-family="sans-serif" font-size="13.75" lengthAdjust="spacingAndGlyphs" textLength="71.25" x="1873.75" y="373.0432">-String adjId</text><line style="stroke: #A80036; stroke-width: 1.875;" x1="1867.5" x2="2205" y1="381.0645" y2="381.0645"/><text fill="#000000" font-family="sans-serif" font-size="13.75" lengthAdjust="spacingAndGlyphs" textLength="170" x="1873.75" y="400.3381">+validaAdjudicacao(adjAnu)</text><text fill="#000000" font-family="sans-serif" font-size="13.75" lengthAdjust="spacingAndGlyphs" textLength="325" x="1873.75" y="417.6331">-Adjudicacao(org,frl,dsTarefa,dtIn,dtFim,valor,refAnu)</text><!--MD5=[27c2d4bbe9f7b9d3b0ea2797cc54308a]
class Tarefa--><rect fill="#FEFECE" filter="url(#f1q7xpv6aanso1)" height="94.5898" id="Tarefa" style="stroke: #A80036; stroke-width: 1.875;" width="130" x="1971.25" y="10.625"/><ellipse cx="2010.8125" cy="30.625" fill="#ADD1B2" rx="13.75" ry="13.75" style="stroke: #A80036; stroke-width: 1.25;"/><path d="M2013.3125,26.25 Q2013.5664,25.625 2013.8594,25.3125 Q2014.1523,25 2014.4844,25 Q2015.0703,25 2015.4414,25.3516 Q2015.8125,25.7031 2015.8125,26.5234 L2015.8125,28.4766 Q2015.8125,29.2969 2015.4609,29.6484 Q2015.1094,30 2014.5625,30 Q2014.0742,30 2013.7617,29.7852 Q2013.4492,29.5703 2013.3125,29.0039 Q2013.2539,28.6133 2013.0391,28.3984 Q2012.6484,27.9883 2011.9453,27.7539 Q2011.2422,27.5 2010.5391,27.5 Q2009.6602,27.5 2008.918,27.8516 Q2008.1953,28.2031 2007.6289,28.9844 Q2007.0625,29.7656 2007.0625,30.8398 L2007.0625,31.9922 Q2007.0625,33.2813 2008.1172,34.1406 Q2009.1719,35 2011.0469,35 Q2012.1602,35 2012.9414,34.7461 Q2013.3906,34.6094 2013.8984,34.1602 Q2014.2305,33.9063 2014.4063,33.8281 Q2014.582,33.75 2014.7969,33.75 Q2015.207,33.75 2015.5,34.082 Q2015.8125,34.3945 2015.8125,34.8438 Q2015.8125,35.2734 2015.3828,35.7813 Q2014.7578,36.5234 2013.7617,36.9336 Q2012.4531,37.5 2010.8516,37.5 Q2008.9766,37.5 2007.4727,36.7578 Q2006.2617,36.1719 2005.4023,34.9023 Q2004.5625,33.6328 2004.5625,32.1289 L2004.5625,30.7617 Q2004.5625,29.1992 2005.3047,27.832 Q2006.0664,26.4648 2007.375,25.7422 Q2008.7031,25 2010.1875,25 Q2011.0859,25 2011.8672,25.3125 Q2012.6484,25.625 2013.3125,26.25 Z "/><text fill="#000000" font-family="sans-serif" font-size="15" lengthAdjust="spacingAndGlyphs" textLength="43.75" x="2032.9375" y="36.7627">Tarefa</text><line style="stroke: #A80036; stroke-width: 1.875;" x1="1972.5" x2="2100" y1="50.625" y2="50.625"/><line style="stroke: #A80036; stroke-width: 1.875;" x1="1972.5" x2="2100" y1="60.625" y2="60.625"/><text fill="#000000" font-family="sans-serif" font-size="13.75" lengthAdjust="spacingAndGlyphs" textLength="115" x="1978.75" y="79.8987">+getDescInformal()</text><text fill="#000000" font-family="sans-serif" font-size="13.75" lengthAdjust="spacingAndGlyphs" textLength="102.5" x="1978.75" y="97.1936">+getReferencia()</text><!--MD5=[8bc17582e55ad67b52a8caaa08816a5d]
class ProcessoAtribuicao--><rect fill="#FEFECE" filter="url(#f1q7xpv6aanso1)" height="129.1797" id="ProcessoAtribuicao" style="stroke: #A80036; stroke-width: 1.875;" width="173.75" x="1511.875" y="253.75"/><ellipse cx="1530.625" cy="273.75" fill="#ADD1B2" rx="13.75" ry="13.75" style="stroke: #A80036; stroke-width: 1.25;"/><path d="M1533.125,269.375 Q1533.3789,268.75 1533.6719,268.4375 Q1533.9648,268.125 1534.2969,268.125 Q1534.8828,268.125 1535.2539,268.4766 Q1535.625,268.8281 1535.625,269.6484 L1535.625,271.6016 Q1535.625,272.4219 1535.2734,272.7734 Q1534.9219,273.125 1534.375,273.125 Q1533.8867,273.125 1533.5742,272.9102 Q1533.2617,272.6953 1533.125,272.1289 Q1533.0664,271.7383 1532.8516,271.5234 Q1532.4609,271.1133 1531.7578,270.8789 Q1531.0547,270.625 1530.3516,270.625 Q1529.4727,270.625 1528.7305,270.9766 Q1528.0078,271.3281 1527.4414,272.1094 Q1526.875,272.8906 1526.875,273.9648 L1526.875,275.1172 Q1526.875,276.4063 1527.9297,277.2656 Q1528.9844,278.125 1530.8594,278.125 Q1531.9727,278.125 1532.7539,277.8711 Q1533.2031,277.7344 1533.7109,277.2852 Q1534.043,277.0313 1534.2188,276.9531 Q1534.3945,276.875 1534.6094,276.875 Q1535.0195,276.875 1535.3125,277.207 Q1535.625,277.5195 1535.625,277.9688 Q1535.625,278.3984 1535.1953,278.9063 Q1534.5703,279.6484 1533.5742,280.0586 Q1532.2656,280.625 1530.6641,280.625 Q1528.7891,280.625 1527.2852,279.8828 Q1526.0742,279.2969 1525.2148,278.0273 Q1524.375,276.7578 1524.375,275.2539 L1524.375,273.8867 Q1524.375,272.3242 1525.1172,270.957 Q1525.8789,269.5898 1527.1875,268.8672 Q1528.5156,268.125 1530,268.125 Q1530.8984,268.125 1531.6797,268.4375 Q1532.4609,268.75 1533.125,269.375 Z "/><text fill="#000000" font-family="sans-serif" font-size="15" lengthAdjust="spacingAndGlyphs" textLength="133.75" x="1548.125" y="279.8877">ProcessoAtribuicao</text><line style="stroke: #A80036; stroke-width: 1.875;" x1="1513.125" x2="1684.375" y1="293.75" y2="293.75"/><line style="stroke: #A80036; stroke-width: 1.875;" x1="1513.125" x2="1684.375" y1="303.75" y2="303.75"/><text fill="#000000" font-family="sans-serif" font-size="13.75" lengthAdjust="spacingAndGlyphs" textLength="152.5" x="1519.375" y="323.0237">+ProcessoAtribuicao(tar)</text><text fill="#000000" font-family="sans-serif" font-size="13.75" lengthAdjust="spacingAndGlyphs" textLength="63.75" x="1519.375" y="340.3186">+setData()</text><text fill="#000000" font-family="sans-serif" font-size="13.75" lengthAdjust="spacingAndGlyphs" textLength="127.5" x="1519.375" y="357.6135">+validaAdjudicacao()</text><text fill="#000000" font-family="sans-serif" font-size="13.75" lengthAdjust="spacingAndGlyphs" textLength="115" x="1519.375" y="374.9084">+addAdjudicacao()</text><!--MD5=[ac8682ea5466d223e49472789fb200d2]
class Colaborador--><rect fill="#FEFECE" filter="url(#f1q7xpv6aanso1)" height="77.2949" id="Colaborador" style="stroke: #A80036; stroke-width: 1.875;" width="155" x="1521.25" y="131.875"/><ellipse cx="1552.9375" cy="151.875" fill="#ADD1B2" rx="13.75" ry="13.75" style="stroke: #A80036; stroke-width: 1.25;"/><path d="M1555.4375,147.5 Q1555.6914,146.875 1555.9844,146.5625 Q1556.2773,146.25 1556.6094,146.25 Q1557.1953,146.25 1557.5664,146.6016 Q1557.9375,146.9531 1557.9375,147.7734 L1557.9375,149.7266 Q1557.9375,150.5469 1557.5859,150.8984 Q1557.2344,151.25 1556.6875,151.25 Q1556.1992,151.25 1555.8867,151.0352 Q1555.5742,150.8203 1555.4375,150.2539 Q1555.3789,149.8633 1555.1641,149.6484 Q1554.7734,149.2383 1554.0703,149.0039 Q1553.3672,148.75 1552.6641,148.75 Q1551.7852,148.75 1551.043,149.1016 Q1550.3203,149.4531 1549.7539,150.2344 Q1549.1875,151.0156 1549.1875,152.0898 L1549.1875,153.2422 Q1549.1875,154.5313 1550.2422,155.3906 Q1551.2969,156.25 1553.1719,156.25 Q1554.2852,156.25 1555.0664,155.9961 Q1555.5156,155.8594 1556.0234,155.4102 Q1556.3555,155.1563 1556.5313,155.0781 Q1556.707,155 1556.9219,155 Q1557.332,155 1557.625,155.332 Q1557.9375,155.6445 1557.9375,156.0938 Q1557.9375,156.5234 1557.5078,157.0313 Q1556.8828,157.7734 1555.8867,158.1836 Q1554.5781,158.75 1552.9766,158.75 Q1551.1016,158.75 1549.5977,158.0078 Q1548.3867,157.4219 1547.5273,156.1523 Q1546.6875,154.8828 1546.6875,153.3789 L1546.6875,152.0117 Q1546.6875,150.4492 1547.4297,149.082 Q1548.1914,147.7148 1549.5,146.9922 Q1550.8281,146.25 1552.3125,146.25 Q1553.2109,146.25 1553.9922,146.5625 Q1554.7734,146.875 1555.4375,147.5 Z "/><text fill="#000000" font-family="sans-serif" font-size="15" lengthAdjust="spacingAndGlyphs" textLength="86.25" x="1573.3125" y="158.0127">Colaborador</text><line style="stroke: #A80036; stroke-width: 1.875;" x1="1522.5" x2="1675" y1="171.875" y2="171.875"/><line style="stroke: #A80036; stroke-width: 1.875;" x1="1522.5" x2="1675" y1="181.875" y2="181.875"/><text fill="#000000" font-family="sans-serif" font-size="13.75" lengthAdjust="spacingAndGlyphs" textLength="140" x="1528.75" y="201.1487">+getEmailColaborador()</text><!--MD5=[0b8c11e89e8561660fecfc719ed33ad4]
class ListaTarefas--><rect fill="#FEFECE" filter="url(#f1q7xpv6aanso1)" height="60" id="ListaTarefas" style="stroke: #A80036; stroke-width: 1.875;" width="126.25" x="1535.625" y="28.125"/><ellipse cx="1554.375" cy="48.125" fill="#ADD1B2" rx="13.75" ry="13.75" style="stroke: #A80036; stroke-width: 1.25;"/><path d="M1556.875,43.75 Q1557.1289,43.125 1557.4219,42.8125 Q1557.7148,42.5 1558.0469,42.5 Q1558.6328,42.5 1559.0039,42.8516 Q1559.375,43.2031 1559.375,44.0234 L1559.375,45.9766 Q1559.375,46.7969 1559.0234,47.1484 Q1558.6719,47.5 1558.125,47.5 Q1557.6367,47.5 1557.3242,47.2852 Q1557.0117,47.0703 1556.875,46.5039 Q1556.8164,46.1133 1556.6016,45.8984 Q1556.2109,45.4883 1555.5078,45.2539 Q1554.8047,45 1554.1016,45 Q1553.2227,45 1552.4805,45.3516 Q1551.7578,45.7031 1551.1914,46.4844 Q1550.625,47.2656 1550.625,48.3398 L1550.625,49.4922 Q1550.625,50.7813 1551.6797,51.6406 Q1552.7344,52.5 1554.6094,52.5 Q1555.7227,52.5 1556.5039,52.2461 Q1556.9531,52.1094 1557.4609,51.6602 Q1557.793,51.4063 1557.9688,51.3281 Q1558.1445,51.25 1558.3594,51.25 Q1558.7695,51.25 1559.0625,51.582 Q1559.375,51.8945 1559.375,52.3438 Q1559.375,52.7734 1558.9453,53.2813 Q1558.3203,54.0234 1557.3242,54.4336 Q1556.0156,55 1554.4141,55 Q1552.5391,55 1551.0352,54.2578 Q1549.8242,53.6719 1548.9648,52.4023 Q1548.125,51.1328 1548.125,49.6289 L1548.125,48.2617 Q1548.125,46.6992 1548.8672,45.332 Q1549.6289,43.9648 1550.9375,43.2422 Q1552.2656,42.5 1553.75,42.5 Q1554.6484,42.5 1555.4297,42.8125 Q1556.2109,43.125 1556.875,43.75 Z "/><text fill="#000000" font-family="sans-serif" font-size="15" lengthAdjust="spacingAndGlyphs" textLength="86.25" x="1571.875" y="54.2627">ListaTarefas</text><line style="stroke: #A80036; stroke-width: 1.875;" x1="1536.875" x2="1660.625" y1="68.125" y2="68.125"/><line style="stroke: #A80036; stroke-width: 1.875;" x1="1536.875" x2="1660.625" y1="78.125" y2="78.125"/><!--MD5=[d544253fbcd8232e92d8d890b9da6266]
link Plataforma to TimerTask--><path d="M530.2837,421.7025 C585.7275,444.18 656.5475,472.8913 706.44,493.1175 " fill="none" id="Plataforma-&gt;TimerTask" style="stroke: #A80036; stroke-width: 1.25; stroke-dasharray: 7.0,7.0;"/><polygon fill="#A80036" points="712.4187,495.5413,703.8721,486.6803,706.6268,493.1927,700.1144,495.9474,712.4187,495.5413" style="stroke: #A80036; stroke-width: 1.25;"/><!--MD5=[35c3eefc8e49b5536114c02103d12151]
link TimerTask to SeriarCandidaturasAnunciosTask--><path d="M712.3938,514.1 C617.4163,507.2413 421.4013,493.0863 286.5825,483.35 " fill="none" id="TimerTask-&gt;SeriarCandidaturasAnunciosTask" style="stroke: #A80036; stroke-width: 1.25; stroke-dasharray: 7.0,7.0;"/><polygon fill="#A80036" points="280.2088,482.8887,291.0696,488.6858,286.4425,483.3387,291.7895,478.7117,280.2088,482.8887" style="stroke: #A80036; stroke-width: 1.25;"/><!--MD5=[6911f8104d37c54b704b2c20c3ac143e]
link SeriarCandidaturasAnunciosTask to Plataforma--><path d="M280.4063,433.7863 C303.89,426.9638 327.8113,420.0137 349.7963,413.6262 " fill="none" id="SeriarCandidaturasAnunciosTask-&gt;Plataforma" style="stroke: #A80036; stroke-width: 1.25; stroke-dasharray: 7.0,7.0;"/><polygon fill="#A80036" points="355.9438,411.84,343.7457,410.1756,349.9417,413.5829,346.5344,419.7789,355.9438,411.84" style="stroke: #A80036; stroke-width: 1.25;"/><!--MD5=[f474418f0299e5a3deeeaebedb6f44d3]
link Plataforma to RegistoOrganizacoes--><path d="M530.2837,352.3788 C571.8775,335.6775 622.1238,315.5012 665.6963,298.005 " fill="none" id="Plataforma-&gt;RegistoOrganizacoes" style="stroke: #A80036; stroke-width: 1.25;"/><polygon fill="#A80036" points="671.5238,295.665,659.2209,295.2164,665.7237,297.9936,662.9466,304.4965,671.5238,295.665" style="stroke: #A80036; stroke-width: 1.25;"/><text fill="#000000" font-family="sans-serif" font-size="16.25" lengthAdjust="spacingAndGlyphs" textLength="27.5" x="568.75" y="321.2439">tem</text><text fill="#000000" font-family="sans-serif" font-size="16.25" lengthAdjust="spacingAndGlyphs" textLength="8.75" x="539.7232" y="366.722">1</text><text fill="#000000" font-family="sans-serif" font-size="16.25" lengthAdjust="spacingAndGlyphs" textLength="8.75" x="642.648" y="322.2029">1</text><!--MD5=[463821f61fd53759657c2ac769a7e835]
link Plataforma to RegistoAnuncios--><path d="M530.2837,389.1962 C560.315,390.0087 594.8575,390.9425 628.1425,391.8412 " fill="none" id="Plataforma-&gt;RegistoAnuncios" style="stroke: #A80036; stroke-width: 1.25;"/><polygon fill="#A80036" points="634.7813,392.0212,623.6711,386.7178,628.5336,391.8516,623.3997,396.7141,634.7813,392.0212" style="stroke: #A80036; stroke-width: 1.25;"/><text fill="#000000" font-family="sans-serif" font-size="16.25" lengthAdjust="spacingAndGlyphs" textLength="27.5" x="568.75" y="384.9939">tem</text><text fill="#000000" font-family="sans-serif" font-size="16.25" lengthAdjust="spacingAndGlyphs" textLength="8.75" x="539.7232" y="407.3363">1</text><text fill="#000000" font-family="sans-serif" font-size="16.25" lengthAdjust="spacingAndGlyphs" textLength="8.75" x="616.26" y="409.3625">1</text><!--MD5=[7846c904d139ffad2e5d1ca294d8e188]
link RegistoOrganizacoes to Organizacao--><path d="M899.6575,230.88 C975.59,215.5825 1068.5662,196.8513 1130.5038,184.3738 " fill="none" id="RegistoOrganizacoes-&gt;Organizacao" style="stroke: #A80036; stroke-width: 1.25;"/><polygon fill="#A80036" points="1136.7725,183.1113,1124.756,180.4342,1130.6459,184.3469,1126.7331,190.2368,1136.7725,183.1113" style="stroke: #A80036; stroke-width: 1.25;"/><text fill="#000000" font-family="sans-serif" font-size="16.25" lengthAdjust="spacingAndGlyphs" textLength="107.5" x="942.5" y="197.4939">tem registadas</text><text fill="#000000" font-family="sans-serif" font-size="16.25" lengthAdjust="spacingAndGlyphs" textLength="8.75" x="909.5464" y="246.5979">1</text><text fill="#000000" font-family="sans-serif" font-size="16.25" lengthAdjust="spacingAndGlyphs" textLength="6.25" x="1120.777" y="203.2986">*</text><!--MD5=[2903b91671052adea6f5e59eb6d59b42]
link RegistoAnuncios to Anuncio--><path d="M868.3088,434.4137 C932.0325,459.7163 1015.5238,492.8688 1082.6375,519.5188 " fill="none" id="RegistoAnuncios-&gt;Anuncio" style="stroke: #A80036; stroke-width: 1.25;"/><polygon fill="#A80036" points="1088.6687,521.9138,1080.0588,513.1142,1082.8601,519.6067,1076.3676,522.408,1088.6687,521.9138" style="stroke: #A80036; stroke-width: 1.25;"/><text fill="#000000" font-family="sans-serif" font-size="16.25" lengthAdjust="spacingAndGlyphs" textLength="60" x="966.25" y="459.9939">publicita</text><text fill="#000000" font-family="sans-serif" font-size="16.25" lengthAdjust="spacingAndGlyphs" textLength="8.75" x="878.175" y="460.9514">1</text><text fill="#000000" font-family="sans-serif" font-size="16.25" lengthAdjust="spacingAndGlyphs" textLength="6.25" x="1072.5827" y="535.8852">*</text><!--MD5=[3fb03004f687adcfc695220fdd65ad26]
link Anuncio to TipoRegimento--><path d="M1311.3,643.9125 C1363.825,681.2238 1427.6125,726.435 1485,766.875 C1493.55,772.9025 1502.4875,779.1775 1511.4,785.4388 " fill="none" id="Anuncio-&gt;TipoRegimento" style="stroke: #A80036; stroke-width: 1.25;"/><polygon fill="#A80036" points="1516.95,789.3325,1510.6121,778.7782,1511.8336,785.743,1504.8688,786.9645,1516.95,789.3325" style="stroke: #A80036; stroke-width: 1.25;"/><text fill="#000000" font-family="sans-serif" font-size="16.25" lengthAdjust="spacingAndGlyphs" textLength="81.25" x="1357.5" y="668.7439">rege-se por</text><text fill="#000000" font-family="sans-serif" font-size="16.25" lengthAdjust="spacingAndGlyphs" textLength="6.25" x="1321.1334" y="668.3682">*</text><text fill="#000000" font-family="sans-serif" font-size="16.25" lengthAdjust="spacingAndGlyphs" textLength="8.75" x="1496.0816" y="776.9532">1</text><!--MD5=[0a535575571876f6213287bf563a867d]
link Anuncio to Colaborador--><path d="M1281.325,449.2012 C1333.3875,379.7175 1406.1,293.335 1485,231.875 C1494.325,224.61 1504.625,217.7225 1515.1,211.3662 " fill="none" id="Anuncio-&gt;Colaborador" style="stroke: #A80036; stroke-width: 1.25;"/><polygon fill="#A80036" points="1520.9375,207.8912,1508.7167,209.3793,1515.5749,211.1013,1513.8528,217.9595,1520.9375,207.8912" style="stroke: #A80036; stroke-width: 1.25;"/><text fill="#000000" font-family="sans-serif" font-size="16.25" lengthAdjust="spacingAndGlyphs" textLength="96.25" x="1350" y="264.9939">publicado por</text><text fill="#000000" font-family="sans-serif" font-size="16.25" lengthAdjust="spacingAndGlyphs" textLength="6.25" x="1281.3066" y="435.9954">*</text><text fill="#000000" font-family="sans-serif" font-size="16.25" lengthAdjust="spacingAndGlyphs" textLength="8.75" x="1502.6846" y="230.2626">1</text><!--MD5=[936379bbb1fbe67f1148bc2fdcd3e3c1]
link Anuncio to ListaCandidaturas--><path d="M1279.4125,682.265 C1332.35,756.4013 1406.7,851.74 1485,924.375 C1491.1875,930.11 1497.725,935.855 1504.425,941.505 " fill="none" id="Anuncio-&gt;ListaCandidaturas" style="stroke: #A80036; stroke-width: 1.25;"/><polygon fill="#A80036" points="1509.575,945.805,1504.1375,934.7598,1504.7751,941.8021,1497.7328,942.4397,1509.575,945.805" style="stroke: #A80036; stroke-width: 1.25;"/><text fill="#000000" font-family="sans-serif" font-size="16.25" lengthAdjust="spacingAndGlyphs" textLength="57.5" x="1369.375" y="771.2439">recebeu</text><text fill="#000000" font-family="sans-serif" font-size="16.25" lengthAdjust="spacingAndGlyphs" textLength="8.75" x="1276.6421" y="709.2251">1</text><text fill="#000000" font-family="sans-serif" font-size="16.25" lengthAdjust="spacingAndGlyphs" textLength="8.75" x="1488.2542" y="932.6206">1</text><!--MD5=[b3c62d3bd372a34b7ee6d6af17619677]
link ListaCandidaturas to Candidatura--><path d="M1687.275,946.2262 C1695.975,939.065 1704.525,931.7063 1712.5,924.375 C1799.6,844.2525 1889.3875,743.6713 1952.0375,670.0463 " fill="none" id="ListaCandidaturas-&gt;Candidatura" style="stroke: #A80036; stroke-width: 1.25;"/><polygon fill="#A80036" points="1956.125,665.2363,1945.0322,670.5759,1952.0798,670.0006,1952.6551,677.0482,1956.125,665.2363" style="stroke: #A80036; stroke-width: 1.25;"/><text fill="#000000" font-family="sans-serif" font-size="16.25" lengthAdjust="spacingAndGlyphs" textLength="27.5" x="1775.625" y="807.4939">tem</text><text fill="#000000" font-family="sans-serif" font-size="16.25" lengthAdjust="spacingAndGlyphs" textLength="8.75" x="1690.3586" y="932.6335">1</text><text fill="#000000" font-family="sans-serif" font-size="16.25" lengthAdjust="spacingAndGlyphs" textLength="6.25" x="1940.2492" y="694.3933">*</text><!--MD5=[02d330b3691aaed85c2b7230cc23c1df]
link Anuncio to ProcessoSeriacao--><path d="M1311.625,595.2213 C1363.6625,609.175 1425.825,625.8425 1478.875,640.065 " fill="none" id="Anuncio-&gt;ProcessoSeriacao" style="stroke: #A80036; stroke-width: 1.25;"/><polygon fill="#A80036" points="1484.9625,641.6987,1475.3778,633.9724,1478.9229,640.0906,1472.8048,643.6357,1484.9625,641.6987" style="stroke: #A80036; stroke-width: 1.25;"/><text fill="#000000" font-family="sans-serif" font-size="16.25" lengthAdjust="spacingAndGlyphs" textLength="61.25" x="1367.5" y="601.2439">espoleta</text><text fill="#000000" font-family="sans-serif" font-size="16.25" lengthAdjust="spacingAndGlyphs" textLength="8.75" x="1321.2312" y="615.3688">1</text><text fill="#000000" font-family="sans-serif" font-size="16.25" lengthAdjust="spacingAndGlyphs" textLength="27.5" x="1447.6979" y="657.0311">0..1</text><!--MD5=[471b8c6ff5fcf31b4b6fb9b4f947344d]
link Classificacao to Candidatura--><path d="M1689.6,506.8462 C1765.925,520.6638 1874.8375,540.38 1949.85,553.9613 " fill="none" id="Classificacao-&gt;Candidatura" style="stroke: #A80036; stroke-width: 1.25;"/><polygon fill="#A80036" points="1956.1,555.0913,1945.9139,548.1771,1949.9489,553.9839,1944.1421,558.0189,1956.1,555.0913" style="stroke: #A80036; stroke-width: 1.25;"/><text fill="#000000" font-family="sans-serif" font-size="16.25" lengthAdjust="spacingAndGlyphs" textLength="76.25" x="1751.25" y="513.7439">referente a</text><text fill="#000000" font-family="sans-serif" font-size="16.25" lengthAdjust="spacingAndGlyphs" textLength="27.5" x="1699.2428" y="526.1329">0..1</text><text fill="#000000" font-family="sans-serif" font-size="16.25" lengthAdjust="spacingAndGlyphs" textLength="8.75" x="1937.5768" y="571.5128">1</text><!--MD5=[a66e767a4304f5fa76db98d7839a7a61]
link Candidatura to Freelancer--><path d="M2116.3625,539.8812 C2193.2375,511.1288 2308.1875,468.135 2376.05,442.755 " fill="none" id="Candidatura-Freelancer" style="stroke: #A80036; stroke-width: 1.25;"/><text fill="#000000" font-family="sans-serif" font-size="16.25" lengthAdjust="spacingAndGlyphs" textLength="92.5" x="2245" y="452.4939">realizada por</text><text fill="#000000" font-family="sans-serif" font-size="16.25" lengthAdjust="spacingAndGlyphs" textLength="6.25" x="2126.5071" y="554.4249">*</text><text fill="#000000" font-family="sans-serif" font-size="16.25" lengthAdjust="spacingAndGlyphs" textLength="8.75" x="2357.5064" y="464.5462">1</text><!--MD5=[fe36d68e6ccc9fbcf1b4b1ecbcfd2a3f]
link Organizacao to ListaTarefas--><path d="M1263.1625,153.0463 C1335.3625,132.55 1454.325,98.775 1529.1625,77.5262 " fill="none" id="Organizacao-&gt;ListaTarefas" style="stroke: #A80036; stroke-width: 1.25;"/><polygon fill="#A80036" points="1535.3625,75.765,1523.1775,74.0078,1529.3473,77.4622,1525.893,83.632,1535.3625,75.765" style="stroke: #A80036; stroke-width: 1.25;"/><text fill="#000000" font-family="sans-serif" font-size="16.25" lengthAdjust="spacingAndGlyphs" textLength="27.5" x="1384.375" y="97.4939">tem</text><text fill="#000000" font-family="sans-serif" font-size="16.25" lengthAdjust="spacingAndGlyphs" textLength="8.75" x="1273.0821" y="145.8803">1</text><text fill="#000000" font-family="sans-serif" font-size="16.25" lengthAdjust="spacingAndGlyphs" textLength="8.75" x="1517.0834" y="96.5517">1</text><!--MD5=[d258da2d5a47e4c990d61ccbbbe86ed7]
link ListaTarefas to Tarefa--><path d="M1662.325,58.125 C1742.35,58.125 1880.8375,58.125 1964.5875,58.125 " fill="none" id="ListaTarefas-&gt;Tarefa" style="stroke: #A80036; stroke-width: 1.25;"/><polygon fill="#A80036" points="1971.025,58.125,1959.775,53.125,1964.775,58.125,1959.775,63.125,1971.025,58.125" style="stroke: #A80036; stroke-width: 1.25;"/><text fill="#000000" font-family="sans-serif" font-size="16.25" lengthAdjust="spacingAndGlyphs" textLength="27.5" x="1775.625" y="53.7439">tem</text><text fill="#000000" font-family="sans-serif" font-size="16.25" lengthAdjust="spacingAndGlyphs" textLength="8.75" x="1671.8805" y="76.431">1</text><text fill="#000000" font-family="sans-serif" font-size="16.25" lengthAdjust="spacingAndGlyphs" textLength="6.25" x="1955.1633" y="76.4599">*</text><!--MD5=[567db691f9836c63f305bad1024cbc66]
link Organizacao to Colaborador--><path d="M1263.1625,170.625 C1330.775,170.625 1439.4125,170.625 1514.4,170.625 " fill="none" id="Organizacao-&gt;Colaborador" style="stroke: #A80036; stroke-width: 1.25;"/><polygon fill="#A80036" points="1521.1,170.625,1509.85,165.625,1514.85,170.625,1509.85,175.625,1521.1,170.625" style="stroke: #A80036; stroke-width: 1.25;"/><text fill="#000000" font-family="sans-serif" font-size="16.25" lengthAdjust="spacingAndGlyphs" textLength="27.5" x="1384.375" y="166.2439">tem</text><text fill="#000000" font-family="sans-serif" font-size="16.25" lengthAdjust="spacingAndGlyphs" textLength="8.75" x="1273.0821" y="188.9784">1</text><text fill="#000000" font-family="sans-serif" font-size="16.25" lengthAdjust="spacingAndGlyphs" textLength="6.25" x="1505.0055" y="188.7519">*</text><!--MD5=[b6f7c6f48377175abd4e6e8cc5d4c110]
link Anuncio to ProcessoAtribuicao--><path d="M1311.625,496.6825 C1372.85,458.4387 1448.1,411.4437 1506.0125,375.2662 " fill="none" id="Anuncio-&gt;ProcessoAtribuicao" style="stroke: #A80036; stroke-width: 1.25;"/><polygon fill="#A80036" points="1511.5625,371.8,1499.3746,373.5373,1506.2665,375.1189,1504.6849,382.0108,1511.5625,371.8" style="stroke: #A80036; stroke-width: 1.25;"/><text fill="#000000" font-family="sans-serif" font-size="16.25" lengthAdjust="spacingAndGlyphs" textLength="61.25" x="1367.5" y="407.4939">espoleta</text><text fill="#000000" font-family="sans-serif" font-size="16.25" lengthAdjust="spacingAndGlyphs" textLength="8.75" x="1321.2312" y="508.6698">1</text><text fill="#000000" font-family="sans-serif" font-size="16.25" lengthAdjust="spacingAndGlyphs" textLength="8.75" x="1493.3701" y="395.2359">1</text><!--MD5=[7d06a2927183570e13ebe5ea47997a17]
link ProcessoAtribuicao to Adjudicacao--><path d="M1685.9375,318.125 C1735.5125,318.125 1799.6875,318.125 1859.4625,318.125 " fill="none" id="ProcessoAtribuicao-&gt;Adjudicacao" style="stroke: #A80036; stroke-width: 1.25;"/><polygon fill="#A80036" points="1865.9875,318.125,1854.7375,313.125,1859.7375,318.125,1854.7375,323.125,1865.9875,318.125" style="stroke: #A80036; stroke-width: 1.25;"/><text fill="#000000" font-family="sans-serif" font-size="16.25" lengthAdjust="spacingAndGlyphs" textLength="27.5" x="1775.625" y="313.7439">tem</text><text fill="#000000" font-family="sans-serif" font-size="16.25" lengthAdjust="spacingAndGlyphs" textLength="8.75" x="1695.3799" y="336.0257">1</text><text fill="#000000" font-family="sans-serif" font-size="16.25" lengthAdjust="spacingAndGlyphs" textLength="8.75" x="1847.687" y="335.5691">1</text><!--MD5=[c33cd5cc003d16907b06244bdccbdbb1]
link Adjudicacao to Freelancer--><path d="M2206.4625,362.5763 C2264.45,377.83 2325.7625,393.96 2369.775,405.5388 " fill="none" id="Adjudicacao-&gt;Freelancer" style="stroke: #A80036; stroke-width: 1.25;"/><polygon fill="#A80036" points="2376.15,407.2137,2366.5625,399.4909,2370.1098,405.6078,2363.993,409.1552,2376.15,407.2137" style="stroke: #A80036; stroke-width: 1.25;"/><text fill="#000000" font-family="sans-serif" font-size="16.25" lengthAdjust="spacingAndGlyphs" textLength="56.25" x="2263.125" y="367.4939">escolhe</text><text fill="#000000" font-family="sans-serif" font-size="16.25" lengthAdjust="spacingAndGlyphs" textLength="8.75" x="2216.0103" y="382.4513">1</text><text fill="#000000" font-family="sans-serif" font-size="16.25" lengthAdjust="spacingAndGlyphs" textLength="8.75" x="2357.6223" y="423.3405">1</text><!--MD5=[e1e6e4d45106efb9287d6b88a1f6b28f]
@startuml
skinparam classAttributeIconSize 0
left to right direction


class SeriarCandidaturasAnunciosTask
{
+SeriarCandidaturasAnunciosTask(info)
+run()
+seriarCandidaturasSubmetidas()
}

abstract TimerTask{
+run()
}

class Plataforma {
  -String designacao
  +agendaSeriacao()
  +getRegistoAnuncio()
  +getRegistoOrganizacao()
}

class RegistoOrganizacoes {
    +getOrganizacaoByEmailUtilizador(email)
}

class RegistoAnuncios {
    +getAnunciosPorSeriarAutomaticamente()
}

class Organizacao {
  -String nome
  -String NIF
  -String website
  -String telefone
  -String email
}

class TipoRegimento
{
    -String designacao
    -String descricaoRegras
    +eAtribuicaoObrigatoria()
}


class Freelancer {
    -String nome
    -String NIF
    -String telefone
    -String email
}

class Anuncio
{
    -Date dtInicioPublicitacao
    -Date dtFimPublicitacao
    -Date dtInicioCandidatura
    -Date dtFimCandidatura
    -Date dtInicioSeriacao
    -Date dtFimSeriacao
    +getListaCandidaturas()
    +getNovoProcessoSeriacao()
    +registaProcessoSeriacao(ps)
    +novoProcessoAtribuicao(anu,ps)
}

class ListaCandidaturas
{
    +getCandidatura()
    +getCandidatura(candId)
    +generateOrdem(cand)
    +getCandidaturaByFrl(freelancer)
}
class Candidatura
{
    -Date dataCandidatura
    -Double valorPretendido
    -Integer nrDias
    -String txtApresentacao
    -String txtMotivacao
    +getFreelancer()
    +getValorPretendido()
    +getNrDias()
}

class Classificacao
{
    -Integer lugar
    Classificacao(cand,ordem)
    +validaClassificacao(class)
    +addClassificacao(class)
}

class ProcessoSeriacao
{
    -Date dataRealizacao
    +ProcessoSeriacao(tipoRegimento)
    +addClassificacao(cand,ordem)
    +valida()
    +getMelhorClassificacao()
}

class Adjudicacao {
-String dsTarefa
-Date dtIn
-Date dtFim
-Date dtAdjudicacao
-double valorPretendido
-String refAnu
-String adjId
+validaAdjudicacao(adjAnu)
-Adjudicacao(org,frl,dsTarefa,dtIn,dtFim,valor,refAnu)
}

class Tarefa{
+getDescInformal()
+getReferencia()
}

class ProcessoAtribuicao{
+ProcessoAtribuicao(tar)
+setData()
+validaAdjudicacao()
+addAdjudicacao()
}

class Colaborador{
+getEmailColaborador()
}


Plataforma ..>TimerTask
TimerTask ..> SeriarCandidaturasAnunciosTask
SeriarCandidaturasAnunciosTask ..> Plataforma

Plataforma "1" - -> "1" RegistoOrganizacoes : tem
Plataforma "1" - -> "1" RegistoAnuncios : tem

RegistoOrganizacoes "1" - -> "*" Organizacao : tem registadas
RegistoAnuncios "1" - -> "*" Anuncio : publicita

Anuncio "*" - -> "1" TipoRegimento: rege-se por
Anuncio "*" - -> "1" Colaborador: publicado por
Anuncio "1" - -> "1" ListaCandidaturas: recebeu
ListaCandidaturas "1" - -> "*" Candidatura: tem
Anuncio "1" - -> "0..1" ProcessoSeriacao: espoleta

Classificacao "0..1" - -> "1" Candidatura: referente a
Candidatura "*" - - "1"  Freelancer: realizada por

Organizacao "1" - -> "1" ListaTarefas: tem
ListaTarefas "1" - -> "*" Tarefa: tem

Organizacao "1" - -> "*" Colaborador :tem 

Anuncio "1" - -> "1" ProcessoAtribuicao :espoleta
ProcessoAtribuicao "1" - -> "1" Adjudicacao : tem

Adjudicacao "1" - -> "1" Freelancer : escolhe
@enduml

PlantUML version 1.2020.09(Sun May 10 11:51:06 BST 2020)
(GPL source distribution)
Java Runtime: OpenJDK Runtime Environment
JVM: OpenJDK 64-Bit Server VM
Java Version: 11.0.6+8-b765.40
Operating System: Windows 10
Default Encoding: Cp1252
Language: pt
Country: PT
--></g></svg>