<?xml version="1.0" encoding="UTF-8" standalone="no"?><svg xmlns="http://www.w3.org/2000/svg" xmlns:xlink="http://www.w3.org/1999/xlink" contentScriptType="application/ecmascript" contentStyleType="text/css" height="460px" preserveAspectRatio="none" style="width:1509px;height:460px;" version="1.1" viewBox="0 0 1509 460" width="1509px" zoomAndPan="magnify"><defs><filter height="300%" id="f3q3skfwcel78" width="300%" x="-1" y="-1"><feGaussianBlur result="blurOut" stdDeviation="2.0"/><feColorMatrix in="blurOut" result="blurOut2" type="matrix" values="0 0 0 0 0 0 0 0 0 0 0 0 0 0 0 0 0 0 .4 0"/><feOffset dx="4.0" dy="4.0" in="blurOut2" result="blurOut3"/><feBlend in="SourceGraphic" in2="blurOut3" mode="normal"/></filter></defs><g><!--MD5=[99b8db98afdc2c8404e39242ef4c1e65]
class Platform--><rect fill="#FEFECE" filter="url(#f3q3skfwcel78)" height="40" id="Platform" style="stroke: #A80036; stroke-width: 1.5;" width="84" x="6" y="130.2015"/><ellipse cx="21" cy="146.2015" fill="#ADD1B2" rx="11" ry="11" style="stroke: #A80036; stroke-width: 1.0;"/><path d="M23.9688,151.8421 Q23.3906,152.139 22.75,152.2874 Q22.1094,152.4359 21.4063,152.4359 Q18.9063,152.4359 17.5859,150.7874 Q16.2656,149.139 16.2656,146.014 Q16.2656,142.889 17.5859,141.2328 Q18.9063,139.5765 21.4063,139.5765 Q22.1094,139.5765 22.7578,139.7328 Q23.4063,139.889 23.9688,140.1859 L23.9688,142.9046 Q23.3438,142.3265 22.75,142.0531 Q22.1563,141.7796 21.5313,141.7796 Q20.1875,141.7796 19.5,142.8499 Q18.8125,143.9203 18.8125,146.014 Q18.8125,148.1078 19.5,149.1781 Q20.1875,150.2484 21.5313,150.2484 Q22.1563,150.2484 22.75,149.9749 Q23.3438,149.7015 23.9688,149.1234 L23.9688,151.8421 Z "/><text fill="#000000" font-family="sans-serif" font-size="12" lengthAdjust="spacingAndGlyphs" textLength="52" x="35" y="150.3558">Platform</text><line style="stroke: #A80036; stroke-width: 1.5;" x1="7" x2="89" y1="162.2015" y2="162.2015"/><!--MD5=[1f687b5315377fe49fca59b457947463]
class Freelancer--><rect fill="#FEFECE" filter="url(#f3q3skfwcel78)" height="129.6328" id="Freelancer" style="stroke: #A80036; stroke-width: 1.5;" width="100" x="1072" y="118.2015"/><ellipse cx="1087.45" cy="134.2015" fill="#ADD1B2" rx="11" ry="11" style="stroke: #A80036; stroke-width: 1.0;"/><path d="M1090.4188,139.8421 Q1089.8406,140.139 1089.2,140.2874 Q1088.5594,140.4359 1087.8563,140.4359 Q1085.3563,140.4359 1084.0359,138.7874 Q1082.7156,137.139 1082.7156,134.014 Q1082.7156,130.889 1084.0359,129.2328 Q1085.3563,127.5765 1087.8563,127.5765 Q1088.5594,127.5765 1089.2078,127.7328 Q1089.8563,127.889 1090.4188,128.1859 L1090.4188,130.9046 Q1089.7938,130.3265 1089.2,130.0531 Q1088.6063,129.7796 1087.9813,129.7796 Q1086.6375,129.7796 1085.95,130.8499 Q1085.2625,131.9203 1085.2625,134.014 Q1085.2625,136.1078 1085.95,137.1781 Q1086.6375,138.2484 1087.9813,138.2484 Q1088.6063,138.2484 1089.2,137.9749 Q1089.7938,137.7015 1090.4188,137.1234 L1090.4188,139.8421 Z "/><text fill="#000000" font-family="sans-serif" font-size="12" lengthAdjust="spacingAndGlyphs" textLength="67" x="1101.55" y="138.3558">Freelancer</text><line style="stroke: #A80036; stroke-width: 1.5;" x1="1073" x2="1171" y1="150.2015" y2="150.2015"/><text fill="#000000" font-family="sans-serif" font-size="11" lengthAdjust="spacingAndGlyphs" textLength="76" x="1078" y="164.4119">-String freeID</text><text fill="#000000" font-family="sans-serif" font-size="11" lengthAdjust="spacingAndGlyphs" textLength="74" x="1078" y="177.2166">-String name</text><text fill="#000000" font-family="sans-serif" font-size="11" lengthAdjust="spacingAndGlyphs" textLength="88" x="1078" y="190.0213">-String levelExp</text><text fill="#000000" font-family="sans-serif" font-size="11" lengthAdjust="spacingAndGlyphs" textLength="73" x="1078" y="202.826">-String email</text><text fill="#000000" font-family="sans-serif" font-size="11" lengthAdjust="spacingAndGlyphs" textLength="56" x="1078" y="215.6307">-String nif</text><text fill="#000000" font-family="sans-serif" font-size="11" lengthAdjust="spacingAndGlyphs" textLength="66" x="1078" y="228.4354">-String iban</text><text fill="#000000" font-family="sans-serif" font-size="11" lengthAdjust="spacingAndGlyphs" textLength="84" x="1078" y="241.2401">-String country</text><!--MD5=[f483d6e5de34a60207b28a5563be5e8b]
class Collaborator--><rect fill="#FEFECE" filter="url(#f3q3skfwcel78)" height="78.4141" id="Collaborator" style="stroke: #A80036; stroke-width: 1.5;" width="109" x="259" y="111.2015"/><ellipse cx="274" cy="127.2015" fill="#ADD1B2" rx="11" ry="11" style="stroke: #A80036; stroke-width: 1.0;"/><path d="M276.9688,132.8421 Q276.3906,133.139 275.75,133.2874 Q275.1094,133.4359 274.4063,133.4359 Q271.9063,133.4359 270.5859,131.7874 Q269.2656,130.139 269.2656,127.014 Q269.2656,123.889 270.5859,122.2328 Q271.9063,120.5765 274.4063,120.5765 Q275.1094,120.5765 275.7578,120.7328 Q276.4063,120.889 276.9688,121.1859 L276.9688,123.9046 Q276.3438,123.3265 275.75,123.0531 Q275.1563,122.7796 274.5313,122.7796 Q273.1875,122.7796 272.5,123.8499 Q271.8125,124.9203 271.8125,127.014 Q271.8125,129.1078 272.5,130.1781 Q273.1875,131.2484 274.5313,131.2484 Q275.1563,131.2484 275.75,130.9749 Q276.3438,130.7015 276.9688,130.1234 L276.9688,132.8421 Z "/><text fill="#000000" font-family="sans-serif" font-size="12" lengthAdjust="spacingAndGlyphs" textLength="77" x="288" y="131.3558">Collaborator</text><line style="stroke: #A80036; stroke-width: 1.5;" x1="260" x2="367" y1="143.2015" y2="143.2015"/><text fill="#000000" font-family="sans-serif" font-size="11" lengthAdjust="spacingAndGlyphs" textLength="82" x="265" y="157.4119">-String nameC</text><text fill="#000000" font-family="sans-serif" font-size="11" lengthAdjust="spacingAndGlyphs" textLength="81" x="265" y="170.2166">-String emailC</text><text fill="#000000" font-family="sans-serif" font-size="11" lengthAdjust="spacingAndGlyphs" textLength="64" x="265" y="183.0213">-String role</text><!--MD5=[b34797a66dc35cbf1d65f7e3ca75530e]
class Task--><rect fill="#FEFECE" filter="url(#f3q3skfwcel78)" height="129.6328" id="Task" style="stroke: #A80036; stroke-width: 1.5;" width="129" x="794" y="253.2015"/><ellipse cx="839.75" cy="269.2015" fill="#ADD1B2" rx="11" ry="11" style="stroke: #A80036; stroke-width: 1.0;"/><path d="M842.7188,274.8421 Q842.1406,275.139 841.5,275.2874 Q840.8594,275.4359 840.1563,275.4359 Q837.6563,275.4359 836.3359,273.7874 Q835.0156,272.139 835.0156,269.014 Q835.0156,265.889 836.3359,264.2328 Q837.6563,262.5765 840.1563,262.5765 Q840.8594,262.5765 841.5078,262.7328 Q842.1563,262.889 842.7188,263.1859 L842.7188,265.9046 Q842.0938,265.3265 841.5,265.0531 Q840.9063,264.7796 840.2813,264.7796 Q838.9375,264.7796 838.25,265.8499 Q837.5625,266.9203 837.5625,269.014 Q837.5625,271.1078 838.25,272.1781 Q838.9375,273.2484 840.2813,273.2484 Q840.9063,273.2484 841.5,272.9749 Q842.0938,272.7015 842.7188,272.1234 L842.7188,274.8421 Z "/><text fill="#000000" font-family="sans-serif" font-size="12" lengthAdjust="spacingAndGlyphs" textLength="29" x="860.25" y="273.3558">Task</text><line style="stroke: #A80036; stroke-width: 1.5;" x1="795" x2="922" y1="285.2015" y2="285.2015"/><text fill="#000000" font-family="sans-serif" font-size="11" lengthAdjust="spacingAndGlyphs" textLength="79" x="800" y="299.4119">-String idTask</text><text fill="#000000" font-family="sans-serif" font-size="11" lengthAdjust="spacingAndGlyphs" textLength="105" x="800" y="312.2166">-String description</text><text fill="#000000" font-family="sans-serif" font-size="11" lengthAdjust="spacingAndGlyphs" textLength="74" x="800" y="325.0213">-int timeTask</text><text fill="#000000" font-family="sans-serif" font-size="11" lengthAdjust="spacingAndGlyphs" textLength="97" x="800" y="337.826">-double costHour</text><text fill="#000000" font-family="sans-serif" font-size="11" lengthAdjust="spacingAndGlyphs" textLength="117" x="800" y="350.6307">-String taskCategory</text><text fill="#000000" font-family="sans-serif" font-size="11" lengthAdjust="spacingAndGlyphs" textLength="97" x="800" y="363.4354">-boolean isPayed</text><text fill="#000000" font-family="sans-serif" font-size="11" lengthAdjust="spacingAndGlyphs" textLength="110" x="800" y="376.2401">-boolean isFinished</text><!--MD5=[4045d6f6a06909f8c0c16b57fdb55c63]
class TransactionExecution--><rect fill="#FEFECE" filter="url(#f3q3skfwcel78)" height="91.2188" id="TransactionExecution" style="stroke: #A80036; stroke-width: 1.5;" width="169" x="491" y="262.7015"/><ellipse cx="506.9" cy="278.7015" fill="#ADD1B2" rx="11" ry="11" style="stroke: #A80036; stroke-width: 1.0;"/><path d="M509.8688,284.3421 Q509.2906,284.639 508.65,284.7874 Q508.0094,284.9359 507.3063,284.9359 Q504.8063,284.9359 503.4859,283.2874 Q502.1656,281.639 502.1656,278.514 Q502.1656,275.389 503.4859,273.7328 Q504.8063,272.0765 507.3063,272.0765 Q508.0094,272.0765 508.6578,272.2328 Q509.3063,272.389 509.8688,272.6859 L509.8688,275.4046 Q509.2438,274.8265 508.65,274.5531 Q508.0563,274.2796 507.4313,274.2796 Q506.0875,274.2796 505.4,275.3499 Q504.7125,276.4203 504.7125,278.514 Q504.7125,280.6078 505.4,281.6781 Q506.0875,282.7484 507.4313,282.7484 Q508.0563,282.7484 508.65,282.4749 Q509.2438,282.2015 509.8688,281.6234 L509.8688,284.3421 Z "/><text fill="#000000" font-family="sans-serif" font-size="12" lengthAdjust="spacingAndGlyphs" textLength="135" x="521.1" y="282.8558">TransactionExecution</text><line style="stroke: #A80036; stroke-width: 1.5;" x1="492" x2="659" y1="294.7015" y2="294.7015"/><text fill="#000000" font-family="sans-serif" font-size="11" lengthAdjust="spacingAndGlyphs" textLength="81" x="497" y="308.9119">-Date endDate</text><text fill="#000000" font-family="sans-serif" font-size="11" lengthAdjust="spacingAndGlyphs" textLength="76" x="497" y="321.7166">-double delay</text><text fill="#000000" font-family="sans-serif" font-size="11" lengthAdjust="spacingAndGlyphs" textLength="157" x="497" y="334.5213">-String descriptionOfQuality</text><text fill="#000000" font-family="sans-serif" font-size="11" lengthAdjust="spacingAndGlyphs" textLength="63" x="497" y="347.326">-int transID</text><!--MD5=[0f39e4cb6f03951afbf6d14bd2505654]
class Address--><rect fill="#FEFECE" filter="url(#f3q3skfwcel78)" height="78.4141" id="Address" style="stroke: #A80036; stroke-width: 1.5;" width="125" x="1373" y="97.2015"/><ellipse cx="1406.9" cy="113.2015" fill="#ADD1B2" rx="11" ry="11" style="stroke: #A80036; stroke-width: 1.0;"/><path d="M1409.8688,118.8421 Q1409.2906,119.139 1408.65,119.2874 Q1408.0094,119.4359 1407.3063,119.4359 Q1404.8063,119.4359 1403.4859,117.7874 Q1402.1656,116.139 1402.1656,113.014 Q1402.1656,109.889 1403.4859,108.2328 Q1404.8063,106.5765 1407.3063,106.5765 Q1408.0094,106.5765 1408.6578,106.7328 Q1409.3063,106.889 1409.8688,107.1859 L1409.8688,109.9046 Q1409.2438,109.3265 1408.65,109.0531 Q1408.0563,108.7796 1407.4313,108.7796 Q1406.0875,108.7796 1405.4,109.8499 Q1404.7125,110.9203 1404.7125,113.014 Q1404.7125,115.1078 1405.4,116.1781 Q1406.0875,117.2484 1407.4313,117.2484 Q1408.0563,117.2484 1408.65,116.9749 Q1409.2438,116.7015 1409.8688,116.1234 L1409.8688,118.8421 Z "/><text fill="#000000" font-family="sans-serif" font-size="12" lengthAdjust="spacingAndGlyphs" textLength="51" x="1425.1" y="117.3558">Address</text><line style="stroke: #A80036; stroke-width: 1.5;" x1="1374" x2="1497" y1="129.2015" y2="129.2015"/><text fill="#000000" font-family="sans-serif" font-size="11" lengthAdjust="spacingAndGlyphs" textLength="76" x="1379" y="143.4119">-String street</text><text fill="#000000" font-family="sans-serif" font-size="11" lengthAdjust="spacingAndGlyphs" textLength="113" x="1379" y="156.2166">-String doorNumber</text><text fill="#000000" font-family="sans-serif" font-size="11" lengthAdjust="spacingAndGlyphs" textLength="81" x="1379" y="169.0213">-String locality</text><!--MD5=[764fca796ce7f635542948d8fc39db5e]
class Payment--><rect fill="#FEFECE" filter="url(#f3q3skfwcel78)" height="65.6094" id="Payment" style="stroke: #A80036; stroke-width: 1.5;" width="96" x="1387.5" y="320.2015"/><ellipse cx="1407" cy="336.2015" fill="#ADD1B2" rx="11" ry="11" style="stroke: #A80036; stroke-width: 1.0;"/><path d="M1409.9688,341.8421 Q1409.3906,342.139 1408.75,342.2874 Q1408.1094,342.4359 1407.4063,342.4359 Q1404.9063,342.4359 1403.5859,340.7874 Q1402.2656,339.139 1402.2656,336.014 Q1402.2656,332.889 1403.5859,331.2328 Q1404.9063,329.5765 1407.4063,329.5765 Q1408.1094,329.5765 1408.7578,329.7328 Q1409.4063,329.889 1409.9688,330.1859 L1409.9688,332.9046 Q1409.3438,332.3265 1408.75,332.0531 Q1408.1563,331.7796 1407.5313,331.7796 Q1406.1875,331.7796 1405.5,332.8499 Q1404.8125,333.9203 1404.8125,336.014 Q1404.8125,338.1078 1405.5,339.1781 Q1406.1875,340.2484 1407.5313,340.2484 Q1408.1563,340.2484 1408.75,339.9749 Q1409.3438,339.7015 1409.9688,339.1234 L1409.9688,341.8421 Z "/><text fill="#000000" font-family="sans-serif" font-size="12" lengthAdjust="spacingAndGlyphs" textLength="54" x="1422" y="340.3558">Payment</text><line style="stroke: #A80036; stroke-width: 1.5;" x1="1388.5" x2="1482.5" y1="352.2015" y2="352.2015"/><text fill="#000000" font-family="sans-serif" font-size="11" lengthAdjust="spacingAndGlyphs" textLength="83" x="1393.5" y="366.4119">-double valueE</text><text fill="#000000" font-family="sans-serif" font-size="11" lengthAdjust="spacingAndGlyphs" textLength="84" x="1393.5" y="379.2166">-double valueC</text><!--MD5=[0e73009a4465e45d67f483ce889136f1]
class ImportFile--><rect fill="#FEFECE" filter="url(#f3q3skfwcel78)" height="40" id="ImportFile" style="stroke: #A80036; stroke-width: 1.5;" width="93" x="267" y="224.2015"/><ellipse cx="282" cy="240.2015" fill="#ADD1B2" rx="11" ry="11" style="stroke: #A80036; stroke-width: 1.0;"/><path d="M284.9688,245.8421 Q284.3906,246.139 283.75,246.2874 Q283.1094,246.4359 282.4063,246.4359 Q279.9063,246.4359 278.5859,244.7874 Q277.2656,243.139 277.2656,240.014 Q277.2656,236.889 278.5859,235.2328 Q279.9063,233.5765 282.4063,233.5765 Q283.1094,233.5765 283.7578,233.7328 Q284.4063,233.889 284.9688,234.1859 L284.9688,236.9046 Q284.3438,236.3265 283.75,236.0531 Q283.1563,235.7796 282.5313,235.7796 Q281.1875,235.7796 280.5,236.8499 Q279.8125,237.9203 279.8125,240.014 Q279.8125,242.1078 280.5,243.1781 Q281.1875,244.2484 282.5313,244.2484 Q283.1563,244.2484 283.75,243.9749 Q284.3438,243.7015 284.9688,243.1234 L284.9688,245.8421 Z "/><text fill="#000000" font-family="sans-serif" font-size="12" lengthAdjust="spacingAndGlyphs" textLength="61" x="296" y="244.3558">ImportFile</text><line style="stroke: #A80036; stroke-width: 1.5;" x1="268" x2="359" y1="256.2015" y2="256.2015"/><!--MD5=[86cfdc25119a3a20e0664f11a0f5b002]
class Writer--><rect fill="#FEFECE" filter="url(#f3q3skfwcel78)" height="40" id="Writer" style="stroke: #A80036; stroke-width: 1.5;" width="69" x="1401" y="210.2015"/><ellipse cx="1416" cy="226.2015" fill="#ADD1B2" rx="11" ry="11" style="stroke: #A80036; stroke-width: 1.0;"/><path d="M1418.9688,231.8421 Q1418.3906,232.139 1417.75,232.2874 Q1417.1094,232.4359 1416.4063,232.4359 Q1413.9063,232.4359 1412.5859,230.7874 Q1411.2656,229.139 1411.2656,226.014 Q1411.2656,222.889 1412.5859,221.2328 Q1413.9063,219.5765 1416.4063,219.5765 Q1417.1094,219.5765 1417.7578,219.7328 Q1418.4063,219.889 1418.9688,220.1859 L1418.9688,222.9046 Q1418.3438,222.3265 1417.75,222.0531 Q1417.1563,221.7796 1416.5313,221.7796 Q1415.1875,221.7796 1414.5,222.8499 Q1413.8125,223.9203 1413.8125,226.014 Q1413.8125,228.1078 1414.5,229.1781 Q1415.1875,230.2484 1416.5313,230.2484 Q1417.1563,230.2484 1417.75,229.9749 Q1418.3438,229.7015 1418.9688,229.1234 L1418.9688,231.8421 Z "/><text fill="#000000" font-family="sans-serif" font-size="12" lengthAdjust="spacingAndGlyphs" textLength="37" x="1430" y="230.3558">Writer</text><line style="stroke: #A80036; stroke-width: 1.5;" x1="1402" x2="1469" y1="242.2015" y2="242.2015"/><!--MD5=[a1bcd49bda1d48eee0717f7ad534cdd6]
link Freelancer to Payment--><path d="M1172.3552,221.0083 C1182.0056,227.6971 1192.17,234.3771 1202,240.2015 C1263.7987,276.8176 1339.2322,311.6718 1387.3208,332.7457 " fill="none" id="Freelancer-Payment" style="stroke: #A80036; stroke-width: 1.0;"/><text fill="#000000" font-family="sans-serif" font-size="13" lengthAdjust="spacingAndGlyphs" textLength="53" x="1239.5" y="236.2684">receives</text><polygon fill="#000000" points="1295.5,230.2679,1301.5,233.2679,1295.5,236.2679,1295.5,230.2679" style="stroke: #000000; stroke-width: 1.0;"/><text fill="#000000" font-family="sans-serif" font-size="13" lengthAdjust="spacingAndGlyphs" textLength="8" x="1179.9989" y="239.4816">1</text><text fill="#000000" font-family="sans-serif" font-size="13" lengthAdjust="spacingAndGlyphs" textLength="23" x="1356.6744" y="343.1862">1..*</text><!--MD5=[874150c88719dac3f651931978d26083]
link Freelancer to Address--><path d="M1172.0217,175.7022 C1226.5622,167.5255 1313.9327,154.4269 1372.9629,145.577 " fill="none" id="Freelancer-Address" style="stroke: #A80036; stroke-width: 1.0;"/><text fill="#000000" font-family="sans-serif" font-size="13" lengthAdjust="spacingAndGlyphs" textLength="23" x="1254.5" y="145.2684">has</text><polygon fill="#000000" points="1280.5,139.2679,1286.5,142.2679,1280.5,145.2679,1280.5,139.2679" style="stroke: #000000; stroke-width: 1.0;"/><text fill="#000000" font-family="sans-serif" font-size="13" lengthAdjust="spacingAndGlyphs" textLength="8" x="1179.9561" y="187.8059">1</text><text fill="#000000" font-family="sans-serif" font-size="13" lengthAdjust="spacingAndGlyphs" textLength="8" x="1356.8537" y="159.6835">1</text><!--MD5=[535e17355da54b57e77a1c7dbde973e0]
link Freelancer to Writer--><path d="M1172.3569,190.7558 C1182.1875,192.2303 1192.4166,193.7645 1202,195.2015 C1272.5359,205.7781 1355.0582,218.1462 1400.6871,224.9844 " fill="none" id="Freelancer-Writer" style="stroke: #A80036; stroke-width: 1.0;"/><text fill="#000000" font-family="sans-serif" font-size="13" lengthAdjust="spacingAndGlyphs" textLength="126" x="1203" y="191.2684">receives email from</text><polygon fill="#000000" points="1332,185.2679,1338,188.2679,1332,191.2679,1332,185.2679" style="stroke: #000000; stroke-width: 1.0;"/><text fill="#000000" font-family="sans-serif" font-size="13" lengthAdjust="spacingAndGlyphs" textLength="8" x="1180.0008" y="204.9749">1</text><text fill="#000000" font-family="sans-serif" font-size="13" lengthAdjust="spacingAndGlyphs" textLength="8" x="1385.0458" y="237.5138">1</text><!--MD5=[8853e9d83a8841c20c4ef075af762602]
link Task to Freelancer--><path d="M923.2691,286.2897 C958.5042,268.7885 1002.7823,246.5671 1042,226.2015 C1051.6557,221.1873 1061.9181,215.7523 1071.7587,210.4875 " fill="none" id="Task-Freelancer" style="stroke: #A80036; stroke-width: 1.0;"/><text fill="#000000" font-family="sans-serif" font-size="13" lengthAdjust="spacingAndGlyphs" textLength="56" x="968.5" y="222.2684">made by</text><polygon fill="#000000" points="1027.5,216.2679,1033.5,219.2679,1027.5,222.2679,1027.5,216.2679" style="stroke: #000000; stroke-width: 1.0;"/><text fill="#000000" font-family="sans-serif" font-size="13" lengthAdjust="spacingAndGlyphs" textLength="23" x="931.1344" y="295.8649">1..*</text><text fill="#000000" font-family="sans-serif" font-size="13" lengthAdjust="spacingAndGlyphs" textLength="8" x="1056.131" y="227.4813">1</text><!--MD5=[22697d4d863c2e08ab1d60ca0d61f844]
link Platform to Freelancer--><path d="M71.8372,130.1181 C116.2934,94.7835 216.1915,25.2015 313.5,25.2015 C313.5,25.2015 313.5,25.2015 858.5,25.2015 C942.2442,25.2015 1022.3769,84.6275 1071.8305,130.5898 " fill="none" id="Platform-Freelancer" style="stroke: #A80036; stroke-width: 1.0;"/><text fill="#000000" font-family="sans-serif" font-size="13" lengthAdjust="spacingAndGlyphs" textLength="23" x="557.5" y="21.2684">has</text><polygon fill="#000000" points="583.5,15.2679,589.5,18.2679,583.5,21.2679,583.5,15.2679" style="stroke: #000000; stroke-width: 1.0;"/><text fill="#000000" font-family="sans-serif" font-size="13" lengthAdjust="spacingAndGlyphs" textLength="8" x="69.6644" y="119.1019">1</text><text fill="#000000" font-family="sans-serif" font-size="13" lengthAdjust="spacingAndGlyphs" textLength="23" x="1040.9291" y="136.9088">1..*</text><!--MD5=[729d38e941f71726a36b38b157ad7957]
link Platform to Collaborator--><path d="M90.0693,150.2015 C135.6894,150.2015 208.6783,150.2015 258.7398,150.2015 " fill="none" id="Platform-Collaborator" style="stroke: #A80036; stroke-width: 1.0;"/><text fill="#000000" font-family="sans-serif" font-size="13" lengthAdjust="spacingAndGlyphs" textLength="94" x="121" y="146.2684">sends email to</text><polygon fill="#000000" points="218,140.2679,224,143.2679,218,146.2679,218,140.2679" style="stroke: #000000; stroke-width: 1.0;"/><text fill="#000000" font-family="sans-serif" font-size="13" lengthAdjust="spacingAndGlyphs" textLength="8" x="97.9875" y="163.5689">1</text><text fill="#000000" font-family="sans-serif" font-size="13" lengthAdjust="spacingAndGlyphs" textLength="8" x="242.8439" y="163.2573">1</text><!--MD5=[ace46b8877fd5d0b45ea037c3198de3e]
link Platform to ImportFile--><path d="M90.0693,165.096 C138.1751,182.1279 216.7135,209.9343 266.7106,227.6357 " fill="none" id="Platform-ImportFile" style="stroke: #A80036; stroke-width: 1.0;"/><text fill="#000000" font-family="sans-serif" font-size="13" lengthAdjust="spacingAndGlyphs" textLength="23" x="156.5" y="173.2684">has</text><polygon fill="#000000" points="182.5,167.2679,188.5,170.2679,182.5,173.2679,182.5,167.2679" style="stroke: #000000; stroke-width: 1.0;"/><text fill="#000000" font-family="sans-serif" font-size="13" lengthAdjust="spacingAndGlyphs" textLength="8" x="97.9875" y="181.0234">1</text><text fill="#000000" font-family="sans-serif" font-size="13" lengthAdjust="spacingAndGlyphs" textLength="8" x="250.9335" y="238.3246">1</text><!--MD5=[57cb959bbb8d6516b63cb4c28268197c]
link TransactionExecution to Task--><path d="M660.026,311.1883 C702.8614,312.7019 754.0592,314.511 793.7259,315.9126 " fill="none" id="TransactionExecution-Task" style="stroke: #A80036; stroke-width: 1.0;"/><text fill="#000000" font-family="sans-serif" font-size="13" lengthAdjust="spacingAndGlyphs" textLength="23" x="703.5" y="308.2684">has</text><polygon fill="#000000" points="729.5,302.2679,735.5,305.2679,729.5,308.2679,729.5,302.2679" style="stroke: #000000; stroke-width: 1.0;"/><text fill="#000000" font-family="sans-serif" font-size="13" lengthAdjust="spacingAndGlyphs" textLength="8" x="667.9103" y="324.1853">1</text><text fill="#000000" font-family="sans-serif" font-size="13" lengthAdjust="spacingAndGlyphs" textLength="8" x="778.2037" y="328.5768">1</text><!--MD5=[fcdd4dc74bc0207eaed6eb249aae2fb9]
link TransactionExecution to Freelancer--><path d="M660.0944,275.3129 C697.3539,261.7513 741.9167,246.7709 783,236.2015 C862.0419,215.8665 883.35,217.7197 964,205.2015 C999.9882,199.6155 1040.6939,193.9633 1071.7747,189.7869 " fill="none" id="TransactionExecution-Freelancer" style="stroke: #A80036; stroke-width: 1.0;"/><text fill="#000000" font-family="sans-serif" font-size="13" lengthAdjust="spacingAndGlyphs" textLength="136" x="784" y="205.2684">related to the work of</text><polygon fill="#000000" points="923,199.2679,929,202.2679,923,205.2679,923,199.2679" style="stroke: #000000; stroke-width: 1.0;"/><text fill="#000000" font-family="sans-serif" font-size="13" lengthAdjust="spacingAndGlyphs" textLength="8" x="667.9848" y="285.1148">1</text><text fill="#000000" font-family="sans-serif" font-size="13" lengthAdjust="spacingAndGlyphs" textLength="8" x="1056.1493" y="203.8697">1</text><!--MD5=[209a2c3229d506e84b8c72b391c080a4]
link TransactionExecution to Payment--><path d="M656.0752,353.8593 C693.4329,372.4893 739.1842,391.8315 783,401.2015 C1005.1519,448.7082 1278.4458,392.6888 1387.3816,365.907 " fill="none" id="TransactionExecution-Payment" style="stroke: #A80036; stroke-width: 1.0;"/><text fill="#000000" font-family="sans-serif" font-size="13" lengthAdjust="spacingAndGlyphs" textLength="63" x="965" y="414.2684">originates</text><polygon fill="#000000" points="1031,408.2679,1037,411.2679,1031,414.2679,1031,408.2679" style="stroke: #000000; stroke-width: 1.0;"/><text fill="#000000" font-family="sans-serif" font-size="13" lengthAdjust="spacingAndGlyphs" textLength="8" x="659.8008" y="374.0594">1</text><text fill="#000000" font-family="sans-serif" font-size="13" lengthAdjust="spacingAndGlyphs" textLength="8" x="1371.401" y="381.1079">1</text><!--MD5=[d2c3650dbd07e79cdad2ffd4a879dec6]
link Collaborator to Freelancer--><path d="M368.1417,151.1297 C395.9461,151.6485 430.276,152.3603 461,153.2015 C719.2784,160.2731 784.4385,152.7126 1042,173.2015 C1051.6275,173.9673 1061.8769,175.0468 1071.7137,176.2152 " fill="none" id="Collaborator-Freelancer" style="stroke: #A80036; stroke-width: 1.0;"/><text fill="#000000" font-family="sans-serif" font-size="13" lengthAdjust="spacingAndGlyphs" textLength="48" x="691" y="153.2684">creates</text><polygon fill="#000000" points="742,147.2679,748,150.2679,742,153.2679,742,147.2679" style="stroke: #000000; stroke-width: 1.0;"/><text fill="#000000" font-family="sans-serif" font-size="13" lengthAdjust="spacingAndGlyphs" textLength="8" x="376.0217" y="147.2946">1</text><text fill="#000000" font-family="sans-serif" font-size="13" lengthAdjust="spacingAndGlyphs" textLength="8" x="1056.0797" y="188.3895">1</text><!--MD5=[f919d21ae7a75ef5ececc535e09d5009]
link Collaborator to Task--><path d="M368.2343,163.6778 C436.8858,180.9305 557.9754,212.5201 660,245.2015 C705.1088,259.6511 755.1599,278.0745 793.7181,292.7978 " fill="none" id="Collaborator-Task" style="stroke: #A80036; stroke-width: 1.0;"/><text fill="#000000" font-family="sans-serif" font-size="13" lengthAdjust="spacingAndGlyphs" textLength="48" x="545" y="191.2684">creates</text><polygon fill="#000000" points="596,185.2679,602,188.2679,596,191.2679,596,185.2679" style="stroke: #000000; stroke-width: 1.0;"/><text fill="#000000" font-family="sans-serif" font-size="13" lengthAdjust="spacingAndGlyphs" textLength="8" x="376.1267" y="178.5445">1</text><text fill="#000000" font-family="sans-serif" font-size="13" lengthAdjust="spacingAndGlyphs" textLength="23" x="762.8515" y="303.0442">1..*</text><!--MD5=[2ab7a6a303d213bb8ebe4ab6162585db]
link Collaborator to TransactionExecution--><path d="M352.3037,189.5495 C366.0165,202.2092 382.0186,215.6709 398,226.2015 C426.6286,245.0657 460.2961,261.8085 490.5705,275.1676 " fill="none" id="Collaborator-TransactionExecution" style="stroke: #A80036; stroke-width: 1.0;"/><text fill="#000000" font-family="sans-serif" font-size="13" lengthAdjust="spacingAndGlyphs" textLength="48" x="399" y="222.2684">creates</text><polygon fill="#000000" points="450,216.2679,456,219.2679,450,222.2679,450,216.2679" style="stroke: #000000; stroke-width: 1.0;"/><text fill="#000000" font-family="sans-serif" font-size="13" lengthAdjust="spacingAndGlyphs" textLength="8" x="350.2856" y="209.6442">1</text><text fill="#000000" font-family="sans-serif" font-size="13" lengthAdjust="spacingAndGlyphs" textLength="23" x="459.8863" y="285.1963">1..*</text><!--MD5=[05806c902e1f3213745fe4fe23606081]
@startuml
skinparam classAttributeIconSize 0
hide methods
left to right direction

class Platform{
}
class Freelancer {
  -String freeID
  -String name
  -String levelExp
  -String email
  -String nif
  -String iban
  -String country
}


class Collaborator{
  -String nameC
  -String emailC
  -String role
}

class Task {
  -String idTask
  -String description
  -int timeTask
  -double costHour
  -String taskCategory
  -boolean isPayed
  -boolean isFinished
}


class TransactionExecution { 
  -Date endDate
  -double delay
  -String descriptionOfQuality
  -int transID
}

class Address{
  -String street
  -String doorNumber
  -String locality
}

class Payment{
  -double valueE
  -double valueC
}


class ImportFile {
}

Freelancer "1" - - "1..*" Payment: receives >
Freelancer "1" - - "1" Address: has >
Freelancer "1" - - "1" Writer: receives email from >

Task "1..*" - - "1" Freelancer: made by >

Platform "1" - - "1..*" Freelancer: has >
Platform "1" - - "1" Collaborator: sends email to >


Platform "1" - - "1" ImportFile: has > 


TransactionExecution "1" - - "1" Task : has >
TransactionExecution "1" - - "1" Freelancer: related to the work of >
TransactionExecution "1" - - "1" Payment : originates >







Collaborator "1" - - "1" Freelancer: creates >
Collaborator "1" - - "1..*" Task: creates >
Collaborator "1" - - "1..*" TransactionExecution: creates >
@enduml

PlantUML version 1.2019.12(Sun Nov 03 10:24:54 UTC 2019)
(GPL source distribution)
Java Runtime: OpenJDK Runtime Environment
JVM: OpenJDK 64-Bit Server VM
Java Version: 1.8.0_232-heroku-b09
Operating System: Linux
Default Encoding: UTF-8
Language: en
Country: US
--></g></svg>