<?xml version="1.0" encoding="UTF-8" standalone="no"?><svg xmlns="http://www.w3.org/2000/svg" xmlns:xlink="http://www.w3.org/1999/xlink" contentScriptType="application/ecmascript" contentStyleType="text/css" height="383px" preserveAspectRatio="none" style="width:306px;height:383px;" version="1.1" viewBox="0 0 306 383" width="306px" zoomAndPan="magnify"><defs><filter height="300%" id="f1ngwft2hargso" width="300%" x="-1" y="-1"><feGaussianBlur result="blurOut" stdDeviation="2.0"/><feColorMatrix in="blurOut" result="blurOut2" type="matrix" values="0 0 0 0 0 0 0 0 0 0 0 0 0 0 0 0 0 0 .4 0"/><feOffset dx="4.0" dy="4.0" in="blurOut2" result="blurOut3"/><feBlend in="SourceGraphic" in2="blurOut3" mode="normal"/></filter></defs><g><rect fill="#FFFFFF" filter="url(#f1ngwft2hargso)" height="181.9297" style="stroke: #A80036; stroke-width: 1.0;" width="10" x="51" y="96.2969"/><rect fill="#FFFFFF" filter="url(#f1ngwft2hargso)" height="44.2656" style="stroke: #A80036; stroke-width: 1.0;" width="10" x="254" y="117.4297"/><rect fill="#FFFFFF" filter="url(#f1ngwft2hargso)" height="29.1328" style="stroke: #A80036; stroke-width: 1.0;" width="10" x="254" y="190.8281"/><rect fill="#FFFFFF" filter="url(#f1ngwft2hargso)" height="29.1328" style="stroke: #A80036; stroke-width: 1.0;" width="10" x="254" y="249.0938"/><line style="stroke: #A80036; stroke-width: 1.0; stroke-dasharray: 5.0,5.0;" x1="56" x2="56" y1="86.2969" y2="296.2266"/><line style="stroke: #A80036; stroke-width: 1.0; stroke-dasharray: 5.0,5.0;" x1="258.5" x2="258.5" y1="86.2969" y2="296.2266"/><text fill="#000000" font-family="sans-serif" font-size="14" lengthAdjust="spacingAndGlyphs" textLength="90" x="8" y="82.9951">Collaborator</text><ellipse cx="56" cy="13" fill="#FEFECE" filter="url(#f1ngwft2hargso)" rx="8" ry="8" style="stroke: #A80036; stroke-width: 2.0;"/><path d="M56,21 L56,48 M43,29 L69,29 M56,48 L43,63 M56,48 L69,63 " fill="none" filter="url(#f1ngwft2hargso)" style="stroke: #A80036; stroke-width: 2.0;"/><text fill="#000000" font-family="sans-serif" font-size="14" lengthAdjust="spacingAndGlyphs" textLength="90" x="8" y="308.2217">Collaborator</text><ellipse cx="56" cy="321.5234" fill="#FEFECE" filter="url(#f1ngwft2hargso)" rx="8" ry="8" style="stroke: #A80036; stroke-width: 2.0;"/><path d="M56,329.5234 L56,356.5234 M43,337.5234 L69,337.5234 M56,356.5234 L43,371.5234 M56,356.5234 L69,371.5234 " fill="none" filter="url(#f1ngwft2hargso)" style="stroke: #A80036; stroke-width: 2.0;"/><rect fill="#FEFECE" filter="url(#f1ngwft2hargso)" height="30.2969" style="stroke: #A80036; stroke-width: 1.5;" width="77" x="218.5" y="51"/><text fill="#000000" font-family="sans-serif" font-size="14" lengthAdjust="spacingAndGlyphs" textLength="63" x="225.5" y="70.9951">:Sistema</text><rect fill="#FEFECE" filter="url(#f1ngwft2hargso)" height="30.2969" style="stroke: #A80036; stroke-width: 1.5;" width="77" x="218.5" y="295.2266"/><text fill="#000000" font-family="sans-serif" font-size="14" lengthAdjust="spacingAndGlyphs" textLength="63" x="225.5" y="315.2217">:Sistema</text><rect fill="#FFFFFF" filter="url(#f1ngwft2hargso)" height="181.9297" style="stroke: #A80036; stroke-width: 1.0;" width="10" x="51" y="96.2969"/><rect fill="#FFFFFF" filter="url(#f1ngwft2hargso)" height="44.2656" style="stroke: #A80036; stroke-width: 1.0;" width="10" x="254" y="117.4297"/><rect fill="#FFFFFF" filter="url(#f1ngwft2hargso)" height="29.1328" style="stroke: #A80036; stroke-width: 1.0;" width="10" x="254" y="190.8281"/><rect fill="#FFFFFF" filter="url(#f1ngwft2hargso)" height="29.1328" style="stroke: #A80036; stroke-width: 1.0;" width="10" x="254" y="249.0938"/><polygon fill="#A80036" points="242,113.4297,252,117.4297,242,121.4297,246,117.4297" style="stroke: #A80036; stroke-width: 1.0;"/><line style="stroke: #A80036; stroke-width: 1.0;" x1="61" x2="248" y1="117.4297" y2="117.4297"/><text fill="#000000" font-family="sans-serif" font-size="13" font-weight="bold" lengthAdjust="spacingAndGlyphs" textLength="9" x="68" y="112.3638">1</text><text fill="#000000" font-family="sans-serif" font-size="13" lengthAdjust="spacingAndGlyphs" textLength="50" x="81" y="112.3638">load file</text><polygon fill="#A80036" points="72,157.6953,62,161.6953,72,165.6953,68,161.6953" style="stroke: #A80036; stroke-width: 1.0;"/><line style="stroke: #A80036; stroke-width: 1.0; stroke-dasharray: 2.0,2.0;" x1="66" x2="258" y1="161.6953" y2="161.6953"/><text fill="#000000" font-family="sans-serif" font-size="13" font-weight="bold" lengthAdjust="spacingAndGlyphs" textLength="9" x="78" y="149.063">2</text><text fill="#000000" font-family="sans-serif" font-size="13" lengthAdjust="spacingAndGlyphs" textLength="152" x="91" y="141.4966">request necessary data</text><text fill="#000000" font-family="sans-serif" font-size="13" lengthAdjust="spacingAndGlyphs" textLength="70" x="91" y="156.6294">(file name)</text><polygon fill="#A80036" points="242,186.8281,252,190.8281,242,194.8281,246,190.8281" style="stroke: #A80036; stroke-width: 1.0;"/><line style="stroke: #A80036; stroke-width: 1.0;" x1="61" x2="248" y1="190.8281" y2="190.8281"/><text fill="#000000" font-family="sans-serif" font-size="13" font-weight="bold" lengthAdjust="spacingAndGlyphs" textLength="8" x="68" y="185.7622">3</text><text fill="#000000" font-family="sans-serif" font-size="13" lengthAdjust="spacingAndGlyphs" textLength="93" x="80" y="185.7622">introduce data</text><polygon fill="#A80036" points="72,215.9609,62,219.9609,72,223.9609,68,219.9609" style="stroke: #A80036; stroke-width: 1.0;"/><line style="stroke: #A80036; stroke-width: 1.0; stroke-dasharray: 2.0,2.0;" x1="66" x2="258" y1="219.9609" y2="219.9609"/><text fill="#000000" font-family="sans-serif" font-size="13" font-weight="bold" lengthAdjust="spacingAndGlyphs" textLength="9" x="78" y="214.895">4</text><text fill="#000000" font-family="sans-serif" font-size="13" lengthAdjust="spacingAndGlyphs" textLength="107" x="91" y="214.895">ask confirmation</text><polygon fill="#A80036" points="242,245.0938,252,249.0938,242,253.0938,246,249.0938" style="stroke: #A80036; stroke-width: 1.0;"/><line style="stroke: #A80036; stroke-width: 1.0;" x1="61" x2="248" y1="249.0938" y2="249.0938"/><text fill="#000000" font-family="sans-serif" font-size="13" font-weight="bold" lengthAdjust="spacingAndGlyphs" textLength="9" x="68" y="244.0278">5</text><text fill="#000000" font-family="sans-serif" font-size="13" lengthAdjust="spacingAndGlyphs" textLength="56" x="81" y="244.0278">confirms</text><polygon fill="#A80036" points="67,274.2266,57,278.2266,67,282.2266,63,278.2266" style="stroke: #A80036; stroke-width: 1.0;"/><line style="stroke: #A80036; stroke-width: 1.0; stroke-dasharray: 2.0,2.0;" x1="61" x2="258" y1="278.2266" y2="278.2266"/><text fill="#000000" font-family="sans-serif" font-size="13" font-weight="bold" lengthAdjust="spacingAndGlyphs" textLength="9" x="73" y="273.1606">6</text><text fill="#000000" font-family="sans-serif" font-size="13" lengthAdjust="spacingAndGlyphs" textLength="147" x="86" y="273.1606">operation with success</text><!--MD5=[847a27f45d575f758d82a155fd0fb18c]
@startuml
autonumber
actor "Collaborator" as COL

activate COL
COL -> ":Sistema" : load file
activate ":Sistema"
":Sistema" - -> COL : request necessary data \n(file name)
deactivate ":Sistema"

COL -> ":Sistema" : introduce data
activate ":Sistema"
":Sistema" - -> COL : ask confirmation
deactivate ":Sistema"

COL -> ":Sistema" : confirms
activate ":Sistema"
":Sistema" - -> COL : operation with success
deactivate ":Sistema"

deactivate COL
@enduml

PlantUML version 1.2020.12(Sat Jun 06 10:54:15 UTC 2020)
(GPL source distribution)
Java Runtime: Java(TM) SE Runtime Environment
JVM: Java HotSpot(TM) 64-Bit Server VM
Default Encoding: UTF-8
Language: en
Country: US
--></g></svg>