<?xml version="1.0" encoding="UTF-8" standalone="no"?><svg xmlns="http://www.w3.org/2000/svg" xmlns:xlink="http://www.w3.org/1999/xlink" contentScriptType="application/ecmascript" contentStyleType="text/css" height="502px" preserveAspectRatio="none" style="width:1560px;height:502px;" version="1.1" viewBox="0 0 1560 502" width="1560px" zoomAndPan="magnify"><defs><filter height="300%" id="f1gg45q2k3ddbp" width="300%" x="-1" y="-1"><feGaussianBlur result="blurOut" stdDeviation="2.0"/><feColorMatrix in="blurOut" result="blurOut2" type="matrix" values="0 0 0 0 0 0 0 0 0 0 0 0 0 0 0 0 0 0 .4 0"/><feOffset dx="4.0" dy="4.0" in="blurOut2" result="blurOut3"/><feBlend in="SourceGraphic" in2="blurOut3" mode="normal"/></filter></defs><g><!--MD5=[99b8db98afdc2c8404e39242ef4c1e65]
class Platform--><rect fill="#FEFECE" filter="url(#f1gg45q2k3ddbp)" height="40" id="Platform" style="stroke: #A80036; stroke-width: 1.5;" width="84" x="6" y="180"/><ellipse cx="21" cy="196" fill="#ADD1B2" rx="11" ry="11" style="stroke: #A80036; stroke-width: 1.0;"/><path d="M23.9688,201.6406 Q23.3906,201.9375 22.75,202.0859 Q22.1094,202.2344 21.4063,202.2344 Q18.9063,202.2344 17.5859,200.5859 Q16.2656,198.9375 16.2656,195.8125 Q16.2656,192.6875 17.5859,191.0313 Q18.9063,189.375 21.4063,189.375 Q22.1094,189.375 22.7578,189.5313 Q23.4063,189.6875 23.9688,189.9844 L23.9688,192.7031 Q23.3438,192.125 22.75,191.8516 Q22.1563,191.5781 21.5313,191.5781 Q20.1875,191.5781 19.5,192.6484 Q18.8125,193.7188 18.8125,195.8125 Q18.8125,197.9063 19.5,198.9766 Q20.1875,200.0469 21.5313,200.0469 Q22.1563,200.0469 22.75,199.7734 Q23.3438,199.5 23.9688,198.9219 L23.9688,201.6406 Z "/><text fill="#000000" font-family="sans-serif" font-size="12" lengthAdjust="spacingAndGlyphs" textLength="52" x="35" y="200.1543">Platform</text><line style="stroke: #A80036; stroke-width: 1.5;" x1="7" x2="89" y1="212" y2="212"/><!--MD5=[1f687b5315377fe49fca59b457947463]
class Freelancer--><rect fill="#FEFECE" filter="url(#f1gg45q2k3ddbp)" height="129.6328" id="Freelancer" style="stroke: #A80036; stroke-width: 1.5;" width="133" x="897" y="236"/><ellipse cx="927.3" cy="252" fill="#ADD1B2" rx="11" ry="11" style="stroke: #A80036; stroke-width: 1.0;"/><path d="M930.2688,257.6406 Q929.6906,257.9375 929.05,258.0859 Q928.4094,258.2344 927.7063,258.2344 Q925.2063,258.2344 923.8859,256.5859 Q922.5656,254.9375 922.5656,251.8125 Q922.5656,248.6875 923.8859,247.0313 Q925.2063,245.375 927.7063,245.375 Q928.4094,245.375 929.0578,245.5313 Q929.7063,245.6875 930.2688,245.9844 L930.2688,248.7031 Q929.6438,248.125 929.05,247.8516 Q928.4563,247.5781 927.8313,247.5781 Q926.4875,247.5781 925.8,248.6484 Q925.1125,249.7188 925.1125,251.8125 Q925.1125,253.9063 925.8,254.9766 Q926.4875,256.0469 927.8313,256.0469 Q928.4563,256.0469 929.05,255.7734 Q929.6438,255.5 930.2688,254.9219 L930.2688,257.6406 Z "/><text fill="#000000" font-family="sans-serif" font-size="12" lengthAdjust="spacingAndGlyphs" textLength="67" x="944.7" y="256.1543">Freelancer</text><line style="stroke: #A80036; stroke-width: 1.5;" x1="898" x2="1029" y1="268" y2="268"/><text fill="#000000" font-family="sans-serif" font-size="11" lengthAdjust="spacingAndGlyphs" textLength="58" x="903" y="282.2104">-String idF</text><text fill="#000000" font-family="sans-serif" font-size="11" lengthAdjust="spacingAndGlyphs" textLength="74" x="903" y="295.0151">-String name</text><text fill="#000000" font-family="sans-serif" font-size="11" lengthAdjust="spacingAndGlyphs" textLength="121" x="903" y="307.8198">-String levelExpertise</text><text fill="#000000" font-family="sans-serif" font-size="11" lengthAdjust="spacingAndGlyphs" textLength="73" x="903" y="320.6245">-String email</text><text fill="#000000" font-family="sans-serif" font-size="11" lengthAdjust="spacingAndGlyphs" textLength="56" x="903" y="333.4292">-String nif</text><text fill="#000000" font-family="sans-serif" font-size="11" lengthAdjust="spacingAndGlyphs" textLength="110" x="903" y="346.2339">-String ibanAccount</text><text fill="#000000" font-family="sans-serif" font-size="11" lengthAdjust="spacingAndGlyphs" textLength="77" x="903" y="359.0386">-String coutry</text><!--MD5=[86c7c362de55a38b660185a1328fe18d]
class Organization--><rect fill="#FEFECE" filter="url(#f1gg45q2k3ddbp)" height="78.4141" id="Organization" style="stroke: #A80036; stroke-width: 1.5;" width="110" x="457" y="253"/><ellipse cx="472" cy="269" fill="#ADD1B2" rx="11" ry="11" style="stroke: #A80036; stroke-width: 1.0;"/><path d="M474.9688,274.6406 Q474.3906,274.9375 473.75,275.0859 Q473.1094,275.2344 472.4063,275.2344 Q469.9063,275.2344 468.5859,273.5859 Q467.2656,271.9375 467.2656,268.8125 Q467.2656,265.6875 468.5859,264.0313 Q469.9063,262.375 472.4063,262.375 Q473.1094,262.375 473.7578,262.5313 Q474.4063,262.6875 474.9688,262.9844 L474.9688,265.7031 Q474.3438,265.125 473.75,264.8516 Q473.1563,264.5781 472.5313,264.5781 Q471.1875,264.5781 470.5,265.6484 Q469.8125,266.7188 469.8125,268.8125 Q469.8125,270.9063 470.5,271.9766 Q471.1875,273.0469 472.5313,273.0469 Q473.1563,273.0469 473.75,272.7734 Q474.3438,272.5 474.9688,271.9219 L474.9688,274.6406 Z "/><text fill="#000000" font-family="sans-serif" font-size="12" lengthAdjust="spacingAndGlyphs" textLength="78" x="486" y="273.1543">Organization</text><line style="stroke: #A80036; stroke-width: 1.5;" x1="458" x2="566" y1="285" y2="285"/><text fill="#000000" font-family="sans-serif" font-size="11" lengthAdjust="spacingAndGlyphs" textLength="74" x="463" y="299.2104">-String nome</text><text fill="#000000" font-family="sans-serif" font-size="11" lengthAdjust="spacingAndGlyphs" textLength="73" x="463" y="312.0151">-String email</text><text fill="#000000" font-family="sans-serif" font-size="11" lengthAdjust="spacingAndGlyphs" textLength="56" x="463" y="324.8198">-String nif</text><!--MD5=[f483d6e5de34a60207b28a5563be5e8b]
class Collaborator--><rect fill="#FEFECE" filter="url(#f1gg45q2k3ddbp)" height="65.6094" id="Collaborator" style="stroke: #A80036; stroke-width: 1.5;" width="109" x="665" y="150"/><ellipse cx="680" cy="166" fill="#ADD1B2" rx="11" ry="11" style="stroke: #A80036; stroke-width: 1.0;"/><path d="M682.9688,171.6406 Q682.3906,171.9375 681.75,172.0859 Q681.1094,172.2344 680.4063,172.2344 Q677.9063,172.2344 676.5859,170.5859 Q675.2656,168.9375 675.2656,165.8125 Q675.2656,162.6875 676.5859,161.0313 Q677.9063,159.375 680.4063,159.375 Q681.1094,159.375 681.7578,159.5313 Q682.4063,159.6875 682.9688,159.9844 L682.9688,162.7031 Q682.3438,162.125 681.75,161.8516 Q681.1563,161.5781 680.5313,161.5781 Q679.1875,161.5781 678.5,162.6484 Q677.8125,163.7188 677.8125,165.8125 Q677.8125,167.9063 678.5,168.9766 Q679.1875,170.0469 680.5313,170.0469 Q681.1563,170.0469 681.75,169.7734 Q682.3438,169.5 682.9688,168.9219 L682.9688,171.6406 Z "/><text fill="#000000" font-family="sans-serif" font-size="12" lengthAdjust="spacingAndGlyphs" textLength="77" x="694" y="170.1543">Collaborator</text><line style="stroke: #A80036; stroke-width: 1.5;" x1="666" x2="773" y1="182" y2="182"/><text fill="#000000" font-family="sans-serif" font-size="11" lengthAdjust="spacingAndGlyphs" textLength="74" x="671" y="196.2104">-String nome</text><text fill="#000000" font-family="sans-serif" font-size="11" lengthAdjust="spacingAndGlyphs" textLength="73" x="671" y="209.0151">-String email</text><!--MD5=[b34797a66dc35cbf1d65f7e3ca75530e]
class Task--><rect fill="#FEFECE" filter="url(#f1gg45q2k3ddbp)" height="104.0234" id="Task" style="stroke: #A80036; stroke-width: 1.5;" width="129" x="1420" y="131"/><ellipse cx="1465.75" cy="147" fill="#ADD1B2" rx="11" ry="11" style="stroke: #A80036; stroke-width: 1.0;"/><path d="M1468.7188,152.6406 Q1468.1406,152.9375 1467.5,153.0859 Q1466.8594,153.2344 1466.1563,153.2344 Q1463.6563,153.2344 1462.3359,151.5859 Q1461.0156,149.9375 1461.0156,146.8125 Q1461.0156,143.6875 1462.3359,142.0313 Q1463.6563,140.375 1466.1563,140.375 Q1466.8594,140.375 1467.5078,140.5313 Q1468.1563,140.6875 1468.7188,140.9844 L1468.7188,143.7031 Q1468.0938,143.125 1467.5,142.8516 Q1466.9063,142.5781 1466.2813,142.5781 Q1464.9375,142.5781 1464.25,143.6484 Q1463.5625,144.7188 1463.5625,146.8125 Q1463.5625,148.9063 1464.25,149.9766 Q1464.9375,151.0469 1466.2813,151.0469 Q1466.9063,151.0469 1467.5,150.7734 Q1468.0938,150.5 1468.7188,149.9219 L1468.7188,152.6406 Z "/><text fill="#000000" font-family="sans-serif" font-size="12" lengthAdjust="spacingAndGlyphs" textLength="29" x="1486.25" y="151.1543">Task</text><line style="stroke: #A80036; stroke-width: 1.5;" x1="1421" x2="1548" y1="163" y2="163"/><text fill="#000000" font-family="sans-serif" font-size="11" lengthAdjust="spacingAndGlyphs" textLength="59" x="1426" y="177.2104">-String idT</text><text fill="#000000" font-family="sans-serif" font-size="11" lengthAdjust="spacingAndGlyphs" textLength="105" x="1426" y="190.0151">-String description</text><text fill="#000000" font-family="sans-serif" font-size="11" lengthAdjust="spacingAndGlyphs" textLength="109" x="1426" y="202.8198">-Time timeDuration</text><text fill="#000000" font-family="sans-serif" font-size="11" lengthAdjust="spacingAndGlyphs" textLength="97" x="1426" y="215.6245">-double costHour</text><text fill="#000000" font-family="sans-serif" font-size="11" lengthAdjust="spacingAndGlyphs" textLength="117" x="1426" y="228.4292">-String taskCategory</text><!--MD5=[4045d6f6a06909f8c0c16b57fdb55c63]
class TransactionExecution--><rect fill="#FEFECE" filter="url(#f1gg45q2k3ddbp)" height="78.4141" id="TransactionExecution" style="stroke: #A80036; stroke-width: 1.5;" width="169" x="1153" y="52"/><ellipse cx="1168.9" cy="68" fill="#ADD1B2" rx="11" ry="11" style="stroke: #A80036; stroke-width: 1.0;"/><path d="M1171.8688,73.6406 Q1171.2906,73.9375 1170.65,74.0859 Q1170.0094,74.2344 1169.3063,74.2344 Q1166.8063,74.2344 1165.4859,72.5859 Q1164.1656,70.9375 1164.1656,67.8125 Q1164.1656,64.6875 1165.4859,63.0313 Q1166.8063,61.375 1169.3063,61.375 Q1170.0094,61.375 1170.6578,61.5313 Q1171.3063,61.6875 1171.8688,61.9844 L1171.8688,64.7031 Q1171.2438,64.125 1170.65,63.8516 Q1170.0563,63.5781 1169.4313,63.5781 Q1168.0875,63.5781 1167.4,64.6484 Q1166.7125,65.7188 1166.7125,67.8125 Q1166.7125,69.9063 1167.4,70.9766 Q1168.0875,72.0469 1169.4313,72.0469 Q1170.0563,72.0469 1170.65,71.7734 Q1171.2438,71.5 1171.8688,70.9219 L1171.8688,73.6406 Z "/><text fill="#000000" font-family="sans-serif" font-size="12" lengthAdjust="spacingAndGlyphs" textLength="135" x="1183.1" y="72.1543">TransactionExecution</text><line style="stroke: #A80036; stroke-width: 1.5;" x1="1154" x2="1321" y1="84" y2="84"/><text fill="#000000" font-family="sans-serif" font-size="11" lengthAdjust="spacingAndGlyphs" textLength="81" x="1159" y="98.2104">-Data endDate</text><text fill="#000000" font-family="sans-serif" font-size="11" lengthAdjust="spacingAndGlyphs" textLength="76" x="1159" y="111.0151">-double delay</text><text fill="#000000" font-family="sans-serif" font-size="11" lengthAdjust="spacingAndGlyphs" textLength="157" x="1159" y="123.8198">-String descriptionOfQuality</text><!--MD5=[0f39e4cb6f03951afbf6d14bd2505654]
class Address--><rect fill="#FEFECE" filter="url(#f1gg45q2k3ddbp)" height="78.4141" id="Address" style="stroke: #A80036; stroke-width: 1.5;" width="125" x="1175" y="375"/><ellipse cx="1208.9" cy="391" fill="#ADD1B2" rx="11" ry="11" style="stroke: #A80036; stroke-width: 1.0;"/><path d="M1211.8688,396.6406 Q1211.2906,396.9375 1210.65,397.0859 Q1210.0094,397.2344 1209.3063,397.2344 Q1206.8063,397.2344 1205.4859,395.5859 Q1204.1656,393.9375 1204.1656,390.8125 Q1204.1656,387.6875 1205.4859,386.0313 Q1206.8063,384.375 1209.3063,384.375 Q1210.0094,384.375 1210.6578,384.5313 Q1211.3063,384.6875 1211.8688,384.9844 L1211.8688,387.7031 Q1211.2438,387.125 1210.65,386.8516 Q1210.0563,386.5781 1209.4313,386.5781 Q1208.0875,386.5781 1207.4,387.6484 Q1206.7125,388.7188 1206.7125,390.8125 Q1206.7125,392.9063 1207.4,393.9766 Q1208.0875,395.0469 1209.4313,395.0469 Q1210.0563,395.0469 1210.65,394.7734 Q1211.2438,394.5 1211.8688,393.9219 L1211.8688,396.6406 Z "/><text fill="#000000" font-family="sans-serif" font-size="12" lengthAdjust="spacingAndGlyphs" textLength="51" x="1227.1" y="395.1543">Address</text><line style="stroke: #A80036; stroke-width: 1.5;" x1="1176" x2="1299" y1="407" y2="407"/><text fill="#000000" font-family="sans-serif" font-size="11" lengthAdjust="spacingAndGlyphs" textLength="76" x="1181" y="421.2104">-String street</text><text fill="#000000" font-family="sans-serif" font-size="11" lengthAdjust="spacingAndGlyphs" textLength="113" x="1181" y="434.0151">-String doorNumber</text><text fill="#000000" font-family="sans-serif" font-size="11" lengthAdjust="spacingAndGlyphs" textLength="61" x="1181" y="446.8198">-String city</text><!--MD5=[da547346deef918ea16944ba046651ef]
class Administrator--><rect fill="#FEFECE" filter="url(#f1gg45q2k3ddbp)" height="40" id="Administrator" style="stroke: #A80036; stroke-width: 1.5;" width="116" x="188" y="180"/><ellipse cx="203" cy="196" fill="#ADD1B2" rx="11" ry="11" style="stroke: #A80036; stroke-width: 1.0;"/><path d="M205.9688,201.6406 Q205.3906,201.9375 204.75,202.0859 Q204.1094,202.2344 203.4063,202.2344 Q200.9063,202.2344 199.5859,200.5859 Q198.2656,198.9375 198.2656,195.8125 Q198.2656,192.6875 199.5859,191.0313 Q200.9063,189.375 203.4063,189.375 Q204.1094,189.375 204.7578,189.5313 Q205.4063,189.6875 205.9688,189.9844 L205.9688,192.7031 Q205.3438,192.125 204.75,191.8516 Q204.1563,191.5781 203.5313,191.5781 Q202.1875,191.5781 201.5,192.6484 Q200.8125,193.7188 200.8125,195.8125 Q200.8125,197.9063 201.5,198.9766 Q202.1875,200.0469 203.5313,200.0469 Q204.1563,200.0469 204.75,199.7734 Q205.3438,199.5 205.9688,198.9219 L205.9688,201.6406 Z "/><text fill="#000000" font-family="sans-serif" font-size="12" lengthAdjust="spacingAndGlyphs" textLength="84" x="217" y="200.1543">Administrator</text><line style="stroke: #A80036; stroke-width: 1.5;" x1="189" x2="303" y1="212" y2="212"/><!--MD5=[0e73009a4465e45d67f483ce889136f1]
class ImportFile--><rect fill="#FEFECE" filter="url(#f1gg45q2k3ddbp)" height="40" id="ImportFile" style="stroke: #A80036; stroke-width: 1.5;" width="93" x="334" y="76"/><ellipse cx="349" cy="92" fill="#ADD1B2" rx="11" ry="11" style="stroke: #A80036; stroke-width: 1.0;"/><path d="M351.9688,97.6406 Q351.3906,97.9375 350.75,98.0859 Q350.1094,98.2344 349.4063,98.2344 Q346.9063,98.2344 345.5859,96.5859 Q344.2656,94.9375 344.2656,91.8125 Q344.2656,88.6875 345.5859,87.0313 Q346.9063,85.375 349.4063,85.375 Q350.1094,85.375 350.7578,85.5313 Q351.4063,85.6875 351.9688,85.9844 L351.9688,88.7031 Q351.3438,88.125 350.75,87.8516 Q350.1563,87.5781 349.5313,87.5781 Q348.1875,87.5781 347.5,88.6484 Q346.8125,89.7188 346.8125,91.8125 Q346.8125,93.9063 347.5,94.9766 Q348.1875,96.0469 349.5313,96.0469 Q350.1563,96.0469 350.75,95.7734 Q351.3438,95.5 351.9688,94.9219 L351.9688,97.6406 Z "/><text fill="#000000" font-family="sans-serif" font-size="12" lengthAdjust="spacingAndGlyphs" textLength="61" x="363" y="96.1543">ImportFile</text><line style="stroke: #A80036; stroke-width: 1.5;" x1="335" x2="426" y1="108" y2="108"/><!--MD5=[08d13ac0e2d9424a9ad985b5cce64504]
link Freelancer to TransactionExecution--><path d="M1030.1732,286.0562 C1060.503,277.0242 1095.6418,263.2413 1123,243 C1163.7685,212.8369 1196.813,164.1972 1216.7387,130.0829 " fill="none" id="Freelancer-TransactionExecution" style="stroke: #A80036; stroke-width: 1.0;"/><text fill="#000000" font-family="sans-serif" font-size="13" lengthAdjust="spacingAndGlyphs" textLength="46" x="1062" y="239.0669">receive</text><polygon fill="#000000" points="1111,233.0664,1117,236.0664,1111,239.0664,1111,233.0664" style="stroke: #000000; stroke-width: 1.0;"/><text fill="#000000" font-family="sans-serif" font-size="13" lengthAdjust="spacingAndGlyphs" textLength="8" x="1037.9031" y="297.3363">1</text><text fill="#000000" font-family="sans-serif" font-size="13" lengthAdjust="spacingAndGlyphs" textLength="8" x="1204.3281" y="150.4223">1</text><!--MD5=[874150c88719dac3f651931978d26083]
link Freelancer to Address--><path d="M1030.095,330.2943 C1040.0967,334.604 1050.3049,338.9523 1060,343 C1097.9782,358.8562 1140.81,376.0096 1174.8829,389.4835 " fill="none" id="Freelancer-Address" style="stroke: #A80036; stroke-width: 1.0;"/><text fill="#000000" font-family="sans-serif" font-size="13" lengthAdjust="spacingAndGlyphs" textLength="23" x="1073.5" y="339.0669">has</text><polygon fill="#000000" points="1099.5,333.0664,1105.5,336.0664,1099.5,339.0664,1099.5,333.0664" style="stroke: #000000; stroke-width: 1.0;"/><text fill="#000000" font-family="sans-serif" font-size="13" lengthAdjust="spacingAndGlyphs" textLength="8" x="1037.8163" y="346.4129">1</text><text fill="#000000" font-family="sans-serif" font-size="13" lengthAdjust="spacingAndGlyphs" textLength="8" x="1159.1803" y="399.5666">1</text><!--MD5=[8853e9d83a8841c20c4ef075af762602]
link Task to Freelancer--><path d="M1419.9774,200.8965 C1409.9486,203.6365 1399.7002,206.4124 1390,209 C1271.5761,240.591 1243.1692,253.8839 1123,278 C1092.6893,284.0829 1058.8283,289.1997 1030.1291,293.0512 " fill="none" id="Task-Freelancer" style="stroke: #A80036; stroke-width: 1.0;"/><polygon fill="#000000" points="1210,218.0664,1204,221.0664,1210,224.0664,1210,218.0664" style="stroke: #000000; stroke-width: 1.0;"/><text fill="#000000" font-family="sans-serif" font-size="13" lengthAdjust="spacingAndGlyphs" textLength="56" x="1216" y="224.0669">made by</text><text fill="#000000" font-family="sans-serif" font-size="13" lengthAdjust="spacingAndGlyphs" textLength="23" x="1389.1376" y="215.588">1..*</text><text fill="#000000" font-family="sans-serif" font-size="13" lengthAdjust="spacingAndGlyphs" textLength="8" x="1037.8542" y="288.4557">1</text><!--MD5=[b952cad0aef76cb3b2d64bb106bed9c2]
link Platform to TransactionExecution--><path d="M58.3429,179.9253 C83.6255,133.9584 153.3284,25 246,25 C246,25 246,25 963.5,25 C1028.3323,25 1099.4541,42.6805 1152.987,59.7395 " fill="none" id="Platform-TransactionExecution" style="stroke: #A80036; stroke-width: 1.0;"/><text fill="#000000" font-family="sans-serif" font-size="13" lengthAdjust="spacingAndGlyphs" textLength="23" x="598" y="21.0669">has</text><polygon fill="#000000" points="624,15.0664,630,18.0664,624,21.0664,624,15.0664" style="stroke: #000000; stroke-width: 1.0;"/><text fill="#000000" font-family="sans-serif" font-size="13" lengthAdjust="spacingAndGlyphs" textLength="8" x="52.2061" y="168.9116">1</text><text fill="#000000" font-family="sans-serif" font-size="13" lengthAdjust="spacingAndGlyphs" textLength="23" x="1122.0359" y="69.8271">1..*</text><!--MD5=[0f7004bed4496639b3a5258ab2ead378]
link Platform to Administrator--><path d="M90.476,200 C118.8836,200 156.6293,200 187.8208,200 " fill="none" id="Platform-Administrator" style="stroke: #A80036; stroke-width: 1.0;"/><text fill="#000000" font-family="sans-serif" font-size="13" lengthAdjust="spacingAndGlyphs" textLength="23" x="121" y="196.0669">has</text><polygon fill="#000000" points="147,190.0664,153,193.0664,147,196.0664,147,190.0664" style="stroke: #000000; stroke-width: 1.0;"/><text fill="#000000" font-family="sans-serif" font-size="13" lengthAdjust="spacingAndGlyphs" textLength="8" x="97.8831" y="213.2728">1</text><text fill="#000000" font-family="sans-serif" font-size="13" lengthAdjust="spacingAndGlyphs" textLength="8" x="171.8541" y="213.0363">1</text><!--MD5=[7640e466c042ba2d6f9c19c816f7f0fc]
link Platform to Organization--><path d="M90.2527,219.9427 C117.5519,231.9821 154.1707,246.5772 188,255 C280.5711,278.0484 391.648,286.7853 456.7648,290.0652 " fill="none" id="Platform-Organization" style="stroke: #A80036; stroke-width: 1.0;"/><text fill="#000000" font-family="sans-serif" font-size="13" lengthAdjust="spacingAndGlyphs" textLength="92" x="193.5" y="251.0669">has registered</text><polygon fill="#000000" points="288.5,245.0664,294.5,248.0664,288.5,251.0664,288.5,245.0664" style="stroke: #000000; stroke-width: 1.0;"/><text fill="#000000" font-family="sans-serif" font-size="13" lengthAdjust="spacingAndGlyphs" textLength="8" x="93.4894" y="240.0904">1</text><text fill="#000000" font-family="sans-serif" font-size="13" lengthAdjust="spacingAndGlyphs" textLength="23" x="426.0485" y="302.7593">1..*</text><!--MD5=[22697d4d863c2e08ab1d60ca0d61f844]
link Platform to Freelancer--><path d="M51.6136,220.3922 C64.5953,286.4024 115.2344,490 246,490 C246,490 246,490 719.5,490 C802.5534,490 874.4829,420.714 918.3121,366.0431 " fill="none" id="Platform-Freelancer" style="stroke: #A80036; stroke-width: 1.0;"/><text fill="#000000" font-family="sans-serif" font-size="13" lengthAdjust="spacingAndGlyphs" textLength="23" x="494" y="486.0669">has</text><polygon fill="#000000" points="520,480.0664,526,483.0664,520,486.0664,520,480.0664" style="stroke: #000000; stroke-width: 1.0;"/><text fill="#000000" font-family="sans-serif" font-size="13" lengthAdjust="spacingAndGlyphs" textLength="8" x="43.5098" y="239.973">1</text><text fill="#000000" font-family="sans-serif" font-size="13" lengthAdjust="spacingAndGlyphs" textLength="23" x="889.4662" y="385.6168">1..*</text><!--MD5=[ace46b8877fd5d0b45ea037c3198de3e]
link Platform to ImportFile--><path d="M90.1653,185.0449 C99.936,181.6669 110.3105,178.1501 120,175 C194.3826,150.8182 281.4647,124.8853 333.7387,109.572 " fill="none" id="Platform-ImportFile" style="stroke: #A80036; stroke-width: 1.0;"/><text fill="#000000" font-family="sans-serif" font-size="13" lengthAdjust="spacingAndGlyphs" textLength="23" x="127.5" y="160.0669">has</text><text fill="#000000" font-family="sans-serif" font-size="13" lengthAdjust="spacingAndGlyphs" textLength="8" x="98.1" y="178.2637">1</text><text fill="#000000" font-family="sans-serif" font-size="13" lengthAdjust="spacingAndGlyphs" textLength="8" x="317.9659" y="124.8757">1</text><!--MD5=[ec97d39b7e7a4ec2b79aa9dbbb3f5070]
link Organization to Address--><path d="M567.2697,307.9156 C641.5823,328.6892 778.1262,364.6673 897,384 C993.2078,399.6465 1106.1292,407.5649 1174.713,411.2311 " fill="none" id="Organization-Address" style="stroke: #A80036; stroke-width: 1.0;"/><text fill="#000000" font-family="sans-serif" font-size="13" lengthAdjust="spacingAndGlyphs" textLength="23" x="817.5" y="363.0669">has</text><polygon fill="#000000" points="843.5,357.0664,849.5,360.0664,843.5,363.0664,843.5,357.0664" style="stroke: #000000; stroke-width: 1.0;"/><text fill="#000000" font-family="sans-serif" font-size="13" lengthAdjust="spacingAndGlyphs" textLength="8" x="574.8636" y="322.9646">1</text><text fill="#000000" font-family="sans-serif" font-size="13" lengthAdjust="spacingAndGlyphs" textLength="8" x="1158.9908" y="423.8288">1</text><!--MD5=[45817597bcd7048073a670d966abfd17]
link Organization to Collaborator--><path d="M567.0614,263.0762 C597.3176,247.1826 634.7184,227.5359 664.9013,211.6808 " fill="none" id="Organization-Collaborator" style="stroke: #A80036; stroke-width: 1.0;"/><text fill="#000000" font-family="sans-serif" font-size="13" lengthAdjust="spacingAndGlyphs" textLength="23" x="598" y="223.0669">has</text><polygon fill="#000000" points="624,217.0664,630,220.0664,624,223.0664,624,217.0664" style="stroke: #000000; stroke-width: 1.0;"/><text fill="#000000" font-family="sans-serif" font-size="13" lengthAdjust="spacingAndGlyphs" textLength="8" x="574.9978" y="272.2454">1</text><text fill="#000000" font-family="sans-serif" font-size="13" lengthAdjust="spacingAndGlyphs" textLength="8" x="649.0271" y="228.6447">1</text><!--MD5=[2a41c1af413c0662bf55a6b8913ea24f]
link Administrator to Organization--><path d="M304.0461,220.0761 C349.4475,235.7788 412.1507,257.4657 456.8058,272.9103 " fill="none" id="Administrator-Organization" style="stroke: #A80036; stroke-width: 1.0;"/><text fill="#000000" font-family="sans-serif" font-size="13" lengthAdjust="spacingAndGlyphs" textLength="56" x="346" y="228.0669">registers</text><polygon fill="#000000" points="405,222.0664,411,225.0664,405,228.0664,405,222.0664" style="stroke: #000000; stroke-width: 1.0;"/><text fill="#000000" font-family="sans-serif" font-size="13" lengthAdjust="spacingAndGlyphs" textLength="8" x="311.2466" y="239.9174">1</text><text fill="#000000" font-family="sans-serif" font-size="13" lengthAdjust="spacingAndGlyphs" textLength="8" x="440.8516" y="283.4009">1</text><!--MD5=[757406b2e460220911d4cccaa97c87d9]
link Administrator to Collaborator--><path d="M304.0604,197.9155 C396.296,194.6039 575.0412,188.1865 664.9958,184.9569 " fill="none" id="Administrator-Collaborator" style="stroke: #A80036; stroke-width: 1.0;"/><text fill="#000000" font-family="sans-serif" font-size="13" lengthAdjust="spacingAndGlyphs" textLength="56" x="477.5" y="185.0669">registers</text><polygon fill="#000000" points="536.5,179.0664,542.5,182.0664,536.5,185.0664,536.5,179.0664" style="stroke: #000000; stroke-width: 1.0;"/><text fill="#000000" font-family="sans-serif" font-size="13" lengthAdjust="spacingAndGlyphs" textLength="8" x="312.0119" y="210.6848">1</text><text fill="#000000" font-family="sans-serif" font-size="13" lengthAdjust="spacingAndGlyphs" textLength="8" x="649.1343" y="198.3297">1</text><!--MD5=[57cb959bbb8d6516b63cb4c28268197c]
link TransactionExecution to Task--><path d="M1322.1578,122.5325 C1354.138,134.4441 1389.9869,147.7967 1419.8463,158.9185 " fill="none" id="TransactionExecution-Task" style="stroke: #A80036; stroke-width: 1.0;"/><text fill="#000000" font-family="sans-serif" font-size="13" lengthAdjust="spacingAndGlyphs" textLength="23" x="1353" y="131.0669">has</text><polygon fill="#000000" points="1379,125.0664,1385,128.0664,1379,131.0664,1379,125.0664" style="stroke: #000000; stroke-width: 1.0;"/><text fill="#000000" font-family="sans-serif" font-size="13" lengthAdjust="spacingAndGlyphs" textLength="8" x="1330.0539" y="138.0632">1</text><text fill="#000000" font-family="sans-serif" font-size="13" lengthAdjust="spacingAndGlyphs" textLength="8" x="1403.9082" y="169.0745">1</text><!--MD5=[d2c3650dbd07e79cdad2ffd4a879dec6]
link Collaborator to Freelancer--><path d="M774.3751,211.2372 C784.2124,216.2098 794.3899,221.2968 804,226 C834.3705,240.8633 868.2397,256.8689 896.9289,270.2615 " fill="none" id="Collaborator-Freelancer" style="stroke: #A80036; stroke-width: 1.0;"/><text fill="#000000" font-family="sans-serif" font-size="13" lengthAdjust="spacingAndGlyphs" textLength="48" x="805" y="222.0669">creates</text><polygon fill="#000000" points="856,216.0664,862,219.0664,856,222.0664,856,216.0664" style="stroke: #000000; stroke-width: 1.0;"/><text fill="#000000" font-family="sans-serif" font-size="13" lengthAdjust="spacingAndGlyphs" textLength="8" x="781.9185" y="227.9165">1</text><text fill="#000000" font-family="sans-serif" font-size="13" lengthAdjust="spacingAndGlyphs" textLength="8" x="881.2102" y="279.814">1</text><!--MD5=[f919d21ae7a75ef5ececc535e09d5009]
link Collaborator to Task--><path d="M774.2099,183 C911.8538,183 1272.0476,183 1419.8192,183 " fill="none" id="Collaborator-Task" style="stroke: #A80036; stroke-width: 1.0;"/><text fill="#000000" font-family="sans-serif" font-size="13" lengthAdjust="spacingAndGlyphs" textLength="48" x="1061" y="179.0669">creates</text><polygon fill="#000000" points="1112,173.0664,1118,176.0664,1112,179.0664,1112,173.0664" style="stroke: #000000; stroke-width: 1.0;"/><text fill="#000000" font-family="sans-serif" font-size="13" lengthAdjust="spacingAndGlyphs" textLength="8" x="782.099" y="196.1099">1</text><text fill="#000000" font-family="sans-serif" font-size="13" lengthAdjust="spacingAndGlyphs" textLength="23" x="1388.9631" y="195.846">1..*</text><!--MD5=[2ab7a6a303d213bb8ebe4ab6162585db]
link Collaborator to TransactionExecution--><path d="M774.1819,164.8912 C784.0398,161.9946 794.2742,159.2239 804,157 C923.8529,129.5946 1065.011,110.5002 1152.8937,100.1375 " fill="none" id="Collaborator-TransactionExecution" style="stroke: #A80036; stroke-width: 1.0;"/><text fill="#000000" font-family="sans-serif" font-size="13" lengthAdjust="spacingAndGlyphs" textLength="48" x="933" y="113.0669">creates</text><polygon fill="#000000" points="984,107.0664,990,110.0664,984,113.0664,984,107.0664" style="stroke: #000000; stroke-width: 1.0;"/><text fill="#000000" font-family="sans-serif" font-size="13" lengthAdjust="spacingAndGlyphs" textLength="8" x="782.0673" y="175.5677">1</text><text fill="#000000" font-family="sans-serif" font-size="13" lengthAdjust="spacingAndGlyphs" textLength="23" x="1121.9349" y="113.5705">1..*</text><!--MD5=[d1a942d9c7c3ad9d44361461d962309f]
link ImportFile to Collaborator--><path d="M427.1654,106.2536 C478.3782,117.7227 562.9045,137.2895 635,157 C644.6236,159.631 654.8078,162.6022 664.6475,165.5711 " fill="none" id="ImportFile-Collaborator" style="stroke: #A80036; stroke-width: 1.0;"/><text fill="#000000" font-family="sans-serif" font-size="13" lengthAdjust="spacingAndGlyphs" textLength="50" x="487" y="110.0669">used by</text><text fill="#000000" font-family="sans-serif" font-size="13" lengthAdjust="spacingAndGlyphs" textLength="8" x="434.9235" y="121.0492">1</text><text fill="#000000" font-family="sans-serif" font-size="13" lengthAdjust="spacingAndGlyphs" textLength="8" x="649.107" y="176.3994">1</text><!--MD5=[83f192292cc53d1c056087ce3abfdcc5]
@startuml
skinparam classAttributeIconSize 0
hide methods
left to right direction

class Platform{
}
class Freelancer {
  -String idF
  -String name
  -String levelExpertise
  -String email
  -String nif
  -String ibanAccount
  -String coutry
}

class Organization {
  -String nome
  -String email
  -String nif
}

class Collaborator{
  -String nome
  -String email
}

class Task {
  -String idT
  -String description
  -Time timeDuration
  -double costHour
  -String taskCategory
}


class TransactionExecution {
  -Data endDate
  -double delay
  -String descriptionOfQuality
}

class Address{
  -String street
  -String doorNumber
  -String city
}

class Administrator {
}



Freelancer "1" - - "1" TransactionExecution: receive >
Freelancer "1" - - "1" Address: has >

Task "1..*" - - "1" Freelancer: made by >

Platform "1" - - "1..*" TransactionExecution: has >
Platform "1" - - "1" Administrator: has >
Platform "1" - - "1..*" Organization: has registered >
Platform "1" - - "1..*" Freelancer: has >
Platform "1" - - "1" ImportFile : has

Organization "1" - - "1" Address: has >
Organization "1" - - "1" Collaborator: has >


Administrator "1" - - "1" Organization: registers >
Administrator "1" - - "1" Collaborator: registers >

TransactionExecution "1" - - "1" Task: has >


Collaborator "1" - - "1" Freelancer: creates >
Collaborator "1" - - "1..*" Task: creates >
Collaborator "1" - - "1..*" TransactionExecution: creates >

ImportFile "1" - - "1" Collaborator: used by
@enduml

PlantUML version 1.2019.12(Sun Nov 03 10:24:54 UTC 2019)
(GPL source distribution)
Java Runtime: OpenJDK Runtime Environment
JVM: OpenJDK 64-Bit Server VM
Java Version: 1.8.0_232-heroku-b09
Operating System: Linux
Default Encoding: UTF-8
Language: en
Country: US
--></g></svg>