<?xml version="1.0" encoding="UTF-8" standalone="no"?><svg xmlns="http://www.w3.org/2000/svg" xmlns:xlink="http://www.w3.org/1999/xlink" contentScriptType="application/ecmascript" contentStyleType="text/css" height="420px" preserveAspectRatio="none" style="width:1168px;height:420px;" version="1.1" viewBox="0 0 1168 420" width="1168px" zoomAndPan="magnify"><defs><filter height="300%" id="f16p5tbairwqz7" width="300%" x="-1" y="-1"><feGaussianBlur result="blurOut" stdDeviation="2.0"/><feColorMatrix in="blurOut" result="blurOut2" type="matrix" values="0 0 0 0 0 0 0 0 0 0 0 0 0 0 0 0 0 0 .4 0"/><feOffset dx="4.0" dy="4.0" in="blurOut2" result="blurOut3"/><feBlend in="SourceGraphic" in2="blurOut3" mode="normal"/></filter></defs><g><!--MD5=[99b8db98afdc2c8404e39242ef4c1e65]
class Platform--><rect fill="#FEFECE" filter="url(#f16p5tbairwqz7)" height="40" id="Platform" style="stroke: #A80036; stroke-width: 1.5;" width="84" x="6" y="199"/><ellipse cx="21" cy="215" fill="#ADD1B2" rx="11" ry="11" style="stroke: #A80036; stroke-width: 1.0;"/><path d="M23.9688,220.6406 Q23.3906,220.9375 22.75,221.0859 Q22.1094,221.2344 21.4063,221.2344 Q18.9063,221.2344 17.5859,219.5859 Q16.2656,217.9375 16.2656,214.8125 Q16.2656,211.6875 17.5859,210.0313 Q18.9063,208.375 21.4063,208.375 Q22.1094,208.375 22.7578,208.5313 Q23.4063,208.6875 23.9688,208.9844 L23.9688,211.7031 Q23.3438,211.125 22.75,210.8516 Q22.1563,210.5781 21.5313,210.5781 Q20.1875,210.5781 19.5,211.6484 Q18.8125,212.7188 18.8125,214.8125 Q18.8125,216.9063 19.5,217.9766 Q20.1875,219.0469 21.5313,219.0469 Q22.1563,219.0469 22.75,218.7734 Q23.3438,218.5 23.9688,217.9219 L23.9688,220.6406 Z "/><text fill="#000000" font-family="sans-serif" font-size="12" lengthAdjust="spacingAndGlyphs" textLength="52" x="35" y="219.1543">Platform</text><line style="stroke: #A80036; stroke-width: 1.5;" x1="7" x2="89" y1="231" y2="231"/><!--MD5=[1f687b5315377fe49fca59b457947463]
class Freelancer--><rect fill="#FEFECE" filter="url(#f16p5tbairwqz7)" height="129.6328" id="Freelancer" style="stroke: #A80036; stroke-width: 1.5;" width="133" x="465" y="95"/><ellipse cx="495.3" cy="111" fill="#ADD1B2" rx="11" ry="11" style="stroke: #A80036; stroke-width: 1.0;"/><path d="M498.2688,116.6406 Q497.6906,116.9375 497.05,117.0859 Q496.4094,117.2344 495.7063,117.2344 Q493.2063,117.2344 491.8859,115.5859 Q490.5656,113.9375 490.5656,110.8125 Q490.5656,107.6875 491.8859,106.0313 Q493.2063,104.375 495.7063,104.375 Q496.4094,104.375 497.0578,104.5313 Q497.7063,104.6875 498.2688,104.9844 L498.2688,107.7031 Q497.6438,107.125 497.05,106.8516 Q496.4563,106.5781 495.8313,106.5781 Q494.4875,106.5781 493.8,107.6484 Q493.1125,108.7188 493.1125,110.8125 Q493.1125,112.9063 493.8,113.9766 Q494.4875,115.0469 495.8313,115.0469 Q496.4563,115.0469 497.05,114.7734 Q497.6438,114.5 498.2688,113.9219 L498.2688,116.6406 Z "/><text fill="#000000" font-family="sans-serif" font-size="12" lengthAdjust="spacingAndGlyphs" textLength="67" x="512.7" y="115.1543">Freelancer</text><line style="stroke: #A80036; stroke-width: 1.5;" x1="466" x2="597" y1="127" y2="127"/><text fill="#000000" font-family="sans-serif" font-size="11" lengthAdjust="spacingAndGlyphs" textLength="58" x="471" y="141.2104">-String idF</text><text fill="#000000" font-family="sans-serif" font-size="11" lengthAdjust="spacingAndGlyphs" textLength="74" x="471" y="154.0151">-String name</text><text fill="#000000" font-family="sans-serif" font-size="11" lengthAdjust="spacingAndGlyphs" textLength="121" x="471" y="166.8198">-String levelExpertise</text><text fill="#000000" font-family="sans-serif" font-size="11" lengthAdjust="spacingAndGlyphs" textLength="73" x="471" y="179.6245">-String email</text><text fill="#000000" font-family="sans-serif" font-size="11" lengthAdjust="spacingAndGlyphs" textLength="56" x="471" y="192.4292">-String nif</text><text fill="#000000" font-family="sans-serif" font-size="11" lengthAdjust="spacingAndGlyphs" textLength="110" x="471" y="205.2339">-String ibanAccount</text><text fill="#000000" font-family="sans-serif" font-size="11" lengthAdjust="spacingAndGlyphs" textLength="77" x="471" y="218.0386">-String coutry</text><!--MD5=[86c7c362de55a38b660185a1328fe18d]
class Organization--><rect fill="#FEFECE" filter="url(#f16p5tbairwqz7)" height="78.4141" id="Organization" style="stroke: #A80036; stroke-width: 1.5;" width="110" x="257" y="331"/><ellipse cx="272" cy="347" fill="#ADD1B2" rx="11" ry="11" style="stroke: #A80036; stroke-width: 1.0;"/><path d="M274.9688,352.6406 Q274.3906,352.9375 273.75,353.0859 Q273.1094,353.2344 272.4063,353.2344 Q269.9063,353.2344 268.5859,351.5859 Q267.2656,349.9375 267.2656,346.8125 Q267.2656,343.6875 268.5859,342.0313 Q269.9063,340.375 272.4063,340.375 Q273.1094,340.375 273.7578,340.5313 Q274.4063,340.6875 274.9688,340.9844 L274.9688,343.7031 Q274.3438,343.125 273.75,342.8516 Q273.1563,342.5781 272.5313,342.5781 Q271.1875,342.5781 270.5,343.6484 Q269.8125,344.7188 269.8125,346.8125 Q269.8125,348.9063 270.5,349.9766 Q271.1875,351.0469 272.5313,351.0469 Q273.1563,351.0469 273.75,350.7734 Q274.3438,350.5 274.9688,349.9219 L274.9688,352.6406 Z "/><text fill="#000000" font-family="sans-serif" font-size="12" lengthAdjust="spacingAndGlyphs" textLength="78" x="286" y="351.1543">Organization</text><line style="stroke: #A80036; stroke-width: 1.5;" x1="258" x2="366" y1="363" y2="363"/><text fill="#000000" font-family="sans-serif" font-size="11" lengthAdjust="spacingAndGlyphs" textLength="74" x="263" y="377.2104">-String nome</text><text fill="#000000" font-family="sans-serif" font-size="11" lengthAdjust="spacingAndGlyphs" textLength="73" x="263" y="390.0151">-String email</text><text fill="#000000" font-family="sans-serif" font-size="11" lengthAdjust="spacingAndGlyphs" textLength="56" x="263" y="402.8198">-String nif</text><!--MD5=[f483d6e5de34a60207b28a5563be5e8b]
class Collaborator--><rect fill="#FEFECE" filter="url(#f16p5tbairwqz7)" height="65.6094" id="Collaborator" style="stroke: #A80036; stroke-width: 1.5;" width="109" x="477" y="337"/><ellipse cx="492" cy="353" fill="#ADD1B2" rx="11" ry="11" style="stroke: #A80036; stroke-width: 1.0;"/><path d="M494.9688,358.6406 Q494.3906,358.9375 493.75,359.0859 Q493.1094,359.2344 492.4063,359.2344 Q489.9063,359.2344 488.5859,357.5859 Q487.2656,355.9375 487.2656,352.8125 Q487.2656,349.6875 488.5859,348.0313 Q489.9063,346.375 492.4063,346.375 Q493.1094,346.375 493.7578,346.5313 Q494.4063,346.6875 494.9688,346.9844 L494.9688,349.7031 Q494.3438,349.125 493.75,348.8516 Q493.1563,348.5781 492.5313,348.5781 Q491.1875,348.5781 490.5,349.6484 Q489.8125,350.7188 489.8125,352.8125 Q489.8125,354.9063 490.5,355.9766 Q491.1875,357.0469 492.5313,357.0469 Q493.1563,357.0469 493.75,356.7734 Q494.3438,356.5 494.9688,355.9219 L494.9688,358.6406 Z "/><text fill="#000000" font-family="sans-serif" font-size="12" lengthAdjust="spacingAndGlyphs" textLength="77" x="506" y="357.1543">Collaborator</text><line style="stroke: #A80036; stroke-width: 1.5;" x1="478" x2="585" y1="369" y2="369"/><text fill="#000000" font-family="sans-serif" font-size="11" lengthAdjust="spacingAndGlyphs" textLength="74" x="483" y="383.2104">-String nome</text><text fill="#000000" font-family="sans-serif" font-size="11" lengthAdjust="spacingAndGlyphs" textLength="73" x="483" y="396.0151">-String email</text><!--MD5=[b34797a66dc35cbf1d65f7e3ca75530e]
class Task--><rect fill="#FEFECE" filter="url(#f16p5tbairwqz7)" height="104.0234" id="Task" style="stroke: #A80036; stroke-width: 1.5;" width="129" x="1028" y="108"/><ellipse cx="1073.75" cy="124" fill="#ADD1B2" rx="11" ry="11" style="stroke: #A80036; stroke-width: 1.0;"/><path d="M1076.7188,129.6406 Q1076.1406,129.9375 1075.5,130.0859 Q1074.8594,130.2344 1074.1563,130.2344 Q1071.6563,130.2344 1070.3359,128.5859 Q1069.0156,126.9375 1069.0156,123.8125 Q1069.0156,120.6875 1070.3359,119.0313 Q1071.6563,117.375 1074.1563,117.375 Q1074.8594,117.375 1075.5078,117.5313 Q1076.1563,117.6875 1076.7188,117.9844 L1076.7188,120.7031 Q1076.0938,120.125 1075.5,119.8516 Q1074.9063,119.5781 1074.2813,119.5781 Q1072.9375,119.5781 1072.25,120.6484 Q1071.5625,121.7188 1071.5625,123.8125 Q1071.5625,125.9063 1072.25,126.9766 Q1072.9375,128.0469 1074.2813,128.0469 Q1074.9063,128.0469 1075.5,127.7734 Q1076.0938,127.5 1076.7188,126.9219 L1076.7188,129.6406 Z "/><text fill="#000000" font-family="sans-serif" font-size="12" lengthAdjust="spacingAndGlyphs" textLength="29" x="1094.25" y="128.1543">Task</text><line style="stroke: #A80036; stroke-width: 1.5;" x1="1029" x2="1156" y1="140" y2="140"/><text fill="#000000" font-family="sans-serif" font-size="11" lengthAdjust="spacingAndGlyphs" textLength="59" x="1034" y="154.2104">-String idT</text><text fill="#000000" font-family="sans-serif" font-size="11" lengthAdjust="spacingAndGlyphs" textLength="105" x="1034" y="167.0151">-String description</text><text fill="#000000" font-family="sans-serif" font-size="11" lengthAdjust="spacingAndGlyphs" textLength="109" x="1034" y="179.8198">-Time timeDuration</text><text fill="#000000" font-family="sans-serif" font-size="11" lengthAdjust="spacingAndGlyphs" textLength="97" x="1034" y="192.6245">-double costHour</text><text fill="#000000" font-family="sans-serif" font-size="11" lengthAdjust="spacingAndGlyphs" textLength="117" x="1034" y="205.4292">-String taskCategory</text><!--MD5=[3fd616f346a44cd59a91eb10b19e157c]
class User--><rect fill="#FEFECE" filter="url(#f16p5tbairwqz7)" height="40" id="User" style="stroke: #A80036; stroke-width: 1.5;" width="61" x="780" y="355"/><ellipse cx="795" cy="371" fill="#ADD1B2" rx="11" ry="11" style="stroke: #A80036; stroke-width: 1.0;"/><path d="M797.9688,376.6406 Q797.3906,376.9375 796.75,377.0859 Q796.1094,377.2344 795.4063,377.2344 Q792.9063,377.2344 791.5859,375.5859 Q790.2656,373.9375 790.2656,370.8125 Q790.2656,367.6875 791.5859,366.0313 Q792.9063,364.375 795.4063,364.375 Q796.1094,364.375 796.7578,364.5313 Q797.4063,364.6875 797.9688,364.9844 L797.9688,367.7031 Q797.3438,367.125 796.75,366.8516 Q796.1563,366.5781 795.5313,366.5781 Q794.1875,366.5781 793.5,367.6484 Q792.8125,368.7188 792.8125,370.8125 Q792.8125,372.9063 793.5,373.9766 Q794.1875,375.0469 795.5313,375.0469 Q796.1563,375.0469 796.75,374.7734 Q797.3438,374.5 797.9688,373.9219 L797.9688,376.6406 Z "/><text fill="#000000" font-family="sans-serif" font-size="12" lengthAdjust="spacingAndGlyphs" textLength="29" x="809" y="375.1543">User</text><line style="stroke: #A80036; stroke-width: 1.5;" x1="781" x2="840" y1="387" y2="387"/><!--MD5=[4555bb1b0911a5adf28ce6dbe60fed2e]
class Transaction--><rect fill="#FEFECE" filter="url(#f16p5tbairwqz7)" height="78.4141" id="Transaction" style="stroke: #A80036; stroke-width: 1.5;" width="169" x="726" y="234"/><ellipse cx="769.35" cy="250" fill="#ADD1B2" rx="11" ry="11" style="stroke: #A80036; stroke-width: 1.0;"/><path d="M772.3188,255.6406 Q771.7406,255.9375 771.1,256.0859 Q770.4594,256.2344 769.7563,256.2344 Q767.2563,256.2344 765.9359,254.5859 Q764.6156,252.9375 764.6156,249.8125 Q764.6156,246.6875 765.9359,245.0313 Q767.2563,243.375 769.7563,243.375 Q770.4594,243.375 771.1078,243.5313 Q771.7563,243.6875 772.3188,243.9844 L772.3188,246.7031 Q771.6938,246.125 771.1,245.8516 Q770.5063,245.5781 769.8813,245.5781 Q768.5375,245.5781 767.85,246.6484 Q767.1625,247.7188 767.1625,249.8125 Q767.1625,251.9063 767.85,252.9766 Q768.5375,254.0469 769.8813,254.0469 Q770.5063,254.0469 771.1,253.7734 Q771.6938,253.5 772.3188,252.9219 L772.3188,255.6406 Z "/><text fill="#000000" font-family="sans-serif" font-size="12" lengthAdjust="spacingAndGlyphs" textLength="74" x="789.65" y="254.1543">Transaction</text><line style="stroke: #A80036; stroke-width: 1.5;" x1="727" x2="894" y1="266" y2="266"/><text fill="#000000" font-family="sans-serif" font-size="11" lengthAdjust="spacingAndGlyphs" textLength="81" x="732" y="280.2104">-Data endDate</text><text fill="#000000" font-family="sans-serif" font-size="11" lengthAdjust="spacingAndGlyphs" textLength="76" x="732" y="293.0151">-double delay</text><text fill="#000000" font-family="sans-serif" font-size="11" lengthAdjust="spacingAndGlyphs" textLength="157" x="732" y="305.8198">-String descriptionOfQuality</text><!--MD5=[764fca796ce7f635542948d8fc39db5e]
class Payment--><rect fill="#FEFECE" filter="url(#f16p5tbairwqz7)" height="40" id="Payment" style="stroke: #A80036; stroke-width: 1.5;" width="86" x="1049.5" y="253"/><ellipse cx="1064.5" cy="269" fill="#ADD1B2" rx="11" ry="11" style="stroke: #A80036; stroke-width: 1.0;"/><path d="M1067.4688,274.6406 Q1066.8906,274.9375 1066.25,275.0859 Q1065.6094,275.2344 1064.9063,275.2344 Q1062.4063,275.2344 1061.0859,273.5859 Q1059.7656,271.9375 1059.7656,268.8125 Q1059.7656,265.6875 1061.0859,264.0313 Q1062.4063,262.375 1064.9063,262.375 Q1065.6094,262.375 1066.2578,262.5313 Q1066.9063,262.6875 1067.4688,262.9844 L1067.4688,265.7031 Q1066.8438,265.125 1066.25,264.8516 Q1065.6563,264.5781 1065.0313,264.5781 Q1063.6875,264.5781 1063,265.6484 Q1062.3125,266.7188 1062.3125,268.8125 Q1062.3125,270.9063 1063,271.9766 Q1063.6875,273.0469 1065.0313,273.0469 Q1065.6563,273.0469 1066.25,272.7734 Q1066.8438,272.5 1067.4688,271.9219 L1067.4688,274.6406 Z "/><text fill="#000000" font-family="sans-serif" font-size="12" lengthAdjust="spacingAndGlyphs" textLength="54" x="1078.5" y="273.1543">Payment</text><line style="stroke: #A80036; stroke-width: 1.5;" x1="1050.5" x2="1134.5" y1="285" y2="285"/><!--MD5=[83bb469d45366b675450ee1d8d93a557]
link Freelancer to Transaction--><path d="M598.0077,190.1866 C608.0217,194.5715 618.2565,198.9639 628,203 C659.6649,216.1168 694.7512,229.7795 725.6304,241.5156 " fill="none" id="Freelancer-Transaction" style="stroke: #A80036; stroke-width: 1.0;"/><text fill="#000000" font-family="sans-serif" font-size="13" lengthAdjust="spacingAndGlyphs" textLength="53" x="629" y="199.0669">receives</text><polygon fill="#000000" points="685,193.0664,691,196.0664,685,199.0664,685,193.0664" style="stroke: #000000; stroke-width: 1.0;"/><text fill="#000000" font-family="sans-serif" font-size="13" lengthAdjust="spacingAndGlyphs" textLength="8" x="606.1602" y="206.6399">1</text><text fill="#000000" font-family="sans-serif" font-size="13" lengthAdjust="spacingAndGlyphs" textLength="8" x="709.9932" y="251.5093">1</text><!--MD5=[8853e9d83a8841c20c4ef075af762602]
link Task to Freelancer--><path d="M1027.761,160 C920.3994,160 706.607,160 598.0571,160 " fill="none" id="Task-Freelancer" style="stroke: #A80036; stroke-width: 1.0;"/><polygon fill="#000000" points="783,150.0664,777,153.0664,783,156.0664,783,150.0664" style="stroke: #000000; stroke-width: 1.0;"/><text fill="#000000" font-family="sans-serif" font-size="13" lengthAdjust="spacingAndGlyphs" textLength="56" x="789" y="156.0669">made by</text><text fill="#000000" font-family="sans-serif" font-size="13" lengthAdjust="spacingAndGlyphs" textLength="23" x="996.8989" y="172.846">1..*</text><text fill="#000000" font-family="sans-serif" font-size="13" lengthAdjust="spacingAndGlyphs" textLength="8" x="606.2153" y="172.963">1</text><!--MD5=[3781be57b219e856d6dd67e0b949b069]
link Platform to Transaction--><path d="M90.0814,221.9802 C211.2956,230.5645 562.9313,255.4673 725.8303,267.0037 " fill="none" id="Platform-Transaction" style="stroke: #A80036; stroke-width: 1.0;"/><text fill="#000000" font-family="sans-serif" font-size="13" lengthAdjust="spacingAndGlyphs" textLength="23" x="398" y="241.0669">has</text><polygon fill="#000000" points="424,235.0664,430,238.0664,424,241.0664,424,235.0664" style="stroke: #000000; stroke-width: 1.0;"/><text fill="#000000" font-family="sans-serif" font-size="13" lengthAdjust="spacingAndGlyphs" textLength="8" x="98.0016" y="235.8598">1</text><text fill="#000000" font-family="sans-serif" font-size="13" lengthAdjust="spacingAndGlyphs" textLength="23" x="694.8662" y="279.1835">1..*</text><!--MD5=[7640e466c042ba2d6f9c19c816f7f0fc]
link Platform to Organization--><path d="M56.8409,239.1361 C68.1149,262.4275 89.8287,300.2253 120,321 C160.66,348.9967 216.0652,361.0029 256.9089,366.1485 " fill="none" id="Platform-Organization" style="stroke: #A80036; stroke-width: 1.0;"/><text fill="#000000" font-family="sans-serif" font-size="13" lengthAdjust="spacingAndGlyphs" textLength="92" x="121" y="317.0669">has registered</text><polygon fill="#000000" points="216,311.0664,222,314.0664,216,317.0664,216,311.0664" style="stroke: #000000; stroke-width: 1.0;"/><text fill="#000000" font-family="sans-serif" font-size="13" lengthAdjust="spacingAndGlyphs" textLength="8" x="50.2024" y="258.9943">1</text><text fill="#000000" font-family="sans-serif" font-size="13" lengthAdjust="spacingAndGlyphs" textLength="23" x="225.7931" y="378.6429">1..*</text><!--MD5=[22697d4d863c2e08ab1d60ca0d61f844]
link Platform to Freelancer--><path d="M90.0616,213.8673 C174.1506,203.6062 363.5943,180.489 464.7988,168.1393 " fill="none" id="Platform-Freelancer" style="stroke: #A80036; stroke-width: 1.0;"/><text fill="#000000" font-family="sans-serif" font-size="13" lengthAdjust="spacingAndGlyphs" textLength="23" x="294" y="177.0669">has</text><polygon fill="#000000" points="320,171.0664,326,174.0664,320,177.0664,320,171.0664" style="stroke: #000000; stroke-width: 1.0;"/><text fill="#000000" font-family="sans-serif" font-size="13" lengthAdjust="spacingAndGlyphs" textLength="8" x="97.9784" y="208.7744">1</text><text fill="#000000" font-family="sans-serif" font-size="13" lengthAdjust="spacingAndGlyphs" textLength="23" x="434.1009" y="181.7703">1..*</text><!--MD5=[ed78a468ed200fe64308209ec6c86f1e]
link Platform to Task--><path d="M61.3755,198.9693 C96.2523,149.4026 195.4007,25 312,25 C312,25 312,25 810.5,25 C891.2404,25 973.3617,70.5793 1027.9993,108.7698 " fill="none" id="Platform-Task" style="stroke: #A80036; stroke-width: 1.0;"/><text fill="#000000" font-family="sans-serif" font-size="13" lengthAdjust="spacingAndGlyphs" textLength="92" x="479" y="21.0669">has registered</text><polygon fill="#000000" points="574,15.0664,580,18.0664,574,21.0664,574,15.0664" style="stroke: #000000; stroke-width: 1.0;"/><text fill="#000000" font-family="sans-serif" font-size="13" lengthAdjust="spacingAndGlyphs" textLength="8" x="56.1296" y="187.9686">1</text><text fill="#000000" font-family="sans-serif" font-size="13" lengthAdjust="spacingAndGlyphs" textLength="23" x="997.1617" y="116.3327">1..*</text><!--MD5=[45817597bcd7048073a670d966abfd17]
link Organization to Collaborator--><path d="M367.1058,370 C400.6318,370 443.2915,370 476.7522,370 " fill="none" id="Organization-Collaborator" style="stroke: #A80036; stroke-width: 1.0;"/><text fill="#000000" font-family="sans-serif" font-size="13" lengthAdjust="spacingAndGlyphs" textLength="23" x="398" y="366.0669">has</text><polygon fill="#000000" points="424,360.0664,430,363.0664,424,366.0664,424,360.0664" style="stroke: #000000; stroke-width: 1.0;"/><text fill="#000000" font-family="sans-serif" font-size="13" lengthAdjust="spacingAndGlyphs" textLength="8" x="375.0481" y="383.0558">1</text><text fill="#000000" font-family="sans-serif" font-size="13" lengthAdjust="spacingAndGlyphs" textLength="8" x="460.858" y="383.1099">1</text><!--MD5=[ee25a9e267be641cadbaef6c1594e19f]
link Transaction to Payment--><path d="M895.1093,273 C945.8892,273 1008.352,273 1049.236,273 " fill="none" id="Transaction-Payment" style="stroke: #A80036; stroke-width: 1.0;"/><text fill="#000000" font-family="sans-serif" font-size="13" lengthAdjust="spacingAndGlyphs" textLength="58" x="926" y="269.0669">results in</text><polygon fill="#000000" points="987,263.0664,993,266.0664,987,269.0664,987,263.0664" style="stroke: #000000; stroke-width: 1.0;"/><text fill="#000000" font-family="sans-serif" font-size="13" lengthAdjust="spacingAndGlyphs" textLength="8" x="903.0011" y="285.7223">1</text><text fill="#000000" font-family="sans-serif" font-size="13" lengthAdjust="spacingAndGlyphs" textLength="8" x="1033.4079" y="286.3201">1</text><!--MD5=[8e4873cec2cb3febaaa9495c716fc885]
link Transaction to Task--><path d="M895.4588,242.7063 C927.7585,230.8174 964.7674,216.7447 998,203 C1007.744,198.97 1017.9695,194.5363 1027.9475,190.094 " fill="none" id="Transaction-Task" style="stroke: #A80036; stroke-width: 1.0;"/><text fill="#000000" font-family="sans-serif" font-size="13" lengthAdjust="spacingAndGlyphs" textLength="23" x="943.5" y="199.0669">has</text><polygon fill="#000000" points="969.5,193.0664,975.5,196.0664,969.5,199.0664,969.5,193.0664" style="stroke: #000000; stroke-width: 1.0;"/><text fill="#000000" font-family="sans-serif" font-size="13" lengthAdjust="spacingAndGlyphs" textLength="8" x="903.1037" y="252.8023">1</text><text fill="#000000" font-family="sans-serif" font-size="13" lengthAdjust="spacingAndGlyphs" textLength="8" x="1012.0211" y="206.514">1</text><!--MD5=[8b5db564ea9bd1758097b07ca3fd81a4]
link Collaborator to Transaction--><path d="M586.0597,355.3385 C618.3141,346.2777 659.8013,333.9366 696,321 C705.7427,317.5182 715.8573,313.6545 725.8618,309.6747 " fill="none" id="Collaborator-Transaction" style="stroke: #A80036; stroke-width: 1.0;"/><text fill="#000000" font-family="sans-serif" font-size="13" lengthAdjust="spacingAndGlyphs" textLength="48" x="631.5" y="317.0669">creates</text><polygon fill="#000000" points="682.5,311.0664,688.5,314.0664,682.5,317.0664,682.5,311.0664" style="stroke: #000000; stroke-width: 1.0;"/><text fill="#000000" font-family="sans-serif" font-size="13" lengthAdjust="spacingAndGlyphs" textLength="8" x="593.9287" y="366.4782">1</text><text fill="#000000" font-family="sans-serif" font-size="13" lengthAdjust="spacingAndGlyphs" textLength="23" x="694.9004" y="325.3882">1..*</text><!--MD5=[04ce0ecdab38a3951889ff50c232570f]
link Collaborator to User--><path d="M586.0577,375.3149 C599.7382,376.4294 614.3948,377.437 628,378 C681.3491,380.2076 743.5339,378.2094 779.8104,376.5855 " fill="none" id="Collaborator-User" style="stroke: #A80036; stroke-width: 1.0;"/><text fill="#000000" font-family="sans-serif" font-size="13" lengthAdjust="spacingAndGlyphs" textLength="46" x="632.5" y="374.0669">acts as</text><polygon fill="#000000" points="681.5,368.0664,687.5,371.0664,681.5,374.0664,681.5,368.0664" style="stroke: #000000; stroke-width: 1.0;"/><text fill="#000000" font-family="sans-serif" font-size="13" lengthAdjust="spacingAndGlyphs" textLength="8" x="593.9264" y="389.139">1</text><text fill="#000000" font-family="sans-serif" font-size="13" lengthAdjust="spacingAndGlyphs" textLength="8" x="763.7884" y="390.7688">1</text><!--MD5=[916826cf8aa74221c2ca60518471ef04]
@startuml
skinparam classAttributeIconSize 0
hide methods
left to right direction

class Platform{
}
class Freelancer {
  -String idF
  -String name
  -String levelExpertise
  -String email
  -String nif
  -String ibanAccount
  -String coutry
}

class Organization {
  -String nome
  -String email
  -String nif
}

class Collaborator{
  -String nome
  -String email
}

class Task {
  -String idT
  -String description
  -Time timeDuration
  -double costHour
  -String taskCategory
}


class User {
}


class Transaction {
  -Data endDate
  -double delay
  -String descriptionOfQuality
}


class Payment{
}


Freelancer "1" - - "1" Transaction: receives >
Task "1..*" - - "1" Freelancer: made by >
Platform "1" - - "1..*" Transaction: has >
Platform "1" - - "1..*" Organization: has registered >
Platform "1" - - "1..*" Freelancer: has >
Platform "1" - - "1..*" Task: has registered >
Organization "1" - - "1" Collaborator: has >
Transaction "1" - - "1" Payment: results in >
Transaction "1" - - "1" Task: has >
Collaborator "1" - - "1..*" Transaction: creates >
Collaborator "1" - - "1" User: acts as >
@enduml

PlantUML version 1.2019.12(Sun Nov 03 10:24:54 UTC 2019)
(GPL source distribution)
Java Runtime: OpenJDK Runtime Environment
JVM: OpenJDK 64-Bit Server VM
Java Version: 1.8.0_232-heroku-b09
Operating System: Linux
Default Encoding: UTF-8
Language: en
Country: US
--></g></svg>