<?xml version="1.0" encoding="UTF-8" standalone="no"?><svg xmlns="http://www.w3.org/2000/svg" xmlns:xlink="http://www.w3.org/1999/xlink" contentScriptType="application/ecmascript" contentStyleType="text/css" height="168px" preserveAspectRatio="none" style="width:568px;height:168px;" version="1.1" viewBox="0 0 568 168" width="568.2px" zoomAndPan="magnify"><defs><filter height="300%" id="fidg6lvni2fku" width="300%" x="-1" y="-1"><feGaussianBlur result="blurOut" stdDeviation="1.2"/><feColorMatrix in="blurOut" result="blurOut2" type="matrix" values="0 0 0 0 0 0 0 0 0 0 0 0 0 0 0 0 0 0 .4 0"/><feOffset dx="2.4" dy="2.4" in="blurOut2" result="blurOut3"/><feBlend in="SourceGraphic" in2="blurOut3" mode="normal"/></filter></defs><g><!--MD5=[99b8db98afdc2c8404e39242ef4c1e65]
class Platform--><rect fill="#FEFECE" filter="url(#fidg6lvni2fku)" height="24" id="Platform" style="stroke: #A80036; stroke-width: 0.8999999999999999;" width="46.8" x="3.6" y="72.8016"/><ellipse cx="12.6" cy="82.4016" fill="#ADD1B2" rx="6.6" ry="6.6" style="stroke: #A80036; stroke-width: 0.6;"/><path d="M13.8,80.3016 Q13.9219,80.0016 14.0625,79.8516 Q14.2031,79.7016 14.3625,79.7016 Q14.6437,79.7016 14.8219,79.8704 Q15,80.0391 15,80.4329 L15,81.3704 Q15,81.7641 14.8312,81.9329 Q14.6625,82.1016 14.4,82.1016 Q14.1656,82.1016 14.0156,81.9985 Q13.8656,81.8954 13.8,81.6235 Q13.7719,81.436 13.6688,81.3329 Q13.4813,81.136 13.1437,81.0235 Q12.8063,80.9016 12.4688,80.9016 Q12.0469,80.9016 11.6906,81.0704 Q11.3438,81.2391 11.0719,81.6141 Q10.8,81.9891 10.8,82.5047 L10.8,83.0579 Q10.8,83.6766 11.3063,84.0891 Q11.8125,84.5016 12.7125,84.5016 Q13.2469,84.5016 13.6219,84.3797 Q13.8375,84.3141 14.0812,84.0985 Q14.2406,83.9766 14.325,83.9391 Q14.4094,83.9016 14.5125,83.9016 Q14.7094,83.9016 14.85,84.061 Q15,84.211 15,84.4266 Q15,84.6329 14.7938,84.8766 Q14.4937,85.2329 14.0156,85.4297 Q13.3875,85.7016 12.6188,85.7016 Q11.7188,85.7016 10.9969,85.3454 Q10.4156,85.0641 10.0031,84.4547 Q9.6,83.8454 9.6,83.1235 L9.6,82.4672 Q9.6,81.7172 9.9562,81.061 Q10.3219,80.4047 10.95,80.0579 Q11.5875,79.7016 12.3,79.7016 Q12.7313,79.7016 13.1063,79.8516 Q13.4813,80.0016 13.8,80.3016 Z "/><text fill="#000000" font-family="sans-serif" font-size="7.2" lengthAdjust="spacingAndGlyphs" textLength="27.6" x="21" y="85.3477">Platform</text><line style="stroke: #A80036; stroke-width: 0.8999999999999999;" x1="4.2" x2="49.8" y1="92.0016" y2="92.0016"/><!--MD5=[86c7c362de55a38b660185a1328fe18d]
class Organization--><rect fill="#FEFECE" filter="url(#fidg6lvni2fku)" height="48.9047" id="Organization" style="stroke: #A80036; stroke-width: 0.8999999999999999;" width="60.6" x="246" y="78.8016"/><ellipse cx="255" cy="88.4016" fill="#ADD1B2" rx="6.6" ry="6.6" style="stroke: #A80036; stroke-width: 0.6;"/><path d="M256.2,86.3016 Q256.3219,86.0016 256.4625,85.8516 Q256.6031,85.7016 256.7625,85.7016 Q257.0438,85.7016 257.2219,85.8704 Q257.4,86.0391 257.4,86.4329 L257.4,87.3704 Q257.4,87.7641 257.2313,87.9329 Q257.0625,88.1016 256.8,88.1016 Q256.5656,88.1016 256.4156,87.9985 Q256.2656,87.8954 256.2,87.6235 Q256.1719,87.436 256.0687,87.3329 Q255.8813,87.136 255.5438,87.0235 Q255.2062,86.9016 254.8687,86.9016 Q254.4469,86.9016 254.0906,87.0704 Q253.7437,87.2391 253.4719,87.6141 Q253.2,87.9891 253.2,88.5047 L253.2,89.0579 Q253.2,89.6766 253.7062,90.0891 Q254.2125,90.5016 255.1125,90.5016 Q255.6469,90.5016 256.0219,90.3797 Q256.2375,90.3141 256.4813,90.0985 Q256.6406,89.9766 256.725,89.9391 Q256.8094,89.9016 256.9125,89.9016 Q257.1094,89.9016 257.25,90.061 Q257.4,90.211 257.4,90.4266 Q257.4,90.6329 257.1937,90.8766 Q256.8938,91.2329 256.4156,91.4297 Q255.7875,91.7016 255.0187,91.7016 Q254.1187,91.7016 253.3969,91.3454 Q252.8156,91.0641 252.4031,90.4547 Q252,89.8454 252,89.1235 L252,88.4672 Q252,87.7172 252.3563,87.061 Q252.7219,86.4047 253.35,86.0579 Q253.9875,85.7016 254.7,85.7016 Q255.1313,85.7016 255.5063,85.8516 Q255.8813,86.0016 256.2,86.3016 Z "/><text fill="#000000" font-family="sans-serif" font-size="7.2" lengthAdjust="spacingAndGlyphs" textLength="41.4" x="263.4" y="91.3477">Organization</text><line style="stroke: #A80036; stroke-width: 0.8999999999999999;" x1="246.6" x2="306" y1="98.0016" y2="98.0016"/><text fill="#000000" font-family="sans-serif" font-size="6.6" lengthAdjust="spacingAndGlyphs" textLength="36.6" x="249.6" y="107.253">-String name</text><text fill="#000000" font-family="sans-serif" font-size="6.6" lengthAdjust="spacingAndGlyphs" textLength="35.4" x="249.6" y="115.5545">-String email</text><text fill="#000000" font-family="sans-serif" font-size="6.6" lengthAdjust="spacingAndGlyphs" textLength="28.2" x="249.6" y="123.8561">-String nif</text><!--MD5=[f483d6e5de34a60207b28a5563be5e8b]
class Collaborator--><rect fill="#FEFECE" filter="url(#fidg6lvni2fku)" height="40.6031" id="Collaborator" style="stroke: #A80036; stroke-width: 0.8999999999999999;" width="60" x="364.2" y="83.0016"/><ellipse cx="373.2" cy="92.6016" fill="#ADD1B2" rx="6.6" ry="6.6" style="stroke: #A80036; stroke-width: 0.6;"/><path d="M374.4,90.5016 Q374.5219,90.2016 374.6625,90.0516 Q374.8031,89.9016 374.9625,89.9016 Q375.2438,89.9016 375.4219,90.0704 Q375.6,90.2391 375.6,90.6329 L375.6,91.5704 Q375.6,91.9641 375.4313,92.1329 Q375.2625,92.3016 375,92.3016 Q374.7656,92.3016 374.6156,92.1985 Q374.4656,92.0954 374.4,91.8235 Q374.3719,91.636 374.2688,91.5329 Q374.0813,91.336 373.7438,91.2235 Q373.4063,91.1016 373.0687,91.1016 Q372.6469,91.1016 372.2906,91.2704 Q371.9437,91.4391 371.6719,91.8141 Q371.4,92.1891 371.4,92.7047 L371.4,93.2579 Q371.4,93.8766 371.9063,94.2891 Q372.4125,94.7016 373.3125,94.7016 Q373.8469,94.7016 374.2219,94.5797 Q374.4375,94.5141 374.6813,94.2985 Q374.8406,94.1766 374.925,94.1391 Q375.0094,94.1016 375.1125,94.1016 Q375.3094,94.1016 375.45,94.261 Q375.6,94.411 375.6,94.6266 Q375.6,94.8329 375.3938,95.0766 Q375.0938,95.4329 374.6156,95.6297 Q373.9875,95.9016 373.2188,95.9016 Q372.3187,95.9016 371.5969,95.5454 Q371.0156,95.2641 370.6031,94.6547 Q370.2,94.0454 370.2,93.3235 L370.2,92.6672 Q370.2,91.9172 370.5563,91.261 Q370.9219,90.6047 371.55,90.2579 Q372.1875,89.9016 372.9,89.9016 Q373.3313,89.9016 373.7063,90.0516 Q374.0813,90.2016 374.4,90.5016 Z "/><text fill="#000000" font-family="sans-serif" font-size="7.2" lengthAdjust="spacingAndGlyphs" textLength="40.8" x="381.6" y="95.5477">Collaborator</text><line style="stroke: #A80036; stroke-width: 0.8999999999999999;" x1="364.8" x2="423.6" y1="102.2016" y2="102.2016"/><text fill="#000000" font-family="sans-serif" font-size="6.6" lengthAdjust="spacingAndGlyphs" textLength="36.6" x="367.8" y="111.453">-String name</text><text fill="#000000" font-family="sans-serif" font-size="6.6" lengthAdjust="spacingAndGlyphs" textLength="35.4" x="367.8" y="119.7545">-String email</text><!--MD5=[b34797a66dc35cbf1d65f7e3ca75530e]
class Task--><rect fill="#FEFECE" filter="url(#fidg6lvni2fku)" height="65.5078" id="Task" style="stroke: #A80036; stroke-width: 0.8999999999999999;" width="66.6" x="495" y="4.7016"/><ellipse cx="518.04" cy="14.3016" fill="#ADD1B2" rx="6.6" ry="6.6" style="stroke: #A80036; stroke-width: 0.6;"/><path d="M519.24,12.2016 Q519.3619,11.9016 519.5025,11.7516 Q519.6431,11.6016 519.8025,11.6016 Q520.0838,11.6016 520.2619,11.7704 Q520.44,11.9391 520.44,12.3329 L520.44,13.2704 Q520.44,13.6641 520.2713,13.8329 Q520.1025,14.0016 519.84,14.0016 Q519.6056,14.0016 519.4556,13.8985 Q519.3056,13.7954 519.24,13.5235 Q519.2119,13.336 519.1088,13.2329 Q518.9213,13.036 518.5838,12.9235 Q518.2462,12.8016 517.9087,12.8016 Q517.4869,12.8016 517.1306,12.9704 Q516.7837,13.1391 516.5119,13.5141 Q516.24,13.8891 516.24,14.4047 L516.24,14.9579 Q516.24,15.5766 516.7462,15.9891 Q517.2525,16.4016 518.1525,16.4016 Q518.6869,16.4016 519.0619,16.2797 Q519.2775,16.2141 519.5213,15.9985 Q519.6806,15.8766 519.765,15.8391 Q519.8494,15.8016 519.9525,15.8016 Q520.1494,15.8016 520.29,15.961 Q520.44,16.111 520.44,16.3266 Q520.44,16.5329 520.2338,16.7766 Q519.9337,17.1329 519.4556,17.3297 Q518.8275,17.6016 518.0587,17.6016 Q517.1587,17.6016 516.4369,17.2454 Q515.8556,16.9641 515.4431,16.3547 Q515.04,15.7454 515.04,15.0235 L515.04,14.3672 Q515.04,13.6172 515.3963,12.961 Q515.7619,12.3047 516.39,11.9579 Q517.0275,11.6016 517.74,11.6016 Q518.1713,11.6016 518.5463,11.7516 Q518.9213,11.9016 519.24,12.2016 Z "/><text fill="#000000" font-family="sans-serif" font-size="7.2" lengthAdjust="spacingAndGlyphs" textLength="16.2" x="529.56" y="17.2477">Task</text><line style="stroke: #A80036; stroke-width: 0.8999999999999999;" x1="495.6" x2="561" y1="23.9016" y2="23.9016"/><text fill="#000000" font-family="sans-serif" font-size="6.6" lengthAdjust="spacingAndGlyphs" textLength="29.4" x="498.6" y="33.153">-String idT</text><text fill="#000000" font-family="sans-serif" font-size="6.6" lengthAdjust="spacingAndGlyphs" textLength="52.8" x="498.6" y="41.4545">-String description</text><text fill="#000000" font-family="sans-serif" font-size="6.6" lengthAdjust="spacingAndGlyphs" textLength="52.8" x="498.6" y="49.7561">-Time timeDuration</text><text fill="#000000" font-family="sans-serif" font-size="6.6" lengthAdjust="spacingAndGlyphs" textLength="49.8" x="498.6" y="58.0577">-double costHour</text><text fill="#000000" font-family="sans-serif" font-size="6.6" lengthAdjust="spacingAndGlyphs" textLength="59.4" x="498.6" y="66.3592">-String taskCategory</text><!--MD5=[3fd616f346a44cd59a91eb10b19e157c]
class User--><rect fill="#FEFECE" filter="url(#fidg6lvni2fku)" height="24" id="User" style="stroke: #A80036; stroke-width: 0.8999999999999999;" width="35.4" x="510.6" y="91.4016"/><ellipse cx="519.6" cy="101.0016" fill="#ADD1B2" rx="6.6" ry="6.6" style="stroke: #A80036; stroke-width: 0.6;"/><path d="M520.8,98.9016 Q520.9219,98.6016 521.0625,98.4516 Q521.2031,98.3016 521.3625,98.3016 Q521.6438,98.3016 521.8219,98.4704 Q522,98.6391 522,99.0329 L522,99.9704 Q522,100.3641 521.8313,100.5329 Q521.6625,100.7016 521.4,100.7016 Q521.1656,100.7016 521.0156,100.5985 Q520.8656,100.4954 520.8,100.2235 Q520.7719,100.036 520.6687,99.9329 Q520.4812,99.736 520.1438,99.6235 Q519.8063,99.5016 519.4688,99.5016 Q519.0469,99.5016 518.6906,99.6704 Q518.3438,99.8391 518.0719,100.2141 Q517.8,100.5891 517.8,101.1047 L517.8,101.6579 Q517.8,102.2766 518.3063,102.6891 Q518.8125,103.1016 519.7125,103.1016 Q520.2469,103.1016 520.6219,102.9797 Q520.8375,102.9141 521.0813,102.6985 Q521.2406,102.5766 521.325,102.5391 Q521.4094,102.5016 521.5125,102.5016 Q521.7094,102.5016 521.85,102.661 Q522,102.811 522,103.0266 Q522,103.2329 521.7937,103.4766 Q521.4938,103.8329 521.0156,104.0297 Q520.3875,104.3016 519.6188,104.3016 Q518.7188,104.3016 517.9969,103.9454 Q517.4156,103.6641 517.0031,103.0547 Q516.6,102.4454 516.6,101.7235 L516.6,101.0672 Q516.6,100.3172 516.9563,99.661 Q517.3219,99.0047 517.95,98.6579 Q518.5875,98.3016 519.3,98.3016 Q519.7312,98.3016 520.1062,98.4516 Q520.4812,98.6016 520.8,98.9016 Z "/><text fill="#000000" font-family="sans-serif" font-size="7.2" lengthAdjust="spacingAndGlyphs" textLength="16.2" x="528" y="103.9477">User</text><line style="stroke: #A80036; stroke-width: 0.8999999999999999;" x1="511.2" x2="545.4" y1="110.6016" y2="110.6016"/><!--MD5=[da547346deef918ea16944ba046651ef]
class Administrator--><rect fill="#FEFECE" filter="url(#fidg6lvni2fku)" height="24" id="Administrator" style="stroke: #A80036; stroke-width: 0.8999999999999999;" width="63" x="108" y="126.8018"/><ellipse cx="117" cy="136.4018" fill="#ADD1B2" rx="6.6" ry="6.6" style="stroke: #A80036; stroke-width: 0.6;"/><path d="M118.2,134.3018 Q118.3219,134.0018 118.4625,133.8518 Q118.6031,133.7018 118.7625,133.7018 Q119.0437,133.7018 119.2219,133.8706 Q119.4,134.0393 119.4,134.4331 L119.4,135.3706 Q119.4,135.7643 119.2312,135.9331 Q119.0625,136.1018 118.8,136.1018 Q118.5656,136.1018 118.4156,135.9987 Q118.2656,135.8956 118.2,135.6237 Q118.1719,135.4362 118.0688,135.3331 Q117.8813,135.1362 117.5437,135.0237 Q117.2063,134.9018 116.8687,134.9018 Q116.4469,134.9018 116.0906,135.0706 Q115.7437,135.2393 115.4719,135.6143 Q115.2,135.9893 115.2,136.505 L115.2,137.0581 Q115.2,137.6768 115.7063,138.0893 Q116.2125,138.5018 117.1125,138.5018 Q117.6469,138.5018 118.0219,138.38 Q118.2375,138.3143 118.4812,138.0987 Q118.6406,137.9768 118.725,137.9393 Q118.8094,137.9018 118.9125,137.9018 Q119.1094,137.9018 119.25,138.0612 Q119.4,138.2112 119.4,138.4268 Q119.4,138.6331 119.1938,138.8768 Q118.8938,139.2331 118.4156,139.43 Q117.7875,139.7018 117.0188,139.7018 Q116.1187,139.7018 115.3969,139.3456 Q114.8156,139.0643 114.4031,138.455 Q114,137.8456 114,137.1237 L114,136.4675 Q114,135.7175 114.3563,135.0612 Q114.7219,134.405 115.35,134.0581 Q115.9875,133.7018 116.7,133.7018 Q117.1313,133.7018 117.5063,133.8518 Q117.8813,134.0018 118.2,134.3018 Z "/><text fill="#000000" font-family="sans-serif" font-size="7.2" lengthAdjust="spacingAndGlyphs" textLength="43.8" x="125.4" y="139.3479">Administrator</text><line style="stroke: #A80036; stroke-width: 0.8999999999999999;" x1="108.6" x2="170.4" y1="146.0018" y2="146.0018"/><!--MD5=[7640e466c042ba2d6f9c19c816f7f0fc]
link Platform to Organization--><path d="M50.4413,86.5068 C87.6432,89.2848 163.6368,94.9644 228,99.8018 C233.7972,100.2376 239.9904,100.7042 245.9298,101.1521 " fill="none" id="Platform-Organization" style="stroke: #A80036; stroke-width: 0.6;"/><text fill="#000000" font-family="sans-serif" font-size="7.8" lengthAdjust="spacingAndGlyphs" textLength="49.2" x="111" y="88.6987">has registered</text><polygon fill="#000000" points="162,84.6071,165.6,86.4071,162,88.2071,162,84.6071" style="stroke: #000000; stroke-width: 0.6;"/><text fill="#000000" font-family="sans-serif" font-size="7.8" lengthAdjust="spacingAndGlyphs" textLength="4.2" x="55.1505" y="95.8227">1</text><text fill="#000000" font-family="sans-serif" font-size="7.8" lengthAdjust="spacingAndGlyphs" textLength="12" x="229.2699" y="109.6084">1..*</text><!--MD5=[45817597bcd7048073a670d966abfd17]
link Organization to Collaborator--><path d="M306.6504,103.4018 C324.2754,103.4018 346.5264,103.4018 364.1064,103.4018 " fill="none" id="Organization-Collaborator" style="stroke: #A80036; stroke-width: 0.6;"/><text fill="#000000" font-family="sans-serif" font-size="7.8" lengthAdjust="spacingAndGlyphs" textLength="12.6" x="325.2" y="101.2987">has</text><polygon fill="#000000" points="339.6,97.2071,343.2,99.0071,339.6,100.8071,339.6,97.2071" style="stroke: #000000; stroke-width: 0.6;"/><text fill="#000000" font-family="sans-serif" font-size="7.8" lengthAdjust="spacingAndGlyphs" textLength="4.2" x="311.4166" y="112.2411">1</text><text fill="#000000" font-family="sans-serif" font-size="7.8" lengthAdjust="spacingAndGlyphs" textLength="4.2" x="355.178" y="112.2339">1</text><!--MD5=[04ce0ecdab38a3951889ff50c232570f]
link Collaborator to User--><path d="M424.2948,103.4018 C450.7542,103.4018 488.6748,103.4018 510.483,103.4018 " fill="none" id="Collaborator-User" style="stroke: #A80036; stroke-width: 0.6;"/><text fill="#000000" font-family="sans-serif" font-size="7.8" lengthAdjust="spacingAndGlyphs" textLength="25.8" x="442.8" y="101.2987">acts as</text><polygon fill="#000000" points="470.4,97.2071,474,99.0071,470.4,100.8071,470.4,97.2071" style="stroke: #000000; stroke-width: 0.6;"/><text fill="#000000" font-family="sans-serif" font-size="7.8" lengthAdjust="spacingAndGlyphs" textLength="4.2" x="429.0234" y="112.2339">1</text><text fill="#000000" font-family="sans-serif" font-size="7.8" lengthAdjust="spacingAndGlyphs" textLength="4.2" x="501.6772" y="112.6334">1</text><!--MD5=[2a41c1af413c0662bf55a6b8913ea24f]
link Administrator to Organization--><path d="M171.0396,130.7248 C193.473,124.8682 223.6422,116.9921 245.8254,111.2009 " fill="none" id="Administrator-Organization" style="stroke: #A80036; stroke-width: 0.6;"/><text fill="#000000" font-family="sans-serif" font-size="7.8" lengthAdjust="spacingAndGlyphs" textLength="30" x="189.6" y="113.2989">registers</text><polygon fill="#000000" points="221.4,109.2073,225,111.0073,221.4,112.8073,221.4,109.2073" style="stroke: #000000; stroke-width: 0.6;"/><text fill="#000000" font-family="sans-serif" font-size="7.8" lengthAdjust="spacingAndGlyphs" textLength="4.2" x="175.7702" y="138.3758">1</text><text fill="#000000" font-family="sans-serif" font-size="7.8" lengthAdjust="spacingAndGlyphs" textLength="4.2" x="237.0446" y="121.1053">1</text><!--MD5=[757406b2e460220911d4cccaa97c87d9]
link Administrator to Collaborator--><path d="M171.1398,146.4 C204.9666,153.3978 260.4318,161.0999 306.6,149.6018 C327.0114,144.5183 347.8932,133.6545 364.0806,123.7384 " fill="none" id="Administrator-Collaborator" style="stroke: #A80036; stroke-width: 0.6;"/><text fill="#000000" font-family="sans-serif" font-size="7.8" lengthAdjust="spacingAndGlyphs" textLength="30" x="257.4" y="147.4989">registers</text><polygon fill="#000000" points="289.2,143.4073,292.8,145.2073,289.2,147.0073,289.2,143.4073" style="stroke: #000000; stroke-width: 0.6;"/><text fill="#000000" font-family="sans-serif" font-size="7.8" lengthAdjust="spacingAndGlyphs" textLength="4.2" x="175.8845" y="156.2554">1</text><text fill="#000000" font-family="sans-serif" font-size="7.8" lengthAdjust="spacingAndGlyphs" textLength="4.2" x="355.1484" y="135.5573">1</text><!--MD5=[ed78a468ed200fe64308209ec6c86f1e]
link Platform to Task--><path d="M43.9949,72.6894 C64.905,58.47 102.7056,36.8016 138.9,36.8016 C138.9,36.8016 138.9,36.8016 394.8,36.8016 C428.9484,36.8016 468.0318,37.0026 494.9304,37.1718 " fill="none" id="Platform-Task" style="stroke: #A80036; stroke-width: 0.6;"/><text fill="#000000" font-family="sans-serif" font-size="7.8" lengthAdjust="spacingAndGlyphs" textLength="49.2" x="247.8" y="34.6987">has registered</text><polygon fill="#000000" points="298.8,30.6071,302.4,32.4071,298.8,34.2071,298.8,30.6071" style="stroke: #000000; stroke-width: 0.6;"/><text fill="#000000" font-family="sans-serif" font-size="7.8" lengthAdjust="spacingAndGlyphs" textLength="4.2" x="44.1703" y="66.2495">1</text><text fill="#000000" font-family="sans-serif" font-size="7.8" lengthAdjust="spacingAndGlyphs" textLength="12" x="478.1322" y="45.8321">1..*</text><!--MD5=[0f7004bed4496639b3a5258ab2ead378]
link Platform to Administrator--><path d="M44.6122,96.9024 C51.7632,101.6969 60.2917,107.045 68.4,111.2018 C80.9736,117.648 95.4192,123.5472 107.9472,128.2222 " fill="none" id="Platform-Administrator" style="stroke: #A80036; stroke-width: 0.6;"/><text fill="#000000" font-family="sans-serif" font-size="7.8" lengthAdjust="spacingAndGlyphs" textLength="12.6" x="69" y="109.0989">has</text><polygon fill="#000000" points="83.4,105.0073,87,106.8073,83.4,108.6073,83.4,105.0073" style="stroke: #000000; stroke-width: 0.6;"/><text fill="#000000" font-family="sans-serif" font-size="7.8" lengthAdjust="spacingAndGlyphs" textLength="4.2" x="44.775" y="109.7825">1</text><text fill="#000000" font-family="sans-serif" font-size="7.8" lengthAdjust="spacingAndGlyphs" textLength="4.2" x="99.0148" y="135.5213">1</text><!--MD5=[f919d21ae7a75ef5ececc535e09d5009]
link Collaborator to Task--><path d="M424.341,89.0952 C440.0166,81.468 459.5868,71.8896 477,63.2016 C482.7444,60.336 488.8398,57.2622 494.7384,54.2706 " fill="none" id="Collaborator-Task" style="stroke: #A80036; stroke-width: 0.6;"/><text fill="#000000" font-family="sans-serif" font-size="7.8" lengthAdjust="spacingAndGlyphs" textLength="25.8" x="442.8" y="61.0987">creates</text><polygon fill="#000000" points="470.4,57.0071,474,58.8071,470.4,60.6071,470.4,57.0071" style="stroke: #000000; stroke-width: 0.6;"/><text fill="#000000" font-family="sans-serif" font-size="7.8" lengthAdjust="spacingAndGlyphs" textLength="4.2" x="429.0764" y="95.826">1</text><text fill="#000000" font-family="sans-serif" font-size="7.8" lengthAdjust="spacingAndGlyphs" textLength="12" x="478.1641" y="64.8791">1..*</text><!--MD5=[2ac709bde031c83d480c4761cf418a24]
@startuml
skinparam classAttributeIconSize 0
hide methods
left to right direction

class Platform{
}


class Organization {
  -String name
  -String email
  -String nif
}

class Collaborator{
  -String name
  -String email
}

class Task {
  -String idT
  -String description
  -Time timeDuration
  -double costHour
  -String taskCategory
}


class User {
}



Platform "1" - - "1..*" Organization: has registered >




Organization "1" - - "1" Collaborator: has >
Collaborator "1" - - "1" User: acts as >

Administrator "1" - - "1" Organization: registers >

Administrator "1" - - "1" Collaborator: registers >

Platform "1" - - "1..*" Task: has registered >




Platform "1" - - "1" Administrator: has >
Collaborator "1" - - "1..*" Task: creates >




@enduml

PlantUML version 1.2020.09(Sun May 10 11:51:06 BST 2020)
(GPL source distribution)
Java Runtime: OpenJDK Runtime Environment
JVM: OpenJDK 64-Bit Server VM
Java Version: 11.0.6+8-b765.40
Operating System: Windows 10
Default Encoding: Cp1252
Language: pt
Country: PT
--></g></svg>