<?xml version="1.0" encoding="UTF-8" standalone="no"?><svg xmlns="http://www.w3.org/2000/svg" xmlns:xlink="http://www.w3.org/1999/xlink" contentScriptType="application/ecmascript" contentStyleType="text/css" height="280px" preserveAspectRatio="none" style="width:947px;height:280px;" version="1.1" viewBox="0 0 947 280" width="947px" zoomAndPan="magnify"><defs><filter height="300%" id="f1ld2d2ufw7ya" width="300%" x="-1" y="-1"><feGaussianBlur result="blurOut" stdDeviation="2.0"/><feColorMatrix in="blurOut" result="blurOut2" type="matrix" values="0 0 0 0 0 0 0 0 0 0 0 0 0 0 0 0 0 0 .4 0"/><feOffset dx="4.0" dy="4.0" in="blurOut2" result="blurOut3"/><feBlend in="SourceGraphic" in2="blurOut3" mode="normal"/></filter></defs><g><!--MD5=[99b8db98afdc2c8404e39242ef4c1e65]
class Platform--><rect fill="#FEFECE" filter="url(#f1ld2d2ufw7ya)" height="40" id="Platform" style="stroke: #A80036; stroke-width: 1.5;" width="78" x="6" y="121.336"/><ellipse cx="21" cy="137.336" fill="#ADD1B2" rx="11" ry="11" style="stroke: #A80036; stroke-width: 1.0;"/><path d="M23,133.836 Q23.2031,133.336 23.4375,133.086 Q23.6719,132.836 23.9375,132.836 Q24.4063,132.836 24.7031,133.1173 Q25,133.3985 25,134.0548 L25,135.6173 Q25,136.2735 24.7188,136.5548 Q24.4375,136.836 24,136.836 Q23.6094,136.836 23.3594,136.6641 Q23.1094,136.4923 23,136.0391 Q22.9531,135.7266 22.7813,135.5548 Q22.4688,135.2266 21.9063,135.0391 Q21.3438,134.836 20.7813,134.836 Q20.0781,134.836 19.4844,135.1173 Q18.9063,135.3985 18.4531,136.0235 Q18,136.6485 18,137.5079 L18,138.4298 Q18,139.461 18.8438,140.1485 Q19.6875,140.836 21.1875,140.836 Q22.0781,140.836 22.7031,140.6329 Q23.0625,140.5235 23.4688,140.1641 Q23.7344,139.961 23.875,139.8985 Q24.0156,139.836 24.1875,139.836 Q24.5156,139.836 24.75,140.1016 Q25,140.3516 25,140.711 Q25,141.0548 24.6563,141.461 Q24.1563,142.0548 23.3594,142.3829 Q22.3125,142.836 21.0313,142.836 Q19.5313,142.836 18.3281,142.2423 Q17.3594,141.7735 16.6719,140.7579 Q16,139.7423 16,138.5391 L16,137.4454 Q16,136.1954 16.5938,135.1016 Q17.2031,134.0079 18.25,133.4298 Q19.3125,132.836 20.5,132.836 Q21.2188,132.836 21.8438,133.086 Q22.4688,133.336 23,133.836 Z "/><text fill="#000000" font-family="sans-serif" font-size="12" lengthAdjust="spacingAndGlyphs" textLength="46" x="35" y="142.2462">Platform</text><line style="stroke: #A80036; stroke-width: 1.5;" x1="7" x2="83" y1="153.336" y2="153.336"/><!--MD5=[86c7c362de55a38b660185a1328fe18d]
class Organization--><rect fill="#FEFECE" filter="url(#f1ld2d2ufw7ya)" height="81.5078" id="Organization" style="stroke: #A80036; stroke-width: 1.5;" width="101" x="410" y="131.336"/><ellipse cx="425" cy="147.336" fill="#ADD1B2" rx="11" ry="11" style="stroke: #A80036; stroke-width: 1.0;"/><path d="M427,143.836 Q427.2031,143.336 427.4375,143.086 Q427.6719,142.836 427.9375,142.836 Q428.4063,142.836 428.7031,143.1173 Q429,143.3985 429,144.0548 L429,145.6173 Q429,146.2735 428.7188,146.5548 Q428.4375,146.836 428,146.836 Q427.6094,146.836 427.3594,146.6641 Q427.1094,146.4923 427,146.0391 Q426.9531,145.7266 426.7813,145.5548 Q426.4688,145.2266 425.9063,145.0391 Q425.3438,144.836 424.7813,144.836 Q424.0781,144.836 423.4844,145.1173 Q422.9063,145.3985 422.4531,146.0235 Q422,146.6485 422,147.5079 L422,148.4298 Q422,149.461 422.8438,150.1485 Q423.6875,150.836 425.1875,150.836 Q426.0781,150.836 426.7031,150.6329 Q427.0625,150.5235 427.4688,150.1641 Q427.7344,149.961 427.875,149.8985 Q428.0156,149.836 428.1875,149.836 Q428.5156,149.836 428.75,150.1016 Q429,150.3516 429,150.711 Q429,151.0548 428.6563,151.461 Q428.1563,152.0548 427.3594,152.3829 Q426.3125,152.836 425.0313,152.836 Q423.5313,152.836 422.3281,152.2423 Q421.3594,151.7735 420.6719,150.7579 Q420,149.7423 420,148.5391 L420,147.4454 Q420,146.1954 420.5938,145.1016 Q421.2031,144.0079 422.25,143.4298 Q423.3125,142.836 424.5,142.836 Q425.2188,142.836 425.8438,143.086 Q426.4688,143.336 427,143.836 Z "/><text fill="#000000" font-family="sans-serif" font-size="12" lengthAdjust="spacingAndGlyphs" textLength="69" x="439" y="152.2462">Organization</text><line style="stroke: #A80036; stroke-width: 1.5;" x1="411" x2="510" y1="163.336" y2="163.336"/><text fill="#000000" font-family="sans-serif" font-size="11" lengthAdjust="spacingAndGlyphs" textLength="61" x="416" y="178.7549">-String nome</text><text fill="#000000" font-family="sans-serif" font-size="11" lengthAdjust="spacingAndGlyphs" textLength="59" x="416" y="192.5909">-String email</text><text fill="#000000" font-family="sans-serif" font-size="11" lengthAdjust="spacingAndGlyphs" textLength="47" x="416" y="206.4268">-String nif</text><!--MD5=[f483d6e5de34a60207b28a5563be5e8b]
class Collaborator--><rect fill="#FEFECE" filter="url(#f1ld2d2ufw7ya)" height="67.6719" id="Collaborator" style="stroke: #A80036; stroke-width: 1.5;" width="100" x="607" y="138.336"/><ellipse cx="622" cy="154.336" fill="#ADD1B2" rx="11" ry="11" style="stroke: #A80036; stroke-width: 1.0;"/><path d="M624,150.836 Q624.2031,150.336 624.4375,150.086 Q624.6719,149.836 624.9375,149.836 Q625.4063,149.836 625.7031,150.1173 Q626,150.3985 626,151.0548 L626,152.6173 Q626,153.2735 625.7188,153.5548 Q625.4375,153.836 625,153.836 Q624.6094,153.836 624.3594,153.6641 Q624.1094,153.4923 624,153.0391 Q623.9531,152.7266 623.7813,152.5548 Q623.4688,152.2266 622.9063,152.0391 Q622.3438,151.836 621.7813,151.836 Q621.0781,151.836 620.4844,152.1173 Q619.9063,152.3985 619.4531,153.0235 Q619,153.6485 619,154.5079 L619,155.4298 Q619,156.461 619.8438,157.1485 Q620.6875,157.836 622.1875,157.836 Q623.0781,157.836 623.7031,157.6329 Q624.0625,157.5235 624.4688,157.1641 Q624.7344,156.961 624.875,156.8985 Q625.0156,156.836 625.1875,156.836 Q625.5156,156.836 625.75,157.1016 Q626,157.3516 626,157.711 Q626,158.0548 625.6563,158.461 Q625.1563,159.0548 624.3594,159.3829 Q623.3125,159.836 622.0313,159.836 Q620.5313,159.836 619.3281,159.2423 Q618.3594,158.7735 617.6719,157.7579 Q617,156.7423 617,155.5391 L617,154.4454 Q617,153.1954 617.5938,152.1016 Q618.2031,151.0079 619.25,150.4298 Q620.3125,149.836 621.5,149.836 Q622.2188,149.836 622.8438,150.086 Q623.4688,150.336 624,150.836 Z "/><text fill="#000000" font-family="sans-serif" font-size="12" lengthAdjust="spacingAndGlyphs" textLength="68" x="636" y="159.2462">Collaborator</text><line style="stroke: #A80036; stroke-width: 1.5;" x1="608" x2="706" y1="170.336" y2="170.336"/><text fill="#000000" font-family="sans-serif" font-size="11" lengthAdjust="spacingAndGlyphs" textLength="61" x="613" y="185.7549">-String nome</text><text fill="#000000" font-family="sans-serif" font-size="11" lengthAdjust="spacingAndGlyphs" textLength="59" x="613" y="199.5909">-String email</text><!--MD5=[b34797a66dc35cbf1d65f7e3ca75530e]
class Task--><rect fill="#FEFECE" filter="url(#f1ld2d2ufw7ya)" height="109.1797" id="Task" style="stroke: #A80036; stroke-width: 1.5;" width="111" x="825" y="7.836"/><ellipse cx="863.4" cy="23.836" fill="#ADD1B2" rx="11" ry="11" style="stroke: #A80036; stroke-width: 1.0;"/><path d="M865.4,20.336 Q865.6031,19.836 865.8375,19.586 Q866.0719,19.336 866.3375,19.336 Q866.8063,19.336 867.1031,19.6173 Q867.4,19.8985 867.4,20.5548 L867.4,22.1173 Q867.4,22.7735 867.1188,23.0548 Q866.8375,23.336 866.4,23.336 Q866.0094,23.336 865.7594,23.1641 Q865.5094,22.9923 865.4,22.5391 Q865.3531,22.2266 865.1813,22.0548 Q864.8688,21.7266 864.3063,21.5391 Q863.7438,21.336 863.1813,21.336 Q862.4781,21.336 861.8844,21.6173 Q861.3063,21.8985 860.8531,22.5235 Q860.4,23.1485 860.4,24.0079 L860.4,24.9298 Q860.4,25.961 861.2438,26.6485 Q862.0875,27.336 863.5875,27.336 Q864.4781,27.336 865.1031,27.1329 Q865.4625,27.0235 865.8688,26.6641 Q866.1344,26.461 866.275,26.3985 Q866.4156,26.336 866.5875,26.336 Q866.9156,26.336 867.15,26.6016 Q867.4,26.8516 867.4,27.211 Q867.4,27.5548 867.0563,27.961 Q866.5563,28.5548 865.7594,28.8829 Q864.7125,29.336 863.4313,29.336 Q861.9313,29.336 860.7281,28.7423 Q859.7594,28.2735 859.0719,27.2579 Q858.4,26.2423 858.4,25.0391 L858.4,23.9454 Q858.4,22.6954 858.9938,21.6016 Q859.6031,20.5079 860.65,19.9298 Q861.7125,19.336 862.9,19.336 Q863.6188,19.336 864.2438,19.586 Q864.8688,19.836 865.4,20.336 Z "/><text fill="#000000" font-family="sans-serif" font-size="12" lengthAdjust="spacingAndGlyphs" textLength="27" x="882.6" y="28.7462">Task</text><line style="stroke: #A80036; stroke-width: 1.5;" x1="826" x2="935" y1="39.836" y2="39.836"/><text fill="#000000" font-family="sans-serif" font-size="11" lengthAdjust="spacingAndGlyphs" textLength="49" x="831" y="55.2549">-String idT</text><text fill="#000000" font-family="sans-serif" font-size="11" lengthAdjust="spacingAndGlyphs" textLength="88" x="831" y="69.0909">-String description</text><text fill="#000000" font-family="sans-serif" font-size="11" lengthAdjust="spacingAndGlyphs" textLength="88" x="831" y="82.9268">-Time timeDuration</text><text fill="#000000" font-family="sans-serif" font-size="11" lengthAdjust="spacingAndGlyphs" textLength="83" x="831" y="96.7628">-double costHour</text><text fill="#000000" font-family="sans-serif" font-size="11" lengthAdjust="spacingAndGlyphs" textLength="99" x="831" y="110.5987">-String taskCategory</text><!--MD5=[3fd616f346a44cd59a91eb10b19e157c]
class User--><rect fill="#FEFECE" filter="url(#f1ld2d2ufw7ya)" height="40" id="User" style="stroke: #A80036; stroke-width: 1.5;" width="59" x="851" y="152.336"/><ellipse cx="866" cy="168.336" fill="#ADD1B2" rx="11" ry="11" style="stroke: #A80036; stroke-width: 1.0;"/><path d="M868,164.836 Q868.2031,164.336 868.4375,164.086 Q868.6719,163.836 868.9375,163.836 Q869.4063,163.836 869.7031,164.1173 Q870,164.3985 870,165.0548 L870,166.6173 Q870,167.2735 869.7188,167.5548 Q869.4375,167.836 869,167.836 Q868.6094,167.836 868.3594,167.6641 Q868.1094,167.4923 868,167.0391 Q867.9531,166.7266 867.7813,166.5548 Q867.4688,166.2266 866.9063,166.0391 Q866.3438,165.836 865.7813,165.836 Q865.0781,165.836 864.4844,166.1173 Q863.9063,166.3985 863.4531,167.0235 Q863,167.6485 863,168.5079 L863,169.4298 Q863,170.461 863.8438,171.1485 Q864.6875,171.836 866.1875,171.836 Q867.0781,171.836 867.7031,171.6329 Q868.0625,171.5235 868.4688,171.1641 Q868.7344,170.961 868.875,170.8985 Q869.0156,170.836 869.1875,170.836 Q869.5156,170.836 869.75,171.1016 Q870,171.3516 870,171.711 Q870,172.0548 869.6563,172.461 Q869.1563,173.0548 868.3594,173.3829 Q867.3125,173.836 866.0313,173.836 Q864.5313,173.836 863.3281,173.2423 Q862.3594,172.7735 861.6719,171.7579 Q861,170.7423 861,169.5391 L861,168.4454 Q861,167.1954 861.5938,166.1016 Q862.2031,165.0079 863.25,164.4298 Q864.3125,163.836 865.5,163.836 Q866.2188,163.836 866.8438,164.086 Q867.4688,164.336 868,164.836 Z "/><text fill="#000000" font-family="sans-serif" font-size="12" lengthAdjust="spacingAndGlyphs" textLength="27" x="880" y="173.2462">User</text><line style="stroke: #A80036; stroke-width: 1.5;" x1="852" x2="909" y1="184.336" y2="184.336"/><!--MD5=[da547346deef918ea16944ba046651ef]
class Administrator--><rect fill="#FEFECE" filter="url(#f1ld2d2ufw7ya)" height="40" id="Administrator" style="stroke: #A80036; stroke-width: 1.5;" width="105" x="180" y="211.3364"/><ellipse cx="195" cy="227.3364" fill="#ADD1B2" rx="11" ry="11" style="stroke: #A80036; stroke-width: 1.0;"/><path d="M197,223.8364 Q197.2031,223.3364 197.4375,223.0864 Q197.6719,222.8364 197.9375,222.8364 Q198.4063,222.8364 198.7031,223.1177 Q199,223.3989 199,224.0552 L199,225.6177 Q199,226.2739 198.7188,226.5552 Q198.4375,226.8364 198,226.8364 Q197.6094,226.8364 197.3594,226.6645 Q197.1094,226.4927 197,226.0395 Q196.9531,225.727 196.7813,225.5552 Q196.4688,225.227 195.9063,225.0395 Q195.3438,224.8364 194.7813,224.8364 Q194.0781,224.8364 193.4844,225.1177 Q192.9063,225.3989 192.4531,226.0239 Q192,226.6489 192,227.5083 L192,228.4302 Q192,229.4614 192.8438,230.1489 Q193.6875,230.8364 195.1875,230.8364 Q196.0781,230.8364 196.7031,230.6333 Q197.0625,230.5239 197.4688,230.1645 Q197.7344,229.9614 197.875,229.8989 Q198.0156,229.8364 198.1875,229.8364 Q198.5156,229.8364 198.75,230.102 Q199,230.352 199,230.7114 Q199,231.0552 198.6563,231.4614 Q198.1563,232.0552 197.3594,232.3833 Q196.3125,232.8364 195.0313,232.8364 Q193.5313,232.8364 192.3281,232.2427 Q191.3594,231.7739 190.6719,230.7583 Q190,229.7427 190,228.5395 L190,227.4458 Q190,226.1958 190.5938,225.102 Q191.2031,224.0083 192.25,223.4302 Q193.3125,222.8364 194.5,222.8364 Q195.2188,222.8364 195.8438,223.0864 Q196.4688,223.3364 197,223.8364 Z "/><text fill="#000000" font-family="sans-serif" font-size="12" lengthAdjust="spacingAndGlyphs" textLength="73" x="209" y="232.2466">Administrator</text><line style="stroke: #A80036; stroke-width: 1.5;" x1="181" x2="284" y1="243.3364" y2="243.3364"/><!--MD5=[7640e466c042ba2d6f9c19c816f7f0fc]
link Platform to Organization--><path d="M84.0689,144.178 C146.072,148.808 272.728,158.274 380,166.3364 C389.662,167.0626 399.984,167.8403 409.883,168.5869 " fill="none" id="Platform-Organization" style="stroke: #A80036; stroke-width: 1.0;"/><text fill="#000000" font-family="sans-serif" font-size="13" lengthAdjust="spacingAndGlyphs" textLength="82" x="185" y="147.8311">has registered</text><polygon fill="#000000" points="270,141.0118,276,144.0118,270,147.0118,270,141.0118" style="stroke: #000000; stroke-width: 1.0;"/><text fill="#000000" font-family="sans-serif" font-size="13" lengthAdjust="spacingAndGlyphs" textLength="7" x="91.9175" y="159.7045">1</text><text fill="#000000" font-family="sans-serif" font-size="13" lengthAdjust="spacingAndGlyphs" textLength="20" x="382.1164" y="182.6807">1..*</text><!--MD5=[45817597bcd7048073a670d966abfd17]
link Organization to Collaborator--><path d="M511.084,172.3364 C540.459,172.3364 577.544,172.3364 606.844,172.3364 " fill="none" id="Organization-Collaborator" style="stroke: #A80036; stroke-width: 1.0;"/><text fill="#000000" font-family="sans-serif" font-size="13" lengthAdjust="spacingAndGlyphs" textLength="21" x="542" y="168.8311">has</text><polygon fill="#000000" points="566,162.0118,572,165.0118,566,168.0118,566,162.0118" style="stroke: #000000; stroke-width: 1.0;"/><text fill="#000000" font-family="sans-serif" font-size="13" lengthAdjust="spacingAndGlyphs" textLength="7" x="519.0276" y="187.0685">1</text><text fill="#000000" font-family="sans-serif" font-size="13" lengthAdjust="spacingAndGlyphs" textLength="7" x="591.9633" y="187.0565">1</text><!--MD5=[04ce0ecdab38a3951889ff50c232570f]
link Collaborator to User--><path d="M707.158,172.3364 C751.257,172.3364 814.458,172.3364 850.805,172.3364 " fill="none" id="Collaborator-User" style="stroke: #A80036; stroke-width: 1.0;"/><text fill="#000000" font-family="sans-serif" font-size="13" lengthAdjust="spacingAndGlyphs" textLength="43" x="738" y="168.8311">acts as</text><polygon fill="#000000" points="784,162.0118,790,165.0118,784,168.0118,784,162.0118" style="stroke: #000000; stroke-width: 1.0;"/><text fill="#000000" font-family="sans-serif" font-size="13" lengthAdjust="spacingAndGlyphs" textLength="7" x="715.039" y="187.0565">1</text><text fill="#000000" font-family="sans-serif" font-size="13" lengthAdjust="spacingAndGlyphs" textLength="7" x="836.1287" y="187.7223">1</text><!--MD5=[2a41c1af413c0662bf55a6b8913ea24f]
link Administrator to Organization--><path d="M285.066,217.8746 C322.455,208.1136 372.737,194.9869 409.709,185.3348 " fill="none" id="Administrator-Organization" style="stroke: #A80036; stroke-width: 1.0;"/><text fill="#000000" font-family="sans-serif" font-size="13" lengthAdjust="spacingAndGlyphs" textLength="50" x="316" y="188.8315">registers</text><polygon fill="#000000" points="369,182.0122,375,185.0122,369,188.0122,369,182.0122" style="stroke: #000000; stroke-width: 1.0;"/><text fill="#000000" font-family="sans-serif" font-size="13" lengthAdjust="spacingAndGlyphs" textLength="7" x="292.9503" y="230.6264">1</text><text fill="#000000" font-family="sans-serif" font-size="13" lengthAdjust="spacingAndGlyphs" textLength="7" x="395.0743" y="201.8422">1</text><!--MD5=[757406b2e460220911d4cccaa97c87d9]
link Administrator to Collaborator--><path d="M285.233,244 C341.611,255.663 434.053,268.4999 511,249.3364 C545.019,240.8639 579.822,222.7575 606.801,206.2306 " fill="none" id="Administrator-Collaborator" style="stroke: #A80036; stroke-width: 1.0;"/><text fill="#000000" font-family="sans-serif" font-size="13" lengthAdjust="spacingAndGlyphs" textLength="50" x="429" y="245.8315">registers</text><polygon fill="#000000" points="482,239.0122,488,242.0122,482,245.0122,482,239.0122" style="stroke: #000000; stroke-width: 1.0;"/><text fill="#000000" font-family="sans-serif" font-size="13" lengthAdjust="spacingAndGlyphs" textLength="7" x="293.1408" y="260.4257">1</text><text fill="#000000" font-family="sans-serif" font-size="13" lengthAdjust="spacingAndGlyphs" textLength="7" x="591.914" y="225.9289">1</text><!--MD5=[ed78a468ed200fe64308209ec6c86f1e]
link Platform to Task--><path d="M73.3249,121.149 C108.175,97.45 171.176,61.336 231.5,61.336 C231.5,61.336 231.5,61.336 658,61.336 C714.914,61.336 780.053,61.671 824.884,61.953 " fill="none" id="Platform-Task" style="stroke: #A80036; stroke-width: 1.0;"/><text fill="#000000" font-family="sans-serif" font-size="13" lengthAdjust="spacingAndGlyphs" textLength="82" x="413" y="57.8311">has registered</text><polygon fill="#000000" points="498,51.0118,504,54.0118,498,57.0118,498,51.0118" style="stroke: #000000; stroke-width: 1.0;"/><text fill="#000000" font-family="sans-serif" font-size="13" lengthAdjust="spacingAndGlyphs" textLength="7" x="73.6172" y="110.4158">1</text><text fill="#000000" font-family="sans-serif" font-size="13" lengthAdjust="spacingAndGlyphs" textLength="20" x="796.8871" y="76.3869">1..*</text><!--MD5=[0f7004bed4496639b3a5258ab2ead378]
link Platform to Administrator--><path d="M74.3537,161.504 C86.272,169.4948 100.4861,178.4083 114,185.3364 C134.956,196.08 159.032,205.912 179.912,213.7036 " fill="none" id="Platform-Administrator" style="stroke: #A80036; stroke-width: 1.0;"/><text fill="#000000" font-family="sans-serif" font-size="13" lengthAdjust="spacingAndGlyphs" textLength="21" x="115" y="181.8315">has</text><polygon fill="#000000" points="139,175.0122,145,178.0122,139,181.0122,139,175.0122" style="stroke: #000000; stroke-width: 1.0;"/><text fill="#000000" font-family="sans-serif" font-size="13" lengthAdjust="spacingAndGlyphs" textLength="7" x="74.6251" y="182.9708">1</text><text fill="#000000" font-family="sans-serif" font-size="13" lengthAdjust="spacingAndGlyphs" textLength="7" x="165.0246" y="225.8688">1</text><!--MD5=[f919d21ae7a75ef5ececc535e09d5009]
link Collaborator to Task--><path d="M707.235,148.492 C733.361,135.78 765.978,119.816 795,105.336 C804.574,100.56 814.733,95.437 824.564,90.451 " fill="none" id="Collaborator-Task" style="stroke: #A80036; stroke-width: 1.0;"/><text fill="#000000" font-family="sans-serif" font-size="13" lengthAdjust="spacingAndGlyphs" textLength="43" x="738" y="101.8311">creates</text><polygon fill="#000000" points="784,95.0118,790,98.0118,784,101.0118,784,95.0118" style="stroke: #000000; stroke-width: 1.0;"/><text fill="#000000" font-family="sans-serif" font-size="13" lengthAdjust="spacingAndGlyphs" textLength="7" x="715.1273" y="159.7099">1</text><text fill="#000000" font-family="sans-serif" font-size="13" lengthAdjust="spacingAndGlyphs" textLength="20" x="796.9401" y="108.1319">1..*</text><!--MD5=[346914545eaee5feaf3694cb7b207079]
@startuml
skinparam classAttributeIconSize 0
hide methods
left to right direction

class Platform{
}


class Organization {
  -String nome
  -String email
  -String nif
}

class Collaborator{
  -String nome
  -String email
}

class Task {
  -String idT
  -String description
  -Time timeDuration
  -double costHour
  -String taskCategory
}


class User {
}



Platform "1" - - "1..*" Organization: has registered >




Organization "1" - - "1" Collaborator: has >
Collaborator "1" - - "1" User: acts as >

Administrator "1" - - "1" Organization: registers >

Administrator "1" - - "1" Collaborator: registers >

Platform "1" - - "1..*" Task: has registered >




Platform "1" - - "1" Administrator: has >
Collaborator "1" - - "1..*" Task: creates >




@enduml

PlantUML version 1.2020.09(Sun May 10 11:51:06 BST 2020)
(GPL source distribution)
Java Runtime: OpenJDK Runtime Environment
JVM: OpenJDK 64-Bit Server VM
Java Version: 11.0.6+8-b765.40
Operating System: Windows 10
Default Encoding: Cp1252
Language: pt
Country: PT
--></g></svg>