<?xml version="1.0" encoding="UTF-8" standalone="no"?><svg xmlns="http://www.w3.org/2000/svg" xmlns:xlink="http://www.w3.org/1999/xlink" contentScriptType="application/ecmascript" contentStyleType="text/css" height="886px" preserveAspectRatio="none" style="width:713px;height:886px;" version="1.1" viewBox="0 0 713 886" width="713px" zoomAndPan="magnify"><defs><filter height="300%" id="f1pg95unpag2vi" width="300%" x="-1" y="-1"><feGaussianBlur result="blurOut" stdDeviation="2.0"/><feColorMatrix in="blurOut" result="blurOut2" type="matrix" values="0 0 0 0 0 0 0 0 0 0 0 0 0 0 0 0 0 0 .4 0"/><feOffset dx="4.0" dy="4.0" in="blurOut2" result="blurOut3"/><feBlend in="SourceGraphic" in2="blurOut3" mode="normal"/></filter></defs><g><!--MD5=[5706a5cc9482d9b891911949e6b680c5]
class WarnAboutFreelancerPerformanceUI--><rect fill="#FEFECE" filter="url(#f1pg95unpag2vi)" height="48" id="WarnAboutFreelancerPerformanceUI" style="stroke: #A80036; stroke-width: 1.5;" width="251" x="277.5" y="6"/><ellipse cx="292.5" cy="22" fill="#ADD1B2" rx="11" ry="11" style="stroke: #A80036; stroke-width: 1.0;"/><path d="M294.8438,17.6719 C293.9063,17.2344 293.3125,17.0938 292.4375,17.0938 C289.8125,17.0938 287.8125,19.1719 287.8125,21.8906 L287.8125,23.0156 C287.8125,25.5938 289.9219,27.4844 292.8125,27.4844 C294.0313,27.4844 295.1875,27.1875 295.9375,26.6406 C296.5156,26.2344 296.8438,25.7813 296.8438,25.3906 C296.8438,24.9375 296.4531,24.5469 295.9844,24.5469 C295.7656,24.5469 295.5625,24.625 295.375,24.8125 C294.9219,25.2969 294.9219,25.2969 294.7344,25.3906 C294.3125,25.6563 293.625,25.7813 292.8594,25.7813 C290.8125,25.7813 289.5156,24.6875 289.5156,22.9844 L289.5156,21.8906 C289.5156,20.1094 290.7656,18.7969 292.5,18.7969 C293.0781,18.7969 293.6875,18.9531 294.1563,19.2031 C294.6406,19.4844 294.8125,19.7031 294.9063,20.1094 C294.9688,20.5156 295,20.6406 295.1406,20.7656 C295.2813,20.9063 295.5156,21.0156 295.7344,21.0156 C296,21.0156 296.2656,20.875 296.4375,20.6563 C296.5469,20.5 296.5781,20.3125 296.5781,19.8906 L296.5781,18.4688 C296.5781,18.0313 296.5625,17.9063 296.4688,17.75 C296.3125,17.4844 296.0313,17.3438 295.7344,17.3438 C295.4375,17.3438 295.2344,17.4375 295.0156,17.75 L294.8438,17.6719 Z "/><text fill="#000000" font-family="sans-serif" font-size="12" lengthAdjust="spacingAndGlyphs" textLength="219" x="306.5" y="26.1543">WarnAboutFreelancerPerformanceUI</text><line style="stroke: #A80036; stroke-width: 1.5;" x1="278.5" x2="527.5" y1="38" y2="38"/><line style="stroke: #A80036; stroke-width: 1.5;" x1="278.5" x2="527.5" y1="46" y2="46"/><!--MD5=[02d5c19eb992be20bfa582dffea82e8a]
class WarnAboutFreelancerPerformanceController--><rect fill="#FEFECE" filter="url(#f1pg95unpag2vi)" height="60.8047" id="WarnAboutFreelancerPerformanceController" style="stroke: #A80036; stroke-width: 1.5;" width="298" x="254" y="115"/><ellipse cx="269" cy="131" fill="#ADD1B2" rx="11" ry="11" style="stroke: #A80036; stroke-width: 1.0;"/><path d="M271.3438,126.6719 C270.4063,126.2344 269.8125,126.0938 268.9375,126.0938 C266.3125,126.0938 264.3125,128.1719 264.3125,130.8906 L264.3125,132.0156 C264.3125,134.5938 266.4219,136.4844 269.3125,136.4844 C270.5313,136.4844 271.6875,136.1875 272.4375,135.6406 C273.0156,135.2344 273.3438,134.7813 273.3438,134.3906 C273.3438,133.9375 272.9531,133.5469 272.4844,133.5469 C272.2656,133.5469 272.0625,133.625 271.875,133.8125 C271.4219,134.2969 271.4219,134.2969 271.2344,134.3906 C270.8125,134.6563 270.125,134.7813 269.3594,134.7813 C267.3125,134.7813 266.0156,133.6875 266.0156,131.9844 L266.0156,130.8906 C266.0156,129.1094 267.2656,127.7969 269,127.7969 C269.5781,127.7969 270.1875,127.9531 270.6563,128.2031 C271.1406,128.4844 271.3125,128.7031 271.4063,129.1094 C271.4688,129.5156 271.5,129.6406 271.6406,129.7656 C271.7813,129.9063 272.0156,130.0156 272.2344,130.0156 C272.5,130.0156 272.7656,129.875 272.9375,129.6563 C273.0469,129.5 273.0781,129.3125 273.0781,128.8906 L273.0781,127.4688 C273.0781,127.0313 273.0625,126.9063 272.9688,126.75 C272.8125,126.4844 272.5313,126.3438 272.2344,126.3438 C271.9375,126.3438 271.7344,126.4375 271.5156,126.75 L271.3438,126.6719 Z "/><text fill="#000000" font-family="sans-serif" font-size="12" lengthAdjust="spacingAndGlyphs" textLength="266" x="283" y="135.1543">WarnAboutFreelancerPerformanceController</text><line style="stroke: #A80036; stroke-width: 1.5;" x1="255" x2="551" y1="147" y2="147"/><line style="stroke: #A80036; stroke-width: 1.5;" x1="255" x2="551" y1="155" y2="155"/><text fill="#000000" font-family="sans-serif" font-size="11" lengthAdjust="spacingAndGlyphs" textLength="76" x="260" y="169.2104">+sendEmail()</text><!--MD5=[99b8db98afdc2c8404e39242ef4c1e65]
class Platform--><rect fill="#FEFECE" filter="url(#f1pg95unpag2vi)" height="73.6094" id="Platform" style="stroke: #A80036; stroke-width: 1.5;" width="88" x="177" y="237"/><ellipse cx="195.6" cy="253" fill="#ADD1B2" rx="11" ry="11" style="stroke: #A80036; stroke-width: 1.0;"/><path d="M197.9438,248.6719 C197.0063,248.2344 196.4125,248.0938 195.5375,248.0938 C192.9125,248.0938 190.9125,250.1719 190.9125,252.8906 L190.9125,254.0156 C190.9125,256.5938 193.0219,258.4844 195.9125,258.4844 C197.1313,258.4844 198.2875,258.1875 199.0375,257.6406 C199.6156,257.2344 199.9438,256.7813 199.9438,256.3906 C199.9438,255.9375 199.5531,255.5469 199.0844,255.5469 C198.8656,255.5469 198.6625,255.625 198.475,255.8125 C198.0219,256.2969 198.0219,256.2969 197.8344,256.3906 C197.4125,256.6563 196.725,256.7813 195.9594,256.7813 C193.9125,256.7813 192.6156,255.6875 192.6156,253.9844 L192.6156,252.8906 C192.6156,251.1094 193.8656,249.7969 195.6,249.7969 C196.1781,249.7969 196.7875,249.9531 197.2563,250.2031 C197.7406,250.4844 197.9125,250.7031 198.0063,251.1094 C198.0688,251.5156 198.1,251.6406 198.2406,251.7656 C198.3813,251.9063 198.6156,252.0156 198.8344,252.0156 C199.1,252.0156 199.3656,251.875 199.5375,251.6563 C199.6469,251.5 199.6781,251.3125 199.6781,250.8906 L199.6781,249.4688 C199.6781,249.0313 199.6625,248.9063 199.5688,248.75 C199.4125,248.4844 199.1313,248.3438 198.8344,248.3438 C198.5375,248.3438 198.3344,248.4375 198.1156,248.75 L197.9438,248.6719 Z "/><text fill="#000000" font-family="sans-serif" font-size="12" lengthAdjust="spacingAndGlyphs" textLength="48" x="210.4" y="257.1543">Platform</text><line style="stroke: #A80036; stroke-width: 1.5;" x1="178" x2="264" y1="269" y2="269"/><line style="stroke: #A80036; stroke-width: 1.5;" x1="178" x2="264" y1="277" y2="277"/><text fill="#000000" font-family="sans-serif" font-size="11" lengthAdjust="spacingAndGlyphs" textLength="76" x="183" y="291.2104">+sendEmail()</text><text fill="#000000" font-family="sans-serif" font-size="11" lengthAdjust="spacingAndGlyphs" textLength="70" x="183" y="304.0151">+getWriter()</text><!--MD5=[6735b55cc4e757c70976e457f6d95f3d]
class RegisterFreelancer--><rect fill="#FEFECE" filter="url(#f1pg95unpag2vi)" height="73.6094" id="RegisterFreelancer" style="stroke: #A80036; stroke-width: 1.5;" width="147" x="147.5" y="388"/><ellipse cx="162.5" cy="404" fill="#ADD1B2" rx="11" ry="11" style="stroke: #A80036; stroke-width: 1.0;"/><path d="M164.8438,399.6719 C163.9063,399.2344 163.3125,399.0938 162.4375,399.0938 C159.8125,399.0938 157.8125,401.1719 157.8125,403.8906 L157.8125,405.0156 C157.8125,407.5938 159.9219,409.4844 162.8125,409.4844 C164.0313,409.4844 165.1875,409.1875 165.9375,408.6406 C166.5156,408.2344 166.8438,407.7813 166.8438,407.3906 C166.8438,406.9375 166.4531,406.5469 165.9844,406.5469 C165.7656,406.5469 165.5625,406.625 165.375,406.8125 C164.9219,407.2969 164.9219,407.2969 164.7344,407.3906 C164.3125,407.6563 163.625,407.7813 162.8594,407.7813 C160.8125,407.7813 159.5156,406.6875 159.5156,404.9844 L159.5156,403.8906 C159.5156,402.1094 160.7656,400.7969 162.5,400.7969 C163.0781,400.7969 163.6875,400.9531 164.1563,401.2031 C164.6406,401.4844 164.8125,401.7031 164.9063,402.1094 C164.9688,402.5156 165,402.6406 165.1406,402.7656 C165.2813,402.9063 165.5156,403.0156 165.7344,403.0156 C166,403.0156 166.2656,402.875 166.4375,402.6563 C166.5469,402.5 166.5781,402.3125 166.5781,401.8906 L166.5781,400.4688 C166.5781,400.0313 166.5625,399.9063 166.4688,399.75 C166.3125,399.4844 166.0313,399.3438 165.7344,399.3438 C165.4375,399.3438 165.2344,399.4375 165.0156,399.75 L164.8438,399.6719 Z "/><text fill="#000000" font-family="sans-serif" font-size="12" lengthAdjust="spacingAndGlyphs" textLength="115" x="176.5" y="408.1543">RegisterFreelancer</text><line style="stroke: #A80036; stroke-width: 1.5;" x1="148.5" x2="293.5" y1="420" y2="420"/><line style="stroke: #A80036; stroke-width: 1.5;" x1="148.5" x2="293.5" y1="428" y2="428"/><text fill="#000000" font-family="sans-serif" font-size="11" lengthAdjust="spacingAndGlyphs" textLength="122" x="153.5" y="442.2104">+getListFreelancers()</text><text fill="#000000" font-family="sans-serif" font-size="11" lengthAdjust="spacingAndGlyphs" textLength="94" x="153.5" y="455.0151">+getDelayProb()</text><!--MD5=[1f687b5315377fe49fca59b457947463]
class Freelancer--><rect fill="#FEFECE" filter="url(#f1pg95unpag2vi)" height="60.8047" id="Freelancer" style="stroke: #A80036; stroke-width: 1.5;" width="97" x="299.5" y="677"/><ellipse cx="314.5" cy="693" fill="#ADD1B2" rx="11" ry="11" style="stroke: #A80036; stroke-width: 1.0;"/><path d="M316.8438,688.6719 C315.9063,688.2344 315.3125,688.0938 314.4375,688.0938 C311.8125,688.0938 309.8125,690.1719 309.8125,692.8906 L309.8125,694.0156 C309.8125,696.5938 311.9219,698.4844 314.8125,698.4844 C316.0313,698.4844 317.1875,698.1875 317.9375,697.6406 C318.5156,697.2344 318.8438,696.7813 318.8438,696.3906 C318.8438,695.9375 318.4531,695.5469 317.9844,695.5469 C317.7656,695.5469 317.5625,695.625 317.375,695.8125 C316.9219,696.2969 316.9219,696.2969 316.7344,696.3906 C316.3125,696.6563 315.625,696.7813 314.8594,696.7813 C312.8125,696.7813 311.5156,695.6875 311.5156,693.9844 L311.5156,692.8906 C311.5156,691.1094 312.7656,689.7969 314.5,689.7969 C315.0781,689.7969 315.6875,689.9531 316.1563,690.2031 C316.6406,690.4844 316.8125,690.7031 316.9063,691.1094 C316.9688,691.5156 317,691.6406 317.1406,691.7656 C317.2813,691.9063 317.5156,692.0156 317.7344,692.0156 C318,692.0156 318.2656,691.875 318.4375,691.6563 C318.5469,691.5 318.5781,691.3125 318.5781,690.8906 L318.5781,689.4688 C318.5781,689.0313 318.5625,688.9063 318.4688,688.75 C318.3125,688.4844 318.0313,688.3438 317.7344,688.3438 C317.4375,688.3438 317.2344,688.4375 317.0156,688.75 L316.8438,688.6719 Z "/><text fill="#000000" font-family="sans-serif" font-size="12" lengthAdjust="spacingAndGlyphs" textLength="65" x="328.5" y="697.1543">Freelancer</text><line style="stroke: #A80036; stroke-width: 1.5;" x1="300.5" x2="395.5" y1="709" y2="709"/><line style="stroke: #A80036; stroke-width: 1.5;" x1="300.5" x2="395.5" y1="717" y2="717"/><text fill="#000000" font-family="sans-serif" font-size="11" lengthAdjust="spacingAndGlyphs" textLength="81" x="305.5" y="731.2104">+getTaskList()</text><!--MD5=[cf2635f8a68afd84898027166f4516bc]
class TaskList--><rect fill="#FEFECE" filter="url(#f1pg95unpag2vi)" height="60.8047" id="TaskList" style="stroke: #A80036; stroke-width: 1.5;" width="93" x="527.5" y="243.5"/><ellipse cx="548.35" cy="259.5" fill="#ADD1B2" rx="11" ry="11" style="stroke: #A80036; stroke-width: 1.0;"/><path d="M550.6938,255.1719 C549.7563,254.7344 549.1625,254.5938 548.2875,254.5938 C545.6625,254.5938 543.6625,256.6719 543.6625,259.3906 L543.6625,260.5156 C543.6625,263.0938 545.7719,264.9844 548.6625,264.9844 C549.8813,264.9844 551.0375,264.6875 551.7875,264.1406 C552.3656,263.7344 552.6938,263.2813 552.6938,262.8906 C552.6938,262.4375 552.3031,262.0469 551.8344,262.0469 C551.6156,262.0469 551.4125,262.125 551.225,262.3125 C550.7719,262.7969 550.7719,262.7969 550.5844,262.8906 C550.1625,263.1563 549.475,263.2813 548.7094,263.2813 C546.6625,263.2813 545.3656,262.1875 545.3656,260.4844 L545.3656,259.3906 C545.3656,257.6094 546.6156,256.2969 548.35,256.2969 C548.9281,256.2969 549.5375,256.4531 550.0063,256.7031 C550.4906,256.9844 550.6625,257.2031 550.7563,257.6094 C550.8188,258.0156 550.85,258.1406 550.9906,258.2656 C551.1313,258.4063 551.3656,258.5156 551.5844,258.5156 C551.85,258.5156 552.1156,258.375 552.2875,258.1563 C552.3969,258 552.4281,257.8125 552.4281,257.3906 L552.4281,255.9688 C552.4281,255.5313 552.4125,255.4063 552.3188,255.25 C552.1625,254.9844 551.8813,254.8438 551.5844,254.8438 C551.2875,254.8438 551.0844,254.9375 550.8656,255.25 L550.6938,255.1719 Z "/><text fill="#000000" font-family="sans-serif" font-size="12" lengthAdjust="spacingAndGlyphs" textLength="48" x="563.65" y="263.6543">TaskList</text><line style="stroke: #A80036; stroke-width: 1.5;" x1="528.5" x2="619.5" y1="275.5" y2="275.5"/><line style="stroke: #A80036; stroke-width: 1.5;" x1="528.5" x2="619.5" y1="283.5" y2="283.5"/><text fill="#000000" font-family="sans-serif" font-size="11" lengthAdjust="spacingAndGlyphs" textLength="81" x="533.5" y="297.7104">+getTaskList()</text><!--MD5=[b34797a66dc35cbf1d65f7e3ca75530e]
class Task--><rect fill="#FEFECE" filter="url(#f1pg95unpag2vi)" height="60.8047" id="Task" style="stroke: #A80036; stroke-width: 1.5;" width="84" x="461" y="394.5"/><ellipse cx="486.8" cy="410.5" fill="#ADD1B2" rx="11" ry="11" style="stroke: #A80036; stroke-width: 1.0;"/><path d="M489.1438,406.1719 C488.2063,405.7344 487.6125,405.5938 486.7375,405.5938 C484.1125,405.5938 482.1125,407.6719 482.1125,410.3906 L482.1125,411.5156 C482.1125,414.0938 484.2219,415.9844 487.1125,415.9844 C488.3313,415.9844 489.4875,415.6875 490.2375,415.1406 C490.8156,414.7344 491.1438,414.2813 491.1438,413.8906 C491.1438,413.4375 490.7531,413.0469 490.2844,413.0469 C490.0656,413.0469 489.8625,413.125 489.675,413.3125 C489.2219,413.7969 489.2219,413.7969 489.0344,413.8906 C488.6125,414.1563 487.925,414.2813 487.1594,414.2813 C485.1125,414.2813 483.8156,413.1875 483.8156,411.4844 L483.8156,410.3906 C483.8156,408.6094 485.0656,407.2969 486.8,407.2969 C487.3781,407.2969 487.9875,407.4531 488.4563,407.7031 C488.9406,407.9844 489.1125,408.2031 489.2063,408.6094 C489.2688,409.0156 489.3,409.1406 489.4406,409.2656 C489.5813,409.4063 489.8156,409.5156 490.0344,409.5156 C490.3,409.5156 490.5656,409.375 490.7375,409.1563 C490.8469,409 490.8781,408.8125 490.8781,408.3906 L490.8781,406.9688 C490.8781,406.5313 490.8625,406.4063 490.7688,406.25 C490.6125,405.9844 490.3313,405.8438 490.0344,405.8438 C489.7375,405.8438 489.5344,405.9375 489.3156,406.25 L489.1438,406.1719 Z "/><text fill="#000000" font-family="sans-serif" font-size="12" lengthAdjust="spacingAndGlyphs" textLength="28" x="503.2" y="414.6543">Task</text><line style="stroke: #A80036; stroke-width: 1.5;" x1="462" x2="544" y1="426.5" y2="426.5"/><line style="stroke: #A80036; stroke-width: 1.5;" x1="462" x2="544" y1="434.5" y2="434.5"/><text fill="#000000" font-family="sans-serif" font-size="11" lengthAdjust="spacingAndGlyphs" textLength="72" x="467" y="448.7104">+getTexec()</text><!--MD5=[5ce80547de3caced9d0089e35ded5090]
class TaskExecution--><rect fill="#FEFECE" filter="url(#f1pg95unpag2vi)" height="60.8047" id="TaskExecution" style="stroke: #A80036; stroke-width: 1.5;" width="118" x="530" y="539"/><ellipse cx="545" cy="555" fill="#ADD1B2" rx="11" ry="11" style="stroke: #A80036; stroke-width: 1.0;"/><path d="M547.3438,550.6719 C546.4063,550.2344 545.8125,550.0938 544.9375,550.0938 C542.3125,550.0938 540.3125,552.1719 540.3125,554.8906 L540.3125,556.0156 C540.3125,558.5938 542.4219,560.4844 545.3125,560.4844 C546.5313,560.4844 547.6875,560.1875 548.4375,559.6406 C549.0156,559.2344 549.3438,558.7813 549.3438,558.3906 C549.3438,557.9375 548.9531,557.5469 548.4844,557.5469 C548.2656,557.5469 548.0625,557.625 547.875,557.8125 C547.4219,558.2969 547.4219,558.2969 547.2344,558.3906 C546.8125,558.6563 546.125,558.7813 545.3594,558.7813 C543.3125,558.7813 542.0156,557.6875 542.0156,555.9844 L542.0156,554.8906 C542.0156,553.1094 543.2656,551.7969 545,551.7969 C545.5781,551.7969 546.1875,551.9531 546.6563,552.2031 C547.1406,552.4844 547.3125,552.7031 547.4063,553.1094 C547.4688,553.5156 547.5,553.6406 547.6406,553.7656 C547.7813,553.9063 548.0156,554.0156 548.2344,554.0156 C548.5,554.0156 548.7656,553.875 548.9375,553.6563 C549.0469,553.5 549.0781,553.3125 549.0781,552.8906 L549.0781,551.4688 C549.0781,551.0313 549.0625,550.9063 548.9688,550.75 C548.8125,550.4844 548.5313,550.3438 548.2344,550.3438 C547.9375,550.3438 547.7344,550.4375 547.5156,550.75 L547.3438,550.6719 Z "/><text fill="#000000" font-family="sans-serif" font-size="12" lengthAdjust="spacingAndGlyphs" textLength="86" x="559" y="559.1543">TaskExecution</text><line style="stroke: #A80036; stroke-width: 1.5;" x1="531" x2="647" y1="571" y2="571"/><line style="stroke: #A80036; stroke-width: 1.5;" x1="531" x2="647" y1="579" y2="579"/><text fill="#000000" font-family="sans-serif" font-size="11" lengthAdjust="spacingAndGlyphs" textLength="96" x="536" y="593.2104">+getTaskDelay()</text><!--MD5=[86cfdc25119a3a20e0664f11a0f5b002]
class Writer--><rect fill="#FEFECE" filter="url(#f1pg95unpag2vi)" height="60.8047" id="Writer" style="stroke: #A80036; stroke-width: 1.5;" width="112" x="38" y="815"/><ellipse cx="72.35" cy="831" fill="#ADD1B2" rx="11" ry="11" style="stroke: #A80036; stroke-width: 1.0;"/><path d="M74.6938,826.6719 C73.7563,826.2344 73.1625,826.0938 72.2875,826.0938 C69.6625,826.0938 67.6625,828.1719 67.6625,830.8906 L67.6625,832.0156 C67.6625,834.5938 69.7719,836.4844 72.6625,836.4844 C73.8813,836.4844 75.0375,836.1875 75.7875,835.6406 C76.3656,835.2344 76.6938,834.7813 76.6938,834.3906 C76.6938,833.9375 76.3031,833.5469 75.8344,833.5469 C75.6156,833.5469 75.4125,833.625 75.225,833.8125 C74.7719,834.2969 74.7719,834.2969 74.5844,834.3906 C74.1625,834.6563 73.475,834.7813 72.7094,834.7813 C70.6625,834.7813 69.3656,833.6875 69.3656,831.9844 L69.3656,830.8906 C69.3656,829.1094 70.6156,827.7969 72.35,827.7969 C72.9281,827.7969 73.5375,827.9531 74.0063,828.2031 C74.4906,828.4844 74.6625,828.7031 74.7563,829.1094 C74.8188,829.5156 74.85,829.6406 74.9906,829.7656 C75.1313,829.9063 75.3656,830.0156 75.5844,830.0156 C75.85,830.0156 76.1156,829.875 76.2875,829.6563 C76.3969,829.5 76.4281,829.3125 76.4281,828.8906 L76.4281,827.4688 C76.4281,827.0313 76.4125,826.9063 76.3188,826.75 C76.1625,826.4844 75.8813,826.3438 75.5844,826.3438 C75.2875,826.3438 75.0844,826.4375 74.8656,826.75 L74.6938,826.6719 Z "/><text fill="#000000" font-family="sans-serif" font-size="12" lengthAdjust="spacingAndGlyphs" textLength="37" x="90.65" y="835.1543">Writer</text><line style="stroke: #A80036; stroke-width: 1.5;" x1="39" x2="149" y1="847" y2="847"/><line style="stroke: #A80036; stroke-width: 1.5;" x1="39" x2="149" y1="855" y2="855"/><text fill="#000000" font-family="sans-serif" font-size="11" lengthAdjust="spacingAndGlyphs" textLength="100" x="44" y="869.2104">+sendEmail(free)</text><!--MD5=[b5c065abd32696ad53882792289ce995]
link WarnAboutFreelancerPerformanceUI to WarnAboutFreelancerPerformanceController--><path d="M403,54.242 C403,70.112 403,91.427 403,109.359 " fill="none" id="WarnAboutFreelancerPerformanceUI-&gt;WarnAboutFreelancerPerformanceController" style="stroke: #A80036; stroke-width: 1.0; stroke-dasharray: 7.0,7.0;"/><polygon fill="#A80036" points="403,114.805,407,105.805,403,109.805,399,105.805,403,114.805" style="stroke: #A80036; stroke-width: 1.0;"/><!--MD5=[e8e5d5599326133f4cbb75f896173332]
link WarnAboutFreelancerPerformanceController to Platform--><path d="M352.185,176.128 C337.085,185.342 320.666,195.774 306,206 C293.675,214.593 280.757,224.355 268.819,233.717 " fill="none" id="WarnAboutFreelancerPerformanceController-&gt;Platform" style="stroke: #A80036; stroke-width: 1.0; stroke-dasharray: 7.0,7.0;"/><polygon fill="#A80036" points="264.81,236.874,274.3554,234.448,268.7381,233.7804,269.4057,228.1631,264.81,236.874" style="stroke: #A80036; stroke-width: 1.0;"/><!--MD5=[7e3dc1d9d9bdb7250a322f8d6f33b66f]
link WarnAboutFreelancerPerformanceController to RegisterFreelancer--><path d="M383.523,176.197 C350.723,226.208 284.434,327.281 247.454,383.665 " fill="none" id="WarnAboutFreelancerPerformanceController-&gt;RegisterFreelancer" style="stroke: #A80036; stroke-width: 1.0; stroke-dasharray: 7.0,7.0;"/><polygon fill="#A80036" points="244.624,387.98,252.9038,382.6465,247.3654,383.7986,246.2134,378.2602,244.624,387.98" style="stroke: #A80036; stroke-width: 1.0;"/><!--MD5=[9d1866f82bb4ad2c44279f7df800143c]
link WarnAboutFreelancerPerformanceController to Freelancer--><path d="M373.375,176.259 C366.351,185.122 359.8,195.336 356,206 C325.411,291.852 339.576,573.005 345.693,671.797 " fill="none" id="WarnAboutFreelancerPerformanceController-&gt;Freelancer" style="stroke: #A80036; stroke-width: 1.0; stroke-dasharray: 7.0,7.0;"/><polygon fill="#A80036" points="346.014,676.923,349.443,667.6903,345.7011,671.9328,341.4587,668.1909,346.014,676.923" style="stroke: #A80036; stroke-width: 1.0;"/><!--MD5=[52a981192a15611f9cd6be4fedf3fa43]
link WarnAboutFreelancerPerformanceController to TaskList--><path d="M455.267,176.12 C470.097,185.17 486.008,195.516 500,206 C513.701,216.265 527.846,228.584 540.053,239.843 " fill="none" id="WarnAboutFreelancerPerformanceController-&gt;TaskList" style="stroke: #A80036; stroke-width: 1.0; stroke-dasharray: 7.0,7.0;"/><polygon fill="#A80036" points="543.777,243.3,539.9022,234.2454,540.1125,239.8983,534.4595,240.1086,543.777,243.3" style="stroke: #A80036; stroke-width: 1.0;"/><!--MD5=[6edcd3ef113769b17bdc13cb3caff046]
link WarnAboutFreelancerPerformanceController to Task--><path d="M416.593,176.258 C420.746,185.699 425.213,196.224 429,206 C453.816,270.057 478.666,346.366 492.319,389.601 " fill="none" id="WarnAboutFreelancerPerformanceController-&gt;Task" style="stroke: #A80036; stroke-width: 1.0; stroke-dasharray: 7.0,7.0;"/><polygon fill="#A80036" points="493.846,394.45,494.9558,384.6639,492.3431,389.6812,487.3257,387.0685,493.846,394.45" style="stroke: #A80036; stroke-width: 1.0;"/><!--MD5=[51fd4b2d6dd0fc6a686a5f74089aa89c]
link WarnAboutFreelancerPerformanceController to TaskExecution--><path d="M552.079,173.764 C585.732,187.174 617.525,207.174 638,237 C701.344,329.273 641.81,470.074 608.309,534.355 " fill="none" id="WarnAboutFreelancerPerformanceController-&gt;TaskExecution" style="stroke: #A80036; stroke-width: 1.0; stroke-dasharray: 7.0,7.0;"/><polygon fill="#A80036" points="605.944,538.849,613.6754,532.7477,608.2727,534.4244,606.596,529.0218,605.944,538.849" style="stroke: #A80036; stroke-width: 1.0;"/><!--MD5=[ccf6e2d053c6d6fbe7c92b4a37756c73]
link WarnAboutFreelancerPerformanceController to Writer--><path d="M253.76,165.937 C141.166,184.926 6,218.973 6,273 C6,273 6,273 6,708.5 C6,748.305 32.9002,785.6675 56.955,811.1209 " fill="none" id="WarnAboutFreelancerPerformanceController-&gt;Writer" style="stroke: #A80036; stroke-width: 1.0; stroke-dasharray: 7.0,7.0;"/><polygon fill="#A80036" points="60.4799,814.7887,57.1278,805.5278,57.0154,811.1836,51.3596,811.0711,60.4799,814.7887" style="stroke: #A80036; stroke-width: 1.0;"/><!--MD5=[bd4dc258c99bd36fa08dcfc6a9cf30bc]
link Platform to RegisterFreelancer--><path d="M221,311.069 C221,334.323 221,364.457 221,387.747 " fill="none" id="Platform-RegisterFreelancer" style="stroke: #A80036; stroke-width: 1.0;"/><text fill="#000000" font-family="sans-serif" font-size="13" lengthAdjust="spacingAndGlyphs" textLength="23" x="222" y="354.0669">has</text><text fill="#000000" font-family="sans-serif" font-size="13" lengthAdjust="spacingAndGlyphs" textLength="8" x="212.3375" y="330.561">1</text><text fill="#000000" font-family="sans-serif" font-size="13" lengthAdjust="spacingAndGlyphs" textLength="8" x="212.2875" y="376.8889">1</text><!--MD5=[0bf675f16fbaf9ae71c3659ee262a45e]
link Platform to Writer--><path d="M176.938,301.929 C140.257,328.088 94,371.486 94,424 C94,424 94,424 94,708.5 C94,745.097 94,787.2341 94,814.7861 " fill="none" id="Platform-Writer" style="stroke: #A80036; stroke-width: 1.0;"/><text fill="#000000" font-family="sans-serif" font-size="13" lengthAdjust="spacingAndGlyphs" textLength="23" x="95" y="574.0669">has</text><text fill="#000000" font-family="sans-serif" font-size="13" lengthAdjust="spacingAndGlyphs" textLength="8" x="160.9777" y="302.4228">1</text><text fill="#000000" font-family="sans-serif" font-size="13" lengthAdjust="spacingAndGlyphs" textLength="8" x="85.175" y="804.0052">1</text><!--MD5=[49ce8ea186f6865d1a47f1469d32fd2e]
link RegisterFreelancer to Freelancer--><path d="M236.356,462.153 C251.456,497.46 275.326,552.641 297,600 C308.944,626.097 323.077,655.502 333.432,676.791 " fill="none" id="RegisterFreelancer-Freelancer" style="stroke: #A80036; stroke-width: 1.0;"/><text fill="#000000" font-family="sans-serif" font-size="13" lengthAdjust="spacingAndGlyphs" textLength="23" x="298" y="574.0669">has</text><text fill="#000000" font-family="sans-serif" font-size="13" lengthAdjust="spacingAndGlyphs" textLength="8" x="230.2368" y="481.6589">1</text><text fill="#000000" font-family="sans-serif" font-size="13" lengthAdjust="spacingAndGlyphs" textLength="7" x="322.7055" y="666.0111">*</text><!--MD5=[8853e9d83a8841c20c4ef075af762602]
link Task to Freelancer--><path d="M486.559,455.753 C456.797,509.613 394.316,622.684 364.506,676.63 " fill="none" id="Task-Freelancer" style="stroke: #A80036; stroke-width: 1.0;"/><text fill="#000000" font-family="sans-serif" font-size="13" lengthAdjust="spacingAndGlyphs" textLength="57" x="440" y="574.0669">made by</text><text fill="#000000" font-family="sans-serif" font-size="13" lengthAdjust="spacingAndGlyphs" textLength="8" x="474.5347" y="475.3833">1</text><text fill="#000000" font-family="sans-serif" font-size="13" lengthAdjust="spacingAndGlyphs" textLength="8" x="359.0854" y="665.8169">1</text><!--MD5=[535e17355da54b57e77a1c7dbde973e0]
link Freelancer to Writer--><path d="M299.327,734.561 C256.4,757.546 193.886,791.0176 149.128,814.9828 " fill="none" id="Freelancer-Writer" style="stroke: #A80036; stroke-width: 1.0;"/><text fill="#000000" font-family="sans-serif" font-size="13" lengthAdjust="spacingAndGlyphs" textLength="128" x="238" y="781.0669">receives email from</text><text fill="#000000" font-family="sans-serif" font-size="13" lengthAdjust="spacingAndGlyphs" textLength="8" x="283.5907" y="734.525">1</text><text fill="#000000" font-family="sans-serif" font-size="13" lengthAdjust="spacingAndGlyphs" textLength="8" x="152.3122" y="803.7693">1</text><!--MD5=[14c738364c5fdafcb97ced6863906d7f]
link TaskList to Task--><path d="M559.803,304.794 C547.42,330.782 529.549,368.285 517.173,394.257 " fill="none" id="TaskList-Task" style="stroke: #A80036; stroke-width: 1.0;"/><text fill="#000000" font-family="sans-serif" font-size="13" lengthAdjust="spacingAndGlyphs" textLength="23" x="542" y="354.0669">has</text><text fill="#000000" font-family="sans-serif" font-size="13" lengthAdjust="spacingAndGlyphs" textLength="8" x="548.2205" y="324.4323">1</text><text fill="#000000" font-family="sans-serif" font-size="13" lengthAdjust="spacingAndGlyphs" textLength="7" x="512.3743" y="383.4701">*</text><!--MD5=[bdc7b78a1b1f03a53fec8289ba75cac4]
link Task to TaskExecution--><path d="M520.819,455.526 C535.481,479.82 556.172,514.105 570.908,538.521 " fill="none" id="Task-TaskExecution" style="stroke: #A80036; stroke-width: 1.0;"/><text fill="#000000" font-family="sans-serif" font-size="13" lengthAdjust="spacingAndGlyphs" textLength="23" x="553" y="505.0669">has</text><text fill="#000000" font-family="sans-serif" font-size="13" lengthAdjust="spacingAndGlyphs" textLength="8" x="515.6692" y="475.4696">1</text><text fill="#000000" font-family="sans-serif" font-size="13" lengthAdjust="spacingAndGlyphs" textLength="8" x="558.5586" y="528.0446">1</text><!--MD5=[b5492b811c5199351212545c210346d5]
link TaskExecution to Freelancer--><path d="M541.462,600.077 C517.782,614.568 488.596,632.067 462,647 C440.781,658.913 416.964,671.469 396.609,681.959 " fill="none" id="TaskExecution-Freelancer" style="stroke: #A80036; stroke-width: 1.0;"/><text fill="#000000" font-family="sans-serif" font-size="13" lengthAdjust="spacingAndGlyphs" textLength="139" x="492" y="643.0669">related to the work of</text><text fill="#000000" font-family="sans-serif" font-size="13" lengthAdjust="spacingAndGlyphs" textLength="8" x="522.8323" y="620.0311">1</text><text fill="#000000" font-family="sans-serif" font-size="13" lengthAdjust="spacingAndGlyphs" textLength="8" x="404.3359" y="674.1971">1</text><!--MD5=[e423a4b5ca1679673fcbcc06644d6a0c]
@startuml
skinparam classAttributeIconSize 0

class WarnAboutFreelancerPerformanceUI{
}

class WarnAboutFreelancerPerformanceController{
    +sendEmail()
}

class Platform {
    +sendEmail()
    +getWriter()
}

class RegisterFreelancer {
    +getListFreelancers()
    +getDelayProb()
}

class Freelancer{
    +getTaskList()
}

class TaskList{
    +getTaskList()
}

class Task{
    +getTexec()
}

class TaskExecution{
    +getTaskDelay()
}

class Writer {
    +sendEmail(free)
} 

WarnAboutFreelancerPerformanceUI ..> WarnAboutFreelancerPerformanceController

WarnAboutFreelancerPerformanceController ..> Platform
WarnAboutFreelancerPerformanceController ..> RegisterFreelancer
WarnAboutFreelancerPerformanceController ..> Freelancer
WarnAboutFreelancerPerformanceController ..> TaskList
WarnAboutFreelancerPerformanceController ..> Task
WarnAboutFreelancerPerformanceController ..> TaskExecution
WarnAboutFreelancerPerformanceController ..> Writer

Platform "1"- - "1" RegisterFreelancer: has
Platform "1"- - "1" Writer: has

RegisterFreelancer "1" - -  "*" Freelancer: has

Task "1" - - "1" Freelancer: made by

Freelancer "1" - - "1" Writer: receives email from

TaskList "1" - - "*" Task: has 

Task "1" - - "1" TaskExecution : has    

TaskExecution "1" - - "1" Freelancer: related to the work of
@enduml

PlantUML version 1.2020.12(Sat Jun 06 10:54:15 UTC 2020)
(GPL source distribution)
Java Runtime: Java(TM) SE Runtime Environment
JVM: Java HotSpot(TM) 64-Bit Server VM
Default Encoding: UTF-8
Language: en
Country: US
--></g></svg>