<?xml version="1.0" encoding="UTF-8" standalone="no"?><svg xmlns="http://www.w3.org/2000/svg" xmlns:xlink="http://www.w3.org/1999/xlink" contentScriptType="application/ecmascript" contentStyleType="text/css" height="1269px" preserveAspectRatio="none" style="width:846px;height:1269px;" version="1.1" viewBox="0 0 846 1269" width="846px" zoomAndPan="magnify"><defs><filter height="300%" id="f1w3j4iz1dk9l2" width="300%" x="-1" y="-1"><feGaussianBlur result="blurOut" stdDeviation="2.0"/><feColorMatrix in="blurOut" result="blurOut2" type="matrix" values="0 0 0 0 0 0 0 0 0 0 0 0 0 0 0 0 0 0 .4 0"/><feOffset dx="4.0" dy="4.0" in="blurOut2" result="blurOut3"/><feBlend in="SourceGraphic" in2="blurOut3" mode="normal"/></filter></defs><g><!--MD5=[a40557e6e85d4da4ca6f03c9286aad25]
class CreateTransactionUI--><rect fill="#FEFECE" filter="url(#f1w3j4iz1dk9l2)" height="48" id="CreateTransactionUI" style="stroke: #A80036; stroke-width: 1.5;" width="160" x="287" y="8"/><ellipse cx="302" cy="24" fill="#ADD1B2" rx="11" ry="11" style="stroke: #A80036; stroke-width: 1.0;"/><path d="M304.9688,29.6406 Q304.3906,29.9375 303.75,30.0859 Q303.1094,30.2344 302.4063,30.2344 Q299.9063,30.2344 298.5859,28.5859 Q297.2656,26.9375 297.2656,23.8125 Q297.2656,20.6875 298.5859,19.0313 Q299.9063,17.375 302.4063,17.375 Q303.1094,17.375 303.7578,17.5313 Q304.4063,17.6875 304.9688,17.9844 L304.9688,20.7031 Q304.3438,20.125 303.75,19.8516 Q303.1563,19.5781 302.5313,19.5781 Q301.1875,19.5781 300.5,20.6484 Q299.8125,21.7188 299.8125,23.8125 Q299.8125,25.9063 300.5,26.9766 Q301.1875,28.0469 302.5313,28.0469 Q303.1563,28.0469 303.75,27.7734 Q304.3438,27.5 304.9688,26.9219 L304.9688,29.6406 Z "/><text fill="#000000" font-family="sans-serif" font-size="12" lengthAdjust="spacingAndGlyphs" textLength="128" x="316" y="28.1543">CreateTransactionUI</text><line style="stroke: #A80036; stroke-width: 1.5;" x1="288" x2="446" y1="40" y2="40"/><line style="stroke: #A80036; stroke-width: 1.5;" x1="288" x2="446" y1="48" y2="48"/><!--MD5=[68b9bdc8d17948337917a4afca18f499]
class CreateTransactionController--><rect fill="#FEFECE" filter="url(#f1w3j4iz1dk9l2)" height="99.2188" id="CreateTransactionController" style="stroke: #A80036; stroke-width: 1.5;" width="343" x="195.5" y="117"/><ellipse cx="274.25" cy="133" fill="#ADD1B2" rx="11" ry="11" style="stroke: #A80036; stroke-width: 1.0;"/><path d="M277.2188,138.6406 Q276.6406,138.9375 276,139.0859 Q275.3594,139.2344 274.6563,139.2344 Q272.1563,139.2344 270.8359,137.5859 Q269.5156,135.9375 269.5156,132.8125 Q269.5156,129.6875 270.8359,128.0313 Q272.1563,126.375 274.6563,126.375 Q275.3594,126.375 276.0078,126.5313 Q276.6563,126.6875 277.2188,126.9844 L277.2188,129.7031 Q276.5938,129.125 276,128.8516 Q275.4063,128.5781 274.7813,128.5781 Q273.4375,128.5781 272.75,129.6484 Q272.0625,130.7188 272.0625,132.8125 Q272.0625,134.9063 272.75,135.9766 Q273.4375,137.0469 274.7813,137.0469 Q275.4063,137.0469 276,136.7734 Q276.5938,136.5 277.2188,135.9219 L277.2188,138.6406 Z "/><text fill="#000000" font-family="sans-serif" font-size="12" lengthAdjust="spacingAndGlyphs" textLength="177" x="294.75" y="137.1543">CreateTransactionController</text><line style="stroke: #A80036; stroke-width: 1.5;" x1="196.5" x2="537.5" y1="149" y2="149"/><line style="stroke: #A80036; stroke-width: 1.5;" x1="196.5" x2="537.5" y1="157" y2="157"/><ellipse cx="206.5" cy="168" fill="#84BE84" rx="3" ry="3" style="stroke: #038048; stroke-width: 1.0;"/><text fill="#000000" font-family="sans-serif" font-size="11" lengthAdjust="spacingAndGlyphs" textLength="73" x="215.5" y="171.2104">getTaskList()</text><ellipse cx="206.5" cy="180.8047" fill="#84BE84" rx="3" ry="3" style="stroke: #038048; stroke-width: 1.0;"/><text fill="#000000" font-family="sans-serif" font-size="11" lengthAdjust="spacingAndGlyphs" textLength="106" x="215.5" y="184.0151">getFreelancerList()</text><ellipse cx="206.5" cy="193.6094" fill="#84BE84" rx="3" ry="3" style="stroke: #038048; stroke-width: 1.0;"/><text fill="#000000" font-family="sans-serif" font-size="11" lengthAdjust="spacingAndGlyphs" textLength="317" x="215.5" y="196.8198">createNewTransaction(task, freel, endDate, delay, qow)</text><ellipse cx="206.5" cy="206.4141" fill="#84BE84" rx="3" ry="3" style="stroke: #038048; stroke-width: 1.0;"/><text fill="#000000" font-family="sans-serif" font-size="11" lengthAdjust="spacingAndGlyphs" textLength="120" x="215.5" y="209.6245">registerTransaction()</text><!--MD5=[86c7c362de55a38b660185a1328fe18d]
class Organization--><rect fill="#FEFECE" filter="url(#f1w3j4iz1dk9l2)" height="99.2188" id="Organization" style="stroke: #A80036; stroke-width: 1.5;" width="110" x="696" y="428"/><ellipse cx="711" cy="444" fill="#ADD1B2" rx="11" ry="11" style="stroke: #A80036; stroke-width: 1.0;"/><path d="M713.9688,449.6406 Q713.3906,449.9375 712.75,450.0859 Q712.1094,450.2344 711.4063,450.2344 Q708.9063,450.2344 707.5859,448.5859 Q706.2656,446.9375 706.2656,443.8125 Q706.2656,440.6875 707.5859,439.0313 Q708.9063,437.375 711.4063,437.375 Q712.1094,437.375 712.7578,437.5313 Q713.4063,437.6875 713.9688,437.9844 L713.9688,440.7031 Q713.3438,440.125 712.75,439.8516 Q712.1563,439.5781 711.5313,439.5781 Q710.1875,439.5781 709.5,440.6484 Q708.8125,441.7188 708.8125,443.8125 Q708.8125,445.9063 709.5,446.9766 Q710.1875,448.0469 711.5313,448.0469 Q712.1563,448.0469 712.75,447.7734 Q713.3438,447.5 713.9688,446.9219 L713.9688,449.6406 Z "/><text fill="#000000" font-family="sans-serif" font-size="12" lengthAdjust="spacingAndGlyphs" textLength="78" x="725" y="448.1543">Organization</text><line style="stroke: #A80036; stroke-width: 1.5;" x1="697" x2="805" y1="460" y2="460"/><rect fill="none" height="6" style="stroke: #C82930; stroke-width: 1.0;" width="6" x="704" y="468"/><text fill="#000000" font-family="sans-serif" font-size="11" lengthAdjust="spacingAndGlyphs" textLength="70" x="716" y="474.2104">String nome</text><rect fill="none" height="6" style="stroke: #C82930; stroke-width: 1.0;" width="6" x="704" y="480.8047"/><text fill="#000000" font-family="sans-serif" font-size="11" lengthAdjust="spacingAndGlyphs" textLength="69" x="716" y="487.0151">String email</text><rect fill="none" height="6" style="stroke: #C82930; stroke-width: 1.0;" width="6" x="704" y="493.6094"/><text fill="#000000" font-family="sans-serif" font-size="11" lengthAdjust="spacingAndGlyphs" textLength="52" x="716" y="499.8198">String nif</text><line style="stroke: #A80036; stroke-width: 1.5;" x1="697" x2="805" y1="506.4141" y2="506.4141"/><ellipse cx="707" cy="517.4141" fill="#84BE84" rx="3" ry="3" style="stroke: #038048; stroke-width: 1.0;"/><text fill="#000000" font-family="sans-serif" font-size="11" lengthAdjust="spacingAndGlyphs" textLength="39" x="716" y="520.6245">getTL()</text><!--MD5=[cf2635f8a68afd84898027166f4516bc]
class TaskList--><rect fill="#FEFECE" filter="url(#f1w3j4iz1dk9l2)" height="60.8047" id="TaskList" style="stroke: #A80036; stroke-width: 1.5;" width="99" x="592.5" y="610.5"/><ellipse cx="615.15" cy="626.5" fill="#ADD1B2" rx="11" ry="11" style="stroke: #A80036; stroke-width: 1.0;"/><path d="M618.1188,632.1406 Q617.5406,632.4375 616.9,632.5859 Q616.2594,632.7344 615.5563,632.7344 Q613.0563,632.7344 611.7359,631.0859 Q610.4156,629.4375 610.4156,626.3125 Q610.4156,623.1875 611.7359,621.5313 Q613.0563,619.875 615.5563,619.875 Q616.2594,619.875 616.9078,620.0313 Q617.5563,620.1875 618.1188,620.4844 L618.1188,623.2031 Q617.4938,622.625 616.9,622.3516 Q616.3063,622.0781 615.6813,622.0781 Q614.3375,622.0781 613.65,623.1484 Q612.9625,624.2188 612.9625,626.3125 Q612.9625,628.4063 613.65,629.4766 Q614.3375,630.5469 615.6813,630.5469 Q616.3063,630.5469 616.9,630.2734 Q617.4938,630 618.1188,629.4219 L618.1188,632.1406 Z "/><text fill="#000000" font-family="sans-serif" font-size="12" lengthAdjust="spacingAndGlyphs" textLength="50" x="630.85" y="630.6543">TaskList</text><line style="stroke: #A80036; stroke-width: 1.5;" x1="593.5" x2="690.5" y1="642.5" y2="642.5"/><line style="stroke: #A80036; stroke-width: 1.5;" x1="593.5" x2="690.5" y1="650.5" y2="650.5"/><ellipse cx="603.5" cy="661.5" fill="#84BE84" rx="3" ry="3" style="stroke: #038048; stroke-width: 1.0;"/><text fill="#000000" font-family="sans-serif" font-size="11" lengthAdjust="spacingAndGlyphs" textLength="73" x="612.5" y="664.7104">getTaskList()</text><!--MD5=[99b8db98afdc2c8404e39242ef4c1e65]
class Platform--><rect fill="#FEFECE" filter="url(#f1w3j4iz1dk9l2)" height="73.6094" id="Platform" style="stroke: #A80036; stroke-width: 1.5;" width="84" x="376" y="277"/><ellipse cx="391" cy="293" fill="#ADD1B2" rx="11" ry="11" style="stroke: #A80036; stroke-width: 1.0;"/><path d="M393.9688,298.6406 Q393.3906,298.9375 392.75,299.0859 Q392.1094,299.2344 391.4063,299.2344 Q388.9063,299.2344 387.5859,297.5859 Q386.2656,295.9375 386.2656,292.8125 Q386.2656,289.6875 387.5859,288.0313 Q388.9063,286.375 391.4063,286.375 Q392.1094,286.375 392.7578,286.5313 Q393.4063,286.6875 393.9688,286.9844 L393.9688,289.7031 Q393.3438,289.125 392.75,288.8516 Q392.1563,288.5781 391.5313,288.5781 Q390.1875,288.5781 389.5,289.6484 Q388.8125,290.7188 388.8125,292.8125 Q388.8125,294.9063 389.5,295.9766 Q390.1875,297.0469 391.5313,297.0469 Q392.1563,297.0469 392.75,296.7734 Q393.3438,296.5 393.9688,295.9219 L393.9688,298.6406 Z "/><text fill="#000000" font-family="sans-serif" font-size="12" lengthAdjust="spacingAndGlyphs" textLength="52" x="405" y="297.1543">Platform</text><line style="stroke: #A80036; stroke-width: 1.5;" x1="377" x2="459" y1="309" y2="309"/><line style="stroke: #A80036; stroke-width: 1.5;" x1="377" x2="459" y1="317" y2="317"/><ellipse cx="387" cy="328" fill="#84BE84" rx="3" ry="3" style="stroke: #038048; stroke-width: 1.0;"/><text fill="#000000" font-family="sans-serif" font-size="11" lengthAdjust="spacingAndGlyphs" textLength="39" x="396" y="331.2104">getRF()</text><ellipse cx="387" cy="340.8047" fill="#84BE84" rx="3" ry="3" style="stroke: #038048; stroke-width: 1.0;"/><text fill="#000000" font-family="sans-serif" font-size="11" lengthAdjust="spacingAndGlyphs" textLength="40" x="396" y="344.0151">getRT()</text><!--MD5=[6735b55cc4e757c70976e457f6d95f3d]
class RegisterFreelancer--><rect fill="#FEFECE" filter="url(#f1w3j4iz1dk9l2)" height="60.8047" id="RegisterFreelancer" style="stroke: #A80036; stroke-width: 1.5;" width="151" x="436.5" y="447"/><ellipse cx="451.5" cy="463" fill="#ADD1B2" rx="11" ry="11" style="stroke: #A80036; stroke-width: 1.0;"/><path d="M454.4688,468.6406 Q453.8906,468.9375 453.25,469.0859 Q452.6094,469.2344 451.9063,469.2344 Q449.4063,469.2344 448.0859,467.5859 Q446.7656,465.9375 446.7656,462.8125 Q446.7656,459.6875 448.0859,458.0313 Q449.4063,456.375 451.9063,456.375 Q452.6094,456.375 453.2578,456.5313 Q453.9063,456.6875 454.4688,456.9844 L454.4688,459.7031 Q453.8438,459.125 453.25,458.8516 Q452.6563,458.5781 452.0313,458.5781 Q450.6875,458.5781 450,459.6484 Q449.3125,460.7188 449.3125,462.8125 Q449.3125,464.9063 450,465.9766 Q450.6875,467.0469 452.0313,467.0469 Q452.6563,467.0469 453.25,466.7734 Q453.8438,466.5 454.4688,465.9219 L454.4688,468.6406 Z "/><text fill="#000000" font-family="sans-serif" font-size="12" lengthAdjust="spacingAndGlyphs" textLength="119" x="465.5" y="467.1543">RegisterFreelancer</text><line style="stroke: #A80036; stroke-width: 1.5;" x1="437.5" x2="586.5" y1="479" y2="479"/><line style="stroke: #A80036; stroke-width: 1.5;" x1="437.5" x2="586.5" y1="487" y2="487"/><ellipse cx="447.5" cy="498" fill="#84BE84" rx="3" ry="3" style="stroke: #038048; stroke-width: 1.0;"/><text fill="#000000" font-family="sans-serif" font-size="11" lengthAdjust="spacingAndGlyphs" textLength="106" x="456.5" y="501.2104">getFreelancerList()</text><!--MD5=[f6ed7daa03e434106607816c975112f0]
class RegisterTransaction--><rect fill="#FEFECE" filter="url(#f1w3j4iz1dk9l2)" height="99.2188" id="RegisterTransaction" style="stroke: #A80036; stroke-width: 1.5;" width="343" x="58.5" y="428"/><ellipse cx="162.75" cy="444" fill="#ADD1B2" rx="11" ry="11" style="stroke: #A80036; stroke-width: 1.0;"/><path d="M165.7188,449.6406 Q165.1406,449.9375 164.5,450.0859 Q163.8594,450.2344 163.1563,450.2344 Q160.6563,450.2344 159.3359,448.5859 Q158.0156,446.9375 158.0156,443.8125 Q158.0156,440.6875 159.3359,439.0313 Q160.6563,437.375 163.1563,437.375 Q163.8594,437.375 164.5078,437.5313 Q165.1563,437.6875 165.7188,437.9844 L165.7188,440.7031 Q165.0938,440.125 164.5,439.8516 Q163.9063,439.5781 163.2813,439.5781 Q161.9375,439.5781 161.25,440.6484 Q160.5625,441.7188 160.5625,443.8125 Q160.5625,445.9063 161.25,446.9766 Q161.9375,448.0469 163.2813,448.0469 Q163.9063,448.0469 164.5,447.7734 Q165.0938,447.5 165.7188,446.9219 L165.7188,449.6406 Z "/><text fill="#000000" font-family="sans-serif" font-size="12" lengthAdjust="spacingAndGlyphs" textLength="126" x="183.25" y="448.1543">RegisterTransaction</text><line style="stroke: #A80036; stroke-width: 1.5;" x1="59.5" x2="400.5" y1="460" y2="460"/><line style="stroke: #A80036; stroke-width: 1.5;" x1="59.5" x2="400.5" y1="468" y2="468"/><ellipse cx="69.5" cy="479" fill="#84BE84" rx="3" ry="3" style="stroke: #038048; stroke-width: 1.0;"/><text fill="#000000" font-family="sans-serif" font-size="11" lengthAdjust="spacingAndGlyphs" textLength="317" x="78.5" y="482.2104">createNewTransaction(task, freel, endDate, delay, qow)</text><ellipse cx="69.5" cy="491.8047" fill="#84BE84" rx="3" ry="3" style="stroke: #038048; stroke-width: 1.0;"/><text fill="#000000" font-family="sans-serif" font-size="11" lengthAdjust="spacingAndGlyphs" textLength="150" x="78.5" y="495.0151">registerTransaction(trans)</text><ellipse cx="69.5" cy="504.6094" fill="#84BE84" rx="3" ry="3" style="stroke: #038048; stroke-width: 1.0;"/><text fill="#000000" font-family="sans-serif" font-size="11" lengthAdjust="spacingAndGlyphs" textLength="149" x="78.5" y="507.8198">validateTransaction(trans)</text><ellipse cx="69.5" cy="517.4141" fill="#84BE84" rx="3" ry="3" style="stroke: #038048; stroke-width: 1.0;"/><text fill="#000000" font-family="sans-serif" font-size="11" lengthAdjust="spacingAndGlyphs" textLength="126" x="78.5" y="520.6245">addTransaction(trans)</text><!--MD5=[4555bb1b0911a5adf28ce6dbe60fed2e]
class Transaction--><rect fill="#FEFECE" filter="url(#f1w3j4iz1dk9l2)" height="99.2188" id="Transaction" style="stroke: #A80036; stroke-width: 1.5;" width="252" x="204" y="1159"/><ellipse cx="288.75" cy="1175" fill="#ADD1B2" rx="11" ry="11" style="stroke: #A80036; stroke-width: 1.0;"/><path d="M291.7188,1180.6406 Q291.1406,1180.9375 290.5,1181.0859 Q289.8594,1181.2344 289.1563,1181.2344 Q286.6563,1181.2344 285.3359,1179.5859 Q284.0156,1177.9375 284.0156,1174.8125 Q284.0156,1171.6875 285.3359,1170.0313 Q286.6563,1168.375 289.1563,1168.375 Q289.8594,1168.375 290.5078,1168.5313 Q291.1563,1168.6875 291.7188,1168.9844 L291.7188,1171.7031 Q291.0938,1171.125 290.5,1170.8516 Q289.9063,1170.5781 289.2813,1170.5781 Q287.9375,1170.5781 287.25,1171.6484 Q286.5625,1172.7188 286.5625,1174.8125 Q286.5625,1176.9063 287.25,1177.9766 Q287.9375,1179.0469 289.2813,1179.0469 Q289.9063,1179.0469 290.5,1178.7734 Q291.0938,1178.5 291.7188,1177.9219 L291.7188,1180.6406 Z "/><text fill="#000000" font-family="sans-serif" font-size="12" lengthAdjust="spacingAndGlyphs" textLength="74" x="309.25" y="1179.1543">Transaction</text><line style="stroke: #A80036; stroke-width: 1.5;" x1="205" x2="455" y1="1191" y2="1191"/><rect fill="none" height="6" style="stroke: #C82930; stroke-width: 1.0;" width="6" x="212" y="1199"/><text fill="#000000" font-family="sans-serif" font-size="11" lengthAdjust="spacingAndGlyphs" textLength="77" x="224" y="1205.2104">Data endDate</text><rect fill="none" height="6" style="stroke: #C82930; stroke-width: 1.0;" width="6" x="212" y="1211.8047"/><text fill="#000000" font-family="sans-serif" font-size="11" lengthAdjust="spacingAndGlyphs" textLength="72" x="224" y="1218.0151">double delay</text><rect fill="none" height="6" style="stroke: #C82930; stroke-width: 1.0;" width="6" x="212" y="1224.6094"/><text fill="#000000" font-family="sans-serif" font-size="11" lengthAdjust="spacingAndGlyphs" textLength="153" x="224" y="1230.8198">String descriptionOfQuality</text><line style="stroke: #A80036; stroke-width: 1.5;" x1="205" x2="455" y1="1237.4141" y2="1237.4141"/><ellipse cx="215" cy="1248.4141" fill="#84BE84" rx="3" ry="3" style="stroke: #038048; stroke-width: 1.0;"/><text fill="#000000" font-family="sans-serif" font-size="11" lengthAdjust="spacingAndGlyphs" textLength="226" x="224" y="1251.6245">create(task, freel, endDate, delay, qow)</text><!--MD5=[1f687b5315377fe49fca59b457947463]
class Freelancer--><rect fill="#FEFECE" filter="url(#f1w3j4iz1dk9l2)" height="137.6328" id="Freelancer" style="stroke: #A80036; stroke-width: 1.5;" width="143" x="393.5" y="944"/><ellipse cx="428.3" cy="960" fill="#ADD1B2" rx="11" ry="11" style="stroke: #A80036; stroke-width: 1.0;"/><path d="M431.2688,965.6406 Q430.6906,965.9375 430.05,966.0859 Q429.4094,966.2344 428.7063,966.2344 Q426.2063,966.2344 424.8859,964.5859 Q423.5656,962.9375 423.5656,959.8125 Q423.5656,956.6875 424.8859,955.0313 Q426.2063,953.375 428.7063,953.375 Q429.4094,953.375 430.0578,953.5313 Q430.7063,953.6875 431.2688,953.9844 L431.2688,956.7031 Q430.6438,956.125 430.05,955.8516 Q429.4563,955.5781 428.8313,955.5781 Q427.4875,955.5781 426.8,956.6484 Q426.1125,957.7188 426.1125,959.8125 Q426.1125,961.9063 426.8,962.9766 Q427.4875,964.0469 428.8313,964.0469 Q429.4563,964.0469 430.05,963.7734 Q430.6438,963.5 431.2688,962.9219 L431.2688,965.6406 Z "/><text fill="#000000" font-family="sans-serif" font-size="12" lengthAdjust="spacingAndGlyphs" textLength="67" x="446.7" y="964.1543">Freelancer</text><line style="stroke: #A80036; stroke-width: 1.5;" x1="394.5" x2="535.5" y1="976" y2="976"/><rect fill="none" height="6" style="stroke: #C82930; stroke-width: 1.0;" width="6" x="401.5" y="984"/><text fill="#000000" font-family="sans-serif" font-size="11" lengthAdjust="spacingAndGlyphs" textLength="54" x="413.5" y="990.2104">String idF</text><rect fill="none" height="6" style="stroke: #C82930; stroke-width: 1.0;" width="6" x="401.5" y="996.8047"/><text fill="#000000" font-family="sans-serif" font-size="11" lengthAdjust="spacingAndGlyphs" textLength="70" x="413.5" y="1003.0151">String name</text><rect fill="none" height="6" style="stroke: #C82930; stroke-width: 1.0;" width="6" x="401.5" y="1009.6094"/><text fill="#000000" font-family="sans-serif" font-size="11" lengthAdjust="spacingAndGlyphs" textLength="117" x="413.5" y="1015.8198">String levelExpertise</text><rect fill="none" height="6" style="stroke: #C82930; stroke-width: 1.0;" width="6" x="401.5" y="1022.4141"/><text fill="#000000" font-family="sans-serif" font-size="11" lengthAdjust="spacingAndGlyphs" textLength="69" x="413.5" y="1028.6245">String email</text><rect fill="none" height="6" style="stroke: #C82930; stroke-width: 1.0;" width="6" x="401.5" y="1035.2188"/><text fill="#000000" font-family="sans-serif" font-size="11" lengthAdjust="spacingAndGlyphs" textLength="52" x="413.5" y="1041.4292">String nif</text><rect fill="none" height="6" style="stroke: #C82930; stroke-width: 1.0;" width="6" x="401.5" y="1048.0234"/><text fill="#000000" font-family="sans-serif" font-size="11" lengthAdjust="spacingAndGlyphs" textLength="106" x="413.5" y="1054.2339">String ibanAccount</text><rect fill="none" height="6" style="stroke: #C82930; stroke-width: 1.0;" width="6" x="401.5" y="1060.8281"/><text fill="#000000" font-family="sans-serif" font-size="11" lengthAdjust="spacingAndGlyphs" textLength="80" x="413.5" y="1067.0386">String country</text><line style="stroke: #A80036; stroke-width: 1.5;" x1="394.5" x2="535.5" y1="1073.6328" y2="1073.6328"/><!--MD5=[f483d6e5de34a60207b28a5563be5e8b]
class Collaborator--><rect fill="#FEFECE" filter="url(#f1w3j4iz1dk9l2)" height="73.6094" id="Collaborator" style="stroke: #A80036; stroke-width: 1.5;" width="109" x="726.5" y="604"/><ellipse cx="741.5" cy="620" fill="#ADD1B2" rx="11" ry="11" style="stroke: #A80036; stroke-width: 1.0;"/><path d="M744.4688,625.6406 Q743.8906,625.9375 743.25,626.0859 Q742.6094,626.2344 741.9063,626.2344 Q739.4063,626.2344 738.0859,624.5859 Q736.7656,622.9375 736.7656,619.8125 Q736.7656,616.6875 738.0859,615.0313 Q739.4063,613.375 741.9063,613.375 Q742.6094,613.375 743.2578,613.5313 Q743.9063,613.6875 744.4688,613.9844 L744.4688,616.7031 Q743.8438,616.125 743.25,615.8516 Q742.6563,615.5781 742.0313,615.5781 Q740.6875,615.5781 740,616.6484 Q739.3125,617.7188 739.3125,619.8125 Q739.3125,621.9063 740,622.9766 Q740.6875,624.0469 742.0313,624.0469 Q742.6563,624.0469 743.25,623.7734 Q743.8438,623.5 744.4688,622.9219 L744.4688,625.6406 Z "/><text fill="#000000" font-family="sans-serif" font-size="12" lengthAdjust="spacingAndGlyphs" textLength="77" x="755.5" y="624.1543">Collaborator</text><line style="stroke: #A80036; stroke-width: 1.5;" x1="727.5" x2="834.5" y1="636" y2="636"/><rect fill="none" height="6" style="stroke: #C82930; stroke-width: 1.0;" width="6" x="734.5" y="644"/><text fill="#000000" font-family="sans-serif" font-size="11" lengthAdjust="spacingAndGlyphs" textLength="70" x="746.5" y="650.2104">String nome</text><rect fill="none" height="6" style="stroke: #C82930; stroke-width: 1.0;" width="6" x="734.5" y="656.8047"/><text fill="#000000" font-family="sans-serif" font-size="11" lengthAdjust="spacingAndGlyphs" textLength="69" x="746.5" y="663.0151">String email</text><line style="stroke: #A80036; stroke-width: 1.5;" x1="727.5" x2="834.5" y1="669.6094" y2="669.6094"/><!--MD5=[b34797a66dc35cbf1d65f7e3ca75530e]
class Task--><rect fill="#FEFECE" filter="url(#f1w3j4iz1dk9l2)" height="112.0234" id="Task" style="stroke: #A80036; stroke-width: 1.5;" width="139" x="518.5" y="755"/><ellipse cx="569.25" cy="771" fill="#ADD1B2" rx="11" ry="11" style="stroke: #A80036; stroke-width: 1.0;"/><path d="M572.2188,776.6406 Q571.6406,776.9375 571,777.0859 Q570.3594,777.2344 569.6563,777.2344 Q567.1563,777.2344 565.8359,775.5859 Q564.5156,773.9375 564.5156,770.8125 Q564.5156,767.6875 565.8359,766.0313 Q567.1563,764.375 569.6563,764.375 Q570.3594,764.375 571.0078,764.5313 Q571.6563,764.6875 572.2188,764.9844 L572.2188,767.7031 Q571.5938,767.125 571,766.8516 Q570.4063,766.5781 569.7813,766.5781 Q568.4375,766.5781 567.75,767.6484 Q567.0625,768.7188 567.0625,770.8125 Q567.0625,772.9063 567.75,773.9766 Q568.4375,775.0469 569.7813,775.0469 Q570.4063,775.0469 571,774.7734 Q571.5938,774.5 572.2188,773.9219 L572.2188,776.6406 Z "/><text fill="#000000" font-family="sans-serif" font-size="12" lengthAdjust="spacingAndGlyphs" textLength="29" x="589.75" y="775.1543">Task</text><line style="stroke: #A80036; stroke-width: 1.5;" x1="519.5" x2="656.5" y1="787" y2="787"/><rect fill="none" height="6" style="stroke: #C82930; stroke-width: 1.0;" width="6" x="526.5" y="795"/><text fill="#000000" font-family="sans-serif" font-size="11" lengthAdjust="spacingAndGlyphs" textLength="55" x="538.5" y="801.2104">String idT</text><rect fill="none" height="6" style="stroke: #C82930; stroke-width: 1.0;" width="6" x="526.5" y="807.8047"/><text fill="#000000" font-family="sans-serif" font-size="11" lengthAdjust="spacingAndGlyphs" textLength="101" x="538.5" y="814.0151">String description</text><rect fill="none" height="6" style="stroke: #C82930; stroke-width: 1.0;" width="6" x="526.5" y="820.6094"/><text fill="#000000" font-family="sans-serif" font-size="11" lengthAdjust="spacingAndGlyphs" textLength="105" x="538.5" y="826.8198">Time timeDuration</text><rect fill="none" height="6" style="stroke: #C82930; stroke-width: 1.0;" width="6" x="526.5" y="833.4141"/><text fill="#000000" font-family="sans-serif" font-size="11" lengthAdjust="spacingAndGlyphs" textLength="93" x="538.5" y="839.6245">double costHour</text><rect fill="none" height="6" style="stroke: #C82930; stroke-width: 1.0;" width="6" x="526.5" y="846.2188"/><text fill="#000000" font-family="sans-serif" font-size="11" lengthAdjust="spacingAndGlyphs" textLength="113" x="538.5" y="852.4292">String taskCategory</text><line style="stroke: #A80036; stroke-width: 1.5;" x1="519.5" x2="656.5" y1="859.0234" y2="859.0234"/><!--MD5=[3fd616f346a44cd59a91eb10b19e157c]
class User--><rect fill="#FEFECE" filter="url(#f1w3j4iz1dk9l2)" height="48" id="User" style="stroke: #A80036; stroke-width: 1.5;" width="61" x="692.5" y="787"/><ellipse cx="707.5" cy="803" fill="#ADD1B2" rx="11" ry="11" style="stroke: #A80036; stroke-width: 1.0;"/><path d="M710.4688,808.6406 Q709.8906,808.9375 709.25,809.0859 Q708.6094,809.2344 707.9063,809.2344 Q705.4063,809.2344 704.0859,807.5859 Q702.7656,805.9375 702.7656,802.8125 Q702.7656,799.6875 704.0859,798.0313 Q705.4063,796.375 707.9063,796.375 Q708.6094,796.375 709.2578,796.5313 Q709.9063,796.6875 710.4688,796.9844 L710.4688,799.7031 Q709.8438,799.125 709.25,798.8516 Q708.6563,798.5781 708.0313,798.5781 Q706.6875,798.5781 706,799.6484 Q705.3125,800.7188 705.3125,802.8125 Q705.3125,804.9063 706,805.9766 Q706.6875,807.0469 708.0313,807.0469 Q708.6563,807.0469 709.25,806.7734 Q709.8438,806.5 710.4688,805.9219 L710.4688,808.6406 Z "/><text fill="#000000" font-family="sans-serif" font-size="12" lengthAdjust="spacingAndGlyphs" textLength="29" x="721.5" y="807.1543">User</text><line style="stroke: #A80036; stroke-width: 1.5;" x1="693.5" x2="752.5" y1="819" y2="819"/><line style="stroke: #A80036; stroke-width: 1.5;" x1="693.5" x2="752.5" y1="827" y2="827"/><!--MD5=[6688bada5bfda570a968c3148ca4366e]
link CreateTransactionController to Organization--><path d="M538.845,197.2971 C595.039,210.3696 648.3544,227.0009 669,246 C718.8464,291.871 738.4053,369.9689 746.0715,422.6261 " fill="none" id="CreateTransactionController-&gt;Organization" style="stroke: #A80036; stroke-width: 1.0; stroke-dasharray: 7.0,7.0;"/><polygon fill="#A80036" points="746.7768,427.6406,749.484,418.1711,746.0802,422.6894,741.562,419.2856,746.7768,427.6406" style="stroke: #A80036; stroke-width: 1.0;"/><!--MD5=[b8d26f89be4acaa564761097540fe4ea]
link CreateTransactionController to TaskList--><path d="M455.9267,216.0603 C513.6057,253.3716 584.569,310.1692 621,381 C658.2472,453.4176 653.5285,552.3865 647.4223,604.8731 " fill="none" id="CreateTransactionController-&gt;TaskList" style="stroke: #A80036; stroke-width: 1.0; stroke-dasharray: 7.0,7.0;"/><polygon fill="#A80036" points="646.7899,610.1134,651.8395,601.6576,647.389,605.1494,643.8972,600.6989,646.7899,610.1134" style="stroke: #A80036; stroke-width: 1.0;"/><!--MD5=[5c243492f641b59132f841fb4b8cf79b]
link CreateTransactionController to Platform--><path d="M384.1241,216.0257 C390.4194,234.2326 397.4809,254.6554 403.5208,272.124 " fill="none" id="CreateTransactionController-&gt;Platform" style="stroke: #A80036; stroke-width: 1.0; stroke-dasharray: 7.0,7.0;"/><polygon fill="#A80036" points="405.1959,276.9684,406.035,267.1554,403.5619,272.2429,398.4743,269.7698,405.1959,276.9684" style="stroke: #A80036; stroke-width: 1.0;"/><!--MD5=[358619db85e3bc17610864414eee935b]
link CreateTransactionController to RegisterFreelancer--><path d="M336.7353,216.097 C310.2527,266.5871 281.6457,344.7958 321,398 C348.088,434.6211 376.9235,410.552 419,428 C430.6341,432.8244 442.7381,438.6348 454.2175,444.5517 " fill="none" id="CreateTransactionController-&gt;RegisterFreelancer" style="stroke: #A80036; stroke-width: 1.0; stroke-dasharray: 7.0,7.0;"/><polygon fill="#A80036" points="458.7534,446.9116,452.6155,439.2092,454.3178,444.6039,448.9232,446.3062,458.7534,446.9116" style="stroke: #A80036; stroke-width: 1.0;"/><!--MD5=[a9fbaa0c029db555c642469a951c73d9]
link CreateTransactionController to RegisterTransaction--><path d="M296.4628,216.3694 C287.4565,225.3375 279.2263,235.2805 273,246 C241.4032,300.3982 232.2557,373.052 229.9853,422.3549 " fill="none" id="CreateTransactionController-&gt;RegisterTransaction" style="stroke: #A80036; stroke-width: 1.0; stroke-dasharray: 7.0,7.0;"/><polygon fill="#A80036" points="229.7638,427.6493,234.1367,418.8245,229.9729,422.6537,226.1438,418.4899,229.7638,427.6493" style="stroke: #A80036; stroke-width: 1.0;"/><!--MD5=[066fa29d1550b759016aef7322259445]
link CreateTransactionController to Transaction--><path d="M195.4864,205.1943 C102.3427,231.3533 6,269.2312 6,314 C6,314 6,314 6,1013 C6,1107.7822 108.9039,1157.8244 198.7258,1183.451 " fill="none" id="CreateTransactionController-&gt;Transaction" style="stroke: #A80036; stroke-width: 1.0; stroke-dasharray: 7.0,7.0;"/><polygon fill="#A80036" points="203.8054,1184.8785,196.2232,1178.5928,198.9919,1183.5258,194.0589,1186.2945,203.8054,1184.8785" style="stroke: #A80036; stroke-width: 1.0;"/><!--MD5=[22ffe80e9e3e83a03222f0f343985799]
link CreateTransactionUI to CreateTransactionController--><path d="M367,56.0459 C367,71.4478 367,92.0929 367,111.3652 " fill="none" id="CreateTransactionUI-&gt;CreateTransactionController" style="stroke: #A80036; stroke-width: 1.0; stroke-dasharray: 7.0,7.0;"/><polygon fill="#A80036" points="367,116.759,371,107.759,367,111.759,363,107.759,367,116.759" style="stroke: #A80036; stroke-width: 1.0;"/><!--MD5=[83bb469d45366b675450ee1d8d93a557]
link Freelancer to Transaction--><path d="M417.2141,1082.2011 C399.7685,1107.4648 380.3971,1135.5175 364.3506,1158.7552 " fill="none" id="Freelancer-Transaction" style="stroke: #A80036; stroke-width: 1.0;"/><text fill="#000000" font-family="sans-serif" font-size="13" lengthAdjust="spacingAndGlyphs" textLength="53" x="395" y="1125.0669">receives</text><polygon fill="#000000" points="417,1134.1328,420,1140.1328,423,1134.1328,417,1134.1328" style="stroke: #000000; stroke-width: 1.0;"/><text fill="#000000" font-family="sans-serif" font-size="13" lengthAdjust="spacingAndGlyphs" textLength="8" x="404.2783" y="1101.6024">1</text><text fill="#000000" font-family="sans-serif" font-size="13" lengthAdjust="spacingAndGlyphs" textLength="8" x="360.6187" y="1147.766">1</text><!--MD5=[46d37ede0064d909e6448e911ad77dfb]
link Platform to RegisterTransaction--><path d="M375.8091,350.6926 C349.6104,373.4771 315.6034,403.0524 287.0222,427.9089 " fill="none" id="Platform-RegisterTransaction" style="stroke: #A80036; stroke-width: 1.0;"/><polygon fill="#000000" points="349,388.0664,343,391.0664,349,394.0664,349,388.0664" style="stroke: #000000; stroke-width: 1.0;"/><text fill="#000000" font-family="sans-serif" font-size="13" lengthAdjust="spacingAndGlyphs" textLength="23" x="355" y="394.0669">has</text><text fill="#000000" font-family="sans-serif" font-size="13" lengthAdjust="spacingAndGlyphs" textLength="8" x="359.87" y="352.822">1</text><text fill="#000000" font-family="sans-serif" font-size="13" lengthAdjust="spacingAndGlyphs" textLength="23" x="270.4238" y="416.9413">1..*</text><!--MD5=[b99abe8d53c7d66ec43f05952bd22f94]
link RegisterTransaction to Transaction--><path d="M245.3407,527.068 C253.9584,559.2186 263,602.1965 263,641 C263,641 263,641 263,1013 C263,1064.6655 284.1992,1120.0648 302.7485,1158.65 " fill="none" id="RegisterTransaction-Transaction" style="stroke: #A80036; stroke-width: 1.0;"/><text fill="#000000" font-family="sans-serif" font-size="13" lengthAdjust="spacingAndGlyphs" textLength="23" x="264" y="815.5669">has</text><polygon fill="#000000" points="271,824.6328,274,830.6328,277,824.6328,271,824.6328" style="stroke: #000000; stroke-width: 1.0;"/><text fill="#000000" font-family="sans-serif" font-size="13" lengthAdjust="spacingAndGlyphs" textLength="8" x="238.9355" y="547.154">1</text><text fill="#000000" font-family="sans-serif" font-size="13" lengthAdjust="spacingAndGlyphs" textLength="7" x="291.6163" y="1148.0047">*</text><!--MD5=[7640e466c042ba2d6f9c19c816f7f0fc]
link Platform to Organization--><path d="M460.1747,334.7074 C520.0284,364.095 629.6824,417.9342 695.9009,450.4469 " fill="none" id="Platform-Organization" style="stroke: #A80036; stroke-width: 1.0;"/><text fill="#000000" font-family="sans-serif" font-size="13" lengthAdjust="spacingAndGlyphs" textLength="92" x="586" y="394.0669">has registered</text><polygon fill="#000000" points="681,388.0664,687,391.0664,681,394.0664,681,388.0664" style="stroke: #000000; stroke-width: 1.0;"/><text fill="#000000" font-family="sans-serif" font-size="13" lengthAdjust="spacingAndGlyphs" textLength="8" x="468.111" y="334.0893">1</text><text fill="#000000" font-family="sans-serif" font-size="13" lengthAdjust="spacingAndGlyphs" textLength="23" x="665.2004" y="443.5136">1..*</text><!--MD5=[bd4dc258c99bd36fa08dcfc6a9cf30bc]
link Platform to RegisterFreelancer--><path d="M419.2307,351.1203 C420.9676,366.329 424.6036,383.6826 432,398 C441.6161,416.6141 457.1695,433.5564 472.0172,446.9727 " fill="none" id="Platform-RegisterFreelancer" style="stroke: #A80036; stroke-width: 1.0;"/><text fill="#000000" font-family="sans-serif" font-size="13" lengthAdjust="spacingAndGlyphs" textLength="23" x="433" y="394.0669">has</text><polygon fill="#000000" points="440,403.1328,443,409.1328,446,403.1328,440,403.1328" style="stroke: #000000; stroke-width: 1.0;"/><text fill="#000000" font-family="sans-serif" font-size="13" lengthAdjust="spacingAndGlyphs" textLength="8" x="410.772" y="370.6208">1</text><text fill="#000000" font-family="sans-serif" font-size="13" lengthAdjust="spacingAndGlyphs" textLength="23" x="437.7553" y="435.757">1..*</text><!--MD5=[49ce8ea186f6865d1a47f1469d32fd2e]
link RegisterFreelancer to Freelancer--><path d="M509.3043,508.2142 C501.9506,591.9986 481.4055,826.0817 471.0824,943.699 " fill="none" id="RegisterFreelancer-Freelancer" style="stroke: #A80036; stroke-width: 1.0;"/><text fill="#000000" font-family="sans-serif" font-size="13" lengthAdjust="spacingAndGlyphs" textLength="23" x="493" y="721.0669">has</text><polygon fill="#000000" points="500,730.1328,503,736.1328,506,730.1328,500,730.1328" style="stroke: #000000; stroke-width: 1.0;"/><text fill="#000000" font-family="sans-serif" font-size="13" lengthAdjust="spacingAndGlyphs" textLength="8" x="499.9861" y="527.8368">1</text><text fill="#000000" font-family="sans-serif" font-size="13" lengthAdjust="spacingAndGlyphs" textLength="7" x="464.3487" y="932.8716">*</text><!--MD5=[45817597bcd7048073a670d966abfd17]
link Organization to Collaborator--><path d="M760.164,527.4438 C764.6786,552.0484 770.0288,581.2072 774.1773,603.8163 " fill="none" id="Organization-Collaborator" style="stroke: #A80036; stroke-width: 1.0;"/><text fill="#000000" font-family="sans-serif" font-size="13" lengthAdjust="spacingAndGlyphs" textLength="23" x="770" y="570.0669">has</text><polygon fill="#000000" points="777,579.1328,780,585.1328,783,579.1328,777,579.1328" style="stroke: #000000; stroke-width: 1.0;"/><text fill="#000000" font-family="sans-serif" font-size="13" lengthAdjust="spacingAndGlyphs" textLength="8" x="752.8579" y="547.2239">1</text><text fill="#000000" font-family="sans-serif" font-size="13" lengthAdjust="spacingAndGlyphs" textLength="8" x="764.2495" y="592.9705">1</text><!--MD5=[522c679f4dd7ba84a6aa9ac03f58229d]
link Organization to TaskList--><path d="M717.7041,527.4438 C699.6733,554.4901 677.9739,587.0392 662.4381,610.3429 " fill="none" id="Organization-TaskList" style="stroke: #A80036; stroke-width: 1.0;"/><text fill="#000000" font-family="sans-serif" font-size="13" lengthAdjust="spacingAndGlyphs" textLength="23" x="698" y="570.0669">has</text><polygon fill="#000000" points="705,579.1328,708,585.1328,711,579.1328,705,579.1328" style="stroke: #000000; stroke-width: 1.0;"/><text fill="#000000" font-family="sans-serif" font-size="13" lengthAdjust="spacingAndGlyphs" textLength="8" x="704.6925" y="547.2239">1</text><text fill="#000000" font-family="sans-serif" font-size="13" lengthAdjust="spacingAndGlyphs" textLength="8" x="657.8285" y="599.5737">1</text><!--MD5=[14c738364c5fdafcb97ced6863906d7f]
link TaskList to Task--><path d="M632.221,671.7857 C624.8962,694.8451 614.6694,727.0408 605.8954,754.6627 " fill="none" id="TaskList-Task" style="stroke: #A80036; stroke-width: 1.0;"/><text fill="#000000" font-family="sans-serif" font-size="13" lengthAdjust="spacingAndGlyphs" textLength="23" x="621" y="721.0669">has</text><polygon fill="#000000" points="628,730.1328,631,736.1328,634,730.1328,628,730.1328" style="stroke: #000000; stroke-width: 1.0;"/><text fill="#000000" font-family="sans-serif" font-size="13" lengthAdjust="spacingAndGlyphs" textLength="8" x="621.5083" y="691.4224">1</text><text fill="#000000" font-family="sans-serif" font-size="13" lengthAdjust="spacingAndGlyphs" textLength="7" x="600.6498" y="743.9561">*</text><!--MD5=[8b5db564ea9bd1758097b07ca3fd81a4]
link Collaborator to Transaction--><path d="M787.8521,678.3271 C794.5628,724.9501 800.0266,806.002 771,867 C704.6338,1006.4654 549.7755,1104.7099 442.457,1158.9598 " fill="none" id="Collaborator-Transaction" style="stroke: #A80036; stroke-width: 1.0;"/><text fill="#000000" font-family="sans-serif" font-size="13" lengthAdjust="spacingAndGlyphs" textLength="48" x="756" y="910.0669">creates</text><polygon fill="#000000" points="775.5,919.1328,778.5,925.1328,781.5,919.1328,775.5,919.1328" style="stroke: #000000; stroke-width: 1.0;"/><text fill="#000000" font-family="sans-serif" font-size="13" lengthAdjust="spacingAndGlyphs" textLength="8" x="780.3067" y="697.58">1</text><text fill="#000000" font-family="sans-serif" font-size="13" lengthAdjust="spacingAndGlyphs" textLength="23" x="433.6541" y="1147.9994">1..*</text><!--MD5=[04ce0ecdab38a3951889ff50c232570f]
link Collaborator to User--><path d="M738.4057,678.3455 C730.886,687.241 724.1449,697.2907 720,708 C710.1206,733.5258 713.1218,765.3312 717.136,786.7924 " fill="none" id="Collaborator-User" style="stroke: #A80036; stroke-width: 1.0;"/><text fill="#000000" font-family="sans-serif" font-size="13" lengthAdjust="spacingAndGlyphs" textLength="46" x="721" y="721.0669">acts as</text><polygon fill="#000000" points="739.5,730.1328,742.5,736.1328,745.5,730.1328,739.5,730.1328" style="stroke: #000000; stroke-width: 1.0;"/><text fill="#000000" font-family="sans-serif" font-size="13" lengthAdjust="spacingAndGlyphs" textLength="8" x="722.9797" y="697.6014">1</text><text fill="#000000" font-family="sans-serif" font-size="13" lengthAdjust="spacingAndGlyphs" textLength="8" x="706.6084" y="775.7512">1</text><!--MD5=[8853e9d83a8841c20c4ef075af762602]
link Task to Freelancer--><path d="M553.901,867 C539.3974,890.8189 522.3381,918.835 507.0621,943.9223 " fill="none" id="Task-Freelancer" style="stroke: #A80036; stroke-width: 1.0;"/><text fill="#000000" font-family="sans-serif" font-size="13" lengthAdjust="spacingAndGlyphs" textLength="56" x="535" y="910.0669">made by</text><polygon fill="#000000" points="558.5,919.1328,561.5,925.1328,564.5,919.1328,558.5,919.1328" style="stroke: #000000; stroke-width: 1.0;"/><text fill="#000000" font-family="sans-serif" font-size="13" lengthAdjust="spacingAndGlyphs" textLength="23" x="525.0586" y="887.2098">1..*</text><text fill="#000000" font-family="sans-serif" font-size="13" lengthAdjust="spacingAndGlyphs" textLength="8" x="502.9873" y="933.1179">1</text><!--MD5=[63e01366f4735a945664ed4e2b86d81f]
@startuml
class CreateTransactionUI{
  }

class CreateTransactionController{
  +getTaskList()
  +getFreelancerList()
  +createNewTransaction(task, freel, endDate, delay, qow)
  +registerTransaction()
  
  }

class Organization{
  -String nome
  -String email
  -String nif
  +getTL()
  }

class TaskList{
  +getTaskList()
  }

class Platform{
  +getRF()
  +getRT()
  }

class RegisterFreelancer{
  +getFreelancerList()
  }

class RegisterTransaction{
  +createNewTransaction(task, freel, endDate, delay, qow)
  +registerTransaction(trans)
  +validateTransaction(trans)
  +addTransaction(trans)
  }

class Transaction{
  -Data endDate
  -double delay
  -String descriptionOfQuality
  +create(task, freel, endDate, delay, qow)
  }

class Freelancer{
  -String idF
  -String name
  -String levelExpertise
  -String email
  -String nif
  -String ibanAccount
  -String country
  }

class Collaborator{
  -String nome
  -String email
  }

class Task{
  -String idT
  -String description
  -Time timeDuration
  -double costHour
  -String taskCategory
  }


CreateTransactionController ..> Organization
CreateTransactionController ..> TaskList
CreateTransactionController ..> Platform
CreateTransactionController ..> RegisterFreelancer
CreateTransactionController ..> RegisterTransaction
CreateTransactionController ..> Transaction

CreateTransactionUI ..> CreateTransactionController

Freelancer "1" - - "1" Transaction: receives >

Platform "1" - - "1..*" RegisterTransaction: has >
RegisterTransaction "1" - - "*" Transaction: has >
Platform "1" - - "1..*" Organization: has registered >
Platform "1" - - "1..*" RegisterFreelancer: has >
RegisterFreelancer "1" - - "*" Freelancer: has >

Organization "1" - - "1" Collaborator: has >
Organization "1" - - "1" TaskList: has >

TaskList "1" - - "*" Task: has >

Collaborator "1" - - "1..*" Transaction: creates >
Collaborator "1" - - "1" User: acts as >

Task "1..*" - - "1" Freelancer: made by >
@enduml

PlantUML version 1.2019.12(Sun Nov 03 10:24:54 UTC 2019)
(GPL source distribution)
Java Runtime: OpenJDK Runtime Environment
JVM: OpenJDK 64-Bit Server VM
Java Version: 1.8.0_232-heroku-b09
Operating System: Linux
Default Encoding: UTF-8
Language: en
Country: US
--></g></svg>