<?xml version="1.0" encoding="UTF-8" standalone="no"?><svg xmlns="http://www.w3.org/2000/svg" xmlns:xlink="http://www.w3.org/1999/xlink" contentScriptType="application/ecmascript" contentStyleType="text/css" height="402px" preserveAspectRatio="none" style="width:1515px;height:402px;" version="1.1" viewBox="0 0 1515 402" width="1515px" zoomAndPan="magnify"><defs><filter height="300%" id="fejp5s2qti901" width="300%" x="-1" y="-1"><feGaussianBlur result="blurOut" stdDeviation="2.0"/><feColorMatrix in="blurOut" result="blurOut2" type="matrix" values="0 0 0 0 0 0 0 0 0 0 0 0 0 0 0 0 0 0 .4 0"/><feOffset dx="4.0" dy="4.0" in="blurOut2" result="blurOut3"/><feBlend in="SourceGraphic" in2="blurOut3" mode="normal"/></filter></defs><g><!--MD5=[99b8db98afdc2c8404e39242ef4c1e65]
class Platform--><rect fill="#FEFECE" filter="url(#fejp5s2qti901)" height="40" id="Platform" style="stroke: #A80036; stroke-width: 1.5;" width="84" x="6" y="244"/><ellipse cx="21" cy="260" fill="#ADD1B2" rx="11" ry="11" style="stroke: #A80036; stroke-width: 1.0;"/><path d="M23.9688,265.6406 Q23.3906,265.9375 22.75,266.0859 Q22.1094,266.2344 21.4063,266.2344 Q18.9063,266.2344 17.5859,264.5859 Q16.2656,262.9375 16.2656,259.8125 Q16.2656,256.6875 17.5859,255.0313 Q18.9063,253.375 21.4063,253.375 Q22.1094,253.375 22.7578,253.5313 Q23.4063,253.6875 23.9688,253.9844 L23.9688,256.7031 Q23.3438,256.125 22.75,255.8516 Q22.1563,255.5781 21.5313,255.5781 Q20.1875,255.5781 19.5,256.6484 Q18.8125,257.7188 18.8125,259.8125 Q18.8125,261.9063 19.5,262.9766 Q20.1875,264.0469 21.5313,264.0469 Q22.1563,264.0469 22.75,263.7734 Q23.3438,263.5 23.9688,262.9219 L23.9688,265.6406 Z "/><text fill="#000000" font-family="sans-serif" font-size="12" lengthAdjust="spacingAndGlyphs" textLength="52" x="35" y="264.1543">Platform</text><line style="stroke: #A80036; stroke-width: 1.5;" x1="7" x2="89" y1="276" y2="276"/><!--MD5=[1f687b5315377fe49fca59b457947463]
class Freelancer--><rect fill="#FEFECE" filter="url(#fejp5s2qti901)" height="129.6328" id="Freelancer" style="stroke: #A80036; stroke-width: 1.5;" width="133" x="465" y="8"/><ellipse cx="495.3" cy="24" fill="#ADD1B2" rx="11" ry="11" style="stroke: #A80036; stroke-width: 1.0;"/><path d="M498.2688,29.6406 Q497.6906,29.9375 497.05,30.0859 Q496.4094,30.2344 495.7063,30.2344 Q493.2063,30.2344 491.8859,28.5859 Q490.5656,26.9375 490.5656,23.8125 Q490.5656,20.6875 491.8859,19.0313 Q493.2063,17.375 495.7063,17.375 Q496.4094,17.375 497.0578,17.5313 Q497.7063,17.6875 498.2688,17.9844 L498.2688,20.7031 Q497.6438,20.125 497.05,19.8516 Q496.4563,19.5781 495.8313,19.5781 Q494.4875,19.5781 493.8,20.6484 Q493.1125,21.7188 493.1125,23.8125 Q493.1125,25.9063 493.8,26.9766 Q494.4875,28.0469 495.8313,28.0469 Q496.4563,28.0469 497.05,27.7734 Q497.6438,27.5 498.2688,26.9219 L498.2688,29.6406 Z "/><text fill="#000000" font-family="sans-serif" font-size="12" lengthAdjust="spacingAndGlyphs" textLength="67" x="512.7" y="28.1543">Freelancer</text><line style="stroke: #A80036; stroke-width: 1.5;" x1="466" x2="597" y1="40" y2="40"/><text fill="#000000" font-family="sans-serif" font-size="11" lengthAdjust="spacingAndGlyphs" textLength="58" x="471" y="54.2104">-String idF</text><text fill="#000000" font-family="sans-serif" font-size="11" lengthAdjust="spacingAndGlyphs" textLength="74" x="471" y="67.0151">-String name</text><text fill="#000000" font-family="sans-serif" font-size="11" lengthAdjust="spacingAndGlyphs" textLength="121" x="471" y="79.8198">-String levelExpertise</text><text fill="#000000" font-family="sans-serif" font-size="11" lengthAdjust="spacingAndGlyphs" textLength="73" x="471" y="92.6245">-String email</text><text fill="#000000" font-family="sans-serif" font-size="11" lengthAdjust="spacingAndGlyphs" textLength="56" x="471" y="105.4292">-String nif</text><text fill="#000000" font-family="sans-serif" font-size="11" lengthAdjust="spacingAndGlyphs" textLength="110" x="471" y="118.2339">-String ibanAccount</text><text fill="#000000" font-family="sans-serif" font-size="11" lengthAdjust="spacingAndGlyphs" textLength="77" x="471" y="131.0386">-String coutry</text><!--MD5=[86c7c362de55a38b660185a1328fe18d]
class Organization--><rect fill="#FEFECE" filter="url(#fejp5s2qti901)" height="78.4141" id="Organization" style="stroke: #A80036; stroke-width: 1.5;" width="110" x="257" y="225"/><ellipse cx="272" cy="241" fill="#ADD1B2" rx="11" ry="11" style="stroke: #A80036; stroke-width: 1.0;"/><path d="M274.9688,246.6406 Q274.3906,246.9375 273.75,247.0859 Q273.1094,247.2344 272.4063,247.2344 Q269.9063,247.2344 268.5859,245.5859 Q267.2656,243.9375 267.2656,240.8125 Q267.2656,237.6875 268.5859,236.0313 Q269.9063,234.375 272.4063,234.375 Q273.1094,234.375 273.7578,234.5313 Q274.4063,234.6875 274.9688,234.9844 L274.9688,237.7031 Q274.3438,237.125 273.75,236.8516 Q273.1563,236.5781 272.5313,236.5781 Q271.1875,236.5781 270.5,237.6484 Q269.8125,238.7188 269.8125,240.8125 Q269.8125,242.9063 270.5,243.9766 Q271.1875,245.0469 272.5313,245.0469 Q273.1563,245.0469 273.75,244.7734 Q274.3438,244.5 274.9688,243.9219 L274.9688,246.6406 Z "/><text fill="#000000" font-family="sans-serif" font-size="12" lengthAdjust="spacingAndGlyphs" textLength="78" x="286" y="245.1543">Organization</text><line style="stroke: #A80036; stroke-width: 1.5;" x1="258" x2="366" y1="257" y2="257"/><text fill="#000000" font-family="sans-serif" font-size="11" lengthAdjust="spacingAndGlyphs" textLength="74" x="263" y="271.2104">-String nome</text><text fill="#000000" font-family="sans-serif" font-size="11" lengthAdjust="spacingAndGlyphs" textLength="73" x="263" y="284.0151">-String email</text><text fill="#000000" font-family="sans-serif" font-size="11" lengthAdjust="spacingAndGlyphs" textLength="56" x="263" y="296.8198">-String nif</text><!--MD5=[f483d6e5de34a60207b28a5563be5e8b]
class Collaborator--><rect fill="#FEFECE" filter="url(#fejp5s2qti901)" height="65.6094" id="Collaborator" style="stroke: #A80036; stroke-width: 1.5;" width="109" x="477" y="244"/><ellipse cx="492" cy="260" fill="#ADD1B2" rx="11" ry="11" style="stroke: #A80036; stroke-width: 1.0;"/><path d="M494.9688,265.6406 Q494.3906,265.9375 493.75,266.0859 Q493.1094,266.2344 492.4063,266.2344 Q489.9063,266.2344 488.5859,264.5859 Q487.2656,262.9375 487.2656,259.8125 Q487.2656,256.6875 488.5859,255.0313 Q489.9063,253.375 492.4063,253.375 Q493.1094,253.375 493.7578,253.5313 Q494.4063,253.6875 494.9688,253.9844 L494.9688,256.7031 Q494.3438,256.125 493.75,255.8516 Q493.1563,255.5781 492.5313,255.5781 Q491.1875,255.5781 490.5,256.6484 Q489.8125,257.7188 489.8125,259.8125 Q489.8125,261.9063 490.5,262.9766 Q491.1875,264.0469 492.5313,264.0469 Q493.1563,264.0469 493.75,263.7734 Q494.3438,263.5 494.9688,262.9219 L494.9688,265.6406 Z "/><text fill="#000000" font-family="sans-serif" font-size="12" lengthAdjust="spacingAndGlyphs" textLength="77" x="506" y="264.1543">Collaborator</text><line style="stroke: #A80036; stroke-width: 1.5;" x1="478" x2="585" y1="276" y2="276"/><text fill="#000000" font-family="sans-serif" font-size="11" lengthAdjust="spacingAndGlyphs" textLength="74" x="483" y="290.2104">-String nome</text><text fill="#000000" font-family="sans-serif" font-size="11" lengthAdjust="spacingAndGlyphs" textLength="73" x="483" y="303.0151">-String email</text><!--MD5=[b34797a66dc35cbf1d65f7e3ca75530e]
class Task--><rect fill="#FEFECE" filter="url(#fejp5s2qti901)" height="104.0234" id="Task" style="stroke: #A80036; stroke-width: 1.5;" width="129" x="1108" y="125"/><ellipse cx="1153.75" cy="141" fill="#ADD1B2" rx="11" ry="11" style="stroke: #A80036; stroke-width: 1.0;"/><path d="M1156.7188,146.6406 Q1156.1406,146.9375 1155.5,147.0859 Q1154.8594,147.2344 1154.1563,147.2344 Q1151.6563,147.2344 1150.3359,145.5859 Q1149.0156,143.9375 1149.0156,140.8125 Q1149.0156,137.6875 1150.3359,136.0313 Q1151.6563,134.375 1154.1563,134.375 Q1154.8594,134.375 1155.5078,134.5313 Q1156.1563,134.6875 1156.7188,134.9844 L1156.7188,137.7031 Q1156.0938,137.125 1155.5,136.8516 Q1154.9063,136.5781 1154.2813,136.5781 Q1152.9375,136.5781 1152.25,137.6484 Q1151.5625,138.7188 1151.5625,140.8125 Q1151.5625,142.9063 1152.25,143.9766 Q1152.9375,145.0469 1154.2813,145.0469 Q1154.9063,145.0469 1155.5,144.7734 Q1156.0938,144.5 1156.7188,143.9219 L1156.7188,146.6406 Z "/><text fill="#000000" font-family="sans-serif" font-size="12" lengthAdjust="spacingAndGlyphs" textLength="29" x="1174.25" y="145.1543">Task</text><line style="stroke: #A80036; stroke-width: 1.5;" x1="1109" x2="1236" y1="157" y2="157"/><text fill="#000000" font-family="sans-serif" font-size="11" lengthAdjust="spacingAndGlyphs" textLength="59" x="1114" y="171.2104">-String idT</text><text fill="#000000" font-family="sans-serif" font-size="11" lengthAdjust="spacingAndGlyphs" textLength="105" x="1114" y="184.0151">-String description</text><text fill="#000000" font-family="sans-serif" font-size="11" lengthAdjust="spacingAndGlyphs" textLength="109" x="1114" y="196.8198">-Time timeDuration</text><text fill="#000000" font-family="sans-serif" font-size="11" lengthAdjust="spacingAndGlyphs" textLength="97" x="1114" y="209.6245">-double costHour</text><text fill="#000000" font-family="sans-serif" font-size="11" lengthAdjust="spacingAndGlyphs" textLength="117" x="1114" y="222.4292">-String taskCategory</text><!--MD5=[3fd616f346a44cd59a91eb10b19e157c]
class User--><rect fill="#FEFECE" filter="url(#fejp5s2qti901)" height="40" id="User" style="stroke: #A80036; stroke-width: 1.5;" width="61" x="780" y="349"/><ellipse cx="795" cy="365" fill="#ADD1B2" rx="11" ry="11" style="stroke: #A80036; stroke-width: 1.0;"/><path d="M797.9688,370.6406 Q797.3906,370.9375 796.75,371.0859 Q796.1094,371.2344 795.4063,371.2344 Q792.9063,371.2344 791.5859,369.5859 Q790.2656,367.9375 790.2656,364.8125 Q790.2656,361.6875 791.5859,360.0313 Q792.9063,358.375 795.4063,358.375 Q796.1094,358.375 796.7578,358.5313 Q797.4063,358.6875 797.9688,358.9844 L797.9688,361.7031 Q797.3438,361.125 796.75,360.8516 Q796.1563,360.5781 795.5313,360.5781 Q794.1875,360.5781 793.5,361.6484 Q792.8125,362.7188 792.8125,364.8125 Q792.8125,366.9063 793.5,367.9766 Q794.1875,369.0469 795.5313,369.0469 Q796.1563,369.0469 796.75,368.7734 Q797.3438,368.5 797.9688,367.9219 L797.9688,370.6406 Z "/><text fill="#000000" font-family="sans-serif" font-size="12" lengthAdjust="spacingAndGlyphs" textLength="29" x="809" y="369.1543">User</text><line style="stroke: #A80036; stroke-width: 1.5;" x1="781" x2="840" y1="381" y2="381"/><!--MD5=[4555bb1b0911a5adf28ce6dbe60fed2e]
class Transaction--><rect fill="#FEFECE" filter="url(#fejp5s2qti901)" height="78.4141" id="Transaction" style="stroke: #A80036; stroke-width: 1.5;" width="169" x="726" y="236"/><ellipse cx="769.35" cy="252" fill="#ADD1B2" rx="11" ry="11" style="stroke: #A80036; stroke-width: 1.0;"/><path d="M772.3188,257.6406 Q771.7406,257.9375 771.1,258.0859 Q770.4594,258.2344 769.7563,258.2344 Q767.2563,258.2344 765.9359,256.5859 Q764.6156,254.9375 764.6156,251.8125 Q764.6156,248.6875 765.9359,247.0313 Q767.2563,245.375 769.7563,245.375 Q770.4594,245.375 771.1078,245.5313 Q771.7563,245.6875 772.3188,245.9844 L772.3188,248.7031 Q771.6938,248.125 771.1,247.8516 Q770.5063,247.5781 769.8813,247.5781 Q768.5375,247.5781 767.85,248.6484 Q767.1625,249.7188 767.1625,251.8125 Q767.1625,253.9063 767.85,254.9766 Q768.5375,256.0469 769.8813,256.0469 Q770.5063,256.0469 771.1,255.7734 Q771.6938,255.5 772.3188,254.9219 L772.3188,257.6406 Z "/><text fill="#000000" font-family="sans-serif" font-size="12" lengthAdjust="spacingAndGlyphs" textLength="74" x="789.65" y="256.1543">Transaction</text><line style="stroke: #A80036; stroke-width: 1.5;" x1="727" x2="894" y1="268" y2="268"/><text fill="#000000" font-family="sans-serif" font-size="11" lengthAdjust="spacingAndGlyphs" textLength="81" x="732" y="282.2104">-Data endDate</text><text fill="#000000" font-family="sans-serif" font-size="11" lengthAdjust="spacingAndGlyphs" textLength="76" x="732" y="295.0151">-double delay</text><text fill="#000000" font-family="sans-serif" font-size="11" lengthAdjust="spacingAndGlyphs" textLength="157" x="732" y="307.8198">-String descriptionOfQuality</text><!--MD5=[5ce80547de3caced9d0089e35ded5090]
class TaskExecution--><rect fill="#FEFECE" filter="url(#fejp5s2qti901)" height="78.4141" id="TaskExecution" style="stroke: #A80036; stroke-width: 1.5;" width="169" x="1335" y="138"/><ellipse cx="1371.15" cy="154" fill="#ADD1B2" rx="11" ry="11" style="stroke: #A80036; stroke-width: 1.0;"/><path d="M1374.1188,159.6406 Q1373.5406,159.9375 1372.9,160.0859 Q1372.2594,160.2344 1371.5563,160.2344 Q1369.0563,160.2344 1367.7359,158.5859 Q1366.4156,156.9375 1366.4156,153.8125 Q1366.4156,150.6875 1367.7359,149.0313 Q1369.0563,147.375 1371.5563,147.375 Q1372.2594,147.375 1372.9078,147.5313 Q1373.5563,147.6875 1374.1188,147.9844 L1374.1188,150.7031 Q1373.4938,150.125 1372.9,149.8516 Q1372.3063,149.5781 1371.6813,149.5781 Q1370.3375,149.5781 1369.65,150.6484 Q1368.9625,151.7188 1368.9625,153.8125 Q1368.9625,155.9063 1369.65,156.9766 Q1370.3375,158.0469 1371.6813,158.0469 Q1372.3063,158.0469 1372.9,157.7734 Q1373.4938,157.5 1374.1188,156.9219 L1374.1188,159.6406 Z "/><text fill="#000000" font-family="sans-serif" font-size="12" lengthAdjust="spacingAndGlyphs" textLength="90" x="1389.85" y="158.1543">TaskExecution</text><line style="stroke: #A80036; stroke-width: 1.5;" x1="1336" x2="1503" y1="170" y2="170"/><text fill="#000000" font-family="sans-serif" font-size="11" lengthAdjust="spacingAndGlyphs" textLength="81" x="1341" y="184.2104">-Data endDate</text><text fill="#000000" font-family="sans-serif" font-size="11" lengthAdjust="spacingAndGlyphs" textLength="76" x="1341" y="197.0151">-double delay</text><text fill="#000000" font-family="sans-serif" font-size="11" lengthAdjust="spacingAndGlyphs" textLength="157" x="1341" y="209.8198">-String descriptionOfQuality</text><!--MD5=[764fca796ce7f635542948d8fc39db5e]
class Payment--><rect fill="#FEFECE" filter="url(#fejp5s2qti901)" height="40" id="Payment" style="stroke: #A80036; stroke-width: 1.5;" width="86" x="1129.5" y="351"/><ellipse cx="1144.5" cy="367" fill="#ADD1B2" rx="11" ry="11" style="stroke: #A80036; stroke-width: 1.0;"/><path d="M1147.4688,372.6406 Q1146.8906,372.9375 1146.25,373.0859 Q1145.6094,373.2344 1144.9063,373.2344 Q1142.4063,373.2344 1141.0859,371.5859 Q1139.7656,369.9375 1139.7656,366.8125 Q1139.7656,363.6875 1141.0859,362.0313 Q1142.4063,360.375 1144.9063,360.375 Q1145.6094,360.375 1146.2578,360.5313 Q1146.9063,360.6875 1147.4688,360.9844 L1147.4688,363.7031 Q1146.8438,363.125 1146.25,362.8516 Q1145.6563,362.5781 1145.0313,362.5781 Q1143.6875,362.5781 1143,363.6484 Q1142.3125,364.7188 1142.3125,366.8125 Q1142.3125,368.9063 1143,369.9766 Q1143.6875,371.0469 1145.0313,371.0469 Q1145.6563,371.0469 1146.25,370.7734 Q1146.8438,370.5 1147.4688,369.9219 L1147.4688,372.6406 Z "/><text fill="#000000" font-family="sans-serif" font-size="12" lengthAdjust="spacingAndGlyphs" textLength="54" x="1158.5" y="371.1543">Payment</text><line style="stroke: #A80036; stroke-width: 1.5;" x1="1130.5" x2="1214.5" y1="383" y2="383"/><!--MD5=[83bb469d45366b675450ee1d8d93a557]
link Freelancer to Transaction--><path d="M598.1844,118.4509 C608.0816,124.8378 618.2361,131.1968 628,137 C657.3961,154.4715 667.9186,153.4855 696,173 C722.7806,191.6105 750.1492,215.7659 771.4109,235.8981 " fill="none" id="Freelancer-Transaction" style="stroke: #A80036; stroke-width: 1.0;"/><text fill="#000000" font-family="sans-serif" font-size="13" lengthAdjust="spacingAndGlyphs" textLength="53" x="629" y="133.0669">receives</text><polygon fill="#000000" points="685,127.0664,691,130.0664,685,133.0664,685,127.0664" style="stroke: #000000; stroke-width: 1.0;"/><text fill="#000000" font-family="sans-serif" font-size="13" lengthAdjust="spacingAndGlyphs" textLength="8" x="605.9155" y="136.3366">1</text><text fill="#000000" font-family="sans-serif" font-size="13" lengthAdjust="spacingAndGlyphs" textLength="8" x="756.005" y="224.9311">1</text><!--MD5=[8853e9d83a8841c20c4ef075af762602]
link Task to Freelancer--><path d="M1107.781,162.8011 C1097.8256,160.7623 1087.6508,158.7615 1078,157 C905.6606,125.5438 701.301,96.2474 598.1602,82.0178 " fill="none" id="Task-Freelancer" style="stroke: #A80036; stroke-width: 1.0;"/><polygon fill="#000000" points="783,91.0664,777,94.0664,783,97.0664,783,91.0664" style="stroke: #000000; stroke-width: 1.0;"/><text fill="#000000" font-family="sans-serif" font-size="13" lengthAdjust="spacingAndGlyphs" textLength="56" x="789" y="97.0669">made by</text><text fill="#000000" font-family="sans-serif" font-size="13" lengthAdjust="spacingAndGlyphs" textLength="23" x="1076.9209" y="157.6359">1..*</text><text fill="#000000" font-family="sans-serif" font-size="13" lengthAdjust="spacingAndGlyphs" textLength="8" x="605.8887" y="95.9187">1</text><!--MD5=[3781be57b219e856d6dd67e0b949b069]
link Platform to Transaction--><path d="M90.2688,278.1094 C132.0939,291.4051 198.2,310.6421 257,320 C420.076,345.9533 462.9316,335.5539 628,340 C658.2113,340.8137 666.7793,347.7158 696,340 C716.4432,334.6019 737.0619,324.6185 755.0602,314.0682 " fill="none" id="Platform-Transaction" style="stroke: #A80036; stroke-width: 1.0;"/><text fill="#000000" font-family="sans-serif" font-size="13" lengthAdjust="spacingAndGlyphs" textLength="23" x="398" y="333.0669">has</text><polygon fill="#000000" points="424,327.0664,430,330.0664,424,333.0664,424,327.0664" style="stroke: #000000; stroke-width: 1.0;"/><text fill="#000000" font-family="sans-serif" font-size="13" lengthAdjust="spacingAndGlyphs" textLength="8" x="97.9321" y="293.7663">1</text><text fill="#000000" font-family="sans-serif" font-size="13" lengthAdjust="spacingAndGlyphs" textLength="23" x="720.1365" y="334.405">1..*</text><!--MD5=[7640e466c042ba2d6f9c19c816f7f0fc]
link Platform to Organization--><path d="M90.1235,264 C135.2517,264 207.0707,264 256.716,264 " fill="none" id="Platform-Organization" style="stroke: #A80036; stroke-width: 1.0;"/><text fill="#000000" font-family="sans-serif" font-size="13" lengthAdjust="spacingAndGlyphs" textLength="92" x="121" y="260.0669">has registered</text><polygon fill="#000000" points="216,254.0664,222,257.0664,216,260.0664,216,254.0664" style="stroke: #000000; stroke-width: 1.0;"/><text fill="#000000" font-family="sans-serif" font-size="13" lengthAdjust="spacingAndGlyphs" textLength="8" x="98.051" y="277.3674">1</text><text fill="#000000" font-family="sans-serif" font-size="13" lengthAdjust="spacingAndGlyphs" textLength="23" x="225.9941" y="276.9178">1..*</text><!--MD5=[22697d4d863c2e08ab1d60ca0d61f844]
link Platform to Freelancer--><path d="M90.0616,247.3841 C174.1506,214.166 363.5943,139.3288 464.7988,99.3494 " fill="none" id="Platform-Freelancer" style="stroke: #A80036; stroke-width: 1.0;"/><text fill="#000000" font-family="sans-serif" font-size="13" lengthAdjust="spacingAndGlyphs" textLength="23" x="294" y="137.0669">has</text><polygon fill="#000000" points="320,131.0664,326,134.0664,320,137.0664,320,131.0664" style="stroke: #000000; stroke-width: 1.0;"/><text fill="#000000" font-family="sans-serif" font-size="13" lengthAdjust="spacingAndGlyphs" textLength="8" x="97.9784" y="257.8956">1</text><text fill="#000000" font-family="sans-serif" font-size="13" lengthAdjust="spacingAndGlyphs" textLength="23" x="434.1009" y="114.773">1..*</text><!--MD5=[4078351e3988aa35b1504a42837f2ab1]
link Organization to Task--><path d="M367.12,247.8405 C396.0194,239.9988 432.1514,231.1763 465,226 C699.733,189.011 982.6577,179.9441 1107.6938,177.7216 " fill="none" id="Organization-Task" style="stroke: #A80036; stroke-width: 1.0;"/><text fill="#000000" font-family="sans-serif" font-size="13" lengthAdjust="spacingAndGlyphs" textLength="23" x="644" y="195.0669">has</text><polygon fill="#000000" points="670,189.0664,676,192.0664,670,195.0664,670,189.0664" style="stroke: #000000; stroke-width: 1.0;"/><text fill="#000000" font-family="sans-serif" font-size="13" lengthAdjust="spacingAndGlyphs" textLength="8" x="375.0643" y="258.7249">1</text><text fill="#000000" font-family="sans-serif" font-size="13" lengthAdjust="spacingAndGlyphs" textLength="23" x="1076.8247" y="190.642">1..*</text><!--MD5=[45817597bcd7048073a670d966abfd17]
link Organization to Collaborator--><path d="M367.1058,267.2637 C400.6318,269.2493 443.2915,271.7758 476.7522,273.7575 " fill="none" id="Organization-Collaborator" style="stroke: #A80036; stroke-width: 1.0;"/><text fill="#000000" font-family="sans-serif" font-size="13" lengthAdjust="spacingAndGlyphs" textLength="23" x="398" y="266.0669">has</text><polygon fill="#000000" points="424,260.0664,430,263.0664,424,266.0664,424,260.0664" style="stroke: #000000; stroke-width: 1.0;"/><text fill="#000000" font-family="sans-serif" font-size="13" lengthAdjust="spacingAndGlyphs" textLength="8" x="375.0481" y="280.7581">1</text><text fill="#000000" font-family="sans-serif" font-size="13" lengthAdjust="spacingAndGlyphs" textLength="8" x="460.858" y="286.4317">1</text><!--MD5=[ee25a9e267be641cadbaef6c1594e19f]
link Transaction to Payment--><path d="M895.0874,313.603 C905.0559,317.4328 915.1761,321.004 925,324 C995.0726,345.3704 1079.4045,358.8965 1129.3376,365.6946 " fill="none" id="Transaction-Payment" style="stroke: #A80036; stroke-width: 1.0;"/><text fill="#000000" font-family="sans-serif" font-size="13" lengthAdjust="spacingAndGlyphs" textLength="58" x="966" y="320.0669">results in</text><polygon fill="#000000" points="1027,314.0664,1033,317.0664,1027,320.0664,1027,314.0664" style="stroke: #000000; stroke-width: 1.0;"/><text fill="#000000" font-family="sans-serif" font-size="13" lengthAdjust="spacingAndGlyphs" textLength="8" x="902.4494" y="334.4315">1</text><text fill="#000000" font-family="sans-serif" font-size="13" lengthAdjust="spacingAndGlyphs" textLength="8" x="1113.5263" y="378.136">1</text><!--MD5=[8e4873cec2cb3febaaa9495c716fc885]
link Transaction to Task--><path d="M895.2721,266.017 C948.7082,258.7652 1018.5892,246.3338 1078,226 C1087.879,222.6189 1098.0004,218.3434 1107.776,213.733 " fill="none" id="Transaction-Task" style="stroke: #A80036; stroke-width: 1.0;"/><text fill="#000000" font-family="sans-serif" font-size="13" lengthAdjust="spacingAndGlyphs" textLength="23" x="983.5" y="222.0669">has</text><polygon fill="#000000" points="1009.5,216.0664,1015.5,219.0664,1009.5,222.0664,1009.5,216.0664" style="stroke: #000000; stroke-width: 1.0;"/><text fill="#000000" font-family="sans-serif" font-size="13" lengthAdjust="spacingAndGlyphs" textLength="8" x="902.901" y="277.9444">1</text><text fill="#000000" font-family="sans-serif" font-size="13" lengthAdjust="spacingAndGlyphs" textLength="8" x="1091.8298" y="230.9207">1</text><!--MD5=[8b5db564ea9bd1758097b07ca3fd81a4]
link Collaborator to Transaction--><path d="M586.2885,276.6073 C626.0418,276.3223 680.5661,275.9314 725.8919,275.6065 " fill="none" id="Collaborator-Transaction" style="stroke: #A80036; stroke-width: 1.0;"/><text fill="#000000" font-family="sans-serif" font-size="13" lengthAdjust="spacingAndGlyphs" textLength="48" x="631.5" y="272.0669">creates</text><polygon fill="#000000" points="682.5,266.0664,688.5,269.0664,682.5,272.0664,682.5,266.0664" style="stroke: #000000; stroke-width: 1.0;"/><text fill="#000000" font-family="sans-serif" font-size="13" lengthAdjust="spacingAndGlyphs" textLength="8" x="593.8208" y="289.6184">1</text><text fill="#000000" font-family="sans-serif" font-size="13" lengthAdjust="spacingAndGlyphs" textLength="23" x="694.9329" y="288.3331">1..*</text><!--MD5=[04ce0ecdab38a3951889ff50c232570f]
link Collaborator to User--><path d="M586.2885,295.0665 C644.2125,314.1668 733.4967,343.6082 779.9907,358.9396 " fill="none" id="Collaborator-User" style="stroke: #A80036; stroke-width: 1.0;"/><text fill="#000000" font-family="sans-serif" font-size="13" lengthAdjust="spacingAndGlyphs" textLength="46" x="632.5" y="306.0669">acts as</text><polygon fill="#000000" points="681.5,300.0664,687.5,303.0664,681.5,306.0664,681.5,300.0664" style="stroke: #000000; stroke-width: 1.0;"/><text fill="#000000" font-family="sans-serif" font-size="13" lengthAdjust="spacingAndGlyphs" textLength="8" x="593.8208" y="310.4426">1</text><text fill="#000000" font-family="sans-serif" font-size="13" lengthAdjust="spacingAndGlyphs" textLength="8" x="764.0104" y="370.4298">1</text><!--MD5=[590de1eb4160e0577c453d6e7f1b2aac]
link Transaction to TaskExecution--><path d="M895.185,282.7051 C982.2136,288.2913 1120.9973,290.6818 1237,263 C1277.5422,253.3254 1319.8274,234.0623 1353.4748,216.2155 " fill="none" id="Transaction-TaskExecution" style="stroke: #A80036; stroke-width: 1.0;"/><text fill="#000000" font-family="sans-serif" font-size="13" lengthAdjust="spacingAndGlyphs" textLength="23" x="1154.5" y="259.0669">has</text><polygon fill="#000000" points="1180.5,253.0664,1186.5,256.0664,1180.5,259.0664,1180.5,253.0664" style="stroke: #000000; stroke-width: 1.0;"/><text fill="#000000" font-family="sans-serif" font-size="13" lengthAdjust="spacingAndGlyphs" textLength="8" x="903.0835" y="296.1137">1</text><text fill="#000000" font-family="sans-serif" font-size="13" lengthAdjust="spacingAndGlyphs" textLength="8" x="1333.0016" y="236.5785">1</text><!--MD5=[bdc7b78a1b1f03a53fec8289ba75cac4]
link Task to TaskExecution--><path d="M1237.0737,177 C1266.9476,177 1302.8299,177 1334.8375,177 " fill="none" id="Task-TaskExecution" style="stroke: #A80036; stroke-width: 1.0;"/><text fill="#000000" font-family="sans-serif" font-size="13" lengthAdjust="spacingAndGlyphs" textLength="23" x="1268" y="173.0669">has</text><polygon fill="#000000" points="1294,167.0664,1300,170.0664,1294,173.0664,1294,167.0664" style="stroke: #000000; stroke-width: 1.0;"/><text fill="#000000" font-family="sans-serif" font-size="13" lengthAdjust="spacingAndGlyphs" textLength="8" x="1245.0025" y="189.9404">1</text><text fill="#000000" font-family="sans-serif" font-size="13" lengthAdjust="spacingAndGlyphs" textLength="8" x="1318.941" y="189.7223">1</text><!--MD5=[9554aa4b98653062b61f01b9abce9528]
link Freelancer to TaskExecution--><path d="M598.1618,66.7503 C608.1541,66.0234 618.342,65.3996 628,65 C658.1964,63.7505 665.7893,64.1657 696,65 C937.076,71.6578 1002.0912,52.4123 1237,107 C1269.7235,114.6042 1304.4305,126.7957 1334.6931,138.8892 " fill="none" id="Freelancer-TaskExecution" style="stroke: #A80036; stroke-width: 1.0;"/><text fill="#000000" font-family="sans-serif" font-size="13" lengthAdjust="spacingAndGlyphs" textLength="151" x="926" y="63.0669">results from the work of</text><text fill="#000000" font-family="sans-serif" font-size="13" lengthAdjust="spacingAndGlyphs" textLength="8" x="605.8904" y="78.9813">1</text><text fill="#000000" font-family="sans-serif" font-size="13" lengthAdjust="spacingAndGlyphs" textLength="8" x="1319.0613" y="148.3134">1</text><!--MD5=[8724cce6f2e575636f9ee261078a311a]
@startuml
skinparam classAttributeIconSize 0
hide methods
left to right direction

class Platform{
}
class Freelancer {
  -String idF
  -String name
  -String levelExpertise
  -String email
  -String nif
  -String ibanAccount
  -String coutry
}

class Organization {
  -String nome
  -String email
  -String nif
}

class Collaborator{
  -String nome
  -String email
}

class Task {
  -String idT
  -String description
  -Time timeDuration
  -double costHour
  -String taskCategory
}


class User {
}


class Transaction {
  -Data endDate
  -double delay
  -String descriptionOfQuality
}

class TaskExecution{
  -Data endDate
  -double delay
  -String descriptionOfQuality
  }


class Payment{
}


Freelancer "1" - - "1" Transaction: receives >
Task "1..*" - - "1" Freelancer: made by >
Platform "1" - - "1..*" Transaction: has >
Platform "1" - - "1..*" Organization: has registered >
Platform "1" - - "1..*" Freelancer: has >
Organization "1" - - "1..*" Task: has >
Organization "1" - - "1" Collaborator: has >
Transaction "1" - - "1" Payment: results in >
Transaction "1" - - "1" Task: has >
Collaborator "1" - - "1..*" Transaction: creates >
Collaborator "1" - - "1" User: acts as >

Transaction "1" - - "1" TaskExecution: has >
Task "1" - - "1" TaskExecution: has >
Freelancer "1" - - "1" TaskExecution: results from the work of
@enduml

PlantUML version 1.2019.12(Sun Nov 03 10:24:54 UTC 2019)
(GPL source distribution)
Java Runtime: OpenJDK Runtime Environment
JVM: OpenJDK 64-Bit Server VM
Java Version: 1.8.0_232-heroku-b09
Operating System: Linux
Default Encoding: UTF-8
Language: en
Country: US
--></g></svg>