<?xml version="1.0" encoding="UTF-8" standalone="no"?><svg xmlns="http://www.w3.org/2000/svg" xmlns:xlink="http://www.w3.org/1999/xlink" contentScriptType="application/ecmascript" contentStyleType="text/css" height="1432px" preserveAspectRatio="none" style="width:849px;height:1432px;" version="1.1" viewBox="0 0 849 1432" width="849px" zoomAndPan="magnify"><defs><filter height="300%" id="folhmvfjsy7gq" width="300%" x="-1" y="-1"><feGaussianBlur result="blurOut" stdDeviation="2.0"/><feColorMatrix in="blurOut" result="blurOut2" type="matrix" values="0 0 0 0 0 0 0 0 0 0 0 0 0 0 0 0 0 0 .4 0"/><feOffset dx="4.0" dy="4.0" in="blurOut2" result="blurOut3"/><feBlend in="SourceGraphic" in2="blurOut3" mode="normal"/></filter></defs><g><!--MD5=[a40557e6e85d4da4ca6f03c9286aad25]
class CreateTransactionUI--><rect fill="#FEFECE" filter="url(#folhmvfjsy7gq)" height="48" id="CreateTransactionUI" style="stroke: #A80036; stroke-width: 1.5;" width="160" x="361" y="8"/><ellipse cx="376" cy="24" fill="#ADD1B2" rx="11" ry="11" style="stroke: #A80036; stroke-width: 1.0;"/><path d="M378.9688,29.6406 Q378.3906,29.9375 377.75,30.0859 Q377.1094,30.2344 376.4063,30.2344 Q373.9063,30.2344 372.5859,28.5859 Q371.2656,26.9375 371.2656,23.8125 Q371.2656,20.6875 372.5859,19.0313 Q373.9063,17.375 376.4063,17.375 Q377.1094,17.375 377.7578,17.5313 Q378.4063,17.6875 378.9688,17.9844 L378.9688,20.7031 Q378.3438,20.125 377.75,19.8516 Q377.1563,19.5781 376.5313,19.5781 Q375.1875,19.5781 374.5,20.6484 Q373.8125,21.7188 373.8125,23.8125 Q373.8125,25.9063 374.5,26.9766 Q375.1875,28.0469 376.5313,28.0469 Q377.1563,28.0469 377.75,27.7734 Q378.3438,27.5 378.9688,26.9219 L378.9688,29.6406 Z "/><text fill="#000000" font-family="sans-serif" font-size="12" lengthAdjust="spacingAndGlyphs" textLength="128" x="390" y="28.1543">CreateTransactionUI</text><line style="stroke: #A80036; stroke-width: 1.5;" x1="362" x2="520" y1="40" y2="40"/><line style="stroke: #A80036; stroke-width: 1.5;" x1="362" x2="520" y1="48" y2="48"/><!--MD5=[68b9bdc8d17948337917a4afca18f499]
class CreateTransactionController--><rect fill="#FEFECE" filter="url(#folhmvfjsy7gq)" height="99.2188" id="CreateTransactionController" style="stroke: #A80036; stroke-width: 1.5;" width="343" x="269.5" y="117"/><ellipse cx="348.25" cy="133" fill="#ADD1B2" rx="11" ry="11" style="stroke: #A80036; stroke-width: 1.0;"/><path d="M351.2188,138.6406 Q350.6406,138.9375 350,139.0859 Q349.3594,139.2344 348.6563,139.2344 Q346.1563,139.2344 344.8359,137.5859 Q343.5156,135.9375 343.5156,132.8125 Q343.5156,129.6875 344.8359,128.0313 Q346.1563,126.375 348.6563,126.375 Q349.3594,126.375 350.0078,126.5313 Q350.6563,126.6875 351.2188,126.9844 L351.2188,129.7031 Q350.5938,129.125 350,128.8516 Q349.4063,128.5781 348.7813,128.5781 Q347.4375,128.5781 346.75,129.6484 Q346.0625,130.7188 346.0625,132.8125 Q346.0625,134.9063 346.75,135.9766 Q347.4375,137.0469 348.7813,137.0469 Q349.4063,137.0469 350,136.7734 Q350.5938,136.5 351.2188,135.9219 L351.2188,138.6406 Z "/><text fill="#000000" font-family="sans-serif" font-size="12" lengthAdjust="spacingAndGlyphs" textLength="177" x="368.75" y="137.1543">CreateTransactionController</text><line style="stroke: #A80036; stroke-width: 1.5;" x1="270.5" x2="611.5" y1="149" y2="149"/><line style="stroke: #A80036; stroke-width: 1.5;" x1="270.5" x2="611.5" y1="157" y2="157"/><ellipse cx="280.5" cy="168" fill="#84BE84" rx="3" ry="3" style="stroke: #038048; stroke-width: 1.0;"/><text fill="#000000" font-family="sans-serif" font-size="11" lengthAdjust="spacingAndGlyphs" textLength="73" x="289.5" y="171.2104">getTaskList()</text><ellipse cx="280.5" cy="180.8047" fill="#84BE84" rx="3" ry="3" style="stroke: #038048; stroke-width: 1.0;"/><text fill="#000000" font-family="sans-serif" font-size="11" lengthAdjust="spacingAndGlyphs" textLength="106" x="289.5" y="184.0151">getFreelancerList()</text><ellipse cx="280.5" cy="193.6094" fill="#84BE84" rx="3" ry="3" style="stroke: #038048; stroke-width: 1.0;"/><text fill="#000000" font-family="sans-serif" font-size="11" lengthAdjust="spacingAndGlyphs" textLength="317" x="289.5" y="196.8198">createNewTransaction(task, freel, endDate, delay, qow)</text><ellipse cx="280.5" cy="206.4141" fill="#84BE84" rx="3" ry="3" style="stroke: #038048; stroke-width: 1.0;"/><text fill="#000000" font-family="sans-serif" font-size="11" lengthAdjust="spacingAndGlyphs" textLength="120" x="289.5" y="209.6245">registerTransaction()</text><!--MD5=[86c7c362de55a38b660185a1328fe18d]
class Organization--><rect fill="#FEFECE" filter="url(#folhmvfjsy7gq)" height="99.2188" id="Organization" style="stroke: #A80036; stroke-width: 1.5;" width="110" x="437" y="428"/><ellipse cx="452" cy="444" fill="#ADD1B2" rx="11" ry="11" style="stroke: #A80036; stroke-width: 1.0;"/><path d="M454.9688,449.6406 Q454.3906,449.9375 453.75,450.0859 Q453.1094,450.2344 452.4063,450.2344 Q449.9063,450.2344 448.5859,448.5859 Q447.2656,446.9375 447.2656,443.8125 Q447.2656,440.6875 448.5859,439.0313 Q449.9063,437.375 452.4063,437.375 Q453.1094,437.375 453.7578,437.5313 Q454.4063,437.6875 454.9688,437.9844 L454.9688,440.7031 Q454.3438,440.125 453.75,439.8516 Q453.1563,439.5781 452.5313,439.5781 Q451.1875,439.5781 450.5,440.6484 Q449.8125,441.7188 449.8125,443.8125 Q449.8125,445.9063 450.5,446.9766 Q451.1875,448.0469 452.5313,448.0469 Q453.1563,448.0469 453.75,447.7734 Q454.3438,447.5 454.9688,446.9219 L454.9688,449.6406 Z "/><text fill="#000000" font-family="sans-serif" font-size="12" lengthAdjust="spacingAndGlyphs" textLength="78" x="466" y="448.1543">Organization</text><line style="stroke: #A80036; stroke-width: 1.5;" x1="438" x2="546" y1="460" y2="460"/><rect fill="none" height="6" style="stroke: #C82930; stroke-width: 1.0;" width="6" x="445" y="468"/><text fill="#000000" font-family="sans-serif" font-size="11" lengthAdjust="spacingAndGlyphs" textLength="70" x="457" y="474.2104">String nome</text><rect fill="none" height="6" style="stroke: #C82930; stroke-width: 1.0;" width="6" x="445" y="480.8047"/><text fill="#000000" font-family="sans-serif" font-size="11" lengthAdjust="spacingAndGlyphs" textLength="69" x="457" y="487.0151">String email</text><rect fill="none" height="6" style="stroke: #C82930; stroke-width: 1.0;" width="6" x="445" y="493.6094"/><text fill="#000000" font-family="sans-serif" font-size="11" lengthAdjust="spacingAndGlyphs" textLength="52" x="457" y="499.8198">String nif</text><line style="stroke: #A80036; stroke-width: 1.5;" x1="438" x2="546" y1="506.4141" y2="506.4141"/><ellipse cx="448" cy="517.4141" fill="#84BE84" rx="3" ry="3" style="stroke: #038048; stroke-width: 1.0;"/><text fill="#000000" font-family="sans-serif" font-size="11" lengthAdjust="spacingAndGlyphs" textLength="39" x="457" y="520.6245">getTL()</text><!--MD5=[cf2635f8a68afd84898027166f4516bc]
class TaskList--><rect fill="#FEFECE" filter="url(#folhmvfjsy7gq)" height="60.8047" id="TaskList" style="stroke: #A80036; stroke-width: 1.5;" width="99" x="696.5" y="610.5"/><ellipse cx="719.15" cy="626.5" fill="#ADD1B2" rx="11" ry="11" style="stroke: #A80036; stroke-width: 1.0;"/><path d="M722.1188,632.1406 Q721.5406,632.4375 720.9,632.5859 Q720.2594,632.7344 719.5563,632.7344 Q717.0563,632.7344 715.7359,631.0859 Q714.4156,629.4375 714.4156,626.3125 Q714.4156,623.1875 715.7359,621.5313 Q717.0563,619.875 719.5563,619.875 Q720.2594,619.875 720.9078,620.0313 Q721.5563,620.1875 722.1188,620.4844 L722.1188,623.2031 Q721.4938,622.625 720.9,622.3516 Q720.3063,622.0781 719.6813,622.0781 Q718.3375,622.0781 717.65,623.1484 Q716.9625,624.2188 716.9625,626.3125 Q716.9625,628.4063 717.65,629.4766 Q718.3375,630.5469 719.6813,630.5469 Q720.3063,630.5469 720.9,630.2734 Q721.4938,630 722.1188,629.4219 L722.1188,632.1406 Z "/><text fill="#000000" font-family="sans-serif" font-size="12" lengthAdjust="spacingAndGlyphs" textLength="50" x="734.85" y="630.6543">TaskList</text><line style="stroke: #A80036; stroke-width: 1.5;" x1="697.5" x2="794.5" y1="642.5" y2="642.5"/><line style="stroke: #A80036; stroke-width: 1.5;" x1="697.5" x2="794.5" y1="650.5" y2="650.5"/><ellipse cx="707.5" cy="661.5" fill="#84BE84" rx="3" ry="3" style="stroke: #038048; stroke-width: 1.0;"/><text fill="#000000" font-family="sans-serif" font-size="11" lengthAdjust="spacingAndGlyphs" textLength="73" x="716.5" y="664.7104">getTaskList()</text><!--MD5=[99b8db98afdc2c8404e39242ef4c1e65]
class Platform--><rect fill="#FEFECE" filter="url(#folhmvfjsy7gq)" height="73.6094" id="Platform" style="stroke: #A80036; stroke-width: 1.5;" width="84" x="447" y="277"/><ellipse cx="462" cy="293" fill="#ADD1B2" rx="11" ry="11" style="stroke: #A80036; stroke-width: 1.0;"/><path d="M464.9688,298.6406 Q464.3906,298.9375 463.75,299.0859 Q463.1094,299.2344 462.4063,299.2344 Q459.9063,299.2344 458.5859,297.5859 Q457.2656,295.9375 457.2656,292.8125 Q457.2656,289.6875 458.5859,288.0313 Q459.9063,286.375 462.4063,286.375 Q463.1094,286.375 463.7578,286.5313 Q464.4063,286.6875 464.9688,286.9844 L464.9688,289.7031 Q464.3438,289.125 463.75,288.8516 Q463.1563,288.5781 462.5313,288.5781 Q461.1875,288.5781 460.5,289.6484 Q459.8125,290.7188 459.8125,292.8125 Q459.8125,294.9063 460.5,295.9766 Q461.1875,297.0469 462.5313,297.0469 Q463.1563,297.0469 463.75,296.7734 Q464.3438,296.5 464.9688,295.9219 L464.9688,298.6406 Z "/><text fill="#000000" font-family="sans-serif" font-size="12" lengthAdjust="spacingAndGlyphs" textLength="52" x="476" y="297.1543">Platform</text><line style="stroke: #A80036; stroke-width: 1.5;" x1="448" x2="530" y1="309" y2="309"/><line style="stroke: #A80036; stroke-width: 1.5;" x1="448" x2="530" y1="317" y2="317"/><ellipse cx="458" cy="328" fill="#84BE84" rx="3" ry="3" style="stroke: #038048; stroke-width: 1.0;"/><text fill="#000000" font-family="sans-serif" font-size="11" lengthAdjust="spacingAndGlyphs" textLength="39" x="467" y="331.2104">getRF()</text><ellipse cx="458" cy="340.8047" fill="#84BE84" rx="3" ry="3" style="stroke: #038048; stroke-width: 1.0;"/><text fill="#000000" font-family="sans-serif" font-size="11" lengthAdjust="spacingAndGlyphs" textLength="40" x="467" y="344.0151">getRT()</text><!--MD5=[6735b55cc4e757c70976e457f6d95f3d]
class RegisterFreelancer--><rect fill="#FEFECE" filter="url(#folhmvfjsy7gq)" height="60.8047" id="RegisterFreelancer" style="stroke: #A80036; stroke-width: 1.5;" width="151" x="582.5" y="447"/><ellipse cx="597.5" cy="463" fill="#ADD1B2" rx="11" ry="11" style="stroke: #A80036; stroke-width: 1.0;"/><path d="M600.4688,468.6406 Q599.8906,468.9375 599.25,469.0859 Q598.6094,469.2344 597.9063,469.2344 Q595.4063,469.2344 594.0859,467.5859 Q592.7656,465.9375 592.7656,462.8125 Q592.7656,459.6875 594.0859,458.0313 Q595.4063,456.375 597.9063,456.375 Q598.6094,456.375 599.2578,456.5313 Q599.9063,456.6875 600.4688,456.9844 L600.4688,459.7031 Q599.8438,459.125 599.25,458.8516 Q598.6563,458.5781 598.0313,458.5781 Q596.6875,458.5781 596,459.6484 Q595.3125,460.7188 595.3125,462.8125 Q595.3125,464.9063 596,465.9766 Q596.6875,467.0469 598.0313,467.0469 Q598.6563,467.0469 599.25,466.7734 Q599.8438,466.5 600.4688,465.9219 L600.4688,468.6406 Z "/><text fill="#000000" font-family="sans-serif" font-size="12" lengthAdjust="spacingAndGlyphs" textLength="119" x="611.5" y="467.1543">RegisterFreelancer</text><line style="stroke: #A80036; stroke-width: 1.5;" x1="583.5" x2="732.5" y1="479" y2="479"/><line style="stroke: #A80036; stroke-width: 1.5;" x1="583.5" x2="732.5" y1="487" y2="487"/><ellipse cx="593.5" cy="498" fill="#84BE84" rx="3" ry="3" style="stroke: #038048; stroke-width: 1.0;"/><text fill="#000000" font-family="sans-serif" font-size="11" lengthAdjust="spacingAndGlyphs" textLength="106" x="602.5" y="501.2104">getFreelancerList()</text><!--MD5=[f6ed7daa03e434106607816c975112f0]
class RegisterTransaction--><rect fill="#FEFECE" filter="url(#folhmvfjsy7gq)" height="99.2188" id="RegisterTransaction" style="stroke: #A80036; stroke-width: 1.5;" width="343" x="58.5" y="428"/><ellipse cx="162.75" cy="444" fill="#ADD1B2" rx="11" ry="11" style="stroke: #A80036; stroke-width: 1.0;"/><path d="M165.7188,449.6406 Q165.1406,449.9375 164.5,450.0859 Q163.8594,450.2344 163.1563,450.2344 Q160.6563,450.2344 159.3359,448.5859 Q158.0156,446.9375 158.0156,443.8125 Q158.0156,440.6875 159.3359,439.0313 Q160.6563,437.375 163.1563,437.375 Q163.8594,437.375 164.5078,437.5313 Q165.1563,437.6875 165.7188,437.9844 L165.7188,440.7031 Q165.0938,440.125 164.5,439.8516 Q163.9063,439.5781 163.2813,439.5781 Q161.9375,439.5781 161.25,440.6484 Q160.5625,441.7188 160.5625,443.8125 Q160.5625,445.9063 161.25,446.9766 Q161.9375,448.0469 163.2813,448.0469 Q163.9063,448.0469 164.5,447.7734 Q165.0938,447.5 165.7188,446.9219 L165.7188,449.6406 Z "/><text fill="#000000" font-family="sans-serif" font-size="12" lengthAdjust="spacingAndGlyphs" textLength="126" x="183.25" y="448.1543">RegisterTransaction</text><line style="stroke: #A80036; stroke-width: 1.5;" x1="59.5" x2="400.5" y1="460" y2="460"/><line style="stroke: #A80036; stroke-width: 1.5;" x1="59.5" x2="400.5" y1="468" y2="468"/><ellipse cx="69.5" cy="479" fill="#84BE84" rx="3" ry="3" style="stroke: #038048; stroke-width: 1.0;"/><text fill="#000000" font-family="sans-serif" font-size="11" lengthAdjust="spacingAndGlyphs" textLength="317" x="78.5" y="482.2104">createNewTransaction(task, freel, endDate, delay, qow)</text><ellipse cx="69.5" cy="491.8047" fill="#84BE84" rx="3" ry="3" style="stroke: #038048; stroke-width: 1.0;"/><text fill="#000000" font-family="sans-serif" font-size="11" lengthAdjust="spacingAndGlyphs" textLength="150" x="78.5" y="495.0151">registerTransaction(trans)</text><ellipse cx="69.5" cy="504.6094" fill="#84BE84" rx="3" ry="3" style="stroke: #038048; stroke-width: 1.0;"/><text fill="#000000" font-family="sans-serif" font-size="11" lengthAdjust="spacingAndGlyphs" textLength="149" x="78.5" y="507.8198">validateTransaction(trans)</text><ellipse cx="69.5" cy="517.4141" fill="#84BE84" rx="3" ry="3" style="stroke: #038048; stroke-width: 1.0;"/><text fill="#000000" font-family="sans-serif" font-size="11" lengthAdjust="spacingAndGlyphs" textLength="126" x="78.5" y="520.6245">addTransaction(trans)</text><!--MD5=[4555bb1b0911a5adf28ce6dbe60fed2e]
class Transaction--><rect fill="#FEFECE" filter="url(#folhmvfjsy7gq)" height="86.4141" id="Transaction" style="stroke: #A80036; stroke-width: 1.5;" width="252" x="238" y="1159"/><ellipse cx="322.75" cy="1175" fill="#ADD1B2" rx="11" ry="11" style="stroke: #A80036; stroke-width: 1.0;"/><path d="M325.7188,1180.6406 Q325.1406,1180.9375 324.5,1181.0859 Q323.8594,1181.2344 323.1563,1181.2344 Q320.6563,1181.2344 319.3359,1179.5859 Q318.0156,1177.9375 318.0156,1174.8125 Q318.0156,1171.6875 319.3359,1170.0313 Q320.6563,1168.375 323.1563,1168.375 Q323.8594,1168.375 324.5078,1168.5313 Q325.1563,1168.6875 325.7188,1168.9844 L325.7188,1171.7031 Q325.0938,1171.125 324.5,1170.8516 Q323.9063,1170.5781 323.2813,1170.5781 Q321.9375,1170.5781 321.25,1171.6484 Q320.5625,1172.7188 320.5625,1174.8125 Q320.5625,1176.9063 321.25,1177.9766 Q321.9375,1179.0469 323.2813,1179.0469 Q323.9063,1179.0469 324.5,1178.7734 Q325.0938,1178.5 325.7188,1177.9219 L325.7188,1180.6406 Z "/><text fill="#000000" font-family="sans-serif" font-size="12" lengthAdjust="spacingAndGlyphs" textLength="74" x="343.25" y="1179.1543">Transaction</text><line style="stroke: #A80036; stroke-width: 1.5;" x1="239" x2="489" y1="1191" y2="1191"/><line style="stroke: #A80036; stroke-width: 1.5;" x1="239" x2="489" y1="1199" y2="1199"/><ellipse cx="249" cy="1210" fill="#84BE84" rx="3" ry="3" style="stroke: #038048; stroke-width: 1.0;"/><text fill="#000000" font-family="sans-serif" font-size="11" lengthAdjust="spacingAndGlyphs" textLength="226" x="258" y="1213.2104">create(task, freel, endDate, delay, qow)</text><ellipse cx="249" cy="1222.8047" fill="#84BE84" rx="3" ry="3" style="stroke: #038048; stroke-width: 1.0;"/><text fill="#000000" font-family="sans-serif" font-size="11" lengthAdjust="spacingAndGlyphs" textLength="183" x="258" y="1226.0151">validateTaskExecution(taskExec)</text><ellipse cx="249" cy="1235.6094" fill="#84BE84" rx="3" ry="3" style="stroke: #038048; stroke-width: 1.0;"/><text fill="#000000" font-family="sans-serif" font-size="11" lengthAdjust="spacingAndGlyphs" textLength="160" x="258" y="1238.8198">addTaskExecution(taskExec)</text><!--MD5=[1f687b5315377fe49fca59b457947463]
class Freelancer--><rect fill="#FEFECE" filter="url(#folhmvfjsy7gq)" height="137.6328" id="Freelancer" style="stroke: #A80036; stroke-width: 1.5;" width="143" x="513.5" y="944"/><ellipse cx="548.3" cy="960" fill="#ADD1B2" rx="11" ry="11" style="stroke: #A80036; stroke-width: 1.0;"/><path d="M551.2688,965.6406 Q550.6906,965.9375 550.05,966.0859 Q549.4094,966.2344 548.7063,966.2344 Q546.2063,966.2344 544.8859,964.5859 Q543.5656,962.9375 543.5656,959.8125 Q543.5656,956.6875 544.8859,955.0313 Q546.2063,953.375 548.7063,953.375 Q549.4094,953.375 550.0578,953.5313 Q550.7063,953.6875 551.2688,953.9844 L551.2688,956.7031 Q550.6438,956.125 550.05,955.8516 Q549.4563,955.5781 548.8313,955.5781 Q547.4875,955.5781 546.8,956.6484 Q546.1125,957.7188 546.1125,959.8125 Q546.1125,961.9063 546.8,962.9766 Q547.4875,964.0469 548.8313,964.0469 Q549.4563,964.0469 550.05,963.7734 Q550.6438,963.5 551.2688,962.9219 L551.2688,965.6406 Z "/><text fill="#000000" font-family="sans-serif" font-size="12" lengthAdjust="spacingAndGlyphs" textLength="67" x="566.7" y="964.1543">Freelancer</text><line style="stroke: #A80036; stroke-width: 1.5;" x1="514.5" x2="655.5" y1="976" y2="976"/><rect fill="none" height="6" style="stroke: #C82930; stroke-width: 1.0;" width="6" x="521.5" y="984"/><text fill="#000000" font-family="sans-serif" font-size="11" lengthAdjust="spacingAndGlyphs" textLength="54" x="533.5" y="990.2104">String idF</text><rect fill="none" height="6" style="stroke: #C82930; stroke-width: 1.0;" width="6" x="521.5" y="996.8047"/><text fill="#000000" font-family="sans-serif" font-size="11" lengthAdjust="spacingAndGlyphs" textLength="70" x="533.5" y="1003.0151">String name</text><rect fill="none" height="6" style="stroke: #C82930; stroke-width: 1.0;" width="6" x="521.5" y="1009.6094"/><text fill="#000000" font-family="sans-serif" font-size="11" lengthAdjust="spacingAndGlyphs" textLength="117" x="533.5" y="1015.8198">String levelExpertise</text><rect fill="none" height="6" style="stroke: #C82930; stroke-width: 1.0;" width="6" x="521.5" y="1022.4141"/><text fill="#000000" font-family="sans-serif" font-size="11" lengthAdjust="spacingAndGlyphs" textLength="69" x="533.5" y="1028.6245">String email</text><rect fill="none" height="6" style="stroke: #C82930; stroke-width: 1.0;" width="6" x="521.5" y="1035.2188"/><text fill="#000000" font-family="sans-serif" font-size="11" lengthAdjust="spacingAndGlyphs" textLength="52" x="533.5" y="1041.4292">String nif</text><rect fill="none" height="6" style="stroke: #C82930; stroke-width: 1.0;" width="6" x="521.5" y="1048.0234"/><text fill="#000000" font-family="sans-serif" font-size="11" lengthAdjust="spacingAndGlyphs" textLength="106" x="533.5" y="1054.2339">String ibanAccount</text><rect fill="none" height="6" style="stroke: #C82930; stroke-width: 1.0;" width="6" x="521.5" y="1060.8281"/><text fill="#000000" font-family="sans-serif" font-size="11" lengthAdjust="spacingAndGlyphs" textLength="80" x="533.5" y="1067.0386">String country</text><line style="stroke: #A80036; stroke-width: 1.5;" x1="514.5" x2="655.5" y1="1073.6328" y2="1073.6328"/><!--MD5=[f483d6e5de34a60207b28a5563be5e8b]
class Collaborator--><rect fill="#FEFECE" filter="url(#folhmvfjsy7gq)" height="73.6094" id="Collaborator" style="stroke: #A80036; stroke-width: 1.5;" width="109" x="409.5" y="604"/><ellipse cx="424.5" cy="620" fill="#ADD1B2" rx="11" ry="11" style="stroke: #A80036; stroke-width: 1.0;"/><path d="M427.4688,625.6406 Q426.8906,625.9375 426.25,626.0859 Q425.6094,626.2344 424.9063,626.2344 Q422.4063,626.2344 421.0859,624.5859 Q419.7656,622.9375 419.7656,619.8125 Q419.7656,616.6875 421.0859,615.0313 Q422.4063,613.375 424.9063,613.375 Q425.6094,613.375 426.2578,613.5313 Q426.9063,613.6875 427.4688,613.9844 L427.4688,616.7031 Q426.8438,616.125 426.25,615.8516 Q425.6563,615.5781 425.0313,615.5781 Q423.6875,615.5781 423,616.6484 Q422.3125,617.7188 422.3125,619.8125 Q422.3125,621.9063 423,622.9766 Q423.6875,624.0469 425.0313,624.0469 Q425.6563,624.0469 426.25,623.7734 Q426.8438,623.5 427.4688,622.9219 L427.4688,625.6406 Z "/><text fill="#000000" font-family="sans-serif" font-size="12" lengthAdjust="spacingAndGlyphs" textLength="77" x="438.5" y="624.1543">Collaborator</text><line style="stroke: #A80036; stroke-width: 1.5;" x1="410.5" x2="517.5" y1="636" y2="636"/><rect fill="none" height="6" style="stroke: #C82930; stroke-width: 1.0;" width="6" x="417.5" y="644"/><text fill="#000000" font-family="sans-serif" font-size="11" lengthAdjust="spacingAndGlyphs" textLength="70" x="429.5" y="650.2104">String nome</text><rect fill="none" height="6" style="stroke: #C82930; stroke-width: 1.0;" width="6" x="417.5" y="656.8047"/><text fill="#000000" font-family="sans-serif" font-size="11" lengthAdjust="spacingAndGlyphs" textLength="69" x="429.5" y="663.0151">String email</text><line style="stroke: #A80036; stroke-width: 1.5;" x1="410.5" x2="517.5" y1="669.6094" y2="669.6094"/><!--MD5=[b34797a66dc35cbf1d65f7e3ca75530e]
class Task--><rect fill="#FEFECE" filter="url(#folhmvfjsy7gq)" height="112.0234" id="Task" style="stroke: #A80036; stroke-width: 1.5;" width="139" x="676.5" y="755"/><ellipse cx="727.25" cy="771" fill="#ADD1B2" rx="11" ry="11" style="stroke: #A80036; stroke-width: 1.0;"/><path d="M730.2188,776.6406 Q729.6406,776.9375 729,777.0859 Q728.3594,777.2344 727.6563,777.2344 Q725.1563,777.2344 723.8359,775.5859 Q722.5156,773.9375 722.5156,770.8125 Q722.5156,767.6875 723.8359,766.0313 Q725.1563,764.375 727.6563,764.375 Q728.3594,764.375 729.0078,764.5313 Q729.6563,764.6875 730.2188,764.9844 L730.2188,767.7031 Q729.5938,767.125 729,766.8516 Q728.4063,766.5781 727.7813,766.5781 Q726.4375,766.5781 725.75,767.6484 Q725.0625,768.7188 725.0625,770.8125 Q725.0625,772.9063 725.75,773.9766 Q726.4375,775.0469 727.7813,775.0469 Q728.4063,775.0469 729,774.7734 Q729.5938,774.5 730.2188,773.9219 L730.2188,776.6406 Z "/><text fill="#000000" font-family="sans-serif" font-size="12" lengthAdjust="spacingAndGlyphs" textLength="29" x="747.75" y="775.1543">Task</text><line style="stroke: #A80036; stroke-width: 1.5;" x1="677.5" x2="814.5" y1="787" y2="787"/><rect fill="none" height="6" style="stroke: #C82930; stroke-width: 1.0;" width="6" x="684.5" y="795"/><text fill="#000000" font-family="sans-serif" font-size="11" lengthAdjust="spacingAndGlyphs" textLength="55" x="696.5" y="801.2104">String idT</text><rect fill="none" height="6" style="stroke: #C82930; stroke-width: 1.0;" width="6" x="684.5" y="807.8047"/><text fill="#000000" font-family="sans-serif" font-size="11" lengthAdjust="spacingAndGlyphs" textLength="101" x="696.5" y="814.0151">String description</text><rect fill="none" height="6" style="stroke: #C82930; stroke-width: 1.0;" width="6" x="684.5" y="820.6094"/><text fill="#000000" font-family="sans-serif" font-size="11" lengthAdjust="spacingAndGlyphs" textLength="105" x="696.5" y="826.8198">Time timeDuration</text><rect fill="none" height="6" style="stroke: #C82930; stroke-width: 1.0;" width="6" x="684.5" y="833.4141"/><text fill="#000000" font-family="sans-serif" font-size="11" lengthAdjust="spacingAndGlyphs" textLength="93" x="696.5" y="839.6245">double costHour</text><rect fill="none" height="6" style="stroke: #C82930; stroke-width: 1.0;" width="6" x="684.5" y="846.2188"/><text fill="#000000" font-family="sans-serif" font-size="11" lengthAdjust="spacingAndGlyphs" textLength="113" x="696.5" y="852.4292">String taskCategory</text><line style="stroke: #A80036; stroke-width: 1.5;" x1="677.5" x2="814.5" y1="859.0234" y2="859.0234"/><!--MD5=[5ce80547de3caced9d0089e35ded5090]
class TaskExecution--><rect fill="#FEFECE" filter="url(#folhmvfjsy7gq)" height="99.2188" id="TaskExecution" style="stroke: #A80036; stroke-width: 1.5;" width="186" x="467" y="1322"/><ellipse cx="510.8" cy="1338" fill="#ADD1B2" rx="11" ry="11" style="stroke: #A80036; stroke-width: 1.0;"/><path d="M513.7688,1343.6406 Q513.1906,1343.9375 512.55,1344.0859 Q511.9094,1344.2344 511.2063,1344.2344 Q508.7063,1344.2344 507.3859,1342.5859 Q506.0656,1340.9375 506.0656,1337.8125 Q506.0656,1334.6875 507.3859,1333.0313 Q508.7063,1331.375 511.2063,1331.375 Q511.9094,1331.375 512.5578,1331.5313 Q513.2063,1331.6875 513.7688,1331.9844 L513.7688,1334.7031 Q513.1438,1334.125 512.55,1333.8516 Q511.9563,1333.5781 511.3313,1333.5781 Q509.9875,1333.5781 509.3,1334.6484 Q508.6125,1335.7188 508.6125,1337.8125 Q508.6125,1339.9063 509.3,1340.9766 Q509.9875,1342.0469 511.3313,1342.0469 Q511.9563,1342.0469 512.55,1341.7734 Q513.1438,1341.5 513.7688,1340.9219 L513.7688,1343.6406 Z "/><text fill="#000000" font-family="sans-serif" font-size="12" lengthAdjust="spacingAndGlyphs" textLength="90" x="531.2" y="1342.1543">TaskExecution</text><line style="stroke: #A80036; stroke-width: 1.5;" x1="468" x2="652" y1="1354" y2="1354"/><rect fill="none" height="6" style="stroke: #C82930; stroke-width: 1.0;" width="6" x="475" y="1362"/><text fill="#000000" font-family="sans-serif" font-size="11" lengthAdjust="spacingAndGlyphs" textLength="77" x="487" y="1368.2104">Data endDate</text><rect fill="none" height="6" style="stroke: #C82930; stroke-width: 1.0;" width="6" x="475" y="1374.8047"/><text fill="#000000" font-family="sans-serif" font-size="11" lengthAdjust="spacingAndGlyphs" textLength="72" x="487" y="1381.0151">double delay</text><rect fill="none" height="6" style="stroke: #C82930; stroke-width: 1.0;" width="6" x="475" y="1387.6094"/><text fill="#000000" font-family="sans-serif" font-size="11" lengthAdjust="spacingAndGlyphs" textLength="153" x="487" y="1393.8198">String descriptionOfQuality</text><line style="stroke: #A80036; stroke-width: 1.5;" x1="468" x2="652" y1="1400.4141" y2="1400.4141"/><ellipse cx="478" cy="1411.4141" fill="#84BE84" rx="3" ry="3" style="stroke: #038048; stroke-width: 1.0;"/><text fill="#000000" font-family="sans-serif" font-size="11" lengthAdjust="spacingAndGlyphs" textLength="160" x="487" y="1414.6245">create(endDate, delay, qow)</text><!--MD5=[3fd616f346a44cd59a91eb10b19e157c]
class User--><rect fill="#FEFECE" filter="url(#folhmvfjsy7gq)" height="48" id="User" style="stroke: #A80036; stroke-width: 1.5;" width="61" x="433.5" y="787"/><ellipse cx="448.5" cy="803" fill="#ADD1B2" rx="11" ry="11" style="stroke: #A80036; stroke-width: 1.0;"/><path d="M451.4688,808.6406 Q450.8906,808.9375 450.25,809.0859 Q449.6094,809.2344 448.9063,809.2344 Q446.4063,809.2344 445.0859,807.5859 Q443.7656,805.9375 443.7656,802.8125 Q443.7656,799.6875 445.0859,798.0313 Q446.4063,796.375 448.9063,796.375 Q449.6094,796.375 450.2578,796.5313 Q450.9063,796.6875 451.4688,796.9844 L451.4688,799.7031 Q450.8438,799.125 450.25,798.8516 Q449.6563,798.5781 449.0313,798.5781 Q447.6875,798.5781 447,799.6484 Q446.3125,800.7188 446.3125,802.8125 Q446.3125,804.9063 447,805.9766 Q447.6875,807.0469 449.0313,807.0469 Q449.6563,807.0469 450.25,806.7734 Q450.8438,806.5 451.4688,805.9219 L451.4688,808.6406 Z "/><text fill="#000000" font-family="sans-serif" font-size="12" lengthAdjust="spacingAndGlyphs" textLength="29" x="462.5" y="807.1543">User</text><line style="stroke: #A80036; stroke-width: 1.5;" x1="434.5" x2="493.5" y1="819" y2="819"/><line style="stroke: #A80036; stroke-width: 1.5;" x1="434.5" x2="493.5" y1="827" y2="827"/><!--MD5=[6688bada5bfda570a968c3148ca4366e]
link CreateTransactionController to Organization--><path d="M429.9738,216.0983 C423.5004,253.6192 418.4526,306.1619 429,351 C434.8743,375.9724 446.4602,401.6489 458.1119,423.2882 " fill="none" id="CreateTransactionController-&gt;Organization" style="stroke: #A80036; stroke-width: 1.0; stroke-dasharray: 7.0,7.0;"/><polygon fill="#A80036" points="460.5972,427.8428,459.7973,418.0265,458.2021,423.4538,452.7748,421.8586,460.5972,427.8428" style="stroke: #A80036; stroke-width: 1.0;"/><!--MD5=[b8d26f89be4acaa564761097540fe4ea]
link CreateTransactionController to TaskList--><path d="M543.4198,216.2086 C619.2598,259.82 715.3523,331.3918 751,428 C772.7793,487.0237 763.4112,561.6404 754.6704,605.0757 " fill="none" id="CreateTransactionController-&gt;TaskList" style="stroke: #A80036; stroke-width: 1.0; stroke-dasharray: 7.0,7.0;"/><polygon fill="#A80036" points="753.6097,610.215,759.3464,602.2093,754.6204,605.3182,751.5115,600.5922,753.6097,610.215" style="stroke: #A80036; stroke-width: 1.0;"/><!--MD5=[5c243492f641b59132f841fb4b8cf79b]
link CreateTransactionController to Platform--><path d="M457.1168,216.0257 C463.0418,234.2326 469.6879,254.6554 475.3726,272.124 " fill="none" id="CreateTransactionController-&gt;Platform" style="stroke: #A80036; stroke-width: 1.0; stroke-dasharray: 7.0,7.0;"/><polygon fill="#A80036" points="476.949,276.9684,477.9675,267.1724,475.4017,272.2138,470.3602,269.648,476.949,276.9684" style="stroke: #A80036; stroke-width: 1.0;"/><!--MD5=[358619db85e3bc17610864414eee935b]
link CreateTransactionController to RegisterFreelancer--><path d="M503.5074,216.0031 C548.9459,255.6189 607.898,315.272 640,381 C649.1609,399.7567 653.6762,422.6556 655.8942,441.4393 " fill="none" id="CreateTransactionController-&gt;RegisterFreelancer" style="stroke: #A80036; stroke-width: 1.0; stroke-dasharray: 7.0,7.0;"/><polygon fill="#A80036" points="656.4608,446.6212,659.4587,437.2397,655.9172,441.6508,651.5061,438.1094,656.4608,446.6212" style="stroke: #A80036; stroke-width: 1.0;"/><!--MD5=[a9fbaa0c029db555c642469a951c73d9]
link CreateTransactionController to RegisterTransaction--><path d="M407.3331,216.1228 C368.8718,272.8122 306.1537,365.2545 266.5335,423.652 " fill="none" id="CreateTransactionController-&gt;RegisterTransaction" style="stroke: #A80036; stroke-width: 1.0; stroke-dasharray: 7.0,7.0;"/><polygon fill="#A80036" points="263.7214,427.7968,272.0845,422.595,266.5287,423.6593,265.4644,418.1034,263.7214,427.7968" style="stroke: #A80036; stroke-width: 1.0;"/><!--MD5=[066fa29d1550b759016aef7322259445]
link CreateTransactionController to Transaction--><path d="M269.3887,192.4917 C147.7289,215.9295 6,255.7368 6,314 C6,314 6,314 6,1013 C6,1119.0926 130.4741,1165.7831 232.6287,1186.2374 " fill="none" id="CreateTransactionController-&gt;Transaction" style="stroke: #A80036; stroke-width: 1.0; stroke-dasharray: 7.0,7.0;"/><polygon fill="#A80036" points="237.7826,1187.251,229.7238,1181.5892,232.8766,1186.286,228.1798,1189.4388,237.7826,1187.251" style="stroke: #A80036; stroke-width: 1.0;"/><!--MD5=[22ffe80e9e3e83a03222f0f343985799]
link CreateTransactionUI to CreateTransactionController--><path d="M441,56.0459 C441,71.4478 441,92.0929 441,111.3652 " fill="none" id="CreateTransactionUI-&gt;CreateTransactionController" style="stroke: #A80036; stroke-width: 1.0; stroke-dasharray: 7.0,7.0;"/><polygon fill="#A80036" points="441,116.759,445,107.759,441,111.759,437,107.759,441,116.759" style="stroke: #A80036; stroke-width: 1.0;"/><!--MD5=[83bb469d45366b675450ee1d8d93a557]
link Freelancer to Transaction--><path d="M513.2955,1072.0825 C497.6366,1085.1438 481.2038,1098.973 466,1112 C448.3355,1127.1355 429.1638,1143.9478 412.2599,1158.9058 " fill="none" id="Freelancer-Transaction" style="stroke: #A80036; stroke-width: 1.0;"/><polygon fill="#000000" points="474,1119.0664,468,1122.0664,474,1125.0664,474,1119.0664" style="stroke: #000000; stroke-width: 1.0;"/><text fill="#000000" font-family="sans-serif" font-size="13" lengthAdjust="spacingAndGlyphs" textLength="53" x="480" y="1125.0669">receives</text><text fill="#000000" font-family="sans-serif" font-size="13" lengthAdjust="spacingAndGlyphs" textLength="8" x="497.4885" y="1074.4946">1</text><text fill="#000000" font-family="sans-serif" font-size="13" lengthAdjust="spacingAndGlyphs" textLength="8" x="411.3138" y="1147.8868">1</text><!--MD5=[46d37ede0064d909e6448e911ad77dfb]
link Platform to RegisterTransaction--><path d="M446.8107,340.633 C409.4703,364.205 354.0017,399.2209 308.5179,427.9337 " fill="none" id="Platform-RegisterTransaction" style="stroke: #A80036; stroke-width: 1.0;"/><polygon fill="#000000" points="391,388.0664,385,391.0664,391,394.0664,391,388.0664" style="stroke: #000000; stroke-width: 1.0;"/><text fill="#000000" font-family="sans-serif" font-size="13" lengthAdjust="spacingAndGlyphs" textLength="23" x="397" y="394.0669">has</text><text fill="#000000" font-family="sans-serif" font-size="13" lengthAdjust="spacingAndGlyphs" textLength="8" x="430.8719" y="341.0334">1</text><text fill="#000000" font-family="sans-serif" font-size="13" lengthAdjust="spacingAndGlyphs" textLength="23" x="294.9423" y="416.9696">1..*</text><!--MD5=[b99abe8d53c7d66ec43f05952bd22f94]
link RegisterTransaction to Transaction--><path d="M235.5434,527.1594 C238.6876,559.5311 242,602.7189 242,641 C242,641 242,641 242,1013 C242,1070.02 281.6813,1123.475 315.7824,1158.8852 " fill="none" id="RegisterTransaction-Transaction" style="stroke: #A80036; stroke-width: 1.0;"/><text fill="#000000" font-family="sans-serif" font-size="13" lengthAdjust="spacingAndGlyphs" textLength="23" x="243" y="815.5669">has</text><polygon fill="#000000" points="250,824.6328,253,830.6328,256,824.6328,250,824.6328" style="stroke: #000000; stroke-width: 1.0;"/><text fill="#000000" font-family="sans-serif" font-size="13" lengthAdjust="spacingAndGlyphs" textLength="8" x="227.7604" y="547.2583">1</text><text fill="#000000" font-family="sans-serif" font-size="13" lengthAdjust="spacingAndGlyphs" textLength="7" x="300.5399" y="1147.8629">*</text><!--MD5=[7640e466c042ba2d6f9c19c816f7f0fc]
link Platform to Organization--><path d="M475.1793,351.0873 C472.2102,360.6942 469.5122,371.1193 468,381 C465.6494,396.3586 467.9179,412.8452 471.8482,427.7685 " fill="none" id="Platform-Organization" style="stroke: #A80036; stroke-width: 1.0;"/><text fill="#000000" font-family="sans-serif" font-size="13" lengthAdjust="spacingAndGlyphs" textLength="92" x="469" y="394.0669">has registered</text><polygon fill="#000000" points="510.5,403.1328,513.5,409.1328,516.5,403.1328,510.5,403.1328" style="stroke: #000000; stroke-width: 1.0;"/><text fill="#000000" font-family="sans-serif" font-size="13" lengthAdjust="spacingAndGlyphs" textLength="8" x="464.2277" y="370.5823">1</text><text fill="#000000" font-family="sans-serif" font-size="13" lengthAdjust="spacingAndGlyphs" textLength="23" x="444.3972" y="416.7812">1..*</text><!--MD5=[bd4dc258c99bd36fa08dcfc6a9cf30bc]
link Platform to RegisterFreelancer--><path d="M531.0127,342.0142 C546.7483,353.3279 564.3489,367.0089 579,381 C600.139,401.1868 620.9522,426.9187 635.9046,446.7335 " fill="none" id="Platform-RegisterFreelancer" style="stroke: #A80036; stroke-width: 1.0;"/><text fill="#000000" font-family="sans-serif" font-size="13" lengthAdjust="spacingAndGlyphs" textLength="23" x="595" y="394.0669">has</text><polygon fill="#000000" points="621,388.0664,627,391.0664,621,394.0664,621,388.0664" style="stroke: #000000; stroke-width: 1.0;"/><text fill="#000000" font-family="sans-serif" font-size="13" lengthAdjust="spacingAndGlyphs" textLength="8" x="538.9211" y="342.652">1</text><text fill="#000000" font-family="sans-serif" font-size="13" lengthAdjust="spacingAndGlyphs" textLength="23" x="605.9755" y="435.9418">1..*</text><!--MD5=[49ce8ea186f6865d1a47f1469d32fd2e]
link RegisterFreelancer to Freelancer--><path d="M645.6898,508.3772 C640.3694,522.9129 634.5594,540.6195 631,557 C601.644,692.0975 590.9466,853.8664 587.1031,943.87 " fill="none" id="RegisterFreelancer-Freelancer" style="stroke: #A80036; stroke-width: 1.0;"/><text fill="#000000" font-family="sans-serif" font-size="13" lengthAdjust="spacingAndGlyphs" textLength="23" x="607" y="721.0669">has</text><polygon fill="#000000" points="614,730.1328,617,736.1328,620,730.1328,614,730.1328" style="stroke: #000000; stroke-width: 1.0;"/><text fill="#000000" font-family="sans-serif" font-size="13" lengthAdjust="spacingAndGlyphs" textLength="8" x="634.5807" y="527.791">1</text><text fill="#000000" font-family="sans-serif" font-size="13" lengthAdjust="spacingAndGlyphs" textLength="7" x="579.959" y="933.0602">*</text><!--MD5=[45817597bcd7048073a670d966abfd17]
link Organization to Collaborator--><path d="M483.4469,527.4438 C479.2333,552.0484 474.2398,581.2072 470.3679,603.8163 " fill="none" id="Organization-Collaborator" style="stroke: #A80036; stroke-width: 1.0;"/><text fill="#000000" font-family="sans-serif" font-size="13" lengthAdjust="spacingAndGlyphs" textLength="23" x="479" y="570.0669">has</text><polygon fill="#000000" points="486,579.1328,489,585.1328,492,579.1328,486,579.1328" style="stroke: #000000; stroke-width: 1.0;"/><text fill="#000000" font-family="sans-serif" font-size="13" lengthAdjust="spacingAndGlyphs" textLength="8" x="473.7601" y="547.2239">1</text><text fill="#000000" font-family="sans-serif" font-size="13" lengthAdjust="spacingAndGlyphs" textLength="8" x="462.7897" y="592.9705">1</text><!--MD5=[522c679f4dd7ba84a6aa9ac03f58229d]
link Organization to TaskList--><path d="M547.2716,515.2654 C553.2368,519.2554 559.2323,523.2297 565,527 C609.1403,555.8541 660.0022,587.7735 696.5479,610.4799 " fill="none" id="Organization-TaskList" style="stroke: #A80036; stroke-width: 1.0;"/><text fill="#000000" font-family="sans-serif" font-size="13" lengthAdjust="spacingAndGlyphs" textLength="23" x="636" y="570.0669">has</text><polygon fill="#000000" points="662,564.0664,668,567.0664,662,570.0664,662,564.0664" style="stroke: #000000; stroke-width: 1.0;"/><text fill="#000000" font-family="sans-serif" font-size="13" lengthAdjust="spacingAndGlyphs" textLength="8" x="554.8658" y="516.2045">1</text><text fill="#000000" font-family="sans-serif" font-size="13" lengthAdjust="spacingAndGlyphs" textLength="8" x="680.363" y="601.7501">1</text><!--MD5=[14c738364c5fdafcb97ced6863906d7f]
link TaskList to Task--><path d="M746,671.7857 C746,694.8451 746,727.0408 746,754.6627 " fill="none" id="TaskList-Task" style="stroke: #A80036; stroke-width: 1.0;"/><text fill="#000000" font-family="sans-serif" font-size="13" lengthAdjust="spacingAndGlyphs" textLength="23" x="747" y="721.0669">has</text><polygon fill="#000000" points="754,730.1328,757,736.1328,760,730.1328,754,730.1328" style="stroke: #000000; stroke-width: 1.0;"/><text fill="#000000" font-family="sans-serif" font-size="13" lengthAdjust="spacingAndGlyphs" textLength="8" x="737.2125" y="691.4224">1</text><text fill="#000000" font-family="sans-serif" font-size="13" lengthAdjust="spacingAndGlyphs" textLength="7" x="738.5734" y="743.9561">*</text><!--MD5=[8b5db564ea9bd1758097b07ca3fd81a4]
link Collaborator to Transaction--><path d="M445.2434,678.0624 C434.9912,699.9166 422.9912,728.4166 416,755 C377.9469,899.694 367.727,1078.0419 364.9927,1158.7272 " fill="none" id="Collaborator-Transaction" style="stroke: #A80036; stroke-width: 1.0;"/><text fill="#000000" font-family="sans-serif" font-size="13" lengthAdjust="spacingAndGlyphs" textLength="48" x="389" y="910.0669">creates</text><polygon fill="#000000" points="408.5,919.1328,411.5,925.1328,414.5,919.1328,408.5,919.1328" style="stroke: #000000; stroke-width: 1.0;"/><text fill="#000000" font-family="sans-serif" font-size="13" lengthAdjust="spacingAndGlyphs" textLength="8" x="433.4743" y="697.5533">1</text><text fill="#000000" font-family="sans-serif" font-size="13" lengthAdjust="spacingAndGlyphs" textLength="23" x="340.3838" y="1147.998">1..*</text><!--MD5=[04ce0ecdab38a3951889ff50c232570f]
link Collaborator to User--><path d="M464,678.3072 C464,711.343 464,758.5895 464,786.887 " fill="none" id="Collaborator-User" style="stroke: #A80036; stroke-width: 1.0;"/><text fill="#000000" font-family="sans-serif" font-size="13" lengthAdjust="spacingAndGlyphs" textLength="46" x="465" y="721.0669">acts as</text><polygon fill="#000000" points="483.5,730.1328,486.5,736.1328,489.5,730.1328,483.5,730.1328" style="stroke: #000000; stroke-width: 1.0;"/><text fill="#000000" font-family="sans-serif" font-size="13" lengthAdjust="spacingAndGlyphs" textLength="8" x="455.3625" y="697.557">1</text><text fill="#000000" font-family="sans-serif" font-size="13" lengthAdjust="spacingAndGlyphs" textLength="8" x="454.975" y="775.8701">1</text><!--MD5=[8853e9d83a8841c20c4ef075af762602]
link Task to Freelancer--><path d="M692.2597,867.4602 C683.6006,877.1321 674.8957,887.2195 667,897 C655.0714,911.7761 642.9001,928.158 631.7113,943.8428 " fill="none" id="Task-Freelancer" style="stroke: #A80036; stroke-width: 1.0;"/><text fill="#000000" font-family="sans-serif" font-size="13" lengthAdjust="spacingAndGlyphs" textLength="56" x="668" y="910.0669">made by</text><polygon fill="#000000" points="691.5,919.1328,694.5,925.1328,697.5,919.1328,691.5,919.1328" style="stroke: #000000; stroke-width: 1.0;"/><text fill="#000000" font-family="sans-serif" font-size="13" lengthAdjust="spacingAndGlyphs" textLength="23" x="661.7163" y="886.9288">1..*</text><text fill="#000000" font-family="sans-serif" font-size="13" lengthAdjust="spacingAndGlyphs" textLength="8" x="628.1159" y="933.0302">1</text><!--MD5=[bdc7b78a1b1f03a53fec8289ba75cac4]
link Task to TaskExecution--><path d="M759.3855,867.3302 C776.8597,954.089 798.2087,1123.1303 734,1245 C716.156,1278.8684 684.7067,1305.8952 653.4076,1326.1294 " fill="none" id="Task-TaskExecution" style="stroke: #A80036; stroke-width: 1.0;"/><text fill="#000000" font-family="sans-serif" font-size="13" lengthAdjust="spacingAndGlyphs" textLength="63" x="774" y="1125.0669">originates</text><polygon fill="#000000" points="801,1134.1328,804,1140.1328,807,1134.1328,801,1134.1328" style="stroke: #000000; stroke-width: 1.0;"/><text fill="#000000" font-family="sans-serif" font-size="13" lengthAdjust="spacingAndGlyphs" textLength="8" x="752.5294" y="887.1831">1</text><text fill="#000000" font-family="sans-serif" font-size="13" lengthAdjust="spacingAndGlyphs" textLength="8" x="660.8654" y="1319.1451">1</text><!--MD5=[590de1eb4160e0577c453d6e7f1b2aac]
link Transaction to TaskExecution--><path d="M413.9662,1245.2106 C440.9596,1268.5544 474.4126,1297.4843 502.4869,1321.7629 " fill="none" id="Transaction-TaskExecution" style="stroke: #A80036; stroke-width: 1.0;"/><text fill="#000000" font-family="sans-serif" font-size="13" lengthAdjust="spacingAndGlyphs" textLength="23" x="469" y="1288.0669">has</text><polygon fill="#000000" points="495,1282.0664,501,1285.0664,495,1288.0664,495,1282.0664" style="stroke: #000000; stroke-width: 1.0;"/><text fill="#000000" font-family="sans-serif" font-size="13" lengthAdjust="spacingAndGlyphs" textLength="8" x="413.2921" y="1265.3371">1</text><text fill="#000000" font-family="sans-serif" font-size="13" lengthAdjust="spacingAndGlyphs" textLength="8" x="485.8366" y="1310.7748">1</text><!--MD5=[b5492b811c5199351212545c210346d5]
link TaskExecution to Freelancer--><path d="M563.4589,1321.8992 C567.8023,1259.6152 575.2775,1152.4208 580.1797,1082.1224 " fill="none" id="TaskExecution-Freelancer" style="stroke: #A80036; stroke-width: 1.0;"/><polygon fill="#000000" points="639.5,1204.5,642.5,1198.5,645.5,1204.5,639.5,1204.5" style="stroke: #000000; stroke-width: 1.0;"/><text fill="#000000" font-family="sans-serif" font-size="13" lengthAdjust="spacingAndGlyphs" textLength="136" x="576" y="1219.5669">related to the work of</text><text fill="#000000" font-family="sans-serif" font-size="13" lengthAdjust="spacingAndGlyphs" textLength="8" x="555.3828" y="1310.9303">1</text><text fill="#000000" font-family="sans-serif" font-size="13" lengthAdjust="spacingAndGlyphs" textLength="8" x="571.3115" y="1101.7564">1</text><!--MD5=[985fa5d40d86d0181b68680d9e198e35]
@startuml
class CreateTransactionUI{
  }

class CreateTransactionController{
  +getTaskList()
  +getFreelancerList()
  +createNewTransaction(task, freel, endDate, delay, qow)
  +registerTransaction()
  
  }

class Organization{
  -String nome
  -String email
  -String nif
  +getTL()
  }

class TaskList{
  +getTaskList()
  }

class Platform{
  +getRF()
  +getRT()
  }

class RegisterFreelancer{
  +getFreelancerList()
  }

class RegisterTransaction{
  +createNewTransaction(task, freel, endDate, delay, qow)
  +registerTransaction(trans)
  +validateTransaction(trans)
  +addTransaction(trans)
  }

class Transaction{
  +create(task, freel, endDate, delay, qow)
  +validateTaskExecution(taskExec)
  +addTaskExecution(taskExec)
  }

class Freelancer{
  -String idF
  -String name
  -String levelExpertise
  -String email
  -String nif
  -String ibanAccount
  -String country
  }

class Collaborator{
  -String nome
  -String email
  }

class Task{
  -String idT
  -String description
  -Time timeDuration
  -double costHour
  -String taskCategory
  }

class TaskExecution{
  -Data endDate
  -double delay
  -String descriptionOfQuality
  +create(endDate, delay, qow)
  }
  


CreateTransactionController ..> Organization
CreateTransactionController ..> TaskList
CreateTransactionController ..> Platform
CreateTransactionController ..> RegisterFreelancer
CreateTransactionController ..> RegisterTransaction
CreateTransactionController ..> Transaction

CreateTransactionUI ..> CreateTransactionController

Freelancer "1" - - "1" Transaction: receives >

Platform "1" - - "1..*" RegisterTransaction: has >
RegisterTransaction "1" - - "*" Transaction: has >
Platform "1" - - "1..*" Organization: has registered >
Platform "1" - - "1..*" RegisterFreelancer: has >
RegisterFreelancer "1" - - "*" Freelancer: has >

Organization "1" - - "1" Collaborator: has >
Organization "1" - - "1" TaskList: has >

TaskList "1" - - "*" Task: has >

Collaborator "1" - - "1..*" Transaction: creates >
Collaborator "1" - - "1" User: acts as >

Task "1..*" - - "1" Freelancer: made by >
Task "1" - - "1" TaskExecution: originates >

Transaction "1" - - "1" TaskExecution: has >

TaskExecution "1" - - "1" Freelancer: related to the work of >
@enduml

PlantUML version 1.2019.12(Sun Nov 03 10:24:54 UTC 2019)
(GPL source distribution)
Java Runtime: OpenJDK Runtime Environment
JVM: OpenJDK 64-Bit Server VM
Java Version: 1.8.0_232-heroku-b09
Operating System: Linux
Default Encoding: UTF-8
Language: en
Country: US
--></g></svg>