<?xml version="1.0" encoding="UTF-8" standalone="no"?><svg xmlns="http://www.w3.org/2000/svg" xmlns:xlink="http://www.w3.org/1999/xlink" contentScriptType="application/ecmascript" contentStyleType="text/css" height="383px" preserveAspectRatio="none" style="width:1566px;height:383px;" version="1.1" viewBox="0 0 1566 383" width="1566px" zoomAndPan="magnify"><defs><filter height="300%" id="fizuclvx4bg68" width="300%" x="-1" y="-1"><feGaussianBlur result="blurOut" stdDeviation="2.0"/><feColorMatrix in="blurOut" result="blurOut2" type="matrix" values="0 0 0 0 0 0 0 0 0 0 0 0 0 0 0 0 0 0 .4 0"/><feOffset dx="4.0" dy="4.0" in="blurOut2" result="blurOut3"/><feBlend in="SourceGraphic" in2="blurOut3" mode="normal"/></filter></defs><g><!--MD5=[99b8db98afdc2c8404e39242ef4c1e65]
class Platform--><rect fill="#FEFECE" filter="url(#fizuclvx4bg68)" height="40" id="Platform" style="stroke: #A80036; stroke-width: 1.5;" width="84" x="6" y="64"/><ellipse cx="21" cy="80" fill="#ADD1B2" rx="11" ry="11" style="stroke: #A80036; stroke-width: 1.0;"/><path d="M23.9688,85.6406 Q23.3906,85.9375 22.75,86.0859 Q22.1094,86.2344 21.4063,86.2344 Q18.9063,86.2344 17.5859,84.5859 Q16.2656,82.9375 16.2656,79.8125 Q16.2656,76.6875 17.5859,75.0313 Q18.9063,73.375 21.4063,73.375 Q22.1094,73.375 22.7578,73.5313 Q23.4063,73.6875 23.9688,73.9844 L23.9688,76.7031 Q23.3438,76.125 22.75,75.8516 Q22.1563,75.5781 21.5313,75.5781 Q20.1875,75.5781 19.5,76.6484 Q18.8125,77.7188 18.8125,79.8125 Q18.8125,81.9063 19.5,82.9766 Q20.1875,84.0469 21.5313,84.0469 Q22.1563,84.0469 22.75,83.7734 Q23.3438,83.5 23.9688,82.9219 L23.9688,85.6406 Z "/><text fill="#000000" font-family="sans-serif" font-size="12" lengthAdjust="spacingAndGlyphs" textLength="52" x="35" y="84.1543">Platform</text><line style="stroke: #A80036; stroke-width: 1.5;" x1="7" x2="89" y1="96" y2="96"/><!--MD5=[1f687b5315377fe49fca59b457947463]
class Freelancer--><rect fill="#FEFECE" filter="url(#fizuclvx4bg68)" height="129.6328" id="Freelancer" style="stroke: #A80036; stroke-width: 1.5;" width="100" x="1231" y="129"/><ellipse cx="1246.45" cy="145" fill="#ADD1B2" rx="11" ry="11" style="stroke: #A80036; stroke-width: 1.0;"/><path d="M1249.4188,150.6406 Q1248.8406,150.9375 1248.2,151.0859 Q1247.5594,151.2344 1246.8563,151.2344 Q1244.3563,151.2344 1243.0359,149.5859 Q1241.7156,147.9375 1241.7156,144.8125 Q1241.7156,141.6875 1243.0359,140.0313 Q1244.3563,138.375 1246.8563,138.375 Q1247.5594,138.375 1248.2078,138.5313 Q1248.8563,138.6875 1249.4188,138.9844 L1249.4188,141.7031 Q1248.7938,141.125 1248.2,140.8516 Q1247.6063,140.5781 1246.9813,140.5781 Q1245.6375,140.5781 1244.95,141.6484 Q1244.2625,142.7188 1244.2625,144.8125 Q1244.2625,146.9063 1244.95,147.9766 Q1245.6375,149.0469 1246.9813,149.0469 Q1247.6063,149.0469 1248.2,148.7734 Q1248.7938,148.5 1249.4188,147.9219 L1249.4188,150.6406 Z "/><text fill="#000000" font-family="sans-serif" font-size="12" lengthAdjust="spacingAndGlyphs" textLength="67" x="1260.55" y="149.1543">Freelancer</text><line style="stroke: #A80036; stroke-width: 1.5;" x1="1232" x2="1330" y1="161" y2="161"/><text fill="#000000" font-family="sans-serif" font-size="11" lengthAdjust="spacingAndGlyphs" textLength="76" x="1237" y="175.2104">-String freeID</text><text fill="#000000" font-family="sans-serif" font-size="11" lengthAdjust="spacingAndGlyphs" textLength="74" x="1237" y="188.0151">-String name</text><text fill="#000000" font-family="sans-serif" font-size="11" lengthAdjust="spacingAndGlyphs" textLength="88" x="1237" y="200.8198">-String levelExp</text><text fill="#000000" font-family="sans-serif" font-size="11" lengthAdjust="spacingAndGlyphs" textLength="73" x="1237" y="213.6245">-String email</text><text fill="#000000" font-family="sans-serif" font-size="11" lengthAdjust="spacingAndGlyphs" textLength="56" x="1237" y="226.4292">-String nif</text><text fill="#000000" font-family="sans-serif" font-size="11" lengthAdjust="spacingAndGlyphs" textLength="66" x="1237" y="239.2339">-String iban</text><text fill="#000000" font-family="sans-serif" font-size="11" lengthAdjust="spacingAndGlyphs" textLength="84" x="1237" y="252.0386">-String country</text><!--MD5=[86c7c362de55a38b660185a1328fe18d]
class Organization--><rect fill="#FEFECE" filter="url(#fizuclvx4bg68)" height="78.4141" id="Organization" style="stroke: #A80036; stroke-width: 1.5;" width="110" x="257" y="139"/><ellipse cx="272" cy="155" fill="#ADD1B2" rx="11" ry="11" style="stroke: #A80036; stroke-width: 1.0;"/><path d="M274.9688,160.6406 Q274.3906,160.9375 273.75,161.0859 Q273.1094,161.2344 272.4063,161.2344 Q269.9063,161.2344 268.5859,159.5859 Q267.2656,157.9375 267.2656,154.8125 Q267.2656,151.6875 268.5859,150.0313 Q269.9063,148.375 272.4063,148.375 Q273.1094,148.375 273.7578,148.5313 Q274.4063,148.6875 274.9688,148.9844 L274.9688,151.7031 Q274.3438,151.125 273.75,150.8516 Q273.1563,150.5781 272.5313,150.5781 Q271.1875,150.5781 270.5,151.6484 Q269.8125,152.7188 269.8125,154.8125 Q269.8125,156.9063 270.5,157.9766 Q271.1875,159.0469 272.5313,159.0469 Q273.1563,159.0469 273.75,158.7734 Q274.3438,158.5 274.9688,157.9219 L274.9688,160.6406 Z "/><text fill="#000000" font-family="sans-serif" font-size="12" lengthAdjust="spacingAndGlyphs" textLength="78" x="286" y="159.1543">Organization</text><line style="stroke: #A80036; stroke-width: 1.5;" x1="258" x2="366" y1="171" y2="171"/><text fill="#000000" font-family="sans-serif" font-size="11" lengthAdjust="spacingAndGlyphs" textLength="74" x="263" y="185.2104">-String name</text><text fill="#000000" font-family="sans-serif" font-size="11" lengthAdjust="spacingAndGlyphs" textLength="73" x="263" y="198.0151">-String email</text><text fill="#000000" font-family="sans-serif" font-size="11" lengthAdjust="spacingAndGlyphs" textLength="56" x="263" y="210.8198">-String nif</text><!--MD5=[f483d6e5de34a60207b28a5563be5e8b]
class Collaborator--><rect fill="#FEFECE" filter="url(#fizuclvx4bg68)" height="78.4141" id="Collaborator" style="stroke: #A80036; stroke-width: 1.5;" width="109" x="465" y="283"/><ellipse cx="480" cy="299" fill="#ADD1B2" rx="11" ry="11" style="stroke: #A80036; stroke-width: 1.0;"/><path d="M482.9688,304.6406 Q482.3906,304.9375 481.75,305.0859 Q481.1094,305.2344 480.4063,305.2344 Q477.9063,305.2344 476.5859,303.5859 Q475.2656,301.9375 475.2656,298.8125 Q475.2656,295.6875 476.5859,294.0313 Q477.9063,292.375 480.4063,292.375 Q481.1094,292.375 481.7578,292.5313 Q482.4063,292.6875 482.9688,292.9844 L482.9688,295.7031 Q482.3438,295.125 481.75,294.8516 Q481.1563,294.5781 480.5313,294.5781 Q479.1875,294.5781 478.5,295.6484 Q477.8125,296.7188 477.8125,298.8125 Q477.8125,300.9063 478.5,301.9766 Q479.1875,303.0469 480.5313,303.0469 Q481.1563,303.0469 481.75,302.7734 Q482.3438,302.5 482.9688,301.9219 L482.9688,304.6406 Z "/><text fill="#000000" font-family="sans-serif" font-size="12" lengthAdjust="spacingAndGlyphs" textLength="77" x="494" y="303.1543">Collaborator</text><line style="stroke: #A80036; stroke-width: 1.5;" x1="466" x2="573" y1="315" y2="315"/><text fill="#000000" font-family="sans-serif" font-size="11" lengthAdjust="spacingAndGlyphs" textLength="82" x="471" y="329.2104">-String nameC</text><text fill="#000000" font-family="sans-serif" font-size="11" lengthAdjust="spacingAndGlyphs" textLength="81" x="471" y="342.0151">-String emailC</text><text fill="#000000" font-family="sans-serif" font-size="11" lengthAdjust="spacingAndGlyphs" textLength="64" x="471" y="354.8198">-String role</text><!--MD5=[b34797a66dc35cbf1d65f7e3ca75530e]
class Task--><rect fill="#FEFECE" filter="url(#fizuclvx4bg68)" height="129.6328" id="Task" style="stroke: #A80036; stroke-width: 1.5;" width="129" x="964" y="78"/><ellipse cx="1009.75" cy="94" fill="#ADD1B2" rx="11" ry="11" style="stroke: #A80036; stroke-width: 1.0;"/><path d="M1012.7188,99.6406 Q1012.1406,99.9375 1011.5,100.0859 Q1010.8594,100.2344 1010.1563,100.2344 Q1007.6563,100.2344 1006.3359,98.5859 Q1005.0156,96.9375 1005.0156,93.8125 Q1005.0156,90.6875 1006.3359,89.0313 Q1007.6563,87.375 1010.1563,87.375 Q1010.8594,87.375 1011.5078,87.5313 Q1012.1563,87.6875 1012.7188,87.9844 L1012.7188,90.7031 Q1012.0938,90.125 1011.5,89.8516 Q1010.9063,89.5781 1010.2813,89.5781 Q1008.9375,89.5781 1008.25,90.6484 Q1007.5625,91.7188 1007.5625,93.8125 Q1007.5625,95.9063 1008.25,96.9766 Q1008.9375,98.0469 1010.2813,98.0469 Q1010.9063,98.0469 1011.5,97.7734 Q1012.0938,97.5 1012.7188,96.9219 L1012.7188,99.6406 Z "/><text fill="#000000" font-family="sans-serif" font-size="12" lengthAdjust="spacingAndGlyphs" textLength="29" x="1030.25" y="98.1543">Task</text><line style="stroke: #A80036; stroke-width: 1.5;" x1="965" x2="1092" y1="110" y2="110"/><text fill="#000000" font-family="sans-serif" font-size="11" lengthAdjust="spacingAndGlyphs" textLength="79" x="970" y="124.2104">-String idTask</text><text fill="#000000" font-family="sans-serif" font-size="11" lengthAdjust="spacingAndGlyphs" textLength="105" x="970" y="137.0151">-String description</text><text fill="#000000" font-family="sans-serif" font-size="11" lengthAdjust="spacingAndGlyphs" textLength="74" x="970" y="149.8198">-int timeTask</text><text fill="#000000" font-family="sans-serif" font-size="11" lengthAdjust="spacingAndGlyphs" textLength="97" x="970" y="162.6245">-double costHour</text><text fill="#000000" font-family="sans-serif" font-size="11" lengthAdjust="spacingAndGlyphs" textLength="117" x="970" y="175.4292">-String taskCategory</text><text fill="#000000" font-family="sans-serif" font-size="11" lengthAdjust="spacingAndGlyphs" textLength="97" x="970" y="188.2339">-boolean isPayed</text><text fill="#000000" font-family="sans-serif" font-size="11" lengthAdjust="spacingAndGlyphs" textLength="110" x="970" y="201.0386">-boolean isFinished</text><!--MD5=[3fd616f346a44cd59a91eb10b19e157c]
class User--><rect fill="#FEFECE" filter="url(#fizuclvx4bg68)" height="40" id="User" style="stroke: #A80036; stroke-width: 1.5;" width="61" x="751" y="332"/><ellipse cx="766" cy="348" fill="#ADD1B2" rx="11" ry="11" style="stroke: #A80036; stroke-width: 1.0;"/><path d="M768.9688,353.6406 Q768.3906,353.9375 767.75,354.0859 Q767.1094,354.2344 766.4063,354.2344 Q763.9063,354.2344 762.5859,352.5859 Q761.2656,350.9375 761.2656,347.8125 Q761.2656,344.6875 762.5859,343.0313 Q763.9063,341.375 766.4063,341.375 Q767.1094,341.375 767.7578,341.5313 Q768.4063,341.6875 768.9688,341.9844 L768.9688,344.7031 Q768.3438,344.125 767.75,343.8516 Q767.1563,343.5781 766.5313,343.5781 Q765.1875,343.5781 764.5,344.6484 Q763.8125,345.7188 763.8125,347.8125 Q763.8125,349.9063 764.5,350.9766 Q765.1875,352.0469 766.5313,352.0469 Q767.1563,352.0469 767.75,351.7734 Q768.3438,351.5 768.9688,350.9219 L768.9688,353.6406 Z "/><text fill="#000000" font-family="sans-serif" font-size="12" lengthAdjust="spacingAndGlyphs" textLength="29" x="780" y="352.1543">User</text><line style="stroke: #A80036; stroke-width: 1.5;" x1="752" x2="811" y1="364" y2="364"/><!--MD5=[4045d6f6a06909f8c0c16b57fdb55c63]
class TransactionExecution--><rect fill="#FEFECE" filter="url(#fizuclvx4bg68)" height="91.2188" id="TransactionExecution" style="stroke: #A80036; stroke-width: 1.5;" width="169" x="697" y="205.5"/><ellipse cx="712.9" cy="221.5" fill="#ADD1B2" rx="11" ry="11" style="stroke: #A80036; stroke-width: 1.0;"/><path d="M715.8688,227.1406 Q715.2906,227.4375 714.65,227.5859 Q714.0094,227.7344 713.3063,227.7344 Q710.8063,227.7344 709.4859,226.0859 Q708.1656,224.4375 708.1656,221.3125 Q708.1656,218.1875 709.4859,216.5313 Q710.8063,214.875 713.3063,214.875 Q714.0094,214.875 714.6578,215.0313 Q715.3063,215.1875 715.8688,215.4844 L715.8688,218.2031 Q715.2438,217.625 714.65,217.3516 Q714.0563,217.0781 713.4313,217.0781 Q712.0875,217.0781 711.4,218.1484 Q710.7125,219.2188 710.7125,221.3125 Q710.7125,223.4063 711.4,224.4766 Q712.0875,225.5469 713.4313,225.5469 Q714.0563,225.5469 714.65,225.2734 Q715.2438,225 715.8688,224.4219 L715.8688,227.1406 Z "/><text fill="#000000" font-family="sans-serif" font-size="12" lengthAdjust="spacingAndGlyphs" textLength="135" x="727.1" y="225.6543">TransactionExecution</text><line style="stroke: #A80036; stroke-width: 1.5;" x1="698" x2="865" y1="237.5" y2="237.5"/><text fill="#000000" font-family="sans-serif" font-size="11" lengthAdjust="spacingAndGlyphs" textLength="81" x="703" y="251.7104">-Date endDate</text><text fill="#000000" font-family="sans-serif" font-size="11" lengthAdjust="spacingAndGlyphs" textLength="76" x="703" y="264.5151">-double delay</text><text fill="#000000" font-family="sans-serif" font-size="11" lengthAdjust="spacingAndGlyphs" textLength="157" x="703" y="277.3198">-String descriptionOfQuality</text><text fill="#000000" font-family="sans-serif" font-size="11" lengthAdjust="spacingAndGlyphs" textLength="63" x="703" y="290.1245">-int transID</text><!--MD5=[764fca796ce7f635542948d8fc39db5e]
class Payment--><rect fill="#FEFECE" filter="url(#fizuclvx4bg68)" height="65.6094" id="Payment" style="stroke: #A80036; stroke-width: 1.5;" width="96" x="1459" y="286"/><ellipse cx="1478.5" cy="302" fill="#ADD1B2" rx="11" ry="11" style="stroke: #A80036; stroke-width: 1.0;"/><path d="M1481.4688,307.6406 Q1480.8906,307.9375 1480.25,308.0859 Q1479.6094,308.2344 1478.9063,308.2344 Q1476.4063,308.2344 1475.0859,306.5859 Q1473.7656,304.9375 1473.7656,301.8125 Q1473.7656,298.6875 1475.0859,297.0313 Q1476.4063,295.375 1478.9063,295.375 Q1479.6094,295.375 1480.2578,295.5313 Q1480.9063,295.6875 1481.4688,295.9844 L1481.4688,298.7031 Q1480.8438,298.125 1480.25,297.8516 Q1479.6563,297.5781 1479.0313,297.5781 Q1477.6875,297.5781 1477,298.6484 Q1476.3125,299.7188 1476.3125,301.8125 Q1476.3125,303.9063 1477,304.9766 Q1477.6875,306.0469 1479.0313,306.0469 Q1479.6563,306.0469 1480.25,305.7734 Q1480.8438,305.5 1481.4688,304.9219 L1481.4688,307.6406 Z "/><text fill="#000000" font-family="sans-serif" font-size="12" lengthAdjust="spacingAndGlyphs" textLength="54" x="1493.5" y="306.1543">Payment</text><line style="stroke: #A80036; stroke-width: 1.5;" x1="1460" x2="1554" y1="318" y2="318"/><text fill="#000000" font-family="sans-serif" font-size="11" lengthAdjust="spacingAndGlyphs" textLength="83" x="1465" y="332.2104">-double valueE</text><text fill="#000000" font-family="sans-serif" font-size="11" lengthAdjust="spacingAndGlyphs" textLength="84" x="1465" y="345.0151">-double valueC</text><!--MD5=[a1bcd49bda1d48eee0717f7ad534cdd6]
link Freelancer to Payment--><path d="M1331.1567,221.7416 C1369.259,242.8158 1421.3386,271.6209 1458.92,292.4071 " fill="none" id="Freelancer-Payment" style="stroke: #A80036; stroke-width: 1.0;"/><text fill="#000000" font-family="sans-serif" font-size="13" lengthAdjust="spacingAndGlyphs" textLength="53" x="1362" y="237.0669">receives</text><polygon fill="#000000" points="1418,231.0664,1424,234.0664,1418,237.0664,1418,231.0664" style="stroke: #000000; stroke-width: 1.0;"/><text fill="#000000" font-family="sans-serif" font-size="13" lengthAdjust="spacingAndGlyphs" textLength="8" x="1339.111" y="239.0213">1</text><text fill="#000000" font-family="sans-serif" font-size="13" lengthAdjust="spacingAndGlyphs" textLength="8" x="1442.9453" y="301.5905">1</text><!--MD5=[8853e9d83a8841c20c4ef075af762602]
link Task to Freelancer--><path d="M1093.1971,156.0675 C1136.0096,164.7148 1191.325,175.8874 1230.8128,183.8632 " fill="none" id="Task-Freelancer" style="stroke: #A80036; stroke-width: 1.0;"/><text fill="#000000" font-family="sans-serif" font-size="13" lengthAdjust="spacingAndGlyphs" textLength="56" x="1127.5" y="158.0669">made by</text><polygon fill="#000000" points="1186.5,152.0664,1192.5,155.0664,1186.5,158.0664,1186.5,152.0664" style="stroke: #000000; stroke-width: 1.0;"/><text fill="#000000" font-family="sans-serif" font-size="13" lengthAdjust="spacingAndGlyphs" textLength="23" x="1101.0549" y="170.2812">1..*</text><text fill="#000000" font-family="sans-serif" font-size="13" lengthAdjust="spacingAndGlyphs" textLength="8" x="1214.8541" y="195.5795">1</text><!--MD5=[7640e466c042ba2d6f9c19c816f7f0fc]
link Platform to Organization--><path d="M90.1235,98.9985 C135.2517,115.0669 207.0707,140.6388 256.716,158.3155 " fill="none" id="Platform-Organization" style="stroke: #A80036; stroke-width: 1.0;"/><text fill="#000000" font-family="sans-serif" font-size="13" lengthAdjust="spacingAndGlyphs" textLength="92" x="121" y="107.0669">has registered</text><polygon fill="#000000" points="216,101.0664,222,104.0664,216,107.0664,216,101.0664" style="stroke: #000000; stroke-width: 1.0;"/><text fill="#000000" font-family="sans-serif" font-size="13" lengthAdjust="spacingAndGlyphs" textLength="8" x="98.051" y="114.9437">1</text><text fill="#000000" font-family="sans-serif" font-size="13" lengthAdjust="spacingAndGlyphs" textLength="23" x="225.9941" y="168.9573">1..*</text><!--MD5=[22697d4d863c2e08ab1d60ca0d61f844]
link Platform to Freelancer--><path d="M90.3325,68.4984 C141.9399,51.0178 232.1612,25 312,25 C312,25 312,25 1028.5,25 C1109.4706,25 1184.1214,85.7608 1230.9198,134.4169 " fill="none" id="Platform-Freelancer" style="stroke: #A80036; stroke-width: 1.0;"/><text fill="#000000" font-family="sans-serif" font-size="13" lengthAdjust="spacingAndGlyphs" textLength="23" x="617.5" y="21.0669">has</text><polygon fill="#000000" points="643.5,15.0664,649.5,18.0664,643.5,21.0664,643.5,15.0664" style="stroke: #000000; stroke-width: 1.0;"/><text fill="#000000" font-family="sans-serif" font-size="13" lengthAdjust="spacingAndGlyphs" textLength="8" x="98.0063" y="79.251">1</text><text fill="#000000" font-family="sans-serif" font-size="13" lengthAdjust="spacingAndGlyphs" textLength="23" x="1200.0298" y="139.8427">1..*</text><!--MD5=[4078351e3988aa35b1504a42837f2ab1]
link Organization to Task--><path d="M367.2639,170.8689 C377.1526,169.7725 387.3715,168.7558 397,168 C603.7373,151.7714 849.4189,145.8788 963.8571,143.9061 " fill="none" id="Organization-Task" style="stroke: #A80036; stroke-width: 1.0;"/><text fill="#000000" font-family="sans-serif" font-size="13" lengthAdjust="spacingAndGlyphs" textLength="23" x="617.5" y="148.0669">has</text><polygon fill="#000000" points="643.5,142.0664,649.5,145.0664,643.5,148.0664,643.5,142.0664" style="stroke: #000000; stroke-width: 1.0;"/><text fill="#000000" font-family="sans-serif" font-size="13" lengthAdjust="spacingAndGlyphs" textLength="8" x="374.8571" y="182.965">1</text><text fill="#000000" font-family="sans-serif" font-size="13" lengthAdjust="spacingAndGlyphs" textLength="23" x="933.0049" y="156.8657">1..*</text><!--MD5=[45817597bcd7048073a670d966abfd17]
link Organization to Collaborator--><path d="M350.4656,217.058 C364.4705,230.2369 380.843,244.506 397,256 C418.0627,270.9839 442.9188,284.9723 464.7177,296.1796 " fill="none" id="Organization-Collaborator" style="stroke: #A80036; stroke-width: 1.0;"/><text fill="#000000" font-family="sans-serif" font-size="13" lengthAdjust="spacingAndGlyphs" textLength="23" x="398" y="252.0669">has</text><polygon fill="#000000" points="424,246.0664,430,249.0664,424,252.0664,424,246.0664" style="stroke: #000000; stroke-width: 1.0;"/><text fill="#000000" font-family="sans-serif" font-size="13" lengthAdjust="spacingAndGlyphs" textLength="8" x="348.6048" y="237.393">1</text><text fill="#000000" font-family="sans-serif" font-size="13" lengthAdjust="spacingAndGlyphs" textLength="8" x="448.8188" y="305.7658">1</text><!--MD5=[48e68154f0bb02cefa44ee5fd25eaeea]
link Organization to TransactionExecution--><path d="M367.2382,186.5887 C448.5632,199.2335 601.1851,222.9638 696.7463,237.8221 " fill="none" id="Organization-TransactionExecution" style="stroke: #A80036; stroke-width: 1.0;"/><text fill="#000000" font-family="sans-serif" font-size="13" lengthAdjust="spacingAndGlyphs" textLength="23" x="501.5" y="198.0669">has</text><polygon fill="#000000" points="527.5,192.0664,533.5,195.0664,527.5,198.0664,527.5,192.0664" style="stroke: #000000; stroke-width: 1.0;"/><text fill="#000000" font-family="sans-serif" font-size="13" lengthAdjust="spacingAndGlyphs" textLength="8" x="374.8281" y="200.6989">1</text><text fill="#000000" font-family="sans-serif" font-size="13" lengthAdjust="spacingAndGlyphs" textLength="23" x="666.0761" y="249.4331">1..*</text><!--MD5=[2ab7a6a303d213bb8ebe4ab6162585db]
link Collaborator to TransactionExecution--><path d="M574.1049,307.2025 C609.5728,297.591 656.5252,284.8672 696.7849,273.9572 " fill="none" id="Collaborator-TransactionExecution" style="stroke: #A80036; stroke-width: 1.0;"/><text fill="#000000" font-family="sans-serif" font-size="13" lengthAdjust="spacingAndGlyphs" textLength="48" x="605" y="278.0669">creates</text><polygon fill="#000000" points="656,272.0664,662,275.0664,656,278.0664,656,272.0664" style="stroke: #000000; stroke-width: 1.0;"/><text fill="#000000" font-family="sans-serif" font-size="13" lengthAdjust="spacingAndGlyphs" textLength="8" x="581.9799" y="318.2699">1</text><text fill="#000000" font-family="sans-serif" font-size="13" lengthAdjust="spacingAndGlyphs" textLength="23" x="666.1178" y="288.4477">1..*</text><!--MD5=[04ce0ecdab38a3951889ff50c232570f]
link Collaborator to User--><path d="M574.0236,329.2833 C583.991,330.562 594.304,331.8501 604,333 C655.3965,339.0953 715.2722,345.3237 750.6924,348.9176 " fill="none" id="Collaborator-User" style="stroke: #A80036; stroke-width: 1.0;"/><text fill="#000000" font-family="sans-serif" font-size="13" lengthAdjust="spacingAndGlyphs" textLength="46" x="606" y="329.0669">acts as</text><polygon fill="#000000" points="655,323.0664,661,326.0664,655,329.0664,655,323.0664" style="stroke: #000000; stroke-width: 1.0;"/><text fill="#000000" font-family="sans-serif" font-size="13" lengthAdjust="spacingAndGlyphs" textLength="8" x="581.8877" y="343.3178">1</text><text fill="#000000" font-family="sans-serif" font-size="13" lengthAdjust="spacingAndGlyphs" textLength="8" x="735.0782" y="361.9654">1</text><!--MD5=[57cb959bbb8d6516b63cb4c28268197c]
link TransactionExecution to Task--><path d="M866.3539,215.2617 C888.424,205.849 912.1397,195.6306 934,186 C943.6496,181.7488 953.8238,177.1952 963.7789,172.6992 " fill="none" id="TransactionExecution-Task" style="stroke: #A80036; stroke-width: 1.0;"/><text fill="#000000" font-family="sans-serif" font-size="13" lengthAdjust="spacingAndGlyphs" textLength="23" x="897" y="182.0669">has</text><polygon fill="#000000" points="923,176.0664,929,179.0664,923,182.0664,923,176.0664" style="stroke: #000000; stroke-width: 1.0;"/><text fill="#000000" font-family="sans-serif" font-size="13" lengthAdjust="spacingAndGlyphs" textLength="8" x="873.9898" y="224.8982">1</text><text fill="#000000" font-family="sans-serif" font-size="13" lengthAdjust="spacingAndGlyphs" textLength="8" x="947.833" y="189.0962">1</text><!--MD5=[fcdd4dc74bc0207eaed6eb249aae2fb9]
link TransactionExecution to Freelancer--><path d="M866.2163,254.0401 C929.1058,255.0348 1016.8024,253.7629 1093,243 C1140.5918,236.2777 1193.4521,221.8566 1230.9694,210.3906 " fill="none" id="TransactionExecution-Freelancer" style="stroke: #A80036; stroke-width: 1.0;"/><text fill="#000000" font-family="sans-serif" font-size="13" lengthAdjust="spacingAndGlyphs" textLength="23" x="1010.5" y="239.0669">has</text><polygon fill="#000000" points="1036.5,233.0664,1042.5,236.0664,1036.5,239.0664,1036.5,233.0664" style="stroke: #000000; stroke-width: 1.0;"/><text fill="#000000" font-family="sans-serif" font-size="13" lengthAdjust="spacingAndGlyphs" textLength="8" x="874.1176" y="250.706">1</text><text fill="#000000" font-family="sans-serif" font-size="13" lengthAdjust="spacingAndGlyphs" textLength="8" x="1215.0337" y="226.0031">1</text><!--MD5=[209a2c3229d506e84b8c72b391c080a4]
link TransactionExecution to Payment--><path d="M866.2235,259.1658 C876.2592,260.1252 886.3577,261.0871 896,262 C1105.4737,281.8329 1355.396,304.99 1458.6797,314.5378 " fill="none" id="TransactionExecution-Payment" style="stroke: #A80036; stroke-width: 1.0;"/><text fill="#000000" font-family="sans-serif" font-size="13" lengthAdjust="spacingAndGlyphs" textLength="63" x="1124" y="279.0669">originates</text><polygon fill="#000000" points="1190,273.0664,1196,276.0664,1190,279.0664,1190,273.0664" style="stroke: #000000; stroke-width: 1.0;"/><text fill="#000000" font-family="sans-serif" font-size="13" lengthAdjust="spacingAndGlyphs" textLength="8" x="874.1254" y="272.6241">1</text><text fill="#000000" font-family="sans-serif" font-size="13" lengthAdjust="spacingAndGlyphs" textLength="8" x="1442.9952" y="327.0893">1</text><!--MD5=[b0e87b212c361326507a488fe0181507]
@startuml
skinparam classAttributeIconSize 0
hide methods
left to right direction

class Platform{
}
class Freelancer {
  -String freeID
  -String name
  -String levelExp
  -String email
  -String nif
  -String iban
  -String country
}

class Organization {
  -String name
  -String email
  -String nif
}

class Collaborator{
  -String nameC
  -String emailC
  -String role
}

class Task {
  -String idTask
  -String description
  -int timeTask
  -double costHour
  -String taskCategory
  -boolean isPayed
  -boolean isFinished
}


class User {
}

class TransactionExecution { 
  -Date endDate
  -double delay
  -String descriptionOfQuality
  -int transID
}

class Payment{
  -double valueE
  -double valueC
}


Freelancer "1" - - "1" Payment: receives >
Task "1..*" - - "1" Freelancer: made by >
Platform "1" - - "1..*" Organization: has registered >
Platform "1" - - "1..*" Freelancer: has >
Organization "1" - - "1..*" Task: has >
Organization "1" - - "1" Collaborator: has >
Organization "1" - - "1..*" TransactionExecution: has >

Collaborator "1" - - "1..*" TransactionExecution: creates >
Collaborator "1" - - "1" User: acts as >



TransactionExecution "1" - - "1" Task: has >
TransactionExecution "1" - - "1" Freelancer: has >
TransactionExecution "1" - - "1" Payment: originates >
@enduml

PlantUML version 1.2019.12(Sun Nov 03 10:24:54 UTC 2019)
(GPL source distribution)
Java Runtime: OpenJDK Runtime Environment
JVM: OpenJDK 64-Bit Server VM
Java Version: 1.8.0_232-heroku-b09
Operating System: Linux
Default Encoding: UTF-8
Language: en
Country: US
--></g></svg>