<?xml version="1.0" encoding="UTF-8" standalone="no"?><svg xmlns="http://www.w3.org/2000/svg" xmlns:xlink="http://www.w3.org/1999/xlink" contentScriptType="application/ecmascript" contentStyleType="text/css" height="1432px" preserveAspectRatio="none" style="width:912px;height:1432px;" version="1.1" viewBox="0 0 912 1432" width="912px" zoomAndPan="magnify"><defs><filter height="300%" id="f1nqeh4ofyhu7l" width="300%" x="-1" y="-1"><feGaussianBlur result="blurOut" stdDeviation="2.0"/><feColorMatrix in="blurOut" result="blurOut2" type="matrix" values="0 0 0 0 0 0 0 0 0 0 0 0 0 0 0 0 0 0 .4 0"/><feOffset dx="4.0" dy="4.0" in="blurOut2" result="blurOut3"/><feBlend in="SourceGraphic" in2="blurOut3" mode="normal"/></filter></defs><g><!--MD5=[a40557e6e85d4da4ca6f03c9286aad25]
class CreateTransactionUI--><rect fill="#FEFECE" filter="url(#f1nqeh4ofyhu7l)" height="48" id="CreateTransactionUI" style="stroke: #A80036; stroke-width: 1.5;" width="160" x="274.5" y="8"/><ellipse cx="289.5" cy="24" fill="#ADD1B2" rx="11" ry="11" style="stroke: #A80036; stroke-width: 1.0;"/><path d="M292.4688,29.6406 Q291.8906,29.9375 291.25,30.0859 Q290.6094,30.2344 289.9063,30.2344 Q287.4063,30.2344 286.0859,28.5859 Q284.7656,26.9375 284.7656,23.8125 Q284.7656,20.6875 286.0859,19.0313 Q287.4063,17.375 289.9063,17.375 Q290.6094,17.375 291.2578,17.5313 Q291.9063,17.6875 292.4688,17.9844 L292.4688,20.7031 Q291.8438,20.125 291.25,19.8516 Q290.6563,19.5781 290.0313,19.5781 Q288.6875,19.5781 288,20.6484 Q287.3125,21.7188 287.3125,23.8125 Q287.3125,25.9063 288,26.9766 Q288.6875,28.0469 290.0313,28.0469 Q290.6563,28.0469 291.25,27.7734 Q291.8438,27.5 292.4688,26.9219 L292.4688,29.6406 Z "/><text fill="#000000" font-family="sans-serif" font-size="12" lengthAdjust="spacingAndGlyphs" textLength="128" x="303.5" y="28.1543">CreateTransactionUI</text><line style="stroke: #A80036; stroke-width: 1.5;" x1="275.5" x2="433.5" y1="40" y2="40"/><line style="stroke: #A80036; stroke-width: 1.5;" x1="275.5" x2="433.5" y1="48" y2="48"/><!--MD5=[68b9bdc8d17948337917a4afca18f499]
class CreateTransactionController--><rect fill="#FEFECE" filter="url(#f1nqeh4ofyhu7l)" height="99.2188" id="CreateTransactionController" style="stroke: #A80036; stroke-width: 1.5;" width="343" x="183" y="117"/><ellipse cx="261.75" cy="133" fill="#ADD1B2" rx="11" ry="11" style="stroke: #A80036; stroke-width: 1.0;"/><path d="M264.7188,138.6406 Q264.1406,138.9375 263.5,139.0859 Q262.8594,139.2344 262.1563,139.2344 Q259.6563,139.2344 258.3359,137.5859 Q257.0156,135.9375 257.0156,132.8125 Q257.0156,129.6875 258.3359,128.0313 Q259.6563,126.375 262.1563,126.375 Q262.8594,126.375 263.5078,126.5313 Q264.1563,126.6875 264.7188,126.9844 L264.7188,129.7031 Q264.0938,129.125 263.5,128.8516 Q262.9063,128.5781 262.2813,128.5781 Q260.9375,128.5781 260.25,129.6484 Q259.5625,130.7188 259.5625,132.8125 Q259.5625,134.9063 260.25,135.9766 Q260.9375,137.0469 262.2813,137.0469 Q262.9063,137.0469 263.5,136.7734 Q264.0938,136.5 264.7188,135.9219 L264.7188,138.6406 Z "/><text fill="#000000" font-family="sans-serif" font-size="12" lengthAdjust="spacingAndGlyphs" textLength="177" x="282.25" y="137.1543">CreateTransactionController</text><line style="stroke: #A80036; stroke-width: 1.5;" x1="184" x2="525" y1="149" y2="149"/><line style="stroke: #A80036; stroke-width: 1.5;" x1="184" x2="525" y1="157" y2="157"/><ellipse cx="194" cy="168" fill="#84BE84" rx="3" ry="3" style="stroke: #038048; stroke-width: 1.0;"/><text fill="#000000" font-family="sans-serif" font-size="11" lengthAdjust="spacingAndGlyphs" textLength="73" x="203" y="171.2104">getTaskList()</text><ellipse cx="194" cy="180.8047" fill="#84BE84" rx="3" ry="3" style="stroke: #038048; stroke-width: 1.0;"/><text fill="#000000" font-family="sans-serif" font-size="11" lengthAdjust="spacingAndGlyphs" textLength="106" x="203" y="184.0151">getFreelancerList()</text><ellipse cx="194" cy="193.6094" fill="#84BE84" rx="3" ry="3" style="stroke: #038048; stroke-width: 1.0;"/><text fill="#000000" font-family="sans-serif" font-size="11" lengthAdjust="spacingAndGlyphs" textLength="317" x="203" y="196.8198">createNewTransaction(task, freel, endDate, delay, qow)</text><ellipse cx="194" cy="206.4141" fill="#84BE84" rx="3" ry="3" style="stroke: #038048; stroke-width: 1.0;"/><text fill="#000000" font-family="sans-serif" font-size="11" lengthAdjust="spacingAndGlyphs" textLength="120" x="203" y="209.6245">registerTransaction()</text><!--MD5=[86c7c362de55a38b660185a1328fe18d]
class Organization--><rect fill="#FEFECE" filter="url(#f1nqeh4ofyhu7l)" height="112.0234" id="Organization" style="stroke: #A80036; stroke-width: 1.5;" width="110" x="122.5" y="415"/><ellipse cx="137.5" cy="431" fill="#ADD1B2" rx="11" ry="11" style="stroke: #A80036; stroke-width: 1.0;"/><path d="M140.4688,436.6406 Q139.8906,436.9375 139.25,437.0859 Q138.6094,437.2344 137.9063,437.2344 Q135.4063,437.2344 134.0859,435.5859 Q132.7656,433.9375 132.7656,430.8125 Q132.7656,427.6875 134.0859,426.0313 Q135.4063,424.375 137.9063,424.375 Q138.6094,424.375 139.2578,424.5313 Q139.9063,424.6875 140.4688,424.9844 L140.4688,427.7031 Q139.8438,427.125 139.25,426.8516 Q138.6563,426.5781 138.0313,426.5781 Q136.6875,426.5781 136,427.6484 Q135.3125,428.7188 135.3125,430.8125 Q135.3125,432.9063 136,433.9766 Q136.6875,435.0469 138.0313,435.0469 Q138.6563,435.0469 139.25,434.7734 Q139.8438,434.5 140.4688,433.9219 L140.4688,436.6406 Z "/><text fill="#000000" font-family="sans-serif" font-size="12" lengthAdjust="spacingAndGlyphs" textLength="78" x="151.5" y="435.1543">Organization</text><line style="stroke: #A80036; stroke-width: 1.5;" x1="123.5" x2="231.5" y1="447" y2="447"/><rect fill="none" height="6" style="stroke: #C82930; stroke-width: 1.0;" width="6" x="130.5" y="455"/><text fill="#000000" font-family="sans-serif" font-size="11" lengthAdjust="spacingAndGlyphs" textLength="70" x="142.5" y="461.2104">String nome</text><rect fill="none" height="6" style="stroke: #C82930; stroke-width: 1.0;" width="6" x="130.5" y="467.8047"/><text fill="#000000" font-family="sans-serif" font-size="11" lengthAdjust="spacingAndGlyphs" textLength="69" x="142.5" y="474.0151">String email</text><rect fill="none" height="6" style="stroke: #C82930; stroke-width: 1.0;" width="6" x="130.5" y="480.6094"/><text fill="#000000" font-family="sans-serif" font-size="11" lengthAdjust="spacingAndGlyphs" textLength="52" x="142.5" y="486.8198">String nif</text><line style="stroke: #A80036; stroke-width: 1.5;" x1="123.5" x2="231.5" y1="493.4141" y2="493.4141"/><ellipse cx="133.5" cy="504.4141" fill="#84BE84" rx="3" ry="3" style="stroke: #038048; stroke-width: 1.0;"/><text fill="#000000" font-family="sans-serif" font-size="11" lengthAdjust="spacingAndGlyphs" textLength="73" x="142.5" y="507.6245">getTaskList()</text><ellipse cx="133.5" cy="517.2188" fill="#84BE84" rx="3" ry="3" style="stroke: #038048; stroke-width: 1.0;"/><text fill="#000000" font-family="sans-serif" font-size="11" lengthAdjust="spacingAndGlyphs" textLength="66" x="142.5" y="520.4292">getRTrans()</text><!--MD5=[cf2635f8a68afd84898027166f4516bc]
class TaskList--><rect fill="#FEFECE" filter="url(#f1nqeh4ofyhu7l)" height="60.8047" id="TaskList" style="stroke: #A80036; stroke-width: 1.5;" width="99" x="6" y="610.5"/><ellipse cx="28.65" cy="626.5" fill="#ADD1B2" rx="11" ry="11" style="stroke: #A80036; stroke-width: 1.0;"/><path d="M31.6188,632.1406 Q31.0406,632.4375 30.4,632.5859 Q29.7594,632.7344 29.0563,632.7344 Q26.5563,632.7344 25.2359,631.0859 Q23.9156,629.4375 23.9156,626.3125 Q23.9156,623.1875 25.2359,621.5313 Q26.5563,619.875 29.0563,619.875 Q29.7594,619.875 30.4078,620.0313 Q31.0563,620.1875 31.6188,620.4844 L31.6188,623.2031 Q30.9938,622.625 30.4,622.3516 Q29.8063,622.0781 29.1813,622.0781 Q27.8375,622.0781 27.15,623.1484 Q26.4625,624.2188 26.4625,626.3125 Q26.4625,628.4063 27.15,629.4766 Q27.8375,630.5469 29.1813,630.5469 Q29.8063,630.5469 30.4,630.2734 Q30.9938,630 31.6188,629.4219 L31.6188,632.1406 Z "/><text fill="#000000" font-family="sans-serif" font-size="12" lengthAdjust="spacingAndGlyphs" textLength="50" x="44.35" y="630.6543">TaskList</text><line style="stroke: #A80036; stroke-width: 1.5;" x1="7" x2="104" y1="642.5" y2="642.5"/><line style="stroke: #A80036; stroke-width: 1.5;" x1="7" x2="104" y1="650.5" y2="650.5"/><ellipse cx="17" cy="661.5" fill="#84BE84" rx="3" ry="3" style="stroke: #038048; stroke-width: 1.0;"/><text fill="#000000" font-family="sans-serif" font-size="11" lengthAdjust="spacingAndGlyphs" textLength="73" x="26" y="664.7104">getTaskList()</text><!--MD5=[99b8db98afdc2c8404e39242ef4c1e65]
class Platform--><rect fill="#FEFECE" filter="url(#f1nqeh4ofyhu7l)" height="60.8047" id="Platform" style="stroke: #A80036; stroke-width: 1.5;" width="84" x="462.5" y="277"/><ellipse cx="477.5" cy="293" fill="#ADD1B2" rx="11" ry="11" style="stroke: #A80036; stroke-width: 1.0;"/><path d="M480.4688,298.6406 Q479.8906,298.9375 479.25,299.0859 Q478.6094,299.2344 477.9063,299.2344 Q475.4063,299.2344 474.0859,297.5859 Q472.7656,295.9375 472.7656,292.8125 Q472.7656,289.6875 474.0859,288.0313 Q475.4063,286.375 477.9063,286.375 Q478.6094,286.375 479.2578,286.5313 Q479.9063,286.6875 480.4688,286.9844 L480.4688,289.7031 Q479.8438,289.125 479.25,288.8516 Q478.6563,288.5781 478.0313,288.5781 Q476.6875,288.5781 476,289.6484 Q475.3125,290.7188 475.3125,292.8125 Q475.3125,294.9063 476,295.9766 Q476.6875,297.0469 478.0313,297.0469 Q478.6563,297.0469 479.25,296.7734 Q479.8438,296.5 480.4688,295.9219 L480.4688,298.6406 Z "/><text fill="#000000" font-family="sans-serif" font-size="12" lengthAdjust="spacingAndGlyphs" textLength="52" x="491.5" y="297.1543">Platform</text><line style="stroke: #A80036; stroke-width: 1.5;" x1="463.5" x2="545.5" y1="309" y2="309"/><line style="stroke: #A80036; stroke-width: 1.5;" x1="463.5" x2="545.5" y1="317" y2="317"/><ellipse cx="473.5" cy="328" fill="#84BE84" rx="3" ry="3" style="stroke: #038048; stroke-width: 1.0;"/><text fill="#000000" font-family="sans-serif" font-size="11" lengthAdjust="spacingAndGlyphs" textLength="58" x="482.5" y="331.2104">getRFree()</text><!--MD5=[6735b55cc4e757c70976e457f6d95f3d]
class RegisterFreelancer--><rect fill="#FEFECE" filter="url(#f1nqeh4ofyhu7l)" height="60.8047" id="RegisterFreelancer" style="stroke: #A80036; stroke-width: 1.5;" width="151" x="750" y="440.5"/><ellipse cx="765" cy="456.5" fill="#ADD1B2" rx="11" ry="11" style="stroke: #A80036; stroke-width: 1.0;"/><path d="M767.9688,462.1406 Q767.3906,462.4375 766.75,462.5859 Q766.1094,462.7344 765.4063,462.7344 Q762.9063,462.7344 761.5859,461.0859 Q760.2656,459.4375 760.2656,456.3125 Q760.2656,453.1875 761.5859,451.5313 Q762.9063,449.875 765.4063,449.875 Q766.1094,449.875 766.7578,450.0313 Q767.4063,450.1875 767.9688,450.4844 L767.9688,453.2031 Q767.3438,452.625 766.75,452.3516 Q766.1563,452.0781 765.5313,452.0781 Q764.1875,452.0781 763.5,453.1484 Q762.8125,454.2188 762.8125,456.3125 Q762.8125,458.4063 763.5,459.4766 Q764.1875,460.5469 765.5313,460.5469 Q766.1563,460.5469 766.75,460.2734 Q767.3438,460 767.9688,459.4219 L767.9688,462.1406 Z "/><text fill="#000000" font-family="sans-serif" font-size="12" lengthAdjust="spacingAndGlyphs" textLength="119" x="779" y="460.6543">RegisterFreelancer</text><line style="stroke: #A80036; stroke-width: 1.5;" x1="751" x2="900" y1="472.5" y2="472.5"/><line style="stroke: #A80036; stroke-width: 1.5;" x1="751" x2="900" y1="480.5" y2="480.5"/><ellipse cx="761" cy="491.5" fill="#84BE84" rx="3" ry="3" style="stroke: #038048; stroke-width: 1.0;"/><text fill="#000000" font-family="sans-serif" font-size="11" lengthAdjust="spacingAndGlyphs" textLength="113" x="770" y="494.7104">getListFreelancers()</text><!--MD5=[f6ed7daa03e434106607816c975112f0]
class RegisterTransaction--><rect fill="#FEFECE" filter="url(#f1nqeh4ofyhu7l)" height="99.2188" id="RegisterTransaction" style="stroke: #A80036; stroke-width: 1.5;" width="343" x="372" y="421.5"/><ellipse cx="476.25" cy="437.5" fill="#ADD1B2" rx="11" ry="11" style="stroke: #A80036; stroke-width: 1.0;"/><path d="M479.2188,443.1406 Q478.6406,443.4375 478,443.5859 Q477.3594,443.7344 476.6563,443.7344 Q474.1563,443.7344 472.8359,442.0859 Q471.5156,440.4375 471.5156,437.3125 Q471.5156,434.1875 472.8359,432.5313 Q474.1563,430.875 476.6563,430.875 Q477.3594,430.875 478.0078,431.0313 Q478.6563,431.1875 479.2188,431.4844 L479.2188,434.2031 Q478.5938,433.625 478,433.3516 Q477.4063,433.0781 476.7813,433.0781 Q475.4375,433.0781 474.75,434.1484 Q474.0625,435.2188 474.0625,437.3125 Q474.0625,439.4063 474.75,440.4766 Q475.4375,441.5469 476.7813,441.5469 Q477.4063,441.5469 478,441.2734 Q478.5938,441 479.2188,440.4219 L479.2188,443.1406 Z "/><text fill="#000000" font-family="sans-serif" font-size="12" lengthAdjust="spacingAndGlyphs" textLength="126" x="496.75" y="441.6543">RegisterTransaction</text><line style="stroke: #A80036; stroke-width: 1.5;" x1="373" x2="714" y1="453.5" y2="453.5"/><line style="stroke: #A80036; stroke-width: 1.5;" x1="373" x2="714" y1="461.5" y2="461.5"/><ellipse cx="383" cy="472.5" fill="#84BE84" rx="3" ry="3" style="stroke: #038048; stroke-width: 1.0;"/><text fill="#000000" font-family="sans-serif" font-size="11" lengthAdjust="spacingAndGlyphs" textLength="317" x="392" y="475.7104">createNewTransaction(task, freel, endDate, delay, qow)</text><ellipse cx="383" cy="485.3047" fill="#84BE84" rx="3" ry="3" style="stroke: #038048; stroke-width: 1.0;"/><text fill="#000000" font-family="sans-serif" font-size="11" lengthAdjust="spacingAndGlyphs" textLength="150" x="392" y="488.5151">registerTransaction(trans)</text><ellipse cx="383" cy="498.1094" fill="#84BE84" rx="3" ry="3" style="stroke: #038048; stroke-width: 1.0;"/><text fill="#000000" font-family="sans-serif" font-size="11" lengthAdjust="spacingAndGlyphs" textLength="149" x="392" y="501.3198">validateTransaction(trans)</text><ellipse cx="383" cy="510.9141" fill="#84BE84" rx="3" ry="3" style="stroke: #038048; stroke-width: 1.0;"/><text fill="#000000" font-family="sans-serif" font-size="11" lengthAdjust="spacingAndGlyphs" textLength="126" x="392" y="514.1245">addTransaction(trans)</text><!--MD5=[4045d6f6a06909f8c0c16b57fdb55c63]
class TransactionExecution--><rect fill="#FEFECE" filter="url(#f1nqeh4ofyhu7l)" height="99.2188" id="TransactionExecution" style="stroke: #A80036; stroke-width: 1.5;" width="305" x="198" y="755"/><ellipse cx="278.75" cy="771" fill="#ADD1B2" rx="11" ry="11" style="stroke: #A80036; stroke-width: 1.0;"/><path d="M281.7188,776.6406 Q281.1406,776.9375 280.5,777.0859 Q279.8594,777.2344 279.1563,777.2344 Q276.6563,777.2344 275.3359,775.5859 Q274.0156,773.9375 274.0156,770.8125 Q274.0156,767.6875 275.3359,766.0313 Q276.6563,764.375 279.1563,764.375 Q279.8594,764.375 280.5078,764.5313 Q281.1563,764.6875 281.7188,764.9844 L281.7188,767.7031 Q281.0938,767.125 280.5,766.8516 Q279.9063,766.5781 279.2813,766.5781 Q277.9375,766.5781 277.25,767.6484 Q276.5625,768.7188 276.5625,770.8125 Q276.5625,772.9063 277.25,773.9766 Q277.9375,775.0469 279.2813,775.0469 Q279.9063,775.0469 280.5,774.7734 Q281.0938,774.5 281.7188,773.9219 L281.7188,776.6406 Z "/><text fill="#000000" font-family="sans-serif" font-size="12" lengthAdjust="spacingAndGlyphs" textLength="135" x="299.25" y="775.1543">TransactionExecution</text><line style="stroke: #A80036; stroke-width: 1.5;" x1="199" x2="502" y1="787" y2="787"/><rect fill="none" height="6" style="stroke: #C82930; stroke-width: 1.0;" width="6" x="206" y="795"/><text fill="#000000" font-family="sans-serif" font-size="11" lengthAdjust="spacingAndGlyphs" textLength="77" x="218" y="801.2104">Data endDate</text><rect fill="none" height="6" style="stroke: #C82930; stroke-width: 1.0;" width="6" x="206" y="807.8047"/><text fill="#000000" font-family="sans-serif" font-size="11" lengthAdjust="spacingAndGlyphs" textLength="72" x="218" y="814.0151">double delay</text><rect fill="none" height="6" style="stroke: #C82930; stroke-width: 1.0;" width="6" x="206" y="820.6094"/><text fill="#000000" font-family="sans-serif" font-size="11" lengthAdjust="spacingAndGlyphs" textLength="153" x="218" y="826.8198">String descriptionOfQuality</text><line style="stroke: #A80036; stroke-width: 1.5;" x1="199" x2="502" y1="833.4141" y2="833.4141"/><ellipse cx="209" cy="844.4141" fill="#84BE84" rx="3" ry="3" style="stroke: #038048; stroke-width: 1.0;"/><text fill="#000000" font-family="sans-serif" font-size="11" lengthAdjust="spacingAndGlyphs" textLength="279" x="218" y="847.6245">create(task, freel,endDate, delay, qow, payment)</text><!--MD5=[1f687b5315377fe49fca59b457947463]
class Freelancer--><rect fill="#FEFECE" filter="url(#f1nqeh4ofyhu7l)" height="137.6328" id="Freelancer" style="stroke: #A80036; stroke-width: 1.5;" width="143" x="454" y="1120"/><ellipse cx="488.8" cy="1136" fill="#ADD1B2" rx="11" ry="11" style="stroke: #A80036; stroke-width: 1.0;"/><path d="M491.7688,1141.6406 Q491.1906,1141.9375 490.55,1142.0859 Q489.9094,1142.2344 489.2063,1142.2344 Q486.7063,1142.2344 485.3859,1140.5859 Q484.0656,1138.9375 484.0656,1135.8125 Q484.0656,1132.6875 485.3859,1131.0313 Q486.7063,1129.375 489.2063,1129.375 Q489.9094,1129.375 490.5578,1129.5313 Q491.2063,1129.6875 491.7688,1129.9844 L491.7688,1132.7031 Q491.1438,1132.125 490.55,1131.8516 Q489.9563,1131.5781 489.3313,1131.5781 Q487.9875,1131.5781 487.3,1132.6484 Q486.6125,1133.7188 486.6125,1135.8125 Q486.6125,1137.9063 487.3,1138.9766 Q487.9875,1140.0469 489.3313,1140.0469 Q489.9563,1140.0469 490.55,1139.7734 Q491.1438,1139.5 491.7688,1138.9219 L491.7688,1141.6406 Z "/><text fill="#000000" font-family="sans-serif" font-size="12" lengthAdjust="spacingAndGlyphs" textLength="67" x="507.2" y="1140.1543">Freelancer</text><line style="stroke: #A80036; stroke-width: 1.5;" x1="455" x2="596" y1="1152" y2="1152"/><rect fill="none" height="6" style="stroke: #C82930; stroke-width: 1.0;" width="6" x="462" y="1160"/><text fill="#000000" font-family="sans-serif" font-size="11" lengthAdjust="spacingAndGlyphs" textLength="54" x="474" y="1166.2104">String idF</text><rect fill="none" height="6" style="stroke: #C82930; stroke-width: 1.0;" width="6" x="462" y="1172.8047"/><text fill="#000000" font-family="sans-serif" font-size="11" lengthAdjust="spacingAndGlyphs" textLength="70" x="474" y="1179.0151">String name</text><rect fill="none" height="6" style="stroke: #C82930; stroke-width: 1.0;" width="6" x="462" y="1185.6094"/><text fill="#000000" font-family="sans-serif" font-size="11" lengthAdjust="spacingAndGlyphs" textLength="117" x="474" y="1191.8198">String levelExpertise</text><rect fill="none" height="6" style="stroke: #C82930; stroke-width: 1.0;" width="6" x="462" y="1198.4141"/><text fill="#000000" font-family="sans-serif" font-size="11" lengthAdjust="spacingAndGlyphs" textLength="69" x="474" y="1204.6245">String email</text><rect fill="none" height="6" style="stroke: #C82930; stroke-width: 1.0;" width="6" x="462" y="1211.2188"/><text fill="#000000" font-family="sans-serif" font-size="11" lengthAdjust="spacingAndGlyphs" textLength="52" x="474" y="1217.4292">String nif</text><rect fill="none" height="6" style="stroke: #C82930; stroke-width: 1.0;" width="6" x="462" y="1224.0234"/><text fill="#000000" font-family="sans-serif" font-size="11" lengthAdjust="spacingAndGlyphs" textLength="106" x="474" y="1230.2339">String ibanAccount</text><rect fill="none" height="6" style="stroke: #C82930; stroke-width: 1.0;" width="6" x="462" y="1236.8281"/><text fill="#000000" font-family="sans-serif" font-size="11" lengthAdjust="spacingAndGlyphs" textLength="80" x="474" y="1243.0386">String country</text><line style="stroke: #A80036; stroke-width: 1.5;" x1="455" x2="596" y1="1249.6328" y2="1249.6328"/><!--MD5=[f483d6e5de34a60207b28a5563be5e8b]
class Collaborator--><rect fill="#FEFECE" filter="url(#f1nqeh4ofyhu7l)" height="73.6094" id="Collaborator" style="stroke: #A80036; stroke-width: 1.5;" width="109" x="140" y="604"/><ellipse cx="155" cy="620" fill="#ADD1B2" rx="11" ry="11" style="stroke: #A80036; stroke-width: 1.0;"/><path d="M157.9688,625.6406 Q157.3906,625.9375 156.75,626.0859 Q156.1094,626.2344 155.4063,626.2344 Q152.9063,626.2344 151.5859,624.5859 Q150.2656,622.9375 150.2656,619.8125 Q150.2656,616.6875 151.5859,615.0313 Q152.9063,613.375 155.4063,613.375 Q156.1094,613.375 156.7578,613.5313 Q157.4063,613.6875 157.9688,613.9844 L157.9688,616.7031 Q157.3438,616.125 156.75,615.8516 Q156.1563,615.5781 155.5313,615.5781 Q154.1875,615.5781 153.5,616.6484 Q152.8125,617.7188 152.8125,619.8125 Q152.8125,621.9063 153.5,622.9766 Q154.1875,624.0469 155.5313,624.0469 Q156.1563,624.0469 156.75,623.7734 Q157.3438,623.5 157.9688,622.9219 L157.9688,625.6406 Z "/><text fill="#000000" font-family="sans-serif" font-size="12" lengthAdjust="spacingAndGlyphs" textLength="77" x="169" y="624.1543">Collaborator</text><line style="stroke: #A80036; stroke-width: 1.5;" x1="141" x2="248" y1="636" y2="636"/><rect fill="none" height="6" style="stroke: #C82930; stroke-width: 1.0;" width="6" x="148" y="644"/><text fill="#000000" font-family="sans-serif" font-size="11" lengthAdjust="spacingAndGlyphs" textLength="70" x="160" y="650.2104">String nome</text><rect fill="none" height="6" style="stroke: #C82930; stroke-width: 1.0;" width="6" x="148" y="656.8047"/><text fill="#000000" font-family="sans-serif" font-size="11" lengthAdjust="spacingAndGlyphs" textLength="69" x="160" y="663.0151">String email</text><line style="stroke: #A80036; stroke-width: 1.5;" x1="141" x2="248" y1="669.6094" y2="669.6094"/><!--MD5=[b34797a66dc35cbf1d65f7e3ca75530e]
class Task--><rect fill="#FEFECE" filter="url(#f1nqeh4ofyhu7l)" height="112.0234" id="Task" style="stroke: #A80036; stroke-width: 1.5;" width="139" x="108" y="931"/><ellipse cx="158.75" cy="947" fill="#ADD1B2" rx="11" ry="11" style="stroke: #A80036; stroke-width: 1.0;"/><path d="M161.7188,952.6406 Q161.1406,952.9375 160.5,953.0859 Q159.8594,953.2344 159.1563,953.2344 Q156.6563,953.2344 155.3359,951.5859 Q154.0156,949.9375 154.0156,946.8125 Q154.0156,943.6875 155.3359,942.0313 Q156.6563,940.375 159.1563,940.375 Q159.8594,940.375 160.5078,940.5313 Q161.1563,940.6875 161.7188,940.9844 L161.7188,943.7031 Q161.0938,943.125 160.5,942.8516 Q159.9063,942.5781 159.2813,942.5781 Q157.9375,942.5781 157.25,943.6484 Q156.5625,944.7188 156.5625,946.8125 Q156.5625,948.9063 157.25,949.9766 Q157.9375,951.0469 159.2813,951.0469 Q159.9063,951.0469 160.5,950.7734 Q161.0938,950.5 161.7188,949.9219 L161.7188,952.6406 Z "/><text fill="#000000" font-family="sans-serif" font-size="12" lengthAdjust="spacingAndGlyphs" textLength="29" x="179.25" y="951.1543">Task</text><line style="stroke: #A80036; stroke-width: 1.5;" x1="109" x2="246" y1="963" y2="963"/><rect fill="none" height="6" style="stroke: #C82930; stroke-width: 1.0;" width="6" x="116" y="971"/><text fill="#000000" font-family="sans-serif" font-size="11" lengthAdjust="spacingAndGlyphs" textLength="55" x="128" y="977.2104">String idT</text><rect fill="none" height="6" style="stroke: #C82930; stroke-width: 1.0;" width="6" x="116" y="983.8047"/><text fill="#000000" font-family="sans-serif" font-size="11" lengthAdjust="spacingAndGlyphs" textLength="101" x="128" y="990.0151">String description</text><rect fill="none" height="6" style="stroke: #C82930; stroke-width: 1.0;" width="6" x="116" y="996.6094"/><text fill="#000000" font-family="sans-serif" font-size="11" lengthAdjust="spacingAndGlyphs" textLength="105" x="128" y="1002.8198">Time timeDuration</text><rect fill="none" height="6" style="stroke: #C82930; stroke-width: 1.0;" width="6" x="116" y="1009.4141"/><text fill="#000000" font-family="sans-serif" font-size="11" lengthAdjust="spacingAndGlyphs" textLength="93" x="128" y="1015.6245">double costHour</text><rect fill="none" height="6" style="stroke: #C82930; stroke-width: 1.0;" width="6" x="116" y="1022.2188"/><text fill="#000000" font-family="sans-serif" font-size="11" lengthAdjust="spacingAndGlyphs" textLength="113" x="128" y="1028.4292">String taskCategory</text><line style="stroke: #A80036; stroke-width: 1.5;" x1="109" x2="246" y1="1035.0234" y2="1035.0234"/><!--MD5=[764fca796ce7f635542948d8fc39db5e]
class Payment--><rect fill="#FEFECE" filter="url(#f1nqeh4ofyhu7l)" height="86.4141" id="Payment" style="stroke: #A80036; stroke-width: 1.5;" width="210" x="494.5" y="1335"/><ellipse cx="568.25" cy="1351" fill="#ADD1B2" rx="11" ry="11" style="stroke: #A80036; stroke-width: 1.0;"/><path d="M571.2188,1356.6406 Q570.6406,1356.9375 570,1357.0859 Q569.3594,1357.2344 568.6563,1357.2344 Q566.1563,1357.2344 564.8359,1355.5859 Q563.5156,1353.9375 563.5156,1350.8125 Q563.5156,1347.6875 564.8359,1346.0313 Q566.1563,1344.375 568.6563,1344.375 Q569.3594,1344.375 570.0078,1344.5313 Q570.6563,1344.6875 571.2188,1344.9844 L571.2188,1347.7031 Q570.5938,1347.125 570,1346.8516 Q569.4063,1346.5781 568.7813,1346.5781 Q567.4375,1346.5781 566.75,1347.6484 Q566.0625,1348.7188 566.0625,1350.8125 Q566.0625,1352.9063 566.75,1353.9766 Q567.4375,1355.0469 568.7813,1355.0469 Q569.4063,1355.0469 570,1354.7734 Q570.5938,1354.5 571.2188,1353.9219 L571.2188,1356.6406 Z "/><text fill="#000000" font-family="sans-serif" font-size="12" lengthAdjust="spacingAndGlyphs" textLength="54" x="588.75" y="1355.1543">Payment</text><line style="stroke: #A80036; stroke-width: 1.5;" x1="495.5" x2="703.5" y1="1367" y2="1367"/><rect fill="none" height="6" style="stroke: #C82930; stroke-width: 1.0;" width="6" x="502.5" y="1375"/><text fill="#000000" font-family="sans-serif" font-size="11" lengthAdjust="spacingAndGlyphs" textLength="37" x="514.5" y="1381.2104">valueE</text><rect fill="none" height="6" style="stroke: #C82930; stroke-width: 1.0;" width="6" x="502.5" y="1387.8047"/><text fill="#000000" font-family="sans-serif" font-size="11" lengthAdjust="spacingAndGlyphs" textLength="38" x="514.5" y="1394.0151">valueC</text><line style="stroke: #A80036; stroke-width: 1.5;" x1="495.5" x2="703.5" y1="1400.6094" y2="1400.6094"/><ellipse cx="505.5" cy="1411.6094" fill="#84BE84" rx="3" ry="3" style="stroke: #038048; stroke-width: 1.0;"/><text fill="#000000" font-family="sans-serif" font-size="11" lengthAdjust="spacingAndGlyphs" textLength="184" x="514.5" y="1414.8198">create(costEuros, costCurrency)</text><!--MD5=[3fd616f346a44cd59a91eb10b19e157c]
class User--><rect fill="#FEFECE" filter="url(#f1nqeh4ofyhu7l)" height="48" id="User" style="stroke: #A80036; stroke-width: 1.5;" width="61" x="102" y="780.5"/><ellipse cx="117" cy="796.5" fill="#ADD1B2" rx="11" ry="11" style="stroke: #A80036; stroke-width: 1.0;"/><path d="M119.9688,802.1406 Q119.3906,802.4375 118.75,802.5859 Q118.1094,802.7344 117.4063,802.7344 Q114.9063,802.7344 113.5859,801.0859 Q112.2656,799.4375 112.2656,796.3125 Q112.2656,793.1875 113.5859,791.5313 Q114.9063,789.875 117.4063,789.875 Q118.1094,789.875 118.7578,790.0313 Q119.4063,790.1875 119.9688,790.4844 L119.9688,793.2031 Q119.3438,792.625 118.75,792.3516 Q118.1563,792.0781 117.5313,792.0781 Q116.1875,792.0781 115.5,793.1484 Q114.8125,794.2188 114.8125,796.3125 Q114.8125,798.4063 115.5,799.4766 Q116.1875,800.5469 117.5313,800.5469 Q118.1563,800.5469 118.75,800.2734 Q119.3438,800 119.9688,799.4219 L119.9688,802.1406 Z "/><text fill="#000000" font-family="sans-serif" font-size="12" lengthAdjust="spacingAndGlyphs" textLength="29" x="131" y="800.6543">User</text><line style="stroke: #A80036; stroke-width: 1.5;" x1="103" x2="162" y1="812.5" y2="812.5"/><line style="stroke: #A80036; stroke-width: 1.5;" x1="103" x2="162" y1="820.5" y2="820.5"/><!--MD5=[6688bada5bfda570a968c3148ca4366e]
link CreateTransactionController to Organization--><path d="M314.0565,216.419 C306.8968,226.0208 299.7432,236.1571 293.5,246 C259.5903,299.4615 227.113,364.0003 205.1931,410.222 " fill="none" id="CreateTransactionController-&gt;Organization" style="stroke: #A80036; stroke-width: 1.0; stroke-dasharray: 7.0,7.0;"/><polygon fill="#A80036" points="202.9724,414.9182,210.4358,408.4919,205.1098,410.3981,203.2037,405.0721,202.9724,414.9182" style="stroke: #A80036; stroke-width: 1.0;"/><!--MD5=[b8d26f89be4acaa564761097540fe4ea]
link CreateTransactionController to TaskList--><path d="M284.7593,216.0873 C226.9208,261.1601 147.4563,333.0111 104.5,415 C72.117,476.8081 61.1193,558.8601 57.3954,605.1796 " fill="none" id="CreateTransactionController-&gt;TaskList" style="stroke: #A80036; stroke-width: 1.0; stroke-dasharray: 7.0,7.0;"/><polygon fill="#A80036" points="56.9964,610.3726,61.6741,601.7054,57.3794,605.3873,53.6976,601.0926,56.9964,610.3726" style="stroke: #A80036; stroke-width: 1.0;"/><!--MD5=[5c243492f641b59132f841fb4b8cf79b]
link CreateTransactionController to Platform--><path d="M407.3844,216.2113 C427.3023,234.9341 449.5055,255.8052 467.6492,272.8602 " fill="none" id="CreateTransactionController-&gt;Platform" style="stroke: #A80036; stroke-width: 1.0; stroke-dasharray: 7.0,7.0;"/><polygon fill="#A80036" points="471.6934,276.6618,467.8754,267.5831,468.0503,273.2372,462.3961,273.4121,471.6934,276.6618" style="stroke: #A80036; stroke-width: 1.0;"/><!--MD5=[358619db85e3bc17610864414eee935b]
link CreateTransactionController to RegisterFreelancer--><path d="M461.4808,216.0675 C536.2111,253.0239 636.5174,307.414 716.5,368 C743.9664,388.8055 772.1652,415.6268 792.9986,436.6836 " fill="none" id="CreateTransactionController-&gt;RegisterFreelancer" style="stroke: #A80036; stroke-width: 1.0; stroke-dasharray: 7.0,7.0;"/><polygon fill="#A80036" points="796.5388,440.2779,793.0732,431.0589,793.0302,436.7156,787.3735,436.6726,796.5388,440.2779" style="stroke: #A80036; stroke-width: 1.0;"/><!--MD5=[a9fbaa0c029db555c642469a951c73d9]
link CreateTransactionController to RegisterTransaction--><path d="M378.5187,216.3715 C395.8717,251.1879 420.5563,298.3404 445.5,338 C462.4611,364.9675 483.1529,393.5714 501.145,417.3149 " fill="none" id="CreateTransactionController-&gt;RegisterTransaction" style="stroke: #A80036; stroke-width: 1.0; stroke-dasharray: 7.0,7.0;"/><polygon fill="#A80036" points="504.2392,421.3856,501.9774,411.8,501.2135,417.405,495.6084,416.6411,504.2392,421.3856" style="stroke: #A80036; stroke-width: 1.0;"/><!--MD5=[6764b35e6234bba9c0f852037627fd36]
link CreateTransactionController to TransactionExecution--><path d="M335.9751,216.0081 C327.5798,242.7151 319.5,276.4769 319.5,307.5 C319.5,307.5 319.5,307.5 319.5,641 C319.5,677.7482 327.1529,718.3419 334.8538,749.8879 " fill="none" id="CreateTransactionController-&gt;TransactionExecution" style="stroke: #A80036; stroke-width: 1.0; stroke-dasharray: 7.0,7.0;"/><polygon fill="#A80036" points="336.089,754.8711,337.8058,745.173,334.8859,750.018,330.0409,747.098,336.089,754.8711" style="stroke: #A80036; stroke-width: 1.0;"/><!--MD5=[22ffe80e9e3e83a03222f0f343985799]
link CreateTransactionUI to CreateTransactionController--><path d="M354.5,56.0459 C354.5,71.4478 354.5,92.0929 354.5,111.3652 " fill="none" id="CreateTransactionUI-&gt;CreateTransactionController" style="stroke: #A80036; stroke-width: 1.0; stroke-dasharray: 7.0,7.0;"/><polygon fill="#A80036" points="354.5,116.759,358.5,107.759,354.5,111.759,350.5,107.759,354.5,116.759" style="stroke: #A80036; stroke-width: 1.0;"/><!--MD5=[a1bcd49bda1d48eee0717f7ad534cdd6]
link Freelancer to Payment--><path d="M552.5298,1258.0356 C562.6039,1283.7654 573.7436,1312.2168 582.6453,1334.9523 " fill="none" id="Freelancer-Payment" style="stroke: #A80036; stroke-width: 1.0;"/><text fill="#000000" font-family="sans-serif" font-size="13" lengthAdjust="spacingAndGlyphs" textLength="53" x="569.5" y="1301.0669">receives</text><polygon fill="#000000" points="591.5,1310.1328,594.5,1316.1328,597.5,1310.1328,591.5,1310.1328" style="stroke: #000000; stroke-width: 1.0;"/><text fill="#000000" font-family="sans-serif" font-size="13" lengthAdjust="spacingAndGlyphs" textLength="8" x="546.7968" y="1277.6611">1</text><text fill="#000000" font-family="sans-serif" font-size="13" lengthAdjust="spacingAndGlyphs" textLength="8" x="571.3216" y="1323.9407">1</text><!--MD5=[46d37ede0064d909e6448e911ad77dfb]
link Platform to RegisterTransaction--><path d="M511.8356,338.2531 C517.4181,361.6566 525.2152,394.3443 531.6751,421.4263 " fill="none" id="Platform-RegisterTransaction" style="stroke: #A80036; stroke-width: 1.0;"/><text fill="#000000" font-family="sans-serif" font-size="13" lengthAdjust="spacingAndGlyphs" textLength="23" x="523.5" y="381.0669">has</text><polygon fill="#000000" points="530.5,390.1328,533.5,396.1328,536.5,390.1328,530.5,390.1328" style="stroke: #000000; stroke-width: 1.0;"/><text fill="#000000" font-family="sans-serif" font-size="13" lengthAdjust="spacingAndGlyphs" textLength="8" x="504.4923" y="357.8834">1</text><text fill="#000000" font-family="sans-serif" font-size="13" lengthAdjust="spacingAndGlyphs" textLength="23" x="505.395" y="410.4612">1..*</text><!--MD5=[1d0ba793ebf64dcf1aa20e2f414a81a9]
link RegisterTransaction to TransactionExecution--><path d="M514.8144,520.5682 C478.3243,583.6223 415.6754,691.8782 379.1854,754.9321 " fill="none" id="RegisterTransaction-TransactionExecution" style="stroke: #A80036; stroke-width: 1.0;"/><text fill="#000000" font-family="sans-serif" font-size="13" lengthAdjust="spacingAndGlyphs" textLength="23" x="466.5" y="645.5669">has</text><polygon fill="#000000" points="473.5,654.6328,476.5,660.6328,479.5,654.6328,473.5,654.6328" style="stroke: #000000; stroke-width: 1.0;"/><text fill="#000000" font-family="sans-serif" font-size="13" lengthAdjust="spacingAndGlyphs" textLength="8" x="502.218" y="540.6543">1</text><text fill="#000000" font-family="sans-serif" font-size="13" lengthAdjust="spacingAndGlyphs" textLength="7" x="375.7271" y="743.9678">*</text><!--MD5=[7640e466c042ba2d6f9c19c816f7f0fc]
link Platform to Organization--><path d="M462.4199,328.54 C403.7716,357.8642 297.3719,411.0641 232.5033,443.4984 " fill="none" id="Platform-Organization" style="stroke: #A80036; stroke-width: 1.0;"/><polygon fill="#000000" points="387.5,375.0664,381.5,378.0664,387.5,381.0664,387.5,375.0664" style="stroke: #000000; stroke-width: 1.0;"/><text fill="#000000" font-family="sans-serif" font-size="13" lengthAdjust="spacingAndGlyphs" textLength="92" x="393.5" y="381.0669">has registered</text><text fill="#000000" font-family="sans-serif" font-size="13" lengthAdjust="spacingAndGlyphs" textLength="8" x="446.4999" y="327.9623">1</text><text fill="#000000" font-family="sans-serif" font-size="13" lengthAdjust="spacingAndGlyphs" textLength="23" x="240.6084" y="436.3061">1..*</text><!--MD5=[bd4dc258c99bd36fa08dcfc6a9cf30bc]
link Platform to RegisterFreelancer--><path d="M546.7332,325.8665 C592.9828,346.335 669.0253,381.038 732.5,415 C747.1237,422.8244 762.6829,431.8867 776.8064,440.4113 " fill="none" id="Platform-RegisterFreelancer" style="stroke: #A80036; stroke-width: 1.0;"/><text fill="#000000" font-family="sans-serif" font-size="13" lengthAdjust="spacingAndGlyphs" textLength="23" x="671.5" y="381.0669">has</text><polygon fill="#000000" points="697.5,375.0664,703.5,378.0664,697.5,381.0664,697.5,375.0664" style="stroke: #000000; stroke-width: 1.0;"/><text fill="#000000" font-family="sans-serif" font-size="13" lengthAdjust="spacingAndGlyphs" textLength="8" x="554.3906" y="324.7603">1</text><text fill="#000000" font-family="sans-serif" font-size="13" lengthAdjust="spacingAndGlyphs" textLength="23" x="741.3915" y="429.6562">1..*</text><!--MD5=[49ce8ea186f6865d1a47f1469d32fd2e]
link RegisterFreelancer to Freelancer--><path d="M777.8754,501.6334 C712.6445,544.4014 603.5,619.2158 603.5,641 C603.5,641 603.5,641 603.5,987 C603.5,1033.4275 585.347,1082.0714 566.5558,1119.988 " fill="none" id="RegisterFreelancer-Freelancer" style="stroke: #A80036; stroke-width: 1.0;"/><text fill="#000000" font-family="sans-serif" font-size="13" lengthAdjust="spacingAndGlyphs" textLength="23" x="604.5" y="809.0669">has</text><polygon fill="#000000" points="611.5,818.1328,614.5,824.1328,617.5,818.1328,611.5,818.1328" style="stroke: #000000; stroke-width: 1.0;"/><text fill="#000000" font-family="sans-serif" font-size="13" lengthAdjust="spacingAndGlyphs" textLength="8" x="759.2278" y="521.5991">1</text><text fill="#000000" font-family="sans-serif" font-size="13" lengthAdjust="spacingAndGlyphs" textLength="7" x="563.6635" y="1108.7137">*</text><!--MD5=[45817597bcd7048073a670d966abfd17]
link Organization to Collaborator--><path d="M183.1135,527.1355 C185.6378,552.3777 188.5474,581.4736 190.7935,603.9348 " fill="none" id="Organization-Collaborator" style="stroke: #A80036; stroke-width: 1.0;"/><text fill="#000000" font-family="sans-serif" font-size="13" lengthAdjust="spacingAndGlyphs" textLength="23" x="189.5" y="570.0669">has</text><polygon fill="#000000" points="196.5,579.1328,199.5,585.1328,202.5,579.1328,196.5,579.1328" style="stroke: #000000; stroke-width: 1.0;"/><text fill="#000000" font-family="sans-serif" font-size="13" lengthAdjust="spacingAndGlyphs" textLength="8" x="175.3101" y="546.9646">1</text><text fill="#000000" font-family="sans-serif" font-size="13" lengthAdjust="spacingAndGlyphs" textLength="8" x="181.3726" y="592.8332">1</text><!--MD5=[522c679f4dd7ba84a6aa9ac03f58229d]
link Organization to TaskList--><path d="M137.2145,527.1355 C117.3644,554.7955 94.1934,587.0829 77.6054,610.1974 " fill="none" id="Organization-TaskList" style="stroke: #A80036; stroke-width: 1.0;"/><text fill="#000000" font-family="sans-serif" font-size="13" lengthAdjust="spacingAndGlyphs" textLength="23" x="114.5" y="570.0669">has</text><polygon fill="#000000" points="121.5,579.1328,124.5,585.1328,127.5,579.1328,121.5,579.1328" style="stroke: #000000; stroke-width: 1.0;"/><text fill="#000000" font-family="sans-serif" font-size="13" lengthAdjust="spacingAndGlyphs" textLength="8" x="123.8172" y="546.9646">1</text><text fill="#000000" font-family="sans-serif" font-size="13" lengthAdjust="spacingAndGlyphs" textLength="8" x="73.3396" y="599.3982">1</text><!--MD5=[14c738364c5fdafcb97ced6863906d7f]
link TaskList to Task--><path d="M46.4532,671.6532 C35.5493,714.3192 21.5891,793.2095 46.5,854 C59.3423,885.3392 83.5285,913.2547 107.6576,935.3195 " fill="none" id="TaskList-Task" style="stroke: #A80036; stroke-width: 1.0;"/><text fill="#000000" font-family="sans-serif" font-size="13" lengthAdjust="spacingAndGlyphs" textLength="23" x="47.5" y="809.0669">has</text><polygon fill="#000000" points="54.5,818.1328,57.5,824.1328,60.5,818.1328,54.5,818.1328" style="stroke: #000000; stroke-width: 1.0;"/><text fill="#000000" font-family="sans-serif" font-size="13" lengthAdjust="spacingAndGlyphs" textLength="8" x="35.8846" y="691.2638">1</text><text fill="#000000" font-family="sans-serif" font-size="13" lengthAdjust="spacingAndGlyphs" textLength="7" x="93.0942" y="926.289">*</text><!--MD5=[2ab7a6a303d213bb8ebe4ab6162585db]
link Collaborator to TransactionExecution--><path d="M205.2065,678.3025 C210.9515,693.8883 219.218,711.4767 230.5,725 C239.6252,735.938 250.6359,745.9464 262.2401,754.897 " fill="none" id="Collaborator-TransactionExecution" style="stroke: #A80036; stroke-width: 1.0;"/><text fill="#000000" font-family="sans-serif" font-size="13" lengthAdjust="spacingAndGlyphs" textLength="48" x="231.5" y="721.0669">creates</text><polygon fill="#000000" points="251,730.1328,254,736.1328,257,730.1328,251,730.1328" style="stroke: #000000; stroke-width: 1.0;"/><text fill="#000000" font-family="sans-serif" font-size="13" lengthAdjust="spacingAndGlyphs" textLength="8" x="198.2753" y="697.5515">1</text><text fill="#000000" font-family="sans-serif" font-size="13" lengthAdjust="spacingAndGlyphs" textLength="23" x="225.2114" y="743.9277">1..*</text><!--MD5=[04ce0ecdab38a3951889ff50c232570f]
link Collaborator to User--><path d="M148.8264,678.3223 C140.943,687.1552 133.8836,697.1861 129.5,708 C120.1176,731.1454 122.6732,760.0385 126.4486,780.1478 " fill="none" id="Collaborator-User" style="stroke: #A80036; stroke-width: 1.0;"/><text fill="#000000" font-family="sans-serif" font-size="13" lengthAdjust="spacingAndGlyphs" textLength="46" x="130.5" y="721.0669">acts as</text><polygon fill="#000000" points="149,730.1328,152,736.1328,155,730.1328,149,730.1328" style="stroke: #000000; stroke-width: 1.0;"/><text fill="#000000" font-family="sans-serif" font-size="13" lengthAdjust="spacingAndGlyphs" textLength="8" x="132.9097" y="697.5745">1</text><text fill="#000000" font-family="sans-serif" font-size="13" lengthAdjust="spacingAndGlyphs" textLength="8" x="115.9986" y="769.4669">1</text><!--MD5=[8853e9d83a8841c20c4ef075af762602]
link Task to Freelancer--><path d="M191.0674,1043.1722 C197.5512,1060.1245 206.9628,1077.5249 220.5,1090 C285.0806,1149.5136 385.884,1173.2732 453.7462,1182.7446 " fill="none" id="Task-Freelancer" style="stroke: #A80036; stroke-width: 1.0;"/><text fill="#000000" font-family="sans-serif" font-size="13" lengthAdjust="spacingAndGlyphs" textLength="56" x="221.5" y="1086.0669">made by</text><polygon fill="#000000" points="280.5,1080.0664,286.5,1083.0664,280.5,1086.0664,280.5,1080.0664" style="stroke: #000000; stroke-width: 1.0;"/><text fill="#000000" font-family="sans-serif" font-size="13" lengthAdjust="spacingAndGlyphs" textLength="23" x="168.3194" y="1063.0058">1..*</text><text fill="#000000" font-family="sans-serif" font-size="13" lengthAdjust="spacingAndGlyphs" textLength="8" x="437.9341" y="1178.4188">1</text><!--MD5=[209a2c3229d506e84b8c72b391c080a4]
link TransactionExecution to Payment--><path d="M437.183,854.1691 C453.3803,863.8379 470.0625,874.0621 485.5,884 C516.0845,903.6888 528.2983,903.846 552.5,931 C600.2677,984.5949 609.4345,1004.0685 629.5,1073 C658.379,1172.2086 672.6782,1205.5901 644.5,1305 C641.6173,1315.1699 636.8722,1325.3138 631.5195,1334.6639 " fill="none" id="TransactionExecution-Payment" style="stroke: #A80036; stroke-width: 1.0;"/><text fill="#000000" font-family="sans-serif" font-size="13" lengthAdjust="spacingAndGlyphs" textLength="63" x="634.5" y="1086.0669">originates</text><text fill="#000000" font-family="sans-serif" font-size="13" lengthAdjust="spacingAndGlyphs" textLength="8" x="440.8103" y="874.2694">1</text><text fill="#000000" font-family="sans-serif" font-size="13" lengthAdjust="spacingAndGlyphs" textLength="8" x="627.81" y="1323.925">1</text><!--MD5=[fcdd4dc74bc0207eaed6eb249aae2fb9]
link TransactionExecution to Freelancer--><path d="M336.6457,854.2695 C325.4629,904.5059 315.8232,983.0252 344.5,1043 C367.1401,1090.3497 413.4615,1127.2594 453.5745,1152.122 " fill="none" id="TransactionExecution-Freelancer" style="stroke: #A80036; stroke-width: 1.0;"/><text fill="#000000" font-family="sans-serif" font-size="13" lengthAdjust="spacingAndGlyphs" textLength="136" x="345.5" y="991.5669">related to the work of</text><text fill="#000000" font-family="sans-serif" font-size="13" lengthAdjust="spacingAndGlyphs" textLength="8" x="326.1349" y="874.3839">1</text><text fill="#000000" font-family="sans-serif" font-size="13" lengthAdjust="spacingAndGlyphs" textLength="8" x="438.1006" y="1144.845">1</text><!--MD5=[fcdd4dc74bc0207eaed6eb249aae2fb9]
link TransactionExecution to Freelancer--><path d="M421.1954,854.2685 C445.7041,875.1606 470.9169,901.4868 486.5,931 C517.487,989.6869 525.7804,1065.6967 527.2059,1119.9836 " fill="none" id="TransactionExecution-Freelancer-1" style="stroke: #A80036; stroke-width: 1.0;"/><text fill="#000000" font-family="sans-serif" font-size="13" lengthAdjust="spacingAndGlyphs" textLength="23" x="520.5" y="991.5669">has</text><text fill="#000000" font-family="sans-serif" font-size="13" lengthAdjust="spacingAndGlyphs" textLength="8" x="422.5744" y="874.3827">1</text><text fill="#000000" font-family="sans-serif" font-size="13" lengthAdjust="spacingAndGlyphs" textLength="8" x="518.955" y="1108.7089">1</text><!--MD5=[57cb959bbb8d6516b63cb4c28268197c]
link TransactionExecution to Task--><path d="M296.3947,854.1821 C286.2825,863.8931 275.9337,874.1293 266.5,884 C252.3759,898.7784 237.6355,915.3294 224.3078,930.7678 " fill="none" id="TransactionExecution-Task" style="stroke: #A80036; stroke-width: 1.0;"/><text fill="#000000" font-family="sans-serif" font-size="13" lengthAdjust="spacingAndGlyphs" textLength="23" x="267.5" y="897.0669">has</text><text fill="#000000" font-family="sans-serif" font-size="13" lengthAdjust="spacingAndGlyphs" textLength="8" x="280.2236" y="874.2842">1</text><text fill="#000000" font-family="sans-serif" font-size="13" lengthAdjust="spacingAndGlyphs" textLength="8" x="221.525" y="920.074">1</text><!--MD5=[9cd05cbb9406fefb59a64ac9974c1ed9]
@startuml
class CreateTransactionUI{
  }

class CreateTransactionController{
  +getTaskList()
  +getFreelancerList()
  +createNewTransaction(task, freel, endDate, delay, qow)
  +registerTransaction()
  }

class Organization{
  -String nome
  -String email
  -String nif
  +getTaskList()
  +getRTrans()
  }

class TaskList{
  +getTaskList()
  }

class Platform{
  +getRFree()

  }

class RegisterFreelancer{
  +getListFreelancers()
  }

class RegisterTransaction{
  +createNewTransaction(task, freel, endDate, delay, qow)
  +registerTransaction(trans)
  +validateTransaction(trans)
  +addTransaction(trans)
  }

class TransactionExecution{
  -Data endDate
  -double delay
  -String descriptionOfQuality
  +create(task, freel,endDate, delay, qow, payment)
  }

class Freelancer{
  -String idF
  -String name
  -String levelExpertise
  -String email
  -String nif
  -String ibanAccount
  -String country
  }

class Collaborator{
  -String nome
  -String email
  }

class Task{
  -String idT
  -String description
  -Time timeDuration
  -double costHour
  -String taskCategory
  }

class Payment{
  -valueE
  -valueC
  +create(costEuros, costCurrency)
  }
  


CreateTransactionController ..> Organization
CreateTransactionController ..> TaskList
CreateTransactionController ..> Platform
CreateTransactionController ..> RegisterFreelancer
CreateTransactionController ..> RegisterTransaction
CreateTransactionController ..> TransactionExecution

CreateTransactionUI ..> CreateTransactionController

Freelancer "1" - - "1" Payment: receives >

Platform "1" - - "1..*" RegisterTransaction: has >
RegisterTransaction "1" - - "*" TransactionExecution: has >
Platform "1" - - "1..*" Organization: has registered >
Platform "1" - - "1..*" RegisterFreelancer: has >
RegisterFreelancer "1" - - "*" Freelancer: has >

Organization "1" - - "1" Collaborator: has >
Organization "1" - - "1" TaskList: has >

TaskList "1" - - "*" Task: has >

Collaborator "1" - - "1..*" TransactionExecution: creates >
Collaborator "1" - - "1" User: acts as >

Task "1..*" - - "1" Freelancer: made by >


TransactionExecution "1" - -"1" Payment: originates
TransactionExecution "1" - - "1" Freelancer: related to the work of
TransactionExecution "1" - -"1" Task: has
TransactionExecution "1" - -"1" Freelancer: has
@enduml

PlantUML version 1.2019.12(Sun Nov 03 10:24:54 UTC 2019)
(GPL source distribution)
Java Runtime: OpenJDK Runtime Environment
JVM: OpenJDK 64-Bit Server VM
Java Version: 1.8.0_232-heroku-b09
Operating System: Linux
Default Encoding: UTF-8
Language: en
Country: US
--></g></svg>