<?xml version="1.0" encoding="UTF-8" standalone="no"?><svg xmlns="http://www.w3.org/2000/svg" xmlns:xlink="http://www.w3.org/1999/xlink" contentScriptType="application/ecmascript" contentStyleType="text/css" height="639.6px" preserveAspectRatio="none" style="width:412px;height:639px;" version="1.1" viewBox="0 0 412 639" width="412.2px" zoomAndPan="magnify"><defs><filter height="300%" id="f1w3x11y6xrthu" width="300%" x="-1" y="-1"><feGaussianBlur result="blurOut" stdDeviation="1.2"/><feColorMatrix in="blurOut" result="blurOut2" type="matrix" values="0 0 0 0 0 0 0 0 0 0 0 0 0 0 0 0 0 0 .4 0"/><feOffset dx="2.4" dy="2.4" in="blurOut2" result="blurOut3"/><feBlend in="SourceGraphic" in2="blurOut3" mode="normal"/></filter></defs><g><!--MD5=[80081f69e18b184ad4139bbdb7157636]
class POTAplication--><rect fill="#FEFECE" filter="url(#f1w3x11y6xrthu)" height="45.4031" id="POTAplication" style="stroke: #A80036; stroke-width: 0.8999999999999999;" width="66.6" x="3.6" y="152.4"/><ellipse cx="13.14" cy="162" fill="#ADD1B2" rx="6.6" ry="6.6" style="stroke: #A80036; stroke-width: 0.6;"/><path d="M14.34,159.9 Q14.4619,159.6 14.6025,159.45 Q14.7431,159.3 14.9025,159.3 Q15.1837,159.3 15.3619,159.4688 Q15.54,159.6375 15.54,160.0313 L15.54,160.9688 Q15.54,161.3625 15.3712,161.5313 Q15.2025,161.7 14.94,161.7 Q14.7056,161.7 14.5556,161.5969 Q14.4056,161.4938 14.34,161.2219 Q14.3119,161.0344 14.2087,160.9313 Q14.0212,160.7344 13.6837,160.6219 Q13.3463,160.5 13.0088,160.5 Q12.5869,160.5 12.2306,160.6688 Q11.8838,160.8375 11.6119,161.2125 Q11.34,161.5875 11.34,162.1031 L11.34,162.6563 Q11.34,163.275 11.8463,163.6875 Q12.3525,164.1 13.2525,164.1 Q13.7869,164.1 14.1619,163.9781 Q14.3775,163.9125 14.6212,163.6969 Q14.7806,163.575 14.865,163.5375 Q14.9494,163.5 15.0525,163.5 Q15.2494,163.5 15.39,163.6594 Q15.54,163.8094 15.54,164.025 Q15.54,164.2313 15.3337,164.475 Q15.0337,164.8312 14.5556,165.0281 Q13.9275,165.3 13.1588,165.3 Q12.2588,165.3 11.5369,164.9438 Q10.9556,164.6625 10.5431,164.0531 Q10.14,163.4438 10.14,162.7219 L10.14,162.0656 Q10.14,161.3156 10.4962,160.6594 Q10.8619,160.0031 11.49,159.6563 Q12.1275,159.3 12.84,159.3 Q13.2712,159.3 13.6462,159.45 Q14.0212,159.6 14.34,159.9 Z "/><text fill="#000000" font-family="sans-serif" font-size="7.2" lengthAdjust="spacingAndGlyphs" textLength="46.2" x="21.66" y="164.9461">POTAplication</text><line style="stroke: #A80036; stroke-width: 0.8999999999999999;" x1="4.2" x2="69.6" y1="171.6" y2="171.6"/><line style="stroke: #A80036; stroke-width: 0.8999999999999999;" x1="4.2" x2="69.6" y1="176.4" y2="176.4"/><text fill="#000000" font-family="sans-serif" font-size="6.6" lengthAdjust="spacingAndGlyphs" textLength="59.4" x="7.2" y="185.6514">+static getInstance()</text><text fill="#000000" font-family="sans-serif" font-size="6.6" lengthAdjust="spacingAndGlyphs" textLength="33" x="7.2" y="193.9529">+getLogin()</text><!--MD5=[5b90e4d4f77308a929aa4d17d3ae3119]
class Login--><rect fill="#FEFECE" filter="url(#f1w3x11y6xrthu)" height="37.1016" id="Login" style="stroke: #A80036; stroke-width: 0.8999999999999999;" width="52.8" x="91.5" y="156.6"/><ellipse cx="107.25" cy="166.2" fill="#ADD1B2" rx="6.6" ry="6.6" style="stroke: #A80036; stroke-width: 0.6;"/><path d="M108.45,164.1 Q108.5719,163.8 108.7125,163.65 Q108.8531,163.5 109.0125,163.5 Q109.2938,163.5 109.4719,163.6688 Q109.65,163.8375 109.65,164.2313 L109.65,165.1688 Q109.65,165.5625 109.4813,165.7313 Q109.3125,165.9 109.05,165.9 Q108.8156,165.9 108.6656,165.7969 Q108.5156,165.6938 108.45,165.4219 Q108.4219,165.2344 108.3188,165.1313 Q108.1313,164.9344 107.7938,164.8219 Q107.4563,164.7 107.1187,164.7 Q106.6969,164.7 106.3406,164.8688 Q105.9937,165.0375 105.7219,165.4125 Q105.45,165.7875 105.45,166.3031 L105.45,166.8563 Q105.45,167.475 105.9563,167.8875 Q106.4625,168.3 107.3625,168.3 Q107.8969,168.3 108.2719,168.1781 Q108.4875,168.1125 108.7313,167.8969 Q108.8906,167.775 108.975,167.7375 Q109.0594,167.7 109.1625,167.7 Q109.3594,167.7 109.5,167.8594 Q109.65,168.0094 109.65,168.225 Q109.65,168.4313 109.4438,168.675 Q109.1438,169.0313 108.6656,169.2281 Q108.0375,169.5 107.2688,169.5 Q106.3687,169.5 105.6469,169.1437 Q105.0656,168.8625 104.6531,168.2531 Q104.25,167.6437 104.25,166.9219 L104.25,166.2656 Q104.25,165.5156 104.6063,164.8594 Q104.9719,164.2031 105.6,163.8563 Q106.2375,163.5 106.95,163.5 Q107.3813,163.5 107.7563,163.65 Q108.1313,163.8 108.45,164.1 Z "/><text fill="#000000" font-family="sans-serif" font-size="7.2" lengthAdjust="spacingAndGlyphs" textLength="18.6" x="117.15" y="169.1461">Login</text><line style="stroke: #A80036; stroke-width: 0.8999999999999999;" x1="92.1" x2="143.7" y1="175.8" y2="175.8"/><line style="stroke: #A80036; stroke-width: 0.8999999999999999;" x1="92.1" x2="143.7" y1="180.6" y2="180.6"/><text fill="#000000" font-family="sans-serif" font-size="6.6" lengthAdjust="spacingAndGlyphs" textLength="45.6" x="95.1" y="189.8514">+getUserEmail()</text><!--MD5=[b34797a66dc35cbf1d65f7e3ca75530e]
class Task--><rect fill="#FEFECE" filter="url(#f1w3x11y6xrthu)" height="78.6094" id="Task" style="stroke: #A80036; stroke-width: 0.8999999999999999;" width="184.2" x="125.4" y="554.4"/><ellipse cx="206.85" cy="564" fill="#ADD1B2" rx="6.6" ry="6.6" style="stroke: #A80036; stroke-width: 0.6;"/><path d="M208.05,561.9 Q208.1719,561.6 208.3125,561.45 Q208.4531,561.3 208.6125,561.3 Q208.8937,561.3 209.0719,561.4688 Q209.25,561.6375 209.25,562.0313 L209.25,562.9688 Q209.25,563.3625 209.0812,563.5313 Q208.9125,563.7 208.65,563.7 Q208.4156,563.7 208.2656,563.5969 Q208.1156,563.4938 208.05,563.2219 Q208.0219,563.0344 207.9188,562.9313 Q207.7313,562.7344 207.3937,562.6219 Q207.0563,562.5 206.7188,562.5 Q206.2969,562.5 205.9406,562.6687 Q205.5938,562.8375 205.3219,563.2125 Q205.05,563.5875 205.05,564.1031 L205.05,564.6563 Q205.05,565.275 205.5563,565.6875 Q206.0625,566.1 206.9625,566.1 Q207.4969,566.1 207.8719,565.9781 Q208.0875,565.9125 208.3312,565.6969 Q208.4906,565.575 208.575,565.5375 Q208.6594,565.5 208.7625,565.5 Q208.9594,565.5 209.1,565.6594 Q209.25,565.8094 209.25,566.025 Q209.25,566.2312 209.0438,566.475 Q208.7438,566.8313 208.2656,567.0281 Q207.6375,567.3 206.8688,567.3 Q205.9688,567.3 205.2469,566.9438 Q204.6656,566.6625 204.2531,566.0531 Q203.85,565.4438 203.85,564.7219 L203.85,564.0656 Q203.85,563.3156 204.2062,562.6594 Q204.5719,562.0031 205.2,561.6563 Q205.8375,561.3 206.55,561.3 Q206.9813,561.3 207.3563,561.45 Q207.7313,561.6 208.05,561.9 Z "/><text fill="#000000" font-family="sans-serif" font-size="7.2" lengthAdjust="spacingAndGlyphs" textLength="16.2" x="219.15" y="566.9461">Task</text><line style="stroke: #A80036; stroke-width: 0.8999999999999999;" x1="126" x2="309" y1="573.6" y2="573.6"/><text fill="#000000" font-family="sans-serif" font-size="6.6" lengthAdjust="spacingAndGlyphs" textLength="29.4" x="129" y="582.8514">-String idT</text><text fill="#000000" font-family="sans-serif" font-size="6.6" lengthAdjust="spacingAndGlyphs" textLength="52.8" x="129" y="591.1529">-String description</text><text fill="#000000" font-family="sans-serif" font-size="6.6" lengthAdjust="spacingAndGlyphs" textLength="52.8" x="129" y="599.4545">-Time timeDuration</text><text fill="#000000" font-family="sans-serif" font-size="6.6" lengthAdjust="spacingAndGlyphs" textLength="49.8" x="129" y="607.7561">-double costHour</text><text fill="#000000" font-family="sans-serif" font-size="6.6" lengthAdjust="spacingAndGlyphs" textLength="59.4" x="129" y="616.0576">-String taskCategory</text><line style="stroke: #A80036; stroke-width: 0.8999999999999999;" x1="126" x2="309" y1="619.9078" y2="619.9078"/><text fill="#000000" font-family="sans-serif" font-size="6.6" lengthAdjust="spacingAndGlyphs" textLength="177" x="129" y="629.1592">+Task(idT, description, timeDuration, costHour, taskCategory)</text><!--MD5=[86c7c362de55a38b660185a1328fe18d]
class Organization--><rect fill="#FEFECE" filter="url(#f1w3x11y6xrthu)" height="70.3078" id="Organization" style="stroke: #A80036; stroke-width: 0.8999999999999999;" width="96.6" x="258.6" y="328.8"/><ellipse cx="283.8" cy="338.4" fill="#ADD1B2" rx="6.6" ry="6.6" style="stroke: #A80036; stroke-width: 0.6;"/><path d="M285,336.3 Q285.1219,336 285.2625,335.85 Q285.4031,335.7 285.5625,335.7 Q285.8438,335.7 286.0219,335.8688 Q286.2,336.0375 286.2,336.4313 L286.2,337.3688 Q286.2,337.7625 286.0313,337.9313 Q285.8625,338.1 285.6,338.1 Q285.3656,338.1 285.2156,337.9969 Q285.0656,337.8938 285,337.6219 Q284.9719,337.4344 284.8688,337.3313 Q284.6813,337.1344 284.3438,337.0219 Q284.0062,336.9 283.6688,336.9 Q283.2469,336.9 282.8906,337.0687 Q282.5438,337.2375 282.2719,337.6125 Q282,337.9875 282,338.5031 L282,339.0563 Q282,339.675 282.5062,340.0875 Q283.0125,340.5 283.9125,340.5 Q284.4469,340.5 284.8219,340.3781 Q285.0375,340.3125 285.2813,340.0969 Q285.4406,339.975 285.525,339.9375 Q285.6094,339.9 285.7125,339.9 Q285.9094,339.9 286.05,340.0594 Q286.2,340.2094 286.2,340.425 Q286.2,340.6312 285.9938,340.875 Q285.6937,341.2313 285.2156,341.4281 Q284.5875,341.7 283.8187,341.7 Q282.9188,341.7 282.1969,341.3438 Q281.6156,341.0625 281.2031,340.4531 Q280.8,339.8438 280.8,339.1219 L280.8,338.4656 Q280.8,337.7156 281.1563,337.0594 Q281.5219,336.4031 282.15,336.0563 Q282.7875,335.7 283.5,335.7 Q283.9313,335.7 284.3063,335.85 Q284.6813,336 285,336.3 Z "/><text fill="#000000" font-family="sans-serif" font-size="7.2" lengthAdjust="spacingAndGlyphs" textLength="41.4" x="295.8" y="341.3461">Organization</text><line style="stroke: #A80036; stroke-width: 0.8999999999999999;" x1="259.2" x2="354.6" y1="348" y2="348"/><text fill="#000000" font-family="sans-serif" font-size="6.6" lengthAdjust="spacingAndGlyphs" textLength="36.6" x="262.2" y="357.2514">-String name</text><text fill="#000000" font-family="sans-serif" font-size="6.6" lengthAdjust="spacingAndGlyphs" textLength="35.4" x="262.2" y="365.5529">-String email</text><text fill="#000000" font-family="sans-serif" font-size="6.6" lengthAdjust="spacingAndGlyphs" textLength="28.2" x="262.2" y="373.8545">-String nif</text><line style="stroke: #A80036; stroke-width: 0.8999999999999999;" x1="259.2" x2="354.6" y1="377.7047" y2="377.7047"/><text fill="#000000" font-family="sans-serif" font-size="6.6" lengthAdjust="spacingAndGlyphs" textLength="89.4" x="262.2" y="386.9561">+Organization(name, email, nif)</text><text fill="#000000" font-family="sans-serif" font-size="6.6" lengthAdjust="spacingAndGlyphs" textLength="67.2" x="262.2" y="395.2576">+TaskList getTaskList()</text><!--MD5=[cf2635f8a68afd84898027166f4516bc]
class TaskList--><rect fill="#FEFECE" filter="url(#f1w3x11y6xrthu)" height="62.0062" id="TaskList" style="stroke: #A80036; stroke-width: 0.8999999999999999;" width="197.4" x="208.2" y="445.8"/><ellipse cx="290.25" cy="455.4" fill="#ADD1B2" rx="6.6" ry="6.6" style="stroke: #A80036; stroke-width: 0.6;"/><path d="M291.45,453.3 Q291.5719,453 291.7125,452.85 Q291.8531,452.7 292.0125,452.7 Q292.2938,452.7 292.4719,452.8688 Q292.65,453.0375 292.65,453.4313 L292.65,454.3688 Q292.65,454.7625 292.4813,454.9313 Q292.3125,455.1 292.05,455.1 Q291.8156,455.1 291.6656,454.9969 Q291.5156,454.8938 291.45,454.6219 Q291.4219,454.4344 291.3187,454.3313 Q291.1312,454.1344 290.7938,454.0219 Q290.4563,453.9 290.1188,453.9 Q289.6969,453.9 289.3406,454.0687 Q288.9938,454.2375 288.7219,454.6125 Q288.45,454.9875 288.45,455.5031 L288.45,456.0563 Q288.45,456.675 288.9563,457.0875 Q289.4625,457.5 290.3625,457.5 Q290.8969,457.5 291.2719,457.3781 Q291.4875,457.3125 291.7313,457.0969 Q291.8906,456.975 291.975,456.9375 Q292.0594,456.9 292.1625,456.9 Q292.3594,456.9 292.5,457.0594 Q292.65,457.2094 292.65,457.425 Q292.65,457.6312 292.4437,457.875 Q292.1438,458.2313 291.6656,458.4281 Q291.0375,458.7 290.2688,458.7 Q289.3688,458.7 288.6469,458.3438 Q288.0656,458.0625 287.6531,457.4531 Q287.25,456.8438 287.25,456.1219 L287.25,455.4656 Q287.25,454.7156 287.6063,454.0594 Q287.9719,453.4031 288.6,453.0563 Q289.2375,452.7 289.95,452.7 Q290.3812,452.7 290.7562,452.85 Q291.1312,453 291.45,453.3 Z "/><text fill="#000000" font-family="sans-serif" font-size="7.2" lengthAdjust="spacingAndGlyphs" textLength="28.2" x="302.55" y="458.3461">TaskList</text><line style="stroke: #A80036; stroke-width: 0.8999999999999999;" x1="208.8" x2="405" y1="465" y2="465"/><line style="stroke: #A80036; stroke-width: 0.8999999999999999;" x1="208.8" x2="405" y1="469.8" y2="469.8"/><text fill="#000000" font-family="sans-serif" font-size="6.6" lengthAdjust="spacingAndGlyphs" textLength="190.2" x="211.8" y="479.0514">+newTask(idT, description, timeDuration, costHour, taskCategory)</text><text fill="#000000" font-family="sans-serif" font-size="6.6" lengthAdjust="spacingAndGlyphs" textLength="60" x="211.8" y="487.3529">+registersTask(task)</text><text fill="#000000" font-family="sans-serif" font-size="6.6" lengthAdjust="spacingAndGlyphs" textLength="43.8" x="211.8" y="495.6545">-addTask(task)</text><text fill="#000000" font-family="sans-serif" font-size="6.6" lengthAdjust="spacingAndGlyphs" textLength="58.8" x="211.8" y="503.9561">-validatesTask(task)</text><!--MD5=[03dcba4cf8fb1a884adf843655d65df1]
class Plataform--><rect fill="#FEFECE" filter="url(#f1w3x11y6xrthu)" height="37.1016" id="Plataform" style="stroke: #A80036; stroke-width: 0.8999999999999999;" width="147.6" x="250.5" y="156.6"/><ellipse cx="305.85" cy="166.2" fill="#ADD1B2" rx="6.6" ry="6.6" style="stroke: #A80036; stroke-width: 0.6;"/><path d="M307.05,164.1 Q307.1719,163.8 307.3125,163.65 Q307.4531,163.5 307.6125,163.5 Q307.8938,163.5 308.0719,163.6688 Q308.25,163.8375 308.25,164.2313 L308.25,165.1688 Q308.25,165.5625 308.0813,165.7313 Q307.9125,165.9 307.65,165.9 Q307.4156,165.9 307.2656,165.7969 Q307.1156,165.6938 307.05,165.4219 Q307.0219,165.2344 306.9188,165.1313 Q306.7313,164.9344 306.3938,164.8219 Q306.0563,164.7 305.7188,164.7 Q305.2969,164.7 304.9406,164.8688 Q304.5938,165.0375 304.3219,165.4125 Q304.05,165.7875 304.05,166.3031 L304.05,166.8563 Q304.05,167.475 304.5563,167.8875 Q305.0625,168.3 305.9625,168.3 Q306.4969,168.3 306.8719,168.1781 Q307.0875,168.1125 307.3313,167.8969 Q307.4906,167.775 307.575,167.7375 Q307.6594,167.7 307.7625,167.7 Q307.9594,167.7 308.1,167.8594 Q308.25,168.0094 308.25,168.225 Q308.25,168.4313 308.0438,168.675 Q307.7438,169.0313 307.2656,169.2281 Q306.6375,169.5 305.8688,169.5 Q304.9688,169.5 304.2469,169.1437 Q303.6656,168.8625 303.2531,168.2531 Q302.85,167.6437 302.85,166.9219 L302.85,166.2656 Q302.85,165.5156 303.2063,164.8594 Q303.5719,164.2031 304.2,163.8563 Q304.8375,163.5 305.55,163.5 Q305.9813,163.5 306.3563,163.65 Q306.7313,163.8 307.05,164.1 Z "/><text fill="#000000" font-family="sans-serif" font-size="7.2" lengthAdjust="spacingAndGlyphs" textLength="31.8" x="318.15" y="169.1461">Plataform</text><line style="stroke: #A80036; stroke-width: 0.8999999999999999;" x1="251.1" x2="397.5" y1="175.8" y2="175.8"/><line style="stroke: #A80036; stroke-width: 0.8999999999999999;" x1="251.1" x2="397.5" y1="180.6" y2="180.6"/><text fill="#000000" font-family="sans-serif" font-size="6.6" lengthAdjust="spacingAndGlyphs" textLength="140.4" x="254.1" y="189.8514">+OrganizationRegister getOrganizationRegister()</text><!--MD5=[3c7078c4e591ec9aa01f69813acd29ab]
class OrganizationRegister--><rect fill="#FEFECE" filter="url(#f1w3x11y6xrthu)" height="37.1016" id="OrganizationRegister" style="stroke: #A80036; stroke-width: 0.8999999999999999;" width="111.6" x="257.7" y="244.8"/><ellipse cx="276.96" cy="254.4" fill="#ADD1B2" rx="6.6" ry="6.6" style="stroke: #A80036; stroke-width: 0.6;"/><path d="M278.16,252.3 Q278.2819,252 278.4225,251.85 Q278.5631,251.7 278.7225,251.7 Q279.0038,251.7 279.1819,251.8687 Q279.36,252.0375 279.36,252.4312 L279.36,253.3687 Q279.36,253.7625 279.1913,253.9312 Q279.0225,254.1 278.76,254.1 Q278.5256,254.1 278.3756,253.9969 Q278.2256,253.8937 278.16,253.6219 Q278.1319,253.4344 278.0288,253.3312 Q277.8413,253.1344 277.5038,253.0219 Q277.1663,252.9 276.8288,252.9 Q276.4069,252.9 276.0506,253.0688 Q275.7038,253.2375 275.4319,253.6125 Q275.16,253.9875 275.16,254.5031 L275.16,255.0562 Q275.16,255.675 275.6663,256.0875 Q276.1725,256.5 277.0725,256.5 Q277.6069,256.5 277.9819,256.3781 Q278.1975,256.3125 278.4413,256.0969 Q278.6006,255.975 278.685,255.9375 Q278.7694,255.9 278.8725,255.9 Q279.0694,255.9 279.21,256.0594 Q279.36,256.2094 279.36,256.425 Q279.36,256.6312 279.1538,256.875 Q278.8538,257.2313 278.3756,257.4281 Q277.7475,257.7 276.9788,257.7 Q276.0788,257.7 275.3569,257.3438 Q274.7756,257.0625 274.3631,256.4531 Q273.96,255.8438 273.96,255.1219 L273.96,254.4656 Q273.96,253.7156 274.3163,253.0594 Q274.6819,252.4031 275.31,252.0562 Q275.9475,251.7 276.66,251.7 Q277.0913,251.7 277.4663,251.85 Q277.8413,252 278.16,252.3 Z "/><text fill="#000000" font-family="sans-serif" font-size="7.2" lengthAdjust="spacingAndGlyphs" textLength="69.6" x="287.64" y="257.3461">OrganizationRegister</text><line style="stroke: #A80036; stroke-width: 0.8999999999999999;" x1="258.3" x2="368.7" y1="264" y2="264"/><line style="stroke: #A80036; stroke-width: 0.8999999999999999;" x1="258.3" x2="368.7" y1="268.8" y2="268.8"/><text fill="#000000" font-family="sans-serif" font-size="6.6" lengthAdjust="spacingAndGlyphs" textLength="104.4" x="261.3" y="278.0514">+getOrganizationByUserEmail(email)</text><!--MD5=[51de5e7b448e98e1f71289edad994864]
class CreateTaskController--><rect fill="#FEFECE" filter="url(#f1w3x11y6xrthu)" height="45.4031" id="CreateTaskController" style="stroke: #A80036; stroke-width: 0.8999999999999999;" width="197.4" x="77.4" y="70.2"/><ellipse cx="138.15" cy="79.8" fill="#ADD1B2" rx="6.6" ry="6.6" style="stroke: #A80036; stroke-width: 0.6;"/><path d="M139.35,77.7 Q139.4719,77.4 139.6125,77.25 Q139.7531,77.1 139.9125,77.1 Q140.1938,77.1 140.3719,77.2688 Q140.55,77.4375 140.55,77.8313 L140.55,78.7688 Q140.55,79.1625 140.3813,79.3313 Q140.2125,79.5 139.95,79.5 Q139.7156,79.5 139.5656,79.3969 Q139.4156,79.2938 139.35,79.0219 Q139.3219,78.8344 139.2188,78.7313 Q139.0313,78.5344 138.6938,78.4219 Q138.3563,78.3 138.0187,78.3 Q137.5969,78.3 137.2406,78.4688 Q136.8937,78.6375 136.6219,79.0125 Q136.35,79.3875 136.35,79.9031 L136.35,80.4563 Q136.35,81.075 136.8563,81.4875 Q137.3625,81.9 138.2625,81.9 Q138.7969,81.9 139.1719,81.7781 Q139.3875,81.7125 139.6313,81.4969 Q139.7906,81.375 139.875,81.3375 Q139.9594,81.3 140.0625,81.3 Q140.2594,81.3 140.4,81.4594 Q140.55,81.6094 140.55,81.825 Q140.55,82.0313 140.3438,82.275 Q140.0438,82.6313 139.5656,82.8281 Q138.9375,83.1 138.1688,83.1 Q137.2687,83.1 136.5469,82.7437 Q135.9656,82.4625 135.5531,81.8531 Q135.15,81.2437 135.15,80.5219 L135.15,79.8656 Q135.15,79.1156 135.5063,78.4594 Q135.8719,77.8031 136.5,77.4563 Q137.1375,77.1 137.85,77.1 Q138.2813,77.1 138.6563,77.25 Q139.0313,77.4 139.35,77.7 Z "/><text fill="#000000" font-family="sans-serif" font-size="7.2" lengthAdjust="spacingAndGlyphs" textLength="70.8" x="150.45" y="82.7461">CreateTaskController</text><line style="stroke: #A80036; stroke-width: 0.8999999999999999;" x1="78" x2="274.2" y1="89.4" y2="89.4"/><line style="stroke: #A80036; stroke-width: 0.8999999999999999;" x1="78" x2="274.2" y1="94.2" y2="94.2"/><text fill="#000000" font-family="sans-serif" font-size="6.6" lengthAdjust="spacingAndGlyphs" textLength="190.2" x="81" y="103.4514">+newTask(idT, description, timeDuration, costHour, taskCategory)</text><text fill="#000000" font-family="sans-serif" font-size="6.6" lengthAdjust="spacingAndGlyphs" textLength="48" x="81" y="111.7529">+registersTask()</text><!--MD5=[788566af22260aef45bcb38e0a2dd266]
class CreateTaskUI--><rect fill="#FEFECE" filter="url(#f1w3x11y6xrthu)" height="28.8" id="CreateTaskUI" style="stroke: #A80036; stroke-width: 0.8999999999999999;" width="64.8" x="143.7" y="4.8"/><ellipse cx="152.7" cy="14.4" fill="#ADD1B2" rx="6.6" ry="6.6" style="stroke: #A80036; stroke-width: 0.6;"/><path d="M153.9,12.3 Q154.0219,12 154.1625,11.85 Q154.3031,11.7 154.4625,11.7 Q154.7438,11.7 154.9219,11.8688 Q155.1,12.0375 155.1,12.4313 L155.1,13.3688 Q155.1,13.7625 154.9313,13.9313 Q154.7625,14.1 154.5,14.1 Q154.2656,14.1 154.1156,13.9969 Q153.9656,13.8937 153.9,13.6219 Q153.8719,13.4344 153.7687,13.3312 Q153.5812,13.1344 153.2438,13.0219 Q152.9063,12.9 152.5688,12.9 Q152.1469,12.9 151.7906,13.0688 Q151.4438,13.2375 151.1719,13.6125 Q150.9,13.9875 150.9,14.5031 L150.9,15.0562 Q150.9,15.675 151.4063,16.0875 Q151.9125,16.5 152.8125,16.5 Q153.3469,16.5 153.7219,16.3781 Q153.9375,16.3125 154.1813,16.0969 Q154.3406,15.975 154.425,15.9375 Q154.5094,15.9 154.6125,15.9 Q154.8094,15.9 154.95,16.0594 Q155.1,16.2094 155.1,16.425 Q155.1,16.6312 154.8937,16.875 Q154.5938,17.2313 154.1156,17.4281 Q153.4875,17.7 152.7188,17.7 Q151.8188,17.7 151.0969,17.3438 Q150.5156,17.0625 150.1031,16.4531 Q149.7,15.8438 149.7,15.1219 L149.7,14.4656 Q149.7,13.7156 150.0563,13.0594 Q150.4219,12.4031 151.05,12.0563 Q151.6875,11.7 152.4,11.7 Q152.8312,11.7 153.2062,11.85 Q153.5812,12 153.9,12.3 Z "/><text fill="#000000" font-family="sans-serif" font-size="7.2" lengthAdjust="spacingAndGlyphs" textLength="45.6" x="161.1" y="17.3461">CreateTaskUI</text><line style="stroke: #A80036; stroke-width: 0.8999999999999999;" x1="144.3" x2="207.9" y1="24" y2="24"/><line style="stroke: #A80036; stroke-width: 0.8999999999999999;" x1="144.3" x2="207.9" y1="28.8" y2="28.8"/><!--MD5=[3c2021faa4730756a46abeb810188647]
link CreateTaskUI to CreateTaskController--><path d="M176.1,33.6264 C176.1,43.0278 176.1,55.7448 176.1,66.945 " fill="none" id="CreateTaskUI-&gt;CreateTaskController" style="stroke: #A80036; stroke-width: 0.6; stroke-dasharray: 7.0,7.0;"/><polygon fill="#A80036" points="176.1,70.0602,178.5,64.6602,176.1,67.0602,173.7,64.6602,176.1,70.0602" style="stroke: #A80036; stroke-width: 0.6;"/><!--MD5=[e1c1891d5e147cfa84afbc52fe6afcbe]
link CreateTaskController to Plataform--><path d="M216.7926,115.8408 C239.1804,128.0772 266.7144,143.1258 288.3126,154.9308 " fill="none" id="CreateTaskController-&gt;Plataform" style="stroke: #A80036; stroke-width: 0.6; stroke-dasharray: 7.0,7.0;"/><polygon fill="#A80036" points="291.1848,156.5004,287.598,151.8041,288.5525,155.0613,285.2954,156.0158,291.1848,156.5004" style="stroke: #A80036; stroke-width: 0.6;"/><!--MD5=[20b3b25e5af19bf6c808e25d197bf54a]
link CreateTaskController to Task--><path d="M176.1,115.9476 C176.1,132.2136 176.1,154.7718 176.1,174.6 C176.1,174.6 176.1,174.6 176.1,477.3 C176.1,502.9434 185.2128,530.0142 194.8878,551.529 " fill="none" id="CreateTaskController-&gt;Task" style="stroke: #A80036; stroke-width: 0.6; stroke-dasharray: 7.0,7.0;"/><polygon fill="#A80036" points="196.1934,554.3928,196.1365,548.4838,194.9486,551.6632,191.7692,550.4754,196.1934,554.3928" style="stroke: #A80036; stroke-width: 0.6;"/><!--MD5=[7aee0bd92f6f97dbf4948ad9a4aaba5c]
link CreateTaskController to Organization--><path d="M184.818,115.9056 C187.0752,121.7244 189.4914,127.992 191.7,133.8 C216.6816,199.4982 213.4392,220.1886 246.9,282 C255.1548,297.249 265.9806,312.843 276.1608,326.2422 " fill="none" id="CreateTaskController-&gt;Organization" style="stroke: #A80036; stroke-width: 0.6; stroke-dasharray: 7.0,7.0;"/><polygon fill="#A80036" points="278.0532,328.7184,276.6816,322.9705,276.2317,326.3346,272.8676,325.8848,278.0532,328.7184" style="stroke: #A80036; stroke-width: 0.6;"/><!--MD5=[8a8a29b559f65861b85db9f3dbeac4b2]
link CreateTaskController to POTAplication--><path d="M137.8788,115.8408 C117.6204,127.629 92.877,142.0272 72.9534,153.621 " fill="none" id="CreateTaskController-&gt;POTAplication" style="stroke: #A80036; stroke-width: 0.6; stroke-dasharray: 7.0,7.0;"/><polygon fill="#A80036" points="70.2996,155.1648,76.1739,154.5222,72.8923,153.6555,73.759,150.3739,70.2996,155.1648" style="stroke: #A80036; stroke-width: 0.6;"/><!--MD5=[bba9734104188d04365d706193ef9e06]
link CreateTaskController to Login--><path d="M160.0428,115.9482 C151.5342,127.7892 141.1506,142.2414 132.819,153.8364 " fill="none" id="CreateTaskController-&gt;Login" style="stroke: #A80036; stroke-width: 0.6; stroke-dasharray: 7.0,7.0;"/><polygon fill="#A80036" points="130.9656,156.4158,136.0656,153.4308,132.7161,153.9795,132.1675,150.63,130.9656,156.4158" style="stroke: #A80036; stroke-width: 0.6;"/><!--MD5=[aa3198ff1d40924e5aefbf70f45d1458]
link Plataform to OrganizationRegister--><path d="M322.062,193.8264 C320.3316,207.7662 317.9322,227.0946 316.1136,241.7448 " fill="none" id="Plataform-&gt;OrganizationRegister" style="stroke: #A80036; stroke-width: 0.6;"/><polygon fill="#A80036" points="315.735,244.7964,318.7816,239.733,316.1044,241.8192,314.0181,239.142,315.735,244.7964" style="stroke: #A80036; stroke-width: 0.6;"/><text fill="#000000" font-family="sans-serif" font-size="7.8" lengthAdjust="spacingAndGlyphs" textLength="12.6" x="320.1" y="224.6971">has</text><text fill="#000000" font-family="sans-serif" font-size="7.8" lengthAdjust="spacingAndGlyphs" textLength="4.2" x="317.008" y="206.566">1</text><text fill="#000000" font-family="sans-serif" font-size="7.8" lengthAdjust="spacingAndGlyphs" textLength="4.2" x="311.5645" y="238.2078">1</text><!--MD5=[61c512daf028c4abaff9775e1f675fa3]
link OrganizationRegister to Organization--><path d="M312.2892,282.213 C311.4834,294.3402 310.395,310.7184 309.4068,325.5804 " fill="none" id="OrganizationRegister-&gt;Organization" style="stroke: #A80036; stroke-width: 0.6;"/><polygon fill="#A80036" points="309.198,328.7262,311.9521,323.4979,309.3977,325.7329,307.1627,323.1784,309.198,328.7262" style="stroke: #A80036; stroke-width: 0.6;"/><text fill="#000000" font-family="sans-serif" font-size="7.8" lengthAdjust="spacingAndGlyphs" textLength="12.6" x="311.7" y="308.6971">has</text><text fill="#000000" font-family="sans-serif" font-size="7.8" lengthAdjust="spacingAndGlyphs" textLength="4.2" x="307.4581" y="294.8408">1</text><text fill="#000000" font-family="sans-serif" font-size="7.8" lengthAdjust="spacingAndGlyphs" textLength="3" x="306.2953" y="322.3577">*</text><!--MD5=[522c679f4dd7ba84a6aa9ac03f58229d]
link Organization to TaskList--><path d="M306.9,399.0468 C306.9,412.9134 306.9,428.8392 306.9,442.599 " fill="none" id="Organization-&gt;TaskList" style="stroke: #A80036; stroke-width: 0.6;"/><polygon fill="#A80036" points="306.9,445.6824,309.3,440.2824,306.9,442.6824,304.5,440.2824,306.9,445.6824" style="stroke: #A80036; stroke-width: 0.6;"/><text fill="#000000" font-family="sans-serif" font-size="7.8" lengthAdjust="spacingAndGlyphs" textLength="12.6" x="307.5" y="425.6971">has</text><text fill="#000000" font-family="sans-serif" font-size="7.8" lengthAdjust="spacingAndGlyphs" textLength="4.2" x="302.4441" y="412.0187">1</text><text fill="#000000" font-family="sans-serif" font-size="7.8" lengthAdjust="spacingAndGlyphs" textLength="4.2" x="302.4178" y="439.3668">1</text><!--MD5=[14c738364c5fdafcb97ced6863906d7f]
link TaskList to Task--><path d="M283.4112,507.7248 C272.9946,521.2176 260.577,537.3018 249.3438,551.8524 " fill="none" id="TaskList-&gt;Task" style="stroke: #A80036; stroke-width: 0.6;"/><polygon fill="#A80036" points="247.407,554.3616,252.607,551.5544,249.2406,551.9871,248.8078,548.6207,247.407,554.3616" style="stroke: #A80036; stroke-width: 0.6;"/><text fill="#000000" font-family="sans-serif" font-size="7.8" lengthAdjust="spacingAndGlyphs" textLength="12.6" x="268.5" y="534.2971">has</text><text fill="#000000" font-family="sans-serif" font-size="7.8" lengthAdjust="spacingAndGlyphs" textLength="4.2" x="275.7727" y="520.6361">1</text><text fill="#000000" font-family="sans-serif" font-size="7.8" lengthAdjust="spacingAndGlyphs" textLength="3" x="247.6916" y="547.7668">*</text><!--MD5=[84585111fd5899d373583c5673d3cfb5]
@startuml
skinparam classAttributeIconSize 0

class POTAplication
{
  +static getInstance()
  +getLogin()
}

class Login
{
  +getUserEmail()
}

class Task {
    -String idT
    -String description
    -Time timeDuration
    -double costHour
    -String taskCategory
    +Task(idT, description, timeDuration, costHour, taskCategory)
}

class Organization {
  -String name
  -String email
  -String nif
  +Organization(name, email, nif)
  +TaskList getTaskList()
}

class TaskList {
  +newTask(idT, description, timeDuration, costHour, taskCategory)
  +registersTask(task)
  -addTask(task)
  -validatesTask(task)
}

class Plataform {
  +OrganizationRegister getOrganizationRegister()
}

class OrganizationRegister {
  +getOrganizationByUserEmail(email)
}

class CreateTaskController {
  +newTask(idT, description, timeDuration, costHour, taskCategory)
  +registersTask()
}

class CreateTaskUI {

}

CreateTaskUI ..> CreateTaskController
CreateTaskController ..> Plataform
CreateTaskController ..> Task
CreateTaskController ..> Organization 
CreateTaskController ..> POTAplication
CreateTaskController ..> Login
Plataform "1" - -> "1" OrganizationRegister : has
OrganizationRegister "1" - -> "*" Organization : has
Organization "1" - -> "1" TaskList : has
TaskList "1" - -> "*" Task : has


@enduml

PlantUML version 1.2020.09(Sun May 10 11:51:06 BST 2020)
(GPL source distribution)
Java Runtime: OpenJDK Runtime Environment
JVM: OpenJDK 64-Bit Server VM
Java Version: 11.0.6+8-b765.40
Operating System: Windows 10
Default Encoding: Cp1252
Language: pt
Country: PT
--></g></svg>