<?xml version="1.0" encoding="UTF-8" standalone="no"?><svg xmlns="http://www.w3.org/2000/svg" xmlns:xlink="http://www.w3.org/1999/xlink" contentScriptType="application/ecmascript" contentStyleType="text/css" height="231px" preserveAspectRatio="none" style="width:778px;height:231px;" version="1.1" viewBox="0 0 778 231" width="778px" zoomAndPan="magnify"><defs><filter height="300%" id="f12uqnvprhsra6" width="300%" x="-1" y="-1"><feGaussianBlur result="blurOut" stdDeviation="2.0"/><feColorMatrix in="blurOut" result="blurOut2" type="matrix" values="0 0 0 0 0 0 0 0 0 0 0 0 0 0 0 0 0 0 .4 0"/><feOffset dx="4.0" dy="4.0" in="blurOut2" result="blurOut3"/><feBlend in="SourceGraphic" in2="blurOut3" mode="normal"/></filter></defs><g><!--MD5=[99b8db98afdc2c8404e39242ef4c1e65]
class Platform--><rect fill="#FEFECE" filter="url(#f12uqnvprhsra6)" height="40" id="Platform" style="stroke: #A80036; stroke-width: 1.5;" width="78" x="6" y="94.5"/><ellipse cx="21" cy="110.5" fill="#ADD1B2" rx="11" ry="11" style="stroke: #A80036; stroke-width: 1.0;"/><path d="M23,107 Q23.2031,106.5 23.4375,106.25 Q23.6719,106 23.9375,106 Q24.4063,106 24.7031,106.2813 Q25,106.5625 25,107.2188 L25,108.7813 Q25,109.4375 24.7188,109.7188 Q24.4375,110 24,110 Q23.6094,110 23.3594,109.8281 Q23.1094,109.6563 23,109.2031 Q22.9531,108.8906 22.7813,108.7188 Q22.4688,108.3906 21.9063,108.2031 Q21.3438,108 20.7813,108 Q20.0781,108 19.4844,108.2813 Q18.9063,108.5625 18.4531,109.1875 Q18,109.8125 18,110.6719 L18,111.5938 Q18,112.625 18.8438,113.3125 Q19.6875,114 21.1875,114 Q22.0781,114 22.7031,113.7969 Q23.0625,113.6875 23.4688,113.3281 Q23.7344,113.125 23.875,113.0625 Q24.0156,113 24.1875,113 Q24.5156,113 24.75,113.2656 Q25,113.5156 25,113.875 Q25,114.2188 24.6563,114.625 Q24.1563,115.2188 23.3594,115.5469 Q22.3125,116 21.0313,116 Q19.5313,116 18.3281,115.4063 Q17.3594,114.9375 16.6719,113.9219 Q16,112.9063 16,111.7031 L16,110.6094 Q16,109.3594 16.5938,108.2656 Q17.2031,107.1719 18.25,106.5938 Q19.3125,106 20.5,106 Q21.2188,106 21.8438,106.25 Q22.4688,106.5 23,107 Z "/><text fill="#000000" font-family="sans-serif" font-size="12" lengthAdjust="spacingAndGlyphs" textLength="46" x="35" y="115.4102">Platform</text><line style="stroke: #A80036; stroke-width: 1.5;" x1="7" x2="83" y1="126.5" y2="126.5"/><!--MD5=[86c7c362de55a38b660185a1328fe18d]
class Organization--><rect fill="#FEFECE" filter="url(#f12uqnvprhsra6)" height="81.5078" id="Organization" style="stroke: #A80036; stroke-width: 1.5;" width="101" x="241" y="73.5"/><ellipse cx="256" cy="89.5" fill="#ADD1B2" rx="11" ry="11" style="stroke: #A80036; stroke-width: 1.0;"/><path d="M258,86 Q258.2031,85.5 258.4375,85.25 Q258.6719,85 258.9375,85 Q259.4063,85 259.7031,85.2813 Q260,85.5625 260,86.2188 L260,87.7813 Q260,88.4375 259.7188,88.7188 Q259.4375,89 259,89 Q258.6094,89 258.3594,88.8281 Q258.1094,88.6563 258,88.2031 Q257.9531,87.8906 257.7813,87.7188 Q257.4688,87.3906 256.9063,87.2031 Q256.3438,87 255.7813,87 Q255.0781,87 254.4844,87.2813 Q253.9063,87.5625 253.4531,88.1875 Q253,88.8125 253,89.6719 L253,90.5938 Q253,91.625 253.8438,92.3125 Q254.6875,93 256.1875,93 Q257.0781,93 257.7031,92.7969 Q258.0625,92.6875 258.4688,92.3281 Q258.7344,92.125 258.875,92.0625 Q259.0156,92 259.1875,92 Q259.5156,92 259.75,92.2656 Q260,92.5156 260,92.875 Q260,93.2188 259.6563,93.625 Q259.1563,94.2188 258.3594,94.5469 Q257.3125,95 256.0313,95 Q254.5313,95 253.3281,94.4063 Q252.3594,93.9375 251.6719,92.9219 Q251,91.9063 251,90.7031 L251,89.6094 Q251,88.3594 251.5938,87.2656 Q252.2031,86.1719 253.25,85.5938 Q254.3125,85 255.5,85 Q256.2188,85 256.8438,85.25 Q257.4688,85.5 258,86 Z "/><text fill="#000000" font-family="sans-serif" font-size="12" lengthAdjust="spacingAndGlyphs" textLength="69" x="270" y="94.4102">Organization</text><line style="stroke: #A80036; stroke-width: 1.5;" x1="242" x2="341" y1="105.5" y2="105.5"/><text fill="#000000" font-family="sans-serif" font-size="11" lengthAdjust="spacingAndGlyphs" textLength="61" x="247" y="120.9189">-String name</text><text fill="#000000" font-family="sans-serif" font-size="11" lengthAdjust="spacingAndGlyphs" textLength="59" x="247" y="134.7549">-String email</text><text fill="#000000" font-family="sans-serif" font-size="11" lengthAdjust="spacingAndGlyphs" textLength="47" x="247" y="148.5908">-String nif</text><!--MD5=[f483d6e5de34a60207b28a5563be5e8b]
class Collaborator--><rect fill="#FEFECE" filter="url(#f12uqnvprhsra6)" height="81.5078" id="Collaborator" style="stroke: #A80036; stroke-width: 1.5;" width="100" x="438" y="17.5"/><ellipse cx="453" cy="33.5" fill="#ADD1B2" rx="11" ry="11" style="stroke: #A80036; stroke-width: 1.0;"/><path d="M455,30 Q455.2031,29.5 455.4375,29.25 Q455.6719,29 455.9375,29 Q456.4063,29 456.7031,29.2813 Q457,29.5625 457,30.2188 L457,31.7813 Q457,32.4375 456.7188,32.7188 Q456.4375,33 456,33 Q455.6094,33 455.3594,32.8281 Q455.1094,32.6563 455,32.2031 Q454.9531,31.8906 454.7813,31.7188 Q454.4688,31.3906 453.9063,31.2031 Q453.3438,31 452.7813,31 Q452.0781,31 451.4844,31.2813 Q450.9063,31.5625 450.4531,32.1875 Q450,32.8125 450,33.6719 L450,34.5938 Q450,35.625 450.8438,36.3125 Q451.6875,37 453.1875,37 Q454.0781,37 454.7031,36.7969 Q455.0625,36.6875 455.4688,36.3281 Q455.7344,36.125 455.875,36.0625 Q456.0156,36 456.1875,36 Q456.5156,36 456.75,36.2656 Q457,36.5156 457,36.875 Q457,37.2188 456.6563,37.625 Q456.1563,38.2188 455.3594,38.5469 Q454.3125,39 453.0313,39 Q451.5313,39 450.3281,38.4063 Q449.3594,37.9375 448.6719,36.9219 Q448,35.9063 448,34.7031 L448,33.6094 Q448,32.3594 448.5938,31.2656 Q449.2031,30.1719 450.25,29.5938 Q451.3125,29 452.5,29 Q453.2188,29 453.8438,29.25 Q454.4688,29.5 455,30 Z "/><text fill="#000000" font-family="sans-serif" font-size="12" lengthAdjust="spacingAndGlyphs" textLength="68" x="467" y="38.4102">Collaborator</text><line style="stroke: #A80036; stroke-width: 1.5;" x1="439" x2="537" y1="49.5" y2="49.5"/><text fill="#000000" font-family="sans-serif" font-size="11" lengthAdjust="spacingAndGlyphs" textLength="68" x="444" y="64.9189">-String nameC</text><text fill="#000000" font-family="sans-serif" font-size="11" lengthAdjust="spacingAndGlyphs" textLength="66" x="444" y="78.7549">-String emailC</text><text fill="#000000" font-family="sans-serif" font-size="11" lengthAdjust="spacingAndGlyphs" textLength="53" x="444" y="92.5908">-String role</text><!--MD5=[b34797a66dc35cbf1d65f7e3ca75530e]
class Task--><rect fill="#FEFECE" filter="url(#f12uqnvprhsra6)" height="136.8516" id="Task" style="stroke: #A80036; stroke-width: 1.5;" width="111" x="656" y="84"/><ellipse cx="694.4" cy="100" fill="#ADD1B2" rx="11" ry="11" style="stroke: #A80036; stroke-width: 1.0;"/><path d="M696.4,96.5 Q696.6031,96 696.8375,95.75 Q697.0719,95.5 697.3375,95.5 Q697.8063,95.5 698.1031,95.7813 Q698.4,96.0625 698.4,96.7188 L698.4,98.2813 Q698.4,98.9375 698.1188,99.2188 Q697.8375,99.5 697.4,99.5 Q697.0094,99.5 696.7594,99.3281 Q696.5094,99.1563 696.4,98.7031 Q696.3531,98.3906 696.1813,98.2188 Q695.8688,97.8906 695.3063,97.7031 Q694.7438,97.5 694.1813,97.5 Q693.4781,97.5 692.8844,97.7813 Q692.3063,98.0625 691.8531,98.6875 Q691.4,99.3125 691.4,100.1719 L691.4,101.0938 Q691.4,102.125 692.2438,102.8125 Q693.0875,103.5 694.5875,103.5 Q695.4781,103.5 696.1031,103.2969 Q696.4625,103.1875 696.8688,102.8281 Q697.1344,102.625 697.275,102.5625 Q697.4156,102.5 697.5875,102.5 Q697.9156,102.5 698.15,102.7656 Q698.4,103.0156 698.4,103.375 Q698.4,103.7188 698.0563,104.125 Q697.5563,104.7188 696.7594,105.0469 Q695.7125,105.5 694.4313,105.5 Q692.9313,105.5 691.7281,104.9063 Q690.7594,104.4375 690.0719,103.4219 Q689.4,102.4063 689.4,101.2031 L689.4,100.1094 Q689.4,98.8594 689.9938,97.7656 Q690.6031,96.6719 691.65,96.0938 Q692.7125,95.5 693.9,95.5 Q694.6188,95.5 695.2438,95.75 Q695.8688,96 696.4,96.5 Z "/><text fill="#000000" font-family="sans-serif" font-size="12" lengthAdjust="spacingAndGlyphs" textLength="27" x="713.6" y="104.9102">Task</text><line style="stroke: #A80036; stroke-width: 1.5;" x1="657" x2="766" y1="116" y2="116"/><text fill="#000000" font-family="sans-serif" font-size="11" lengthAdjust="spacingAndGlyphs" textLength="66" x="662" y="131.4189">-String idTask</text><text fill="#000000" font-family="sans-serif" font-size="11" lengthAdjust="spacingAndGlyphs" textLength="88" x="662" y="145.2549">-String description</text><text fill="#000000" font-family="sans-serif" font-size="11" lengthAdjust="spacingAndGlyphs" textLength="60" x="662" y="159.0908">-int timeTask</text><text fill="#000000" font-family="sans-serif" font-size="11" lengthAdjust="spacingAndGlyphs" textLength="83" x="662" y="172.9268">-double costHour</text><text fill="#000000" font-family="sans-serif" font-size="11" lengthAdjust="spacingAndGlyphs" textLength="99" x="662" y="186.7627">-String taskCategory</text><text fill="#000000" font-family="sans-serif" font-size="11" lengthAdjust="spacingAndGlyphs" textLength="83" x="662" y="200.5986">-boolean isPayed</text><text fill="#000000" font-family="sans-serif" font-size="11" lengthAdjust="spacingAndGlyphs" textLength="93" x="662" y="214.4346">-boolean isFinished</text><!--MD5=[3fd616f346a44cd59a91eb10b19e157c]
class User--><rect fill="#FEFECE" filter="url(#f12uqnvprhsra6)" height="40" id="User" style="stroke: #A80036; stroke-width: 1.5;" width="59" x="682" y="8.5"/><ellipse cx="697" cy="24.5" fill="#ADD1B2" rx="11" ry="11" style="stroke: #A80036; stroke-width: 1.0;"/><path d="M699,21 Q699.2031,20.5 699.4375,20.25 Q699.6719,20 699.9375,20 Q700.4063,20 700.7031,20.2813 Q701,20.5625 701,21.2188 L701,22.7813 Q701,23.4375 700.7188,23.7188 Q700.4375,24 700,24 Q699.6094,24 699.3594,23.8281 Q699.1094,23.6563 699,23.2031 Q698.9531,22.8906 698.7813,22.7188 Q698.4688,22.3906 697.9063,22.2031 Q697.3438,22 696.7813,22 Q696.0781,22 695.4844,22.2813 Q694.9063,22.5625 694.4531,23.1875 Q694,23.8125 694,24.6719 L694,25.5938 Q694,26.625 694.8438,27.3125 Q695.6875,28 697.1875,28 Q698.0781,28 698.7031,27.7969 Q699.0625,27.6875 699.4688,27.3281 Q699.7344,27.125 699.875,27.0625 Q700.0156,27 700.1875,27 Q700.5156,27 700.75,27.2656 Q701,27.5156 701,27.875 Q701,28.2188 700.6563,28.625 Q700.1563,29.2188 699.3594,29.5469 Q698.3125,30 697.0313,30 Q695.5313,30 694.3281,29.4063 Q693.3594,28.9375 692.6719,27.9219 Q692,26.9063 692,25.7031 L692,24.6094 Q692,23.3594 692.5938,22.2656 Q693.2031,21.1719 694.25,20.5938 Q695.3125,20 696.5,20 Q697.2188,20 697.8438,20.25 Q698.4688,20.5 699,21 Z "/><text fill="#000000" font-family="sans-serif" font-size="12" lengthAdjust="spacingAndGlyphs" textLength="27" x="711" y="29.4102">User</text><line style="stroke: #A80036; stroke-width: 1.5;" x1="683" x2="740" y1="40.5" y2="40.5"/><!--MD5=[7640e466c042ba2d6f9c19c816f7f0fc]
link Platform to Organization--><path d="M84.2031,114.5 C126.376,114.5 194.412,114.5 240.727,114.5 " fill="none" id="Platform-Organization" style="stroke: #A80036; stroke-width: 1.0;"/><text fill="#000000" font-family="sans-serif" font-size="13" lengthAdjust="spacingAndGlyphs" textLength="82" x="115" y="110.9951">has registered</text><polygon fill="#000000" points="200,104.1758,206,107.1758,200,110.1758,200,104.1758" style="stroke: #000000; stroke-width: 1.0;"/><text fill="#000000" font-family="sans-serif" font-size="13" lengthAdjust="spacingAndGlyphs" textLength="7" x="92.0765" y="129.5025">1</text><text fill="#000000" font-family="sans-serif" font-size="13" lengthAdjust="spacingAndGlyphs" textLength="20" x="212.9405" y="129.0742">1..*</text><!--MD5=[45817597bcd7048073a670d966abfd17]
link Organization to Collaborator--><path d="M342.084,100.224 C371.459,91.766 408.544,81.089 437.844,72.653 " fill="none" id="Organization-Collaborator" style="stroke: #A80036; stroke-width: 1.0;"/><text fill="#000000" font-family="sans-serif" font-size="13" lengthAdjust="spacingAndGlyphs" textLength="21" x="373" y="76.9951">has</text><polygon fill="#000000" points="397,70.1758,403,73.1758,397,76.1758,397,70.1758" style="stroke: #000000; stroke-width: 1.0;"/><text fill="#000000" font-family="sans-serif" font-size="13" lengthAdjust="spacingAndGlyphs" textLength="7" x="350.0276" y="112.8593">1</text><text fill="#000000" font-family="sans-serif" font-size="13" lengthAdjust="spacingAndGlyphs" textLength="7" x="422.9633" y="89.4638">1</text><!--MD5=[4078351e3988aa35b1504a42837f2ab1]
link Organization to Task--><path d="M342.208,122.6926 C370.265,127.0605 406.012,132.1993 438,135.5 C513.323,143.2723 600.752,147.9643 655.848,150.3938 " fill="none" id="Organization-Task" style="stroke: #A80036; stroke-width: 1.0;"/><text fill="#000000" font-family="sans-serif" font-size="13" lengthAdjust="spacingAndGlyphs" textLength="21" x="471" y="131.9951">has</text><polygon fill="#000000" points="495,125.1758,501,128.1758,495,131.1758,495,125.1758" style="stroke: #000000; stroke-width: 1.0;"/><text fill="#000000" font-family="sans-serif" font-size="13" lengthAdjust="spacingAndGlyphs" textLength="7" x="349.831" y="138.5241">1</text><text fill="#000000" font-family="sans-serif" font-size="13" lengthAdjust="spacingAndGlyphs" textLength="20" x="627.8467" y="164.6377">1..*</text><!--MD5=[f919d21ae7a75ef5ececc535e09d5009]
link Collaborator to Task--><path d="M538.158,79.362 C572.953,94.128 619.64,113.941 655.645,129.2207 " fill="none" id="Collaborator-Task" style="stroke: #A80036; stroke-width: 1.0;"/><text fill="#000000" font-family="sans-serif" font-size="13" lengthAdjust="spacingAndGlyphs" textLength="43" x="569" y="89.9951">creates</text><polygon fill="#000000" points="615,83.1758,621,86.1758,615,89.1758,615,83.1758" style="stroke: #000000; stroke-width: 1.0;"/><text fill="#000000" font-family="sans-serif" font-size="13" lengthAdjust="spacingAndGlyphs" textLength="7" x="546.039" y="97.1582">1</text><text fill="#000000" font-family="sans-serif" font-size="13" lengthAdjust="spacingAndGlyphs" textLength="20" x="628.0305" y="140.9781">1..*</text><!--MD5=[04ce0ecdab38a3951889ff50c232570f]
link Collaborator to User--><path d="M538.158,51.842 C582.257,45.869 645.458,37.309 681.805,32.386 " fill="none" id="Collaborator-User" style="stroke: #A80036; stroke-width: 1.0;"/><text fill="#000000" font-family="sans-serif" font-size="13" lengthAdjust="spacingAndGlyphs" textLength="43" x="569" y="36.9951">acts as</text><polygon fill="#000000" points="615,30.1758,621,33.1758,615,36.1758,615,30.1758" style="stroke: #000000; stroke-width: 1.0;"/><text fill="#000000" font-family="sans-serif" font-size="13" lengthAdjust="spacingAndGlyphs" textLength="7" x="546.039" y="65.5962">1</text><text fill="#000000" font-family="sans-serif" font-size="13" lengthAdjust="spacingAndGlyphs" textLength="7" x="667.1287" y="48.6704">1</text><!--MD5=[3be496514d62e38e24e93df6e97444a6]
@startuml
skinparam classAttributeIconSize 0
hide methods
left to right direction

class Platform{
}


class Organization {
  -String name
  -String email
  -String nif
}

class Collaborator{
  -String nameC
  -String emailC
  -String role
}

class Task {
  -String idTask
  -String description
  -int timeTask
  -double costHour
  -String taskCategory
  -boolean isPayed
  -boolean isFinished
}



class User {
}



Platform "1" - - "1..*" Organization: has registered >


Organization "1" - - "1" Collaborator: has >
Organization "1" - - "1..*" Task: has >



Collaborator "1" - - "1..*" Task: creates >

Collaborator "1" - - "1" User: acts as >










@enduml

PlantUML version 1.2020.09(Sun May 10 11:51:06 BST 2020)
(GPL source distribution)
Java Runtime: OpenJDK Runtime Environment
JVM: OpenJDK 64-Bit Server VM
Java Version: 11.0.6+8-b765.40
Operating System: Windows 10
Default Encoding: Cp1252
Language: pt
Country: PT
--></g></svg>