<?xml version="1.0" encoding="UTF-8" standalone="no"?><svg xmlns="http://www.w3.org/2000/svg" xmlns:xlink="http://www.w3.org/1999/xlink" contentScriptType="application/ecmascript" contentStyleType="text/css" height="1492.4px" preserveAspectRatio="none" style="width:961px;height:1492px;" version="1.1" viewBox="0 0 961 1492" width="961.8px" zoomAndPan="magnify"><defs><filter height="300%" id="f1e7ted2unzqty" width="300%" x="-1" y="-1"><feGaussianBlur result="blurOut" stdDeviation="2.8"/><feColorMatrix in="blurOut" result="blurOut2" type="matrix" values="0 0 0 0 0 0 0 0 0 0 0 0 0 0 0 0 0 0 .4 0"/><feOffset dx="5.6" dy="5.6" in="blurOut2" result="blurOut3"/><feBlend in="SourceGraphic" in2="blurOut3" mode="normal"/></filter></defs><g><!--MD5=[80081f69e18b184ad4139bbdb7157636]
class POTAplication--><rect fill="#FEFECE" filter="url(#f1e7ted2unzqty)" height="105.9406" id="POTAplication" style="stroke: #A80036; stroke-width: 2.0999999999999996;" width="155.4" x="8.4" y="355.6"/><ellipse cx="30.66" cy="378" fill="#ADD1B2" rx="15.4" ry="15.4" style="stroke: #A80036; stroke-width: 1.4;"/><path d="M33.46,373.1 Q33.7444,372.4 34.0725,372.05 Q34.4006,371.7 34.7725,371.7 Q35.4287,371.7 35.8444,372.0938 Q36.26,372.4875 36.26,373.4063 L36.26,375.5938 Q36.26,376.5125 35.8662,376.9063 Q35.4725,377.3 34.86,377.3 Q34.3131,377.3 33.9631,377.0594 Q33.6131,376.8187 33.46,376.1844 Q33.3944,375.7469 33.1537,375.5062 Q32.7162,375.0469 31.9287,374.7844 Q31.1412,374.5 30.3537,374.5 Q29.3694,374.5 28.5381,374.8937 Q27.7287,375.2875 27.0944,376.1625 Q26.46,377.0375 26.46,378.2406 L26.46,379.5313 Q26.46,380.975 27.6412,381.9375 Q28.8225,382.9 30.9225,382.9 Q32.1694,382.9 33.0444,382.6156 Q33.5475,382.4625 34.1162,381.9594 Q34.4881,381.675 34.685,381.5875 Q34.8819,381.5 35.1225,381.5 Q35.5819,381.5 35.91,381.8719 Q36.26,382.2219 36.26,382.725 Q36.26,383.2062 35.7787,383.775 Q35.0787,384.6063 33.9631,385.0656 Q32.4975,385.7 30.7037,385.7 Q28.6037,385.7 26.9194,384.8688 Q25.5631,384.2125 24.6006,382.7906 Q23.66,381.3688 23.66,379.6844 L23.66,378.1531 Q23.66,376.4031 24.4912,374.8719 Q25.3444,373.3406 26.81,372.5313 Q28.2975,371.7 29.96,371.7 Q30.9662,371.7 31.8412,372.05 Q32.7162,372.4 33.46,373.1 Z "/><text fill="#000000" font-family="sans-serif" font-size="16.8" lengthAdjust="spacingAndGlyphs" textLength="107.8" x="50.54" y="384.8742">POTAplication</text><line style="stroke: #A80036; stroke-width: 2.0999999999999996;" x1="9.8" x2="162.4" y1="400.4" y2="400.4"/><line style="stroke: #A80036; stroke-width: 2.0999999999999996;" x1="9.8" x2="162.4" y1="411.6" y2="411.6"/><text fill="#000000" font-family="sans-serif" font-size="15.4" lengthAdjust="spacingAndGlyphs" textLength="138.6" x="16.8" y="433.1865">+static getInstance()</text><text fill="#000000" font-family="sans-serif" font-size="15.4" lengthAdjust="spacingAndGlyphs" textLength="77" x="16.8" y="452.5568">+getLogin()</text><!--MD5=[5b90e4d4f77308a929aa4d17d3ae3119]
class Login--><rect fill="#FEFECE" filter="url(#f1e7ted2unzqty)" height="86.5703" id="Login" style="stroke: #A80036; stroke-width: 2.0999999999999996;" width="123.2" x="213.5" y="365.4"/><ellipse cx="250.25" cy="387.8" fill="#ADD1B2" rx="15.4" ry="15.4" style="stroke: #A80036; stroke-width: 1.4;"/><path d="M253.05,382.9 Q253.3344,382.2 253.6625,381.85 Q253.9906,381.5 254.3625,381.5 Q255.0187,381.5 255.4344,381.8937 Q255.85,382.2875 255.85,383.2062 L255.85,385.3937 Q255.85,386.3125 255.4562,386.7062 Q255.0625,387.1 254.45,387.1 Q253.9031,387.1 253.5531,386.8594 Q253.2031,386.6188 253.05,385.9844 Q252.9844,385.5469 252.7437,385.3063 Q252.3062,384.8469 251.5187,384.5844 Q250.7313,384.3 249.9438,384.3 Q248.9594,384.3 248.1281,384.6937 Q247.3188,385.0875 246.6844,385.9625 Q246.05,386.8375 246.05,388.0406 L246.05,389.3312 Q246.05,390.775 247.2313,391.7375 Q248.4125,392.7 250.5125,392.7 Q251.7594,392.7 252.6344,392.4156 Q253.1375,392.2625 253.7062,391.7594 Q254.0781,391.475 254.275,391.3875 Q254.4719,391.3 254.7125,391.3 Q255.1719,391.3 255.5,391.6719 Q255.85,392.0219 255.85,392.525 Q255.85,393.0062 255.3687,393.575 Q254.6688,394.4063 253.5531,394.8656 Q252.0875,395.5 250.2938,395.5 Q248.1938,395.5 246.5094,394.6688 Q245.1531,394.0125 244.1906,392.5906 Q243.25,391.1688 243.25,389.4844 L243.25,387.9531 Q243.25,386.2031 244.0812,384.6719 Q244.9344,383.1406 246.4,382.3312 Q247.8875,381.5 249.55,381.5 Q250.5562,381.5 251.4312,381.85 Q252.3062,382.2 253.05,382.9 Z "/><text fill="#000000" font-family="sans-serif" font-size="16.8" lengthAdjust="spacingAndGlyphs" textLength="43.4" x="273.35" y="394.6742">Login</text><line style="stroke: #A80036; stroke-width: 2.0999999999999996;" x1="214.9" x2="335.3" y1="410.2" y2="410.2"/><line style="stroke: #A80036; stroke-width: 2.0999999999999996;" x1="214.9" x2="335.3" y1="421.4" y2="421.4"/><text fill="#000000" font-family="sans-serif" font-size="15.4" lengthAdjust="spacingAndGlyphs" textLength="106.4" x="221.9" y="442.9865">+getUserEmail()</text><!--MD5=[b34797a66dc35cbf1d65f7e3ca75530e]
class Task--><rect fill="#FEFECE" filter="url(#f1e7ted2unzqty)" height="183.4219" id="Task" style="stroke: #A80036; stroke-width: 2.0999999999999996;" width="429.8" x="292.6" y="1293.6"/><ellipse cx="482.65" cy="1316" fill="#ADD1B2" rx="15.4" ry="15.4" style="stroke: #A80036; stroke-width: 1.4;"/><path d="M485.45,1311.1 Q485.7344,1310.4 486.0625,1310.05 Q486.3906,1309.7 486.7625,1309.7 Q487.4188,1309.7 487.8344,1310.0938 Q488.25,1310.4875 488.25,1311.4063 L488.25,1313.5938 Q488.25,1314.5125 487.8563,1314.9063 Q487.4625,1315.3 486.85,1315.3 Q486.3031,1315.3 485.9531,1315.0594 Q485.6031,1314.8188 485.45,1314.1844 Q485.3844,1313.7469 485.1437,1313.5063 Q484.7062,1313.0469 483.9188,1312.7844 Q483.1312,1312.5 482.3437,1312.5 Q481.3594,1312.5 480.5281,1312.8938 Q479.7187,1313.2875 479.0844,1314.1625 Q478.45,1315.0375 478.45,1316.2406 L478.45,1317.5313 Q478.45,1318.975 479.6312,1319.9375 Q480.8125,1320.9 482.9125,1320.9 Q484.1594,1320.9 485.0344,1320.6156 Q485.5375,1320.4625 486.1063,1319.9594 Q486.4781,1319.675 486.675,1319.5875 Q486.8719,1319.5 487.1125,1319.5 Q487.5719,1319.5 487.9,1319.8719 Q488.25,1320.2219 488.25,1320.725 Q488.25,1321.2063 487.7687,1321.775 Q487.0687,1322.6062 485.9531,1323.0656 Q484.4875,1323.7 482.6937,1323.7 Q480.5937,1323.7 478.9094,1322.8687 Q477.5531,1322.2125 476.5906,1320.7906 Q475.65,1319.3687 475.65,1317.6844 L475.65,1316.1531 Q475.65,1314.4031 476.4813,1312.8719 Q477.3344,1311.3406 478.8,1310.5313 Q480.2875,1309.7 481.95,1309.7 Q482.9562,1309.7 483.8312,1310.05 Q484.7062,1310.4 485.45,1311.1 Z "/><text fill="#000000" font-family="sans-serif" font-size="16.8" lengthAdjust="spacingAndGlyphs" textLength="37.8" x="511.35" y="1322.8742">Task</text><line style="stroke: #A80036; stroke-width: 2.0999999999999996;" x1="294" x2="721" y1="1338.4" y2="1338.4"/><text fill="#000000" font-family="sans-serif" font-size="15.4" lengthAdjust="spacingAndGlyphs" textLength="68.6" x="301" y="1359.9865">-String idT</text><text fill="#000000" font-family="sans-serif" font-size="15.4" lengthAdjust="spacingAndGlyphs" textLength="123.2" x="301" y="1379.3568">-String description</text><text fill="#000000" font-family="sans-serif" font-size="15.4" lengthAdjust="spacingAndGlyphs" textLength="123.2" x="301" y="1398.7271">-Time timeDuration</text><text fill="#000000" font-family="sans-serif" font-size="15.4" lengthAdjust="spacingAndGlyphs" textLength="116.2" x="301" y="1418.0975">-double costHour</text><text fill="#000000" font-family="sans-serif" font-size="15.4" lengthAdjust="spacingAndGlyphs" textLength="138.6" x="301" y="1437.4678">-String taskCategory</text><line style="stroke: #A80036; stroke-width: 2.0999999999999996;" x1="294" x2="721" y1="1446.4516" y2="1446.4516"/><text fill="#000000" font-family="sans-serif" font-size="15.4" lengthAdjust="spacingAndGlyphs" textLength="413" x="301" y="1468.0381">+Task(idT, description, timeDuration, costHour, taskCategory)</text><!--MD5=[86c7c362de55a38b660185a1328fe18d]
class Organization--><rect fill="#FEFECE" filter="url(#f1e7ted2unzqty)" height="164.0516" id="Organization" style="stroke: #A80036; stroke-width: 2.0999999999999996;" width="225.4" x="603.4" y="767.2"/><ellipse cx="662.2" cy="789.6" fill="#ADD1B2" rx="15.4" ry="15.4" style="stroke: #A80036; stroke-width: 1.4;"/><path d="M665,784.7 Q665.2844,784 665.6125,783.65 Q665.9406,783.3 666.3125,783.3 Q666.9688,783.3 667.3844,783.6937 Q667.8,784.0875 667.8,785.0062 L667.8,787.1937 Q667.8,788.1125 667.4063,788.5062 Q667.0125,788.9 666.4,788.9 Q665.8531,788.9 665.5031,788.6594 Q665.1531,788.4187 665,787.7844 Q664.9344,787.3469 664.6937,787.1062 Q664.2562,786.6469 663.4688,786.3844 Q662.6813,786.1 661.8938,786.1 Q660.9094,786.1 660.0781,786.4938 Q659.2688,786.8875 658.6344,787.7625 Q658,788.6375 658,789.8406 L658,791.1312 Q658,792.575 659.1813,793.5375 Q660.3625,794.5 662.4625,794.5 Q663.7094,794.5 664.5844,794.2156 Q665.0875,794.0625 665.6563,793.5594 Q666.0281,793.275 666.225,793.1875 Q666.4219,793.1 666.6625,793.1 Q667.1219,793.1 667.45,793.4719 Q667.8,793.8219 667.8,794.325 Q667.8,794.8063 667.3187,795.375 Q666.6188,796.2063 665.5031,796.6656 Q664.0375,797.3 662.2438,797.3 Q660.1438,797.3 658.4594,796.4688 Q657.1031,795.8125 656.1406,794.3906 Q655.2,792.9688 655.2,791.2844 L655.2,789.7531 Q655.2,788.0031 656.0313,786.4719 Q656.8844,784.9406 658.35,784.1312 Q659.8375,783.3 661.5,783.3 Q662.5062,783.3 663.3812,783.65 Q664.2562,784 665,784.7 Z "/><text fill="#000000" font-family="sans-serif" font-size="16.8" lengthAdjust="spacingAndGlyphs" textLength="96.6" x="690.2" y="796.4742">Organization</text><line style="stroke: #A80036; stroke-width: 2.0999999999999996;" x1="604.8" x2="827.4" y1="812" y2="812"/><text fill="#000000" font-family="sans-serif" font-size="15.4" lengthAdjust="spacingAndGlyphs" textLength="85.4" x="611.8" y="833.5865">-String name</text><text fill="#000000" font-family="sans-serif" font-size="15.4" lengthAdjust="spacingAndGlyphs" textLength="82.6" x="611.8" y="852.9568">-String email</text><text fill="#000000" font-family="sans-serif" font-size="15.4" lengthAdjust="spacingAndGlyphs" textLength="65.8" x="611.8" y="872.3271">-String nif</text><line style="stroke: #A80036; stroke-width: 2.0999999999999996;" x1="604.8" x2="827.4" y1="881.3109" y2="881.3109"/><text fill="#000000" font-family="sans-serif" font-size="15.4" lengthAdjust="spacingAndGlyphs" textLength="208.6" x="611.8" y="902.8975">+Organization(name, email, nif)</text><text fill="#000000" font-family="sans-serif" font-size="15.4" lengthAdjust="spacingAndGlyphs" textLength="156.8" x="611.8" y="922.2678">+TaskList getTaskList()</text><!--MD5=[cf2635f8a68afd84898027166f4516bc]
class TaskList--><rect fill="#FEFECE" filter="url(#f1e7ted2unzqty)" height="144.6812" id="TaskList" style="stroke: #A80036; stroke-width: 2.0999999999999996;" width="460.6" x="485.8" y="1040.2"/><ellipse cx="677.25" cy="1062.6" fill="#ADD1B2" rx="15.4" ry="15.4" style="stroke: #A80036; stroke-width: 1.4;"/><path d="M680.05,1057.7 Q680.3344,1057 680.6625,1056.65 Q680.9906,1056.3 681.3625,1056.3 Q682.0188,1056.3 682.4344,1056.6938 Q682.85,1057.0875 682.85,1058.0063 L682.85,1060.1938 Q682.85,1061.1125 682.4563,1061.5063 Q682.0625,1061.9 681.45,1061.9 Q680.9031,1061.9 680.5531,1061.6594 Q680.2031,1061.4188 680.05,1060.7844 Q679.9844,1060.3469 679.7438,1060.1063 Q679.3063,1059.6469 678.5188,1059.3844 Q677.7312,1059.1 676.9437,1059.1 Q675.9594,1059.1 675.1281,1059.4937 Q674.3187,1059.8875 673.6844,1060.7625 Q673.05,1061.6375 673.05,1062.8406 L673.05,1064.1313 Q673.05,1065.575 674.2312,1066.5375 Q675.4125,1067.5 677.5125,1067.5 Q678.7594,1067.5 679.6344,1067.2156 Q680.1375,1067.0625 680.7063,1066.5594 Q681.0781,1066.275 681.275,1066.1875 Q681.4719,1066.1 681.7125,1066.1 Q682.1719,1066.1 682.5,1066.4719 Q682.85,1066.8219 682.85,1067.325 Q682.85,1067.8062 682.3688,1068.375 Q681.6687,1069.2063 680.5531,1069.6656 Q679.0875,1070.3 677.2937,1070.3 Q675.1937,1070.3 673.5094,1069.4688 Q672.1531,1068.8125 671.1906,1067.3906 Q670.25,1065.9688 670.25,1064.2844 L670.25,1062.7531 Q670.25,1061.0031 671.0813,1059.4719 Q671.9344,1057.9406 673.4,1057.1313 Q674.8875,1056.3 676.55,1056.3 Q677.5563,1056.3 678.4313,1056.65 Q679.3063,1057 680.05,1057.7 Z "/><text fill="#000000" font-family="sans-serif" font-size="16.8" lengthAdjust="spacingAndGlyphs" textLength="65.8" x="705.95" y="1069.4742">TaskList</text><line style="stroke: #A80036; stroke-width: 2.0999999999999996;" x1="487.2" x2="945" y1="1085" y2="1085"/><line style="stroke: #A80036; stroke-width: 2.0999999999999996;" x1="487.2" x2="945" y1="1096.2" y2="1096.2"/><text fill="#000000" font-family="sans-serif" font-size="15.4" lengthAdjust="spacingAndGlyphs" textLength="443.8" x="494.2" y="1117.7865">+newTask(idT, description, timeDuration, costHour, taskCategory)</text><text fill="#000000" font-family="sans-serif" font-size="15.4" lengthAdjust="spacingAndGlyphs" textLength="140" x="494.2" y="1137.1568">+registersTask(task)</text><text fill="#000000" font-family="sans-serif" font-size="15.4" lengthAdjust="spacingAndGlyphs" textLength="102.2" x="494.2" y="1156.5271">-addTask(task)</text><text fill="#000000" font-family="sans-serif" font-size="15.4" lengthAdjust="spacingAndGlyphs" textLength="137.2" x="494.2" y="1175.8975">-validatesTask(task)</text><!--MD5=[03dcba4cf8fb1a884adf843655d65df1]
class Plataform--><rect fill="#FEFECE" filter="url(#f1e7ted2unzqty)" height="86.5703" id="Plataform" style="stroke: #A80036; stroke-width: 2.0999999999999996;" width="344.4" x="584.5" y="365.4"/><ellipse cx="713.65" cy="387.8" fill="#ADD1B2" rx="15.4" ry="15.4" style="stroke: #A80036; stroke-width: 1.4;"/><path d="M716.45,382.9 Q716.7344,382.2 717.0625,381.85 Q717.3906,381.5 717.7625,381.5 Q718.4187,381.5 718.8344,381.8937 Q719.25,382.2875 719.25,383.2062 L719.25,385.3937 Q719.25,386.3125 718.8562,386.7062 Q718.4625,387.1 717.85,387.1 Q717.3031,387.1 716.9531,386.8594 Q716.6031,386.6188 716.45,385.9844 Q716.3844,385.5469 716.1438,385.3063 Q715.7063,384.8469 714.9187,384.5844 Q714.1312,384.3 713.3438,384.3 Q712.3594,384.3 711.5281,384.6937 Q710.7188,385.0875 710.0844,385.9625 Q709.45,386.8375 709.45,388.0406 L709.45,389.3312 Q709.45,390.775 710.6312,391.7375 Q711.8125,392.7 713.9125,392.7 Q715.1594,392.7 716.0344,392.4156 Q716.5375,392.2625 717.1062,391.7594 Q717.4781,391.475 717.675,391.3875 Q717.8719,391.3 718.1125,391.3 Q718.5719,391.3 718.9,391.6719 Q719.25,392.0219 719.25,392.525 Q719.25,393.0062 718.7688,393.575 Q718.0687,394.4063 716.9531,394.8656 Q715.4875,395.5 713.6937,395.5 Q711.5938,395.5 709.9094,394.6688 Q708.5531,394.0125 707.5906,392.5906 Q706.65,391.1688 706.65,389.4844 L706.65,387.9531 Q706.65,386.2031 707.4812,384.6719 Q708.3344,383.1406 709.8,382.3312 Q711.2875,381.5 712.95,381.5 Q713.9563,381.5 714.8313,381.85 Q715.7063,382.2 716.45,382.9 Z "/><text fill="#000000" font-family="sans-serif" font-size="16.8" lengthAdjust="spacingAndGlyphs" textLength="74.2" x="742.35" y="394.6742">Plataform</text><line style="stroke: #A80036; stroke-width: 2.0999999999999996;" x1="585.9" x2="927.5" y1="410.2" y2="410.2"/><line style="stroke: #A80036; stroke-width: 2.0999999999999996;" x1="585.9" x2="927.5" y1="421.4" y2="421.4"/><text fill="#000000" font-family="sans-serif" font-size="15.4" lengthAdjust="spacingAndGlyphs" textLength="327.6" x="592.9" y="442.9865">+OrganizationRegister getOrganizationRegister()</text><!--MD5=[3c7078c4e591ec9aa01f69813acd29ab]
class OrganizationRegister--><rect fill="#FEFECE" filter="url(#f1e7ted2unzqty)" height="86.5703" id="OrganizationRegister" style="stroke: #A80036; stroke-width: 2.0999999999999996;" width="260.4" x="601.3" y="571.2"/><ellipse cx="646.24" cy="593.6" fill="#ADD1B2" rx="15.4" ry="15.4" style="stroke: #A80036; stroke-width: 1.4;"/><path d="M649.04,588.7 Q649.3244,588 649.6525,587.65 Q649.9806,587.3 650.3525,587.3 Q651.0088,587.3 651.4244,587.6937 Q651.84,588.0875 651.84,589.0062 L651.84,591.1937 Q651.84,592.1125 651.4463,592.5062 Q651.0525,592.9 650.44,592.9 Q649.8931,592.9 649.5431,592.6594 Q649.1931,592.4187 649.04,591.7844 Q648.9744,591.3469 648.7338,591.1062 Q648.2963,590.6469 647.5088,590.3844 Q646.7212,590.1 645.9338,590.1 Q644.9494,590.1 644.1181,590.4938 Q643.3088,590.8875 642.6744,591.7625 Q642.04,592.6375 642.04,593.8406 L642.04,595.1312 Q642.04,596.575 643.2212,597.5375 Q644.4025,598.5 646.5025,598.5 Q647.7494,598.5 648.6244,598.2156 Q649.1275,598.0625 649.6963,597.5594 Q650.0681,597.275 650.265,597.1875 Q650.4619,597.1 650.7025,597.1 Q651.1619,597.1 651.49,597.4719 Q651.84,597.8219 651.84,598.325 Q651.84,598.8063 651.3588,599.375 Q650.6587,600.2063 649.5431,600.6656 Q648.0775,601.3 646.2837,601.3 Q644.1838,601.3 642.4994,600.4688 Q641.1431,599.8125 640.1806,598.3906 Q639.24,596.9688 639.24,595.2844 L639.24,593.7531 Q639.24,592.0031 640.0713,590.4719 Q640.9244,588.9406 642.39,588.1312 Q643.8775,587.3 645.54,587.3 Q646.5463,587.3 647.4213,587.65 Q648.2963,588 649.04,588.7 Z "/><text fill="#000000" font-family="sans-serif" font-size="16.8" lengthAdjust="spacingAndGlyphs" textLength="162.4" x="671.16" y="600.4742">OrganizationRegister</text><line style="stroke: #A80036; stroke-width: 2.0999999999999996;" x1="602.7" x2="860.3" y1="616" y2="616"/><line style="stroke: #A80036; stroke-width: 2.0999999999999996;" x1="602.7" x2="860.3" y1="627.2" y2="627.2"/><text fill="#000000" font-family="sans-serif" font-size="15.4" lengthAdjust="spacingAndGlyphs" textLength="243.6" x="609.7" y="648.7865">+getOrganizationByUserEmail(email)</text><!--MD5=[51de5e7b448e98e1f71289edad994864]
class CreateTaskController--><rect fill="#FEFECE" filter="url(#f1e7ted2unzqty)" height="105.9406" id="CreateTaskController" style="stroke: #A80036; stroke-width: 2.0999999999999996;" width="460.6" x="180.6" y="163.8"/><ellipse cx="322.35" cy="186.2" fill="#ADD1B2" rx="15.4" ry="15.4" style="stroke: #A80036; stroke-width: 1.4;"/><path d="M325.15,181.3 Q325.4344,180.6 325.7625,180.25 Q326.0906,179.9 326.4625,179.9 Q327.1188,179.9 327.5344,180.2938 Q327.95,180.6875 327.95,181.6063 L327.95,183.7938 Q327.95,184.7125 327.5563,185.1063 Q327.1625,185.5 326.55,185.5 Q326.0031,185.5 325.6531,185.2594 Q325.3031,185.0187 325.15,184.3844 Q325.0844,183.9469 324.8438,183.7062 Q324.4063,183.2469 323.6188,182.9844 Q322.8312,182.7 322.0438,182.7 Q321.0594,182.7 320.2281,183.0938 Q319.4188,183.4875 318.7844,184.3625 Q318.15,185.2375 318.15,186.4406 L318.15,187.7313 Q318.15,189.175 319.3312,190.1375 Q320.5125,191.1 322.6125,191.1 Q323.8594,191.1 324.7344,190.8156 Q325.2375,190.6625 325.8063,190.1594 Q326.1781,189.875 326.375,189.7875 Q326.5719,189.7 326.8125,189.7 Q327.2719,189.7 327.6,190.0719 Q327.95,190.4219 327.95,190.925 Q327.95,191.4063 327.4688,191.975 Q326.7687,192.8062 325.6531,193.2656 Q324.1875,193.9 322.3937,193.9 Q320.2938,193.9 318.6094,193.0688 Q317.2531,192.4125 316.2906,190.9906 Q315.35,189.5688 315.35,187.8844 L315.35,186.3531 Q315.35,184.6031 316.1813,183.0719 Q317.0344,181.5406 318.5,180.7313 Q319.9875,179.9 321.65,179.9 Q322.6563,179.9 323.5313,180.25 Q324.4063,180.6 325.15,181.3 Z "/><text fill="#000000" font-family="sans-serif" font-size="16.8" lengthAdjust="spacingAndGlyphs" textLength="165.2" x="351.05" y="193.0742">CreateTaskController</text><line style="stroke: #A80036; stroke-width: 2.0999999999999996;" x1="182" x2="639.8" y1="208.6" y2="208.6"/><line style="stroke: #A80036; stroke-width: 2.0999999999999996;" x1="182" x2="639.8" y1="219.8" y2="219.8"/><text fill="#000000" font-family="sans-serif" font-size="15.4" lengthAdjust="spacingAndGlyphs" textLength="443.8" x="189" y="241.3865">+newTask(idT, description, timeDuration, costHour, taskCategory)</text><text fill="#000000" font-family="sans-serif" font-size="15.4" lengthAdjust="spacingAndGlyphs" textLength="112" x="189" y="260.7568">+registersTask()</text><!--MD5=[788566af22260aef45bcb38e0a2dd266]
class CreateTaskUI--><rect fill="#FEFECE" filter="url(#f1e7ted2unzqty)" height="67.2" id="CreateTaskUI" style="stroke: #A80036; stroke-width: 2.0999999999999996;" width="151.2" x="335.3" y="11.2"/><ellipse cx="356.3" cy="33.6" fill="#ADD1B2" rx="15.4" ry="15.4" style="stroke: #A80036; stroke-width: 1.4;"/><path d="M359.1,28.7 Q359.3844,28 359.7125,27.65 Q360.0406,27.3 360.4125,27.3 Q361.0687,27.3 361.4844,27.6937 Q361.9,28.0875 361.9,29.0062 L361.9,31.1937 Q361.9,32.1125 361.5062,32.5063 Q361.1125,32.9 360.5,32.9 Q359.9531,32.9 359.6031,32.6594 Q359.2531,32.4187 359.1,31.7844 Q359.0344,31.3469 358.7938,31.1063 Q358.3563,30.6469 357.5687,30.3844 Q356.7813,30.1 355.9938,30.1 Q355.0094,30.1 354.1781,30.4938 Q353.3688,30.8875 352.7344,31.7625 Q352.1,32.6375 352.1,33.8406 L352.1,35.1312 Q352.1,36.575 353.2813,37.5375 Q354.4625,38.5 356.5625,38.5 Q357.8094,38.5 358.6844,38.2156 Q359.1875,38.0625 359.7562,37.5594 Q360.1281,37.275 360.325,37.1875 Q360.5219,37.1 360.7625,37.1 Q361.2219,37.1 361.55,37.4719 Q361.9,37.8219 361.9,38.325 Q361.9,38.8063 361.4188,39.375 Q360.7188,40.2063 359.6031,40.6656 Q358.1375,41.3 356.3438,41.3 Q354.2438,41.3 352.5594,40.4688 Q351.2031,39.8125 350.2406,38.3906 Q349.3,36.9688 349.3,35.2844 L349.3,33.7531 Q349.3,32.0031 350.1312,30.4719 Q350.9844,28.9406 352.45,28.1312 Q353.9375,27.3 355.6,27.3 Q356.6063,27.3 357.4813,27.65 Q358.3563,28 359.1,28.7 Z "/><text fill="#000000" font-family="sans-serif" font-size="16.8" lengthAdjust="spacingAndGlyphs" textLength="106.4" x="375.9" y="40.4742">CreateTaskUI</text><line style="stroke: #A80036; stroke-width: 2.0999999999999996;" x1="336.7" x2="485.1" y1="56" y2="56"/><line style="stroke: #A80036; stroke-width: 2.0999999999999996;" x1="336.7" x2="485.1" y1="67.2" y2="67.2"/><!--MD5=[3c2021faa4730756a46abeb810188647]
link CreateTaskUI to CreateTaskController--><path d="M410.9,78.4616 C410.9,100.3982 410.9,130.0712 410.9,156.205 " fill="none" id="CreateTaskUI-&gt;CreateTaskController" style="stroke: #A80036; stroke-width: 1.4; stroke-dasharray: 7.0,7.0;"/><polygon fill="#A80036" points="410.9,163.4738,416.5,150.8738,410.9,156.4738,405.3,150.8738,410.9,163.4738" style="stroke: #A80036; stroke-width: 1.4;"/><!--MD5=[e1c1891d5e147cfa84afbc52fe6afcbe]
link CreateTaskController to Plataform--><path d="M505.8494,270.2952 C558.0876,298.8468 622.3336,333.9602 672.7294,361.5052 " fill="none" id="CreateTaskController-&gt;Plataform" style="stroke: #A80036; stroke-width: 1.4; stroke-dasharray: 7.0,7.0;"/><polygon fill="#A80036" points="679.4312,365.1676,671.062,354.2096,673.2892,361.8096,665.6892,364.0368,679.4312,365.1676" style="stroke: #A80036; stroke-width: 1.4;"/><!--MD5=[20b3b25e5af19bf6c808e25d197bf54a]
link CreateTaskController to Task--><path d="M410.9,270.5444 C410.9,308.4984 410.9,361.1342 410.9,407.4 C410.9,407.4 410.9,407.4 410.9,1113.7 C410.9,1173.5346 432.1632,1236.6998 454.7382,1286.901 " fill="none" id="CreateTaskController-&gt;Task" style="stroke: #A80036; stroke-width: 1.4; stroke-dasharray: 7.0,7.0;"/><polygon fill="#A80036" points="457.7846,1293.5832,457.6518,1279.7954,454.8801,1287.2142,447.4614,1284.4426,457.7846,1293.5832" style="stroke: #A80036; stroke-width: 1.4;"/><!--MD5=[7aee0bd92f6f97dbf4948ad9a4aaba5c]
link CreateTaskController to Organization--><path d="M431.242,270.4464 C436.5088,284.0236 442.1466,298.648 447.3,312.2 C505.5904,465.4958 498.0248,513.7734 576.1,658 C595.3612,693.581 620.6214,729.967 644.3752,761.2318 " fill="none" id="CreateTaskController-&gt;Organization" style="stroke: #A80036; stroke-width: 1.4; stroke-dasharray: 7.0,7.0;"/><polygon fill="#A80036" points="648.7908,767.0096,645.5903,753.5978,644.5407,761.4475,636.691,760.3979,648.7908,767.0096" style="stroke: #A80036; stroke-width: 1.4;"/><!--MD5=[8a8a29b559f65861b85db9f3dbeac4b2]
link CreateTaskController to POTAplication--><path d="M321.7172,270.2952 C274.4476,297.801 216.713,331.3968 170.2246,358.449 " fill="none" id="CreateTaskController-&gt;POTAplication" style="stroke: #A80036; stroke-width: 1.4; stroke-dasharray: 7.0,7.0;"/><polygon fill="#A80036" points="164.0324,362.0512,177.739,360.5517,170.082,358.5295,172.1042,350.8724,164.0324,362.0512" style="stroke: #A80036; stroke-width: 1.4;"/><!--MD5=[bba9734104188d04365d706193ef9e06]
link CreateTaskController to Login--><path d="M373.4332,270.5458 C353.5798,298.1748 329.3514,331.8966 309.911,358.9516 " fill="none" id="CreateTaskController-&gt;Login" style="stroke: #A80036; stroke-width: 1.4; stroke-dasharray: 7.0,7.0;"/><polygon fill="#A80036" points="305.5864,364.9702,317.4864,358.0053,309.6709,359.2854,308.3908,351.47,305.5864,364.9702" style="stroke: #A80036; stroke-width: 1.4;"/><!--MD5=[aa3198ff1d40924e5aefbf70f45d1458]
link Plataform to OrganizationRegister--><path d="M751.478,452.2616 C747.4404,484.7878 741.8418,529.8874 737.5984,564.0712 " fill="none" id="Plataform-&gt;OrganizationRegister" style="stroke: #A80036; stroke-width: 1.4;"/><polygon fill="#A80036" points="736.715,571.1916,743.8237,559.3769,737.5768,564.2449,732.7089,557.998,736.715,571.1916" style="stroke: #A80036; stroke-width: 1.4;"/><text fill="#000000" font-family="sans-serif" font-size="18.2" lengthAdjust="spacingAndGlyphs" textLength="29.4" x="746.9" y="524.2932">has</text><text fill="#000000" font-family="sans-serif" font-size="18.2" lengthAdjust="spacingAndGlyphs" textLength="9.8" x="739.6852" y="481.9873">1</text><text fill="#000000" font-family="sans-serif" font-size="18.2" lengthAdjust="spacingAndGlyphs" textLength="9.8" x="726.9839" y="555.8181">1</text><!--MD5=[61c512daf028c4abaff9775e1f675fa3]
link OrganizationRegister to Organization--><path d="M728.6748,658.497 C726.7946,686.7938 724.255,725.0096 721.9492,759.6876 " fill="none" id="OrganizationRegister-&gt;Organization" style="stroke: #A80036; stroke-width: 1.4;"/><polygon fill="#A80036" points="721.462,767.0278,727.8882,754.8285,721.9279,760.0433,716.713,754.083,721.462,767.0278" style="stroke: #A80036; stroke-width: 1.4;"/><text fill="#000000" font-family="sans-serif" font-size="18.2" lengthAdjust="spacingAndGlyphs" textLength="29.4" x="727.3" y="720.2932">has</text><text fill="#000000" font-family="sans-serif" font-size="18.2" lengthAdjust="spacingAndGlyphs" textLength="9.8" x="717.4022" y="687.9618">1</text><text fill="#000000" font-family="sans-serif" font-size="18.2" lengthAdjust="spacingAndGlyphs" textLength="7" x="714.6889" y="752.1681">*</text><!--MD5=[522c679f4dd7ba84a6aa9ac03f58229d]
link Organization to TaskList--><path d="M716.1,931.1092 C716.1,963.4646 716.1,1000.6248 716.1,1032.731 " fill="none" id="Organization-&gt;TaskList" style="stroke: #A80036; stroke-width: 1.4;"/><polygon fill="#A80036" points="716.1,1039.9256,721.7,1027.3256,716.1,1032.9256,710.5,1027.3256,716.1,1039.9256" style="stroke: #A80036; stroke-width: 1.4;"/><text fill="#000000" font-family="sans-serif" font-size="18.2" lengthAdjust="spacingAndGlyphs" textLength="29.4" x="717.5" y="993.2932">has</text><text fill="#000000" font-family="sans-serif" font-size="18.2" lengthAdjust="spacingAndGlyphs" textLength="9.8" x="705.7028" y="961.3769">1</text><text fill="#000000" font-family="sans-serif" font-size="18.2" lengthAdjust="spacingAndGlyphs" textLength="9.8" x="705.6416" y="1025.1892">1</text><!--MD5=[14c738364c5fdafcb97ced6863906d7f]
link TaskList to Task--><path d="M661.2928,1184.6912 C636.9874,1216.1744 608.013,1253.7042 581.8022,1287.6556 " fill="none" id="TaskList-&gt;Task" style="stroke: #A80036; stroke-width: 1.4;"/><polygon fill="#A80036" points="577.283,1293.5104,589.4163,1286.9603,581.5613,1287.97,580.5516,1280.115,577.283,1293.5104" style="stroke: #A80036; stroke-width: 1.4;"/><text fill="#000000" font-family="sans-serif" font-size="18.2" lengthAdjust="spacingAndGlyphs" textLength="29.4" x="626.5" y="1246.6932">has</text><text fill="#000000" font-family="sans-serif" font-size="18.2" lengthAdjust="spacingAndGlyphs" textLength="9.8" x="643.4696" y="1214.8177">1</text><text fill="#000000" font-family="sans-serif" font-size="18.2" lengthAdjust="spacingAndGlyphs" textLength="7" x="577.947" y="1278.1226">*</text><!--MD5=[a5562eb41444b47c04111752a19c34b8]
@startuml
skinparam classAttributeIconSize 0

class POTAplication
{
  +static getInstance()
  +getLogin()
}

class Login
{
  +getUserEmail()
}

class Task {
    -String idT
    -String description
    -Time timeDuration
    -double costHour
    -String taskCategory
    +Task(idT, description, timeDuration, costHour, taskCategory)
}

class Organization {
  -String name
  -String email
  -String nif
  +Organization(name, email, nif)
  +TaskList getTaskList()
}

class TaskList {
  +newTask(idT, description, timeDuration, costHour, taskCategory)
  +registersTask(task)
  -addTask(task)
  -validatesTask(task)
}

class Plataform {
  +OrganizationRegister getOrganizationRegister()
}

class OrganizationRegister {
  +getOrganizationByUserEmail(email)
}

class CreateTaskController {
  +newTask(idT, description, timeDuration, costHour, taskCategory)
  +registersTask()
}

class CreateTaskUI {

}

CreateTaskUI ..> CreateTaskController
CreateTaskController ..> Plataform
CreateTaskController ..> Task
CreateTaskController ..> Organization
CreateTaskController ..> POTAplication
CreateTaskController ..> Login
Plataform "1" - -> "1" OrganizationRegister : has
OrganizationRegister "1" - -> "*" Organization : has
Organization "1" - -> "1" TaskList : has
TaskList "1" - -> "*" Task : has


@enduml

PlantUML version 1.2020.09(Sun May 10 11:51:06 BST 2020)
(GPL source distribution)
Java Runtime: OpenJDK Runtime Environment
JVM: OpenJDK 64-Bit Server VM
Java Version: 11.0.6+8-b765.40
Operating System: Windows 10
Default Encoding: Cp1252
Language: pt
Country: PT
--></g></svg>