<?xml version="1.0" encoding="UTF-8" standalone="no"?><svg xmlns="http://www.w3.org/2000/svg" xmlns:xlink="http://www.w3.org/1999/xlink" contentScriptType="application/ecmascript" contentStyleType="text/css" height="852.8px" preserveAspectRatio="none" style="width:554px;height:852px;" version="1.1" viewBox="0 0 554 852" width="554.4px" zoomAndPan="magnify"><defs><filter height="300%" id="fdmhn35hnt92e" width="300%" x="-1" y="-1"><feGaussianBlur result="blurOut" stdDeviation="1.6"/><feColorMatrix in="blurOut" result="blurOut2" type="matrix" values="0 0 0 0 0 0 0 0 0 0 0 0 0 0 0 0 0 0 .4 0"/><feOffset dx="3.2" dy="3.2" in="blurOut2" result="blurOut3"/><feBlend in="SourceGraphic" in2="blurOut3" mode="normal"/></filter></defs><g><!--MD5=[e45a4727c47b726c25e081782e8bc183]
class ApplicationPOT--><rect fill="#FEFECE" filter="url(#fdmhn35hnt92e)" height="60.5375" id="ApplicationPOT" style="stroke: #A80036; stroke-width: 1.2000000000000002;" width="92.8" x="4.8" y="203.2"/><ellipse cx="16.8" cy="216" fill="#ADD1B2" rx="8.8" ry="8.8" style="stroke: #A80036; stroke-width: 0.8;"/><path d="M18.4,213.2 Q18.5625,212.8 18.75,212.6 Q18.9375,212.4 19.15,212.4 Q19.525,212.4 19.7625,212.625 Q20,212.85 20,213.375 L20,214.625 Q20,215.15 19.775,215.375 Q19.55,215.6 19.2,215.6 Q18.8875,215.6 18.6875,215.4625 Q18.4875,215.325 18.4,214.9625 Q18.3625,214.7125 18.225,214.575 Q17.975,214.3125 17.525,214.1625 Q17.075,214 16.625,214 Q16.0625,214 15.5875,214.225 Q15.125,214.45 14.7625,214.95 Q14.4,215.45 14.4,216.1375 L14.4,216.875 Q14.4,217.7 15.075,218.25 Q15.75,218.8 16.95,218.8 Q17.6625,218.8 18.1625,218.6375 Q18.45,218.55 18.775,218.2625 Q18.9875,218.1 19.1,218.05 Q19.2125,218 19.35,218 Q19.6125,218 19.8,218.2125 Q20,218.4125 20,218.7 Q20,218.975 19.725,219.3 Q19.325,219.775 18.6875,220.0375 Q17.85,220.4 16.825,220.4 Q15.625,220.4 14.6625,219.925 Q13.8875,219.55 13.3375,218.7375 Q12.8,217.925 12.8,216.9625 L12.8,216.0875 Q12.8,215.0875 13.275,214.2125 Q13.7625,213.3375 14.6,212.875 Q15.45,212.4 16.4,212.4 Q16.975,212.4 17.475,212.6 Q17.975,212.8 18.4,213.2 Z "/><text fill="#000000" font-family="sans-serif" font-size="9.6" lengthAdjust="spacingAndGlyphs" textLength="67.2" x="28" y="219.9281">ApplicationPOT</text><line style="stroke: #A80036; stroke-width: 1.2000000000000002;" x1="5.6" x2="96.8" y1="228.8" y2="228.8"/><line style="stroke: #A80036; stroke-width: 1.2000000000000002;" x1="5.6" x2="96.8" y1="235.2" y2="235.2"/><text fill="#000000" font-family="sans-serif" font-size="8.8" lengthAdjust="spacingAndGlyphs" textLength="79.2" x="9.6" y="247.5352">+static getInstance()</text><text fill="#000000" font-family="sans-serif" font-size="8.8" lengthAdjust="spacingAndGlyphs" textLength="44" x="9.6" y="258.6039">+getLogin()</text><!--MD5=[f8bd6c2ec23e906322bbeaf68b53bb4f]
class UserLogin--><rect fill="#FEFECE" filter="url(#fdmhn35hnt92e)" height="49.4688" id="UserLogin" style="stroke: #A80036; stroke-width: 1.2000000000000002;" width="72" x="125.6" y="208.8"/><ellipse cx="137.6" cy="221.6" fill="#ADD1B2" rx="8.8" ry="8.8" style="stroke: #A80036; stroke-width: 0.8;"/><path d="M139.2,218.8 Q139.3625,218.4 139.55,218.2 Q139.7375,218 139.95,218 Q140.325,218 140.5625,218.225 Q140.8,218.45 140.8,218.975 L140.8,220.225 Q140.8,220.75 140.575,220.975 Q140.35,221.2 140,221.2 Q139.6875,221.2 139.4875,221.0625 Q139.2875,220.925 139.2,220.5625 Q139.1625,220.3125 139.025,220.175 Q138.775,219.9125 138.325,219.7625 Q137.875,219.6 137.425,219.6 Q136.8625,219.6 136.3875,219.825 Q135.925,220.05 135.5625,220.55 Q135.2,221.05 135.2,221.7375 L135.2,222.475 Q135.2,223.3 135.875,223.85 Q136.55,224.4 137.75,224.4 Q138.4625,224.4 138.9625,224.2375 Q139.25,224.15 139.575,223.8625 Q139.7875,223.7 139.9,223.65 Q140.0125,223.6 140.15,223.6 Q140.4125,223.6 140.6,223.8125 Q140.8,224.0125 140.8,224.3 Q140.8,224.575 140.525,224.9 Q140.125,225.375 139.4875,225.6375 Q138.65,226 137.625,226 Q136.425,226 135.4625,225.525 Q134.6875,225.15 134.1375,224.3375 Q133.6,223.525 133.6,222.5625 L133.6,221.6875 Q133.6,220.6875 134.075,219.8125 Q134.5625,218.9375 135.4,218.475 Q136.25,218 137.2,218 Q137.775,218 138.275,218.2 Q138.775,218.4 139.2,218.8 Z "/><text fill="#000000" font-family="sans-serif" font-size="9.6" lengthAdjust="spacingAndGlyphs" textLength="46.4" x="148.8" y="225.5281">UserLogin</text><line style="stroke: #A80036; stroke-width: 1.2000000000000002;" x1="126.4" x2="196.8" y1="234.4" y2="234.4"/><line style="stroke: #A80036; stroke-width: 1.2000000000000002;" x1="126.4" x2="196.8" y1="240.8" y2="240.8"/><text fill="#000000" font-family="sans-serif" font-size="8.8" lengthAdjust="spacingAndGlyphs" textLength="60.8" x="130.4" y="253.1352">+getUserEmail()</text><!--MD5=[b34797a66dc35cbf1d65f7e3ca75530e]
class Task--><rect fill="#FEFECE" filter="url(#fdmhn35hnt92e)" height="104.8125" id="Task" style="stroke: #A80036; stroke-width: 1.2000000000000002;" width="245.6" x="172.4" y="739.2"/><ellipse cx="281" cy="752" fill="#ADD1B2" rx="8.8" ry="8.8" style="stroke: #A80036; stroke-width: 0.8;"/><path d="M282.6,749.2 Q282.7625,748.8 282.95,748.6 Q283.1375,748.4 283.35,748.4 Q283.725,748.4 283.9625,748.625 Q284.2,748.85 284.2,749.375 L284.2,750.625 Q284.2,751.15 283.975,751.375 Q283.75,751.6 283.4,751.6 Q283.0875,751.6 282.8875,751.4625 Q282.6875,751.325 282.6,750.9625 Q282.5625,750.7125 282.425,750.575 Q282.175,750.3125 281.725,750.1625 Q281.275,750 280.825,750 Q280.2625,750 279.7875,750.225 Q279.325,750.45 278.9625,750.95 Q278.6,751.45 278.6,752.1375 L278.6,752.875 Q278.6,753.7 279.275,754.25 Q279.95,754.8 281.15,754.8 Q281.8625,754.8 282.3625,754.6375 Q282.65,754.55 282.975,754.2625 Q283.1875,754.1 283.3,754.05 Q283.4125,754 283.55,754 Q283.8125,754 284,754.2125 Q284.2,754.4125 284.2,754.7 Q284.2,754.975 283.925,755.3 Q283.525,755.775 282.8875,756.0375 Q282.05,756.4 281.025,756.4 Q279.825,756.4 278.8625,755.925 Q278.0875,755.55 277.5375,754.7375 Q277,753.925 277,752.9625 L277,752.0875 Q277,751.0875 277.475,750.2125 Q277.9625,749.3375 278.8,748.875 Q279.65,748.4 280.6,748.4 Q281.175,748.4 281.675,748.6 Q282.175,748.8 282.6,749.2 Z "/><text fill="#000000" font-family="sans-serif" font-size="9.6" lengthAdjust="spacingAndGlyphs" textLength="21.6" x="297.4" y="755.9281">Task</text><line style="stroke: #A80036; stroke-width: 1.2000000000000002;" x1="173.2" x2="417.2" y1="764.8" y2="764.8"/><text fill="#000000" font-family="sans-serif" font-size="8.8" lengthAdjust="spacingAndGlyphs" textLength="39.2" x="177.2" y="777.1352">-String idT</text><text fill="#000000" font-family="sans-serif" font-size="8.8" lengthAdjust="spacingAndGlyphs" textLength="70.4" x="177.2" y="788.2039">-String description</text><text fill="#000000" font-family="sans-serif" font-size="8.8" lengthAdjust="spacingAndGlyphs" textLength="70.4" x="177.2" y="799.2727">-Time timeDuration</text><text fill="#000000" font-family="sans-serif" font-size="8.8" lengthAdjust="spacingAndGlyphs" textLength="66.4" x="177.2" y="810.3414">-double costHour</text><text fill="#000000" font-family="sans-serif" font-size="8.8" lengthAdjust="spacingAndGlyphs" textLength="79.2" x="177.2" y="821.4102">-String taskCategory</text><line style="stroke: #A80036; stroke-width: 1.2000000000000002;" x1="173.2" x2="417.2" y1="826.5438" y2="826.5438"/><text fill="#000000" font-family="sans-serif" font-size="8.8" lengthAdjust="spacingAndGlyphs" textLength="236" x="177.2" y="838.8789">+Task(idT, description, timeDuration, costHour, taskCategory)</text><!--MD5=[86c7c362de55a38b660185a1328fe18d]
class Organization--><rect fill="#FEFECE" filter="url(#fdmhn35hnt92e)" height="93.7438" id="Organization" style="stroke: #A80036; stroke-width: 1.2000000000000002;" width="128.8" x="350" y="438.4"/><ellipse cx="383.6" cy="451.2" fill="#ADD1B2" rx="8.8" ry="8.8" style="stroke: #A80036; stroke-width: 0.8;"/><path d="M385.2,448.4 Q385.3625,448 385.55,447.8 Q385.7375,447.6 385.95,447.6 Q386.325,447.6 386.5625,447.825 Q386.8,448.05 386.8,448.575 L386.8,449.825 Q386.8,450.35 386.575,450.575 Q386.35,450.8 386,450.8 Q385.6875,450.8 385.4875,450.6625 Q385.2875,450.525 385.2,450.1625 Q385.1625,449.9125 385.025,449.775 Q384.775,449.5125 384.325,449.3625 Q383.875,449.2 383.425,449.2 Q382.8625,449.2 382.3875,449.425 Q381.925,449.65 381.5625,450.15 Q381.2,450.65 381.2,451.3375 L381.2,452.075 Q381.2,452.9 381.875,453.45 Q382.55,454 383.75,454 Q384.4625,454 384.9625,453.8375 Q385.25,453.75 385.575,453.4625 Q385.7875,453.3 385.9,453.25 Q386.0125,453.2 386.15,453.2 Q386.4125,453.2 386.6,453.4125 Q386.8,453.6125 386.8,453.9 Q386.8,454.175 386.525,454.5 Q386.125,454.975 385.4875,455.2375 Q384.65,455.6 383.625,455.6 Q382.425,455.6 381.4625,455.125 Q380.6875,454.75 380.1375,453.9375 Q379.6,453.125 379.6,452.1625 L379.6,451.2875 Q379.6,450.2875 380.075,449.4125 Q380.5625,448.5375 381.4,448.075 Q382.25,447.6 383.2,447.6 Q383.775,447.6 384.275,447.8 Q384.775,448 385.2,448.4 Z "/><text fill="#000000" font-family="sans-serif" font-size="9.6" lengthAdjust="spacingAndGlyphs" textLength="55.2" x="399.6" y="455.1281">Organization</text><line style="stroke: #A80036; stroke-width: 1.2000000000000002;" x1="350.8" x2="478" y1="464" y2="464"/><text fill="#000000" font-family="sans-serif" font-size="8.8" lengthAdjust="spacingAndGlyphs" textLength="48.8" x="354.8" y="476.3352">-String name</text><text fill="#000000" font-family="sans-serif" font-size="8.8" lengthAdjust="spacingAndGlyphs" textLength="47.2" x="354.8" y="487.4039">-String email</text><text fill="#000000" font-family="sans-serif" font-size="8.8" lengthAdjust="spacingAndGlyphs" textLength="37.6" x="354.8" y="498.4727">-String nif</text><line style="stroke: #A80036; stroke-width: 1.2000000000000002;" x1="350.8" x2="478" y1="503.6063" y2="503.6063"/><text fill="#000000" font-family="sans-serif" font-size="8.8" lengthAdjust="spacingAndGlyphs" textLength="119.2" x="354.8" y="515.9414">+Organization(name, email, nif)</text><text fill="#000000" font-family="sans-serif" font-size="8.8" lengthAdjust="spacingAndGlyphs" textLength="89.6" x="354.8" y="527.0102">+TaskList getTaskList()</text><!--MD5=[cf2635f8a68afd84898027166f4516bc]
class TaskList--><rect fill="#FEFECE" filter="url(#fdmhn35hnt92e)" height="82.675" id="TaskList" style="stroke: #A80036; stroke-width: 1.2000000000000002;" width="263.2" x="282.8" y="594.4"/><ellipse cx="392.2" cy="607.2" fill="#ADD1B2" rx="8.8" ry="8.8" style="stroke: #A80036; stroke-width: 0.8;"/><path d="M393.8,604.4 Q393.9625,604 394.15,603.8 Q394.3375,603.6 394.55,603.6 Q394.925,603.6 395.1625,603.825 Q395.4,604.05 395.4,604.575 L395.4,605.825 Q395.4,606.35 395.175,606.575 Q394.95,606.8 394.6,606.8 Q394.2875,606.8 394.0875,606.6625 Q393.8875,606.525 393.8,606.1625 Q393.7625,605.9125 393.625,605.775 Q393.375,605.5125 392.925,605.3625 Q392.475,605.2 392.025,605.2 Q391.4625,605.2 390.9875,605.425 Q390.525,605.65 390.1625,606.15 Q389.8,606.65 389.8,607.3375 L389.8,608.075 Q389.8,608.9 390.475,609.45 Q391.15,610 392.35,610 Q393.0625,610 393.5625,609.8375 Q393.85,609.75 394.175,609.4625 Q394.3875,609.3 394.5,609.25 Q394.6125,609.2 394.75,609.2 Q395.0125,609.2 395.2,609.4125 Q395.4,609.6125 395.4,609.9 Q395.4,610.175 395.125,610.5 Q394.725,610.975 394.0875,611.2375 Q393.25,611.6 392.225,611.6 Q391.025,611.6 390.0625,611.125 Q389.2875,610.75 388.7375,609.9375 Q388.2,609.125 388.2,608.1625 L388.2,607.2875 Q388.2,606.2875 388.675,605.4125 Q389.1625,604.5375 390,604.075 Q390.85,603.6 391.8,603.6 Q392.375,603.6 392.875,603.8 Q393.375,604 393.8,604.4 Z "/><text fill="#000000" font-family="sans-serif" font-size="9.6" lengthAdjust="spacingAndGlyphs" textLength="37.6" x="408.6" y="611.1281">TaskList</text><line style="stroke: #A80036; stroke-width: 1.2000000000000002;" x1="283.6" x2="545.2" y1="620" y2="620"/><line style="stroke: #A80036; stroke-width: 1.2000000000000002;" x1="283.6" x2="545.2" y1="626.4" y2="626.4"/><text fill="#000000" font-family="sans-serif" font-size="8.8" lengthAdjust="spacingAndGlyphs" textLength="253.6" x="287.6" y="638.7352">+newTask(idT, description, timeDuration, costHour, taskCategory)</text><text fill="#000000" font-family="sans-serif" font-size="8.8" lengthAdjust="spacingAndGlyphs" textLength="80" x="287.6" y="649.8039">+registersTask(task)</text><text fill="#000000" font-family="sans-serif" font-size="8.8" lengthAdjust="spacingAndGlyphs" textLength="58.4" x="287.6" y="660.8727">-addTask(task)</text><text fill="#000000" font-family="sans-serif" font-size="8.8" lengthAdjust="spacingAndGlyphs" textLength="78.4" x="287.6" y="671.9414">-validatesTask(task)</text><!--MD5=[03dcba4cf8fb1a884adf843655d65df1]
class Plataform--><rect fill="#FEFECE" filter="url(#fdmhn35hnt92e)" height="49.4688" id="Plataform" style="stroke: #A80036; stroke-width: 1.2000000000000002;" width="196.8" x="339.2" y="208.8"/><ellipse cx="413" cy="221.6" fill="#ADD1B2" rx="8.8" ry="8.8" style="stroke: #A80036; stroke-width: 0.8;"/><path d="M414.6,218.8 Q414.7625,218.4 414.95,218.2 Q415.1375,218 415.35,218 Q415.725,218 415.9625,218.225 Q416.2,218.45 416.2,218.975 L416.2,220.225 Q416.2,220.75 415.975,220.975 Q415.75,221.2 415.4,221.2 Q415.0875,221.2 414.8875,221.0625 Q414.6875,220.925 414.6,220.5625 Q414.5625,220.3125 414.425,220.175 Q414.175,219.9125 413.725,219.7625 Q413.275,219.6 412.825,219.6 Q412.2625,219.6 411.7875,219.825 Q411.325,220.05 410.9625,220.55 Q410.6,221.05 410.6,221.7375 L410.6,222.475 Q410.6,223.3 411.275,223.85 Q411.95,224.4 413.15,224.4 Q413.8625,224.4 414.3625,224.2375 Q414.65,224.15 414.975,223.8625 Q415.1875,223.7 415.3,223.65 Q415.4125,223.6 415.55,223.6 Q415.8125,223.6 416,223.8125 Q416.2,224.0125 416.2,224.3 Q416.2,224.575 415.925,224.9 Q415.525,225.375 414.8875,225.6375 Q414.05,226 413.025,226 Q411.825,226 410.8625,225.525 Q410.0875,225.15 409.5375,224.3375 Q409,223.525 409,222.5625 L409,221.6875 Q409,220.6875 409.475,219.8125 Q409.9625,218.9375 410.8,218.475 Q411.65,218 412.6,218 Q413.175,218 413.675,218.2 Q414.175,218.4 414.6,218.8 Z "/><text fill="#000000" font-family="sans-serif" font-size="9.6" lengthAdjust="spacingAndGlyphs" textLength="42.4" x="429.4" y="225.5281">Plataform</text><line style="stroke: #A80036; stroke-width: 1.2000000000000002;" x1="340" x2="535.2" y1="234.4" y2="234.4"/><line style="stroke: #A80036; stroke-width: 1.2000000000000002;" x1="340" x2="535.2" y1="240.8" y2="240.8"/><text fill="#000000" font-family="sans-serif" font-size="8.8" lengthAdjust="spacingAndGlyphs" textLength="187.2" x="344" y="253.1352">+OrganizationRegister getOrganizationRegister()</text><!--MD5=[3c7078c4e591ec9aa01f69813acd29ab]
class OrganizationRegister--><rect fill="#FEFECE" filter="url(#fdmhn35hnt92e)" height="49.4688" id="OrganizationRegister" style="stroke: #A80036; stroke-width: 1.2000000000000002;" width="148.8" x="348.8" y="326.4"/><ellipse cx="374.48" cy="339.2" fill="#ADD1B2" rx="8.8" ry="8.8" style="stroke: #A80036; stroke-width: 0.8;"/><path d="M376.08,336.4 Q376.2425,336 376.43,335.8 Q376.6175,335.6 376.83,335.6 Q377.205,335.6 377.4425,335.825 Q377.68,336.05 377.68,336.575 L377.68,337.825 Q377.68,338.35 377.455,338.575 Q377.23,338.8 376.88,338.8 Q376.5675,338.8 376.3675,338.6625 Q376.1675,338.525 376.08,338.1625 Q376.0425,337.9125 375.905,337.775 Q375.655,337.5125 375.205,337.3625 Q374.755,337.2 374.305,337.2 Q373.7425,337.2 373.2675,337.425 Q372.805,337.65 372.4425,338.15 Q372.08,338.65 372.08,339.3375 L372.08,340.075 Q372.08,340.9 372.755,341.45 Q373.43,342 374.63,342 Q375.3425,342 375.8425,341.8375 Q376.13,341.75 376.455,341.4625 Q376.6675,341.3 376.78,341.25 Q376.8925,341.2 377.03,341.2 Q377.2925,341.2 377.48,341.4125 Q377.68,341.6125 377.68,341.9 Q377.68,342.175 377.405,342.5 Q377.005,342.975 376.3675,343.2375 Q375.53,343.6 374.505,343.6 Q373.305,343.6 372.3425,343.125 Q371.5675,342.75 371.0175,341.9375 Q370.48,341.125 370.48,340.1625 L370.48,339.2875 Q370.48,338.2875 370.955,337.4125 Q371.4425,336.5375 372.28,336.075 Q373.13,335.6 374.08,335.6 Q374.655,335.6 375.155,335.8 Q375.655,336 376.08,336.4 Z "/><text fill="#000000" font-family="sans-serif" font-size="9.6" lengthAdjust="spacingAndGlyphs" textLength="92.8" x="388.72" y="343.1281">OrganizationRegister</text><line style="stroke: #A80036; stroke-width: 1.2000000000000002;" x1="349.6" x2="496.8" y1="352" y2="352"/><line style="stroke: #A80036; stroke-width: 1.2000000000000002;" x1="349.6" x2="496.8" y1="358.4" y2="358.4"/><text fill="#000000" font-family="sans-serif" font-size="8.8" lengthAdjust="spacingAndGlyphs" textLength="139.2" x="353.6" y="370.7352">+getOrganizationByUserEmail(email)</text><!--MD5=[51de5e7b448e98e1f71289edad994864]
class CreateTaskController--><rect fill="#FEFECE" filter="url(#fdmhn35hnt92e)" height="60.5375" id="CreateTaskController" style="stroke: #A80036; stroke-width: 1.2000000000000002;" width="263.2" x="108.4" y="93.6"/><ellipse cx="189.4" cy="106.4" fill="#ADD1B2" rx="8.8" ry="8.8" style="stroke: #A80036; stroke-width: 0.8;"/><path d="M191,103.6 Q191.1625,103.2 191.35,103 Q191.5375,102.8 191.75,102.8 Q192.125,102.8 192.3625,103.025 Q192.6,103.25 192.6,103.775 L192.6,105.025 Q192.6,105.55 192.375,105.775 Q192.15,106 191.8,106 Q191.4875,106 191.2875,105.8625 Q191.0875,105.725 191,105.3625 Q190.9625,105.1125 190.825,104.975 Q190.575,104.7125 190.125,104.5625 Q189.675,104.4 189.225,104.4 Q188.6625,104.4 188.1875,104.625 Q187.725,104.85 187.3625,105.35 Q187,105.85 187,106.5375 L187,107.275 Q187,108.1 187.675,108.65 Q188.35,109.2 189.55,109.2 Q190.2625,109.2 190.7625,109.0375 Q191.05,108.95 191.375,108.6625 Q191.5875,108.5 191.7,108.45 Q191.8125,108.4 191.95,108.4 Q192.2125,108.4 192.4,108.6125 Q192.6,108.8125 192.6,109.1 Q192.6,109.375 192.325,109.7 Q191.925,110.175 191.2875,110.4375 Q190.45,110.8 189.425,110.8 Q188.225,110.8 187.2625,110.325 Q186.4875,109.95 185.9375,109.1375 Q185.4,108.325 185.4,107.3625 L185.4,106.4875 Q185.4,105.4875 185.875,104.6125 Q186.3625,103.7375 187.2,103.275 Q188.05,102.8 189,102.8 Q189.575,102.8 190.075,103 Q190.575,103.2 191,103.6 Z "/><text fill="#000000" font-family="sans-serif" font-size="9.6" lengthAdjust="spacingAndGlyphs" textLength="94.4" x="205.8" y="110.3281">CreateTaskController</text><line style="stroke: #A80036; stroke-width: 1.2000000000000002;" x1="109.2" x2="370.8" y1="119.2" y2="119.2"/><line style="stroke: #A80036; stroke-width: 1.2000000000000002;" x1="109.2" x2="370.8" y1="125.6" y2="125.6"/><text fill="#000000" font-family="sans-serif" font-size="8.8" lengthAdjust="spacingAndGlyphs" textLength="253.6" x="113.2" y="137.9352">+newTask(idT, description, timeDuration, costHour, taskCategory)</text><text fill="#000000" font-family="sans-serif" font-size="8.8" lengthAdjust="spacingAndGlyphs" textLength="64" x="113.2" y="149.0039">+registersTask()</text><!--MD5=[788566af22260aef45bcb38e0a2dd266]
class CreateTaskUI--><rect fill="#FEFECE" filter="url(#fdmhn35hnt92e)" height="38.4" id="CreateTaskUI" style="stroke: #A80036; stroke-width: 1.2000000000000002;" width="86.4" x="196.8" y="6.4"/><ellipse cx="208.8" cy="19.2" fill="#ADD1B2" rx="8.8" ry="8.8" style="stroke: #A80036; stroke-width: 0.8;"/><path d="M210.4,16.4 Q210.5625,16 210.75,15.8 Q210.9375,15.6 211.15,15.6 Q211.525,15.6 211.7625,15.825 Q212,16.05 212,16.575 L212,17.825 Q212,18.35 211.775,18.575 Q211.55,18.8 211.2,18.8 Q210.8875,18.8 210.6875,18.6625 Q210.4875,18.525 210.4,18.1625 Q210.3625,17.9125 210.225,17.775 Q209.975,17.5125 209.525,17.3625 Q209.075,17.2 208.625,17.2 Q208.0625,17.2 207.5875,17.425 Q207.125,17.65 206.7625,18.15 Q206.4,18.65 206.4,19.3375 L206.4,20.075 Q206.4,20.9 207.075,21.45 Q207.75,22 208.95,22 Q209.6625,22 210.1625,21.8375 Q210.45,21.75 210.775,21.4625 Q210.9875,21.3 211.1,21.25 Q211.2125,21.2 211.35,21.2 Q211.6125,21.2 211.8,21.4125 Q212,21.6125 212,21.9 Q212,22.175 211.725,22.5 Q211.325,22.975 210.6875,23.2375 Q209.85,23.6 208.825,23.6 Q207.625,23.6 206.6625,23.125 Q205.8875,22.75 205.3375,21.9375 Q204.8,21.125 204.8,20.1625 L204.8,19.2875 Q204.8,18.2875 205.275,17.4125 Q205.7625,16.5375 206.6,16.075 Q207.45,15.6 208.4,15.6 Q208.975,15.6 209.475,15.8 Q209.975,16 210.4,16.4 Z "/><text fill="#000000" font-family="sans-serif" font-size="9.6" lengthAdjust="spacingAndGlyphs" textLength="60.8" x="220" y="23.1281">CreateTaskUI</text><line style="stroke: #A80036; stroke-width: 1.2000000000000002;" x1="197.6" x2="282.4" y1="32" y2="32"/><line style="stroke: #A80036; stroke-width: 1.2000000000000002;" x1="197.6" x2="282.4" y1="38.4" y2="38.4"/><!--MD5=[3c2021faa4730756a46abeb810188647]
link CreateTaskUI to CreateTaskController--><path d="M240,44.8352 C240,57.3704 240,74.3264 240,89.26 " fill="none" id="CreateTaskUI-&gt;CreateTaskController" style="stroke: #A80036; stroke-width: 0.8; stroke-dasharray: 7.0,7.0;"/><polygon fill="#A80036" points="240,93.4136,243.2,86.2136,240,89.4136,236.8,86.2136,240,93.4136" style="stroke: #A80036; stroke-width: 0.8;"/><!--MD5=[e1c1891d5e147cfa84afbc52fe6afcbe]
link CreateTaskController to Plataform--><path d="M294.2568,154.4544 C324.1072,170.7696 360.8192,190.8344 389.6168,206.5744 " fill="none" id="CreateTaskController-&gt;Plataform" style="stroke: #A80036; stroke-width: 0.8; stroke-dasharray: 7.0,7.0;"/><polygon fill="#A80036" points="393.4464,208.6672,388.664,202.4055,389.9367,206.7483,385.5939,208.021,393.4464,208.6672" style="stroke: #A80036; stroke-width: 0.8;"/><!--MD5=[20b3b25e5af19bf6c808e25d197bf54a]
link CreateTaskController to Task--><path d="M240,154.5968 C240,176.2848 240,206.3624 240,232.8 C240,232.8 240,232.8 240,636.4 C240,670.5912 252.1504,706.6856 265.0504,735.372 " fill="none" id="CreateTaskController-&gt;Task" style="stroke: #A80036; stroke-width: 0.8; stroke-dasharray: 7.0,7.0;"/><polygon fill="#A80036" points="266.7912,739.1904,266.7153,731.3117,265.1315,735.551,260.8922,733.9672,266.7912,739.1904" style="stroke: #A80036; stroke-width: 0.8;"/><!--MD5=[7aee0bd92f6f97dbf4948ad9a4aaba5c]
link CreateTaskController to Organization--><path d="M251.624,154.5408 C254.6336,162.2992 257.8552,170.656 260.8,178.4 C294.1088,265.9976 289.7856,293.5848 334.4,376 C345.4064,396.332 359.8408,417.124 373.4144,434.9896 " fill="none" id="CreateTaskController-&gt;Organization" style="stroke: #A80036; stroke-width: 0.8; stroke-dasharray: 7.0,7.0;"/><polygon fill="#A80036" points="375.9376,438.2912,374.1088,430.6273,373.509,435.1129,369.0234,434.5131,375.9376,438.2912" style="stroke: #A80036; stroke-width: 0.8;"/><!--MD5=[9b9d7a7f0bb222cdf729bdcb120f1330]
link CreateTaskController to ApplicationPOT--><path d="M188.16,154.4544 C161.1008,169.9328 128.1416,188.7864 101.3376,204.12 " fill="none" id="CreateTaskController-&gt;ApplicationPOT" style="stroke: #A80036; stroke-width: 0.8; stroke-dasharray: 7.0,7.0;"/><polygon fill="#A80036" points="97.7648,206.1632,105.6036,205.3674,101.2373,204.1778,102.4269,199.8115,97.7648,206.1632" style="stroke: #A80036; stroke-width: 0.8;"/><!--MD5=[b93edbfc8ab1cdc4b385138b427ad3ff]
link CreateTaskController to UserLogin--><path d="M218.3696,154.5976 C206.908,170.3856 192.92,189.6552 181.6976,205.1152 " fill="none" id="CreateTaskController-&gt;UserLogin" style="stroke: #A80036; stroke-width: 0.8; stroke-dasharray: 7.0,7.0;"/><polygon fill="#A80036" points="179.2008,208.5544,186.0212,204.6095,181.5515,205.318,180.843,200.8483,179.2008,208.5544" style="stroke: #A80036; stroke-width: 0.8;"/><!--MD5=[aa3198ff1d40924e5aefbf70f45d1458]
link Plataform to OrganizationRegister--><path d="M434.616,258.4352 C432.3088,277.0216 429.1096,302.7928 426.6848,322.3264 " fill="none" id="Plataform-&gt;OrganizationRegister" style="stroke: #A80036; stroke-width: 0.8;"/><polygon fill="#A80036" points="426.18,326.3952,430.2421,319.644,426.6725,322.4256,423.8908,318.856,426.18,326.3952" style="stroke: #A80036; stroke-width: 0.8;"/><text fill="#000000" font-family="sans-serif" font-size="10.4" lengthAdjust="spacingAndGlyphs" textLength="16.8" x="432" y="299.5961">has</text><text fill="#000000" font-family="sans-serif" font-size="10.4" lengthAdjust="spacingAndGlyphs" textLength="5.6" x="427.8773" y="275.4213">1</text><text fill="#000000" font-family="sans-serif" font-size="10.4" lengthAdjust="spacingAndGlyphs" textLength="5.6" x="420.6194" y="317.6104">1</text><!--MD5=[61c512daf028c4abaff9775e1f675fa3]
link OrganizationRegister to Organization--><path d="M421.5856,376.284 C420.5112,392.4536 419.06,414.2912 417.7424,434.1072 " fill="none" id="OrganizationRegister-&gt;Organization" style="stroke: #A80036; stroke-width: 0.8;"/><polygon fill="#A80036" points="417.464,438.3016,421.1361,431.3305,417.7302,434.3105,414.7503,430.9046,417.464,438.3016" style="stroke: #A80036; stroke-width: 0.8;"/><text fill="#000000" font-family="sans-serif" font-size="10.4" lengthAdjust="spacingAndGlyphs" textLength="16.8" x="420.8" y="411.5961">has</text><text fill="#000000" font-family="sans-serif" font-size="10.4" lengthAdjust="spacingAndGlyphs" textLength="5.6" x="415.1441" y="393.121">1</text><text fill="#000000" font-family="sans-serif" font-size="10.4" lengthAdjust="spacingAndGlyphs" textLength="4" x="413.5937" y="429.8103">*</text><!--MD5=[522c679f4dd7ba84a6aa9ac03f58229d]
link Organization to TaskList--><path d="M414.4,532.0624 C414.4,550.5512 414.4,571.7856 414.4,590.132 " fill="none" id="Organization-&gt;TaskList" style="stroke: #A80036; stroke-width: 0.8;"/><polygon fill="#A80036" points="414.4,594.2432,417.6,587.0432,414.4,590.2432,411.2,587.0432,414.4,594.2432" style="stroke: #A80036; stroke-width: 0.8;"/><text fill="#000000" font-family="sans-serif" font-size="10.4" lengthAdjust="spacingAndGlyphs" textLength="16.8" x="415.2" y="567.5961">has</text><text fill="#000000" font-family="sans-serif" font-size="10.4" lengthAdjust="spacingAndGlyphs" textLength="5.6" x="408.4588" y="549.3582">1</text><text fill="#000000" font-family="sans-serif" font-size="10.4" lengthAdjust="spacingAndGlyphs" textLength="5.6" x="408.4238" y="585.8224">1</text><!--MD5=[14c738364c5fdafcb97ced6863906d7f]
link TaskList to Task--><path d="M383.0816,676.9664 C369.1928,694.9568 352.636,716.4024 337.6584,735.8032 " fill="none" id="TaskList-&gt;Task" style="stroke: #A80036; stroke-width: 0.8;"/><polygon fill="#A80036" points="335.076,739.1488,342.0093,735.4059,337.5207,735.9829,336.9438,731.4943,335.076,739.1488" style="stroke: #A80036; stroke-width: 0.8;"/><text fill="#000000" font-family="sans-serif" font-size="10.4" lengthAdjust="spacingAndGlyphs" textLength="16.8" x="363.2" y="712.3961">has</text><text fill="#000000" font-family="sans-serif" font-size="10.4" lengthAdjust="spacingAndGlyphs" textLength="5.6" x="372.8969" y="694.1815">1</text><text fill="#000000" font-family="sans-serif" font-size="10.4" lengthAdjust="spacingAndGlyphs" textLength="4" x="335.4554" y="730.3558">*</text><!--MD5=[81395c42aff42305e080041239895a21]
@startuml
skinparam classAttributeIconSize 0

class ApplicationPOT
{
  +static getInstance()
  +getLogin()
}

class UserLogin
{
  +getUserEmail()
}

class Task {
    -String idT
    -String description
    -Time timeDuration
    -double costHour
    -String taskCategory
    +Task(idT, description, timeDuration, costHour, taskCategory)
}

class Organization {
  -String name
  -String email
  -String nif
  +Organization(name, email, nif)
  +TaskList getTaskList()
}

class TaskList {
  +newTask(idT, description, timeDuration, costHour, taskCategory)
  +registersTask(task)
  -addTask(task)
  -validatesTask(task)
}

class Plataform {
  +OrganizationRegister getOrganizationRegister()
}

class OrganizationRegister {
  +getOrganizationByUserEmail(email)
}

class CreateTaskController {
  +newTask(idT, description, timeDuration, costHour, taskCategory)
  +registersTask()
}

class CreateTaskUI {

}

CreateTaskUI ..> CreateTaskController
CreateTaskController ..> Plataform
CreateTaskController ..> Task
CreateTaskController ..> Organization
CreateTaskController ..> ApplicationPOT
CreateTaskController ..> UserLogin
Plataform "1" - -> "1" OrganizationRegister : has
OrganizationRegister "1" - -> "*" Organization : has
Organization "1" - -> "1" TaskList : has
TaskList "1" - -> "*" Task : has


@enduml

PlantUML version 1.2020.09(Sun May 10 11:51:06 BST 2020)
(GPL source distribution)
Java Runtime: OpenJDK Runtime Environment
JVM: OpenJDK 64-Bit Server VM
Java Version: 11.0.6+8-b765.40
Operating System: Windows 10
Default Encoding: Cp1252
Language: pt
Country: PT
--></g></svg>