<?xml version="1.0" encoding="UTF-8" standalone="no"?><svg xmlns="http://www.w3.org/2000/svg" xmlns:xlink="http://www.w3.org/1999/xlink" contentScriptType="application/ecmascript" contentStyleType="text/css" height="185px" preserveAspectRatio="none" style="width:820px;height:185px;" version="1.1" viewBox="0 0 820 185" width="820px" zoomAndPan="magnify"><defs><filter height="300%" id="fj9pxy71uwrwe" width="300%" x="-1" y="-1"><feGaussianBlur result="blurOut" stdDeviation="2.0"/><feColorMatrix in="blurOut" result="blurOut2" type="matrix" values="0 0 0 0 0 0 0 0 0 0 0 0 0 0 0 0 0 0 .4 0"/><feOffset dx="4.0" dy="4.0" in="blurOut2" result="blurOut3"/><feBlend in="SourceGraphic" in2="blurOut3" mode="normal"/></filter></defs><g><!--MD5=[764fca796ce7f635542948d8fc39db5e]
class Payment--><rect fill="#FEFECE" filter="url(#fj9pxy71uwrwe)" height="117.1797" id="Payment" style="stroke: #A80036; stroke-width: 1.5;" width="189" x="6" y="19.5"/><ellipse cx="72.25" cy="35.5" fill="#ADD1B2" rx="11" ry="11" style="stroke: #A80036; stroke-width: 1.0;"/><path d="M74.25,32 Q74.4531,31.5 74.6875,31.25 Q74.9219,31 75.1875,31 Q75.6563,31 75.9531,31.2813 Q76.25,31.5625 76.25,32.2188 L76.25,33.7813 Q76.25,34.4375 75.9688,34.7188 Q75.6875,35 75.25,35 Q74.8594,35 74.6094,34.8281 Q74.3594,34.6563 74.25,34.2031 Q74.2031,33.8906 74.0313,33.7188 Q73.7188,33.3906 73.1563,33.2031 Q72.5938,33 72.0313,33 Q71.3281,33 70.7344,33.2813 Q70.1563,33.5625 69.7031,34.1875 Q69.25,34.8125 69.25,35.6719 L69.25,36.5938 Q69.25,37.625 70.0938,38.3125 Q70.9375,39 72.4375,39 Q73.3281,39 73.9531,38.7969 Q74.3125,38.6875 74.7188,38.3281 Q74.9844,38.125 75.125,38.0625 Q75.2656,38 75.4375,38 Q75.7656,38 76,38.2656 Q76.25,38.5156 76.25,38.875 Q76.25,39.2188 75.9063,39.625 Q75.4063,40.2188 74.6094,40.5469 Q73.5625,41 72.2813,41 Q70.7813,41 69.5781,40.4063 Q68.6094,39.9375 67.9219,38.9219 Q67.25,37.9063 67.25,36.7031 L67.25,35.6094 Q67.25,34.3594 67.8438,33.2656 Q68.4531,32.1719 69.5,31.5938 Q70.5625,31 71.75,31 Q72.4688,31 73.0938,31.25 Q73.7188,31.5 74.25,32 Z "/><text fill="#000000" font-family="sans-serif" font-size="12" lengthAdjust="spacingAndGlyphs" textLength="48" x="92.75" y="40.4102">Payment</text><line style="stroke: #A80036; stroke-width: 1.5;" x1="7" x2="194" y1="51.5" y2="51.5"/><line style="stroke: #A80036; stroke-width: 1.5;" x1="7" x2="194" y1="59.5" y2="59.5"/><text fill="#000000" font-family="sans-serif" font-size="11" lengthAdjust="spacingAndGlyphs" textLength="130" x="12" y="74.9189">+generateReceipt(country)</text><text fill="#000000" font-family="sans-serif" font-size="11" lengthAdjust="spacingAndGlyphs" textLength="50" x="12" y="88.7549">+getSum()</text><text fill="#000000" font-family="sans-serif" font-size="11" lengthAdjust="spacingAndGlyphs" textLength="50" x="12" y="102.5908">+getCurr()</text><text fill="#000000" font-family="sans-serif" font-size="11" lengthAdjust="spacingAndGlyphs" textLength="151" x="12" y="116.4268">+calculate(costHour, costHour)</text><text fill="#000000" font-family="sans-serif" font-size="11" lengthAdjust="spacingAndGlyphs" textLength="177" x="12" y="130.2627">+calculateCurrency(valueE, country)</text><!--MD5=[4555bb1b0911a5adf28ce6dbe60fed2e]
class Transaction--><rect fill="#FEFECE" filter="url(#fj9pxy71uwrwe)" height="61.8359" id="Transaction" style="stroke: #A80036; stroke-width: 1.5;" width="97" x="526" y="15"/><ellipse cx="541" cy="31" fill="#ADD1B2" rx="11" ry="11" style="stroke: #A80036; stroke-width: 1.0;"/><path d="M543,27.5 Q543.2031,27 543.4375,26.75 Q543.6719,26.5 543.9375,26.5 Q544.4063,26.5 544.7031,26.7813 Q545,27.0625 545,27.7188 L545,29.2813 Q545,29.9375 544.7188,30.2188 Q544.4375,30.5 544,30.5 Q543.6094,30.5 543.3594,30.3281 Q543.1094,30.1563 543,29.7031 Q542.9531,29.3906 542.7813,29.2188 Q542.4688,28.8906 541.9063,28.7031 Q541.3438,28.5 540.7813,28.5 Q540.0781,28.5 539.4844,28.7813 Q538.9063,29.0625 538.4531,29.6875 Q538,30.3125 538,31.1719 L538,32.0938 Q538,33.125 538.8438,33.8125 Q539.6875,34.5 541.1875,34.5 Q542.0781,34.5 542.7031,34.2969 Q543.0625,34.1875 543.4688,33.8281 Q543.7344,33.625 543.875,33.5625 Q544.0156,33.5 544.1875,33.5 Q544.5156,33.5 544.75,33.7656 Q545,34.0156 545,34.375 Q545,34.7188 544.6563,35.125 Q544.1563,35.7188 543.3594,36.0469 Q542.3125,36.5 541.0313,36.5 Q539.5313,36.5 538.3281,35.9063 Q537.3594,35.4375 536.6719,34.4219 Q536,33.4063 536,32.2031 L536,31.1094 Q536,29.8594 536.5938,28.7656 Q537.2031,27.6719 538.25,27.0938 Q539.3125,26.5 540.5,26.5 Q541.2188,26.5 541.8438,26.75 Q542.4688,27 543,27.5 Z "/><text fill="#000000" font-family="sans-serif" font-size="12" lengthAdjust="spacingAndGlyphs" textLength="65" x="555" y="35.9102">Transaction</text><line style="stroke: #A80036; stroke-width: 1.5;" x1="527" x2="622" y1="47" y2="47"/><line style="stroke: #A80036; stroke-width: 1.5;" x1="527" x2="622" y1="55" y2="55"/><text fill="#000000" font-family="sans-serif" font-size="11" lengthAdjust="spacingAndGlyphs" textLength="52" x="532" y="70.4189">+getTask()</text><!--MD5=[b34797a66dc35cbf1d65f7e3ca75530e]
class Task--><rect fill="#FEFECE" filter="url(#fj9pxy71uwrwe)" height="75.6719" id="Task" style="stroke: #A80036; stroke-width: 1.5;" width="103" x="706" y="8"/><ellipse cx="740.8" cy="24" fill="#ADD1B2" rx="11" ry="11" style="stroke: #A80036; stroke-width: 1.0;"/><path d="M742.8,20.5 Q743.0031,20 743.2375,19.75 Q743.4719,19.5 743.7375,19.5 Q744.2063,19.5 744.5031,19.7813 Q744.8,20.0625 744.8,20.7188 L744.8,22.2813 Q744.8,22.9375 744.5188,23.2188 Q744.2375,23.5 743.8,23.5 Q743.4094,23.5 743.1594,23.3281 Q742.9094,23.1563 742.8,22.7031 Q742.7531,22.3906 742.5813,22.2188 Q742.2688,21.8906 741.7063,21.7031 Q741.1438,21.5 740.5813,21.5 Q739.8781,21.5 739.2844,21.7813 Q738.7063,22.0625 738.2531,22.6875 Q737.8,23.3125 737.8,24.1719 L737.8,25.0938 Q737.8,26.125 738.6438,26.8125 Q739.4875,27.5 740.9875,27.5 Q741.8781,27.5 742.5031,27.2969 Q742.8625,27.1875 743.2688,26.8281 Q743.5344,26.625 743.675,26.5625 Q743.8156,26.5 743.9875,26.5 Q744.3156,26.5 744.55,26.7656 Q744.8,27.0156 744.8,27.375 Q744.8,27.7188 744.4563,28.125 Q743.9563,28.7188 743.1594,29.0469 Q742.1125,29.5 740.8313,29.5 Q739.3313,29.5 738.1281,28.9063 Q737.1594,28.4375 736.4719,27.4219 Q735.8,26.4063 735.8,25.2031 L735.8,24.1094 Q735.8,22.8594 736.3938,21.7656 Q737.0031,20.6719 738.05,20.0938 Q739.1125,19.5 740.3,19.5 Q741.0188,19.5 741.6438,19.75 Q742.2688,20 742.8,20.5 Z "/><text fill="#000000" font-family="sans-serif" font-size="12" lengthAdjust="spacingAndGlyphs" textLength="27" x="759.2" y="28.9102">Task</text><line style="stroke: #A80036; stroke-width: 1.5;" x1="707" x2="808" y1="40" y2="40"/><line style="stroke: #A80036; stroke-width: 1.5;" x1="707" x2="808" y1="48" y2="48"/><text fill="#000000" font-family="sans-serif" font-size="11" lengthAdjust="spacingAndGlyphs" textLength="74" x="712" y="63.4189">+getCostHour()</text><text fill="#000000" font-family="sans-serif" font-size="11" lengthAdjust="spacingAndGlyphs" textLength="91" x="712" y="77.2549">+getTimeDuration()</text><!--MD5=[34b75dd4d6d4601c280a5b76e9c1a953]
class Receipt--><rect fill="#FEFECE" filter="url(#fj9pxy71uwrwe)" height="75.6719" id="Receipt" style="stroke: #A80036; stroke-width: 1.5;" width="129" x="314" y="98"/><ellipse cx="353.75" cy="114" fill="#ADD1B2" rx="11" ry="11" style="stroke: #A80036; stroke-width: 1.0;"/><path d="M355.75,110.5 Q355.9531,110 356.1875,109.75 Q356.4219,109.5 356.6875,109.5 Q357.1563,109.5 357.4531,109.7813 Q357.75,110.0625 357.75,110.7188 L357.75,112.2813 Q357.75,112.9375 357.4688,113.2188 Q357.1875,113.5 356.75,113.5 Q356.3594,113.5 356.1094,113.3281 Q355.8594,113.1563 355.75,112.7031 Q355.7031,112.3906 355.5313,112.2188 Q355.2188,111.8906 354.6563,111.7031 Q354.0938,111.5 353.5313,111.5 Q352.8281,111.5 352.2344,111.7813 Q351.6563,112.0625 351.2031,112.6875 Q350.75,113.3125 350.75,114.1719 L350.75,115.0938 Q350.75,116.125 351.5938,116.8125 Q352.4375,117.5 353.9375,117.5 Q354.8281,117.5 355.4531,117.2969 Q355.8125,117.1875 356.2188,116.8281 Q356.4844,116.625 356.625,116.5625 Q356.7656,116.5 356.9375,116.5 Q357.2656,116.5 357.5,116.7656 Q357.75,117.0156 357.75,117.375 Q357.75,117.7188 357.4063,118.125 Q356.9063,118.7188 356.1094,119.0469 Q355.0625,119.5 353.7813,119.5 Q352.2813,119.5 351.0781,118.9063 Q350.1094,118.4375 349.4219,117.4219 Q348.75,116.4063 348.75,115.2031 L348.75,114.1094 Q348.75,112.8594 349.3438,111.7656 Q349.9531,110.6719 351,110.0938 Q352.0625,109.5 353.25,109.5 Q353.9688,109.5 354.5938,109.75 Q355.2188,110 355.75,110.5 Z "/><text fill="#000000" font-family="sans-serif" font-size="12" lengthAdjust="spacingAndGlyphs" textLength="42" x="373.25" y="118.9102">Receipt</text><line style="stroke: #A80036; stroke-width: 1.5;" x1="315" x2="442" y1="130" y2="130"/><line style="stroke: #A80036; stroke-width: 1.5;" x1="315" x2="442" y1="138" y2="138"/><text fill="#000000" font-family="sans-serif" font-size="11" lengthAdjust="spacingAndGlyphs" textLength="117" x="320" y="153.4189">+Receipt(nltr, sum, curr)</text><text fill="#000000" font-family="sans-serif" font-size="11" lengthAdjust="spacingAndGlyphs" textLength="56" x="320" y="167.2549">+genEmail()</text><!--MD5=[86cfdc25119a3a20e0664f11a0f5b002]
class Writer--><rect fill="#FEFECE" filter="url(#fj9pxy71uwrwe)" height="61.8359" id="Writer" style="stroke: #A80036; stroke-width: 1.5;" width="68" x="540.5" y="113"/><ellipse cx="557.3" cy="129" fill="#ADD1B2" rx="11" ry="11" style="stroke: #A80036; stroke-width: 1.0;"/><path d="M559.3,125.5 Q559.5031,125 559.7375,124.75 Q559.9719,124.5 560.2375,124.5 Q560.7063,124.5 561.0031,124.7813 Q561.3,125.0625 561.3,125.7188 L561.3,127.2813 Q561.3,127.9375 561.0188,128.2188 Q560.7375,128.5 560.3,128.5 Q559.9094,128.5 559.6594,128.3281 Q559.4094,128.1563 559.3,127.7031 Q559.2531,127.3906 559.0813,127.2188 Q558.7688,126.8906 558.2063,126.7031 Q557.6438,126.5 557.0813,126.5 Q556.3781,126.5 555.7844,126.7813 Q555.2063,127.0625 554.7531,127.6875 Q554.3,128.3125 554.3,129.1719 L554.3,130.0938 Q554.3,131.125 555.1438,131.8125 Q555.9875,132.5 557.4875,132.5 Q558.3781,132.5 559.0031,132.2969 Q559.3625,132.1875 559.7688,131.8281 Q560.0344,131.625 560.175,131.5625 Q560.3156,131.5 560.4875,131.5 Q560.8156,131.5 561.05,131.7656 Q561.3,132.0156 561.3,132.375 Q561.3,132.7188 560.9563,133.125 Q560.4563,133.7188 559.6594,134.0469 Q558.6125,134.5 557.3313,134.5 Q555.8313,134.5 554.6281,133.9063 Q553.6594,133.4375 552.9719,132.4219 Q552.3,131.4063 552.3,130.2031 L552.3,129.1094 Q552.3,127.8594 552.8938,126.7656 Q553.5031,125.6719 554.55,125.0938 Q555.6125,124.5 556.8,124.5 Q557.5188,124.5 558.1438,124.75 Q558.7688,125 559.3,125.5 Z "/><text fill="#000000" font-family="sans-serif" font-size="12" lengthAdjust="spacingAndGlyphs" textLength="32" x="571.7" y="133.9102">Writer</text><line style="stroke: #A80036; stroke-width: 1.5;" x1="541.5" x2="607.5" y1="145" y2="145"/><line style="stroke: #A80036; stroke-width: 1.5;" x1="541.5" x2="607.5" y1="153" y2="153"/><text fill="#000000" font-family="sans-serif" font-size="11" lengthAdjust="spacingAndGlyphs" textLength="56" x="546.5" y="168.4189">+genEmail()</text><!--MD5=[c4629210b2ba88e64afbee18491f07dd]
link Payment to Transaction--><path d="M195.034,71.659 C292.6,65.044 442.079,54.91 520.804,49.573 " fill="none" id="Payment-&gt;Transaction" style="stroke: #A80036; stroke-width: 1.0; stroke-dasharray: 7.0,7.0;"/><polygon fill="#A80036" points="525.886,49.228,516.6358,45.8466,520.8975,49.5666,517.1775,53.8282,525.886,49.228" style="stroke: #A80036; stroke-width: 1.0;"/><!--MD5=[8e4873cec2cb3febaaa9495c716fc885]
link Transaction to Task--><path d="M623.056,46 C648.508,46 679.859,46 705.777,46 " fill="none" id="Transaction-Task" style="stroke: #A80036; stroke-width: 1.0;"/><text fill="#000000" font-family="sans-serif" font-size="13" lengthAdjust="spacingAndGlyphs" textLength="21" x="654" y="42.4951">has</text><text fill="#000000" font-family="sans-serif" font-size="13" lengthAdjust="spacingAndGlyphs" textLength="7" x="631.0271" y="60.7596">1</text><text fill="#000000" font-family="sans-serif" font-size="13" lengthAdjust="spacingAndGlyphs" textLength="7" x="691.0113" y="60.6679">1</text><!--MD5=[264464a3d777ed38cc26833f9af77f81]
link Payment to Receipt--><path d="M195.326,97.7171 C234.395,105.9272 278.744,115.247 313.903,122.6353 " fill="none" id="Payment-Receipt" style="stroke: #A80036; stroke-width: 1.0;"/><text fill="#000000" font-family="sans-serif" font-size="13" lengthAdjust="spacingAndGlyphs" textLength="57" x="226" y="101.4951">generates</text><text fill="#000000" font-family="sans-serif" font-size="13" lengthAdjust="spacingAndGlyphs" textLength="7" x="202.8541" y="113.3409">1</text><text fill="#000000" font-family="sans-serif" font-size="13" lengthAdjust="spacingAndGlyphs" textLength="7" x="299.0293" y="135.5494">1</text><!--MD5=[5dcb98e97564e4a4002da6305cf8f575]
link Receipt to Writer--><path d="M443.023,138.6195 C473.481,139.8755 508.958,141.3385 535.224,142.4216 " fill="none" id="Receipt-&gt;Writer" style="stroke: #A80036; stroke-width: 1.0; stroke-dasharray: 7.0,7.0;"/><polygon fill="#A80036" points="540.35,142.633,531.5222,138.2661,535.3542,142.4273,531.193,146.2593,540.35,142.633" style="stroke: #A80036; stroke-width: 1.0;"/><!--MD5=[e06129d45b1217ddabb9245c7b381eeb]
link Receipt to Transaction--><path d="M443.297,111.9077 C460.585,104.9348 479.169,97.027 496,89 C505.722,84.3635 515.922,79.0475 525.611,73.77 " fill="none" id="Receipt-Transaction" style="stroke: #A80036; stroke-width: 1.0;"/><text fill="#000000" font-family="sans-serif" font-size="13" lengthAdjust="spacingAndGlyphs" textLength="21" x="474" y="85.4951">has</text><text fill="#000000" font-family="sans-serif" font-size="13" lengthAdjust="spacingAndGlyphs" textLength="7" x="451.1938" y="123.5814">1</text><text fill="#000000" font-family="sans-serif" font-size="13" lengthAdjust="spacingAndGlyphs" textLength="20" x="498.0658" y="91.8812">1..*</text><!--MD5=[c483ffcaa9aec4d9861c2bd9b18d8a10]
@startuml

skinparam classAttributeIconSize 0
left to right direction

class Payment{
    +generateReceipt(country)
    +getSum()
    +getCurr()
    +calculate(costHour, costHour)
    +calculateCurrency(valueE, country)

}

class Transaction{
    +getTask()
}

class Task{
    +getCostHour()
    +getTimeDuration()
}

class Receipt{
    +Receipt(nltr, sum, curr)
    +genEmail()
}

class Writer{
    +genEmail()
}

Payment ..> Transaction
Transaction "1" - - "1" Task : has
Payment "1" - - "1" Receipt : generates
Receipt ..> Writer
Receipt "1" - - "1..*" Transaction : has  


@enduml

PlantUML version 1.2020.09(Sun May 10 11:51:06 BST 2020)
(GPL source distribution)
Java Runtime: OpenJDK Runtime Environment
JVM: OpenJDK 64-Bit Server VM
Java Version: 11.0.6+8-b765.40
Operating System: Windows 10
Default Encoding: Cp1252
Language: pt
Country: PT
--></g></svg>