<?xml version="1.0" encoding="UTF-8" standalone="no"?><svg xmlns="http://www.w3.org/2000/svg" xmlns:xlink="http://www.w3.org/1999/xlink" contentScriptType="application/ecmascript" contentStyleType="text/css" height="711px" preserveAspectRatio="none" style="width:1089px;height:711px;" version="1.1" viewBox="0 0 1089 711" width="1089px" zoomAndPan="magnify"><defs><filter height="300%" id="f1j8lfsygixzuf" width="300%" x="-1" y="-1"><feGaussianBlur result="blurOut" stdDeviation="2.0"/><feColorMatrix in="blurOut" result="blurOut2" type="matrix" values="0 0 0 0 0 0 0 0 0 0 0 0 0 0 0 0 0 0 .4 0"/><feOffset dx="4.0" dy="4.0" in="blurOut2" result="blurOut3"/><feBlend in="SourceGraphic" in2="blurOut3" mode="normal"/></filter></defs><g><!--MD5=[77c8a7e42f18426d189d5f8ab40a5f0f]
class DoPaymentTask--><rect fill="#FEFECE" filter="url(#f1j8lfsygixzuf)" height="89.5078" id="DoPaymentTask" style="stroke: #A80036; stroke-width: 1.5;" width="232" x="6" y="253"/><ellipse cx="72.25" cy="269" fill="#ADD1B2" rx="11" ry="11" style="stroke: #A80036; stroke-width: 1.0;"/><path d="M74.25,265.5 Q74.4531,265 74.6875,264.75 Q74.9219,264.5 75.1875,264.5 Q75.6563,264.5 75.9531,264.7813 Q76.25,265.0625 76.25,265.7188 L76.25,267.2813 Q76.25,267.9375 75.9688,268.2188 Q75.6875,268.5 75.25,268.5 Q74.8594,268.5 74.6094,268.3281 Q74.3594,268.1563 74.25,267.7031 Q74.2031,267.3906 74.0313,267.2188 Q73.7188,266.8906 73.1563,266.7031 Q72.5938,266.5 72.0313,266.5 Q71.3281,266.5 70.7344,266.7813 Q70.1563,267.0625 69.7031,267.6875 Q69.25,268.3125 69.25,269.1719 L69.25,270.0938 Q69.25,271.125 70.0938,271.8125 Q70.9375,272.5 72.4375,272.5 Q73.3281,272.5 73.9531,272.2969 Q74.3125,272.1875 74.7188,271.8281 Q74.9844,271.625 75.125,271.5625 Q75.2656,271.5 75.4375,271.5 Q75.7656,271.5 76,271.7656 Q76.25,272.0156 76.25,272.375 Q76.25,272.7188 75.9063,273.125 Q75.4063,273.7188 74.6094,274.0469 Q73.5625,274.5 72.2813,274.5 Q70.7813,274.5 69.5781,273.9063 Q68.6094,273.4375 67.9219,272.4219 Q67.25,271.4063 67.25,270.2031 L67.25,269.1094 Q67.25,267.8594 67.8438,266.7656 Q68.4531,265.6719 69.5,265.0938 Q70.5625,264.5 71.75,264.5 Q72.4688,264.5 73.0938,264.75 Q73.7188,265 74.25,265.5 Z "/><text fill="#000000" font-family="sans-serif" font-size="12" lengthAdjust="spacingAndGlyphs" textLength="91" x="92.75" y="273.9102">DoPaymentTask</text><line style="stroke: #A80036; stroke-width: 1.5;" x1="7" x2="237" y1="285" y2="285"/><line style="stroke: #A80036; stroke-width: 1.5;" x1="7" x2="237" y1="293" y2="293"/><text fill="#000000" font-family="sans-serif" font-size="11" lengthAdjust="spacingAndGlyphs" textLength="84" x="12" y="308.4189">+DoPayment(org)</text><text fill="#000000" font-family="sans-serif" font-size="11" lengthAdjust="spacingAndGlyphs" textLength="191" x="12" y="322.2549">+calculateCost(costHour, TimeDuration)</text><text fill="#000000" font-family="sans-serif" font-size="11" lengthAdjust="spacingAndGlyphs" textLength="220" x="12" y="336.0908">+convertToCurrency(costHour, TimeDuration)</text><!--MD5=[99b8db98afdc2c8404e39242ef4c1e65]
class Platform--><rect fill="#FEFECE" filter="url(#f1j8lfsygixzuf)" height="75.6719" id="Platform" style="stroke: #A80036; stroke-width: 1.5;" width="133" x="347.5" y="386"/><ellipse cx="387.25" cy="402" fill="#ADD1B2" rx="11" ry="11" style="stroke: #A80036; stroke-width: 1.0;"/><path d="M389.25,398.5 Q389.4531,398 389.6875,397.75 Q389.9219,397.5 390.1875,397.5 Q390.6563,397.5 390.9531,397.7813 Q391.25,398.0625 391.25,398.7188 L391.25,400.2813 Q391.25,400.9375 390.9688,401.2188 Q390.6875,401.5 390.25,401.5 Q389.8594,401.5 389.6094,401.3281 Q389.3594,401.1563 389.25,400.7031 Q389.2031,400.3906 389.0313,400.2188 Q388.7188,399.8906 388.1563,399.7031 Q387.5938,399.5 387.0313,399.5 Q386.3281,399.5 385.7344,399.7813 Q385.1563,400.0625 384.7031,400.6875 Q384.25,401.3125 384.25,402.1719 L384.25,403.0938 Q384.25,404.125 385.0938,404.8125 Q385.9375,405.5 387.4375,405.5 Q388.3281,405.5 388.9531,405.2969 Q389.3125,405.1875 389.7188,404.8281 Q389.9844,404.625 390.125,404.5625 Q390.2656,404.5 390.4375,404.5 Q390.7656,404.5 391,404.7656 Q391.25,405.0156 391.25,405.375 Q391.25,405.7188 390.9063,406.125 Q390.4063,406.7188 389.6094,407.0469 Q388.5625,407.5 387.2813,407.5 Q385.7813,407.5 384.5781,406.9063 Q383.6094,406.4375 382.9219,405.4219 Q382.25,404.4063 382.25,403.2031 L382.25,402.1094 Q382.25,400.8594 382.8438,399.7656 Q383.4531,398.6719 384.5,398.0938 Q385.5625,397.5 386.75,397.5 Q387.4688,397.5 388.0938,397.75 Q388.7188,398 389.25,398.5 Z "/><text fill="#000000" font-family="sans-serif" font-size="12" lengthAdjust="spacingAndGlyphs" textLength="46" x="406.75" y="406.9102">Platform</text><line style="stroke: #A80036; stroke-width: 1.5;" x1="348.5" x2="479.5" y1="418" y2="418"/><line style="stroke: #A80036; stroke-width: 1.5;" x1="348.5" x2="479.5" y1="426" y2="426"/><text fill="#000000" font-family="sans-serif" font-size="11" lengthAdjust="spacingAndGlyphs" textLength="121" x="353.5" y="441.4189">+getRegisterFreelancer()</text><text fill="#000000" font-family="sans-serif" font-size="11" lengthAdjust="spacingAndGlyphs" textLength="42" x="353.5" y="455.2549">+getRT()</text><!--MD5=[86c7c362de55a38b660185a1328fe18d]
class Organization--><rect fill="#FEFECE" filter="url(#f1j8lfsygixzuf)" height="61.8359" id="Organization" style="stroke: #A80036; stroke-width: 1.5;" width="101" x="589.5" y="327"/><ellipse cx="604.5" cy="343" fill="#ADD1B2" rx="11" ry="11" style="stroke: #A80036; stroke-width: 1.0;"/><path d="M606.5,339.5 Q606.7031,339 606.9375,338.75 Q607.1719,338.5 607.4375,338.5 Q607.9063,338.5 608.2031,338.7813 Q608.5,339.0625 608.5,339.7188 L608.5,341.2813 Q608.5,341.9375 608.2188,342.2188 Q607.9375,342.5 607.5,342.5 Q607.1094,342.5 606.8594,342.3281 Q606.6094,342.1563 606.5,341.7031 Q606.4531,341.3906 606.2813,341.2188 Q605.9688,340.8906 605.4063,340.7031 Q604.8438,340.5 604.2813,340.5 Q603.5781,340.5 602.9844,340.7813 Q602.4063,341.0625 601.9531,341.6875 Q601.5,342.3125 601.5,343.1719 L601.5,344.0938 Q601.5,345.125 602.3438,345.8125 Q603.1875,346.5 604.6875,346.5 Q605.5781,346.5 606.2031,346.2969 Q606.5625,346.1875 606.9688,345.8281 Q607.2344,345.625 607.375,345.5625 Q607.5156,345.5 607.6875,345.5 Q608.0156,345.5 608.25,345.7656 Q608.5,346.0156 608.5,346.375 Q608.5,346.7188 608.1563,347.125 Q607.6563,347.7188 606.8594,348.0469 Q605.8125,348.5 604.5313,348.5 Q603.0313,348.5 601.8281,347.9063 Q600.8594,347.4375 600.1719,346.4219 Q599.5,345.4063 599.5,344.2031 L599.5,343.1094 Q599.5,341.8594 600.0938,340.7656 Q600.7031,339.6719 601.75,339.0938 Q602.8125,338.5 604,338.5 Q604.7188,338.5 605.3438,338.75 Q605.9688,339 606.5,339.5 Z "/><text fill="#000000" font-family="sans-serif" font-size="12" lengthAdjust="spacingAndGlyphs" textLength="69" x="618.5" y="347.9102">Organization</text><line style="stroke: #A80036; stroke-width: 1.5;" x1="590.5" x2="689.5" y1="359" y2="359"/><line style="stroke: #A80036; stroke-width: 1.5;" x1="590.5" x2="689.5" y1="367" y2="367"/><text fill="#000000" font-family="sans-serif" font-size="11" lengthAdjust="spacingAndGlyphs" textLength="69" x="595.5" y="382.4189">+getTaskList()</text><!--MD5=[6735b55cc4e757c70976e457f6d95f3d]
class RegisterFreelancer--><rect fill="#FEFECE" filter="url(#f1j8lfsygixzuf)" height="61.8359" id="RegisterFreelancer" style="stroke: #A80036; stroke-width: 1.5;" width="138" x="571" y="144"/><ellipse cx="586" cy="160" fill="#ADD1B2" rx="11" ry="11" style="stroke: #A80036; stroke-width: 1.0;"/><path d="M588,156.5 Q588.2031,156 588.4375,155.75 Q588.6719,155.5 588.9375,155.5 Q589.4063,155.5 589.7031,155.7813 Q590,156.0625 590,156.7188 L590,158.2813 Q590,158.9375 589.7188,159.2188 Q589.4375,159.5 589,159.5 Q588.6094,159.5 588.3594,159.3281 Q588.1094,159.1563 588,158.7031 Q587.9531,158.3906 587.7813,158.2188 Q587.4688,157.8906 586.9063,157.7031 Q586.3438,157.5 585.7813,157.5 Q585.0781,157.5 584.4844,157.7813 Q583.9063,158.0625 583.4531,158.6875 Q583,159.3125 583,160.1719 L583,161.0938 Q583,162.125 583.8438,162.8125 Q584.6875,163.5 586.1875,163.5 Q587.0781,163.5 587.7031,163.2969 Q588.0625,163.1875 588.4688,162.8281 Q588.7344,162.625 588.875,162.5625 Q589.0156,162.5 589.1875,162.5 Q589.5156,162.5 589.75,162.7656 Q590,163.0156 590,163.375 Q590,163.7188 589.6563,164.125 Q589.1563,164.7188 588.3594,165.0469 Q587.3125,165.5 586.0313,165.5 Q584.5313,165.5 583.3281,164.9063 Q582.3594,164.4375 581.6719,163.4219 Q581,162.4063 581,161.2031 L581,160.1094 Q581,158.8594 581.5938,157.7656 Q582.2031,156.6719 583.25,156.0938 Q584.3125,155.5 585.5,155.5 Q586.2188,155.5 586.8438,155.75 Q587.4688,156 588,156.5 Z "/><text fill="#000000" font-family="sans-serif" font-size="12" lengthAdjust="spacingAndGlyphs" textLength="106" x="600" y="164.9102">RegisterFreelancer</text><line style="stroke: #A80036; stroke-width: 1.5;" x1="572" x2="708" y1="176" y2="176"/><line style="stroke: #A80036; stroke-width: 1.5;" x1="572" x2="708" y1="184" y2="184"/><text fill="#000000" font-family="sans-serif" font-size="11" lengthAdjust="spacingAndGlyphs" textLength="81" x="577" y="199.4189">+getFreelancer()</text><!--MD5=[1f687b5315377fe49fca59b457947463]
class Freelancer--><rect fill="#FEFECE" filter="url(#f1j8lfsygixzuf)" height="61.8359" id="Freelancer" style="stroke: #A80036; stroke-width: 1.5;" width="91" x="798" y="144"/><ellipse cx="813" cy="160" fill="#ADD1B2" rx="11" ry="11" style="stroke: #A80036; stroke-width: 1.0;"/><path d="M815,156.5 Q815.2031,156 815.4375,155.75 Q815.6719,155.5 815.9375,155.5 Q816.4063,155.5 816.7031,155.7813 Q817,156.0625 817,156.7188 L817,158.2813 Q817,158.9375 816.7188,159.2188 Q816.4375,159.5 816,159.5 Q815.6094,159.5 815.3594,159.3281 Q815.1094,159.1563 815,158.7031 Q814.9531,158.3906 814.7813,158.2188 Q814.4688,157.8906 813.9063,157.7031 Q813.3438,157.5 812.7813,157.5 Q812.0781,157.5 811.4844,157.7813 Q810.9063,158.0625 810.4531,158.6875 Q810,159.3125 810,160.1719 L810,161.0938 Q810,162.125 810.8438,162.8125 Q811.6875,163.5 813.1875,163.5 Q814.0781,163.5 814.7031,163.2969 Q815.0625,163.1875 815.4688,162.8281 Q815.7344,162.625 815.875,162.5625 Q816.0156,162.5 816.1875,162.5 Q816.5156,162.5 816.75,162.7656 Q817,163.0156 817,163.375 Q817,163.7188 816.6563,164.125 Q816.1563,164.7188 815.3594,165.0469 Q814.3125,165.5 813.0313,165.5 Q811.5313,165.5 810.3281,164.9063 Q809.3594,164.4375 808.6719,163.4219 Q808,162.4063 808,161.2031 L808,160.1094 Q808,158.8594 808.5938,157.7656 Q809.2031,156.6719 810.25,156.0938 Q811.3125,155.5 812.5,155.5 Q813.2188,155.5 813.8438,155.75 Q814.4688,156 815,156.5 Z "/><text fill="#000000" font-family="sans-serif" font-size="12" lengthAdjust="spacingAndGlyphs" textLength="59" x="827" y="164.9102">Freelancer</text><line style="stroke: #A80036; stroke-width: 1.5;" x1="799" x2="888" y1="176" y2="176"/><line style="stroke: #A80036; stroke-width: 1.5;" x1="799" x2="888" y1="184" y2="184"/><text fill="#000000" font-family="sans-serif" font-size="11" lengthAdjust="spacingAndGlyphs" textLength="67" x="804" y="199.4189">+getCountry()</text><!--MD5=[cf2635f8a68afd84898027166f4516bc]
class TaskList--><rect fill="#FEFECE" filter="url(#f1j8lfsygixzuf)" height="61.8359" id="TaskList" style="stroke: #A80036; stroke-width: 1.5;" width="79" x="804" y="269"/><ellipse cx="819" cy="285" fill="#ADD1B2" rx="11" ry="11" style="stroke: #A80036; stroke-width: 1.0;"/><path d="M821,281.5 Q821.2031,281 821.4375,280.75 Q821.6719,280.5 821.9375,280.5 Q822.4063,280.5 822.7031,280.7813 Q823,281.0625 823,281.7188 L823,283.2813 Q823,283.9375 822.7188,284.2188 Q822.4375,284.5 822,284.5 Q821.6094,284.5 821.3594,284.3281 Q821.1094,284.1563 821,283.7031 Q820.9531,283.3906 820.7813,283.2188 Q820.4688,282.8906 819.9063,282.7031 Q819.3438,282.5 818.7813,282.5 Q818.0781,282.5 817.4844,282.7813 Q816.9063,283.0625 816.4531,283.6875 Q816,284.3125 816,285.1719 L816,286.0938 Q816,287.125 816.8438,287.8125 Q817.6875,288.5 819.1875,288.5 Q820.0781,288.5 820.7031,288.2969 Q821.0625,288.1875 821.4688,287.8281 Q821.7344,287.625 821.875,287.5625 Q822.0156,287.5 822.1875,287.5 Q822.5156,287.5 822.75,287.7656 Q823,288.0156 823,288.375 Q823,288.7188 822.6563,289.125 Q822.1563,289.7188 821.3594,290.0469 Q820.3125,290.5 819.0313,290.5 Q817.5313,290.5 816.3281,289.9063 Q815.3594,289.4375 814.6719,288.4219 Q814,287.4063 814,286.2031 L814,285.1094 Q814,283.8594 814.5938,282.7656 Q815.2031,281.6719 816.25,281.0938 Q817.3125,280.5 818.5,280.5 Q819.2188,280.5 819.8438,280.75 Q820.4688,281 821,281.5 Z "/><text fill="#000000" font-family="sans-serif" font-size="12" lengthAdjust="spacingAndGlyphs" textLength="47" x="833" y="289.9102">TaskList</text><line style="stroke: #A80036; stroke-width: 1.5;" x1="805" x2="882" y1="301" y2="301"/><line style="stroke: #A80036; stroke-width: 1.5;" x1="805" x2="882" y1="309" y2="309"/><text fill="#000000" font-family="sans-serif" font-size="11" lengthAdjust="spacingAndGlyphs" textLength="54" x="810" y="324.4189">+getTask(i)</text><!--MD5=[b34797a66dc35cbf1d65f7e3ca75530e]
class Task--><rect fill="#FEFECE" filter="url(#f1j8lfsygixzuf)" height="89.5078" id="Task" style="stroke: #A80036; stroke-width: 1.5;" width="103" x="975" y="46"/><ellipse cx="1009.8" cy="62" fill="#ADD1B2" rx="11" ry="11" style="stroke: #A80036; stroke-width: 1.0;"/><path d="M1011.8,58.5 Q1012.0031,58 1012.2375,57.75 Q1012.4719,57.5 1012.7375,57.5 Q1013.2063,57.5 1013.5031,57.7813 Q1013.8,58.0625 1013.8,58.7188 L1013.8,60.2813 Q1013.8,60.9375 1013.5188,61.2188 Q1013.2375,61.5 1012.8,61.5 Q1012.4094,61.5 1012.1594,61.3281 Q1011.9094,61.1563 1011.8,60.7031 Q1011.7531,60.3906 1011.5813,60.2188 Q1011.2688,59.8906 1010.7063,59.7031 Q1010.1438,59.5 1009.5813,59.5 Q1008.8781,59.5 1008.2844,59.7813 Q1007.7063,60.0625 1007.2531,60.6875 Q1006.8,61.3125 1006.8,62.1719 L1006.8,63.0938 Q1006.8,64.125 1007.6438,64.8125 Q1008.4875,65.5 1009.9875,65.5 Q1010.8781,65.5 1011.5031,65.2969 Q1011.8625,65.1875 1012.2688,64.8281 Q1012.5344,64.625 1012.675,64.5625 Q1012.8156,64.5 1012.9875,64.5 Q1013.3156,64.5 1013.55,64.7656 Q1013.8,65.0156 1013.8,65.375 Q1013.8,65.7188 1013.4563,66.125 Q1012.9563,66.7188 1012.1594,67.0469 Q1011.1125,67.5 1009.8313,67.5 Q1008.3313,67.5 1007.1281,66.9063 Q1006.1594,66.4375 1005.4719,65.4219 Q1004.8,64.4063 1004.8,63.2031 L1004.8,62.1094 Q1004.8,60.8594 1005.3938,59.7656 Q1006.0031,58.6719 1007.05,58.0938 Q1008.1125,57.5 1009.3,57.5 Q1010.0188,57.5 1010.6438,57.75 Q1011.2688,58 1011.8,58.5 Z "/><text fill="#000000" font-family="sans-serif" font-size="12" lengthAdjust="spacingAndGlyphs" textLength="27" x="1028.2" y="66.9102">Task</text><line style="stroke: #A80036; stroke-width: 1.5;" x1="976" x2="1077" y1="78" y2="78"/><line style="stroke: #A80036; stroke-width: 1.5;" x1="976" x2="1077" y1="86" y2="86"/><text fill="#000000" font-family="sans-serif" font-size="11" lengthAdjust="spacingAndGlyphs" textLength="67" x="981" y="101.4189">+getIsPayed()</text><text fill="#000000" font-family="sans-serif" font-size="11" lengthAdjust="spacingAndGlyphs" textLength="74" x="981" y="115.2549">+getCostHour()</text><text fill="#000000" font-family="sans-serif" font-size="11" lengthAdjust="spacingAndGlyphs" textLength="91" x="981" y="129.0908">+getTimeDuration()</text><!--MD5=[f6ed7daa03e434106607816c975112f0]
class RegisterTransaction--><rect fill="#FEFECE" filter="url(#f1j8lfsygixzuf)" height="61.8359" id="RegisterTransaction" style="stroke: #A80036; stroke-width: 1.5;" width="144" x="568" y="568"/><ellipse cx="583" cy="584" fill="#ADD1B2" rx="11" ry="11" style="stroke: #A80036; stroke-width: 1.0;"/><path d="M585,580.5 Q585.2031,580 585.4375,579.75 Q585.6719,579.5 585.9375,579.5 Q586.4063,579.5 586.7031,579.7813 Q587,580.0625 587,580.7188 L587,582.2813 Q587,582.9375 586.7188,583.2188 Q586.4375,583.5 586,583.5 Q585.6094,583.5 585.3594,583.3281 Q585.1094,583.1563 585,582.7031 Q584.9531,582.3906 584.7813,582.2188 Q584.4688,581.8906 583.9063,581.7031 Q583.3438,581.5 582.7813,581.5 Q582.0781,581.5 581.4844,581.7813 Q580.9063,582.0625 580.4531,582.6875 Q580,583.3125 580,584.1719 L580,585.0938 Q580,586.125 580.8438,586.8125 Q581.6875,587.5 583.1875,587.5 Q584.0781,587.5 584.7031,587.2969 Q585.0625,587.1875 585.4688,586.8281 Q585.7344,586.625 585.875,586.5625 Q586.0156,586.5 586.1875,586.5 Q586.5156,586.5 586.75,586.7656 Q587,587.0156 587,587.375 Q587,587.7188 586.6563,588.125 Q586.1563,588.7188 585.3594,589.0469 Q584.3125,589.5 583.0313,589.5 Q581.5313,589.5 580.3281,588.9063 Q579.3594,588.4375 578.6719,587.4219 Q578,586.4063 578,585.2031 L578,584.1094 Q578,582.8594 578.5938,581.7656 Q579.2031,580.6719 580.25,580.0938 Q581.3125,579.5 582.5,579.5 Q583.2188,579.5 583.8438,579.75 Q584.4688,580 585,580.5 Z "/><text fill="#000000" font-family="sans-serif" font-size="12" lengthAdjust="spacingAndGlyphs" textLength="112" x="597" y="588.9102">RegisterTransaction</text><line style="stroke: #A80036; stroke-width: 1.5;" x1="569" x2="711" y1="600" y2="600"/><line style="stroke: #A80036; stroke-width: 1.5;" x1="569" x2="711" y1="608" y2="608"/><text fill="#000000" font-family="sans-serif" font-size="11" lengthAdjust="spacingAndGlyphs" textLength="41" x="574" y="623.4189">+gettltr()</text><!--MD5=[4555bb1b0911a5adf28ce6dbe60fed2e]
class Transaction--><rect fill="#FEFECE" filter="url(#f1j8lfsygixzuf)" height="75.6719" id="Transaction" style="stroke: #A80036; stroke-width: 1.5;" width="97" x="795" y="508"/><ellipse cx="810" cy="524" fill="#ADD1B2" rx="11" ry="11" style="stroke: #A80036; stroke-width: 1.0;"/><path d="M812,520.5 Q812.2031,520 812.4375,519.75 Q812.6719,519.5 812.9375,519.5 Q813.4063,519.5 813.7031,519.7813 Q814,520.0625 814,520.7188 L814,522.2813 Q814,522.9375 813.7188,523.2188 Q813.4375,523.5 813,523.5 Q812.6094,523.5 812.3594,523.3281 Q812.1094,523.1563 812,522.7031 Q811.9531,522.3906 811.7813,522.2188 Q811.4688,521.8906 810.9063,521.7031 Q810.3438,521.5 809.7813,521.5 Q809.0781,521.5 808.4844,521.7813 Q807.9063,522.0625 807.4531,522.6875 Q807,523.3125 807,524.1719 L807,525.0938 Q807,526.125 807.8438,526.8125 Q808.6875,527.5 810.1875,527.5 Q811.0781,527.5 811.7031,527.2969 Q812.0625,527.1875 812.4688,526.8281 Q812.7344,526.625 812.875,526.5625 Q813.0156,526.5 813.1875,526.5 Q813.5156,526.5 813.75,526.7656 Q814,527.0156 814,527.375 Q814,527.7188 813.6563,528.125 Q813.1563,528.7188 812.3594,529.0469 Q811.3125,529.5 810.0313,529.5 Q808.5313,529.5 807.3281,528.9063 Q806.3594,528.4375 805.6719,527.4219 Q805,526.4063 805,525.2031 L805,524.1094 Q805,522.8594 805.5938,521.7656 Q806.2031,520.6719 807.25,520.0938 Q808.3125,519.5 809.5,519.5 Q810.2188,519.5 810.8438,519.75 Q811.4688,520 812,520.5 Z "/><text fill="#000000" font-family="sans-serif" font-size="12" lengthAdjust="spacingAndGlyphs" textLength="65" x="824" y="528.9102">Transaction</text><line style="stroke: #A80036; stroke-width: 1.5;" x1="796" x2="891" y1="540" y2="540"/><line style="stroke: #A80036; stroke-width: 1.5;" x1="796" x2="891" y1="548" y2="548"/><text fill="#000000" font-family="sans-serif" font-size="11" lengthAdjust="spacingAndGlyphs" textLength="81" x="801" y="563.4189">+getFreelancer()</text><text fill="#000000" font-family="sans-serif" font-size="11" lengthAdjust="spacingAndGlyphs" textLength="52" x="801" y="577.2549">+getTask()</text><!--MD5=[764fca796ce7f635542948d8fc39db5e]
class Payment--><rect fill="#FEFECE" filter="url(#f1j8lfsygixzuf)" height="75.6719" id="Payment" style="stroke: #A80036; stroke-width: 1.5;" width="142" x="343" y="61"/><ellipse cx="385.9" cy="77" fill="#ADD1B2" rx="11" ry="11" style="stroke: #A80036; stroke-width: 1.0;"/><path d="M387.9,73.5 Q388.1031,73 388.3375,72.75 Q388.5719,72.5 388.8375,72.5 Q389.3063,72.5 389.6031,72.7813 Q389.9,73.0625 389.9,73.7188 L389.9,75.2813 Q389.9,75.9375 389.6188,76.2188 Q389.3375,76.5 388.9,76.5 Q388.5094,76.5 388.2594,76.3281 Q388.0094,76.1563 387.9,75.7031 Q387.8531,75.3906 387.6813,75.2188 Q387.3688,74.8906 386.8063,74.7031 Q386.2438,74.5 385.6813,74.5 Q384.9781,74.5 384.3844,74.7813 Q383.8063,75.0625 383.3531,75.6875 Q382.9,76.3125 382.9,77.1719 L382.9,78.0938 Q382.9,79.125 383.7438,79.8125 Q384.5875,80.5 386.0875,80.5 Q386.9781,80.5 387.6031,80.2969 Q387.9625,80.1875 388.3688,79.8281 Q388.6344,79.625 388.775,79.5625 Q388.9156,79.5 389.0875,79.5 Q389.4156,79.5 389.65,79.7656 Q389.9,80.0156 389.9,80.375 Q389.9,80.7188 389.5563,81.125 Q389.0563,81.7188 388.2594,82.0469 Q387.2125,82.5 385.9313,82.5 Q384.4313,82.5 383.2281,81.9063 Q382.2594,81.4375 381.5719,80.4219 Q380.9,79.4063 380.9,78.2031 L380.9,77.1094 Q380.9,75.8594 381.4938,74.7656 Q382.1031,73.6719 383.15,73.0938 Q384.2125,72.5 385.4,72.5 Q386.1188,72.5 386.7438,72.75 Q387.3688,73 387.9,73.5 Z "/><text fill="#000000" font-family="sans-serif" font-size="12" lengthAdjust="spacingAndGlyphs" textLength="48" x="406.1" y="81.9102">Payment</text><line style="stroke: #A80036; stroke-width: 1.5;" x1="344" x2="484" y1="93" y2="93"/><line style="stroke: #A80036; stroke-width: 1.5;" x1="344" x2="484" y1="101" y2="101"/><text fill="#000000" font-family="sans-serif" font-size="11" lengthAdjust="spacingAndGlyphs" textLength="122" x="349" y="116.4189">+Payment(sum, curr, nltr)</text><text fill="#000000" font-family="sans-serif" font-size="11" lengthAdjust="spacingAndGlyphs" textLength="130" x="349" y="130.2549">+generateReceipt(country)</text><!--MD5=[86cfdc25119a3a20e0664f11a0f5b002]
class Writer--><rect fill="#FEFECE" filter="url(#f1j8lfsygixzuf)" height="61.8359" id="Writer" style="stroke: #A80036; stroke-width: 1.5;" width="137" x="345.5" y="639"/><ellipse cx="393.75" cy="655" fill="#ADD1B2" rx="11" ry="11" style="stroke: #A80036; stroke-width: 1.0;"/><path d="M395.75,651.5 Q395.9531,651 396.1875,650.75 Q396.4219,650.5 396.6875,650.5 Q397.1563,650.5 397.4531,650.7813 Q397.75,651.0625 397.75,651.7188 L397.75,653.2813 Q397.75,653.9375 397.4688,654.2188 Q397.1875,654.5 396.75,654.5 Q396.3594,654.5 396.1094,654.3281 Q395.8594,654.1563 395.75,653.7031 Q395.7031,653.3906 395.5313,653.2188 Q395.2188,652.8906 394.6563,652.7031 Q394.0938,652.5 393.5313,652.5 Q392.8281,652.5 392.2344,652.7813 Q391.6563,653.0625 391.2031,653.6875 Q390.75,654.3125 390.75,655.1719 L390.75,656.0938 Q390.75,657.125 391.5938,657.8125 Q392.4375,658.5 393.9375,658.5 Q394.8281,658.5 395.4531,658.2969 Q395.8125,658.1875 396.2188,657.8281 Q396.4844,657.625 396.625,657.5625 Q396.7656,657.5 396.9375,657.5 Q397.2656,657.5 397.5,657.7656 Q397.75,658.0156 397.75,658.375 Q397.75,658.7188 397.4063,659.125 Q396.9063,659.7188 396.1094,660.0469 Q395.0625,660.5 393.7813,660.5 Q392.2813,660.5 391.0781,659.9063 Q390.1094,659.4375 389.4219,658.4219 Q388.75,657.4063 388.75,656.2031 L388.75,655.1094 Q388.75,653.8594 389.3438,652.7656 Q389.9531,651.6719 391,651.0938 Q392.0625,650.5 393.25,650.5 Q393.9688,650.5 394.5938,650.75 Q395.2188,651 395.75,651.5 Z "/><text fill="#000000" font-family="sans-serif" font-size="12" lengthAdjust="spacingAndGlyphs" textLength="32" x="414.25" y="659.9102">Writer</text><line style="stroke: #A80036; stroke-width: 1.5;" x1="346.5" x2="481.5" y1="671" y2="671"/><line style="stroke: #A80036; stroke-width: 1.5;" x1="346.5" x2="481.5" y1="679" y2="679"/><text fill="#000000" font-family="sans-serif" font-size="11" lengthAdjust="spacingAndGlyphs" textLength="125" x="351.5" y="694.4189">+writeOrg(org, sum, curr)</text><!--MD5=[a3f02aef4fa76ab4417660ad7da3e4cb]
link DoPaymentTask to Platform--><path d="M226.878,343.133 C265.296,359.825 307.913,378.342 342.663,393.44 " fill="none" id="DoPaymentTask-&gt;Platform" style="stroke: #A80036; stroke-width: 1.0; stroke-dasharray: 7.0,7.0;"/><polygon fill="#A80036" points="347.295,395.452,340.635,388.1963,342.7093,393.4592,337.4465,395.5334,347.295,395.452" style="stroke: #A80036; stroke-width: 1.0;"/><!--MD5=[7bdff09eea268fe2e2e459979a85c1c0]
link DoPaymentTask to Organization--><path d="M238.158,311.39 C345.842,323.912 502.003,342.07 583.999,351.604 " fill="none" id="DoPaymentTask-&gt;Organization" style="stroke: #A80036; stroke-width: 1.0; stroke-dasharray: 7.0,7.0;"/><polygon fill="#A80036" points="589.291,352.22,580.8142,347.2056,584.3246,351.6415,579.8886,355.1519,589.291,352.22" style="stroke: #A80036; stroke-width: 1.0;"/><!--MD5=[bd4dc258c99bd36fa08dcfc6a9cf30bc]
link Platform to RegisterFreelancer--><path d="M449.265,385.911 C493.63,336.594 570.107,251.581 611.11,206.002 " fill="none" id="Platform-RegisterFreelancer" style="stroke: #A80036; stroke-width: 1.0;"/><text fill="#000000" font-family="sans-serif" font-size="13" lengthAdjust="spacingAndGlyphs" textLength="21" x="516" y="289.4951">has</text><text fill="#000000" font-family="sans-serif" font-size="13" lengthAdjust="spacingAndGlyphs" textLength="7" x="447.9231" y="375.257">1</text><text fill="#000000" font-family="sans-serif" font-size="13" lengthAdjust="spacingAndGlyphs" textLength="7" x="597.7332" y="227.2264">1</text><!--MD5=[49ce8ea186f6865d1a47f1469d32fd2e]
link RegisterFreelancer to Freelancer--><path d="M709.219,175 C738.447,175 771.767,175 797.781,175 " fill="none" id="RegisterFreelancer-Freelancer" style="stroke: #A80036; stroke-width: 1.0;"/><text fill="#000000" font-family="sans-serif" font-size="13" lengthAdjust="spacingAndGlyphs" textLength="21" x="743" y="171.4951">has</text><text fill="#000000" font-family="sans-serif" font-size="13" lengthAdjust="spacingAndGlyphs" textLength="7" x="717.1726" y="189.3983">1</text><text fill="#000000" font-family="sans-serif" font-size="13" lengthAdjust="spacingAndGlyphs" textLength="20" x="769.9455" y="189.6564">1..*</text><!--MD5=[522c679f4dd7ba84a6aa9ac03f58229d]
link Organization to TaskList--><path d="M690.551,343.737 C725.509,333.675 771.668,320.388 803.9,311.111 " fill="none" id="Organization-TaskList" style="stroke: #A80036; stroke-width: 1.0;"/><text fill="#000000" font-family="sans-serif" font-size="13" lengthAdjust="spacingAndGlyphs" textLength="21" x="743" y="320.4951">has</text><text fill="#000000" font-family="sans-serif" font-size="13" lengthAdjust="spacingAndGlyphs" textLength="7" x="698.4897" y="356.3501">1</text><text fill="#000000" font-family="sans-serif" font-size="13" lengthAdjust="spacingAndGlyphs" textLength="7" x="788.9534" y="328.1772">1</text><!--MD5=[14c738364c5fdafcb97ced6863906d7f]
link TaskList to Task--><path d="M871.598,268.711 C902.071,233.523 951.818,176.08 986.475,136.061 " fill="none" id="TaskList-Task" style="stroke: #A80036; stroke-width: 1.0;"/><text fill="#000000" font-family="sans-serif" font-size="13" lengthAdjust="spacingAndGlyphs" textLength="21" x="923" y="186.4951">has</text><text fill="#000000" font-family="sans-serif" font-size="13" lengthAdjust="spacingAndGlyphs" textLength="7" x="869.6713" y="258.1559">1</text><text fill="#000000" font-family="sans-serif" font-size="13" lengthAdjust="spacingAndGlyphs" textLength="20" x="959.4402" y="157.0771">1..*</text><!--MD5=[7640e466c042ba2d6f9c19c816f7f0fc]
link Platform to Organization--><path d="M480.783,415.157 C499.485,411.858 519.729,407.53 538,402 C555.116,396.819 573.203,389.553 589.267,382.417 " fill="none" id="Platform-Organization" style="stroke: #A80036; stroke-width: 1.0;"/><text fill="#000000" font-family="sans-serif" font-size="13" lengthAdjust="spacingAndGlyphs" textLength="21" x="516" y="398.4951">has</text><text fill="#000000" font-family="sans-serif" font-size="13" lengthAdjust="spacingAndGlyphs" textLength="7" x="488.4702" y="428.5971">1</text><text fill="#000000" font-family="sans-serif" font-size="13" lengthAdjust="spacingAndGlyphs" textLength="20" x="561.4856" y="400.0986">1..*</text><!--MD5=[46d37ede0064d909e6448e911ad77dfb]
link Platform to RegisterTransaction--><path d="M463.881,462.188 C504.431,493.868 561.37,538.352 599.184,567.894 " fill="none" id="Platform-RegisterTransaction" style="stroke: #A80036; stroke-width: 1.0;"/><text fill="#000000" font-family="sans-serif" font-size="13" lengthAdjust="spacingAndGlyphs" textLength="21" x="516" y="503.4951">has</text><text fill="#000000" font-family="sans-serif" font-size="13" lengthAdjust="spacingAndGlyphs" textLength="7" x="464.273" y="483.0985">1</text><text fill="#000000" font-family="sans-serif" font-size="13" lengthAdjust="spacingAndGlyphs" textLength="20" x="568.7032" y="557.3767">1..*</text><!--MD5=[b99abe8d53c7d66ec43f05952bd22f94]
link RegisterTransaction to Transaction--><path d="M712.041,580.314 C739.462,573.102 770.106,565.042 794.801,558.546 " fill="none" id="RegisterTransaction-Transaction" style="stroke: #A80036; stroke-width: 1.0;"/><text fill="#000000" font-family="sans-serif" font-size="13" lengthAdjust="spacingAndGlyphs" textLength="21" x="743" y="564.4951">has</text><text fill="#000000" font-family="sans-serif" font-size="13" lengthAdjust="spacingAndGlyphs" textLength="7" x="719.8312" y="592.7337">1</text><text fill="#000000" font-family="sans-serif" font-size="13" lengthAdjust="spacingAndGlyphs" textLength="20" x="766.9133" y="574.8477">1..*</text><!--MD5=[01a6990a7addb33bf70d78f5235f41c3]
link DoPaymentTask to RegisterFreelancer--><path d="M217.683,252.861 C234.198,246.149 251.406,239.863 268,235 C368.89,205.43 489.756,189.314 565.481,181.43 " fill="none" id="DoPaymentTask-&gt;RegisterFreelancer" style="stroke: #A80036; stroke-width: 1.0; stroke-dasharray: 7.0,7.0;"/><polygon fill="#A80036" points="570.854,180.876,561.4912,177.8201,565.8804,181.3888,562.3117,185.7779,570.854,180.876" style="stroke: #A80036; stroke-width: 1.0;"/><!--MD5=[277f5192405e04ef7839ddb8fe4c5a38]
link DoPaymentTask to Task--><path d="M142.68,252.687 C181.521,171.125 276.293,8 413,8 C413,8 413,8 844.5,8 C889.66,8 935.863,29.613 970.284,50.781 " fill="none" id="DoPaymentTask-&gt;Task" style="stroke: #A80036; stroke-width: 1.0; stroke-dasharray: 7.0,7.0;"/><polygon fill="#A80036" points="974.848,53.628,969.3276,45.4717,970.6053,50.9824,965.0946,52.26,974.848,53.628" style="stroke: #A80036; stroke-width: 1.0;"/><!--MD5=[349f360c2c0b5c3690852a7b966f6a7d]
link DoPaymentTask to RegisterTransaction--><path d="M136.631,343.068 C156.109,399.185 197.565,493.437 268,541 C356.023,600.44 482.272,607.7142 562.44,605.1463 " fill="none" id="DoPaymentTask-&gt;RegisterTransaction" style="stroke: #A80036; stroke-width: 1.0; stroke-dasharray: 7.0,7.0;"/><polygon fill="#A80036" points="567.653,604.9634,558.518,601.2822,562.6561,605.1391,558.7991,609.2772,567.653,604.9634" style="stroke: #A80036; stroke-width: 1.0;"/><!--MD5=[cd0c3c97c804ef598a12875f32df897d]
link DoPaymentTask to Transaction--><path d="M163.153,343.139 C203.923,385.765 271.132,447.687 343,479 C422.453,513.617 678.059,534.78 789.606,542.581 " fill="none" id="DoPaymentTask-&gt;Transaction" style="stroke: #A80036; stroke-width: 1.0; stroke-dasharray: 7.0,7.0;"/><polygon fill="#A80036" points="794.808,542.943,786.1074,538.3279,789.8201,542.5959,785.552,546.3086,794.808,542.943" style="stroke: #A80036; stroke-width: 1.0;"/><!--MD5=[a33e6c31ec556c03382f5393947c6b48]
link DoPaymentTask to Freelancer--><path d="M238.135,291.054 C357.892,282.041 550.15,262.531 712,223 C739.481,216.288 769.149,205.662 793.242,196.113 " fill="none" id="DoPaymentTask-&gt;Freelancer" style="stroke: #A80036; stroke-width: 1.0; stroke-dasharray: 7.0,7.0;"/><polygon fill="#A80036" points="797.984,194.219,788.1423,193.8424,793.3406,196.0735,791.1095,201.2718,797.984,194.219" style="stroke: #A80036; stroke-width: 1.0;"/><!--MD5=[344369354f8f5257fee99fb56dfc25fe]
link DoPaymentTask to Payment--><path d="M168.168,252.98 C195.593,227.081 232.132,195.021 268,171 C291.236,155.439 318.315,141.097 342.738,129.378 " fill="none" id="DoPaymentTask-Payment" style="stroke: #A80036; stroke-width: 1.0;"/><text fill="#000000" font-family="sans-serif" font-size="13" lengthAdjust="spacingAndGlyphs" textLength="43" x="269" y="143.4951">creates</text><text fill="#000000" font-family="sans-serif" font-size="13" lengthAdjust="spacingAndGlyphs" textLength="7" x="167.9682" y="242.0923">1</text><text fill="#000000" font-family="sans-serif" font-size="13" lengthAdjust="spacingAndGlyphs" textLength="20" x="314.9927" y="146.5634">1..*</text><!--MD5=[344369354f8f5257fee99fb56dfc25fe]
link DoPaymentTask to Payment--><path d="M146.966,252.904 C171.543,211.436 213.8,151.854 268,121 C288.968,109.064 314.28,102.95 337.848,99.983 " fill="none" id="DoPaymentTask-&gt;Payment" style="stroke: #A80036; stroke-width: 1.0; stroke-dasharray: 7.0,7.0;"/><polygon fill="#A80036" points="342.848,99.397,333.4439,96.4708,337.8819,99.9785,334.3742,104.4165,342.848,99.397" style="stroke: #A80036; stroke-width: 1.0;"/><!--MD5=[d0956b6d22ad75d32c6c85cdfa66958f]
link Payment to Freelancer--><path d="M485.142,100.089 C545.855,102.282 635.663,108.534 712,126 C739.535,132.3 769.09,143.041 793.098,152.864 " fill="none" id="Payment-&gt;Freelancer" style="stroke: #A80036; stroke-width: 1.0;"/><polygon fill="#A80036" points="797.824,154.815,791.0323,147.6825,793.2026,152.9064,787.9786,155.0767,797.824,154.815" style="stroke: #A80036; stroke-width: 1.0;"/><text fill="#000000" font-family="sans-serif" font-size="13" lengthAdjust="spacingAndGlyphs" textLength="7" x="492.8395" y="114.5565">1</text><text fill="#000000" font-family="sans-serif" font-size="13" lengthAdjust="spacingAndGlyphs" textLength="7" x="782.9866" y="166.4092">1</text><!--MD5=[4801f308cc5fc64a69272346f4f65c14]
link DoPaymentTask to Writer--><path d="M132.61,343.238 C149.109,410.496 188.956,536.971 268,612 C288.003,630.9866 315.002,644.0419 340.28,652.8818 " fill="none" id="DoPaymentTask-&gt;Writer" style="stroke: #A80036; stroke-width: 1.0; stroke-dasharray: 7.0,7.0;"/><polygon fill="#A80036" points="345.31,654.5941,338.0775,647.9089,340.5763,652.984,335.5013,655.4828,345.31,654.5941" style="stroke: #A80036; stroke-width: 1.0;"/><!--MD5=[1ce03b95468a61ab27277485c4e65cdd]
@startuml

skinparam classAttributeIconSize 0
left to right direction


class DoPaymentTask{
    +DoPayment(org)
    +calculateCost(costHour, TimeDuration)
    +convertToCurrency(costHour, TimeDuration)
}

class Platform{
    +getRegisterFreelancer()
    +getRT()
}

class Organization{

    +getTaskList()
}

class RegisterFreelancer{
    +getFreelancer()
}



class Freelancer{
    +getCountry()
}

class TaskList{
    +getTask(i)
}

class Task{
    +getIsPayed()
    +getCostHour()
    +getTimeDuration()
}

class RegisterTransaction{
    +gettltr()
}

class Transaction {
    +getFreelancer()
    +getTask()
}

class Payment{
    +Payment(sum, curr, nltr)
    +generateReceipt(country)
}

class Writer{
    +writeOrg(org, sum, curr)
}

DoPaymentTask ..> Platform
DoPaymentTask ..> Organization
Platform "1" - - "1" RegisterFreelancer : has
RegisterFreelancer "1" - - "1..*" Freelancer : has
Organization "1" - - "1" TaskList : has
TaskList "1" - - "1..*" Task : has
Platform "1" - - "1..*" Organization : has
Platform "1" - - "1..*" RegisterTransaction : has
RegisterTransaction "1" - - "1..*" Transaction : has
DoPaymentTask ..> RegisterFreelancer
DoPaymentTask ..> Task
DoPaymentTask ..> RegisterTransaction
DoPaymentTask ..> Transaction
DoPaymentTask ..> Freelancer
DoPaymentTask "1" - - "1..*" Payment : creates
DoPaymentTask ..> Payment
Payment "1" - -> "1" Freelancer
DoPaymentTask ..> Writer

@enduml

PlantUML version 1.2020.09(Sun May 10 11:51:06 BST 2020)
(GPL source distribution)
Java Runtime: OpenJDK Runtime Environment
JVM: OpenJDK 64-Bit Server VM
Java Version: 11.0.6+8-b765.40
Operating System: Windows 10
Default Encoding: Cp1252
Language: pt
Country: PT
--></g></svg>