<?xml version="1.0" encoding="UTF-8" standalone="no"?><svg xmlns="http://www.w3.org/2000/svg" xmlns:xlink="http://www.w3.org/1999/xlink" contentScriptType="application/ecmascript" contentStyleType="text/css" height="274px" preserveAspectRatio="none" style="width:926px;height:274px;" version="1.1" viewBox="0 0 926 274" width="926px" zoomAndPan="magnify"><defs><filter height="300%" id="fl5su2dixhyk1" width="300%" x="-1" y="-1"><feGaussianBlur result="blurOut" stdDeviation="2.0"/><feColorMatrix in="blurOut" result="blurOut2" type="matrix" values="0 0 0 0 0 0 0 0 0 0 0 0 0 0 0 0 0 0 .4 0"/><feOffset dx="4.0" dy="4.0" in="blurOut2" result="blurOut3"/><feBlend in="SourceGraphic" in2="blurOut3" mode="normal"/></filter></defs><g><!--MD5=[99b8db98afdc2c8404e39242ef4c1e65]
class Platform--><rect fill="#FEFECE" filter="url(#fl5su2dixhyk1)" height="89.5078" id="Platform" style="stroke: #A80036; stroke-width: 1.5;" width="205" x="6" y="91"/><ellipse cx="81.25" cy="107" fill="#ADD1B2" rx="11" ry="11" style="stroke: #A80036; stroke-width: 1.0;"/><path d="M83.25,103.5 Q83.4531,103 83.6875,102.75 Q83.9219,102.5 84.1875,102.5 Q84.6563,102.5 84.9531,102.7813 Q85.25,103.0625 85.25,103.7188 L85.25,105.2813 Q85.25,105.9375 84.9688,106.2188 Q84.6875,106.5 84.25,106.5 Q83.8594,106.5 83.6094,106.3281 Q83.3594,106.1563 83.25,105.7031 Q83.2031,105.3906 83.0313,105.2188 Q82.7188,104.8906 82.1563,104.7031 Q81.5938,104.5 81.0313,104.5 Q80.3281,104.5 79.7344,104.7813 Q79.1563,105.0625 78.7031,105.6875 Q78.25,106.3125 78.25,107.1719 L78.25,108.0938 Q78.25,109.125 79.0938,109.8125 Q79.9375,110.5 81.4375,110.5 Q82.3281,110.5 82.9531,110.2969 Q83.3125,110.1875 83.7188,109.8281 Q83.9844,109.625 84.125,109.5625 Q84.2656,109.5 84.4375,109.5 Q84.7656,109.5 85,109.7656 Q85.25,110.0156 85.25,110.375 Q85.25,110.7188 84.9063,111.125 Q84.4063,111.7188 83.6094,112.0469 Q82.5625,112.5 81.2813,112.5 Q79.7813,112.5 78.5781,111.9063 Q77.6094,111.4375 76.9219,110.4219 Q76.25,109.4063 76.25,108.2031 L76.25,107.1094 Q76.25,105.8594 76.8438,104.7656 Q77.4531,103.6719 78.5,103.0938 Q79.5625,102.5 80.75,102.5 Q81.4688,102.5 82.0938,102.75 Q82.7188,103 83.25,103.5 Z "/><text fill="#000000" font-family="sans-serif" font-size="12" lengthAdjust="spacingAndGlyphs" textLength="46" x="101.75" y="111.9102">Platform</text><line style="stroke: #A80036; stroke-width: 1.5;" x1="7" x2="210" y1="123" y2="123"/><line style="stroke: #A80036; stroke-width: 1.5;" x1="7" x2="210" y1="131" y2="131"/><text fill="#000000" font-family="sans-serif" font-size="11" lengthAdjust="spacingAndGlyphs" textLength="122" x="12" y="146.4189">+calculatePeriod(nrDays)</text><text fill="#000000" font-family="sans-serif" font-size="11" lengthAdjust="spacingAndGlyphs" textLength="51" x="12" y="160.2549">+getTime()</text><text fill="#000000" font-family="sans-serif" font-size="11" lengthAdjust="spacingAndGlyphs" textLength="193" x="12" y="174.0908">+calculateDiference(present, date, time)</text><!--MD5=[77c8a7e42f18426d189d5f8ab40a5f0f]
class DoPaymentTask--><rect fill="#FEFECE" filter="url(#fl5su2dixhyk1)" height="61.8359" id="DoPaymentTask" style="stroke: #A80036; stroke-width: 1.5;" width="123" x="345.5" y="8"/><ellipse cx="360.5" cy="24" fill="#ADD1B2" rx="11" ry="11" style="stroke: #A80036; stroke-width: 1.0;"/><path d="M362.5,20.5 Q362.7031,20 362.9375,19.75 Q363.1719,19.5 363.4375,19.5 Q363.9063,19.5 364.2031,19.7813 Q364.5,20.0625 364.5,20.7188 L364.5,22.2813 Q364.5,22.9375 364.2188,23.2188 Q363.9375,23.5 363.5,23.5 Q363.1094,23.5 362.8594,23.3281 Q362.6094,23.1563 362.5,22.7031 Q362.4531,22.3906 362.2813,22.2188 Q361.9688,21.8906 361.4063,21.7031 Q360.8438,21.5 360.2813,21.5 Q359.5781,21.5 358.9844,21.7813 Q358.4063,22.0625 357.9531,22.6875 Q357.5,23.3125 357.5,24.1719 L357.5,25.0938 Q357.5,26.125 358.3438,26.8125 Q359.1875,27.5 360.6875,27.5 Q361.5781,27.5 362.2031,27.2969 Q362.5625,27.1875 362.9688,26.8281 Q363.2344,26.625 363.375,26.5625 Q363.5156,26.5 363.6875,26.5 Q364.0156,26.5 364.25,26.7656 Q364.5,27.0156 364.5,27.375 Q364.5,27.7188 364.1563,28.125 Q363.6563,28.7188 362.8594,29.0469 Q361.8125,29.5 360.5313,29.5 Q359.0313,29.5 357.8281,28.9063 Q356.8594,28.4375 356.1719,27.4219 Q355.5,26.4063 355.5,25.2031 L355.5,24.1094 Q355.5,22.8594 356.0938,21.7656 Q356.7031,20.6719 357.75,20.0938 Q358.8125,19.5 360,19.5 Q360.7188,19.5 361.3438,19.75 Q361.9688,20 362.5,20.5 Z "/><text fill="#000000" font-family="sans-serif" font-size="12" lengthAdjust="spacingAndGlyphs" textLength="91" x="374.5" y="28.9102">DoPaymentTask</text><line style="stroke: #A80036; stroke-width: 1.5;" x1="346.5" x2="467.5" y1="40" y2="40"/><line style="stroke: #A80036; stroke-width: 1.5;" x1="346.5" x2="467.5" y1="48" y2="48"/><text fill="#000000" font-family="sans-serif" font-size="11" lengthAdjust="spacingAndGlyphs" textLength="84" x="351.5" y="63.4189">+DoPayment(org)</text><!--MD5=[74054751ba3b9eca75fda5044dcc84d9]
class TimerTask--><rect fill="#FEFECE" filter="url(#fl5su2dixhyk1)" height="61.8359" id="TimerTask" style="stroke: #A80036; stroke-width: 1.5;" width="91" x="614" y="8"/><ellipse cx="629" cy="24" fill="#A9DCDF" rx="11" ry="11" style="stroke: #A80036; stroke-width: 1.0;"/><path d="M630.75,25.5 L627.4531,25.5 L627.0156,26.5 L627.0156,26.5 L627.4844,26.5 L628,27.125 L628,27.5 L628,27.875 L627.4844,28.5 L627.0156,28.5 L625.125,28.5 L624.5156,28.5 L624,27.875 L624,27.5 L624,27.125 L624.5156,26.5 L625.125,26.5 L627.4375,20.5 L626.5625,20.5 L625.5156,20.5 L625,19.875 L625,19.5 L625,19.125 L625.5156,18.5 L626.5625,18.5 L630.2344,18.5 L632.9219,26.5 L633.4844,26.5 L633.4844,26.5 L634,27.125 L634,27.5 L634,27.875 L633.4844,28.5 L632.9219,28.5 L631.0313,28.5 L630.5156,28.5 L630,27.875 L630,27.5 L630,27.125 L630.5156,26.5 L631.0313,26.5 L631.0313,26.5 L630.75,25.5 Z M630.2031,23.5 L629,19.9219 L627.9688,23.5 L630.2031,23.5 Z "/><text fill="#000000" font-family="sans-serif" font-size="12" font-style="italic" lengthAdjust="spacingAndGlyphs" textLength="59" x="643" y="28.9102">TimerTask</text><line style="stroke: #A80036; stroke-width: 1.5;" x1="615" x2="704" y1="40" y2="40"/><line style="stroke: #A80036; stroke-width: 1.5;" x1="615" x2="704" y1="48" y2="48"/><text fill="#000000" font-family="sans-serif" font-size="11" lengthAdjust="spacingAndGlyphs" textLength="30" x="620" y="63.4189">+run()</text><!--MD5=[e09e0019787cf83947156283bb671e06]
class RegistOrganization--><rect fill="#FEFECE" filter="url(#fl5su2dixhyk1)" height="61.8359" id="RegistOrganization" style="stroke: #A80036; stroke-width: 1.5;" width="137" x="338.5" y="105"/><ellipse cx="353.5" cy="121" fill="#ADD1B2" rx="11" ry="11" style="stroke: #A80036; stroke-width: 1.0;"/><path d="M355.5,117.5 Q355.7031,117 355.9375,116.75 Q356.1719,116.5 356.4375,116.5 Q356.9063,116.5 357.2031,116.7813 Q357.5,117.0625 357.5,117.7188 L357.5,119.2813 Q357.5,119.9375 357.2188,120.2188 Q356.9375,120.5 356.5,120.5 Q356.1094,120.5 355.8594,120.3281 Q355.6094,120.1563 355.5,119.7031 Q355.4531,119.3906 355.2813,119.2188 Q354.9688,118.8906 354.4063,118.7031 Q353.8438,118.5 353.2813,118.5 Q352.5781,118.5 351.9844,118.7813 Q351.4063,119.0625 350.9531,119.6875 Q350.5,120.3125 350.5,121.1719 L350.5,122.0938 Q350.5,123.125 351.3438,123.8125 Q352.1875,124.5 353.6875,124.5 Q354.5781,124.5 355.2031,124.2969 Q355.5625,124.1875 355.9688,123.8281 Q356.2344,123.625 356.375,123.5625 Q356.5156,123.5 356.6875,123.5 Q357.0156,123.5 357.25,123.7656 Q357.5,124.0156 357.5,124.375 Q357.5,124.7188 357.1563,125.125 Q356.6563,125.7188 355.8594,126.0469 Q354.8125,126.5 353.5313,126.5 Q352.0313,126.5 350.8281,125.9063 Q349.8594,125.4375 349.1719,124.4219 Q348.5,123.4063 348.5,122.2031 L348.5,121.1094 Q348.5,119.8594 349.0938,118.7656 Q349.7031,117.6719 350.75,117.0938 Q351.8125,116.5 353,116.5 Q353.7188,116.5 354.3438,116.75 Q354.9688,117 355.5,117.5 Z "/><text fill="#000000" font-family="sans-serif" font-size="12" lengthAdjust="spacingAndGlyphs" textLength="105" x="367.5" y="125.9102">RegistOrganization</text><line style="stroke: #A80036; stroke-width: 1.5;" x1="339.5" x2="474.5" y1="137" y2="137"/><line style="stroke: #A80036; stroke-width: 1.5;" x1="339.5" x2="474.5" y1="145" y2="145"/><text fill="#000000" font-family="sans-serif" font-size="11" lengthAdjust="spacingAndGlyphs" textLength="43" x="344.5" y="160.4189">+getLO()</text><!--MD5=[86c7c362de55a38b660185a1328fe18d]
class Organization--><rect fill="#FEFECE" filter="url(#fl5su2dixhyk1)" height="61.8359" id="Organization" style="stroke: #A80036; stroke-width: 1.5;" width="113" x="603" y="105"/><ellipse cx="623.4" cy="121" fill="#ADD1B2" rx="11" ry="11" style="stroke: #A80036; stroke-width: 1.0;"/><path d="M625.4,117.5 Q625.6031,117 625.8375,116.75 Q626.0719,116.5 626.3375,116.5 Q626.8063,116.5 627.1031,116.7813 Q627.4,117.0625 627.4,117.7188 L627.4,119.2813 Q627.4,119.9375 627.1188,120.2188 Q626.8375,120.5 626.4,120.5 Q626.0094,120.5 625.7594,120.3281 Q625.5094,120.1563 625.4,119.7031 Q625.3531,119.3906 625.1813,119.2188 Q624.8688,118.8906 624.3063,118.7031 Q623.7438,118.5 623.1813,118.5 Q622.4781,118.5 621.8844,118.7813 Q621.3063,119.0625 620.8531,119.6875 Q620.4,120.3125 620.4,121.1719 L620.4,122.0938 Q620.4,123.125 621.2438,123.8125 Q622.0875,124.5 623.5875,124.5 Q624.4781,124.5 625.1031,124.2969 Q625.4625,124.1875 625.8688,123.8281 Q626.1344,123.625 626.275,123.5625 Q626.4156,123.5 626.5875,123.5 Q626.9156,123.5 627.15,123.7656 Q627.4,124.0156 627.4,124.375 Q627.4,124.7188 627.0563,125.125 Q626.5563,125.7188 625.7594,126.0469 Q624.7125,126.5 623.4313,126.5 Q621.9313,126.5 620.7281,125.9063 Q619.7594,125.4375 619.0719,124.4219 Q618.4,123.4063 618.4,122.2031 L618.4,121.1094 Q618.4,119.8594 618.9938,118.7656 Q619.6031,117.6719 620.65,117.0938 Q621.7125,116.5 622.9,116.5 Q623.6188,116.5 624.2438,116.75 Q624.8688,117 625.4,117.5 Z "/><text fill="#000000" font-family="sans-serif" font-size="12" lengthAdjust="spacingAndGlyphs" textLength="69" x="638.6" y="125.9102">Organization</text><line style="stroke: #A80036; stroke-width: 1.5;" x1="604" x2="715" y1="137" y2="137"/><line style="stroke: #A80036; stroke-width: 1.5;" x1="604" x2="715" y1="145" y2="145"/><text fill="#000000" font-family="sans-serif" font-size="11" lengthAdjust="spacingAndGlyphs" textLength="101" x="609" y="160.4189">+getDefinePayment()</text><!--MD5=[dc112212ffdae1b478a87df5bc652088]
class DefinePayment--><rect fill="#FEFECE" filter="url(#fl5su2dixhyk1)" height="89.5078" id="DefinePayment" style="stroke: #A80036; stroke-width: 1.5;" width="116" x="799" y="91"/><ellipse cx="814" cy="107" fill="#ADD1B2" rx="11" ry="11" style="stroke: #A80036; stroke-width: 1.0;"/><path d="M816,103.5 Q816.2031,103 816.4375,102.75 Q816.6719,102.5 816.9375,102.5 Q817.4063,102.5 817.7031,102.7813 Q818,103.0625 818,103.7188 L818,105.2813 Q818,105.9375 817.7188,106.2188 Q817.4375,106.5 817,106.5 Q816.6094,106.5 816.3594,106.3281 Q816.1094,106.1563 816,105.7031 Q815.9531,105.3906 815.7813,105.2188 Q815.4688,104.8906 814.9063,104.7031 Q814.3438,104.5 813.7813,104.5 Q813.0781,104.5 812.4844,104.7813 Q811.9063,105.0625 811.4531,105.6875 Q811,106.3125 811,107.1719 L811,108.0938 Q811,109.125 811.8438,109.8125 Q812.6875,110.5 814.1875,110.5 Q815.0781,110.5 815.7031,110.2969 Q816.0625,110.1875 816.4688,109.8281 Q816.7344,109.625 816.875,109.5625 Q817.0156,109.5 817.1875,109.5 Q817.5156,109.5 817.75,109.7656 Q818,110.0156 818,110.375 Q818,110.7188 817.6563,111.125 Q817.1563,111.7188 816.3594,112.0469 Q815.3125,112.5 814.0313,112.5 Q812.5313,112.5 811.3281,111.9063 Q810.3594,111.4375 809.6719,110.4219 Q809,109.4063 809,108.2031 L809,107.1094 Q809,105.8594 809.5938,104.7656 Q810.2031,103.6719 811.25,103.0938 Q812.3125,102.5 813.5,102.5 Q814.2188,102.5 814.8438,102.75 Q815.4688,103 816,103.5 Z "/><text fill="#000000" font-family="sans-serif" font-size="12" lengthAdjust="spacingAndGlyphs" textLength="84" x="828" y="111.9102">DefinePayment</text><line style="stroke: #A80036; stroke-width: 1.5;" x1="800" x2="914" y1="123" y2="123"/><line style="stroke: #A80036; stroke-width: 1.5;" x1="800" x2="914" y1="131" y2="131"/><text fill="#000000" font-family="sans-serif" font-size="11" lengthAdjust="spacingAndGlyphs" textLength="51" x="805" y="146.4189">+getTime()</text><text fill="#000000" font-family="sans-serif" font-size="11" lengthAdjust="spacingAndGlyphs" textLength="51" x="805" y="160.2549">+getDate()</text><text fill="#000000" font-family="sans-serif" font-size="11" lengthAdjust="spacingAndGlyphs" textLength="65" x="805" y="174.0908">+getNrDays()</text><!--MD5=[1b844c90688aafb95cd8c95626c3b83a]
class Timer--><rect fill="#FEFECE" filter="url(#fl5su2dixhyk1)" height="61.8359" id="Timer" style="stroke: #A80036; stroke-width: 1.5;" width="226" x="294" y="202"/><ellipse cx="386.75" cy="218" fill="#ADD1B2" rx="11" ry="11" style="stroke: #A80036; stroke-width: 1.0;"/><path d="M388.75,214.5 Q388.9531,214 389.1875,213.75 Q389.4219,213.5 389.6875,213.5 Q390.1563,213.5 390.4531,213.7813 Q390.75,214.0625 390.75,214.7188 L390.75,216.2813 Q390.75,216.9375 390.4688,217.2188 Q390.1875,217.5 389.75,217.5 Q389.3594,217.5 389.1094,217.3281 Q388.8594,217.1563 388.75,216.7031 Q388.7031,216.3906 388.5313,216.2188 Q388.2188,215.8906 387.6563,215.7031 Q387.0938,215.5 386.5313,215.5 Q385.8281,215.5 385.2344,215.7813 Q384.6563,216.0625 384.2031,216.6875 Q383.75,217.3125 383.75,218.1719 L383.75,219.0938 Q383.75,220.125 384.5938,220.8125 Q385.4375,221.5 386.9375,221.5 Q387.8281,221.5 388.4531,221.2969 Q388.8125,221.1875 389.2188,220.8281 Q389.4844,220.625 389.625,220.5625 Q389.7656,220.5 389.9375,220.5 Q390.2656,220.5 390.5,220.7656 Q390.75,221.0156 390.75,221.375 Q390.75,221.7188 390.4063,222.125 Q389.9063,222.7188 389.1094,223.0469 Q388.0625,223.5 386.7813,223.5 Q385.2813,223.5 384.0781,222.9063 Q383.1094,222.4375 382.4219,221.4219 Q381.75,220.4063 381.75,219.2031 L381.75,218.1094 Q381.75,216.8594 382.3438,215.7656 Q382.9531,214.6719 384,214.0938 Q385.0625,213.5 386.25,213.5 Q386.9688,213.5 387.5938,213.75 Q388.2188,214 388.75,214.5 Z "/><text fill="#000000" font-family="sans-serif" font-size="12" lengthAdjust="spacingAndGlyphs" textLength="32" x="407.25" y="222.9102">Timer</text><line style="stroke: #A80036; stroke-width: 1.5;" x1="295" x2="519" y1="234" y2="234"/><line style="stroke: #A80036; stroke-width: 1.5;" x1="295" x2="519" y1="242" y2="242"/><text fill="#000000" font-family="sans-serif" font-size="11" lengthAdjust="spacingAndGlyphs" textLength="214" x="300" y="257.4189">+scheduleAtFixedRate(task, interval, period)</text><!--MD5=[ba8720c803cef1b6a95f2079c8644227]
link DoPaymentTask to TimerTask--><path d="M468.639,39 C511.459,39 568.153,39 608.409,39 " fill="none" id="DoPaymentTask-&gt;TimerTask" style="stroke: #A80036; stroke-width: 1.0; stroke-dasharray: 7.0,7.0;"/><polygon fill="#A80036" points="613.729,39,604.729,35,608.729,39,604.729,43,613.729,39" style="stroke: #A80036; stroke-width: 1.0;"/><!--MD5=[9ca88e6212fe9a722713161aca38de77]
link Platform to DoPaymentTask--><path d="M211.124,102.754 C253.799,88.792 302.214,72.954 340.111,60.556 " fill="none" id="Platform-&gt;DoPaymentTask" style="stroke: #A80036; stroke-width: 1.0;"/><polygon fill="#A80036" points="345.15,58.907,335.3525,57.9025,340.3977,60.4611,337.8391,65.5063,345.15,58.907" style="stroke: #A80036; stroke-width: 1.0;"/><text fill="#000000" font-family="sans-serif" font-size="13" lengthAdjust="spacingAndGlyphs" textLength="21" x="242" y="84.4951">has</text><text fill="#000000" font-family="sans-serif" font-size="13" lengthAdjust="spacingAndGlyphs" textLength="7" x="218.9175" y="114.4261">1</text><text fill="#000000" font-family="sans-serif" font-size="13" lengthAdjust="spacingAndGlyphs" textLength="7" x="330.5939" y="75.6587">1</text><!--MD5=[4671e899716b0dcf633e499c71dc2f16]
link Platform to RegistOrganization--><path d="M211.124,136 C251.069,136 296.042,136 332.711,136 " fill="none" id="Platform-&gt;RegistOrganization" style="stroke: #A80036; stroke-width: 1.0;"/><polygon fill="#A80036" points="338.06,136,329.06,132,333.06,136,329.06,140,338.06,136" style="stroke: #A80036; stroke-width: 1.0;"/><text fill="#000000" font-family="sans-serif" font-size="13" lengthAdjust="spacingAndGlyphs" textLength="21" x="242" y="132.4951">has</text><text fill="#000000" font-family="sans-serif" font-size="13" lengthAdjust="spacingAndGlyphs" textLength="7" x="218.9175" y="150.1136">1</text><text fill="#000000" font-family="sans-serif" font-size="13" lengthAdjust="spacingAndGlyphs" textLength="7" x="323.5896" y="150.3467">1</text><!--MD5=[b2767384522f615c85a28d92ddf7f4b1]
link RegistOrganization to Organization--><path d="M475.789,136 C513.767,136 560.745,136 597.555,136 " fill="none" id="RegistOrganization-&gt;Organization" style="stroke: #A80036; stroke-width: 1.0;"/><polygon fill="#A80036" points="602.91,136,593.91,132,597.91,136,593.91,140,602.91,136" style="stroke: #A80036; stroke-width: 1.0;"/><text fill="#000000" font-family="sans-serif" font-size="13" lengthAdjust="spacingAndGlyphs" textLength="21" x="551" y="132.4951">has</text><text fill="#000000" font-family="sans-serif" font-size="13" lengthAdjust="spacingAndGlyphs" textLength="7" x="483.6956" y="150.3983">1</text><text fill="#000000" font-family="sans-serif" font-size="13" lengthAdjust="spacingAndGlyphs" textLength="20" x="574.7943" y="150.5015">1..*</text><!--MD5=[cb0755ad77e11534d97f26a610810f27]
link Organization to DefinePayment--><path d="M716.261,136 C740.39,136 768.733,136 793.563,136 " fill="none" id="Organization-&gt;DefinePayment" style="stroke: #A80036; stroke-width: 1.0;"/><polygon fill="#A80036" points="798.806,136,789.806,132,793.806,136,789.806,140,798.806,136" style="stroke: #A80036; stroke-width: 1.0;"/><text fill="#000000" font-family="sans-serif" font-size="13" lengthAdjust="spacingAndGlyphs" textLength="21" x="747" y="132.4951">has</text><text fill="#000000" font-family="sans-serif" font-size="13" lengthAdjust="spacingAndGlyphs" textLength="7" x="723.9819" y="150.5531">1</text><text fill="#000000" font-family="sans-serif" font-size="13" lengthAdjust="spacingAndGlyphs" textLength="7" x="783.9015" y="150.5742">1</text><!--MD5=[6568a24136b9563ba91f695ddead1583]
link Platform to Timer--><path d="M211.124,169.2462 C241.835,179.2934 275.518,190.3129 306.115,200.3226 " fill="none" id="Platform-&gt;Timer" style="stroke: #A80036; stroke-width: 1.0;"/><polygon fill="#A80036" points="310.998,201.9201,303.6874,195.3205,306.2457,200.3658,301.2005,202.9241,310.998,201.9201" style="stroke: #A80036; stroke-width: 1.0;"/><text fill="#000000" font-family="sans-serif" font-size="13" lengthAdjust="spacingAndGlyphs" textLength="21" x="242" y="177.4951">has</text><text fill="#000000" font-family="sans-serif" font-size="13" lengthAdjust="spacingAndGlyphs" textLength="7" x="218.9175" y="185.8013">1</text><text fill="#000000" font-family="sans-serif" font-size="13" lengthAdjust="spacingAndGlyphs" textLength="7" x="282.2319" y="190.9229">1</text><!--MD5=[3639518017967c0b385cbb5da0343231]
@startuml
skinparam classAttributeIconSize 0
left to right direction

class Platform{
    +calculatePeriod(nrDays)
    +getTime()
    +calculateDiference(present, date, time)
}

class DoPaymentTask{
    +DoPayment(org)
}

abstract TimerTask{
    +run()
}

class RegistOrganization {
    +getLO()
}

class Organization {
    +getDefinePayment()
}

class DefinePayment {
    +getTime()
    +getDate()
    +getNrDays()
}

class Timer{
    +scheduleAtFixedRate(task, interval, period)
}
DoPaymentTask ..> TimerTask
Platform "1" - -> "1" DoPaymentTask : has
Platform "1" - -> "1" RegistOrganization : has
RegistOrganization "1" - -> "1..*" Organization : has
Organization "1" - -> "1" DefinePayment : has
Platform "1" - -> "1" Timer : has

@enduml

PlantUML version 1.2020.09(Sun May 10 11:51:06 BST 2020)
(GPL source distribution)
Java Runtime: OpenJDK Runtime Environment
JVM: OpenJDK 64-Bit Server VM
Java Version: 11.0.6+8-b765.40
Operating System: Windows 10
Default Encoding: Cp1252
Language: pt
Country: PT
--></g></svg>