<?xml version="1.0" encoding="UTF-8" standalone="no"?><svg xmlns="http://www.w3.org/2000/svg" xmlns:xlink="http://www.w3.org/1999/xlink" contentScriptType="application/ecmascript" contentStyleType="text/css" height="471px" preserveAspectRatio="none" style="width:1170px;height:471px;" version="1.1" viewBox="0 0 1170 471" width="1170px" zoomAndPan="magnify"><defs><filter height="300%" id="f1fvr8xy8tvq3w" width="300%" x="-1" y="-1"><feGaussianBlur result="blurOut" stdDeviation="2.0"/><feColorMatrix in="blurOut" result="blurOut2" type="matrix" values="0 0 0 0 0 0 0 0 0 0 0 0 0 0 0 0 0 0 .4 0"/><feOffset dx="4.0" dy="4.0" in="blurOut2" result="blurOut3"/><feBlend in="SourceGraphic" in2="blurOut3" mode="normal"/></filter></defs><g><!--MD5=[99b8db98afdc2c8404e39242ef4c1e65]
class Platform--><rect fill="#FEFECE" filter="url(#f1fvr8xy8tvq3w)" height="40" id="Platform" style="stroke: #A80036; stroke-width: 1.5;" width="78" x="6" y="256"/><ellipse cx="21" cy="272" fill="#ADD1B2" rx="11" ry="11" style="stroke: #A80036; stroke-width: 1.0;"/><path d="M23,268.5 Q23.2031,268 23.4375,267.75 Q23.6719,267.5 23.9375,267.5 Q24.4063,267.5 24.7031,267.7813 Q25,268.0625 25,268.7188 L25,270.2813 Q25,270.9375 24.7188,271.2188 Q24.4375,271.5 24,271.5 Q23.6094,271.5 23.3594,271.3281 Q23.1094,271.1563 23,270.7031 Q22.9531,270.3906 22.7813,270.2188 Q22.4688,269.8906 21.9063,269.7031 Q21.3438,269.5 20.7813,269.5 Q20.0781,269.5 19.4844,269.7813 Q18.9063,270.0625 18.4531,270.6875 Q18,271.3125 18,272.1719 L18,273.0938 Q18,274.125 18.8438,274.8125 Q19.6875,275.5 21.1875,275.5 Q22.0781,275.5 22.7031,275.2969 Q23.0625,275.1875 23.4688,274.8281 Q23.7344,274.625 23.875,274.5625 Q24.0156,274.5 24.1875,274.5 Q24.5156,274.5 24.75,274.7656 Q25,275.0156 25,275.375 Q25,275.7188 24.6563,276.125 Q24.1563,276.7188 23.3594,277.0469 Q22.3125,277.5 21.0313,277.5 Q19.5313,277.5 18.3281,276.9063 Q17.3594,276.4375 16.6719,275.4219 Q16,274.4063 16,273.2031 L16,272.1094 Q16,270.8594 16.5938,269.7656 Q17.2031,268.6719 18.25,268.0938 Q19.3125,267.5 20.5,267.5 Q21.2188,267.5 21.8438,267.75 Q22.4688,268 23,268.5 Z "/><text fill="#000000" font-family="sans-serif" font-size="12" lengthAdjust="spacingAndGlyphs" textLength="46" x="35" y="276.9102">Platform</text><line style="stroke: #A80036; stroke-width: 1.5;" x1="7" x2="83" y1="288" y2="288"/><!--MD5=[1f687b5315377fe49fca59b457947463]
class Freelancer--><rect fill="#FEFECE" filter="url(#f1fvr8xy8tvq3w)" height="136.8516" id="Freelancer" style="stroke: #A80036; stroke-width: 1.5;" width="91" x="246" y="85.5"/><ellipse cx="261" cy="101.5" fill="#ADD1B2" rx="11" ry="11" style="stroke: #A80036; stroke-width: 1.0;"/><path d="M263,98 Q263.2031,97.5 263.4375,97.25 Q263.6719,97 263.9375,97 Q264.4063,97 264.7031,97.2813 Q265,97.5625 265,98.2188 L265,99.7813 Q265,100.4375 264.7188,100.7188 Q264.4375,101 264,101 Q263.6094,101 263.3594,100.8281 Q263.1094,100.6563 263,100.2031 Q262.9531,99.8906 262.7813,99.7188 Q262.4688,99.3906 261.9063,99.2031 Q261.3438,99 260.7813,99 Q260.0781,99 259.4844,99.2813 Q258.9063,99.5625 258.4531,100.1875 Q258,100.8125 258,101.6719 L258,102.5938 Q258,103.625 258.8438,104.3125 Q259.6875,105 261.1875,105 Q262.0781,105 262.7031,104.7969 Q263.0625,104.6875 263.4688,104.3281 Q263.7344,104.125 263.875,104.0625 Q264.0156,104 264.1875,104 Q264.5156,104 264.75,104.2656 Q265,104.5156 265,104.875 Q265,105.2188 264.6563,105.625 Q264.1563,106.2188 263.3594,106.5469 Q262.3125,107 261.0313,107 Q259.5313,107 258.3281,106.4063 Q257.3594,105.9375 256.6719,104.9219 Q256,103.9063 256,102.7031 L256,101.6094 Q256,100.3594 256.5938,99.2656 Q257.2031,98.1719 258.25,97.5938 Q259.3125,97 260.5,97 Q261.2188,97 261.8438,97.25 Q262.4688,97.5 263,98 Z "/><text fill="#000000" font-family="sans-serif" font-size="12" lengthAdjust="spacingAndGlyphs" textLength="59" x="275" y="106.4102">Freelancer</text><line style="stroke: #A80036; stroke-width: 1.5;" x1="247" x2="336" y1="117.5" y2="117.5"/><text fill="#000000" font-family="sans-serif" font-size="11" lengthAdjust="spacingAndGlyphs" textLength="64" x="252" y="132.9189">-String freeID</text><text fill="#000000" font-family="sans-serif" font-size="11" lengthAdjust="spacingAndGlyphs" textLength="61" x="252" y="146.7549">-String name</text><text fill="#000000" font-family="sans-serif" font-size="11" lengthAdjust="spacingAndGlyphs" textLength="75" x="252" y="160.5908">-String levelExp</text><text fill="#000000" font-family="sans-serif" font-size="11" lengthAdjust="spacingAndGlyphs" textLength="59" x="252" y="174.4268">-String email</text><text fill="#000000" font-family="sans-serif" font-size="11" lengthAdjust="spacingAndGlyphs" textLength="47" x="252" y="188.2627">-String nif</text><text fill="#000000" font-family="sans-serif" font-size="11" lengthAdjust="spacingAndGlyphs" textLength="55" x="252" y="202.0986">-String iban</text><text fill="#000000" font-family="sans-serif" font-size="11" lengthAdjust="spacingAndGlyphs" textLength="72" x="252" y="215.9346">-String country</text><!--MD5=[86c7c362de55a38b660185a1328fe18d]
class Organization--><rect fill="#FEFECE" filter="url(#f1fvr8xy8tvq3w)" height="81.5078" id="Organization" style="stroke: #A80036; stroke-width: 1.5;" width="101" x="241" y="346"/><ellipse cx="256" cy="362" fill="#ADD1B2" rx="11" ry="11" style="stroke: #A80036; stroke-width: 1.0;"/><path d="M258,358.5 Q258.2031,358 258.4375,357.75 Q258.6719,357.5 258.9375,357.5 Q259.4063,357.5 259.7031,357.7813 Q260,358.0625 260,358.7188 L260,360.2813 Q260,360.9375 259.7188,361.2188 Q259.4375,361.5 259,361.5 Q258.6094,361.5 258.3594,361.3281 Q258.1094,361.1563 258,360.7031 Q257.9531,360.3906 257.7813,360.2188 Q257.4688,359.8906 256.9063,359.7031 Q256.3438,359.5 255.7813,359.5 Q255.0781,359.5 254.4844,359.7813 Q253.9063,360.0625 253.4531,360.6875 Q253,361.3125 253,362.1719 L253,363.0938 Q253,364.125 253.8438,364.8125 Q254.6875,365.5 256.1875,365.5 Q257.0781,365.5 257.7031,365.2969 Q258.0625,365.1875 258.4688,364.8281 Q258.7344,364.625 258.875,364.5625 Q259.0156,364.5 259.1875,364.5 Q259.5156,364.5 259.75,364.7656 Q260,365.0156 260,365.375 Q260,365.7188 259.6563,366.125 Q259.1563,366.7188 258.3594,367.0469 Q257.3125,367.5 256.0313,367.5 Q254.5313,367.5 253.3281,366.9063 Q252.3594,366.4375 251.6719,365.4219 Q251,364.4063 251,363.2031 L251,362.1094 Q251,360.8594 251.5938,359.7656 Q252.2031,358.6719 253.25,358.0938 Q254.3125,357.5 255.5,357.5 Q256.2188,357.5 256.8438,357.75 Q257.4688,358 258,358.5 Z "/><text fill="#000000" font-family="sans-serif" font-size="12" lengthAdjust="spacingAndGlyphs" textLength="69" x="270" y="366.9102">Organization</text><line style="stroke: #A80036; stroke-width: 1.5;" x1="242" x2="341" y1="378" y2="378"/><text fill="#000000" font-family="sans-serif" font-size="11" lengthAdjust="spacingAndGlyphs" textLength="61" x="247" y="393.4189">-String nome</text><text fill="#000000" font-family="sans-serif" font-size="11" lengthAdjust="spacingAndGlyphs" textLength="59" x="247" y="407.2549">-String email</text><text fill="#000000" font-family="sans-serif" font-size="11" lengthAdjust="spacingAndGlyphs" textLength="47" x="247" y="421.0908">-String nif</text><!--MD5=[b34797a66dc35cbf1d65f7e3ca75530e]
class Task--><rect fill="#FEFECE" filter="url(#f1fvr8xy8tvq3w)" height="123.0156" id="Task" style="stroke: #A80036; stroke-width: 1.5;" width="111" x="682" y="54.5"/><ellipse cx="720.4" cy="70.5" fill="#ADD1B2" rx="11" ry="11" style="stroke: #A80036; stroke-width: 1.0;"/><path d="M722.4,67 Q722.6031,66.5 722.8375,66.25 Q723.0719,66 723.3375,66 Q723.8063,66 724.1031,66.2813 Q724.4,66.5625 724.4,67.2188 L724.4,68.7813 Q724.4,69.4375 724.1188,69.7188 Q723.8375,70 723.4,70 Q723.0094,70 722.7594,69.8281 Q722.5094,69.6563 722.4,69.2031 Q722.3531,68.8906 722.1813,68.7188 Q721.8688,68.3906 721.3063,68.2031 Q720.7438,68 720.1813,68 Q719.4781,68 718.8844,68.2813 Q718.3063,68.5625 717.8531,69.1875 Q717.4,69.8125 717.4,70.6719 L717.4,71.5938 Q717.4,72.625 718.2438,73.3125 Q719.0875,74 720.5875,74 Q721.4781,74 722.1031,73.7969 Q722.4625,73.6875 722.8688,73.3281 Q723.1344,73.125 723.275,73.0625 Q723.4156,73 723.5875,73 Q723.9156,73 724.15,73.2656 Q724.4,73.5156 724.4,73.875 Q724.4,74.2188 724.0563,74.625 Q723.5563,75.2188 722.7594,75.5469 Q721.7125,76 720.4313,76 Q718.9313,76 717.7281,75.4063 Q716.7594,74.9375 716.0719,73.9219 Q715.4,72.9063 715.4,71.7031 L715.4,70.6094 Q715.4,69.3594 715.9938,68.2656 Q716.6031,67.1719 717.65,66.5938 Q718.7125,66 719.9,66 Q720.6188,66 721.2438,66.25 Q721.8688,66.5 722.4,67 Z "/><text fill="#000000" font-family="sans-serif" font-size="12" lengthAdjust="spacingAndGlyphs" textLength="27" x="739.6" y="75.4102">Task</text><line style="stroke: #A80036; stroke-width: 1.5;" x1="683" x2="792" y1="86.5" y2="86.5"/><text fill="#000000" font-family="sans-serif" font-size="11" lengthAdjust="spacingAndGlyphs" textLength="49" x="688" y="101.9189">-String idT</text><text fill="#000000" font-family="sans-serif" font-size="11" lengthAdjust="spacingAndGlyphs" textLength="88" x="688" y="115.7549">-String description</text><text fill="#000000" font-family="sans-serif" font-size="11" lengthAdjust="spacingAndGlyphs" textLength="88" x="688" y="129.5908">-Time timeDuration</text><text fill="#000000" font-family="sans-serif" font-size="11" lengthAdjust="spacingAndGlyphs" textLength="83" x="688" y="143.4268">-double costHour</text><text fill="#000000" font-family="sans-serif" font-size="11" lengthAdjust="spacingAndGlyphs" textLength="99" x="688" y="157.2627">-String taskCategory</text><text fill="#000000" font-family="sans-serif" font-size="11" lengthAdjust="spacingAndGlyphs" textLength="84" x="688" y="171.0986">-Boolean isPayed</text><!--MD5=[34b75dd4d6d4601c280a5b76e9c1a953]
class Receipt--><rect fill="#FEFECE" filter="url(#f1fvr8xy8tvq3w)" height="40" id="Receipt" style="stroke: #A80036; stroke-width: 1.5;" width="74" x="918" y="56"/><ellipse cx="933" cy="72" fill="#ADD1B2" rx="11" ry="11" style="stroke: #A80036; stroke-width: 1.0;"/><path d="M935,68.5 Q935.2031,68 935.4375,67.75 Q935.6719,67.5 935.9375,67.5 Q936.4063,67.5 936.7031,67.7813 Q937,68.0625 937,68.7188 L937,70.2813 Q937,70.9375 936.7188,71.2188 Q936.4375,71.5 936,71.5 Q935.6094,71.5 935.3594,71.3281 Q935.1094,71.1563 935,70.7031 Q934.9531,70.3906 934.7813,70.2188 Q934.4688,69.8906 933.9063,69.7031 Q933.3438,69.5 932.7813,69.5 Q932.0781,69.5 931.4844,69.7813 Q930.9063,70.0625 930.4531,70.6875 Q930,71.3125 930,72.1719 L930,73.0938 Q930,74.125 930.8438,74.8125 Q931.6875,75.5 933.1875,75.5 Q934.0781,75.5 934.7031,75.2969 Q935.0625,75.1875 935.4688,74.8281 Q935.7344,74.625 935.875,74.5625 Q936.0156,74.5 936.1875,74.5 Q936.5156,74.5 936.75,74.7656 Q937,75.0156 937,75.375 Q937,75.7188 936.6563,76.125 Q936.1563,76.7188 935.3594,77.0469 Q934.3125,77.5 933.0313,77.5 Q931.5313,77.5 930.3281,76.9063 Q929.3594,76.4375 928.6719,75.4219 Q928,74.4063 928,73.2031 L928,72.1094 Q928,70.8594 928.5938,69.7656 Q929.2031,68.6719 930.25,68.0938 Q931.3125,67.5 932.5,67.5 Q933.2188,67.5 933.8438,67.75 Q934.4688,68 935,68.5 Z "/><text fill="#000000" font-family="sans-serif" font-size="12" lengthAdjust="spacingAndGlyphs" textLength="42" x="947" y="76.9102">Receipt</text><line style="stroke: #A80036; stroke-width: 1.5;" x1="919" x2="991" y1="88" y2="88"/><!--MD5=[4555bb1b0911a5adf28ce6dbe60fed2e]
class Transaction--><rect fill="#FEFECE" filter="url(#f1fvr8xy8tvq3w)" height="40" id="Transaction" style="stroke: #A80036; stroke-width: 1.5;" width="97" x="457" y="142"/><ellipse cx="472" cy="158" fill="#ADD1B2" rx="11" ry="11" style="stroke: #A80036; stroke-width: 1.0;"/><path d="M474,154.5 Q474.2031,154 474.4375,153.75 Q474.6719,153.5 474.9375,153.5 Q475.4063,153.5 475.7031,153.7813 Q476,154.0625 476,154.7188 L476,156.2813 Q476,156.9375 475.7188,157.2188 Q475.4375,157.5 475,157.5 Q474.6094,157.5 474.3594,157.3281 Q474.1094,157.1563 474,156.7031 Q473.9531,156.3906 473.7813,156.2188 Q473.4688,155.8906 472.9063,155.7031 Q472.3438,155.5 471.7813,155.5 Q471.0781,155.5 470.4844,155.7813 Q469.9063,156.0625 469.4531,156.6875 Q469,157.3125 469,158.1719 L469,159.0938 Q469,160.125 469.8438,160.8125 Q470.6875,161.5 472.1875,161.5 Q473.0781,161.5 473.7031,161.2969 Q474.0625,161.1875 474.4688,160.8281 Q474.7344,160.625 474.875,160.5625 Q475.0156,160.5 475.1875,160.5 Q475.5156,160.5 475.75,160.7656 Q476,161.0156 476,161.375 Q476,161.7188 475.6563,162.125 Q475.1563,162.7188 474.3594,163.0469 Q473.3125,163.5 472.0313,163.5 Q470.5313,163.5 469.3281,162.9063 Q468.3594,162.4375 467.6719,161.4219 Q467,160.4063 467,159.2031 L467,158.1094 Q467,156.8594 467.5938,155.7656 Q468.2031,154.6719 469.25,154.0938 Q470.3125,153.5 471.5,153.5 Q472.2188,153.5 472.8438,153.75 Q473.4688,154 474,154.5 Z "/><text fill="#000000" font-family="sans-serif" font-size="12" lengthAdjust="spacingAndGlyphs" textLength="65" x="486" y="162.9102">Transaction</text><line style="stroke: #A80036; stroke-width: 1.5;" x1="458" x2="553" y1="174" y2="174"/><!--MD5=[b24ed8d4ae84bae9290d9aab401637c7]
class Manager--><rect fill="#FEFECE" filter="url(#f1fvr8xy8tvq3w)" height="67.6719" id="Manager" style="stroke: #A80036; stroke-width: 1.5;" width="80" x="465.5" y="393"/><ellipse cx="480.5" cy="409" fill="#ADD1B2" rx="11" ry="11" style="stroke: #A80036; stroke-width: 1.0;"/><path d="M482.5,405.5 Q482.7031,405 482.9375,404.75 Q483.1719,404.5 483.4375,404.5 Q483.9063,404.5 484.2031,404.7813 Q484.5,405.0625 484.5,405.7188 L484.5,407.2813 Q484.5,407.9375 484.2188,408.2188 Q483.9375,408.5 483.5,408.5 Q483.1094,408.5 482.8594,408.3281 Q482.6094,408.1563 482.5,407.7031 Q482.4531,407.3906 482.2813,407.2188 Q481.9688,406.8906 481.4063,406.7031 Q480.8438,406.5 480.2813,406.5 Q479.5781,406.5 478.9844,406.7813 Q478.4063,407.0625 477.9531,407.6875 Q477.5,408.3125 477.5,409.1719 L477.5,410.0938 Q477.5,411.125 478.3438,411.8125 Q479.1875,412.5 480.6875,412.5 Q481.5781,412.5 482.2031,412.2969 Q482.5625,412.1875 482.9688,411.8281 Q483.2344,411.625 483.375,411.5625 Q483.5156,411.5 483.6875,411.5 Q484.0156,411.5 484.25,411.7656 Q484.5,412.0156 484.5,412.375 Q484.5,412.7188 484.1563,413.125 Q483.6563,413.7188 482.8594,414.0469 Q481.8125,414.5 480.5313,414.5 Q479.0313,414.5 477.8281,413.9063 Q476.8594,413.4375 476.1719,412.4219 Q475.5,411.4063 475.5,410.2031 L475.5,409.1094 Q475.5,407.8594 476.0938,406.7656 Q476.7031,405.6719 477.75,405.0938 Q478.8125,404.5 480,404.5 Q480.7188,404.5 481.3438,404.75 Q481.9688,405 482.5,405.5 Z "/><text fill="#000000" font-family="sans-serif" font-size="12" lengthAdjust="spacingAndGlyphs" textLength="48" x="494.5" y="413.9102">Manager</text><line style="stroke: #A80036; stroke-width: 1.5;" x1="466.5" x2="544.5" y1="425" y2="425"/><text fill="#000000" font-family="sans-serif" font-size="11" lengthAdjust="spacingAndGlyphs" textLength="61" x="471.5" y="440.4189">-String nome</text><text fill="#000000" font-family="sans-serif" font-size="11" lengthAdjust="spacingAndGlyphs" textLength="59" x="471.5" y="454.2549">-String email</text><!--MD5=[764fca796ce7f635542948d8fc39db5e]
class Payment--><rect fill="#FEFECE" filter="url(#f1fvr8xy8tvq3w)" height="67.6719" id="Payment" style="stroke: #A80036; stroke-width: 1.5;" width="92" x="691.5" y="225"/><ellipse cx="711.9" cy="241" fill="#ADD1B2" rx="11" ry="11" style="stroke: #A80036; stroke-width: 1.0;"/><path d="M713.9,237.5 Q714.1031,237 714.3375,236.75 Q714.5719,236.5 714.8375,236.5 Q715.3063,236.5 715.6031,236.7813 Q715.9,237.0625 715.9,237.7188 L715.9,239.2813 Q715.9,239.9375 715.6188,240.2188 Q715.3375,240.5 714.9,240.5 Q714.5094,240.5 714.2594,240.3281 Q714.0094,240.1563 713.9,239.7031 Q713.8531,239.3906 713.6813,239.2188 Q713.3688,238.8906 712.8063,238.7031 Q712.2438,238.5 711.6813,238.5 Q710.9781,238.5 710.3844,238.7813 Q709.8063,239.0625 709.3531,239.6875 Q708.9,240.3125 708.9,241.1719 L708.9,242.0938 Q708.9,243.125 709.7438,243.8125 Q710.5875,244.5 712.0875,244.5 Q712.9781,244.5 713.6031,244.2969 Q713.9625,244.1875 714.3688,243.8281 Q714.6344,243.625 714.775,243.5625 Q714.9156,243.5 715.0875,243.5 Q715.4156,243.5 715.65,243.7656 Q715.9,244.0156 715.9,244.375 Q715.9,244.7188 715.5563,245.125 Q715.0563,245.7188 714.2594,246.0469 Q713.2125,246.5 711.9313,246.5 Q710.4313,246.5 709.2281,245.9063 Q708.2594,245.4375 707.5719,244.4219 Q706.9,243.4063 706.9,242.2031 L706.9,241.1094 Q706.9,239.8594 707.4938,238.7656 Q708.1031,237.6719 709.15,237.0938 Q710.2125,236.5 711.4,236.5 Q712.1188,236.5 712.7438,236.75 Q713.3688,237 713.9,237.5 Z "/><text fill="#000000" font-family="sans-serif" font-size="12" lengthAdjust="spacingAndGlyphs" textLength="48" x="727.1" y="245.9102">Payment</text><line style="stroke: #A80036; stroke-width: 1.5;" x1="692.5" x2="782.5" y1="257" y2="257"/><text fill="#000000" font-family="sans-serif" font-size="11" lengthAdjust="spacingAndGlyphs" textLength="78" x="697.5" y="272.4189">-Time timeToPay</text><text fill="#000000" font-family="sans-serif" font-size="11" lengthAdjust="spacingAndGlyphs" textLength="80" x="697.5" y="286.2549">-Data dateToPay</text><!--MD5=[86cfdc25119a3a20e0664f11a0f5b002]
class Writer--><rect fill="#FEFECE" filter="url(#f1fvr8xy8tvq3w)" height="40" id="Writer" style="stroke: #A80036; stroke-width: 1.5;" width="64" x="1095" y="56"/><ellipse cx="1110" cy="72" fill="#ADD1B2" rx="11" ry="11" style="stroke: #A80036; stroke-width: 1.0;"/><path d="M1112,68.5 Q1112.2031,68 1112.4375,67.75 Q1112.6719,67.5 1112.9375,67.5 Q1113.4063,67.5 1113.7031,67.7813 Q1114,68.0625 1114,68.7188 L1114,70.2813 Q1114,70.9375 1113.7188,71.2188 Q1113.4375,71.5 1113,71.5 Q1112.6094,71.5 1112.3594,71.3281 Q1112.1094,71.1563 1112,70.7031 Q1111.9531,70.3906 1111.7813,70.2188 Q1111.4688,69.8906 1110.9063,69.7031 Q1110.3438,69.5 1109.7813,69.5 Q1109.0781,69.5 1108.4844,69.7813 Q1107.9063,70.0625 1107.4531,70.6875 Q1107,71.3125 1107,72.1719 L1107,73.0938 Q1107,74.125 1107.8438,74.8125 Q1108.6875,75.5 1110.1875,75.5 Q1111.0781,75.5 1111.7031,75.2969 Q1112.0625,75.1875 1112.4688,74.8281 Q1112.7344,74.625 1112.875,74.5625 Q1113.0156,74.5 1113.1875,74.5 Q1113.5156,74.5 1113.75,74.7656 Q1114,75.0156 1114,75.375 Q1114,75.7188 1113.6563,76.125 Q1113.1563,76.7188 1112.3594,77.0469 Q1111.3125,77.5 1110.0313,77.5 Q1108.5313,77.5 1107.3281,76.9063 Q1106.3594,76.4375 1105.6719,75.4219 Q1105,74.4063 1105,73.2031 L1105,72.1094 Q1105,70.8594 1105.5938,69.7656 Q1106.2031,68.6719 1107.25,68.0938 Q1108.3125,67.5 1109.5,67.5 Q1110.2188,67.5 1110.8438,67.75 Q1111.4688,68 1112,68.5 Z "/><text fill="#000000" font-family="sans-serif" font-size="12" lengthAdjust="spacingAndGlyphs" textLength="32" x="1124" y="76.9102">Writer</text><line style="stroke: #A80036; stroke-width: 1.5;" x1="1096" x2="1158" y1="88" y2="88"/><!--MD5=[83bb469d45366b675450ee1d8d93a557]
link Freelancer to Transaction--><path d="M337.201,155.687 C372.309,157.012 421.086,158.852 456.915,160.204 " fill="none" id="Freelancer-Transaction" style="stroke: #A80036; stroke-width: 1.0;"/><text fill="#000000" font-family="sans-serif" font-size="13" lengthAdjust="spacingAndGlyphs" textLength="40" x="373" y="153.4951">receive</text><polygon fill="#000000" points="416,146.6758,422,149.6758,416,152.6758,416,146.6758" style="stroke: #000000; stroke-width: 1.0;"/><text fill="#000000" font-family="sans-serif" font-size="13" lengthAdjust="spacingAndGlyphs" textLength="7" x="345.0424" y="170.7658">1</text><text fill="#000000" font-family="sans-serif" font-size="13" lengthAdjust="spacingAndGlyphs" textLength="7" x="441.9395" y="174.676">1</text><!--MD5=[910f19d525f345201aad74ebe5d4fbde]
link Freelancer to Receipt--><path d="M337.049,119.013 C348.025,111.591 360.067,104.382 372,99 C544.404,21.24 605.204,14.579 793,37 C836.549,42.199 885.347,55.044 917.685,64.58 " fill="none" id="Freelancer-Receipt" style="stroke: #A80036; stroke-width: 1.0;"/><text fill="#000000" font-family="sans-serif" font-size="13" lengthAdjust="spacingAndGlyphs" textLength="47" x="588" y="22.4951">receives</text><polygon fill="#000000" points="638,15.6758,644,18.6758,638,21.6758,638,15.6758" style="stroke: #000000; stroke-width: 1.0;"/><text fill="#000000" font-family="sans-serif" font-size="13" lengthAdjust="spacingAndGlyphs" textLength="7" x="344.8662" y="128.2469">1</text><text fill="#000000" font-family="sans-serif" font-size="13" lengthAdjust="spacingAndGlyphs" textLength="7" x="902.9046" y="77.4567">1</text><!--MD5=[a1bcd49bda1d48eee0717f7ad534cdd6]
link Freelancer to Payment--><path d="M337.32,174.61 C369.889,188.797 415.374,207 457,218 C538.081,239.426 635.551,250.522 691.338,255.528 " fill="none" id="Freelancer-Payment" style="stroke: #A80036; stroke-width: 1.0;"/><text fill="#000000" font-family="sans-serif" font-size="13" lengthAdjust="spacingAndGlyphs" textLength="47" x="475.5" y="214.4951">receives</text><polygon fill="#000000" points="525.5,207.6758,531.5,210.6758,525.5,213.6758,525.5,207.6758" style="stroke: #000000; stroke-width: 1.0;"/><text fill="#000000" font-family="sans-serif" font-size="13" lengthAdjust="spacingAndGlyphs" textLength="7" x="344.8721" y="192.5243">1</text><text fill="#000000" font-family="sans-serif" font-size="13" lengthAdjust="spacingAndGlyphs" textLength="7" x="676.4231" y="269.7989">1</text><!--MD5=[8853e9d83a8841c20c4ef075af762602]
link Task to Freelancer--><path d="M681.568,109.295 C671.737,108.339 661.576,107.509 652,107 C527.275,100.377 494.481,106.532 372,131 C360.587,133.28 348.438,136.42 337.16,139.647 " fill="none" id="Task-Freelancer" style="stroke: #A80036; stroke-width: 1.0;"/><polygon fill="#000000" points="481,93.6758,475,96.6758,481,99.6758,481,93.6758" style="stroke: #000000; stroke-width: 1.0;"/><text fill="#000000" font-family="sans-serif" font-size="13" lengthAdjust="spacingAndGlyphs" textLength="50" x="487" y="100.4951">made by</text><text fill="#000000" font-family="sans-serif" font-size="13" lengthAdjust="spacingAndGlyphs" textLength="20" x="653.9446" y="122.9593">1..*</text><text fill="#000000" font-family="sans-serif" font-size="13" lengthAdjust="spacingAndGlyphs" textLength="7" x="344.9949" y="152.1695">1</text><!--MD5=[3781be57b219e856d6dd67e0b949b069]
link Platform to Transaction--><path d="M84.3885,279.296 C141.824,282.986 252.899,285.286 342,258 C355.942,253.73 429.058,208.986 472.319,182.116 " fill="none" id="Platform-Transaction" style="stroke: #A80036; stroke-width: 1.0;"/><text fill="#000000" font-family="sans-serif" font-size="13" lengthAdjust="spacingAndGlyphs" textLength="21" x="274.5" y="254.4951">has</text><polygon fill="#000000" points="298.5,247.6758,304.5,250.6758,298.5,253.6758,298.5,247.6758" style="stroke: #000000; stroke-width: 1.0;"/><text fill="#000000" font-family="sans-serif" font-size="13" lengthAdjust="spacingAndGlyphs" textLength="7" x="92.028" y="294.8345">1</text><text fill="#000000" font-family="sans-serif" font-size="13" lengthAdjust="spacingAndGlyphs" textLength="20" x="440.1743" y="203.5682">1..*</text><!--MD5=[7640e466c042ba2d6f9c19c816f7f0fc]
link Platform to Organization--><path d="M73.9876,296.016 C85.9673,304.074 100.3249,313.078 114,320 C155.379,340.944 204.939,359.205 240.993,371.3495 " fill="none" id="Platform-Organization" style="stroke: #A80036; stroke-width: 1.0;"/><text fill="#000000" font-family="sans-serif" font-size="13" lengthAdjust="spacingAndGlyphs" textLength="82" x="115" y="316.4951">has registered</text><polygon fill="#000000" points="200,309.6758,206,312.6758,200,315.6758,200,309.6758" style="stroke: #000000; stroke-width: 1.0;"/><text fill="#000000" font-family="sans-serif" font-size="13" lengthAdjust="spacingAndGlyphs" textLength="7" x="74.156" y="317.4401">1</text><text fill="#000000" font-family="sans-serif" font-size="13" lengthAdjust="spacingAndGlyphs" textLength="20" x="212.8624" y="383.8733">1..*</text><!--MD5=[22697d4d863c2e08ab1d60ca0d61f844]
link Platform to Freelancer--><path d="M84.2031,256.937 C127.987,235.09 199.65,199.332 245.939,176.235 " fill="none" id="Platform-Freelancer" style="stroke: #A80036; stroke-width: 1.0;"/><text fill="#000000" font-family="sans-serif" font-size="13" lengthAdjust="spacingAndGlyphs" textLength="21" x="145.5" y="192.4951">has</text><polygon fill="#000000" points="169.5,185.6758,175.5,188.6758,169.5,191.6758,169.5,185.6758" style="stroke: #000000; stroke-width: 1.0;"/><text fill="#000000" font-family="sans-serif" font-size="13" lengthAdjust="spacingAndGlyphs" textLength="7" x="92.0765" y="268.4248">1</text><text fill="#000000" font-family="sans-serif" font-size="13" lengthAdjust="spacingAndGlyphs" textLength="20" x="218.1257" y="194.0171">1..*</text><!--MD5=[4078351e3988aa35b1504a42837f2ab1]
link Organization to Task--><path d="M342.116,369.8587 C415.08,343.063 553.33,286.115 652,208 C663.392,198.981 674.61,188.381 684.963,177.646 " fill="none" id="Organization-Task" style="stroke: #A80036; stroke-width: 1.0;"/><text fill="#000000" font-family="sans-serif" font-size="13" lengthAdjust="spacingAndGlyphs" textLength="21" x="488.5" y="271.4951">has</text><polygon fill="#000000" points="512.5,264.6758,518.5,267.6758,512.5,270.6758,512.5,264.6758" style="stroke: #000000; stroke-width: 1.0;"/><text fill="#000000" font-family="sans-serif" font-size="13" lengthAdjust="spacingAndGlyphs" textLength="7" x="350.0643" y="382.0732">1</text><text fill="#000000" font-family="sans-serif" font-size="13" lengthAdjust="spacingAndGlyphs" textLength="20" x="657.7322" y="199.2134">1..*</text><!--MD5=[bc039f41cf0b27fadee5cae63fc6e1fe]
link Organization to Manager--><path d="M342.205,396.3782 C379.777,403.4673 430.642,413.0645 465.351,419.6133 " fill="none" id="Organization-Manager" style="stroke: #A80036; stroke-width: 1.0;"/><text fill="#000000" font-family="sans-serif" font-size="13" lengthAdjust="spacingAndGlyphs" textLength="21" x="382.5" y="398.4951">has</text><polygon fill="#000000" points="406.5,391.6758,412.5,394.6758,406.5,397.6758,406.5,391.6758" style="stroke: #000000; stroke-width: 1.0;"/><text fill="#000000" font-family="sans-serif" font-size="13" lengthAdjust="spacingAndGlyphs" textLength="7" x="350.1664" y="412.4877">1</text><text fill="#000000" font-family="sans-serif" font-size="13" lengthAdjust="spacingAndGlyphs" textLength="7" x="450.576" y="433.2782">1</text><!--MD5=[21898ab70dd7e221b590f87a1f131a40]
link Manager to Payment--><path d="M545.516,398.5011 C585.888,369.0122 648.873,323.005 691.366,291.967 " fill="none" id="Manager-Payment" style="stroke: #A80036; stroke-width: 1.0;"/><text fill="#000000" font-family="sans-serif" font-size="13" lengthAdjust="spacingAndGlyphs" textLength="41" x="591" y="319.4951">defines</text><polygon fill="#000000" points="635,312.6758,641,315.6758,635,318.6758,635,312.6758" style="stroke: #000000; stroke-width: 1.0;"/><text fill="#000000" font-family="sans-serif" font-size="13" lengthAdjust="spacingAndGlyphs" textLength="7" x="553.5393" y="408.2794">1</text><text fill="#000000" font-family="sans-serif" font-size="13" lengthAdjust="spacingAndGlyphs" textLength="7" x="676.4556" y="312.0454">1</text><!--MD5=[ee25a9e267be641cadbaef6c1594e19f]
link Transaction to Payment--><path d="M554.156,182.098 C594.419,199.079 651.687,223.231 691.252,239.917 " fill="none" id="Transaction-Payment" style="stroke: #A80036; stroke-width: 1.0;"/><text fill="#000000" font-family="sans-serif" font-size="13" lengthAdjust="spacingAndGlyphs" textLength="53" x="585" y="192.4951">results in</text><polygon fill="#000000" points="641,185.6758,647,188.6758,641,191.6758,641,185.6758" style="stroke: #000000; stroke-width: 1.0;"/><text fill="#000000" font-family="sans-serif" font-size="13" lengthAdjust="spacingAndGlyphs" textLength="7" x="559.8561" y="203.5451">1</text><text fill="#000000" font-family="sans-serif" font-size="13" lengthAdjust="spacingAndGlyphs" textLength="7" x="676.6343" y="251.7671">1</text><!--MD5=[8e4873cec2cb3febaaa9495c716fc885]
link Transaction to Task--><path d="M554.156,152.469 C591.261,145.048 642.809,134.738 681.633,126.973 " fill="none" id="Transaction-Task" style="stroke: #A80036; stroke-width: 1.0;"/><text fill="#000000" font-family="sans-serif" font-size="13" lengthAdjust="spacingAndGlyphs" textLength="21" x="601" y="129.4951">has</text><polygon fill="#000000" points="625,122.6758,631,125.6758,625,128.6758,625,122.6758" style="stroke: #000000; stroke-width: 1.0;"/><text fill="#000000" font-family="sans-serif" font-size="13" lengthAdjust="spacingAndGlyphs" textLength="7" x="562.1424" y="165.7566">1</text><text fill="#000000" font-family="sans-serif" font-size="13" lengthAdjust="spacingAndGlyphs" textLength="7" x="667.0266" y="142.9206">1</text><!--MD5=[264464a3d777ed38cc26833f9af77f81]
link Payment to Receipt--><path d="M778.781,224.794 C823.368,186.931 893.747,127.166 930.259,96.16 " fill="none" id="Payment-Receipt" style="stroke: #A80036; stroke-width: 1.0;"/><text fill="#000000" font-family="sans-serif" font-size="13" lengthAdjust="spacingAndGlyphs" textLength="50" x="824" y="131.4951">generate</text><polygon fill="#000000" points="877,124.6758,883,127.6758,877,130.6758,877,124.6758" style="stroke: #000000; stroke-width: 1.0;"/><text fill="#000000" font-family="sans-serif" font-size="13" lengthAdjust="spacingAndGlyphs" textLength="7" x="779.2191" y="214.0467">1</text><text fill="#000000" font-family="sans-serif" font-size="13" lengthAdjust="spacingAndGlyphs" textLength="7" x="915.3162" y="117.6246">1</text><!--MD5=[5dcb98e97564e4a4002da6305cf8f575]
link Receipt to Writer--><path d="M992.053,76 C1022.56,76 1065.83,76 1094.85,76 " fill="none" id="Receipt-Writer" style="stroke: #A80036; stroke-width: 1.0;"/><text fill="#000000" font-family="sans-serif" font-size="13" lengthAdjust="spacingAndGlyphs" textLength="28" x="1023" y="72.4951">uses</text><polygon fill="#000000" points="1054,65.6758,1060,68.6758,1054,71.6758,1054,65.6758" style="stroke: #000000; stroke-width: 1.0;"/><text fill="#000000" font-family="sans-serif" font-size="13" lengthAdjust="spacingAndGlyphs" textLength="7" x="1000.0369" y="91.1047">1</text><text fill="#000000" font-family="sans-serif" font-size="13" lengthAdjust="spacingAndGlyphs" textLength="7" x="1080.0516" y="91.2836">1</text><!--MD5=[24faf3760c2a7b670611735fa963c580]
@startuml
skinparam classAttributeIconSize 0
hide methods
left to right direction

class Platform{
}
class Freelancer {
  -String freeID
  -String name
  -String levelExp
  -String email
  -String nif
  -String iban
  -String country
}

class Organization {
  -String nome
  -String email
  -String nif
}


class Task {
  -String idT
  -String description
  -Time timeDuration
  -double costHour
  -String taskCategory
  -Boolean isPayed
}

class Receipt {

}

class Transaction {

}

class Manager {
  -String nome
  -String email
}


class Payment{
  -Time timeToPay
  -Data dateToPay
}

class Writer{
}




Freelancer "1" - - "1" Transaction: receive >
Freelancer "1" - - "1" Receipt: receives >
Freelancer "1" - - "1" Payment: receives >

Task "1..*" - - "1" Freelancer: made by >

Platform "1" - - "1..*" Transaction: has >
Platform "1" - - "1..*" Organization: has registered >
Platform "1" - - "1..*" Freelancer: has >

Organization "1" - - "1..*" Task: has >
Organization "1" - - "1" Manager: has >

Manager "1" - - "1" Payment: defines >

Transaction "1" - - "1" Payment: results in >
Transaction "1" - - "1" Task: has >

Payment "1" - - "1" Receipt: generate >

Receipt "1" - - "1" Writer : uses >


@enduml

PlantUML version 1.2020.09(Sun May 10 11:51:06 BST 2020)
(GPL source distribution)
Java Runtime: OpenJDK Runtime Environment
JVM: OpenJDK 64-Bit Server VM
Java Version: 11.0.6+8-b765.40
Operating System: Windows 10
Default Encoding: Cp1252
Language: pt
Country: PT
--></g></svg>