<?xml version="1.0" encoding="UTF-8" standalone="no"?><svg xmlns="http://www.w3.org/2000/svg" xmlns:xlink="http://www.w3.org/1999/xlink" contentScriptType="application/ecmascript" contentStyleType="text/css" height="675.2px" preserveAspectRatio="none" style="width:814px;height:675px;" version="1.1" viewBox="0 0 814 675" width="814.4px" zoomAndPan="magnify"><defs><filter height="300%" id="fiehqnf9ewq1w" width="300%" x="-1" y="-1"><feGaussianBlur result="blurOut" stdDeviation="1.6"/><feColorMatrix in="blurOut" result="blurOut2" type="matrix" values="0 0 0 0 0 0 0 0 0 0 0 0 0 0 0 0 0 0 .4 0"/><feOffset dx="3.2" dy="3.2" in="blurOut2" result="blurOut3"/><feBlend in="SourceGraphic" in2="blurOut3" mode="normal"/></filter></defs><g><!--MD5=[e45a4727c47b726c25e081782e8bc183]
class ApplicationPOT--><rect fill="#FEFECE" filter="url(#fiehqnf9ewq1w)" height="60.5375" id="ApplicationPOT" style="stroke: #A80036; stroke-width: 1.2000000000000002;" width="92.8" x="178.8" y="6.4"/><ellipse cx="190.8" cy="19.2" fill="#ADD1B2" rx="8.8" ry="8.8" style="stroke: #A80036; stroke-width: 0.8;"/><path d="M192.4,16.4 Q192.5625,16 192.75,15.8 Q192.9375,15.6 193.15,15.6 Q193.525,15.6 193.7625,15.825 Q194,16.05 194,16.575 L194,17.825 Q194,18.35 193.775,18.575 Q193.55,18.8 193.2,18.8 Q192.8875,18.8 192.6875,18.6625 Q192.4875,18.525 192.4,18.1625 Q192.3625,17.9125 192.225,17.775 Q191.975,17.5125 191.525,17.3625 Q191.075,17.2 190.625,17.2 Q190.0625,17.2 189.5875,17.425 Q189.125,17.65 188.7625,18.15 Q188.4,18.65 188.4,19.3375 L188.4,20.075 Q188.4,20.9 189.075,21.45 Q189.75,22 190.95,22 Q191.6625,22 192.1625,21.8375 Q192.45,21.75 192.775,21.4625 Q192.9875,21.3 193.1,21.25 Q193.2125,21.2 193.35,21.2 Q193.6125,21.2 193.8,21.4125 Q194,21.6125 194,21.9 Q194,22.175 193.725,22.5 Q193.325,22.975 192.6875,23.2375 Q191.85,23.6 190.825,23.6 Q189.625,23.6 188.6625,23.125 Q187.8875,22.75 187.3375,21.9375 Q186.8,21.125 186.8,20.1625 L186.8,19.2875 Q186.8,18.2875 187.275,17.4125 Q187.7625,16.5375 188.6,16.075 Q189.45,15.6 190.4,15.6 Q190.975,15.6 191.475,15.8 Q191.975,16 192.4,16.4 Z "/><text fill="#000000" font-family="sans-serif" font-size="9.6" lengthAdjust="spacingAndGlyphs" textLength="67.2" x="202" y="23.1281">ApplicationPOT</text><line style="stroke: #A80036; stroke-width: 1.2000000000000002;" x1="179.6" x2="270.8" y1="32" y2="32"/><line style="stroke: #A80036; stroke-width: 1.2000000000000002;" x1="179.6" x2="270.8" y1="38.4" y2="38.4"/><text fill="#000000" font-family="sans-serif" font-size="8.8" lengthAdjust="spacingAndGlyphs" textLength="56" x="183.6" y="50.7352">+getInstance()</text><text fill="#000000" font-family="sans-serif" font-size="8.8" lengthAdjust="spacingAndGlyphs" textLength="54.4" x="183.6" y="61.8039">+getPlatform()</text><!--MD5=[77c8a7e42f18426d189d5f8ab40a5f0f]
class DoPaymentTask--><rect fill="#FEFECE" filter="url(#fiehqnf9ewq1w)" height="60.5375" id="DoPaymentTask" style="stroke: #A80036; stroke-width: 1.2000000000000002;" width="98.4" x="4.8" y="299.2"/><ellipse cx="16.8" cy="312" fill="#ADD1B2" rx="8.8" ry="8.8" style="stroke: #A80036; stroke-width: 0.8;"/><path d="M18.4,309.2 Q18.5625,308.8 18.75,308.6 Q18.9375,308.4 19.15,308.4 Q19.525,308.4 19.7625,308.625 Q20,308.85 20,309.375 L20,310.625 Q20,311.15 19.775,311.375 Q19.55,311.6 19.2,311.6 Q18.8875,311.6 18.6875,311.4625 Q18.4875,311.325 18.4,310.9625 Q18.3625,310.7125 18.225,310.575 Q17.975,310.3125 17.525,310.1625 Q17.075,310 16.625,310 Q16.0625,310 15.5875,310.225 Q15.125,310.45 14.7625,310.95 Q14.4,311.45 14.4,312.1375 L14.4,312.875 Q14.4,313.7 15.075,314.25 Q15.75,314.8 16.95,314.8 Q17.6625,314.8 18.1625,314.6375 Q18.45,314.55 18.775,314.2625 Q18.9875,314.1 19.1,314.05 Q19.2125,314 19.35,314 Q19.6125,314 19.8,314.2125 Q20,314.4125 20,314.7 Q20,314.975 19.725,315.3 Q19.325,315.775 18.6875,316.0375 Q17.85,316.4 16.825,316.4 Q15.625,316.4 14.6625,315.925 Q13.8875,315.55 13.3375,314.7375 Q12.8,313.925 12.8,312.9625 L12.8,312.0875 Q12.8,311.0875 13.275,310.2125 Q13.7625,309.3375 14.6,308.875 Q15.45,308.4 16.4,308.4 Q16.975,308.4 17.475,308.6 Q17.975,308.8 18.4,309.2 Z "/><text fill="#000000" font-family="sans-serif" font-size="9.6" lengthAdjust="spacingAndGlyphs" textLength="72.8" x="28" y="315.9281">DoPaymentTask</text><line style="stroke: #A80036; stroke-width: 1.2000000000000002;" x1="5.6" x2="102.4" y1="324.8" y2="324.8"/><line style="stroke: #A80036; stroke-width: 1.2000000000000002;" x1="5.6" x2="102.4" y1="331.2" y2="331.2"/><text fill="#000000" font-family="sans-serif" font-size="8.8" lengthAdjust="spacingAndGlyphs" textLength="54.4" x="9.6" y="343.5352">+DoPayment()</text><text fill="#000000" font-family="sans-serif" font-size="8.8" lengthAdjust="spacingAndGlyphs" textLength="57.6" x="9.6" y="354.6039">+passOrg(org)</text><!--MD5=[99b8db98afdc2c8404e39242ef4c1e65]
class Platform--><rect fill="#FEFECE" filter="url(#fiehqnf9ewq1w)" height="49.4688" id="Platform" style="stroke: #A80036; stroke-width: 1.2000000000000002;" width="106.4" x="172" y="208.8"/><ellipse cx="203.8" cy="221.6" fill="#ADD1B2" rx="8.8" ry="8.8" style="stroke: #A80036; stroke-width: 0.8;"/><path d="M205.4,218.8 Q205.5625,218.4 205.75,218.2 Q205.9375,218 206.15,218 Q206.525,218 206.7625,218.225 Q207,218.45 207,218.975 L207,220.225 Q207,220.75 206.775,220.975 Q206.55,221.2 206.2,221.2 Q205.8875,221.2 205.6875,221.0625 Q205.4875,220.925 205.4,220.5625 Q205.3625,220.3125 205.225,220.175 Q204.975,219.9125 204.525,219.7625 Q204.075,219.6 203.625,219.6 Q203.0625,219.6 202.5875,219.825 Q202.125,220.05 201.7625,220.55 Q201.4,221.05 201.4,221.7375 L201.4,222.475 Q201.4,223.3 202.075,223.85 Q202.75,224.4 203.95,224.4 Q204.6625,224.4 205.1625,224.2375 Q205.45,224.15 205.775,223.8625 Q205.9875,223.7 206.1,223.65 Q206.2125,223.6 206.35,223.6 Q206.6125,223.6 206.8,223.8125 Q207,224.0125 207,224.3 Q207,224.575 206.725,224.9 Q206.325,225.375 205.6875,225.6375 Q204.85,226 203.825,226 Q202.625,226 201.6625,225.525 Q200.8875,225.15 200.3375,224.3375 Q199.8,223.525 199.8,222.5625 L199.8,221.6875 Q199.8,220.6875 200.275,219.8125 Q200.7625,218.9375 201.6,218.475 Q202.45,218 203.4,218 Q203.975,218 204.475,218.2 Q204.975,218.4 205.4,218.8 Z "/><text fill="#000000" font-family="sans-serif" font-size="9.6" lengthAdjust="spacingAndGlyphs" textLength="36.8" x="219.4" y="225.5281">Platform</text><line style="stroke: #A80036; stroke-width: 1.2000000000000002;" x1="172.8" x2="277.6" y1="234.4" y2="234.4"/><line style="stroke: #A80036; stroke-width: 1.2000000000000002;" x1="172.8" x2="277.6" y1="240.8" y2="240.8"/><text fill="#000000" font-family="sans-serif" font-size="8.8" lengthAdjust="spacingAndGlyphs" textLength="96.8" x="176.8" y="253.1352">+getRegisterFreelancer()</text><!--MD5=[86c7c362de55a38b660185a1328fe18d]
class Organization--><rect fill="#FEFECE" filter="url(#fiehqnf9ewq1w)" height="60.5375" id="Organization" style="stroke: #A80036; stroke-width: 1.2000000000000002;" width="80.8" x="379.6" y="320.8"/><ellipse cx="391.6" cy="333.6" fill="#ADD1B2" rx="8.8" ry="8.8" style="stroke: #A80036; stroke-width: 0.8;"/><path d="M393.2,330.8 Q393.3625,330.4 393.55,330.2 Q393.7375,330 393.95,330 Q394.325,330 394.5625,330.225 Q394.8,330.45 394.8,330.975 L394.8,332.225 Q394.8,332.75 394.575,332.975 Q394.35,333.2 394,333.2 Q393.6875,333.2 393.4875,333.0625 Q393.2875,332.925 393.2,332.5625 Q393.1625,332.3125 393.025,332.175 Q392.775,331.9125 392.325,331.7625 Q391.875,331.6 391.425,331.6 Q390.8625,331.6 390.3875,331.825 Q389.925,332.05 389.5625,332.55 Q389.2,333.05 389.2,333.7375 L389.2,334.475 Q389.2,335.3 389.875,335.85 Q390.55,336.4 391.75,336.4 Q392.4625,336.4 392.9625,336.2375 Q393.25,336.15 393.575,335.8625 Q393.7875,335.7 393.9,335.65 Q394.0125,335.6 394.15,335.6 Q394.4125,335.6 394.6,335.8125 Q394.8,336.0125 394.8,336.3 Q394.8,336.575 394.525,336.9 Q394.125,337.375 393.4875,337.6375 Q392.65,338 391.625,338 Q390.425,338 389.4625,337.525 Q388.6875,337.15 388.1375,336.3375 Q387.6,335.525 387.6,334.5625 L387.6,333.6875 Q387.6,332.6875 388.075,331.8125 Q388.5625,330.9375 389.4,330.475 Q390.25,330 391.2,330 Q391.775,330 392.275,330.2 Q392.775,330.4 393.2,330.8 Z "/><text fill="#000000" font-family="sans-serif" font-size="9.6" lengthAdjust="spacingAndGlyphs" textLength="55.2" x="402.8" y="337.5281">Organization</text><line style="stroke: #A80036; stroke-width: 1.2000000000000002;" x1="380.4" x2="459.6" y1="346.4" y2="346.4"/><line style="stroke: #A80036; stroke-width: 1.2000000000000002;" x1="380.4" x2="459.6" y1="352.8" y2="352.8"/><text fill="#000000" font-family="sans-serif" font-size="8.8" lengthAdjust="spacingAndGlyphs" textLength="55.2" x="384.4" y="365.1352">+getTaskList()</text><text fill="#000000" font-family="sans-serif" font-size="8.8" lengthAdjust="spacingAndGlyphs" textLength="51.2" x="384.4" y="376.2039">+getRTrans()</text><!--MD5=[6735b55cc4e757c70976e457f6d95f3d]
class RegisterFreelancer--><rect fill="#FEFECE" filter="url(#fiehqnf9ewq1w)" height="49.4688" id="RegisterFreelancer" style="stroke: #A80036; stroke-width: 1.2000000000000002;" width="110.4" x="364.8" y="152"/><ellipse cx="376.8" cy="164.8" fill="#ADD1B2" rx="8.8" ry="8.8" style="stroke: #A80036; stroke-width: 0.8;"/><path d="M378.4,162 Q378.5625,161.6 378.75,161.4 Q378.9375,161.2 379.15,161.2 Q379.525,161.2 379.7625,161.425 Q380,161.65 380,162.175 L380,163.425 Q380,163.95 379.775,164.175 Q379.55,164.4 379.2,164.4 Q378.8875,164.4 378.6875,164.2625 Q378.4875,164.125 378.4,163.7625 Q378.3625,163.5125 378.225,163.375 Q377.975,163.1125 377.525,162.9625 Q377.075,162.8 376.625,162.8 Q376.0625,162.8 375.5875,163.025 Q375.125,163.25 374.7625,163.75 Q374.4,164.25 374.4,164.9375 L374.4,165.675 Q374.4,166.5 375.075,167.05 Q375.75,167.6 376.95,167.6 Q377.6625,167.6 378.1625,167.4375 Q378.45,167.35 378.775,167.0625 Q378.9875,166.9 379.1,166.85 Q379.2125,166.8 379.35,166.8 Q379.6125,166.8 379.8,167.0125 Q380,167.2125 380,167.5 Q380,167.775 379.725,168.1 Q379.325,168.575 378.6875,168.8375 Q377.85,169.2 376.825,169.2 Q375.625,169.2 374.6625,168.725 Q373.8875,168.35 373.3375,167.5375 Q372.8,166.725 372.8,165.7625 L372.8,164.8875 Q372.8,163.8875 373.275,163.0125 Q373.7625,162.1375 374.6,161.675 Q375.45,161.2 376.4,161.2 Q376.975,161.2 377.475,161.4 Q377.975,161.6 378.4,162 Z "/><text fill="#000000" font-family="sans-serif" font-size="9.6" lengthAdjust="spacingAndGlyphs" textLength="84.8" x="388" y="168.7281">RegisterFreelancer</text><line style="stroke: #A80036; stroke-width: 1.2000000000000002;" x1="365.6" x2="474.4" y1="177.6" y2="177.6"/><line style="stroke: #A80036; stroke-width: 1.2000000000000002;" x1="365.6" x2="474.4" y1="184" y2="184"/><text fill="#000000" font-family="sans-serif" font-size="8.8" lengthAdjust="spacingAndGlyphs" textLength="78.4" x="369.6" y="196.3352">+getFreelancerList()</text><!--MD5=[1f687b5315377fe49fca59b457947463]
class Freelancer--><rect fill="#FEFECE" filter="url(#fiehqnf9ewq1w)" height="49.4688" id="Freelancer" style="stroke: #A80036; stroke-width: 1.2000000000000002;" width="72.8" x="562.8" y="101.6"/><ellipse cx="574.8" cy="114.4" fill="#ADD1B2" rx="8.8" ry="8.8" style="stroke: #A80036; stroke-width: 0.8;"/><path d="M576.4,111.6 Q576.5625,111.2 576.75,111 Q576.9375,110.8 577.15,110.8 Q577.525,110.8 577.7625,111.025 Q578,111.25 578,111.775 L578,113.025 Q578,113.55 577.775,113.775 Q577.55,114 577.2,114 Q576.8875,114 576.6875,113.8625 Q576.4875,113.725 576.4,113.3625 Q576.3625,113.1125 576.225,112.975 Q575.975,112.7125 575.525,112.5625 Q575.075,112.4 574.625,112.4 Q574.0625,112.4 573.5875,112.625 Q573.125,112.85 572.7625,113.35 Q572.4,113.85 572.4,114.5375 L572.4,115.275 Q572.4,116.1 573.075,116.65 Q573.75,117.2 574.95,117.2 Q575.6625,117.2 576.1625,117.0375 Q576.45,116.95 576.775,116.6625 Q576.9875,116.5 577.1,116.45 Q577.2125,116.4 577.35,116.4 Q577.6125,116.4 577.8,116.6125 Q578,116.8125 578,117.1 Q578,117.375 577.725,117.7 Q577.325,118.175 576.6875,118.4375 Q575.85,118.8 574.825,118.8 Q573.625,118.8 572.6625,118.325 Q571.8875,117.95 571.3375,117.1375 Q570.8,116.325 570.8,115.3625 L570.8,114.4875 Q570.8,113.4875 571.275,112.6125 Q571.7625,111.7375 572.6,111.275 Q573.45,110.8 574.4,110.8 Q574.975,110.8 575.475,111 Q575.975,111.2 576.4,111.6 Z "/><text fill="#000000" font-family="sans-serif" font-size="9.6" lengthAdjust="spacingAndGlyphs" textLength="47.2" x="586" y="118.3281">Freelancer</text><line style="stroke: #A80036; stroke-width: 1.2000000000000002;" x1="563.6" x2="634.8" y1="127.2" y2="127.2"/><line style="stroke: #A80036; stroke-width: 1.2000000000000002;" x1="563.6" x2="634.8" y1="133.6" y2="133.6"/><text fill="#000000" font-family="sans-serif" font-size="8.8" lengthAdjust="spacingAndGlyphs" textLength="53.6" x="567.6" y="145.9352">+getCountry()</text><!--MD5=[cf2635f8a68afd84898027166f4516bc]
class TaskList--><rect fill="#FEFECE" filter="url(#fiehqnf9ewq1w)" height="49.4688" id="TaskList" style="stroke: #A80036; stroke-width: 1.2000000000000002;" width="63.2" x="567.6" y="316.8"/><ellipse cx="579.6" cy="329.6" fill="#ADD1B2" rx="8.8" ry="8.8" style="stroke: #A80036; stroke-width: 0.8;"/><path d="M581.2,326.8 Q581.3625,326.4 581.55,326.2 Q581.7375,326 581.95,326 Q582.325,326 582.5625,326.225 Q582.8,326.45 582.8,326.975 L582.8,328.225 Q582.8,328.75 582.575,328.975 Q582.35,329.2 582,329.2 Q581.6875,329.2 581.4875,329.0625 Q581.2875,328.925 581.2,328.5625 Q581.1625,328.3125 581.025,328.175 Q580.775,327.9125 580.325,327.7625 Q579.875,327.6 579.425,327.6 Q578.8625,327.6 578.3875,327.825 Q577.925,328.05 577.5625,328.55 Q577.2,329.05 577.2,329.7375 L577.2,330.475 Q577.2,331.3 577.875,331.85 Q578.55,332.4 579.75,332.4 Q580.4625,332.4 580.9625,332.2375 Q581.25,332.15 581.575,331.8625 Q581.7875,331.7 581.9,331.65 Q582.0125,331.6 582.15,331.6 Q582.4125,331.6 582.6,331.8125 Q582.8,332.0125 582.8,332.3 Q582.8,332.575 582.525,332.9 Q582.125,333.375 581.4875,333.6375 Q580.65,334 579.625,334 Q578.425,334 577.4625,333.525 Q576.6875,333.15 576.1375,332.3375 Q575.6,331.525 575.6,330.5625 L575.6,329.6875 Q575.6,328.6875 576.075,327.8125 Q576.5625,326.9375 577.4,326.475 Q578.25,326 579.2,326 Q579.775,326 580.275,326.2 Q580.775,326.4 581.2,326.8 Z "/><text fill="#000000" font-family="sans-serif" font-size="9.6" lengthAdjust="spacingAndGlyphs" textLength="37.6" x="590.8" y="333.5281">TaskList</text><line style="stroke: #A80036; stroke-width: 1.2000000000000002;" x1="568.4" x2="630" y1="342.4" y2="342.4"/><line style="stroke: #A80036; stroke-width: 1.2000000000000002;" x1="568.4" x2="630" y1="348.8" y2="348.8"/><text fill="#000000" font-family="sans-serif" font-size="8.8" lengthAdjust="spacingAndGlyphs" textLength="43.2" x="572.4" y="361.1352">+getTask(i)</text><!--MD5=[b34797a66dc35cbf1d65f7e3ca75530e]
class Task--><rect fill="#FEFECE" filter="url(#fiehqnf9ewq1w)" height="71.6063" id="Task" style="stroke: #A80036; stroke-width: 1.2000000000000002;" width="82.4" x="723.2" y="293.6"/><ellipse cx="751.04" cy="306.4" fill="#ADD1B2" rx="8.8" ry="8.8" style="stroke: #A80036; stroke-width: 0.8;"/><path d="M752.64,303.6 Q752.8025,303.2 752.99,303 Q753.1775,302.8 753.39,302.8 Q753.765,302.8 754.0025,303.025 Q754.24,303.25 754.24,303.775 L754.24,305.025 Q754.24,305.55 754.015,305.775 Q753.79,306 753.44,306 Q753.1275,306 752.9275,305.8625 Q752.7275,305.725 752.64,305.3625 Q752.6025,305.1125 752.465,304.975 Q752.215,304.7125 751.765,304.5625 Q751.315,304.4 750.865,304.4 Q750.3025,304.4 749.8275,304.625 Q749.365,304.85 749.0025,305.35 Q748.64,305.85 748.64,306.5375 L748.64,307.275 Q748.64,308.1 749.315,308.65 Q749.99,309.2 751.19,309.2 Q751.9025,309.2 752.4025,309.0375 Q752.69,308.95 753.015,308.6625 Q753.2275,308.5 753.34,308.45 Q753.4525,308.4 753.59,308.4 Q753.8525,308.4 754.04,308.6125 Q754.24,308.8125 754.24,309.1 Q754.24,309.375 753.965,309.7 Q753.565,310.175 752.9275,310.4375 Q752.09,310.8 751.065,310.8 Q749.865,310.8 748.9025,310.325 Q748.1275,309.95 747.5775,309.1375 Q747.04,308.325 747.04,307.3625 L747.04,306.4875 Q747.04,305.4875 747.515,304.6125 Q748.0025,303.7375 748.84,303.275 Q749.69,302.8 750.64,302.8 Q751.215,302.8 751.715,303 Q752.215,303.2 752.64,303.6 Z "/><text fill="#000000" font-family="sans-serif" font-size="9.6" lengthAdjust="spacingAndGlyphs" textLength="21.6" x="765.76" y="310.3281">Task</text><line style="stroke: #A80036; stroke-width: 1.2000000000000002;" x1="724" x2="804.8" y1="319.2" y2="319.2"/><line style="stroke: #A80036; stroke-width: 1.2000000000000002;" x1="724" x2="804.8" y1="325.6" y2="325.6"/><text fill="#000000" font-family="sans-serif" font-size="8.8" lengthAdjust="spacingAndGlyphs" textLength="53.6" x="728" y="337.9352">+getIsPayed()</text><text fill="#000000" font-family="sans-serif" font-size="8.8" lengthAdjust="spacingAndGlyphs" textLength="59.2" x="728" y="349.0039">+getCostHour()</text><text fill="#000000" font-family="sans-serif" font-size="8.8" lengthAdjust="spacingAndGlyphs" textLength="72.8" x="728" y="360.0727">+getTimeDuration()</text><!--MD5=[f6ed7daa03e434106607816c975112f0]
class RegisterTransaction--><rect fill="#FEFECE" filter="url(#fiehqnf9ewq1w)" height="49.4688" id="RegisterTransaction" style="stroke: #A80036; stroke-width: 1.2000000000000002;" width="115.2" x="541.6" y="394.4"/><ellipse cx="553.6" cy="407.2" fill="#ADD1B2" rx="8.8" ry="8.8" style="stroke: #A80036; stroke-width: 0.8;"/><path d="M555.2,404.4 Q555.3625,404 555.55,403.8 Q555.7375,403.6 555.95,403.6 Q556.325,403.6 556.5625,403.825 Q556.8,404.05 556.8,404.575 L556.8,405.825 Q556.8,406.35 556.575,406.575 Q556.35,406.8 556,406.8 Q555.6875,406.8 555.4875,406.6625 Q555.2875,406.525 555.2,406.1625 Q555.1625,405.9125 555.025,405.775 Q554.775,405.5125 554.325,405.3625 Q553.875,405.2 553.425,405.2 Q552.8625,405.2 552.3875,405.425 Q551.925,405.65 551.5625,406.15 Q551.2,406.65 551.2,407.3375 L551.2,408.075 Q551.2,408.9 551.875,409.45 Q552.55,410 553.75,410 Q554.4625,410 554.9625,409.8375 Q555.25,409.75 555.575,409.4625 Q555.7875,409.3 555.9,409.25 Q556.0125,409.2 556.15,409.2 Q556.4125,409.2 556.6,409.4125 Q556.8,409.6125 556.8,409.9 Q556.8,410.175 556.525,410.5 Q556.125,410.975 555.4875,411.2375 Q554.65,411.6 553.625,411.6 Q552.425,411.6 551.4625,411.125 Q550.6875,410.75 550.1375,409.9375 Q549.6,409.125 549.6,408.1625 L549.6,407.2875 Q549.6,406.2875 550.075,405.4125 Q550.5625,404.5375 551.4,404.075 Q552.25,403.6 553.2,403.6 Q553.775,403.6 554.275,403.8 Q554.775,404 555.2,404.4 Z "/><text fill="#000000" font-family="sans-serif" font-size="9.6" lengthAdjust="spacingAndGlyphs" textLength="89.6" x="564.8" y="411.1281">RegisterTransaction</text><line style="stroke: #A80036; stroke-width: 1.2000000000000002;" x1="542.4" x2="656" y1="420" y2="420"/><line style="stroke: #A80036; stroke-width: 1.2000000000000002;" x1="542.4" x2="656" y1="426.4" y2="426.4"/><text fill="#000000" font-family="sans-serif" font-size="8.8" lengthAdjust="spacingAndGlyphs" textLength="73.6" x="546.4" y="438.7352">+getTransactions()</text><!--MD5=[4555bb1b0911a5adf28ce6dbe60fed2e]
class Transaction--><rect fill="#FEFECE" filter="url(#fiehqnf9ewq1w)" height="60.5375" id="Transaction" style="stroke: #A80036; stroke-width: 1.2000000000000002;" width="77.6" x="725.6" y="424.8"/><ellipse cx="737.6" cy="437.6" fill="#ADD1B2" rx="8.8" ry="8.8" style="stroke: #A80036; stroke-width: 0.8;"/><path d="M739.2,434.8 Q739.3625,434.4 739.55,434.2 Q739.7375,434 739.95,434 Q740.325,434 740.5625,434.225 Q740.8,434.45 740.8,434.975 L740.8,436.225 Q740.8,436.75 740.575,436.975 Q740.35,437.2 740,437.2 Q739.6875,437.2 739.4875,437.0625 Q739.2875,436.925 739.2,436.5625 Q739.1625,436.3125 739.025,436.175 Q738.775,435.9125 738.325,435.7625 Q737.875,435.6 737.425,435.6 Q736.8625,435.6 736.3875,435.825 Q735.925,436.05 735.5625,436.55 Q735.2,437.05 735.2,437.7375 L735.2,438.475 Q735.2,439.3 735.875,439.85 Q736.55,440.4 737.75,440.4 Q738.4625,440.4 738.9625,440.2375 Q739.25,440.15 739.575,439.8625 Q739.7875,439.7 739.9,439.65 Q740.0125,439.6 740.15,439.6 Q740.4125,439.6 740.6,439.8125 Q740.8,440.0125 740.8,440.3 Q740.8,440.575 740.525,440.9 Q740.125,441.375 739.4875,441.6375 Q738.65,442 737.625,442 Q736.425,442 735.4625,441.525 Q734.6875,441.15 734.1375,440.3375 Q733.6,439.525 733.6,438.5625 L733.6,437.6875 Q733.6,436.6875 734.075,435.8125 Q734.5625,434.9375 735.4,434.475 Q736.25,434 737.2,434 Q737.775,434 738.275,434.2 Q738.775,434.4 739.2,434.8 Z "/><text fill="#000000" font-family="sans-serif" font-size="9.6" lengthAdjust="spacingAndGlyphs" textLength="52" x="748.8" y="441.5281">Transaction</text><line style="stroke: #A80036; stroke-width: 1.2000000000000002;" x1="726.4" x2="802.4" y1="450.4" y2="450.4"/><line style="stroke: #A80036; stroke-width: 1.2000000000000002;" x1="726.4" x2="802.4" y1="456.8" y2="456.8"/><text fill="#000000" font-family="sans-serif" font-size="8.8" lengthAdjust="spacingAndGlyphs" textLength="64.8" x="730.4" y="469.1352">+getFreelancer()</text><text fill="#000000" font-family="sans-serif" font-size="8.8" lengthAdjust="spacingAndGlyphs" textLength="41.6" x="730.4" y="480.2039">+getTask()</text><!--MD5=[ed74c70821a0645f4af1c19c1cbc911b]
class CurrencyConverter--><rect fill="#FEFECE" filter="url(#fiehqnf9ewq1w)" height="49.4688" id="CurrencyConverter" style="stroke: #A80036; stroke-width: 1.2000000000000002;" width="146.4" x="152" y="528.8"/><ellipse cx="181.64" cy="541.6" fill="#ADD1B2" rx="8.8" ry="8.8" style="stroke: #A80036; stroke-width: 0.8;"/><path d="M183.24,538.8 Q183.4025,538.4 183.59,538.2 Q183.7775,538 183.99,538 Q184.365,538 184.6025,538.225 Q184.84,538.45 184.84,538.975 L184.84,540.225 Q184.84,540.75 184.615,540.975 Q184.39,541.2 184.04,541.2 Q183.7275,541.2 183.5275,541.0625 Q183.3275,540.925 183.24,540.5625 Q183.2025,540.3125 183.065,540.175 Q182.815,539.9125 182.365,539.7625 Q181.915,539.6 181.465,539.6 Q180.9025,539.6 180.4275,539.825 Q179.965,540.05 179.6025,540.55 Q179.24,541.05 179.24,541.7375 L179.24,542.475 Q179.24,543.3 179.915,543.85 Q180.59,544.4 181.79,544.4 Q182.5025,544.4 183.0025,544.2375 Q183.29,544.15 183.615,543.8625 Q183.8275,543.7 183.94,543.65 Q184.0525,543.6 184.19,543.6 Q184.4525,543.6 184.64,543.8125 Q184.84,544.0125 184.84,544.3 Q184.84,544.575 184.565,544.9 Q184.165,545.375 183.5275,545.6375 Q182.69,546 181.665,546 Q180.465,546 179.5025,545.525 Q178.7275,545.15 178.1775,544.3375 Q177.64,543.525 177.64,542.5625 L177.64,541.6875 Q177.64,540.6875 178.115,539.8125 Q178.6025,538.9375 179.44,538.475 Q180.29,538 181.24,538 Q181.815,538 182.315,538.2 Q182.815,538.4 183.24,538.8 Z "/><text fill="#000000" font-family="sans-serif" font-size="9.6" lengthAdjust="spacingAndGlyphs" textLength="81.6" x="196.76" y="545.5281">CurrencyConverter</text><line style="stroke: #A80036; stroke-width: 1.2000000000000002;" x1="152.8" x2="297.6" y1="554.4" y2="554.4"/><line style="stroke: #A80036; stroke-width: 1.2000000000000002;" x1="152.8" x2="297.6" y1="560.8" y2="560.8"/><text fill="#000000" font-family="sans-serif" font-size="8.8" lengthAdjust="spacingAndGlyphs" textLength="136.8" x="156.8" y="573.1352">+convertToCurrency(sum, country)</text><!--MD5=[86cfdc25119a3a20e0664f11a0f5b002]
class Writer--><rect fill="#FEFECE" filter="url(#fiehqnf9ewq1w)" height="60.5375" id="Writer" style="stroke: #A80036; stroke-width: 1.2000000000000002;" width="137.6" x="156.4" y="606.4"/><ellipse cx="209" cy="619.2" fill="#ADD1B2" rx="8.8" ry="8.8" style="stroke: #A80036; stroke-width: 0.8;"/><path d="M210.6,616.4 Q210.7625,616 210.95,615.8 Q211.1375,615.6 211.35,615.6 Q211.725,615.6 211.9625,615.825 Q212.2,616.05 212.2,616.575 L212.2,617.825 Q212.2,618.35 211.975,618.575 Q211.75,618.8 211.4,618.8 Q211.0875,618.8 210.8875,618.6625 Q210.6875,618.525 210.6,618.1625 Q210.5625,617.9125 210.425,617.775 Q210.175,617.5125 209.725,617.3625 Q209.275,617.2 208.825,617.2 Q208.2625,617.2 207.7875,617.425 Q207.325,617.65 206.9625,618.15 Q206.6,618.65 206.6,619.3375 L206.6,620.075 Q206.6,620.9 207.275,621.45 Q207.95,622 209.15,622 Q209.8625,622 210.3625,621.8375 Q210.65,621.75 210.975,621.4625 Q211.1875,621.3 211.3,621.25 Q211.4125,621.2 211.55,621.2 Q211.8125,621.2 212,621.4125 Q212.2,621.6125 212.2,621.9 Q212.2,622.175 211.925,622.5 Q211.525,622.975 210.8875,623.2375 Q210.05,623.6 209.025,623.6 Q207.825,623.6 206.8625,623.125 Q206.0875,622.75 205.5375,621.9375 Q205,621.125 205,620.1625 L205,619.2875 Q205,618.2875 205.475,617.4125 Q205.9625,616.5375 206.8,616.075 Q207.65,615.6 208.6,615.6 Q209.175,615.6 209.675,615.8 Q210.175,616 210.6,616.4 Z "/><text fill="#000000" font-family="sans-serif" font-size="9.6" lengthAdjust="spacingAndGlyphs" textLength="25.6" x="225.4" y="623.1281">Writer</text><line style="stroke: #A80036; stroke-width: 1.2000000000000002;" x1="157.2" x2="293.2" y1="632" y2="632"/><line style="stroke: #A80036; stroke-width: 1.2000000000000002;" x1="157.2" x2="293.2" y1="638.4" y2="638.4"/><text fill="#000000" font-family="sans-serif" font-size="8.8" lengthAdjust="spacingAndGlyphs" textLength="79.2" x="161.2" y="650.7352">+writeOrg(org, sum)</text><text fill="#000000" font-family="sans-serif" font-size="8.8" lengthAdjust="spacingAndGlyphs" textLength="128" x="161.2" y="661.8039">+generateReceipt(nltr, sum, curr)</text><!--MD5=[057cfc955434b67236a169891aa41a34]
link DoPaymentTask to ApplicationPOT--><path d="M56.5801,299.1304 C60.9395,249.7512 75.9161,151.4696 127.2,88.8 C139.6472,73.5896 157.7496,62.2144 174.9672,54.0456 " fill="none" id="DoPaymentTask-&gt;ApplicationPOT" style="stroke: #A80036; stroke-width: 0.8; stroke-dasharray: 7.0,7.0;"/><polygon fill="#A80036" points="178.6248,52.3512,170.7467,52.4735,174.9952,54.0323,173.4364,58.2808,178.6248,52.3512" style="stroke: #A80036; stroke-width: 0.8;"/><!--MD5=[a3f02aef4fa76ab4417660ad7da3e4cb]
link DoPaymentTask to Platform--><path d="M96.9672,299.0976 C106.712,292.5048 117.1688,285.784 127.2,280 C140.156,272.5296 154.5048,265.1984 168.1104,258.648 " fill="none" id="DoPaymentTask-&gt;Platform" style="stroke: #A80036; stroke-width: 0.8; stroke-dasharray: 7.0,7.0;"/><polygon fill="#A80036" points="171.9264,256.8216,164.0504,257.0435,168.3184,258.5485,166.8134,262.8164,171.9264,256.8216" style="stroke: #A80036; stroke-width: 0.8;"/><!--MD5=[7bdff09eea268fe2e2e459979a85c1c0]
link DoPaymentTask to Organization--><path d="M103.5664,332.4904 C174.9672,336.7232 306.8872,344.5424 375.3712,348.6024 " fill="none" id="DoPaymentTask-&gt;Organization" style="stroke: #A80036; stroke-width: 0.8; stroke-dasharray: 7.0,7.0;"/><polygon fill="#A80036" points="379.388,348.84,372.3899,345.2198,375.395,348.6034,372.0114,351.6086,379.388,348.84" style="stroke: #A80036; stroke-width: 0.8;"/><!--MD5=[bd4dc258c99bd36fa08dcfc6a9cf30bc]
link Platform to RegisterFreelancer--><path d="M278.4008,219.4032 C298.0192,213.9808 320.4728,207.6464 340.8,201.6 C348.5312,199.3008 356.6688,196.808 364.656,194.32 " fill="none" id="Platform-RegisterFreelancer" style="stroke: #A80036; stroke-width: 0.8;"/><text fill="#000000" font-family="sans-serif" font-size="10.4" lengthAdjust="spacingAndGlyphs" textLength="16.8" x="323.2" y="198.7961">has</text><text fill="#000000" font-family="sans-serif" font-size="10.4" lengthAdjust="spacingAndGlyphs" textLength="5.6" x="284.8759" y="229.3216">1</text><text fill="#000000" font-family="sans-serif" font-size="10.4" lengthAdjust="spacingAndGlyphs" textLength="5.6" x="352.6965" y="207.7549">1</text><!--MD5=[49ce8ea186f6865d1a47f1469d32fd2e]
link RegisterFreelancer to Freelancer--><path d="M475.2928,161.336 C503.7408,153.2624 537.7408,143.6144 562.7944,136.504 " fill="none" id="RegisterFreelancer-Freelancer" style="stroke: #A80036; stroke-width: 0.8;"/><text fill="#000000" font-family="sans-serif" font-size="10.4" lengthAdjust="spacingAndGlyphs" textLength="16.8" x="500" y="147.5961">has</text><text fill="#000000" font-family="sans-serif" font-size="10.4" lengthAdjust="spacingAndGlyphs" textLength="5.6" x="481.6467" y="171.1633">1</text><text fill="#000000" font-family="sans-serif" font-size="10.4" lengthAdjust="spacingAndGlyphs" textLength="16" x="540.2723" y="149.7544">1..*</text><!--MD5=[522c679f4dd7ba84a6aa9ac03f58229d]
link Organization to TaskList--><path d="M460.436,349.0576 C492.7408,347.3112 537.7232,344.88 567.428,343.2744 " fill="none" id="Organization-TaskList" style="stroke: #A80036; stroke-width: 0.8;"/><text fill="#000000" font-family="sans-serif" font-size="10.4" lengthAdjust="spacingAndGlyphs" textLength="16.8" x="500" y="343.5961">has</text><text fill="#000000" font-family="sans-serif" font-size="10.4" lengthAdjust="spacingAndGlyphs" textLength="5.6" x="466.7863" y="360.519">1</text><text fill="#000000" font-family="sans-serif" font-size="10.4" lengthAdjust="spacingAndGlyphs" textLength="5.6" x="555.6699" y="355.5455">1</text><!--MD5=[14c738364c5fdafcb97ced6863906d7f]
link TaskList to Task--><path d="M631.1568,339.3144 C657.208,337.404 694.5576,334.664 722.9568,332.5808 " fill="none" id="TaskList-Task" style="stroke: #A80036; stroke-width: 0.8;"/><text fill="#000000" font-family="sans-serif" font-size="10.4" lengthAdjust="spacingAndGlyphs" textLength="16.8" x="681.6" y="332.3961">has</text><text fill="#000000" font-family="sans-serif" font-size="10.4" lengthAdjust="spacingAndGlyphs" textLength="5.6" x="637.1306" y="350.8531">1</text><text fill="#000000" font-family="sans-serif" font-size="10.4" lengthAdjust="spacingAndGlyphs" textLength="16" x="700.9309" y="344.5613">1..*</text><!--MD5=[7640e466c042ba2d6f9c19c816f7f0fc]
link Platform to Organization--><path d="M266.9728,258.54 C300.092,278.6992 346.444,306.9136 379.2784,326.9 " fill="none" id="Platform-Organization" style="stroke: #A80036; stroke-width: 0.8;"/><text fill="#000000" font-family="sans-serif" font-size="10.4" lengthAdjust="spacingAndGlyphs" textLength="16.8" x="323.2" y="289.9961">has</text><text fill="#000000" font-family="sans-serif" font-size="10.4" lengthAdjust="spacingAndGlyphs" textLength="5.6" x="269.0456" y="275.5468">1</text><text fill="#000000" font-family="sans-serif" font-size="10.4" lengthAdjust="spacingAndGlyphs" textLength="16" x="357.3405" y="335.5477">1..*</text><!--MD5=[1cee15229ba43e7dfa4358cbff3c895a]
link Organization to RegisterTransaction--><path d="M460.436,366.376 C484.256,375.496 514.968,387.2552 541.3656,397.3624 " fill="none" id="Organization-RegisterTransaction" style="stroke: #A80036; stroke-width: 0.8;"/><text fill="#000000" font-family="sans-serif" font-size="10.4" lengthAdjust="spacingAndGlyphs" textLength="16.8" x="500" y="380.3961">has</text><text fill="#000000" font-family="sans-serif" font-size="10.4" lengthAdjust="spacingAndGlyphs" textLength="5.6" x="466.7863" y="380.381">1</text><text fill="#000000" font-family="sans-serif" font-size="10.4" lengthAdjust="spacingAndGlyphs" textLength="16" x="519.2965" y="406.7544">1..*</text><!--MD5=[b99abe8d53c7d66ec43f05952bd22f94]
link RegisterTransaction to Transaction--><path d="M656.9896,431.7408 C679.6752,436.732 705.172,442.3432 725.5424,446.8256 " fill="none" id="RegisterTransaction-Transaction" style="stroke: #A80036; stroke-width: 0.8;"/><text fill="#000000" font-family="sans-serif" font-size="10.4" lengthAdjust="spacingAndGlyphs" textLength="16.8" x="681.6" y="434.7961">has</text><text fill="#000000" font-family="sans-serif" font-size="10.4" lengthAdjust="spacingAndGlyphs" textLength="5.6" x="663.2379" y="444.5114">1</text><text fill="#000000" font-family="sans-serif" font-size="10.4" lengthAdjust="spacingAndGlyphs" textLength="16" x="703.2459" y="457.3929">1..*</text><!--MD5=[01a6990a7addb33bf70d78f5235f41c3]
link DoPaymentTask to RegisterFreelancer--><path d="M67.2395,298.9744 C82.1414,266.72 110.4184,217.4752 152,194.4 C216.508,158.6024 303.7152,160.4232 360.6912,166.9792 " fill="none" id="DoPaymentTask-&gt;RegisterFreelancer" style="stroke: #A80036; stroke-width: 0.8; stroke-dasharray: 7.0,7.0;"/><polygon fill="#A80036" points="364.7408,167.4584,357.9675,163.4332,360.7686,166.9876,357.2142,169.7887,364.7408,167.4584" style="stroke: #A80036; stroke-width: 0.8;"/><!--MD5=[277f5192405e04ef7839ddb8fe4c5a38]
link DoPaymentTask to Task--><path d="M103.392,321.3792 C111.3312,320.2392 119.4816,319.1896 127.2,318.4 C361.4616,294.4288 423.1432,273.1136 656.8,302.4 C677.5376,304.9992 700.0216,310.332 718.9872,315.5928 " fill="none" id="DoPaymentTask-&gt;Task" style="stroke: #A80036; stroke-width: 0.8; stroke-dasharray: 7.0,7.0;"/><polygon fill="#A80036" points="722.9792,316.7136,716.912,311.6868,719.1281,315.6325,715.1823,317.8486,722.9792,316.7136" style="stroke: #A80036; stroke-width: 0.8;"/><!--MD5=[349f360c2c0b5c3690852a7b966f6a7d]
link DoPaymentTask to RegisterTransaction--><path d="M103.2216,340.508 C118.7864,343.9752 136.112,347.792 152,351.2 C246.4304,371.4536 269.352,380.468 364.8,395.2 C423.076,404.1944 490.068,410.6864 537.3256,414.6328 " fill="none" id="DoPaymentTask-&gt;RegisterTransaction" style="stroke: #A80036; stroke-width: 0.8; stroke-dasharray: 7.0,7.0;"/><polygon fill="#A80036" points="541.5496,414.9832,534.6384,411.1996,537.5633,414.6529,534.11,417.5777,541.5496,414.9832" style="stroke: #A80036; stroke-width: 0.8;"/><!--MD5=[cd0c3c97c804ef598a12875f32df897d]
link DoPaymentTask to Transaction--><path d="M70.1981,360.2048 C95.5816,405.8368 150.816,486.4 224.4,486.4 C224.4,486.4 224.4,486.4 600,486.4 C641.8168,486.4 688.5984,476.4424 721.3896,467.7784 " fill="none" id="DoPaymentTask-&gt;Transaction" style="stroke: #A80036; stroke-width: 0.8; stroke-dasharray: 7.0,7.0;"/><polygon fill="#A80036" points="725.3184,466.7288,717.5363,465.4966,721.4541,467.7617,719.1889,471.6795,725.3184,466.7288" style="stroke: #A80036; stroke-width: 0.8;"/><!--MD5=[a33e6c31ec556c03382f5393947c6b48]
link DoPaymentTask to Freelancer--><path d="M61.7759,299.196 C72.9558,258.4816 99.2144,187.9552 152,158.4 C285.0064,83.9288 476.3248,104.8072 558.464,118.6288 " fill="none" id="DoPaymentTask-&gt;Freelancer" style="stroke: #A80036; stroke-width: 0.8; stroke-dasharray: 7.0,7.0;"/><polygon fill="#A80036" points="562.5296,119.3216,555.9708,114.9556,558.5866,118.6484,554.8938,121.2643,562.5296,119.3216" style="stroke: #A80036; stroke-width: 0.8;"/><!--MD5=[4801f308cc5fc64a69272346f4f65c14]
link DoPaymentTask to Writer--><path d="M59.3304,360.0664 C68.5071,412.7304 93.6072,521.94 152,592.8 C155.1424,596.6133 158.7064,600.1834 162.528,603.5086 " fill="none" id="DoPaymentTask-&gt;Writer" style="stroke: #A80036; stroke-width: 0.8; stroke-dasharray: 7.0,7.0;"/><polygon fill="#A80036" points="165.7952,606.2441,162.3293,599.1682,162.7284,603.6761,158.2205,604.0752,165.7952,606.2441" style="stroke: #A80036; stroke-width: 0.8;"/><!--MD5=[dc3f0d46e92d9317016c2def10239f24]
link DoPaymentTask to CurrencyConverter--><path d="M60.2314,360.2872 C68.505,398.9232 87.672,465.2984 127.2,507.2 C134.28,514.7048 142.8232,521.1304 151.8704,526.5928 " fill="none" id="DoPaymentTask-&gt;CurrencyConverter" style="stroke: #A80036; stroke-width: 0.8; stroke-dasharray: 7.0,7.0;"/><polygon fill="#A80036" points="155.4976,528.7176,150.9014,522.318,152.0458,526.6964,147.6675,527.8408,155.4976,528.7176" style="stroke: #A80036; stroke-width: 0.8;"/><!--MD5=[12235dc38c0c9b1b0957d94466596828]
@startuml

skinparam classAttributeIconSize 0
left to right direction

class ApplicationPOT{
    +getInstance()
    +getPlatform()
}

class DoPaymentTask{
    +DoPayment()
    +passOrg(org)
}

class Platform{
    +getRegisterFreelancer()
}

class Organization{
    +getTaskList()
    +getRTrans()
}

class RegisterFreelancer{
    +getFreelancerList()
}

class Freelancer{
    +getCountry()
}

class TaskList{
    +getTask(i)
}

class Task{
    +getIsPayed()
    +getCostHour()
    +getTimeDuration()
}

class RegisterTransaction{
    +getTransactions()
}

class Transaction {
    +getFreelancer()
    +getTask()
}

class CurrencyConverter{
    +convertToCurrency(sum, country)
}

class Writer{
    +writeOrg(org, sum)
    +generateReceipt(nltr, sum, curr)
}

DoPaymentTask ..> ApplicationPOT
DoPaymentTask ..> Platform
DoPaymentTask ..> Organization
Platform "1" - - "1" RegisterFreelancer : has
RegisterFreelancer "1" - - "1..*" Freelancer : has
Organization "1" - - "1" TaskList : has
TaskList "1" - - "1..*" Task : has
Platform "1" - - "1..*" Organization : has
Organization "1" - - "1..*" RegisterTransaction : has
RegisterTransaction "1" - - "1..*" Transaction : has
DoPaymentTask ..> RegisterFreelancer
DoPaymentTask ..> Task
DoPaymentTask ..> RegisterTransaction
DoPaymentTask ..> Transaction
DoPaymentTask ..> Freelancer
DoPaymentTask ..> Writer
DoPaymentTask ..> CurrencyConverter

@enduml

PlantUML version 1.2020.09(Sun May 10 11:51:06 BST 2020)
(GPL source distribution)
Java Runtime: OpenJDK Runtime Environment
JVM: OpenJDK 64-Bit Server VM
Java Version: 11.0.6+8-b765.40
Operating System: Windows 10
Default Encoding: Cp1252
Language: pt
Country: PT
--></g></svg>