<?xml version="1.0" encoding="UTF-8" standalone="no"?><svg xmlns="http://www.w3.org/2000/svg" xmlns:xlink="http://www.w3.org/1999/xlink" contentScriptType="application/ecmascript" contentStyleType="text/css" height="443px" preserveAspectRatio="none" style="width:1022px;height:443px;" version="1.1" viewBox="0 0 1022 443" width="1022px" zoomAndPan="magnify"><defs><filter height="300%" id="f1wco344cbw9a3" width="300%" x="-1" y="-1"><feGaussianBlur result="blurOut" stdDeviation="2.0"/><feColorMatrix in="blurOut" result="blurOut2" type="matrix" values="0 0 0 0 0 0 0 0 0 0 0 0 0 0 0 0 0 0 .4 0"/><feOffset dx="4.0" dy="4.0" in="blurOut2" result="blurOut3"/><feBlend in="SourceGraphic" in2="blurOut3" mode="normal"/></filter></defs><g><!--MD5=[99b8db98afdc2c8404e39242ef4c1e65]
class Platform--><rect fill="#FEFECE" filter="url(#f1wco344cbw9a3)" height="40" id="Platform" style="stroke: #A80036; stroke-width: 1.5;" width="78" x="6" y="255"/><ellipse cx="21" cy="271" fill="#ADD1B2" rx="11" ry="11" style="stroke: #A80036; stroke-width: 1.0;"/><path d="M23,267.5 Q23.2031,267 23.4375,266.75 Q23.6719,266.5 23.9375,266.5 Q24.4063,266.5 24.7031,266.7813 Q25,267.0625 25,267.7188 L25,269.2813 Q25,269.9375 24.7188,270.2188 Q24.4375,270.5 24,270.5 Q23.6094,270.5 23.3594,270.3281 Q23.1094,270.1563 23,269.7031 Q22.9531,269.3906 22.7813,269.2188 Q22.4688,268.8906 21.9063,268.7031 Q21.3438,268.5 20.7813,268.5 Q20.0781,268.5 19.4844,268.7813 Q18.9063,269.0625 18.4531,269.6875 Q18,270.3125 18,271.1719 L18,272.0938 Q18,273.125 18.8438,273.8125 Q19.6875,274.5 21.1875,274.5 Q22.0781,274.5 22.7031,274.2969 Q23.0625,274.1875 23.4688,273.8281 Q23.7344,273.625 23.875,273.5625 Q24.0156,273.5 24.1875,273.5 Q24.5156,273.5 24.75,273.7656 Q25,274.0156 25,274.375 Q25,274.7188 24.6563,275.125 Q24.1563,275.7188 23.3594,276.0469 Q22.3125,276.5 21.0313,276.5 Q19.5313,276.5 18.3281,275.9063 Q17.3594,275.4375 16.6719,274.4219 Q16,273.4063 16,272.2031 L16,271.1094 Q16,269.8594 16.5938,268.7656 Q17.2031,267.6719 18.25,267.0938 Q19.3125,266.5 20.5,266.5 Q21.2188,266.5 21.8438,266.75 Q22.4688,267 23,267.5 Z "/><text fill="#000000" font-family="sans-serif" font-size="12" lengthAdjust="spacingAndGlyphs" textLength="46" x="35" y="275.9102">Platform</text><line style="stroke: #A80036; stroke-width: 1.5;" x1="7" x2="83" y1="287" y2="287"/><!--MD5=[1f687b5315377fe49fca59b457947463]
class Freelancer--><rect fill="#FEFECE" filter="url(#f1wco344cbw9a3)" height="136.8516" id="Freelancer" style="stroke: #A80036; stroke-width: 1.5;" width="91" x="246" y="84.5"/><ellipse cx="261" cy="100.5" fill="#ADD1B2" rx="11" ry="11" style="stroke: #A80036; stroke-width: 1.0;"/><path d="M263,97 Q263.2031,96.5 263.4375,96.25 Q263.6719,96 263.9375,96 Q264.4063,96 264.7031,96.2813 Q265,96.5625 265,97.2188 L265,98.7813 Q265,99.4375 264.7188,99.7188 Q264.4375,100 264,100 Q263.6094,100 263.3594,99.8281 Q263.1094,99.6563 263,99.2031 Q262.9531,98.8906 262.7813,98.7188 Q262.4688,98.3906 261.9063,98.2031 Q261.3438,98 260.7813,98 Q260.0781,98 259.4844,98.2813 Q258.9063,98.5625 258.4531,99.1875 Q258,99.8125 258,100.6719 L258,101.5938 Q258,102.625 258.8438,103.3125 Q259.6875,104 261.1875,104 Q262.0781,104 262.7031,103.7969 Q263.0625,103.6875 263.4688,103.3281 Q263.7344,103.125 263.875,103.0625 Q264.0156,103 264.1875,103 Q264.5156,103 264.75,103.2656 Q265,103.5156 265,103.875 Q265,104.2188 264.6563,104.625 Q264.1563,105.2188 263.3594,105.5469 Q262.3125,106 261.0313,106 Q259.5313,106 258.3281,105.4063 Q257.3594,104.9375 256.6719,103.9219 Q256,102.9063 256,101.7031 L256,100.6094 Q256,99.3594 256.5938,98.2656 Q257.2031,97.1719 258.25,96.5938 Q259.3125,96 260.5,96 Q261.2188,96 261.8438,96.25 Q262.4688,96.5 263,97 Z "/><text fill="#000000" font-family="sans-serif" font-size="12" lengthAdjust="spacingAndGlyphs" textLength="59" x="275" y="105.4102">Freelancer</text><line style="stroke: #A80036; stroke-width: 1.5;" x1="247" x2="336" y1="116.5" y2="116.5"/><text fill="#000000" font-family="sans-serif" font-size="11" lengthAdjust="spacingAndGlyphs" textLength="64" x="252" y="131.9189">-String freeID</text><text fill="#000000" font-family="sans-serif" font-size="11" lengthAdjust="spacingAndGlyphs" textLength="61" x="252" y="145.7549">-String name</text><text fill="#000000" font-family="sans-serif" font-size="11" lengthAdjust="spacingAndGlyphs" textLength="75" x="252" y="159.5908">-String levelExp</text><text fill="#000000" font-family="sans-serif" font-size="11" lengthAdjust="spacingAndGlyphs" textLength="59" x="252" y="173.4268">-String email</text><text fill="#000000" font-family="sans-serif" font-size="11" lengthAdjust="spacingAndGlyphs" textLength="47" x="252" y="187.2627">-String nif</text><text fill="#000000" font-family="sans-serif" font-size="11" lengthAdjust="spacingAndGlyphs" textLength="55" x="252" y="201.0986">-String iban</text><text fill="#000000" font-family="sans-serif" font-size="11" lengthAdjust="spacingAndGlyphs" textLength="72" x="252" y="214.9346">-String country</text><!--MD5=[86c7c362de55a38b660185a1328fe18d]
class Organization--><rect fill="#FEFECE" filter="url(#f1wco344cbw9a3)" height="81.5078" id="Organization" style="stroke: #A80036; stroke-width: 1.5;" width="101" x="241" y="345"/><ellipse cx="256" cy="361" fill="#ADD1B2" rx="11" ry="11" style="stroke: #A80036; stroke-width: 1.0;"/><path d="M258,357.5 Q258.2031,357 258.4375,356.75 Q258.6719,356.5 258.9375,356.5 Q259.4063,356.5 259.7031,356.7813 Q260,357.0625 260,357.7188 L260,359.2813 Q260,359.9375 259.7188,360.2188 Q259.4375,360.5 259,360.5 Q258.6094,360.5 258.3594,360.3281 Q258.1094,360.1563 258,359.7031 Q257.9531,359.3906 257.7813,359.2188 Q257.4688,358.8906 256.9063,358.7031 Q256.3438,358.5 255.7813,358.5 Q255.0781,358.5 254.4844,358.7813 Q253.9063,359.0625 253.4531,359.6875 Q253,360.3125 253,361.1719 L253,362.0938 Q253,363.125 253.8438,363.8125 Q254.6875,364.5 256.1875,364.5 Q257.0781,364.5 257.7031,364.2969 Q258.0625,364.1875 258.4688,363.8281 Q258.7344,363.625 258.875,363.5625 Q259.0156,363.5 259.1875,363.5 Q259.5156,363.5 259.75,363.7656 Q260,364.0156 260,364.375 Q260,364.7188 259.6563,365.125 Q259.1563,365.7188 258.3594,366.0469 Q257.3125,366.5 256.0313,366.5 Q254.5313,366.5 253.3281,365.9063 Q252.3594,365.4375 251.6719,364.4219 Q251,363.4063 251,362.2031 L251,361.1094 Q251,359.8594 251.5938,358.7656 Q252.2031,357.6719 253.25,357.0938 Q254.3125,356.5 255.5,356.5 Q256.2188,356.5 256.8438,356.75 Q257.4688,357 258,357.5 Z "/><text fill="#000000" font-family="sans-serif" font-size="12" lengthAdjust="spacingAndGlyphs" textLength="69" x="270" y="365.9102">Organization</text><line style="stroke: #A80036; stroke-width: 1.5;" x1="242" x2="341" y1="377" y2="377"/><text fill="#000000" font-family="sans-serif" font-size="11" lengthAdjust="spacingAndGlyphs" textLength="61" x="247" y="392.4189">-String nome</text><text fill="#000000" font-family="sans-serif" font-size="11" lengthAdjust="spacingAndGlyphs" textLength="59" x="247" y="406.2549">-String email</text><text fill="#000000" font-family="sans-serif" font-size="11" lengthAdjust="spacingAndGlyphs" textLength="47" x="247" y="420.0908">-String nif</text><!--MD5=[b34797a66dc35cbf1d65f7e3ca75530e]
class Task--><rect fill="#FEFECE" filter="url(#f1wco344cbw9a3)" height="123.0156" id="Task" style="stroke: #A80036; stroke-width: 1.5;" width="111" x="682" y="53.5"/><ellipse cx="720.4" cy="69.5" fill="#ADD1B2" rx="11" ry="11" style="stroke: #A80036; stroke-width: 1.0;"/><path d="M722.4,66 Q722.6031,65.5 722.8375,65.25 Q723.0719,65 723.3375,65 Q723.8063,65 724.1031,65.2813 Q724.4,65.5625 724.4,66.2188 L724.4,67.7813 Q724.4,68.4375 724.1188,68.7188 Q723.8375,69 723.4,69 Q723.0094,69 722.7594,68.8281 Q722.5094,68.6563 722.4,68.2031 Q722.3531,67.8906 722.1813,67.7188 Q721.8688,67.3906 721.3063,67.2031 Q720.7438,67 720.1813,67 Q719.4781,67 718.8844,67.2813 Q718.3063,67.5625 717.8531,68.1875 Q717.4,68.8125 717.4,69.6719 L717.4,70.5938 Q717.4,71.625 718.2438,72.3125 Q719.0875,73 720.5875,73 Q721.4781,73 722.1031,72.7969 Q722.4625,72.6875 722.8688,72.3281 Q723.1344,72.125 723.275,72.0625 Q723.4156,72 723.5875,72 Q723.9156,72 724.15,72.2656 Q724.4,72.5156 724.4,72.875 Q724.4,73.2188 724.0563,73.625 Q723.5563,74.2188 722.7594,74.5469 Q721.7125,75 720.4313,75 Q718.9313,75 717.7281,74.4063 Q716.7594,73.9375 716.0719,72.9219 Q715.4,71.9063 715.4,70.7031 L715.4,69.6094 Q715.4,68.3594 715.9938,67.2656 Q716.6031,66.1719 717.65,65.5938 Q718.7125,65 719.9,65 Q720.6188,65 721.2438,65.25 Q721.8688,65.5 722.4,66 Z "/><text fill="#000000" font-family="sans-serif" font-size="12" lengthAdjust="spacingAndGlyphs" textLength="27" x="739.6" y="74.4102">Task</text><line style="stroke: #A80036; stroke-width: 1.5;" x1="683" x2="792" y1="85.5" y2="85.5"/><text fill="#000000" font-family="sans-serif" font-size="11" lengthAdjust="spacingAndGlyphs" textLength="49" x="688" y="100.9189">-String idT</text><text fill="#000000" font-family="sans-serif" font-size="11" lengthAdjust="spacingAndGlyphs" textLength="88" x="688" y="114.7549">-String description</text><text fill="#000000" font-family="sans-serif" font-size="11" lengthAdjust="spacingAndGlyphs" textLength="88" x="688" y="128.5908">-Time timeDuration</text><text fill="#000000" font-family="sans-serif" font-size="11" lengthAdjust="spacingAndGlyphs" textLength="83" x="688" y="142.4268">-double costHour</text><text fill="#000000" font-family="sans-serif" font-size="11" lengthAdjust="spacingAndGlyphs" textLength="99" x="688" y="156.2627">-String taskCategory</text><text fill="#000000" font-family="sans-serif" font-size="11" lengthAdjust="spacingAndGlyphs" textLength="84" x="688" y="170.0986">-Boolean isPayed</text><!--MD5=[34b75dd4d6d4601c280a5b76e9c1a953]
class Receipt--><rect fill="#FEFECE" filter="url(#f1wco344cbw9a3)" height="67.6719" id="Receipt" style="stroke: #A80036; stroke-width: 1.5;" width="93" x="918" y="41"/><ellipse cx="941.55" cy="57" fill="#ADD1B2" rx="11" ry="11" style="stroke: #A80036; stroke-width: 1.0;"/><path d="M943.55,53.5 Q943.7531,53 943.9875,52.75 Q944.2219,52.5 944.4875,52.5 Q944.9563,52.5 945.2531,52.7813 Q945.55,53.0625 945.55,53.7188 L945.55,55.2813 Q945.55,55.9375 945.2688,56.2188 Q944.9875,56.5 944.55,56.5 Q944.1594,56.5 943.9094,56.3281 Q943.6594,56.1563 943.55,55.7031 Q943.5031,55.3906 943.3313,55.2188 Q943.0188,54.8906 942.4563,54.7031 Q941.8938,54.5 941.3313,54.5 Q940.6281,54.5 940.0344,54.7813 Q939.4563,55.0625 939.0031,55.6875 Q938.55,56.3125 938.55,57.1719 L938.55,58.0938 Q938.55,59.125 939.3938,59.8125 Q940.2375,60.5 941.7375,60.5 Q942.6281,60.5 943.2531,60.2969 Q943.6125,60.1875 944.0188,59.8281 Q944.2844,59.625 944.425,59.5625 Q944.5656,59.5 944.7375,59.5 Q945.0656,59.5 945.3,59.7656 Q945.55,60.0156 945.55,60.375 Q945.55,60.7188 945.2063,61.125 Q944.7063,61.7188 943.9094,62.0469 Q942.8625,62.5 941.5813,62.5 Q940.0813,62.5 938.8781,61.9063 Q937.9094,61.4375 937.2219,60.4219 Q936.55,59.4063 936.55,58.2031 L936.55,57.1094 Q936.55,55.8594 937.1438,54.7656 Q937.7531,53.6719 938.8,53.0938 Q939.8625,52.5 941.05,52.5 Q941.7688,52.5 942.3938,52.75 Q943.0188,53 943.55,53.5 Z "/><text fill="#000000" font-family="sans-serif" font-size="12" lengthAdjust="spacingAndGlyphs" textLength="42" x="957.45" y="61.9102">Receipt</text><line style="stroke: #A80036; stroke-width: 1.5;" x1="919" x2="1010" y1="73" y2="73"/><text fill="#000000" font-family="sans-serif" font-size="11" lengthAdjust="spacingAndGlyphs" textLength="80" x="924" y="88.4189">-double amountE</text><text fill="#000000" font-family="sans-serif" font-size="11" lengthAdjust="spacingAndGlyphs" textLength="81" x="924" y="102.2549">-double amountC</text><!--MD5=[4555bb1b0911a5adf28ce6dbe60fed2e]
class Transaction--><rect fill="#FEFECE" filter="url(#f1wco344cbw9a3)" height="40" id="Transaction" style="stroke: #A80036; stroke-width: 1.5;" width="97" x="457" y="141"/><ellipse cx="472" cy="157" fill="#ADD1B2" rx="11" ry="11" style="stroke: #A80036; stroke-width: 1.0;"/><path d="M474,153.5 Q474.2031,153 474.4375,152.75 Q474.6719,152.5 474.9375,152.5 Q475.4063,152.5 475.7031,152.7813 Q476,153.0625 476,153.7188 L476,155.2813 Q476,155.9375 475.7188,156.2188 Q475.4375,156.5 475,156.5 Q474.6094,156.5 474.3594,156.3281 Q474.1094,156.1563 474,155.7031 Q473.9531,155.3906 473.7813,155.2188 Q473.4688,154.8906 472.9063,154.7031 Q472.3438,154.5 471.7813,154.5 Q471.0781,154.5 470.4844,154.7813 Q469.9063,155.0625 469.4531,155.6875 Q469,156.3125 469,157.1719 L469,158.0938 Q469,159.125 469.8438,159.8125 Q470.6875,160.5 472.1875,160.5 Q473.0781,160.5 473.7031,160.2969 Q474.0625,160.1875 474.4688,159.8281 Q474.7344,159.625 474.875,159.5625 Q475.0156,159.5 475.1875,159.5 Q475.5156,159.5 475.75,159.7656 Q476,160.0156 476,160.375 Q476,160.7188 475.6563,161.125 Q475.1563,161.7188 474.3594,162.0469 Q473.3125,162.5 472.0313,162.5 Q470.5313,162.5 469.3281,161.9063 Q468.3594,161.4375 467.6719,160.4219 Q467,159.4063 467,158.2031 L467,157.1094 Q467,155.8594 467.5938,154.7656 Q468.2031,153.6719 469.25,153.0938 Q470.3125,152.5 471.5,152.5 Q472.2188,152.5 472.8438,152.75 Q473.4688,153 474,153.5 Z "/><text fill="#000000" font-family="sans-serif" font-size="12" lengthAdjust="spacingAndGlyphs" textLength="65" x="486" y="161.9102">Transaction</text><line style="stroke: #A80036; stroke-width: 1.5;" x1="458" x2="553" y1="173" y2="173"/><!--MD5=[764fca796ce7f635542948d8fc39db5e]
class Payment--><rect fill="#FEFECE" filter="url(#f1wco344cbw9a3)" height="67.6719" id="Payment" style="stroke: #A80036; stroke-width: 1.5;" width="92" x="691.5" y="224"/><ellipse cx="711.9" cy="240" fill="#ADD1B2" rx="11" ry="11" style="stroke: #A80036; stroke-width: 1.0;"/><path d="M713.9,236.5 Q714.1031,236 714.3375,235.75 Q714.5719,235.5 714.8375,235.5 Q715.3063,235.5 715.6031,235.7813 Q715.9,236.0625 715.9,236.7188 L715.9,238.2813 Q715.9,238.9375 715.6188,239.2188 Q715.3375,239.5 714.9,239.5 Q714.5094,239.5 714.2594,239.3281 Q714.0094,239.1563 713.9,238.7031 Q713.8531,238.3906 713.6813,238.2188 Q713.3688,237.8906 712.8063,237.7031 Q712.2438,237.5 711.6813,237.5 Q710.9781,237.5 710.3844,237.7813 Q709.8063,238.0625 709.3531,238.6875 Q708.9,239.3125 708.9,240.1719 L708.9,241.0938 Q708.9,242.125 709.7438,242.8125 Q710.5875,243.5 712.0875,243.5 Q712.9781,243.5 713.6031,243.2969 Q713.9625,243.1875 714.3688,242.8281 Q714.6344,242.625 714.775,242.5625 Q714.9156,242.5 715.0875,242.5 Q715.4156,242.5 715.65,242.7656 Q715.9,243.0156 715.9,243.375 Q715.9,243.7188 715.5563,244.125 Q715.0563,244.7188 714.2594,245.0469 Q713.2125,245.5 711.9313,245.5 Q710.4313,245.5 709.2281,244.9063 Q708.2594,244.4375 707.5719,243.4219 Q706.9,242.4063 706.9,241.2031 L706.9,240.1094 Q706.9,238.8594 707.4938,237.7656 Q708.1031,236.6719 709.15,236.0938 Q710.2125,235.5 711.4,235.5 Q712.1188,235.5 712.7438,235.75 Q713.3688,236 713.9,236.5 Z "/><text fill="#000000" font-family="sans-serif" font-size="12" lengthAdjust="spacingAndGlyphs" textLength="48" x="727.1" y="244.9102">Payment</text><line style="stroke: #A80036; stroke-width: 1.5;" x1="692.5" x2="782.5" y1="256" y2="256"/><text fill="#000000" font-family="sans-serif" font-size="11" lengthAdjust="spacingAndGlyphs" textLength="78" x="697.5" y="271.4189">-Time timeToPay</text><text fill="#000000" font-family="sans-serif" font-size="11" lengthAdjust="spacingAndGlyphs" textLength="80" x="697.5" y="285.2549">-Data dateToPay</text><!--MD5=[b24ed8d4ae84bae9290d9aab401637c7]
class Manager--><rect fill="#FEFECE" filter="url(#f1wco344cbw9a3)" height="40" id="Manager" style="stroke: #A80036; stroke-width: 1.5;" width="80" x="465.5" y="392"/><ellipse cx="480.5" cy="408" fill="#ADD1B2" rx="11" ry="11" style="stroke: #A80036; stroke-width: 1.0;"/><path d="M482.5,404.5 Q482.7031,404 482.9375,403.75 Q483.1719,403.5 483.4375,403.5 Q483.9063,403.5 484.2031,403.7813 Q484.5,404.0625 484.5,404.7188 L484.5,406.2813 Q484.5,406.9375 484.2188,407.2188 Q483.9375,407.5 483.5,407.5 Q483.1094,407.5 482.8594,407.3281 Q482.6094,407.1563 482.5,406.7031 Q482.4531,406.3906 482.2813,406.2188 Q481.9688,405.8906 481.4063,405.7031 Q480.8438,405.5 480.2813,405.5 Q479.5781,405.5 478.9844,405.7813 Q478.4063,406.0625 477.9531,406.6875 Q477.5,407.3125 477.5,408.1719 L477.5,409.0938 Q477.5,410.125 478.3438,410.8125 Q479.1875,411.5 480.6875,411.5 Q481.5781,411.5 482.2031,411.2969 Q482.5625,411.1875 482.9688,410.8281 Q483.2344,410.625 483.375,410.5625 Q483.5156,410.5 483.6875,410.5 Q484.0156,410.5 484.25,410.7656 Q484.5,411.0156 484.5,411.375 Q484.5,411.7188 484.1563,412.125 Q483.6563,412.7188 482.8594,413.0469 Q481.8125,413.5 480.5313,413.5 Q479.0313,413.5 477.8281,412.9063 Q476.8594,412.4375 476.1719,411.4219 Q475.5,410.4063 475.5,409.2031 L475.5,408.1094 Q475.5,406.8594 476.0938,405.7656 Q476.7031,404.6719 477.75,404.0938 Q478.8125,403.5 480,403.5 Q480.7188,403.5 481.3438,403.75 Q481.9688,404 482.5,404.5 Z "/><text fill="#000000" font-family="sans-serif" font-size="12" lengthAdjust="spacingAndGlyphs" textLength="48" x="494.5" y="412.9102">Manager</text><line style="stroke: #A80036; stroke-width: 1.5;" x1="466.5" x2="544.5" y1="424" y2="424"/><!--MD5=[83bb469d45366b675450ee1d8d93a557]
link Freelancer to Transaction--><path d="M337.201,154.687 C372.309,156.012 421.086,157.852 456.915,159.204 " fill="none" id="Freelancer-Transaction" style="stroke: #A80036; stroke-width: 1.0;"/><text fill="#000000" font-family="sans-serif" font-size="13" lengthAdjust="spacingAndGlyphs" textLength="40" x="373" y="152.4951">receive</text><polygon fill="#000000" points="416,145.6758,422,148.6758,416,151.6758,416,145.6758" style="stroke: #000000; stroke-width: 1.0;"/><text fill="#000000" font-family="sans-serif" font-size="13" lengthAdjust="spacingAndGlyphs" textLength="7" x="345.0424" y="169.7658">1</text><text fill="#000000" font-family="sans-serif" font-size="13" lengthAdjust="spacingAndGlyphs" textLength="7" x="441.9395" y="173.676">1</text><!--MD5=[910f19d525f345201aad74ebe5d4fbde]
link Freelancer to Receipt--><path d="M337.049,118.013 C348.025,110.591 360.067,103.382 372,98 C544.404,20.24 605.065,14.78 793,36 C835.846,40.838 883.619,52.308 917.67,61.565 " fill="none" id="Freelancer-Receipt" style="stroke: #A80036; stroke-width: 1.0;"/><text fill="#000000" font-family="sans-serif" font-size="13" lengthAdjust="spacingAndGlyphs" textLength="47" x="588" y="22.4951">receives</text><polygon fill="#000000" points="638,15.6758,644,18.6758,638,21.6758,638,15.6758" style="stroke: #000000; stroke-width: 1.0;"/><text fill="#000000" font-family="sans-serif" font-size="13" lengthAdjust="spacingAndGlyphs" textLength="7" x="344.8662" y="127.2469">1</text><text fill="#000000" font-family="sans-serif" font-size="13" lengthAdjust="spacingAndGlyphs" textLength="7" x="902.9632" y="74.2799">1</text><!--MD5=[a1bcd49bda1d48eee0717f7ad534cdd6]
link Freelancer to Payment--><path d="M337.32,173.61 C369.889,187.797 415.374,206 457,217 C538.081,238.426 635.551,249.522 691.338,254.528 " fill="none" id="Freelancer-Payment" style="stroke: #A80036; stroke-width: 1.0;"/><text fill="#000000" font-family="sans-serif" font-size="13" lengthAdjust="spacingAndGlyphs" textLength="47" x="475.5" y="213.4951">receives</text><polygon fill="#000000" points="525.5,206.6758,531.5,209.6758,525.5,212.6758,525.5,206.6758" style="stroke: #000000; stroke-width: 1.0;"/><text fill="#000000" font-family="sans-serif" font-size="13" lengthAdjust="spacingAndGlyphs" textLength="7" x="344.8721" y="191.5243">1</text><text fill="#000000" font-family="sans-serif" font-size="13" lengthAdjust="spacingAndGlyphs" textLength="7" x="676.4231" y="268.7989">1</text><!--MD5=[8853e9d83a8841c20c4ef075af762602]
link Task to Freelancer--><path d="M681.568,108.295 C671.737,107.339 661.576,106.509 652,106 C527.275,99.377 494.481,105.532 372,130 C360.587,132.28 348.438,135.42 337.16,138.647 " fill="none" id="Task-Freelancer" style="stroke: #A80036; stroke-width: 1.0;"/><polygon fill="#000000" points="481,92.6758,475,95.6758,481,98.6758,481,92.6758" style="stroke: #000000; stroke-width: 1.0;"/><text fill="#000000" font-family="sans-serif" font-size="13" lengthAdjust="spacingAndGlyphs" textLength="50" x="487" y="99.4951">made by</text><text fill="#000000" font-family="sans-serif" font-size="13" lengthAdjust="spacingAndGlyphs" textLength="20" x="653.9446" y="121.9593">1..*</text><text fill="#000000" font-family="sans-serif" font-size="13" lengthAdjust="spacingAndGlyphs" textLength="7" x="344.9949" y="151.1695">1</text><!--MD5=[3781be57b219e856d6dd67e0b949b069]
link Platform to Transaction--><path d="M84.3885,278.296 C141.824,281.986 252.899,284.286 342,257 C355.942,252.73 429.058,207.986 472.319,181.116 " fill="none" id="Platform-Transaction" style="stroke: #A80036; stroke-width: 1.0;"/><text fill="#000000" font-family="sans-serif" font-size="13" lengthAdjust="spacingAndGlyphs" textLength="21" x="274.5" y="253.4951">has</text><polygon fill="#000000" points="298.5,246.6758,304.5,249.6758,298.5,252.6758,298.5,246.6758" style="stroke: #000000; stroke-width: 1.0;"/><text fill="#000000" font-family="sans-serif" font-size="13" lengthAdjust="spacingAndGlyphs" textLength="7" x="92.028" y="293.8345">1</text><text fill="#000000" font-family="sans-serif" font-size="13" lengthAdjust="spacingAndGlyphs" textLength="20" x="440.1743" y="202.5682">1..*</text><!--MD5=[7640e466c042ba2d6f9c19c816f7f0fc]
link Platform to Organization--><path d="M73.9876,295.016 C85.9673,303.074 100.3249,312.078 114,319 C155.379,339.944 204.939,358.2046 240.993,370.3495 " fill="none" id="Platform-Organization" style="stroke: #A80036; stroke-width: 1.0;"/><text fill="#000000" font-family="sans-serif" font-size="13" lengthAdjust="spacingAndGlyphs" textLength="82" x="115" y="315.4951">has registered</text><polygon fill="#000000" points="200,308.6758,206,311.6758,200,314.6758,200,308.6758" style="stroke: #000000; stroke-width: 1.0;"/><text fill="#000000" font-family="sans-serif" font-size="13" lengthAdjust="spacingAndGlyphs" textLength="7" x="74.156" y="316.4401">1</text><text fill="#000000" font-family="sans-serif" font-size="13" lengthAdjust="spacingAndGlyphs" textLength="20" x="212.8624" y="382.8733">1..*</text><!--MD5=[22697d4d863c2e08ab1d60ca0d61f844]
link Platform to Freelancer--><path d="M84.2031,255.937 C127.987,234.09 199.65,198.332 245.939,175.235 " fill="none" id="Platform-Freelancer" style="stroke: #A80036; stroke-width: 1.0;"/><text fill="#000000" font-family="sans-serif" font-size="13" lengthAdjust="spacingAndGlyphs" textLength="21" x="145.5" y="191.4951">has</text><polygon fill="#000000" points="169.5,184.6758,175.5,187.6758,169.5,190.6758,169.5,184.6758" style="stroke: #000000; stroke-width: 1.0;"/><text fill="#000000" font-family="sans-serif" font-size="13" lengthAdjust="spacingAndGlyphs" textLength="7" x="92.0765" y="267.4248">1</text><text fill="#000000" font-family="sans-serif" font-size="13" lengthAdjust="spacingAndGlyphs" textLength="20" x="218.1257" y="193.0171">1..*</text><!--MD5=[4078351e3988aa35b1504a42837f2ab1]
link Organization to Task--><path d="M342.116,368.8587 C415.08,342.0626 553.33,285.115 652,207 C663.392,197.981 674.61,187.381 684.963,176.646 " fill="none" id="Organization-Task" style="stroke: #A80036; stroke-width: 1.0;"/><text fill="#000000" font-family="sans-serif" font-size="13" lengthAdjust="spacingAndGlyphs" textLength="21" x="488.5" y="270.4951">has</text><polygon fill="#000000" points="512.5,263.6758,518.5,266.6758,512.5,269.6758,512.5,263.6758" style="stroke: #000000; stroke-width: 1.0;"/><text fill="#000000" font-family="sans-serif" font-size="13" lengthAdjust="spacingAndGlyphs" textLength="7" x="350.0643" y="381.0732">1</text><text fill="#000000" font-family="sans-serif" font-size="13" lengthAdjust="spacingAndGlyphs" textLength="20" x="657.7322" y="198.2134">1..*</text><!--MD5=[bc039f41cf0b27fadee5cae63fc6e1fe]
link Organization to Manager--><path d="M342.205,392.0958 C379.777,396.7037 430.642,402.9419 465.351,407.1986 " fill="none" id="Organization-Manager" style="stroke: #A80036; stroke-width: 1.0;"/><text fill="#000000" font-family="sans-serif" font-size="13" lengthAdjust="spacingAndGlyphs" textLength="21" x="382.5" y="391.4951">has</text><polygon fill="#000000" points="406.5,384.6758,412.5,387.6758,406.5,390.6758,406.5,384.6758" style="stroke: #000000; stroke-width: 1.0;"/><text fill="#000000" font-family="sans-serif" font-size="13" lengthAdjust="spacingAndGlyphs" textLength="7" x="350.1664" y="407.7232">1</text><text fill="#000000" font-family="sans-serif" font-size="13" lengthAdjust="spacingAndGlyphs" textLength="7" x="450.576" y="421.2948">1</text><!--MD5=[21898ab70dd7e221b590f87a1f131a40]
link Manager to Payment--><path d="M536.568,391.8672 C576.021,365.4514 645.604,318.861 691.385,288.207 " fill="none" id="Manager-Payment" style="stroke: #A80036; stroke-width: 1.0;"/><text fill="#000000" font-family="sans-serif" font-size="13" lengthAdjust="spacingAndGlyphs" textLength="41" x="591" y="312.4951">defines</text><polygon fill="#000000" points="635,305.6758,641,308.6758,635,311.6758,635,305.6758" style="stroke: #000000; stroke-width: 1.0;"/><text fill="#000000" font-family="sans-serif" font-size="13" lengthAdjust="spacingAndGlyphs" textLength="7" x="537.6661" y="381.1499">1</text><text fill="#000000" font-family="sans-serif" font-size="13" lengthAdjust="spacingAndGlyphs" textLength="7" x="676.4776" y="307.8455">1</text><!--MD5=[ee25a9e267be641cadbaef6c1594e19f]
link Transaction to Payment--><path d="M554.156,181.098 C594.419,198.079 651.687,222.231 691.252,238.917 " fill="none" id="Transaction-Payment" style="stroke: #A80036; stroke-width: 1.0;"/><text fill="#000000" font-family="sans-serif" font-size="13" lengthAdjust="spacingAndGlyphs" textLength="53" x="585" y="191.4951">results in</text><polygon fill="#000000" points="641,184.6758,647,187.6758,641,190.6758,641,184.6758" style="stroke: #000000; stroke-width: 1.0;"/><text fill="#000000" font-family="sans-serif" font-size="13" lengthAdjust="spacingAndGlyphs" textLength="7" x="559.8561" y="202.5451">1</text><text fill="#000000" font-family="sans-serif" font-size="13" lengthAdjust="spacingAndGlyphs" textLength="7" x="676.6343" y="250.7671">1</text><!--MD5=[8e4873cec2cb3febaaa9495c716fc885]
link Transaction to Task--><path d="M554.156,151.469 C591.261,144.048 642.809,133.738 681.633,125.973 " fill="none" id="Transaction-Task" style="stroke: #A80036; stroke-width: 1.0;"/><text fill="#000000" font-family="sans-serif" font-size="13" lengthAdjust="spacingAndGlyphs" textLength="21" x="601" y="128.4951">has</text><polygon fill="#000000" points="625,121.6758,631,124.6758,625,127.6758,625,121.6758" style="stroke: #000000; stroke-width: 1.0;"/><text fill="#000000" font-family="sans-serif" font-size="13" lengthAdjust="spacingAndGlyphs" textLength="7" x="562.1424" y="164.7566">1</text><text fill="#000000" font-family="sans-serif" font-size="13" lengthAdjust="spacingAndGlyphs" textLength="7" x="667.0266" y="141.9206">1</text><!--MD5=[264464a3d777ed38cc26833f9af77f81]
link Payment to Receipt--><path d="M780.557,223.794 C820.877,191 881.398,141.776 921.649,109.038 " fill="none" id="Payment-Receipt" style="stroke: #A80036; stroke-width: 1.0;"/><text fill="#000000" font-family="sans-serif" font-size="13" lengthAdjust="spacingAndGlyphs" textLength="50" x="824" y="135.4951">generate</text><polygon fill="#000000" points="877,128.6758,883,131.6758,877,134.6758,877,128.6758" style="stroke: #000000; stroke-width: 1.0;"/><text fill="#000000" font-family="sans-serif" font-size="13" lengthAdjust="spacingAndGlyphs" textLength="7" x="781.3448" y="213.0467">1</text><text fill="#000000" font-family="sans-serif" font-size="13" lengthAdjust="spacingAndGlyphs" textLength="7" x="906.3927" y="130.0817">1</text><!--MD5=[1d990385cc511c134a9cfad214b05f46]
@startuml
skinparam classAttributeIconSize 0
hide methods
left to right direction

class Platform{
}
class Freelancer {
  -String freeID
  -String name
  -String levelExp
  -String email
  -String nif
  -String iban
  -String country
}

class Organization {
  -String nome
  -String email
  -String nif
}


class Task {
  -String idT
  -String description
  -Time timeDuration
  -double costHour
  -String taskCategory
  -Boolean isPayed
}

class Receipt {
  -double amountE
  -double amountC
}

class Transaction {

}



class Payment{
  -Time timeToPay
  -Data dateToPay
}





Freelancer "1" - - "1" Transaction: receive >
Freelancer "1" - - "1" Receipt: receives >
Freelancer "1" - - "1" Payment: receives >

Task "1..*" - - "1" Freelancer: made by >

Platform "1" - - "1..*" Transaction: has >
Platform "1" - - "1..*" Organization: has registered >
Platform "1" - - "1..*" Freelancer: has >

Organization "1" - - "1..*" Task: has >
Organization "1" - - "1" Manager: has >

Manager "1" - - "1" Payment: defines >

Transaction "1" - - "1" Payment: results in >
Transaction "1" - - "1" Task: has >

Payment "1" - - "1" Receipt: generate >




@enduml

PlantUML version 1.2020.09(Sun May 10 11:51:06 BST 2020)
(GPL source distribution)
Java Runtime: OpenJDK Runtime Environment
JVM: OpenJDK 64-Bit Server VM
Java Version: 11.0.6+8-b765.40
Operating System: Windows 10
Default Encoding: Cp1252
Language: pt
Country: PT
--></g></svg>