<?xml version="1.0" encoding="UTF-8" standalone="no"?><svg xmlns="http://www.w3.org/2000/svg" xmlns:xlink="http://www.w3.org/1999/xlink" contentScriptType="application/ecmascript" contentStyleType="text/css" height="470.4px" preserveAspectRatio="none" style="width:1266px;height:470px;" version="1.1" viewBox="0 0 1266 470" width="1266.4px" zoomAndPan="magnify"><defs><filter height="300%" id="f1r4mj0oty0t53" width="300%" x="-1" y="-1"><feGaussianBlur result="blurOut" stdDeviation="1.6"/><feColorMatrix in="blurOut" result="blurOut2" type="matrix" values="0 0 0 0 0 0 0 0 0 0 0 0 0 0 0 0 0 0 .4 0"/><feOffset dx="3.2" dy="3.2" in="blurOut2" result="blurOut3"/><feBlend in="SourceGraphic" in2="blurOut3" mode="normal"/></filter></defs><g><!--MD5=[99b8db98afdc2c8404e39242ef4c1e65]
class Platform--><rect fill="#FEFECE" filter="url(#f1r4mj0oty0t53)" height="32" id="Platform" style="stroke: #A80036; stroke-width: 1.2000000000000002;" width="62.4" x="4.8" y="360"/><ellipse cx="16.8" cy="372.8" fill="#ADD1B2" rx="8.8" ry="8.8" style="stroke: #A80036; stroke-width: 0.8;"/><path d="M18.4,370 Q18.5625,369.6 18.75,369.4 Q18.9375,369.2 19.15,369.2 Q19.525,369.2 19.7625,369.425 Q20,369.65 20,370.175 L20,371.425 Q20,371.95 19.775,372.175 Q19.55,372.4 19.2,372.4 Q18.8875,372.4 18.6875,372.2625 Q18.4875,372.125 18.4,371.7625 Q18.3625,371.5125 18.225,371.375 Q17.975,371.1125 17.525,370.9625 Q17.075,370.8 16.625,370.8 Q16.0625,370.8 15.5875,371.025 Q15.125,371.25 14.7625,371.75 Q14.4,372.25 14.4,372.9375 L14.4,373.675 Q14.4,374.5 15.075,375.05 Q15.75,375.6 16.95,375.6 Q17.6625,375.6 18.1625,375.4375 Q18.45,375.35 18.775,375.0625 Q18.9875,374.9 19.1,374.85 Q19.2125,374.8 19.35,374.8 Q19.6125,374.8 19.8,375.0125 Q20,375.2125 20,375.5 Q20,375.775 19.725,376.1 Q19.325,376.575 18.6875,376.8375 Q17.85,377.2 16.825,377.2 Q15.625,377.2 14.6625,376.725 Q13.8875,376.35 13.3375,375.5375 Q12.8,374.725 12.8,373.7625 L12.8,372.8875 Q12.8,371.8875 13.275,371.0125 Q13.7625,370.1375 14.6,369.675 Q15.45,369.2 16.4,369.2 Q16.975,369.2 17.475,369.4 Q17.975,369.6 18.4,370 Z "/><text fill="#000000" font-family="sans-serif" font-size="9.6" lengthAdjust="spacingAndGlyphs" textLength="36.8" x="28" y="376.7281">Platform</text><line style="stroke: #A80036; stroke-width: 1.2000000000000002;" x1="5.6" x2="66.4" y1="385.6" y2="385.6"/><!--MD5=[1f687b5315377fe49fca59b457947463]
class Freelancer--><rect fill="#FEFECE" filter="url(#f1r4mj0oty0t53)" height="109.4813" id="Freelancer" style="stroke: #A80036; stroke-width: 1.2000000000000002;" width="72.8" x="968.8" y="256.4"/><ellipse cx="980.8" cy="269.2" fill="#ADD1B2" rx="8.8" ry="8.8" style="stroke: #A80036; stroke-width: 0.8;"/><path d="M982.4,266.4 Q982.5625,266 982.75,265.8 Q982.9375,265.6 983.15,265.6 Q983.525,265.6 983.7625,265.825 Q984,266.05 984,266.575 L984,267.825 Q984,268.35 983.775,268.575 Q983.55,268.8 983.2,268.8 Q982.8875,268.8 982.6875,268.6625 Q982.4875,268.525 982.4,268.1625 Q982.3625,267.9125 982.225,267.775 Q981.975,267.5125 981.525,267.3625 Q981.075,267.2 980.625,267.2 Q980.0625,267.2 979.5875,267.425 Q979.125,267.65 978.7625,268.15 Q978.4,268.65 978.4,269.3375 L978.4,270.075 Q978.4,270.9 979.075,271.45 Q979.75,272 980.95,272 Q981.6625,272 982.1625,271.8375 Q982.45,271.75 982.775,271.4625 Q982.9875,271.3 983.1,271.25 Q983.2125,271.2 983.35,271.2 Q983.6125,271.2 983.8,271.4125 Q984,271.6125 984,271.9 Q984,272.175 983.725,272.5 Q983.325,272.975 982.6875,273.2375 Q981.85,273.6 980.825,273.6 Q979.625,273.6 978.6625,273.125 Q977.8875,272.75 977.3375,271.9375 Q976.8,271.125 976.8,270.1625 L976.8,269.2875 Q976.8,268.2875 977.275,267.4125 Q977.7625,266.5375 978.6,266.075 Q979.45,265.6 980.4,265.6 Q980.975,265.6 981.475,265.8 Q981.975,266 982.4,266.4 Z "/><text fill="#000000" font-family="sans-serif" font-size="9.6" lengthAdjust="spacingAndGlyphs" textLength="47.2" x="992" y="273.1281">Freelancer</text><line style="stroke: #A80036; stroke-width: 1.2000000000000002;" x1="969.6" x2="1040.8" y1="282" y2="282"/><text fill="#000000" font-family="sans-serif" font-size="8.8" lengthAdjust="spacingAndGlyphs" textLength="51.2" x="973.6" y="294.3352">-String freeID</text><text fill="#000000" font-family="sans-serif" font-size="8.8" lengthAdjust="spacingAndGlyphs" textLength="48.8" x="973.6" y="305.4039">-String name</text><text fill="#000000" font-family="sans-serif" font-size="8.8" lengthAdjust="spacingAndGlyphs" textLength="60" x="973.6" y="316.4727">-String levelExp</text><text fill="#000000" font-family="sans-serif" font-size="8.8" lengthAdjust="spacingAndGlyphs" textLength="47.2" x="973.6" y="327.5414">-String email</text><text fill="#000000" font-family="sans-serif" font-size="8.8" lengthAdjust="spacingAndGlyphs" textLength="37.6" x="973.6" y="338.6102">-String nif</text><text fill="#000000" font-family="sans-serif" font-size="8.8" lengthAdjust="spacingAndGlyphs" textLength="44" x="973.6" y="349.6789">-String iban</text><text fill="#000000" font-family="sans-serif" font-size="8.8" lengthAdjust="spacingAndGlyphs" textLength="57.6" x="973.6" y="360.7477">-String country</text><!--MD5=[86c7c362de55a38b660185a1328fe18d]
class Organization--><rect fill="#FEFECE" filter="url(#f1r4mj0oty0t53)" height="65.2063" id="Organization" style="stroke: #A80036; stroke-width: 1.2000000000000002;" width="80.8" x="192.8" y="172.8"/><ellipse cx="204.8" cy="185.6" fill="#ADD1B2" rx="8.8" ry="8.8" style="stroke: #A80036; stroke-width: 0.8;"/><path d="M206.4,182.8 Q206.5625,182.4 206.75,182.2 Q206.9375,182 207.15,182 Q207.525,182 207.7625,182.225 Q208,182.45 208,182.975 L208,184.225 Q208,184.75 207.775,184.975 Q207.55,185.2 207.2,185.2 Q206.8875,185.2 206.6875,185.0625 Q206.4875,184.925 206.4,184.5625 Q206.3625,184.3125 206.225,184.175 Q205.975,183.9125 205.525,183.7625 Q205.075,183.6 204.625,183.6 Q204.0625,183.6 203.5875,183.825 Q203.125,184.05 202.7625,184.55 Q202.4,185.05 202.4,185.7375 L202.4,186.475 Q202.4,187.3 203.075,187.85 Q203.75,188.4 204.95,188.4 Q205.6625,188.4 206.1625,188.2375 Q206.45,188.15 206.775,187.8625 Q206.9875,187.7 207.1,187.65 Q207.2125,187.6 207.35,187.6 Q207.6125,187.6 207.8,187.8125 Q208,188.0125 208,188.3 Q208,188.575 207.725,188.9 Q207.325,189.375 206.6875,189.6375 Q205.85,190 204.825,190 Q203.625,190 202.6625,189.525 Q201.8875,189.15 201.3375,188.3375 Q200.8,187.525 200.8,186.5625 L200.8,185.6875 Q200.8,184.6875 201.275,183.8125 Q201.7625,182.9375 202.6,182.475 Q203.45,182 204.4,182 Q204.975,182 205.475,182.2 Q205.975,182.4 206.4,182.8 Z "/><text fill="#000000" font-family="sans-serif" font-size="9.6" lengthAdjust="spacingAndGlyphs" textLength="55.2" x="216" y="189.5281">Organization</text><line style="stroke: #A80036; stroke-width: 1.2000000000000002;" x1="193.6" x2="272.8" y1="198.4" y2="198.4"/><text fill="#000000" font-family="sans-serif" font-size="8.8" lengthAdjust="spacingAndGlyphs" textLength="48.8" x="197.6" y="210.7352">-String name</text><text fill="#000000" font-family="sans-serif" font-size="8.8" lengthAdjust="spacingAndGlyphs" textLength="47.2" x="197.6" y="221.8039">-String email</text><text fill="#000000" font-family="sans-serif" font-size="8.8" lengthAdjust="spacingAndGlyphs" textLength="37.6" x="197.6" y="232.8727">-String nif</text><!--MD5=[b34797a66dc35cbf1d65f7e3ca75530e]
class Task--><rect fill="#FEFECE" filter="url(#f1r4mj0oty0t53)" height="109.4813" id="Task" style="stroke: #A80036; stroke-width: 1.2000000000000002;" width="88.8" x="765.2" y="194.8"/><ellipse cx="795.92" cy="207.6" fill="#ADD1B2" rx="8.8" ry="8.8" style="stroke: #A80036; stroke-width: 0.8;"/><path d="M797.52,204.8 Q797.6825,204.4 797.87,204.2 Q798.0575,204 798.27,204 Q798.645,204 798.8825,204.225 Q799.12,204.45 799.12,204.975 L799.12,206.225 Q799.12,206.75 798.895,206.975 Q798.67,207.2 798.32,207.2 Q798.0075,207.2 797.8075,207.0625 Q797.6075,206.925 797.52,206.5625 Q797.4825,206.3125 797.345,206.175 Q797.095,205.9125 796.645,205.7625 Q796.195,205.6 795.745,205.6 Q795.1825,205.6 794.7075,205.825 Q794.245,206.05 793.8825,206.55 Q793.52,207.05 793.52,207.7375 L793.52,208.475 Q793.52,209.3 794.195,209.85 Q794.87,210.4 796.07,210.4 Q796.7825,210.4 797.2825,210.2375 Q797.57,210.15 797.895,209.8625 Q798.1075,209.7 798.22,209.65 Q798.3325,209.6 798.47,209.6 Q798.7325,209.6 798.92,209.8125 Q799.12,210.0125 799.12,210.3 Q799.12,210.575 798.845,210.9 Q798.445,211.375 797.8075,211.6375 Q796.97,212 795.945,212 Q794.745,212 793.7825,211.525 Q793.0075,211.15 792.4575,210.3375 Q791.92,209.525 791.92,208.5625 L791.92,207.6875 Q791.92,206.6875 792.395,205.8125 Q792.8825,204.9375 793.72,204.475 Q794.57,204 795.52,204 Q796.095,204 796.595,204.2 Q797.095,204.4 797.52,204.8 Z "/><text fill="#000000" font-family="sans-serif" font-size="9.6" lengthAdjust="spacingAndGlyphs" textLength="21.6" x="811.28" y="211.5281">Task</text><line style="stroke: #A80036; stroke-width: 1.2000000000000002;" x1="766" x2="853.2" y1="220.4" y2="220.4"/><text fill="#000000" font-family="sans-serif" font-size="8.8" lengthAdjust="spacingAndGlyphs" textLength="52.8" x="770" y="232.7352">-String idTask</text><text fill="#000000" font-family="sans-serif" font-size="8.8" lengthAdjust="spacingAndGlyphs" textLength="70.4" x="770" y="243.8039">-String description</text><text fill="#000000" font-family="sans-serif" font-size="8.8" lengthAdjust="spacingAndGlyphs" textLength="48" x="770" y="254.8727">-int timeTask</text><text fill="#000000" font-family="sans-serif" font-size="8.8" lengthAdjust="spacingAndGlyphs" textLength="66.4" x="770" y="265.9414">-double costHour</text><text fill="#000000" font-family="sans-serif" font-size="8.8" lengthAdjust="spacingAndGlyphs" textLength="79.2" x="770" y="277.0102">-String taskCategory</text><text fill="#000000" font-family="sans-serif" font-size="8.8" lengthAdjust="spacingAndGlyphs" textLength="66.4" x="770" y="288.0789">-boolean isPayed</text><text fill="#000000" font-family="sans-serif" font-size="8.8" lengthAdjust="spacingAndGlyphs" textLength="74.4" x="770" y="299.1477">-boolean isFinished</text><!--MD5=[b24ed8d4ae84bae9290d9aab401637c7]
class Manager--><rect fill="#FEFECE" filter="url(#f1r4mj0oty0t53)" height="65.2063" id="Manager" style="stroke: #A80036; stroke-width: 1.2000000000000002;" width="64.8" x="358" y="9.6"/><ellipse cx="370.36" cy="22.4" fill="#ADD1B2" rx="8.8" ry="8.8" style="stroke: #A80036; stroke-width: 0.8;"/><path d="M371.96,19.6 Q372.1225,19.2 372.31,19 Q372.4975,18.8 372.71,18.8 Q373.085,18.8 373.3225,19.025 Q373.56,19.25 373.56,19.775 L373.56,21.025 Q373.56,21.55 373.335,21.775 Q373.11,22 372.76,22 Q372.4475,22 372.2475,21.8625 Q372.0475,21.725 371.96,21.3625 Q371.9225,21.1125 371.785,20.975 Q371.535,20.7125 371.085,20.5625 Q370.635,20.4 370.185,20.4 Q369.6225,20.4 369.1475,20.625 Q368.685,20.85 368.3225,21.35 Q367.96,21.85 367.96,22.5375 L367.96,23.275 Q367.96,24.1 368.635,24.65 Q369.31,25.2 370.51,25.2 Q371.2225,25.2 371.7225,25.0375 Q372.01,24.95 372.335,24.6625 Q372.5475,24.5 372.66,24.45 Q372.7725,24.4 372.91,24.4 Q373.1725,24.4 373.36,24.6125 Q373.56,24.8125 373.56,25.1 Q373.56,25.375 373.285,25.7 Q372.885,26.175 372.2475,26.4375 Q371.41,26.8 370.385,26.8 Q369.185,26.8 368.2225,26.325 Q367.4475,25.95 366.8975,25.1375 Q366.36,24.325 366.36,23.3625 L366.36,22.4875 Q366.36,21.4875 366.835,20.6125 Q367.3225,19.7375 368.16,19.275 Q369.01,18.8 369.96,18.8 Q370.535,18.8 371.035,19 Q371.535,19.2 371.96,19.6 Z "/><text fill="#000000" font-family="sans-serif" font-size="9.6" lengthAdjust="spacingAndGlyphs" textLength="38.4" x="381.64" y="26.3281">Manager</text><line style="stroke: #A80036; stroke-width: 1.2000000000000002;" x1="358.8" x2="422" y1="35.2" y2="35.2"/><text fill="#000000" font-family="sans-serif" font-size="8.8" lengthAdjust="spacingAndGlyphs" textLength="55.2" x="362.8" y="47.5352">-String nameM</text><text fill="#000000" font-family="sans-serif" font-size="8.8" lengthAdjust="spacingAndGlyphs" textLength="53.6" x="362.8" y="58.6039">-String emailM</text><text fill="#000000" font-family="sans-serif" font-size="8.8" lengthAdjust="spacingAndGlyphs" textLength="42.4" x="362.8" y="69.6727">-String role</text><!--MD5=[4045d6f6a06909f8c0c16b57fdb55c63]
class TransactionExecution--><rect fill="#FEFECE" filter="url(#f1r4mj0oty0t53)" height="76.275" id="TransactionExecution" style="stroke: #A80036; stroke-width: 1.2000000000000002;" width="120" x="558.4" y="100.4"/><ellipse cx="570.4" cy="113.2" fill="#ADD1B2" rx="8.8" ry="8.8" style="stroke: #A80036; stroke-width: 0.8;"/><path d="M572,110.4 Q572.1625,110 572.35,109.8 Q572.5375,109.6 572.75,109.6 Q573.125,109.6 573.3625,109.825 Q573.6,110.05 573.6,110.575 L573.6,111.825 Q573.6,112.35 573.375,112.575 Q573.15,112.8 572.8,112.8 Q572.4875,112.8 572.2875,112.6625 Q572.0875,112.525 572,112.1625 Q571.9625,111.9125 571.825,111.775 Q571.575,111.5125 571.125,111.3625 Q570.675,111.2 570.225,111.2 Q569.6625,111.2 569.1875,111.425 Q568.725,111.65 568.3625,112.15 Q568,112.65 568,113.3375 L568,114.075 Q568,114.9 568.675,115.45 Q569.35,116 570.55,116 Q571.2625,116 571.7625,115.8375 Q572.05,115.75 572.375,115.4625 Q572.5875,115.3 572.7,115.25 Q572.8125,115.2 572.95,115.2 Q573.2125,115.2 573.4,115.4125 Q573.6,115.6125 573.6,115.9 Q573.6,116.175 573.325,116.5 Q572.925,116.975 572.2875,117.2375 Q571.45,117.6 570.425,117.6 Q569.225,117.6 568.2625,117.125 Q567.4875,116.75 566.9375,115.9375 Q566.4,115.125 566.4,114.1625 L566.4,113.2875 Q566.4,112.2875 566.875,111.4125 Q567.3625,110.5375 568.2,110.075 Q569.05,109.6 570,109.6 Q570.575,109.6 571.075,109.8 Q571.575,110 572,110.4 Z "/><text fill="#000000" font-family="sans-serif" font-size="9.6" lengthAdjust="spacingAndGlyphs" textLength="94.4" x="581.6" y="117.1281">TransactionExecution</text><line style="stroke: #A80036; stroke-width: 1.2000000000000002;" x1="559.2" x2="677.6" y1="126" y2="126"/><text fill="#000000" font-family="sans-serif" font-size="8.8" lengthAdjust="spacingAndGlyphs" textLength="55.2" x="563.2" y="138.3352">-Date endDate</text><text fill="#000000" font-family="sans-serif" font-size="8.8" lengthAdjust="spacingAndGlyphs" textLength="52" x="563.2" y="149.4039">-double delay</text><text fill="#000000" font-family="sans-serif" font-size="8.8" lengthAdjust="spacingAndGlyphs" textLength="106.4" x="563.2" y="160.4727">-String descriptionOfQuality</text><text fill="#000000" font-family="sans-serif" font-size="8.8" lengthAdjust="spacingAndGlyphs" textLength="41.6" x="563.2" y="171.5414">-int transID</text><!--MD5=[764fca796ce7f635542948d8fc39db5e]
class Payment--><rect fill="#FEFECE" filter="url(#f1r4mj0oty0t53)" height="54.1375" id="Payment" style="stroke: #A80036; stroke-width: 1.2000000000000002;" width="67.2" x="1190.4" y="54.4"/><ellipse cx="1203.84" cy="67.2" fill="#ADD1B2" rx="8.8" ry="8.8" style="stroke: #A80036; stroke-width: 0.8;"/><path d="M1205.44,64.4 Q1205.6025,64 1205.79,63.8 Q1205.9775,63.6 1206.19,63.6 Q1206.565,63.6 1206.8025,63.825 Q1207.04,64.05 1207.04,64.575 L1207.04,65.825 Q1207.04,66.35 1206.815,66.575 Q1206.59,66.8 1206.24,66.8 Q1205.9275,66.8 1205.7275,66.6625 Q1205.5275,66.525 1205.44,66.1625 Q1205.4025,65.9125 1205.265,65.775 Q1205.015,65.5125 1204.565,65.3625 Q1204.115,65.2 1203.665,65.2 Q1203.1025,65.2 1202.6275,65.425 Q1202.165,65.65 1201.8025,66.15 Q1201.44,66.65 1201.44,67.3375 L1201.44,68.075 Q1201.44,68.9 1202.115,69.45 Q1202.79,70 1203.99,70 Q1204.7025,70 1205.2025,69.8375 Q1205.49,69.75 1205.815,69.4625 Q1206.0275,69.3 1206.14,69.25 Q1206.2525,69.2 1206.39,69.2 Q1206.6525,69.2 1206.84,69.4125 Q1207.04,69.6125 1207.04,69.9 Q1207.04,70.175 1206.765,70.5 Q1206.365,70.975 1205.7275,71.2375 Q1204.89,71.6 1203.865,71.6 Q1202.665,71.6 1201.7025,71.125 Q1200.9275,70.75 1200.3775,69.9375 Q1199.84,69.125 1199.84,68.1625 L1199.84,67.2875 Q1199.84,66.2875 1200.315,65.4125 Q1200.8025,64.5375 1201.64,64.075 Q1202.49,63.6 1203.44,63.6 Q1204.015,63.6 1204.515,63.8 Q1205.015,64 1205.44,64.4 Z "/><text fill="#000000" font-family="sans-serif" font-size="9.6" lengthAdjust="spacingAndGlyphs" textLength="38.4" x="1215.36" y="71.1281">Payment</text><line style="stroke: #A80036; stroke-width: 1.2000000000000002;" x1="1191.2" x2="1256.8" y1="80" y2="80"/><text fill="#000000" font-family="sans-serif" font-size="8.8" lengthAdjust="spacingAndGlyphs" textLength="56.8" x="1195.2" y="92.3352">-double valueE</text><text fill="#000000" font-family="sans-serif" font-size="8.8" lengthAdjust="spacingAndGlyphs" textLength="57.6" x="1195.2" y="103.4039">-double valueC</text><!--MD5=[dc112212ffdae1b478a87df5bc652088]
class DefinePayment--><rect fill="#FEFECE" filter="url(#f1r4mj0oty0t53)" height="65.2063" id="DefinePayment" style="stroke: #A80036; stroke-width: 1.2000000000000002;" width="92.8" x="572" y="6.4"/><ellipse cx="584" cy="19.2" fill="#ADD1B2" rx="8.8" ry="8.8" style="stroke: #A80036; stroke-width: 0.8;"/><path d="M585.6,16.4 Q585.7625,16 585.95,15.8 Q586.1375,15.6 586.35,15.6 Q586.725,15.6 586.9625,15.825 Q587.2,16.05 587.2,16.575 L587.2,17.825 Q587.2,18.35 586.975,18.575 Q586.75,18.8 586.4,18.8 Q586.0875,18.8 585.8875,18.6625 Q585.6875,18.525 585.6,18.1625 Q585.5625,17.9125 585.425,17.775 Q585.175,17.5125 584.725,17.3625 Q584.275,17.2 583.825,17.2 Q583.2625,17.2 582.7875,17.425 Q582.325,17.65 581.9625,18.15 Q581.6,18.65 581.6,19.3375 L581.6,20.075 Q581.6,20.9 582.275,21.45 Q582.95,22 584.15,22 Q584.8625,22 585.3625,21.8375 Q585.65,21.75 585.975,21.4625 Q586.1875,21.3 586.3,21.25 Q586.4125,21.2 586.55,21.2 Q586.8125,21.2 587,21.4125 Q587.2,21.6125 587.2,21.9 Q587.2,22.175 586.925,22.5 Q586.525,22.975 585.8875,23.2375 Q585.05,23.6 584.025,23.6 Q582.825,23.6 581.8625,23.125 Q581.0875,22.75 580.5375,21.9375 Q580,21.125 580,20.1625 L580,19.2875 Q580,18.2875 580.475,17.4125 Q580.9625,16.5375 581.8,16.075 Q582.65,15.6 583.6,15.6 Q584.175,15.6 584.675,15.8 Q585.175,16 585.6,16.4 Z "/><text fill="#000000" font-family="sans-serif" font-size="9.6" lengthAdjust="spacingAndGlyphs" textLength="67.2" x="595.2" y="23.1281">DefinePayment</text><line style="stroke: #A80036; stroke-width: 1.2000000000000002;" x1="572.8" x2="664" y1="32" y2="32"/><text fill="#000000" font-family="sans-serif" font-size="8.8" lengthAdjust="spacingAndGlyphs" textLength="62.4" x="576.8" y="44.3352">-Time timeToPay</text><text fill="#000000" font-family="sans-serif" font-size="8.8" lengthAdjust="spacingAndGlyphs" textLength="64" x="576.8" y="55.4039">-Date dateToPay</text><text fill="#000000" font-family="sans-serif" font-size="8.8" lengthAdjust="spacingAndGlyphs" textLength="42.4" x="576.8" y="66.4727">-int nrDays</text><!--MD5=[86cfdc25119a3a20e0664f11a0f5b002]
class Writer--><rect fill="#FEFECE" filter="url(#f1r4mj0oty0t53)" height="32" id="Writer" style="stroke: #A80036; stroke-width: 1.2000000000000002;" width="51.2" x="1198.4" y="407.2"/><ellipse cx="1210.4" cy="420" fill="#ADD1B2" rx="8.8" ry="8.8" style="stroke: #A80036; stroke-width: 0.8;"/><path d="M1212,417.2 Q1212.1625,416.8 1212.35,416.6 Q1212.5375,416.4 1212.75,416.4 Q1213.125,416.4 1213.3625,416.625 Q1213.6,416.85 1213.6,417.375 L1213.6,418.625 Q1213.6,419.15 1213.375,419.375 Q1213.15,419.6 1212.8,419.6 Q1212.4875,419.6 1212.2875,419.4625 Q1212.0875,419.325 1212,418.9625 Q1211.9625,418.7125 1211.825,418.575 Q1211.575,418.3125 1211.125,418.1625 Q1210.675,418 1210.225,418 Q1209.6625,418 1209.1875,418.225 Q1208.725,418.45 1208.3625,418.95 Q1208,419.45 1208,420.1375 L1208,420.875 Q1208,421.7 1208.675,422.25 Q1209.35,422.8 1210.55,422.8 Q1211.2625,422.8 1211.7625,422.6375 Q1212.05,422.55 1212.375,422.2625 Q1212.5875,422.1 1212.7,422.05 Q1212.8125,422 1212.95,422 Q1213.2125,422 1213.4,422.2125 Q1213.6,422.4125 1213.6,422.7 Q1213.6,422.975 1213.325,423.3 Q1212.925,423.775 1212.2875,424.0375 Q1211.45,424.4 1210.425,424.4 Q1209.225,424.4 1208.2625,423.925 Q1207.4875,423.55 1206.9375,422.7375 Q1206.4,421.925 1206.4,420.9625 L1206.4,420.0875 Q1206.4,419.0875 1206.875,418.2125 Q1207.3625,417.3375 1208.2,416.875 Q1209.05,416.4 1210,416.4 Q1210.575,416.4 1211.075,416.6 Q1211.575,416.8 1212,417.2 Z "/><text fill="#000000" font-family="sans-serif" font-size="9.6" lengthAdjust="spacingAndGlyphs" textLength="25.6" x="1221.6" y="423.9281">Writer</text><line style="stroke: #A80036; stroke-width: 1.2000000000000002;" x1="1199.2" x2="1248.8" y1="432.8" y2="432.8"/><!--MD5=[f483d6e5de34a60207b28a5563be5e8b]
class Collaborator--><rect fill="#FEFECE" filter="url(#f1r4mj0oty0t53)" height="32" id="Collaborator" style="stroke: #A80036; stroke-width: 1.2000000000000002;" width="80" x="350.4" y="189.6"/><ellipse cx="362.4" cy="202.4" fill="#ADD1B2" rx="8.8" ry="8.8" style="stroke: #A80036; stroke-width: 0.8;"/><path d="M364,199.6 Q364.1625,199.2 364.35,199 Q364.5375,198.8 364.75,198.8 Q365.125,198.8 365.3625,199.025 Q365.6,199.25 365.6,199.775 L365.6,201.025 Q365.6,201.55 365.375,201.775 Q365.15,202 364.8,202 Q364.4875,202 364.2875,201.8625 Q364.0875,201.725 364,201.3625 Q363.9625,201.1125 363.825,200.975 Q363.575,200.7125 363.125,200.5625 Q362.675,200.4 362.225,200.4 Q361.6625,200.4 361.1875,200.625 Q360.725,200.85 360.3625,201.35 Q360,201.85 360,202.5375 L360,203.275 Q360,204.1 360.675,204.65 Q361.35,205.2 362.55,205.2 Q363.2625,205.2 363.7625,205.0375 Q364.05,204.95 364.375,204.6625 Q364.5875,204.5 364.7,204.45 Q364.8125,204.4 364.95,204.4 Q365.2125,204.4 365.4,204.6125 Q365.6,204.8125 365.6,205.1 Q365.6,205.375 365.325,205.7 Q364.925,206.175 364.2875,206.4375 Q363.45,206.8 362.425,206.8 Q361.225,206.8 360.2625,206.325 Q359.4875,205.95 358.9375,205.1375 Q358.4,204.325 358.4,203.3625 L358.4,202.4875 Q358.4,201.4875 358.875,200.6125 Q359.3625,199.7375 360.2,199.275 Q361.05,198.8 362,198.8 Q362.575,198.8 363.075,199 Q363.575,199.2 364,199.6 Z "/><text fill="#000000" font-family="sans-serif" font-size="9.6" lengthAdjust="spacingAndGlyphs" textLength="54.4" x="373.6" y="206.3281">Collaborator</text><line style="stroke: #A80036; stroke-width: 1.2000000000000002;" x1="351.2" x2="429.6" y1="215.2" y2="215.2"/><!--MD5=[a1bcd49bda1d48eee0717f7ad534cdd6]
link Freelancer to Payment--><path d="M1041.624,273.5432 C1085.432,227.2352 1158.72,149.7568 1197.44,108.8344 " fill="none" id="Freelancer-Payment" style="stroke: #A80036; stroke-width: 0.8;"/><polygon fill="#000000" points="1107.2,136.8,1109.6,132,1112,136.8,1107.2,136.8" style="stroke: #000000; stroke-width: 0.8;"/><text fill="#000000" font-family="sans-serif" font-size="10.4" lengthAdjust="spacingAndGlyphs" textLength="37.6" x="1092" y="149.9961">receives</text><text fill="#000000" font-family="sans-serif" font-size="10.4" lengthAdjust="spacingAndGlyphs" textLength="5.6" x="1048.1205" y="279.1955">1</text><text fill="#000000" font-family="sans-serif" font-size="10.4" lengthAdjust="spacingAndGlyphs" textLength="16" x="1175.284" y="125.67">1..*</text><!--MD5=[535e17355da54b57e77a1c7dbde973e0]
link Freelancer to Writer--><path d="M1041.624,329.5688 C1085.792,352.3448 1159.936,390.5766 1198.384,410.4048 " fill="none" id="Freelancer-Writer" style="stroke: #A80036; stroke-width: 0.8;"/><text fill="#000000" font-family="sans-serif" font-size="10.4" lengthAdjust="spacingAndGlyphs" textLength="88.8" x="1066.4" y="341.1961">receives email from</text><polygon fill="#000000" points="1157.6,335.7406,1162.4,338.1406,1157.6,340.5406,1157.6,335.7406" style="stroke: #000000; stroke-width: 0.8;"/><text fill="#000000" font-family="sans-serif" font-size="10.4" lengthAdjust="spacingAndGlyphs" textLength="5.6" x="1048.1205" y="344.5004">1</text><text fill="#000000" font-family="sans-serif" font-size="10.4" lengthAdjust="spacingAndGlyphs" textLength="5.6" x="1186.568" y="419.8327">1</text><!--MD5=[8853e9d83a8841c20c4ef075af762602]
link Task to Freelancer--><path d="M854.176,263.5008 C888.712,274.4656 936.28,289.5696 968.568,299.8224 " fill="none" id="Task-Freelancer" style="stroke: #A80036; stroke-width: 0.8;"/><text fill="#000000" font-family="sans-serif" font-size="10.4" lengthAdjust="spacingAndGlyphs" textLength="40" x="891.2" y="271.5961">made by</text><polygon fill="#000000" points="933.6,266.1406,938.4,268.5406,933.6,270.9406,933.6,266.1406" style="stroke: #000000; stroke-width: 0.8;"/><text fill="#000000" font-family="sans-serif" font-size="10.4" lengthAdjust="spacingAndGlyphs" textLength="16" x="860.2551" y="276.6673">1..*</text><text fill="#000000" font-family="sans-serif" font-size="10.4" lengthAdjust="spacingAndGlyphs" textLength="5.6" x="956.6835" y="309.8571">1</text><!--MD5=[7640e466c042ba2d6f9c19c816f7f0fc]
link Platform to Organization--><path d="M54.0683,359.9992 C64.7003,350.212 78.6512,337.484 91.2,326.4 C125.2936,296.2872 164.6648,262.6992 193.1584,238.6 " fill="none" id="Platform-Organization" style="stroke: #A80036; stroke-width: 0.8;"/><text fill="#000000" font-family="sans-serif" font-size="10.4" lengthAdjust="spacingAndGlyphs" textLength="65.6" x="92" y="257.1961">has registered</text><polygon fill="#000000" points="160,251.7406,164.8,254.1406,160,256.5406,160,251.7406" style="stroke: #000000; stroke-width: 0.8;"/><text fill="#000000" font-family="sans-serif" font-size="10.4" lengthAdjust="spacingAndGlyphs" textLength="5.6" x="53.1442" y="351.1781">1</text><text fill="#000000" font-family="sans-serif" font-size="10.4" lengthAdjust="spacingAndGlyphs" textLength="16" x="170.4026" y="254.9842">1..*</text><!--MD5=[22697d4d863c2e08ab1d60ca0d61f844]
link Platform to Freelancer--><path d="M67.4234,368.6584 C105.7544,360.1256 173.5336,347.2 232.4,347.2 C232.4,347.2 232.4,347.2 810.4,347.2 C866.408,347.2 930.008,332.5152 968.656,321.904 " fill="none" id="Platform-Freelancer" style="stroke: #A80036; stroke-width: 0.8;"/><text fill="#000000" font-family="sans-serif" font-size="10.4" lengthAdjust="spacingAndGlyphs" textLength="16.8" x="480.8" y="344.3961">has</text><polygon fill="#000000" points="500,338.9406,504.8,341.3406,500,343.7406,500,338.9406" style="stroke: #000000; stroke-width: 0.8;"/><text fill="#000000" font-family="sans-serif" font-size="10.4" lengthAdjust="spacingAndGlyphs" textLength="5.6" x="73.5195" y="379.3118">1</text><text fill="#000000" font-family="sans-serif" font-size="10.4" lengthAdjust="spacingAndGlyphs" textLength="16" x="946.392" y="335.1335">1..*</text><!--MD5=[22697d4d863c2e08ab1d60ca0d61f844]
link Platform to Freelancer--><path d="M67.4346,383.138 C105.7768,391.4338 173.568,404 232.4,404 C232.4,404 232.4,404 810.4,404 C870.32,404 931.368,367.5232 968.568,340.308 " fill="none" id="Platform-Freelancer-1" style="stroke: #A80036; stroke-width: 0.8;"/><text fill="#000000" font-family="sans-serif" font-size="10.4" lengthAdjust="spacingAndGlyphs" textLength="68" x="455.2" y="401.1961">sends email to</text><polygon fill="#000000" points="525.6,395.7406,530.4,398.1406,525.6,400.5406,525.6,395.7406" style="stroke: #000000; stroke-width: 0.8;"/><text fill="#000000" font-family="sans-serif" font-size="10.4" lengthAdjust="spacingAndGlyphs" textLength="5.6" x="73.5327" y="396.3706">1</text><text fill="#000000" font-family="sans-serif" font-size="10.4" lengthAdjust="spacingAndGlyphs" textLength="5.6" x="956.6835" y="356.7951">1</text><!--MD5=[0bf675f16fbaf9ae71c3659ee262a45e]
link Platform to Writer--><path d="M58.0706,392.1498 C92.6576,416.7538 164.112,460.8 232.4,460.8 C232.4,460.8 232.4,460.8 1006,460.8 C1076.608,460.8 1158.256,441.2701 1198.36,430.3608 " fill="none" id="Platform-Writer" style="stroke: #A80036; stroke-width: 0.8;"/><text fill="#000000" font-family="sans-serif" font-size="10.4" lengthAdjust="spacingAndGlyphs" textLength="84.8" x="570.8" y="457.9961">sends emails from</text><polygon fill="#000000" points="658,452.5406,662.8,454.9406,658,457.3406,658,452.5406" style="stroke: #000000; stroke-width: 0.8;"/><text fill="#000000" font-family="sans-serif" font-size="10.4" lengthAdjust="spacingAndGlyphs" textLength="5.6" x="57.8904" y="409.3276">1</text><text fill="#000000" font-family="sans-serif" font-size="10.4" lengthAdjust="spacingAndGlyphs" textLength="5.6" x="1186.5388" y="444.1541">1</text><!--MD5=[bc039f41cf0b27fadee5cae63fc6e1fe]
link Organization to Manager--><path d="M251.8752,172.608 C263.4032,153.044 279.5784,128.4656 297.6,109.6 C315.4296,90.9352 338.9888,73.8376 357.8024,61.5584 " fill="none" id="Organization-Manager" style="stroke: #A80036; stroke-width: 0.8;"/><polygon fill="#000000" points="303.2,79.2,305.6,74.4,308,79.2,303.2,79.2" style="stroke: #000000; stroke-width: 0.8;"/><text fill="#000000" font-family="sans-serif" font-size="10.4" lengthAdjust="spacingAndGlyphs" textLength="16.8" x="298.4" y="92.3961">has</text><text fill="#000000" font-family="sans-serif" font-size="10.4" lengthAdjust="spacingAndGlyphs" textLength="5.6" x="248.9045" y="164.1357">1</text><text fill="#000000" font-family="sans-serif" font-size="10.4" lengthAdjust="spacingAndGlyphs" textLength="5.6" x="345.8972" y="76.9672">1</text><!--MD5=[45817597bcd7048073a670d966abfd17]
link Organization to Collaborator--><path d="M273.6672,205.6 C297.1672,205.6 326.8352,205.6 350.2752,205.6 " fill="none" id="Organization-Collaborator" style="stroke: #A80036; stroke-width: 0.8;"/><text fill="#000000" font-family="sans-serif" font-size="10.4" lengthAdjust="spacingAndGlyphs" textLength="16.8" x="298.4" y="202.7961">has</text><polygon fill="#000000" points="317.6,197.3406,322.4,199.7406,317.6,202.1406,317.6,197.3406" style="stroke: #000000; stroke-width: 0.8;"/><text fill="#000000" font-family="sans-serif" font-size="10.4" lengthAdjust="spacingAndGlyphs" textLength="5.6" x="280.0221" y="213.7157">1</text><text fill="#000000" font-family="sans-serif" font-size="10.4" lengthAdjust="spacingAndGlyphs" textLength="5.6" x="338.3706" y="217.3567">1</text><!--MD5=[4078351e3988aa35b1504a42837f2ab1]
link Organization to Task--><path d="M273.7024,218.1752 C296.0048,224.6792 324.4856,232.0624 350.4,236 C501.336,258.9336 683.3416,255.1416 765.1928,251.7936 " fill="none" id="Organization-Task" style="stroke: #A80036; stroke-width: 0.8;"/><text fill="#000000" font-family="sans-serif" font-size="10.4" lengthAdjust="spacingAndGlyphs" textLength="16.8" x="480.8" y="244.3961">has</text><polygon fill="#000000" points="500,238.9406,504.8,241.3406,500,243.7406,500,238.9406" style="stroke: #000000; stroke-width: 0.8;"/><text fill="#000000" font-family="sans-serif" font-size="10.4" lengthAdjust="spacingAndGlyphs" textLength="5.6" x="280.0624" y="231.8078">1</text><text fill="#000000" font-family="sans-serif" font-size="10.4" lengthAdjust="spacingAndGlyphs" textLength="16" x="742.8057" y="263.6614">1..*</text><!--MD5=[cb0755ad77e11534d97f26a610810f27]
link Organization to DefinePayment--><path d="M273.6072,188.4192 C345.2,157.3632 495.7496,92.0568 571.704,59.1088 " fill="none" id="Organization-DefinePayment" style="stroke: #A80036; stroke-width: 0.8;"/><text fill="#000000" font-family="sans-serif" font-size="10.4" lengthAdjust="spacingAndGlyphs" textLength="42.4" x="364" y="119.5961">executes</text><polygon fill="#000000" points="408.8,114.1406,413.6,116.5406,408.8,118.9406,408.8,114.1406" style="stroke: #000000; stroke-width: 0.8;"/><text fill="#000000" font-family="sans-serif" font-size="10.4" lengthAdjust="spacingAndGlyphs" textLength="5.6" x="279.9533" y="197.6814">1</text><text fill="#000000" font-family="sans-serif" font-size="10.4" lengthAdjust="spacingAndGlyphs" textLength="16" x="549.7216" y="72.8193">1..*</text><!--MD5=[7607ad5d3fcdbaed39551b8453eb8b3b]
link Manager to DefinePayment--><path d="M422.9184,41.952 C461.6784,41.404 527.552,40.4728 571.8064,39.8472 " fill="none" id="Manager-DefinePayment" style="stroke: #A80036; stroke-width: 0.8;"/><text fill="#000000" font-family="sans-serif" font-size="10.4" lengthAdjust="spacingAndGlyphs" textLength="32.8" x="478" y="37.9961">defines</text><text fill="#000000" font-family="sans-serif" font-size="10.4" lengthAdjust="spacingAndGlyphs" textLength="5.6" x="429.2095" y="53.8684">1</text><text fill="#000000" font-family="sans-serif" font-size="10.4" lengthAdjust="spacingAndGlyphs" textLength="5.6" x="559.8778" y="51.5895">1</text><!--MD5=[57cb959bbb8d6516b63cb4c28268197c]
link TransactionExecution to Task--><path d="M678.5808,172.544 C695.6016,182.388 714.1608,193.1768 731.2,203.2 C742.2272,209.6864 754.0976,216.7448 765.1576,223.3552 " fill="none" id="TransactionExecution-Task" style="stroke: #A80036; stroke-width: 0.8;"/><text fill="#000000" font-family="sans-serif" font-size="10.4" lengthAdjust="spacingAndGlyphs" textLength="16.8" x="703.2" y="183.5961">has</text><polygon fill="#000000" points="722.4,178.1406,727.2,180.5406,722.4,182.9406,722.4,178.1406" style="stroke: #000000; stroke-width: 0.8;"/><text fill="#000000" font-family="sans-serif" font-size="10.4" lengthAdjust="spacingAndGlyphs" textLength="5.6" x="684.7805" y="187.3315">1</text><text fill="#000000" font-family="sans-serif" font-size="10.4" lengthAdjust="spacingAndGlyphs" textLength="5.6" x="753.2094" y="231.5115">1</text><!--MD5=[fcdd4dc74bc0207eaed6eb249aae2fb9]
link TransactionExecution to Freelancer--><path d="M678.6376,139.532 C730.0368,142.5968 805.128,152.1864 864,180.8 C905.288,200.8688 942.864,237.1936 968.728,266.4168 " fill="none" id="TransactionExecution-Freelancer" style="stroke: #A80036; stroke-width: 0.8;"/><text fill="#000000" font-family="sans-serif" font-size="10.4" lengthAdjust="spacingAndGlyphs" textLength="96.8" x="756" y="145.1961">related to the work of</text><polygon fill="#000000" points="855.2,139.7406,860,142.1406,855.2,144.5406,855.2,139.7406" style="stroke: #000000; stroke-width: 0.8;"/><text fill="#000000" font-family="sans-serif" font-size="10.4" lengthAdjust="spacingAndGlyphs" textLength="5.6" x="684.8429" y="151.0698">1</text><text fill="#000000" font-family="sans-serif" font-size="10.4" lengthAdjust="spacingAndGlyphs" textLength="5.6" x="956.869" y="271.1274">1</text><!--MD5=[209a2c3229d506e84b8c72b391c080a4]
link TransactionExecution to Payment--><path d="M678.5856,125.488 C686.5656,124.0232 694.664,122.6736 702.4,121.6 C885.632,96.1608 1107.552,85.8648 1190.144,82.732 " fill="none" id="TransactionExecution-Payment" style="stroke: #A80036; stroke-width: 0.8;"/><text fill="#000000" font-family="sans-serif" font-size="10.4" lengthAdjust="spacingAndGlyphs" textLength="44.8" x="888.8" y="93.9961">originates</text><polygon fill="#000000" points="936,88.5406,940.8,90.9406,936,93.3406,936,88.5406" style="stroke: #000000; stroke-width: 0.8;"/><text fill="#000000" font-family="sans-serif" font-size="10.4" lengthAdjust="spacingAndGlyphs" textLength="5.6" x="684.7857" y="135.6434">1</text><text fill="#000000" font-family="sans-serif" font-size="10.4" lengthAdjust="spacingAndGlyphs" textLength="5.6" x="1178.4729" y="94.8206">1</text><!--MD5=[8d90593bea2390679155cfb91b569b68]
link DefinePayment to Payment--><path d="M665.1608,36.2456 C759.952,31.192 983.592,24.648 1166.4,60.8 C1174.336,62.3688 1182.632,64.8752 1190.36,67.6144 " fill="none" id="DefinePayment-Payment" style="stroke: #A80036; stroke-width: 0.8;"/><text fill="#000000" font-family="sans-serif" font-size="10.4" lengthAdjust="spacingAndGlyphs" textLength="16.8" x="902.8" y="30.7961">has</text><polygon fill="#000000" points="922,25.3406,926.8,27.7406,922,30.1406,922,25.3406" style="stroke: #000000; stroke-width: 0.8;"/><text fill="#000000" font-family="sans-serif" font-size="10.4" lengthAdjust="spacingAndGlyphs" textLength="5.6" x="671.201" y="47.5028">1</text><text fill="#000000" font-family="sans-serif" font-size="10.4" lengthAdjust="spacingAndGlyphs" textLength="16" x="1167.9839" y="77.2906">1..*</text><!--MD5=[f919d21ae7a75ef5ececc535e09d5009]
link Collaborator to Task--><path d="M430.4864,209.7392 C508.6568,217.976 683.1776,236.364 764.9464,244.9792 " fill="none" id="Collaborator-Task" style="stroke: #A80036; stroke-width: 0.8;"/><text fill="#000000" font-family="sans-serif" font-size="10.4" lengthAdjust="spacingAndGlyphs" textLength="34.4" x="596" y="220.3961">creates</text><polygon fill="#000000" points="632.8,214.9406,637.6,217.3406,632.8,219.7406,632.8,214.9406" style="stroke: #000000; stroke-width: 0.8;"/><text fill="#000000" font-family="sans-serif" font-size="10.4" lengthAdjust="spacingAndGlyphs" textLength="5.6" x="436.7853" y="222.1039">1</text><text fill="#000000" font-family="sans-serif" font-size="10.4" lengthAdjust="spacingAndGlyphs" textLength="16" x="742.8583" y="241.7241">1..*</text><!--MD5=[2ab7a6a303d213bb8ebe4ab6162585db]
link Collaborator to TransactionExecution--><path d="M430.536,195.108 C459.3808,187.2944 499.444,176.1904 534.4,165.6 C542.1808,163.2424 550.3432,160.6824 558.388,158.1072 " fill="none" id="Collaborator-TransactionExecution" style="stroke: #A80036; stroke-width: 0.8;"/><text fill="#000000" font-family="sans-serif" font-size="10.4" lengthAdjust="spacingAndGlyphs" textLength="34.4" x="472" y="162.7961">creates</text><polygon fill="#000000" points="508.8,157.3406,513.6,159.7406,508.8,162.1406,508.8,157.3406" style="stroke: #000000; stroke-width: 0.8;"/><text fill="#000000" font-family="sans-serif" font-size="10.4" lengthAdjust="spacingAndGlyphs" textLength="5.6" x="436.8422" y="205.3237">1</text><text fill="#000000" font-family="sans-serif" font-size="10.4" lengthAdjust="spacingAndGlyphs" textLength="16" x="535.9056" y="171.3919">1..*</text><!--MD5=[1fb4cfcac61db0f063cc713c97c81225]
@startuml
skinparam classAttributeIconSize 0
hide methods
left to right direction

class Platform{
}
class Freelancer {
  -String freeID
  -String name
  -String levelExp
  -String email
  -String nif
  -String iban
  -String country
}

class Organization {
  -String name
  -String email
  -String nif
}

class Task {
  -String idTask
  -String description
  -int timeTask
  -double costHour
  -String taskCategory
  -boolean isPayed
  -boolean isFinished
}

class Manager {
  -String nameM
  -String emailM
  -String role
}

class TransactionExecution {
  -Date endDate
  -double delay
  -String descriptionOfQuality
  -int transID
}

class Payment{
  -double valueE
  -double valueC
}

class DefinePayment{
  -Time timeToPay
  -Date dateToPay
  -int nrDays
  }


class Writer{
  }

Freelancer "1" - - "1..*" Payment: receives >
Freelancer "1" - - "1" Writer: receives email from >

Task "1..*" - - "1" Freelancer: made by >


Platform "1" - - "1..*" Organization: has registered >
Platform "1" - - "1..*" Freelancer: has >
Platform "1" - - "1" Freelancer: sends email to >

Platform "1" - - "1" Writer : sends emails from >


Organization "1" - - "1" Manager: has >
Organization "1" - - "1" Collaborator: has >
Organization "1" - - "1..*" Task: has >
Organization "1" - - "1..*" DefinePayment: executes >


Manager "1" - - "1" DefinePayment: defines

TransactionExecution "1" - - "1" Task : has >
TransactionExecution "1" - - "1" Freelancer: related to the work of >
TransactionExecution "1" - - "1" Payment : originates >

DefinePayment "1" - - "1..*" Payment: has >

Collaborator "1" - - "1..*" Task: creates >
Collaborator "1" - - "1..*" TransactionExecution: creates >











@enduml

PlantUML version 1.2020.09(Sun May 10 11:51:06 BST 2020)
(GPL source distribution)
Java Runtime: OpenJDK Runtime Environment
JVM: OpenJDK 64-Bit Server VM
Java Version: 11.0.6+8-b765.40
Operating System: Windows 10
Default Encoding: Cp1252
Language: pt
Country: PT
--></g></svg>