<?xml version="1.0" encoding="UTF-8" standalone="no"?><svg xmlns="http://www.w3.org/2000/svg" xmlns:xlink="http://www.w3.org/1999/xlink" contentScriptType="application/ecmascript" contentStyleType="text/css" height="607px" preserveAspectRatio="none" style="width:1838px;height:607px;" version="1.1" viewBox="0 0 1838 607" width="1838px" zoomAndPan="magnify"><defs><filter height="300%" id="f1v75kaar0ltaq" width="300%" x="-1" y="-1"><feGaussianBlur result="blurOut" stdDeviation="2.0"/><feColorMatrix in="blurOut" result="blurOut2" type="matrix" values="0 0 0 0 0 0 0 0 0 0 0 0 0 0 0 0 0 0 .4 0"/><feOffset dx="4.0" dy="4.0" in="blurOut2" result="blurOut3"/><feBlend in="SourceGraphic" in2="blurOut3" mode="normal"/></filter></defs><g><!--MD5=[99b8db98afdc2c8404e39242ef4c1e65]
class Platform--><rect fill="#FEFECE" filter="url(#f1v75kaar0ltaq)" height="40" id="Platform" style="stroke: #A80036; stroke-width: 1.5;" width="84" x="6" y="357"/><ellipse cx="21" cy="373" fill="#ADD1B2" rx="11" ry="11" style="stroke: #A80036; stroke-width: 1.0;"/><path d="M23.9688,378.6406 Q23.3906,378.9375 22.75,379.0859 Q22.1094,379.2344 21.4063,379.2344 Q18.9063,379.2344 17.5859,377.5859 Q16.2656,375.9375 16.2656,372.8125 Q16.2656,369.6875 17.5859,368.0313 Q18.9063,366.375 21.4063,366.375 Q22.1094,366.375 22.7578,366.5313 Q23.4063,366.6875 23.9688,366.9844 L23.9688,369.7031 Q23.3438,369.125 22.75,368.8516 Q22.1563,368.5781 21.5313,368.5781 Q20.1875,368.5781 19.5,369.6484 Q18.8125,370.7188 18.8125,372.8125 Q18.8125,374.9063 19.5,375.9766 Q20.1875,377.0469 21.5313,377.0469 Q22.1563,377.0469 22.75,376.7734 Q23.3438,376.5 23.9688,375.9219 L23.9688,378.6406 Z "/><text fill="#000000" font-family="sans-serif" font-size="12" lengthAdjust="spacingAndGlyphs" textLength="52" x="35" y="377.1543">Platform</text><line style="stroke: #A80036; stroke-width: 1.5;" x1="7" x2="89" y1="389" y2="389"/><!--MD5=[1f687b5315377fe49fca59b457947463]
class Freelancer--><rect fill="#FEFECE" filter="url(#f1v75kaar0ltaq)" height="129.6328" id="Freelancer" style="stroke: #A80036; stroke-width: 1.5;" width="133" x="1177" y="324"/><ellipse cx="1207.3" cy="340" fill="#ADD1B2" rx="11" ry="11" style="stroke: #A80036; stroke-width: 1.0;"/><path d="M1210.2688,345.6406 Q1209.6906,345.9375 1209.05,346.0859 Q1208.4094,346.2344 1207.7063,346.2344 Q1205.2063,346.2344 1203.8859,344.5859 Q1202.5656,342.9375 1202.5656,339.8125 Q1202.5656,336.6875 1203.8859,335.0313 Q1205.2063,333.375 1207.7063,333.375 Q1208.4094,333.375 1209.0578,333.5313 Q1209.7063,333.6875 1210.2688,333.9844 L1210.2688,336.7031 Q1209.6438,336.125 1209.05,335.8516 Q1208.4563,335.5781 1207.8313,335.5781 Q1206.4875,335.5781 1205.8,336.6484 Q1205.1125,337.7188 1205.1125,339.8125 Q1205.1125,341.9063 1205.8,342.9766 Q1206.4875,344.0469 1207.8313,344.0469 Q1208.4563,344.0469 1209.05,343.7734 Q1209.6438,343.5 1210.2688,342.9219 L1210.2688,345.6406 Z "/><text fill="#000000" font-family="sans-serif" font-size="12" lengthAdjust="spacingAndGlyphs" textLength="67" x="1224.7" y="344.1543">Freelancer</text><line style="stroke: #A80036; stroke-width: 1.5;" x1="1178" x2="1309" y1="356" y2="356"/><text fill="#000000" font-family="sans-serif" font-size="11" lengthAdjust="spacingAndGlyphs" textLength="58" x="1183" y="370.2104">-String idF</text><text fill="#000000" font-family="sans-serif" font-size="11" lengthAdjust="spacingAndGlyphs" textLength="74" x="1183" y="383.0151">-String name</text><text fill="#000000" font-family="sans-serif" font-size="11" lengthAdjust="spacingAndGlyphs" textLength="121" x="1183" y="395.8198">-String levelExpertise</text><text fill="#000000" font-family="sans-serif" font-size="11" lengthAdjust="spacingAndGlyphs" textLength="73" x="1183" y="408.6245">-String email</text><text fill="#000000" font-family="sans-serif" font-size="11" lengthAdjust="spacingAndGlyphs" textLength="56" x="1183" y="421.4292">-String nif</text><text fill="#000000" font-family="sans-serif" font-size="11" lengthAdjust="spacingAndGlyphs" textLength="110" x="1183" y="434.2339">-String ibanAccount</text><text fill="#000000" font-family="sans-serif" font-size="11" lengthAdjust="spacingAndGlyphs" textLength="77" x="1183" y="447.0386">-String coutry</text><!--MD5=[86c7c362de55a38b660185a1328fe18d]
class Organization--><rect fill="#FEFECE" filter="url(#f1v75kaar0ltaq)" height="78.4141" id="Organization" style="stroke: #A80036; stroke-width: 1.5;" width="110" x="435" y="374"/><ellipse cx="450" cy="390" fill="#ADD1B2" rx="11" ry="11" style="stroke: #A80036; stroke-width: 1.0;"/><path d="M452.9688,395.6406 Q452.3906,395.9375 451.75,396.0859 Q451.1094,396.2344 450.4063,396.2344 Q447.9063,396.2344 446.5859,394.5859 Q445.2656,392.9375 445.2656,389.8125 Q445.2656,386.6875 446.5859,385.0313 Q447.9063,383.375 450.4063,383.375 Q451.1094,383.375 451.7578,383.5313 Q452.4063,383.6875 452.9688,383.9844 L452.9688,386.7031 Q452.3438,386.125 451.75,385.8516 Q451.1563,385.5781 450.5313,385.5781 Q449.1875,385.5781 448.5,386.6484 Q447.8125,387.7188 447.8125,389.8125 Q447.8125,391.9063 448.5,392.9766 Q449.1875,394.0469 450.5313,394.0469 Q451.1563,394.0469 451.75,393.7734 Q452.3438,393.5 452.9688,392.9219 L452.9688,395.6406 Z "/><text fill="#000000" font-family="sans-serif" font-size="12" lengthAdjust="spacingAndGlyphs" textLength="78" x="464" y="394.1543">Organization</text><line style="stroke: #A80036; stroke-width: 1.5;" x1="436" x2="544" y1="406" y2="406"/><text fill="#000000" font-family="sans-serif" font-size="11" lengthAdjust="spacingAndGlyphs" textLength="74" x="441" y="420.2104">-String nome</text><text fill="#000000" font-family="sans-serif" font-size="11" lengthAdjust="spacingAndGlyphs" textLength="73" x="441" y="433.0151">-String email</text><text fill="#000000" font-family="sans-serif" font-size="11" lengthAdjust="spacingAndGlyphs" textLength="56" x="441" y="445.8198">-String nif</text><!--MD5=[f483d6e5de34a60207b28a5563be5e8b]
class Collaborator--><rect fill="#FEFECE" filter="url(#f1v75kaar0ltaq)" height="65.6094" id="Collaborator" style="stroke: #A80036; stroke-width: 1.5;" width="109" x="643" y="271"/><ellipse cx="658" cy="287" fill="#ADD1B2" rx="11" ry="11" style="stroke: #A80036; stroke-width: 1.0;"/><path d="M660.9688,292.6406 Q660.3906,292.9375 659.75,293.0859 Q659.1094,293.2344 658.4063,293.2344 Q655.9063,293.2344 654.5859,291.5859 Q653.2656,289.9375 653.2656,286.8125 Q653.2656,283.6875 654.5859,282.0313 Q655.9063,280.375 658.4063,280.375 Q659.1094,280.375 659.7578,280.5313 Q660.4063,280.6875 660.9688,280.9844 L660.9688,283.7031 Q660.3438,283.125 659.75,282.8516 Q659.1563,282.5781 658.5313,282.5781 Q657.1875,282.5781 656.5,283.6484 Q655.8125,284.7188 655.8125,286.8125 Q655.8125,288.9063 656.5,289.9766 Q657.1875,291.0469 658.5313,291.0469 Q659.1563,291.0469 659.75,290.7734 Q660.3438,290.5 660.9688,289.9219 L660.9688,292.6406 Z "/><text fill="#000000" font-family="sans-serif" font-size="12" lengthAdjust="spacingAndGlyphs" textLength="77" x="672" y="291.1543">Collaborator</text><line style="stroke: #A80036; stroke-width: 1.5;" x1="644" x2="751" y1="303" y2="303"/><text fill="#000000" font-family="sans-serif" font-size="11" lengthAdjust="spacingAndGlyphs" textLength="74" x="649" y="317.2104">-String nome</text><text fill="#000000" font-family="sans-serif" font-size="11" lengthAdjust="spacingAndGlyphs" textLength="73" x="649" y="330.0151">-String email</text><!--MD5=[b34797a66dc35cbf1d65f7e3ca75530e]
class Task--><rect fill="#FEFECE" filter="url(#f1v75kaar0ltaq)" height="104.0234" id="Task" style="stroke: #A80036; stroke-width: 1.5;" width="129" x="1698" y="169"/><ellipse cx="1743.75" cy="185" fill="#ADD1B2" rx="11" ry="11" style="stroke: #A80036; stroke-width: 1.0;"/><path d="M1746.7188,190.6406 Q1746.1406,190.9375 1745.5,191.0859 Q1744.8594,191.2344 1744.1563,191.2344 Q1741.6563,191.2344 1740.3359,189.5859 Q1739.0156,187.9375 1739.0156,184.8125 Q1739.0156,181.6875 1740.3359,180.0313 Q1741.6563,178.375 1744.1563,178.375 Q1744.8594,178.375 1745.5078,178.5313 Q1746.1563,178.6875 1746.7188,178.9844 L1746.7188,181.7031 Q1746.0938,181.125 1745.5,180.8516 Q1744.9063,180.5781 1744.2813,180.5781 Q1742.9375,180.5781 1742.25,181.6484 Q1741.5625,182.7188 1741.5625,184.8125 Q1741.5625,186.9063 1742.25,187.9766 Q1742.9375,189.0469 1744.2813,189.0469 Q1744.9063,189.0469 1745.5,188.7734 Q1746.0938,188.5 1746.7188,187.9219 L1746.7188,190.6406 Z "/><text fill="#000000" font-family="sans-serif" font-size="12" lengthAdjust="spacingAndGlyphs" textLength="29" x="1764.25" y="189.1543">Task</text><line style="stroke: #A80036; stroke-width: 1.5;" x1="1699" x2="1826" y1="201" y2="201"/><text fill="#000000" font-family="sans-serif" font-size="11" lengthAdjust="spacingAndGlyphs" textLength="59" x="1704" y="215.2104">-String idT</text><text fill="#000000" font-family="sans-serif" font-size="11" lengthAdjust="spacingAndGlyphs" textLength="105" x="1704" y="228.0151">-String description</text><text fill="#000000" font-family="sans-serif" font-size="11" lengthAdjust="spacingAndGlyphs" textLength="109" x="1704" y="240.8198">-Time timeDuration</text><text fill="#000000" font-family="sans-serif" font-size="11" lengthAdjust="spacingAndGlyphs" textLength="97" x="1704" y="253.6245">-double costHour</text><text fill="#000000" font-family="sans-serif" font-size="11" lengthAdjust="spacingAndGlyphs" textLength="117" x="1704" y="266.4292">-String taskCategory</text><!--MD5=[4555bb1b0911a5adf28ce6dbe60fed2e]
class Transaction--><rect fill="#FEFECE" filter="url(#f1v75kaar0ltaq)" height="78.4141" id="Transaction" style="stroke: #A80036; stroke-width: 1.5;" width="169" x="1431" y="182"/><ellipse cx="1474.35" cy="198" fill="#ADD1B2" rx="11" ry="11" style="stroke: #A80036; stroke-width: 1.0;"/><path d="M1477.3188,203.6406 Q1476.7406,203.9375 1476.1,204.0859 Q1475.4594,204.2344 1474.7563,204.2344 Q1472.2563,204.2344 1470.9359,202.5859 Q1469.6156,200.9375 1469.6156,197.8125 Q1469.6156,194.6875 1470.9359,193.0313 Q1472.2563,191.375 1474.7563,191.375 Q1475.4594,191.375 1476.1078,191.5313 Q1476.7563,191.6875 1477.3188,191.9844 L1477.3188,194.7031 Q1476.6938,194.125 1476.1,193.8516 Q1475.5063,193.5781 1474.8813,193.5781 Q1473.5375,193.5781 1472.85,194.6484 Q1472.1625,195.7188 1472.1625,197.8125 Q1472.1625,199.9063 1472.85,200.9766 Q1473.5375,202.0469 1474.8813,202.0469 Q1475.5063,202.0469 1476.1,201.7734 Q1476.6938,201.5 1477.3188,200.9219 L1477.3188,203.6406 Z "/><text fill="#000000" font-family="sans-serif" font-size="12" lengthAdjust="spacingAndGlyphs" textLength="74" x="1494.65" y="202.1543">Transaction</text><line style="stroke: #A80036; stroke-width: 1.5;" x1="1432" x2="1599" y1="214" y2="214"/><text fill="#000000" font-family="sans-serif" font-size="11" lengthAdjust="spacingAndGlyphs" textLength="81" x="1437" y="228.2104">-Data endDate</text><text fill="#000000" font-family="sans-serif" font-size="11" lengthAdjust="spacingAndGlyphs" textLength="76" x="1437" y="241.0151">-double delay</text><text fill="#000000" font-family="sans-serif" font-size="11" lengthAdjust="spacingAndGlyphs" textLength="157" x="1437" y="253.8198">-String descriptionOfQuality</text><!--MD5=[0f39e4cb6f03951afbf6d14bd2505654]
class Address--><rect fill="#FEFECE" filter="url(#f1v75kaar0ltaq)" height="78.4141" id="Address" style="stroke: #A80036; stroke-width: 1.5;" width="125" x="1453" y="455"/><ellipse cx="1486.9" cy="471" fill="#ADD1B2" rx="11" ry="11" style="stroke: #A80036; stroke-width: 1.0;"/><path d="M1489.8688,476.6406 Q1489.2906,476.9375 1488.65,477.0859 Q1488.0094,477.2344 1487.3063,477.2344 Q1484.8063,477.2344 1483.4859,475.5859 Q1482.1656,473.9375 1482.1656,470.8125 Q1482.1656,467.6875 1483.4859,466.0313 Q1484.8063,464.375 1487.3063,464.375 Q1488.0094,464.375 1488.6578,464.5313 Q1489.3063,464.6875 1489.8688,464.9844 L1489.8688,467.7031 Q1489.2438,467.125 1488.65,466.8516 Q1488.0563,466.5781 1487.4313,466.5781 Q1486.0875,466.5781 1485.4,467.6484 Q1484.7125,468.7188 1484.7125,470.8125 Q1484.7125,472.9063 1485.4,473.9766 Q1486.0875,475.0469 1487.4313,475.0469 Q1488.0563,475.0469 1488.65,474.7734 Q1489.2438,474.5 1489.8688,473.9219 L1489.8688,476.6406 Z "/><text fill="#000000" font-family="sans-serif" font-size="12" lengthAdjust="spacingAndGlyphs" textLength="51" x="1505.1" y="475.1543">Address</text><line style="stroke: #A80036; stroke-width: 1.5;" x1="1454" x2="1577" y1="487" y2="487"/><text fill="#000000" font-family="sans-serif" font-size="11" lengthAdjust="spacingAndGlyphs" textLength="76" x="1459" y="501.2104">-String street</text><text fill="#000000" font-family="sans-serif" font-size="11" lengthAdjust="spacingAndGlyphs" textLength="113" x="1459" y="514.0151">-String doorNumber</text><text fill="#000000" font-family="sans-serif" font-size="11" lengthAdjust="spacingAndGlyphs" textLength="61" x="1459" y="526.8198">-String city</text><!--MD5=[da547346deef918ea16944ba046651ef]
class Administrator--><rect fill="#FEFECE" filter="url(#f1v75kaar0ltaq)" height="40" id="Administrator" style="stroke: #A80036; stroke-width: 1.5;" width="116" x="188" y="321"/><ellipse cx="203" cy="337" fill="#ADD1B2" rx="11" ry="11" style="stroke: #A80036; stroke-width: 1.0;"/><path d="M205.9688,342.6406 Q205.3906,342.9375 204.75,343.0859 Q204.1094,343.2344 203.4063,343.2344 Q200.9063,343.2344 199.5859,341.5859 Q198.2656,339.9375 198.2656,336.8125 Q198.2656,333.6875 199.5859,332.0313 Q200.9063,330.375 203.4063,330.375 Q204.1094,330.375 204.7578,330.5313 Q205.4063,330.6875 205.9688,330.9844 L205.9688,333.7031 Q205.3438,333.125 204.75,332.8516 Q204.1563,332.5781 203.5313,332.5781 Q202.1875,332.5781 201.5,333.6484 Q200.8125,334.7188 200.8125,336.8125 Q200.8125,338.9063 201.5,339.9766 Q202.1875,341.0469 203.5313,341.0469 Q204.1563,341.0469 204.75,340.7734 Q205.3438,340.5 205.9688,339.9219 L205.9688,342.6406 Z "/><text fill="#000000" font-family="sans-serif" font-size="12" lengthAdjust="spacingAndGlyphs" textLength="84" x="217" y="341.1543">Administrator</text><line style="stroke: #A80036; stroke-width: 1.5;" x1="189" x2="303" y1="353" y2="353"/><!--MD5=[e86a4777f2c0372cf9fb3cd047e1466e]
class Reader--><rect fill="#FEFECE" filter="url(#f1v75kaar0ltaq)" height="52.8047" id="Reader" style="stroke: #A80036; stroke-width: 1.5;" width="104" x="645.5" y="389.5"/><ellipse cx="672.65" cy="405.5" fill="#ADD1B2" rx="11" ry="11" style="stroke: #A80036; stroke-width: 1.0;"/><path d="M675.6188,411.1406 Q675.0406,411.4375 674.4,411.5859 Q673.7594,411.7344 673.0563,411.7344 Q670.5563,411.7344 669.2359,410.0859 Q667.9156,408.4375 667.9156,405.3125 Q667.9156,402.1875 669.2359,400.5313 Q670.5563,398.875 673.0563,398.875 Q673.7594,398.875 674.4078,399.0313 Q675.0563,399.1875 675.6188,399.4844 L675.6188,402.2031 Q674.9938,401.625 674.4,401.3516 Q673.8063,401.0781 673.1813,401.0781 Q671.8375,401.0781 671.15,402.1484 Q670.4625,403.2188 670.4625,405.3125 Q670.4625,407.4063 671.15,408.4766 Q671.8375,409.5469 673.1813,409.5469 Q673.8063,409.5469 674.4,409.2734 Q674.9938,409 675.6188,408.4219 L675.6188,411.1406 Z "/><text fill="#000000" font-family="sans-serif" font-size="12" lengthAdjust="spacingAndGlyphs" textLength="45" x="689.35" y="409.6543">Reader</text><line style="stroke: #A80036; stroke-width: 1.5;" x1="646.5" x2="748.5" y1="421.5" y2="421.5"/><text fill="#000000" font-family="sans-serif" font-size="11" lengthAdjust="spacingAndGlyphs" textLength="92" x="651.5" y="435.7104">-String fileName</text><!--MD5=[5f120048d977cf6fddcd4f613ae1ac70]
class HistoricalTransaction--><rect fill="#FEFECE" filter="url(#f1v75kaar0ltaq)" height="40" id="HistoricalTransaction" style="stroke: #A80036; stroke-width: 1.5;" width="164" x="890" y="284"/><ellipse cx="905" cy="300" fill="#ADD1B2" rx="11" ry="11" style="stroke: #A80036; stroke-width: 1.0;"/><path d="M907.9688,305.6406 Q907.3906,305.9375 906.75,306.0859 Q906.1094,306.2344 905.4063,306.2344 Q902.9063,306.2344 901.5859,304.5859 Q900.2656,302.9375 900.2656,299.8125 Q900.2656,296.6875 901.5859,295.0313 Q902.9063,293.375 905.4063,293.375 Q906.1094,293.375 906.7578,293.5313 Q907.4063,293.6875 907.9688,293.9844 L907.9688,296.7031 Q907.3438,296.125 906.75,295.8516 Q906.1563,295.5781 905.5313,295.5781 Q904.1875,295.5781 903.5,296.6484 Q902.8125,297.7188 902.8125,299.8125 Q902.8125,301.9063 903.5,302.9766 Q904.1875,304.0469 905.5313,304.0469 Q906.1563,304.0469 906.75,303.7734 Q907.3438,303.5 907.9688,302.9219 L907.9688,305.6406 Z "/><text fill="#000000" font-family="sans-serif" font-size="12" lengthAdjust="spacingAndGlyphs" textLength="132" x="919" y="304.1543">HistoricalTransaction</text><line style="stroke: #A80036; stroke-width: 1.5;" x1="891" x2="1053" y1="316" y2="316"/><!--MD5=[83bb469d45366b675450ee1d8d93a557]
link Freelancer to Transaction--><path d="M1310.292,351.1155 C1338.5031,334.8231 1371.5721,315.3404 1401,297 C1419.7298,285.327 1439.8732,272.1672 1457.9635,260.119 " fill="none" id="Freelancer-Transaction" style="stroke: #A80036; stroke-width: 1.0;"/><text fill="#000000" font-family="sans-serif" font-size="13" lengthAdjust="spacingAndGlyphs" textLength="46" x="1341" y="293.0669">receive</text><polygon fill="#000000" points="1390,287.0664,1396,290.0664,1390,293.0664,1390,287.0664" style="stroke: #000000; stroke-width: 1.0;"/><text fill="#000000" font-family="sans-serif" font-size="13" lengthAdjust="spacingAndGlyphs" textLength="8" x="1318.0349" y="359.8864">1</text><text fill="#000000" font-family="sans-serif" font-size="13" lengthAdjust="spacingAndGlyphs" textLength="8" x="1439.0023" y="280.4649">1</text><!--MD5=[874150c88719dac3f651931978d26083]
link Freelancer to Address--><path d="M1310.0387,414.6859 C1353.6041,431.5034 1410.1685,453.3389 1452.915,469.8404 " fill="none" id="Freelancer-Address" style="stroke: #A80036; stroke-width: 1.0;"/><text fill="#000000" font-family="sans-serif" font-size="13" lengthAdjust="spacingAndGlyphs" textLength="23" x="1352.5" y="425.0669">has</text><polygon fill="#000000" points="1378.5,419.0664,1384.5,422.0664,1378.5,425.0664,1378.5,419.0664" style="stroke: #000000; stroke-width: 1.0;"/><text fill="#000000" font-family="sans-serif" font-size="13" lengthAdjust="spacingAndGlyphs" textLength="8" x="1318.1947" y="430.6188">1</text><text fill="#000000" font-family="sans-serif" font-size="13" lengthAdjust="spacingAndGlyphs" textLength="8" x="1436.8" y="479.8598">1</text><!--MD5=[8853e9d83a8841c20c4ef075af762602]
link Task to Freelancer--><path d="M1697.9181,253.4598 C1668.5218,267.4365 1632.9939,283.2335 1600,295 C1501.1266,330.2607 1382.627,358.9213 1310.225,374.9671 " fill="none" id="Task-Freelancer" style="stroke: #A80036; stroke-width: 1.0;"/><polygon fill="#000000" points="1488,285.0664,1482,288.0664,1488,291.0664,1488,285.0664" style="stroke: #000000; stroke-width: 1.0;"/><text fill="#000000" font-family="sans-serif" font-size="13" lengthAdjust="spacingAndGlyphs" textLength="56" x="1494" y="291.0669">made by</text><text fill="#000000" font-family="sans-serif" font-size="13" lengthAdjust="spacingAndGlyphs" textLength="23" x="1667.0722" y="269.6532">1..*</text><text fill="#000000" font-family="sans-serif" font-size="13" lengthAdjust="spacingAndGlyphs" textLength="8" x="1317.9605" y="386.3468">1</text><!--MD5=[3781be57b219e856d6dd67e0b949b069]
link Platform to Transaction--><path d="M49.6143,356.8107 C56.7935,282.0152 92.622,25 246,25 C246,25 246,25 1243.5,25 C1349.7242,25 1442.7299,124.6098 1487.3792,181.8075 " fill="none" id="Platform-Transaction" style="stroke: #A80036; stroke-width: 1.0;"/><text fill="#000000" font-family="sans-serif" font-size="13" lengthAdjust="spacingAndGlyphs" textLength="23" x="679.5" y="21.0669">has</text><polygon fill="#000000" points="705.5,15.0664,711.5,18.0664,705.5,21.0664,705.5,15.0664" style="stroke: #000000; stroke-width: 1.0;"/><text fill="#000000" font-family="sans-serif" font-size="13" lengthAdjust="spacingAndGlyphs" textLength="8" x="40.9135" y="345.7634">1</text><text fill="#000000" font-family="sans-serif" font-size="13" lengthAdjust="spacingAndGlyphs" textLength="23" x="1457.5694" y="170.825">1..*</text><!--MD5=[0f7004bed4496639b3a5258ab2ead378]
link Platform to Administrator--><path d="M90.476,369.2771 C118.8836,364.1121 156.6293,357.2492 187.8208,351.578 " fill="none" id="Platform-Administrator" style="stroke: #A80036; stroke-width: 1.0;"/><text fill="#000000" font-family="sans-serif" font-size="13" lengthAdjust="spacingAndGlyphs" textLength="23" x="121" y="353.0669">has</text><polygon fill="#000000" points="147,347.0664,153,350.0664,147,353.0664,147,347.0664" style="stroke: #000000; stroke-width: 1.0;"/><text fill="#000000" font-family="sans-serif" font-size="13" lengthAdjust="spacingAndGlyphs" textLength="8" x="97.8831" y="363.9284">1</text><text fill="#000000" font-family="sans-serif" font-size="13" lengthAdjust="spacingAndGlyphs" textLength="8" x="171.8541" y="365.9696">1</text><!--MD5=[7640e466c042ba2d6f9c19c816f7f0fc]
link Platform to Organization--><path d="M90.1719,383.6039 C117.9076,387.7295 155.0378,392.8405 188,396 C273.9907,404.2425 374.1677,408.9115 434.7933,411.1961 " fill="none" id="Platform-Organization" style="stroke: #A80036; stroke-width: 1.0;"/><text fill="#000000" font-family="sans-serif" font-size="13" lengthAdjust="spacingAndGlyphs" textLength="92" x="193.5" y="392.0669">has registered</text><polygon fill="#000000" points="288.5,386.0664,294.5,389.0664,288.5,392.0664,288.5,386.0664" style="stroke: #000000; stroke-width: 1.0;"/><text fill="#000000" font-family="sans-serif" font-size="13" lengthAdjust="spacingAndGlyphs" textLength="8" x="98.1077" y="398.1063">1</text><text fill="#000000" font-family="sans-serif" font-size="13" lengthAdjust="spacingAndGlyphs" textLength="23" x="404.0803" y="423.9053">1..*</text><!--MD5=[22697d4d863c2e08ab1d60ca0d61f844]
link Platform to Freelancer--><path d="M55.0563,397.1182 C75.4094,451.0859 139.6542,595 246,595 C246,595 246,595 972,595 C1066.6681,595 1149.0558,514.5312 1197.5338,454.1797 " fill="none" id="Platform-Freelancer" style="stroke: #A80036; stroke-width: 1.0;"/><text fill="#000000" font-family="sans-serif" font-size="13" lengthAdjust="spacingAndGlyphs" textLength="23" x="576" y="591.0669">has</text><polygon fill="#000000" points="602,585.0664,608,588.0664,602,591.0664,602,585.0664" style="stroke: #000000; stroke-width: 1.0;"/><text fill="#000000" font-family="sans-serif" font-size="13" lengthAdjust="spacingAndGlyphs" textLength="8" x="47.9159" y="416.9714">1</text><text fill="#000000" font-family="sans-serif" font-size="13" lengthAdjust="spacingAndGlyphs" textLength="23" x="1168.6076" y="473.7675">1..*</text><!--MD5=[ec97d39b7e7a4ec2b79aa9dbbb3f5070]
link Organization to Address--><path d="M542.9625,452.0478 C583.2341,477.8742 641.1435,507 697.5,507 C697.5,507 697.5,507 1243.5,507 C1315.3597,507 1397.7766,502.417 1452.8807,498.6933 " fill="none" id="Organization-Address" style="stroke: #A80036; stroke-width: 1.0;"/><text fill="#000000" font-family="sans-serif" font-size="13" lengthAdjust="spacingAndGlyphs" textLength="23" x="954" y="503.0669">has</text><polygon fill="#000000" points="980,497.0664,986,500.0664,980,503.0664,980,497.0664" style="stroke: #000000; stroke-width: 1.0;"/><text fill="#000000" font-family="sans-serif" font-size="13" lengthAdjust="spacingAndGlyphs" textLength="8" x="543.6839" y="472.381">1</text><text fill="#000000" font-family="sans-serif" font-size="13" lengthAdjust="spacingAndGlyphs" textLength="8" x="1437.1778" y="512.1538">1</text><!--MD5=[45817597bcd7048073a670d966abfd17]
link Organization to Collaborator--><path d="M545.0614,384.0762 C575.3176,368.1826 612.7184,348.5359 642.9013,332.6808 " fill="none" id="Organization-Collaborator" style="stroke: #A80036; stroke-width: 1.0;"/><text fill="#000000" font-family="sans-serif" font-size="13" lengthAdjust="spacingAndGlyphs" textLength="23" x="576" y="344.0669">has</text><polygon fill="#000000" points="602,338.0664,608,341.0664,602,344.0664,602,338.0664" style="stroke: #000000; stroke-width: 1.0;"/><text fill="#000000" font-family="sans-serif" font-size="13" lengthAdjust="spacingAndGlyphs" textLength="8" x="552.9978" y="393.2454">1</text><text fill="#000000" font-family="sans-serif" font-size="13" lengthAdjust="spacingAndGlyphs" textLength="8" x="627.0271" y="349.6447">1</text><!--MD5=[2a41c1af413c0662bf55a6b8913ea24f]
link Administrator to Organization--><path d="M304.1341,358.1543 C343.7431,369.8422 395.8601,385.221 434.825,396.7188 " fill="none" id="Administrator-Organization" style="stroke: #A80036; stroke-width: 1.0;"/><text fill="#000000" font-family="sans-serif" font-size="13" lengthAdjust="spacingAndGlyphs" textLength="56" x="335" y="364.0669">registers</text><polygon fill="#000000" points="394,358.0664,400,361.0664,394,364.0664,394,358.0664" style="stroke: #000000; stroke-width: 1.0;"/><text fill="#000000" font-family="sans-serif" font-size="13" lengthAdjust="spacingAndGlyphs" textLength="8" x="312.095" y="373.3885">1</text><text fill="#000000" font-family="sans-serif" font-size="13" lengthAdjust="spacingAndGlyphs" textLength="8" x="418.8734" y="390.5712">1</text><!--MD5=[757406b2e460220911d4cccaa97c87d9]
link Administrator to Collaborator--><path d="M304.1014,336.2386 C391.867,329.0463 557.0811,315.5072 642.7971,308.4829 " fill="none" id="Administrator-Collaborator" style="stroke: #A80036; stroke-width: 1.0;"/><text fill="#000000" font-family="sans-serif" font-size="13" lengthAdjust="spacingAndGlyphs" textLength="56" x="455.5" y="313.0669">registers</text><polygon fill="#000000" points="514.5,307.0664,520.5,310.0664,514.5,313.0664,514.5,307.0664" style="stroke: #000000; stroke-width: 1.0;"/><text fill="#000000" font-family="sans-serif" font-size="13" lengthAdjust="spacingAndGlyphs" textLength="8" x="312.0581" y="348.6649">1</text><text fill="#000000" font-family="sans-serif" font-size="13" lengthAdjust="spacingAndGlyphs" textLength="8" x="626.9089" y="322.1952">1</text><!--MD5=[8e4873cec2cb3febaaa9495c716fc885]
link Transaction to Task--><path d="M1600.1578,221 C1632.138,221 1667.9869,221 1697.8463,221 " fill="none" id="Transaction-Task" style="stroke: #A80036; stroke-width: 1.0;"/><text fill="#000000" font-family="sans-serif" font-size="13" lengthAdjust="spacingAndGlyphs" textLength="23" x="1631" y="217.0669">has</text><polygon fill="#000000" points="1657,211.0664,1663,214.0664,1657,217.0664,1657,211.0664" style="stroke: #000000; stroke-width: 1.0;"/><text fill="#000000" font-family="sans-serif" font-size="13" lengthAdjust="spacingAndGlyphs" textLength="8" x="1608.0539" y="233.7223">1</text><text fill="#000000" font-family="sans-serif" font-size="13" lengthAdjust="spacingAndGlyphs" textLength="8" x="1681.9082" y="233.9404">1</text><!--MD5=[818a7ceb57ddd368999fbf099f390a6d]
link Reader to HistoricalTransaction--><path d="M749.7775,394.67 C799.5548,374.3602 873.9161,344.0197 922.6872,324.1203 " fill="none" id="Reader-HistoricalTransaction" style="stroke: #A80036; stroke-width: 1.0;"/><text fill="#000000" font-family="sans-serif" font-size="13" lengthAdjust="spacingAndGlyphs" textLength="63" x="783" y="345.0669">originates</text><polygon fill="#000000" points="849,339.0664,855,342.0664,849,345.0664,849,339.0664" style="stroke: #000000; stroke-width: 1.0;"/><text fill="#000000" font-family="sans-serif" font-size="13" lengthAdjust="spacingAndGlyphs" textLength="8" x="757.3398" y="404.9005">1</text><text fill="#000000" font-family="sans-serif" font-size="13" lengthAdjust="spacingAndGlyphs" textLength="23" x="882.5836" y="343.9741">1..*</text><!--MD5=[09813f49c964f2362ae6ca00d2202492]
link HistoricalTransaction to Transaction--><path d="M1054.2507,291.4392 C1155.8885,275.9177 1327.9495,249.6416 1430.7335,233.945 " fill="none" id="HistoricalTransaction-Transaction" style="stroke: #A80036; stroke-width: 1.0;"/><text fill="#000000" font-family="sans-serif" font-size="13" lengthAdjust="spacingAndGlyphs" textLength="23" x="1225.5" y="248.0669">has</text><polygon fill="#000000" points="1251.5,242.0664,1257.5,245.0664,1251.5,248.0664,1251.5,242.0664" style="stroke: #000000; stroke-width: 1.0;"/><text fill="#000000" font-family="sans-serif" font-size="13" lengthAdjust="spacingAndGlyphs" textLength="8" x="1061.9324" y="303.0613">1</text><text fill="#000000" font-family="sans-serif" font-size="13" lengthAdjust="spacingAndGlyphs" textLength="23" x="1400.0623" y="247.6299">1..*</text><!--MD5=[9fd72751b03cb19134c76fd7e0acb422]
link HistoricalTransaction to Freelancer--><path d="M1054.099,323.2868 C1083.6292,330.8254 1117.0372,340.0521 1147,350 C1156.7752,353.2455 1166.9814,356.9791 1176.9422,360.8227 " fill="none" id="HistoricalTransaction-Freelancer" style="stroke: #A80036; stroke-width: 1.0;"/><text fill="#000000" font-family="sans-serif" font-size="13" lengthAdjust="spacingAndGlyphs" textLength="23" x="1097.5" y="327.0669">has</text><polygon fill="#000000" points="1123.5,321.0664,1129.5,324.0664,1123.5,327.0664,1123.5,321.0664" style="stroke: #000000; stroke-width: 1.0;"/><text fill="#000000" font-family="sans-serif" font-size="13" lengthAdjust="spacingAndGlyphs" textLength="8" x="1062.0363" y="337.8292">1</text><text fill="#000000" font-family="sans-serif" font-size="13" lengthAdjust="spacingAndGlyphs" textLength="23" x="1145.8925" y="370.783">1..*</text><!--MD5=[d2c3650dbd07e79cdad2ffd4a879dec6]
link Collaborator to Freelancer--><path d="M752.009,322.6327 C790.1912,334.9259 842.6515,350.3115 890,359 C988.8979,377.1478 1105.415,384.3497 1176.8626,387.1861 " fill="none" id="Collaborator-Freelancer" style="stroke: #A80036; stroke-width: 1.0;"/><text fill="#000000" font-family="sans-serif" font-size="13" lengthAdjust="spacingAndGlyphs" textLength="48" x="941.5" y="355.0669">creates</text><polygon fill="#000000" points="992.5,349.0664,998.5,352.0664,992.5,355.0664,992.5,349.0664" style="stroke: #000000; stroke-width: 1.0;"/><text fill="#000000" font-family="sans-serif" font-size="13" lengthAdjust="spacingAndGlyphs" textLength="8" x="759.8711" y="338.2463">1</text><text fill="#000000" font-family="sans-serif" font-size="13" lengthAdjust="spacingAndGlyphs" textLength="8" x="1161.1366" y="399.9023">1</text><!--MD5=[f919d21ae7a75ef5ececc535e09d5009]
link Collaborator to Task--><path d="M719.5156,270.5812 C761.204,211.7844 857.7965,96 972,96 C972,96 972,96 1515.5,96 C1583.7459,96 1652.278,134.4598 1699.7811,168.713 " fill="none" id="Collaborator-Task" style="stroke: #A80036; stroke-width: 1.0;"/><text fill="#000000" font-family="sans-serif" font-size="13" lengthAdjust="spacingAndGlyphs" textLength="48" x="1213" y="92.0669">creates</text><polygon fill="#000000" points="1264,86.0664,1270,89.0664,1264,92.0664,1264,86.0664" style="stroke: #000000; stroke-width: 1.0;"/><text fill="#000000" font-family="sans-serif" font-size="13" lengthAdjust="spacingAndGlyphs" textLength="8" x="714.9498" y="259.8978">1</text><text fill="#000000" font-family="sans-serif" font-size="13" lengthAdjust="spacingAndGlyphs" textLength="23" x="1666.8079" y="157.7534">1..*</text><!--MD5=[8b5db564ea9bd1758097b07ca3fd81a4]
link Collaborator to Transaction--><path d="M752.1795,286.4666 C762.0376,283.6944 772.2728,281.0659 782,279 C1026.0821,227.1613 1090.5909,224.6434 1340,217 C1369.5485,216.0945 1401.9013,216.4494 1430.691,217.2397 " fill="none" id="Collaborator-Transaction" style="stroke: #A80036; stroke-width: 1.0;"/><text fill="#000000" font-family="sans-serif" font-size="13" lengthAdjust="spacingAndGlyphs" textLength="48" x="1085" y="220.0669">creates</text><polygon fill="#000000" points="1136,214.0664,1142,217.0664,1136,220.0664,1136,214.0664" style="stroke: #000000; stroke-width: 1.0;"/><text fill="#000000" font-family="sans-serif" font-size="13" lengthAdjust="spacingAndGlyphs" textLength="8" x="760.0646" y="297.2204">1</text><text fill="#000000" font-family="sans-serif" font-size="13" lengthAdjust="spacingAndGlyphs" textLength="23" x="1400.0164" y="229.5934">1..*</text><!--MD5=[2bf0bd16ae3d2322f415cdcee023b5a6]
link Collaborator to HistoricalTransaction--><path d="M752.0606,304 C791.4614,304 845.357,304 889.9344,304 " fill="none" id="Collaborator-HistoricalTransaction" style="stroke: #A80036; stroke-width: 1.0;"/><text fill="#000000" font-family="sans-serif" font-size="13" lengthAdjust="spacingAndGlyphs" textLength="27" x="801" y="300.0669">load</text><polygon fill="#000000" points="831,294.0664,837,297.0664,831,300.0664,831,294.0664" style="stroke: #000000; stroke-width: 1.0;"/><text fill="#000000" font-family="sans-serif" font-size="13" lengthAdjust="spacingAndGlyphs" textLength="8" x="759.9297" y="317.1099">1</text><text fill="#000000" font-family="sans-serif" font-size="13" lengthAdjust="spacingAndGlyphs" textLength="8" x="874.0002" y="316.7644">1</text><!--MD5=[d736ab232b665e07d9dac47de8e72cbf]
@startuml
skinparam classAttributeIconSize 0
hide methods
left to right direction

class Platform{
}
class Freelancer {
  -String idF
  -String name
  -String levelExpertise
  -String email
  -String nif
  -String ibanAccount
  -String coutry
}

class Organization {
  -String nome
  -String email
  -String nif
}

class Collaborator{
  -String nome
  -String email
}

class Task {
  -String idT
  -String description
  -Time timeDuration
  -double costHour
  -String taskCategory
}


class Transaction {
  -Data endDate
  -double delay
  -String descriptionOfQuality
}

class Address{
  -String street
  -String doorNumber
  -String city
}

class Administrator {
}


class Reader {
  -String fileName
}

class HistoricalTransaction{
}

Freelancer "1" - - "1" Transaction: receive >
Freelancer "1" - - "1" Address: has >

Task "1..*" - - "1" Freelancer: made by >

Platform "1" - - "1..*" Transaction: has >
Platform "1" - - "1" Administrator: has >
Platform "1" - - "1..*" Organization: has registered >
Platform "1" - - "1..*" Freelancer: has >

Organization "1" - - "1" Address: has >
Organization "1" - - "1" Collaborator: has >

Administrator "1" - - "1" Organization: registers >
Administrator "1" - - "1" Collaborator: registers >

Transaction "1" - - "1" Task: has >

Reader "1" - - "1..*" HistoricalTransaction: originates >

HistoricalTransaction "1" - - "1..*" Transaction: has >
HistoricalTransaction "1" - - "1..*" Freelancer: has >

Collaborator "1" - - "1" Freelancer: creates >
Collaborator "1" - - "1..*" Task: creates >
Collaborator "1" - - "1..*" Transaction: creates >
Collaborator "1" - - "1" HistoricalTransaction: load >
@enduml

PlantUML version 1.2019.12(Sun Nov 03 10:24:54 UTC 2019)
(GPL source distribution)
Java Runtime: OpenJDK Runtime Environment
JVM: OpenJDK 64-Bit Server VM
Java Version: 1.8.0_232-heroku-b09
Operating System: Linux
Default Encoding: UTF-8
Language: en
Country: US
--></g></svg>