<?xml version="1.0" encoding="UTF-8" standalone="no"?><svg xmlns="http://www.w3.org/2000/svg" xmlns:xlink="http://www.w3.org/1999/xlink" contentScriptType="application/ecmascript" contentStyleType="text/css" height="358px" preserveAspectRatio="none" style="width:968px;height:358px;" version="1.1" viewBox="0 0 968 358" width="968px" zoomAndPan="magnify"><defs><filter height="300%" id="f1e9jxdoafjw06" width="300%" x="-1" y="-1"><feGaussianBlur result="blurOut" stdDeviation="2.0"/><feColorMatrix in="blurOut" result="blurOut2" type="matrix" values="0 0 0 0 0 0 0 0 0 0 0 0 0 0 0 0 0 0 .4 0"/><feOffset dx="4.0" dy="4.0" in="blurOut2" result="blurOut3"/><feBlend in="SourceGraphic" in2="blurOut3" mode="normal"/></filter></defs><g><!--MD5=[99b8db98afdc2c8404e39242ef4c1e65]
class Platform--><rect fill="#FEFECE" filter="url(#f1e9jxdoafjw06)" height="40" id="Platform" style="stroke: #A80036; stroke-width: 1.5;" width="84" x="6" y="131.2862"/><ellipse cx="21" cy="147.2862" fill="#ADD1B2" rx="11" ry="11" style="stroke: #A80036; stroke-width: 1.0;"/><path d="M23.9688,152.9268 Q23.3906,153.2237 22.75,153.3721 Q22.1094,153.5206 21.4063,153.5206 Q18.9063,153.5206 17.5859,151.8721 Q16.2656,150.2237 16.2656,147.0987 Q16.2656,143.9737 17.5859,142.3175 Q18.9063,140.6612 21.4063,140.6612 Q22.1094,140.6612 22.7578,140.8175 Q23.4063,140.9737 23.9688,141.2706 L23.9688,143.9893 Q23.3438,143.4112 22.75,143.1378 Q22.1563,142.8643 21.5313,142.8643 Q20.1875,142.8643 19.5,143.9346 Q18.8125,145.005 18.8125,147.0987 Q18.8125,149.1925 19.5,150.2628 Q20.1875,151.3331 21.5313,151.3331 Q22.1563,151.3331 22.75,151.0596 Q23.3438,150.7862 23.9688,150.2081 L23.9688,152.9268 Z "/><text fill="#000000" font-family="sans-serif" font-size="12" lengthAdjust="spacingAndGlyphs" textLength="52" x="35" y="151.4405">Platform</text><line style="stroke: #A80036; stroke-width: 1.5;" x1="7" x2="89" y1="163.2862" y2="163.2862"/><!--MD5=[86c7c362de55a38b660185a1328fe18d]
class Organization--><rect fill="#FEFECE" filter="url(#f1e9jxdoafjw06)" height="78.4141" id="Organization" style="stroke: #A80036; stroke-width: 1.5;" width="110" x="435" y="63.2862"/><ellipse cx="450" cy="79.2862" fill="#ADD1B2" rx="11" ry="11" style="stroke: #A80036; stroke-width: 1.0;"/><path d="M452.9688,84.9268 Q452.3906,85.2237 451.75,85.3721 Q451.1094,85.5206 450.4063,85.5206 Q447.9063,85.5206 446.5859,83.8721 Q445.2656,82.2237 445.2656,79.0987 Q445.2656,75.9737 446.5859,74.3175 Q447.9063,72.6612 450.4063,72.6612 Q451.1094,72.6612 451.7578,72.8175 Q452.4063,72.9737 452.9688,73.2706 L452.9688,75.9893 Q452.3438,75.4112 451.75,75.1378 Q451.1563,74.8643 450.5313,74.8643 Q449.1875,74.8643 448.5,75.9346 Q447.8125,77.005 447.8125,79.0987 Q447.8125,81.1925 448.5,82.2628 Q449.1875,83.3331 450.5313,83.3331 Q451.1563,83.3331 451.75,83.0596 Q452.3438,82.7862 452.9688,82.2081 L452.9688,84.9268 Z "/><text fill="#000000" font-family="sans-serif" font-size="12" lengthAdjust="spacingAndGlyphs" textLength="78" x="464" y="83.4405">Organization</text><line style="stroke: #A80036; stroke-width: 1.5;" x1="436" x2="544" y1="95.2862" y2="95.2862"/><text fill="#000000" font-family="sans-serif" font-size="11" lengthAdjust="spacingAndGlyphs" textLength="74" x="441" y="109.4966">-String nome</text><text fill="#000000" font-family="sans-serif" font-size="11" lengthAdjust="spacingAndGlyphs" textLength="73" x="441" y="122.3013">-String email</text><text fill="#000000" font-family="sans-serif" font-size="11" lengthAdjust="spacingAndGlyphs" textLength="56" x="441" y="135.106">-String nif</text><!--MD5=[f483d6e5de34a60207b28a5563be5e8b]
class Collaborator--><rect fill="#FEFECE" filter="url(#f1e9jxdoafjw06)" height="65.6094" id="Collaborator" style="stroke: #A80036; stroke-width: 1.5;" width="109" x="666" y="254.2862"/><ellipse cx="681" cy="270.2862" fill="#ADD1B2" rx="11" ry="11" style="stroke: #A80036; stroke-width: 1.0;"/><path d="M683.9688,275.9268 Q683.3906,276.2237 682.75,276.3721 Q682.1094,276.5206 681.4063,276.5206 Q678.9063,276.5206 677.5859,274.8721 Q676.2656,273.2237 676.2656,270.0987 Q676.2656,266.9737 677.5859,265.3175 Q678.9063,263.6612 681.4063,263.6612 Q682.1094,263.6612 682.7578,263.8175 Q683.4063,263.9737 683.9688,264.2706 L683.9688,266.9893 Q683.3438,266.4112 682.75,266.1378 Q682.1563,265.8643 681.5313,265.8643 Q680.1875,265.8643 679.5,266.9346 Q678.8125,268.005 678.8125,270.0987 Q678.8125,272.1925 679.5,273.2628 Q680.1875,274.3331 681.5313,274.3331 Q682.1563,274.3331 682.75,274.0596 Q683.3438,273.7862 683.9688,273.2081 L683.9688,275.9268 Z "/><text fill="#000000" font-family="sans-serif" font-size="12" lengthAdjust="spacingAndGlyphs" textLength="77" x="695" y="274.4405">Collaborator</text><line style="stroke: #A80036; stroke-width: 1.5;" x1="667" x2="774" y1="286.2862" y2="286.2862"/><text fill="#000000" font-family="sans-serif" font-size="11" lengthAdjust="spacingAndGlyphs" textLength="74" x="672" y="300.4966">-String nome</text><text fill="#000000" font-family="sans-serif" font-size="11" lengthAdjust="spacingAndGlyphs" textLength="73" x="672" y="313.3013">-String email</text><!--MD5=[b24ed8d4ae84bae9290d9aab401637c7]
class Manager--><rect fill="#FEFECE" filter="url(#f1e9jxdoafjw06)" height="65.6094" id="Manager" style="stroke: #A80036; stroke-width: 1.5;" width="87" x="677" y="153.2862"/><ellipse cx="692" cy="169.2862" fill="#ADD1B2" rx="11" ry="11" style="stroke: #A80036; stroke-width: 1.0;"/><path d="M694.9688,174.9268 Q694.3906,175.2237 693.75,175.3721 Q693.1094,175.5206 692.4063,175.5206 Q689.9063,175.5206 688.5859,173.8721 Q687.2656,172.2237 687.2656,169.0987 Q687.2656,165.9737 688.5859,164.3175 Q689.9063,162.6612 692.4063,162.6612 Q693.1094,162.6612 693.7578,162.8175 Q694.4063,162.9737 694.9688,163.2706 L694.9688,165.9893 Q694.3438,165.4112 693.75,165.1378 Q693.1563,164.8643 692.5313,164.8643 Q691.1875,164.8643 690.5,165.9346 Q689.8125,167.005 689.8125,169.0987 Q689.8125,171.1925 690.5,172.2628 Q691.1875,173.3331 692.5313,173.3331 Q693.1563,173.3331 693.75,173.0596 Q694.3438,172.7862 694.9688,172.2081 L694.9688,174.9268 Z "/><text fill="#000000" font-family="sans-serif" font-size="12" lengthAdjust="spacingAndGlyphs" textLength="55" x="706" y="173.4405">Manager</text><line style="stroke: #A80036; stroke-width: 1.5;" x1="678" x2="763" y1="185.2862" y2="185.2862"/><text fill="#000000" font-family="sans-serif" font-size="11" lengthAdjust="spacingAndGlyphs" textLength="74" x="683" y="199.4966">-String nome</text><text fill="#000000" font-family="sans-serif" font-size="11" lengthAdjust="spacingAndGlyphs" textLength="73" x="683" y="212.3013">-String email</text><!--MD5=[3fd616f346a44cd59a91eb10b19e157c]
class User--><rect fill="#FEFECE" filter="url(#f1e9jxdoafjw06)" height="40" id="User" style="stroke: #A80036; stroke-width: 1.5;" width="61" x="896" y="267.2862"/><ellipse cx="911" cy="283.2862" fill="#ADD1B2" rx="11" ry="11" style="stroke: #A80036; stroke-width: 1.0;"/><path d="M913.9688,288.9268 Q913.3906,289.2237 912.75,289.3721 Q912.1094,289.5206 911.4063,289.5206 Q908.9063,289.5206 907.5859,287.8721 Q906.2656,286.2237 906.2656,283.0987 Q906.2656,279.9737 907.5859,278.3175 Q908.9063,276.6612 911.4063,276.6612 Q912.1094,276.6612 912.7578,276.8175 Q913.4063,276.9737 913.9688,277.2706 L913.9688,279.9893 Q913.3438,279.4112 912.75,279.1378 Q912.1563,278.8643 911.5313,278.8643 Q910.1875,278.8643 909.5,279.9346 Q908.8125,281.005 908.8125,283.0987 Q908.8125,285.1925 909.5,286.2628 Q910.1875,287.3331 911.5313,287.3331 Q912.1563,287.3331 912.75,287.0596 Q913.3438,286.7862 913.9688,286.2081 L913.9688,288.9268 Z "/><text fill="#000000" font-family="sans-serif" font-size="12" lengthAdjust="spacingAndGlyphs" textLength="29" x="925" y="287.4405">User</text><line style="stroke: #A80036; stroke-width: 1.5;" x1="897" x2="956" y1="299.2862" y2="299.2862"/><!--MD5=[da547346deef918ea16944ba046651ef]
class Administrator--><rect fill="#FEFECE" filter="url(#f1e9jxdoafjw06)" height="40" id="Administrator" style="stroke: #A80036; stroke-width: 1.5;" width="116" x="188" y="180.2862"/><ellipse cx="203" cy="196.2862" fill="#ADD1B2" rx="11" ry="11" style="stroke: #A80036; stroke-width: 1.0;"/><path d="M205.9688,201.9268 Q205.3906,202.2237 204.75,202.3721 Q204.1094,202.5206 203.4063,202.5206 Q200.9063,202.5206 199.5859,200.8721 Q198.2656,199.2237 198.2656,196.0987 Q198.2656,192.9737 199.5859,191.3175 Q200.9063,189.6612 203.4063,189.6612 Q204.1094,189.6612 204.7578,189.8175 Q205.4063,189.9737 205.9688,190.2706 L205.9688,192.9893 Q205.3438,192.4112 204.75,192.1378 Q204.1563,191.8643 203.5313,191.8643 Q202.1875,191.8643 201.5,192.9346 Q200.8125,194.005 200.8125,196.0987 Q200.8125,198.1925 201.5,199.2628 Q202.1875,200.3331 203.5313,200.3331 Q204.1563,200.3331 204.75,200.0596 Q205.3438,199.7862 205.9688,199.2081 L205.9688,201.9268 Z "/><text fill="#000000" font-family="sans-serif" font-size="12" lengthAdjust="spacingAndGlyphs" textLength="84" x="217" y="200.4405">Administrator</text><line style="stroke: #A80036; stroke-width: 1.5;" x1="189" x2="303" y1="212.2862" y2="212.2862"/><!--MD5=[0f39e4cb6f03951afbf6d14bd2505654]
class Address--><rect fill="#FEFECE" filter="url(#f1e9jxdoafjw06)" height="40" id="Address" style="stroke: #A80036; stroke-width: 1.5;" width="83" x="679" y="8.2862"/><ellipse cx="694" cy="24.2862" fill="#ADD1B2" rx="11" ry="11" style="stroke: #A80036; stroke-width: 1.0;"/><path d="M696.9688,29.9268 Q696.3906,30.2237 695.75,30.3721 Q695.1094,30.5206 694.4063,30.5206 Q691.9063,30.5206 690.5859,28.8721 Q689.2656,27.2237 689.2656,24.0987 Q689.2656,20.9737 690.5859,19.3175 Q691.9063,17.6612 694.4063,17.6612 Q695.1094,17.6612 695.7578,17.8175 Q696.4063,17.9737 696.9688,18.2706 L696.9688,20.9893 Q696.3438,20.4112 695.75,20.1378 Q695.1563,19.8643 694.5313,19.8643 Q693.1875,19.8643 692.5,20.9346 Q691.8125,22.005 691.8125,24.0987 Q691.8125,26.1925 692.5,27.2628 Q693.1875,28.3331 694.5313,28.3331 Q695.1563,28.3331 695.75,28.0596 Q696.3438,27.7862 696.9688,27.2081 L696.9688,29.9268 Z "/><text fill="#000000" font-family="sans-serif" font-size="12" lengthAdjust="spacingAndGlyphs" textLength="51" x="708" y="28.4405">Address</text><line style="stroke: #A80036; stroke-width: 1.5;" x1="680" x2="761" y1="40.2862" y2="40.2862"/><!--MD5=[0f7004bed4496639b3a5258ab2ead378]
link Platform to Administrator--><path d="M90.476,161.798 C118.8836,168.8281 156.6293,178.1692 187.8208,185.8883 " fill="none" id="Platform-Administrator" style="stroke: #A80036; stroke-width: 1.0;"/><text fill="#000000" font-family="sans-serif" font-size="13" lengthAdjust="spacingAndGlyphs" textLength="23" x="121" y="166.3531">has</text><polygon fill="#000000" points="147,160.3526,153,163.3526,147,166.3526,147,160.3526" style="stroke: #000000; stroke-width: 1.0;"/><text fill="#000000" font-family="sans-serif" font-size="13" lengthAdjust="spacingAndGlyphs" textLength="8" x="97.8831" y="176.7461">1</text><text fill="#000000" font-family="sans-serif" font-size="13" lengthAdjust="spacingAndGlyphs" textLength="8" x="171.8541" y="197.0799">1</text><!--MD5=[7640e466c042ba2d6f9c19c816f7f0fc]
link Platform to Organization--><path d="M90.3808,146.5879 C170.7597,137.6771 345.2942,118.3283 434.733,108.4131 " fill="none" id="Platform-Organization" style="stroke: #A80036; stroke-width: 1.0;"/><text fill="#000000" font-family="sans-serif" font-size="13" lengthAdjust="spacingAndGlyphs" textLength="92" x="193.5" y="120.3531">has registered</text><polygon fill="#000000" points="288.5,114.3526,294.5,117.3526,288.5,120.3526,288.5,114.3526" style="stroke: #000000; stroke-width: 1.0;"/><text fill="#000000" font-family="sans-serif" font-size="13" lengthAdjust="spacingAndGlyphs" textLength="8" x="98.0626" y="159.1298">1</text><text fill="#000000" font-family="sans-serif" font-size="13" lengthAdjust="spacingAndGlyphs" textLength="23" x="404.0131" y="122.0393">1..*</text><!--MD5=[ec97d39b7e7a4ec2b79aa9dbbb3f5070]
link Organization to Address--><path d="M545.3922,78.2788 C555.175,74.3838 565.325,70.5596 575,67.2862 C609.5578,55.5941 649.6578,45.0639 678.9982,37.9012 " fill="none" id="Organization-Address" style="stroke: #A80036; stroke-width: 1.0;"/><text fill="#000000" font-family="sans-serif" font-size="13" lengthAdjust="spacingAndGlyphs" textLength="23" x="587.5" y="46.3531">has</text><polygon fill="#000000" points="613.5,40.3526,619.5,43.3526,613.5,46.3526,613.5,40.3526" style="stroke: #000000; stroke-width: 1.0;"/><text fill="#000000" font-family="sans-serif" font-size="13" lengthAdjust="spacingAndGlyphs" textLength="8" x="553.0018" y="88.2127">1</text><text fill="#000000" font-family="sans-serif" font-size="13" lengthAdjust="spacingAndGlyphs" textLength="8" x="662.8932" y="53.0285">1</text><!--MD5=[bc039f41cf0b27fadee5cae63fc6e1fe]
link Organization to Manager--><path d="M545.0618,104.3192 C573.1428,106.8956 607.3278,112.4574 636,124.2862 C652.8202,131.2255 669.3934,142.2039 683.3458,153.007 " fill="none" id="Organization-Manager" style="stroke: #A80036; stroke-width: 1.0;"/><text fill="#000000" font-family="sans-serif" font-size="13" lengthAdjust="spacingAndGlyphs" textLength="23" x="587.5" y="105.3531">has</text><polygon fill="#000000" points="613.5,99.3526,619.5,102.3526,613.5,105.3526,613.5,99.3526" style="stroke: #000000; stroke-width: 1.0;"/><text fill="#000000" font-family="sans-serif" font-size="13" lengthAdjust="spacingAndGlyphs" textLength="8" x="552.9982" y="117.6482">1</text><text fill="#000000" font-family="sans-serif" font-size="13" lengthAdjust="spacingAndGlyphs" textLength="8" x="667.2436" y="142.097">1</text><!--MD5=[45817597bcd7048073a670d966abfd17]
link Organization to Collaborator--><path d="M538.6015,141.2939 C580.3394,174.7929 639.846,222.553 679.2891,254.2103 " fill="none" id="Organization-Collaborator" style="stroke: #A80036; stroke-width: 1.0;"/><text fill="#000000" font-family="sans-serif" font-size="13" lengthAdjust="spacingAndGlyphs" textLength="23" x="587.5" y="169.3531">has</text><polygon fill="#000000" points="613.5,163.3526,619.5,166.3526,613.5,169.3526,613.5,163.3526" style="stroke: #000000; stroke-width: 1.0;"/><text fill="#000000" font-family="sans-serif" font-size="13" lengthAdjust="spacingAndGlyphs" textLength="8" x="538.8249" y="161.9097">1</text><text fill="#000000" font-family="sans-serif" font-size="13" lengthAdjust="spacingAndGlyphs" textLength="8" x="662.3882" y="243.3403">1</text><!--MD5=[04ce0ecdab38a3951889ff50c232570f]
link Collaborator to User--><path d="M775.1634,287.2862 C813.783,287.2862 864.1277,287.2862 895.8926,287.2862 " fill="none" id="Collaborator-User" style="stroke: #A80036; stroke-width: 1.0;"/><text fill="#000000" font-family="sans-serif" font-size="13" lengthAdjust="spacingAndGlyphs" textLength="46" x="806" y="283.3531">acts as</text><polygon fill="#000000" points="855,277.3526,861,280.3526,855,283.3526,855,277.3526" style="stroke: #000000; stroke-width: 1.0;"/><text fill="#000000" font-family="sans-serif" font-size="13" lengthAdjust="spacingAndGlyphs" textLength="8" x="783.0463" y="300.3961">1</text><text fill="#000000" font-family="sans-serif" font-size="13" lengthAdjust="spacingAndGlyphs" textLength="8" x="879.8896" y="301.1028">1</text><!--MD5=[6eb6e197a729f6ec2412743e0bdbca1d]
link Manager to User--><path d="M764.1873,207.7057 C803.7523,227.1041 861.0295,255.1866 895.903,272.2848 " fill="none" id="Manager-User" style="stroke: #A80036; stroke-width: 1.0;"/><text fill="#000000" font-family="sans-serif" font-size="13" lengthAdjust="spacingAndGlyphs" textLength="46" x="806" y="224.3531">acts as</text><polygon fill="#000000" points="855,218.3526,861,221.3526,855,224.3526,855,218.3526" style="stroke: #000000; stroke-width: 1.0;"/><text fill="#000000" font-family="sans-serif" font-size="13" lengthAdjust="spacingAndGlyphs" textLength="8" x="772.0855" y="224.6057">1</text><text fill="#000000" font-family="sans-serif" font-size="13" lengthAdjust="spacingAndGlyphs" textLength="8" x="879.9024" y="282.6324">1</text><!--MD5=[2a41c1af413c0662bf55a6b8913ea24f]
link Administrator to Organization--><path d="M304.1152,182.2788 C334.5387,172.3283 372.1875,159.1856 405,145.2862 C414.7458,141.1579 424.9313,136.4062 434.7274,131.6009 " fill="none" id="Administrator-Organization" style="stroke: #A80036; stroke-width: 1.0;"/><text fill="#000000" font-family="sans-serif" font-size="13" lengthAdjust="spacingAndGlyphs" textLength="56" x="335" y="141.3531">registers</text><polygon fill="#000000" points="394,135.3526,400,138.3526,394,141.3526,394,135.3526" style="stroke: #000000; stroke-width: 1.0;"/><text fill="#000000" font-family="sans-serif" font-size="13" lengthAdjust="spacingAndGlyphs" textLength="8" x="312.0737" y="193.0079">1</text><text fill="#000000" font-family="sans-serif" font-size="13" lengthAdjust="spacingAndGlyphs" textLength="8" x="419.1331" y="148.3667">1</text><!--MD5=[edc107c0a572352bcd12c9afaba4390b]
link Administrator to User--><path d="M290.1541,220.3132 C365.3827,253.1632 524.0652,316.9745 666,338.2862 C713.9074,345.4796 727.1927,346.1171 775,338.2862 C818.2721,331.1982 865.8397,313.4325 895.9172,300.8694 " fill="none" id="Administrator-User" style="stroke: #A80036; stroke-width: 1.0;"/><text fill="#000000" font-family="sans-serif" font-size="13" lengthAdjust="spacingAndGlyphs" textLength="46" x="576" y="315.3531">acts as</text><polygon fill="#000000" points="625,309.3526,631,312.3526,625,315.3526,625,309.3526" style="stroke: #000000; stroke-width: 1.0;"/><text fill="#000000" font-family="sans-serif" font-size="13" lengthAdjust="spacingAndGlyphs" textLength="8" x="293.9494" y="240.4857">1</text><text fill="#000000" font-family="sans-serif" font-size="13" lengthAdjust="spacingAndGlyphs" textLength="8" x="879.9199" y="317.8271">1</text><!--MD5=[757406b2e460220911d4cccaa97c87d9]
link Administrator to Collaborator--><path d="M304.183,210.9541 C396.6134,227.9013 575.7361,260.7436 665.8807,277.2717 " fill="none" id="Administrator-Collaborator" style="stroke: #A80036; stroke-width: 1.0;"/><text fill="#000000" font-family="sans-serif" font-size="13" lengthAdjust="spacingAndGlyphs" textLength="56" x="455.5" y="231.3531">registers</text><polygon fill="#000000" points="514.5,225.3526,520.5,228.3526,514.5,231.3526,514.5,225.3526" style="stroke: #000000; stroke-width: 1.0;"/><text fill="#000000" font-family="sans-serif" font-size="13" lengthAdjust="spacingAndGlyphs" textLength="8" x="312.1502" y="225.3573">1</text><text fill="#000000" font-family="sans-serif" font-size="13" lengthAdjust="spacingAndGlyphs" textLength="8" x="650.0037" y="289.0359">1</text><!--MD5=[64d713fdb760e3b6b59069371d93ba85]
link Administrator to Manager--><path d="M304.183,198.5695 C400.573,195.7256 591.2417,190.1 676.9619,187.5708 " fill="none" id="Administrator-Manager" style="stroke: #A80036; stroke-width: 1.0;"/><text fill="#000000" font-family="sans-serif" font-size="13" lengthAdjust="spacingAndGlyphs" textLength="56" x="455.5" y="188.3531">registers</text><polygon fill="#000000" points="514.5,182.3526,520.5,185.3526,514.5,188.3526,514.5,182.3526" style="stroke: #000000; stroke-width: 1.0;"/><text fill="#000000" font-family="sans-serif" font-size="13" lengthAdjust="spacingAndGlyphs" textLength="8" x="312.1502" y="207.1554">1</text><text fill="#000000" font-family="sans-serif" font-size="13" lengthAdjust="spacingAndGlyphs" textLength="8" x="661.0884" y="201.136">1</text><!--MD5=[33bc23dce1fe7fbed3e8a9868dabe0de]
@startuml
skinparam classAttributeIconSize 0
hide methods
left to right direction

class Platform{
}

class Organization {
  -String nome
  -String email
  -String nif
}

class Collaborator{
  -String nome
  -String email
}


class Manager {
  -String nome
  -String email
}

class User {
}





Platform "1" - - "1" Administrator: has >
Platform "1" - - "1..*" Organization: has registered >
Organization "1" - - "1" Address: has >
Organization "1" - - "1" Manager: has >
Organization "1" - - "1" Collaborator: has >
Collaborator "1" - - "1" User: acts as >
Manager "1" - - "1" User: acts as >
Administrator "1" - - "1" Organization: registers >
Administrator "1" - - "1" User: acts as >
Administrator "1" - - "1" Collaborator: registers >
Administrator "1" - - "1" Manager: registers >
@enduml

PlantUML version 1.2019.12(Sun Nov 03 10:24:54 UTC 2019)
(GPL source distribution)
Java Runtime: OpenJDK Runtime Environment
JVM: OpenJDK 64-Bit Server VM
Java Version: 1.8.0_232-heroku-b09
Operating System: Linux
Default Encoding: UTF-8
Language: en
Country: US
--></g></svg>