<?xml version="1.0" encoding="UTF-8" standalone="no"?><svg xmlns="http://www.w3.org/2000/svg" xmlns:xlink="http://www.w3.org/1999/xlink" contentScriptType="application/ecmascript" contentStyleType="text/css" height="1144px" preserveAspectRatio="none" style="width:1623px;height:1144px;" version="1.1" viewBox="0 0 1623 1144" width="1623px" zoomAndPan="magnify"><defs><filter height="300%" id="f1iwg4zwgump2d" width="300%" x="-1" y="-1"><feGaussianBlur result="blurOut" stdDeviation="2.0"/><feColorMatrix in="blurOut" result="blurOut2" type="matrix" values="0 0 0 0 0 0 0 0 0 0 0 0 0 0 0 0 0 0 .4 0"/><feOffset dx="4.0" dy="4.0" in="blurOut2" result="blurOut3"/><feBlend in="SourceGraphic" in2="blurOut3" mode="normal"/></filter></defs><g><!--MD5=[86c7c362de55a38b660185a1328fe18d]
class Organization--><rect fill="#FEFECE" filter="url(#f1iwg4zwgump2d)" height="176.0469" id="Organization" style="stroke: #A80036; stroke-width: 1.5;" width="374" x="490" y="510"/><ellipse cx="633.75" cy="526" fill="#ADD1B2" rx="11" ry="11" style="stroke: #A80036; stroke-width: 1.0;"/><path d="M636.7188,531.6406 Q636.1406,531.9375 635.5,532.0859 Q634.8594,532.2344 634.1563,532.2344 Q631.6563,532.2344 630.3359,530.5859 Q629.0156,528.9375 629.0156,525.8125 Q629.0156,522.6875 630.3359,521.0313 Q631.6563,519.375 634.1563,519.375 Q634.8594,519.375 635.5078,519.5313 Q636.1563,519.6875 636.7188,519.9844 L636.7188,522.7031 Q636.0938,522.125 635.5,521.8516 Q634.9063,521.5781 634.2813,521.5781 Q632.9375,521.5781 632.25,522.6484 Q631.5625,523.7188 631.5625,525.8125 Q631.5625,527.9063 632.25,528.9766 Q632.9375,530.0469 634.2813,530.0469 Q634.9063,530.0469 635.5,529.7734 Q636.0938,529.5 636.7188,528.9219 L636.7188,531.6406 Z "/><text fill="#000000" font-family="sans-serif" font-size="12" lengthAdjust="spacingAndGlyphs" textLength="78" x="654.25" y="530.1543">Organization</text><line style="stroke: #A80036; stroke-width: 1.5;" x1="491" x2="863" y1="542" y2="542"/><rect fill="none" height="6" style="stroke: #C82930; stroke-width: 1.0;" width="6" x="498" y="550"/><text fill="#000000" font-family="sans-serif" font-size="11" lengthAdjust="spacingAndGlyphs" textLength="70" x="510" y="556.2104">String name</text><rect fill="none" height="6" style="stroke: #C82930; stroke-width: 1.0;" width="6" x="498" y="562.8047"/><text fill="#000000" font-family="sans-serif" font-size="11" lengthAdjust="spacingAndGlyphs" textLength="69" x="510" y="569.0151">String email</text><rect fill="none" height="6" style="stroke: #C82930; stroke-width: 1.0;" width="6" x="498" y="575.6094"/><text fill="#000000" font-family="sans-serif" font-size="11" lengthAdjust="spacingAndGlyphs" textLength="55" x="510" y="581.8198">String NIF</text><line style="stroke: #A80036; stroke-width: 1.5;" x1="491" x2="863" y1="588.4141" y2="588.4141"/><text fill="#000000" font-family="sans-serif" font-size="11" lengthAdjust="spacingAndGlyphs" textLength="362" x="496" y="602.6245">Organization(name, email, nif, address, collaborator, manager)</text><text fill="#000000" font-family="sans-serif" font-size="11" lengthAdjust="spacingAndGlyphs" textLength="97" x="496" y="615.4292">String getNome()</text><text fill="#000000" font-family="sans-serif" font-size="11" lengthAdjust="spacingAndGlyphs" textLength="95" x="496" y="628.2339">String getEmail()</text><text fill="#000000" font-family="sans-serif" font-size="11" lengthAdjust="spacingAndGlyphs" textLength="79" x="496" y="641.0386">String getNif()</text><text fill="#000000" font-family="sans-serif" font-size="11" lengthAdjust="spacingAndGlyphs" text-decoration="underline" textLength="289" x="496" y="653.8433">Address newAddress(street, doorNumber, locality)</text><text fill="#000000" font-family="sans-serif" font-size="11" lengthAdjust="spacingAndGlyphs" text-decoration="underline" textLength="285" x="496" y="666.6479">Collaborator newCollaborator(name, email ,email)</text><text fill="#000000" font-family="sans-serif" font-size="11" lengthAdjust="spacingAndGlyphs" text-decoration="underline" textLength="264" x="496" y="679.4526">Collaborator newManager(name, email ,email)</text><!--MD5=[da547346deef918ea16944ba046651ef]
class Administrator--><rect fill="#FEFECE" filter="url(#f1iwg4zwgump2d)" height="99.2188" id="Administrator" style="stroke: #A80036; stroke-width: 1.5;" width="320" x="6" y="716"/><ellipse cx="119.75" cy="732" fill="#ADD1B2" rx="11" ry="11" style="stroke: #A80036; stroke-width: 1.0;"/><path d="M122.7188,737.6406 Q122.1406,737.9375 121.5,738.0859 Q120.8594,738.2344 120.1563,738.2344 Q117.6563,738.2344 116.3359,736.5859 Q115.0156,734.9375 115.0156,731.8125 Q115.0156,728.6875 116.3359,727.0313 Q117.6563,725.375 120.1563,725.375 Q120.8594,725.375 121.5078,725.5313 Q122.1563,725.6875 122.7188,725.9844 L122.7188,728.7031 Q122.0938,728.125 121.5,727.8516 Q120.9063,727.5781 120.2813,727.5781 Q118.9375,727.5781 118.25,728.6484 Q117.5625,729.7188 117.5625,731.8125 Q117.5625,733.9063 118.25,734.9766 Q118.9375,736.0469 120.2813,736.0469 Q120.9063,736.0469 121.5,735.7734 Q122.0938,735.5 122.7188,734.9219 L122.7188,737.6406 Z "/><text fill="#000000" font-family="sans-serif" font-size="12" lengthAdjust="spacingAndGlyphs" textLength="84" x="140.25" y="736.1543">Administrator</text><line style="stroke: #A80036; stroke-width: 1.5;" x1="7" x2="325" y1="748" y2="748"/><rect fill="none" height="6" style="stroke: #C82930; stroke-width: 1.0;" width="6" x="14" y="756"/><text fill="#000000" font-family="sans-serif" font-size="11" lengthAdjust="spacingAndGlyphs" textLength="70" x="26" y="762.2104">String name</text><rect fill="none" height="6" style="stroke: #C82930; stroke-width: 1.0;" width="6" x="14" y="768.8047"/><text fill="#000000" font-family="sans-serif" font-size="11" lengthAdjust="spacingAndGlyphs" textLength="98" x="26" y="775.0151">int phoneNumber</text><line style="stroke: #A80036; stroke-width: 1.5;" x1="7" x2="325" y1="781.6094" y2="781.6094"/><text fill="#000000" font-family="sans-serif" font-size="11" lengthAdjust="spacingAndGlyphs" textLength="308" x="12" y="795.8198">Administrator(name, email, password, phoneNumber)</text><text fill="#000000" font-family="sans-serif" font-size="11" lengthAdjust="spacingAndGlyphs" textLength="97" x="12" y="808.6245">String getName()</text><!--MD5=[0f39e4cb6f03951afbf6d14bd2505654]
class Address--><rect fill="#FEFECE" filter="url(#f1iwg4zwgump2d)" height="99.2188" id="Address" style="stroke: #A80036; stroke-width: 1.5;" width="227" x="886.5" y="845"/><ellipse cx="970.25" cy="861" fill="#ADD1B2" rx="11" ry="11" style="stroke: #A80036; stroke-width: 1.0;"/><path d="M973.2188,866.6406 Q972.6406,866.9375 972,867.0859 Q971.3594,867.2344 970.6563,867.2344 Q968.1563,867.2344 966.8359,865.5859 Q965.5156,863.9375 965.5156,860.8125 Q965.5156,857.6875 966.8359,856.0313 Q968.1563,854.375 970.6563,854.375 Q971.3594,854.375 972.0078,854.5313 Q972.6563,854.6875 973.2188,854.9844 L973.2188,857.7031 Q972.5938,857.125 972,856.8516 Q971.4063,856.5781 970.7813,856.5781 Q969.4375,856.5781 968.75,857.6484 Q968.0625,858.7188 968.0625,860.8125 Q968.0625,862.9063 968.75,863.9766 Q969.4375,865.0469 970.7813,865.0469 Q971.4063,865.0469 972,864.7734 Q972.5938,864.5 973.2188,863.9219 L973.2188,866.6406 Z "/><text fill="#000000" font-family="sans-serif" font-size="12" lengthAdjust="spacingAndGlyphs" textLength="51" x="990.75" y="865.1543">Address</text><line style="stroke: #A80036; stroke-width: 1.5;" x1="887.5" x2="1112.5" y1="877" y2="877"/><rect fill="none" height="6" style="stroke: #C82930; stroke-width: 1.0;" width="6" x="894.5" y="885"/><text fill="#000000" font-family="sans-serif" font-size="11" lengthAdjust="spacingAndGlyphs" textLength="72" x="906.5" y="891.2104">String street</text><rect fill="none" height="6" style="stroke: #C82930; stroke-width: 1.0;" width="6" x="894.5" y="897.8047"/><text fill="#000000" font-family="sans-serif" font-size="11" lengthAdjust="spacingAndGlyphs" textLength="89" x="906.5" y="904.0151">int doorNumber</text><rect fill="none" height="6" style="stroke: #C82930; stroke-width: 1.0;" width="6" x="894.5" y="910.6094"/><text fill="#000000" font-family="sans-serif" font-size="11" lengthAdjust="spacingAndGlyphs" textLength="77" x="906.5" y="916.8198">String locality</text><line style="stroke: #A80036; stroke-width: 1.5;" x1="887.5" x2="1112.5" y1="923.4141" y2="923.4141"/><text fill="#000000" font-family="sans-serif" font-size="11" lengthAdjust="spacingAndGlyphs" textLength="215" x="892.5" y="937.6245">Address(street, doorNumber, locality)</text><!--MD5=[f483d6e5de34a60207b28a5563be5e8b]
class Collaborator--><rect fill="#FEFECE" filter="url(#f1iwg4zwgump2d)" height="99.2188" id="Collaborator" style="stroke: #A80036; stroke-width: 1.5;" width="313" x="210.5" y="845"/><ellipse cx="324.25" cy="861" fill="#ADD1B2" rx="11" ry="11" style="stroke: #A80036; stroke-width: 1.0;"/><path d="M327.2188,866.6406 Q326.6406,866.9375 326,867.0859 Q325.3594,867.2344 324.6563,867.2344 Q322.1563,867.2344 320.8359,865.5859 Q319.5156,863.9375 319.5156,860.8125 Q319.5156,857.6875 320.8359,856.0313 Q322.1563,854.375 324.6563,854.375 Q325.3594,854.375 326.0078,854.5313 Q326.6563,854.6875 327.2188,854.9844 L327.2188,857.7031 Q326.5938,857.125 326,856.8516 Q325.4063,856.5781 324.7813,856.5781 Q323.4375,856.5781 322.75,857.6484 Q322.0625,858.7188 322.0625,860.8125 Q322.0625,862.9063 322.75,863.9766 Q323.4375,865.0469 324.7813,865.0469 Q325.4063,865.0469 326,864.7734 Q326.5938,864.5 327.2188,863.9219 L327.2188,866.6406 Z "/><text fill="#000000" font-family="sans-serif" font-size="12" lengthAdjust="spacingAndGlyphs" textLength="77" x="344.75" y="865.1543">Collaborator</text><line style="stroke: #A80036; stroke-width: 1.5;" x1="211.5" x2="522.5" y1="877" y2="877"/><rect fill="none" height="6" style="stroke: #C82930; stroke-width: 1.0;" width="6" x="218.5" y="885"/><text fill="#000000" font-family="sans-serif" font-size="11" lengthAdjust="spacingAndGlyphs" textLength="70" x="230.5" y="891.2104">String name</text><rect fill="none" height="6" style="stroke: #C82930; stroke-width: 1.0;" width="6" x="218.5" y="897.8047"/><text fill="#000000" font-family="sans-serif" font-size="11" lengthAdjust="spacingAndGlyphs" textLength="98" x="230.5" y="904.0151">int phoneNumber</text><line style="stroke: #A80036; stroke-width: 1.5;" x1="211.5" x2="522.5" y1="910.6094" y2="910.6094"/><text fill="#000000" font-family="sans-serif" font-size="11" lengthAdjust="spacingAndGlyphs" textLength="301" x="216.5" y="924.8198">Collaborator(name, email, password, phoneNumber)</text><text fill="#000000" font-family="sans-serif" font-size="11" lengthAdjust="spacingAndGlyphs" textLength="97" x="216.5" y="937.6245">String getName()</text><!--MD5=[b24ed8d4ae84bae9290d9aab401637c7]
class Manager--><rect fill="#FEFECE" filter="url(#f1iwg4zwgump2d)" height="99.2188" id="Manager" style="stroke: #A80036; stroke-width: 1.5;" width="292" x="559" y="845"/><ellipse cx="673.25" cy="861" fill="#ADD1B2" rx="11" ry="11" style="stroke: #A80036; stroke-width: 1.0;"/><path d="M676.2188,866.6406 Q675.6406,866.9375 675,867.0859 Q674.3594,867.2344 673.6563,867.2344 Q671.1563,867.2344 669.8359,865.5859 Q668.5156,863.9375 668.5156,860.8125 Q668.5156,857.6875 669.8359,856.0313 Q671.1563,854.375 673.6563,854.375 Q674.3594,854.375 675.0078,854.5313 Q675.6563,854.6875 676.2188,854.9844 L676.2188,857.7031 Q675.5938,857.125 675,856.8516 Q674.4063,856.5781 673.7813,856.5781 Q672.4375,856.5781 671.75,857.6484 Q671.0625,858.7188 671.0625,860.8125 Q671.0625,862.9063 671.75,863.9766 Q672.4375,865.0469 673.7813,865.0469 Q674.4063,865.0469 675,864.7734 Q675.5938,864.5 676.2188,863.9219 L676.2188,866.6406 Z "/><text fill="#000000" font-family="sans-serif" font-size="12" lengthAdjust="spacingAndGlyphs" textLength="55" x="693.75" y="865.1543">Manager</text><line style="stroke: #A80036; stroke-width: 1.5;" x1="560" x2="850" y1="877" y2="877"/><rect fill="none" height="6" style="stroke: #C82930; stroke-width: 1.0;" width="6" x="567" y="885"/><text fill="#000000" font-family="sans-serif" font-size="11" lengthAdjust="spacingAndGlyphs" textLength="70" x="579" y="891.2104">String name</text><rect fill="none" height="6" style="stroke: #C82930; stroke-width: 1.0;" width="6" x="567" y="897.8047"/><text fill="#000000" font-family="sans-serif" font-size="11" lengthAdjust="spacingAndGlyphs" textLength="98" x="579" y="904.0151">int phoneNumber</text><line style="stroke: #A80036; stroke-width: 1.5;" x1="560" x2="850" y1="910.6094" y2="910.6094"/><text fill="#000000" font-family="sans-serif" font-size="11" lengthAdjust="spacingAndGlyphs" textLength="280" x="565" y="924.8198">Manager(name, email, password, phoneNumber)</text><text fill="#000000" font-family="sans-serif" font-size="11" lengthAdjust="spacingAndGlyphs" textLength="97" x="565" y="937.6245">String getName()</text><!--MD5=[3fd616f346a44cd59a91eb10b19e157c]
class User--><rect fill="#FEFECE" filter="url(#f1iwg4zwgump2d)" height="112.0234" id="User" style="stroke: #A80036; stroke-width: 1.5;" width="139" x="297.5" y="1021"/><ellipse cx="348.25" cy="1037" fill="#ADD1B2" rx="11" ry="11" style="stroke: #A80036; stroke-width: 1.0;"/><path d="M351.2188,1042.6406 Q350.6406,1042.9375 350,1043.0859 Q349.3594,1043.2344 348.6563,1043.2344 Q346.1563,1043.2344 344.8359,1041.5859 Q343.5156,1039.9375 343.5156,1036.8125 Q343.5156,1033.6875 344.8359,1032.0313 Q346.1563,1030.375 348.6563,1030.375 Q349.3594,1030.375 350.0078,1030.5313 Q350.6563,1030.6875 351.2188,1030.9844 L351.2188,1033.7031 Q350.5938,1033.125 350,1032.8516 Q349.4063,1032.5781 348.7813,1032.5781 Q347.4375,1032.5781 346.75,1033.6484 Q346.0625,1034.7188 346.0625,1036.8125 Q346.0625,1038.9063 346.75,1039.9766 Q347.4375,1041.0469 348.7813,1041.0469 Q349.4063,1041.0469 350,1040.7734 Q350.5938,1040.5 351.2188,1039.9219 L351.2188,1042.6406 Z "/><text fill="#000000" font-family="sans-serif" font-size="12" lengthAdjust="spacingAndGlyphs" textLength="29" x="368.75" y="1041.1543">User</text><line style="stroke: #A80036; stroke-width: 1.5;" x1="298.5" x2="435.5" y1="1053" y2="1053"/><rect fill="none" height="6" style="stroke: #C82930; stroke-width: 1.0;" width="6" x="305.5" y="1061"/><text fill="#000000" font-family="sans-serif" font-size="11" lengthAdjust="spacingAndGlyphs" textLength="69" x="317.5" y="1067.2104">String email</text><rect fill="none" height="6" style="stroke: #C82930; stroke-width: 1.0;" width="6" x="305.5" y="1073.8047"/><text fill="#000000" font-family="sans-serif" font-size="11" lengthAdjust="spacingAndGlyphs" textLength="61" x="317.5" y="1080.0151">String pwd</text><rect fill="none" height="6" style="stroke: #C82930; stroke-width: 1.0;" width="6" x="305.5" y="1086.6094"/><text fill="#000000" font-family="sans-serif" font-size="11" lengthAdjust="spacingAndGlyphs" textLength="60" x="317.5" y="1092.8198">String role</text><line style="stroke: #A80036; stroke-width: 1.5;" x1="298.5" x2="435.5" y1="1099.4141" y2="1099.4141"/><text fill="#000000" font-family="sans-serif" font-size="11" lengthAdjust="spacingAndGlyphs" textLength="127" x="303.5" y="1113.6245">User(email, pwd, role)</text><text fill="#000000" font-family="sans-serif" font-size="11" lengthAdjust="spacingAndGlyphs" textLength="95" x="303.5" y="1126.4292">String getEmail()</text><!--MD5=[99b8db98afdc2c8404e39242ef4c1e65]
class Platform--><rect fill="#FEFECE" filter="url(#f1iwg4zwgump2d)" height="86.4141" id="Platform" style="stroke: #A80036; stroke-width: 1.5;" width="261" x="196.5" y="394"/><ellipse cx="296.75" cy="410" fill="#ADD1B2" rx="11" ry="11" style="stroke: #A80036; stroke-width: 1.0;"/><path d="M299.7188,415.6406 Q299.1406,415.9375 298.5,416.0859 Q297.8594,416.2344 297.1563,416.2344 Q294.6563,416.2344 293.3359,414.5859 Q292.0156,412.9375 292.0156,409.8125 Q292.0156,406.6875 293.3359,405.0313 Q294.6563,403.375 297.1563,403.375 Q297.8594,403.375 298.5078,403.5313 Q299.1563,403.6875 299.7188,403.9844 L299.7188,406.7031 Q299.0938,406.125 298.5,405.8516 Q297.9063,405.5781 297.2813,405.5781 Q295.9375,405.5781 295.25,406.6484 Q294.5625,407.7188 294.5625,409.8125 Q294.5625,411.9063 295.25,412.9766 Q295.9375,414.0469 297.2813,414.0469 Q297.9063,414.0469 298.5,413.7734 Q299.0938,413.5 299.7188,412.9219 L299.7188,415.6406 Z "/><text fill="#000000" font-family="sans-serif" font-size="12" lengthAdjust="spacingAndGlyphs" textLength="52" x="317.25" y="414.1543">Platform</text><line style="stroke: #A80036; stroke-width: 1.5;" x1="197.5" x2="456.5" y1="426" y2="426"/><rect fill="none" height="6" style="stroke: #C82930; stroke-width: 1.0;" width="6" x="204.5" y="434"/><text fill="#000000" font-family="sans-serif" font-size="11" lengthAdjust="spacingAndGlyphs" textLength="104" x="216.5" y="440.2104">String designation</text><line style="stroke: #A80036; stroke-width: 1.5;" x1="197.5" x2="456.5" y1="446.8047" y2="446.8047"/><text fill="#000000" font-family="sans-serif" font-size="11" lengthAdjust="spacingAndGlyphs" textLength="249" x="202.5" y="461.0151">RegistOrganization getOrganizationRegists()</text><text fill="#000000" font-family="sans-serif" font-size="11" lengthAdjust="spacingAndGlyphs" textLength="192" x="202.5" y="473.8198">addOrganizacao(Organizacao org)</text><!--MD5=[7ff0368d1571d333e4272eb42aefb658]
class AuthorizationFacade--><rect fill="#FEFECE" filter="url(#f1iwg4zwgump2d)" height="60.8047" id="AuthorizationFacade" style="stroke: #A80036; stroke-width: 1.5;" width="392" x="1220" y="567.5"/><ellipse cx="1347.75" cy="583.5" fill="#ADD1B2" rx="11" ry="11" style="stroke: #A80036; stroke-width: 1.0;"/><path d="M1350.7188,589.1406 Q1350.1406,589.4375 1349.5,589.5859 Q1348.8594,589.7344 1348.1563,589.7344 Q1345.6563,589.7344 1344.3359,588.0859 Q1343.0156,586.4375 1343.0156,583.3125 Q1343.0156,580.1875 1344.3359,578.5313 Q1345.6563,576.875 1348.1563,576.875 Q1348.8594,576.875 1349.5078,577.0313 Q1350.1563,577.1875 1350.7188,577.4844 L1350.7188,580.2031 Q1350.0938,579.625 1349.5,579.3516 Q1348.9063,579.0781 1348.2813,579.0781 Q1346.9375,579.0781 1346.25,580.1484 Q1345.5625,581.2188 1345.5625,583.3125 Q1345.5625,585.4063 1346.25,586.4766 Q1346.9375,587.5469 1348.2813,587.5469 Q1348.9063,587.5469 1349.5,587.2734 Q1350.0938,587 1350.7188,586.4219 L1350.7188,589.1406 Z "/><text fill="#000000" font-family="sans-serif" font-size="12" lengthAdjust="spacingAndGlyphs" textLength="128" x="1368.25" y="587.6543">AuthorizationFacade</text><line style="stroke: #A80036; stroke-width: 1.5;" x1="1221" x2="1611" y1="599.5" y2="599.5"/><line style="stroke: #A80036; stroke-width: 1.5;" x1="1221" x2="1611" y1="607.5" y2="607.5"/><text fill="#000000" font-family="sans-serif" font-size="11" lengthAdjust="spacingAndGlyphs" textLength="380" x="1226" y="621.7104">registerUserWithRole(name, email, password, phoneNumber, role)</text><!--MD5=[9a2889027d1a5f59ee05c53124f224f8]
class PasswordGenerator--><rect fill="#FEFECE" filter="url(#f1iwg4zwgump2d)" height="60.8047" id="PasswordGenerator" style="stroke: #A80036; stroke-width: 1.5;" width="286" x="899" y="567.5"/><ellipse cx="975.75" cy="583.5" fill="#B4A7E5" rx="11" ry="11" style="stroke: #A80036; stroke-width: 1.0;"/><path d="M971.6719,579.2656 L971.6719,577.1094 L979.0625,577.1094 L979.0625,579.2656 L976.5938,579.2656 L976.5938,587.3438 L979.0625,587.3438 L979.0625,589.5 L971.6719,589.5 L971.6719,587.3438 L974.1406,587.3438 L974.1406,579.2656 L971.6719,579.2656 Z "/><text fill="#000000" font-family="sans-serif" font-size="12" font-style="italic" lengthAdjust="spacingAndGlyphs" textLength="124" x="996.25" y="587.6543">PasswordGenerator</text><line style="stroke: #A80036; stroke-width: 1.5;" x1="900" x2="1184" y1="599.5" y2="599.5"/><line style="stroke: #A80036; stroke-width: 1.5;" x1="900" x2="1184" y1="607.5" y2="607.5"/><text fill="#000000" font-family="sans-serif" font-size="11" lengthAdjust="spacingAndGlyphs" textLength="274" x="905" y="621.7104">String pwdGenerator(String name, String email)</text><!--MD5=[e09e0019787cf83947156283bb671e06]
class RegistOrganization--><rect fill="#FEFECE" filter="url(#f1iwg4zwgump2d)" height="112.0234" id="RegistOrganization" style="stroke: #A80036; stroke-width: 1.5;" width="962" x="561" y="252"/><ellipse cx="979.25" cy="268" fill="#ADD1B2" rx="11" ry="11" style="stroke: #A80036; stroke-width: 1.0;"/><path d="M982.2188,273.6406 Q981.6406,273.9375 981,274.0859 Q980.3594,274.2344 979.6563,274.2344 Q977.1563,274.2344 975.8359,272.5859 Q974.5156,270.9375 974.5156,267.8125 Q974.5156,264.6875 975.8359,263.0313 Q977.1563,261.375 979.6563,261.375 Q980.3594,261.375 981.0078,261.5313 Q981.6563,261.6875 982.2188,261.9844 L982.2188,264.7031 Q981.5938,264.125 981,263.8516 Q980.4063,263.5781 979.7813,263.5781 Q978.4375,263.5781 977.75,264.6484 Q977.0625,265.7188 977.0625,267.8125 Q977.0625,269.9063 977.75,270.9766 Q978.4375,272.0469 979.7813,272.0469 Q980.4063,272.0469 981,271.7734 Q981.5938,271.5 982.2188,270.9219 L982.2188,273.6406 Z "/><text fill="#000000" font-family="sans-serif" font-size="12" lengthAdjust="spacingAndGlyphs" textLength="117" x="999.75" y="272.1543">RegistOrganization</text><line style="stroke: #A80036; stroke-width: 1.5;" x1="562" x2="1522" y1="284" y2="284"/><line style="stroke: #A80036; stroke-width: 1.5;" x1="562" x2="1522" y1="292" y2="292"/><text fill="#000000" font-family="sans-serif" font-size="11" lengthAdjust="spacingAndGlyphs" textLength="950" x="567" y="306.2104">Organizacao newOrganization(name,email,NIF,street,doorNumber,locality, nameC, emailC, passwordC, phoneNumberC, nameM, emailM, passwordM, phoneNumberM)</text><text fill="#000000" font-family="sans-serif" font-size="11" lengthAdjust="spacingAndGlyphs" textLength="206" x="567" y="319.0151">registOrganization(Organization org)</text><text fill="#000000" font-family="sans-serif" font-size="11" lengthAdjust="spacingAndGlyphs" textLength="281" x="567" y="331.8198">authenticatesOrganization(Organization org, pwd)</text><text fill="#000000" font-family="sans-serif" font-size="11" lengthAdjust="spacingAndGlyphs" textLength="194" x="567" y="344.6245">addOrganization(Organization org)</text><text fill="#000000" font-family="sans-serif" font-size="11" lengthAdjust="spacingAndGlyphs" textLength="239" x="567" y="357.4292">sendPassword(String name, String email)</text><!--MD5=[e03aa8c19959ac7f1f5e28215ab298cb]
class RegistOrganizationController--><rect fill="#FEFECE" filter="url(#f1iwg4zwgump2d)" height="73.6094" id="RegistOrganizationController" style="stroke: #A80036; stroke-width: 1.5;" width="887" x="64.5" y="117"/><ellipse cx="414.75" cy="133" fill="#ADD1B2" rx="11" ry="11" style="stroke: #A80036; stroke-width: 1.0;"/><path d="M417.7188,138.6406 Q417.1406,138.9375 416.5,139.0859 Q415.8594,139.2344 415.1563,139.2344 Q412.6563,139.2344 411.3359,137.5859 Q410.0156,135.9375 410.0156,132.8125 Q410.0156,129.6875 411.3359,128.0313 Q412.6563,126.375 415.1563,126.375 Q415.8594,126.375 416.5078,126.5313 Q417.1563,126.6875 417.7188,126.9844 L417.7188,129.7031 Q417.0938,129.125 416.5,128.8516 Q415.9063,128.5781 415.2813,128.5781 Q413.9375,128.5781 413.25,129.6484 Q412.5625,130.7188 412.5625,132.8125 Q412.5625,134.9063 413.25,135.9766 Q413.9375,137.0469 415.2813,137.0469 Q415.9063,137.0469 416.5,136.7734 Q417.0938,136.5 417.7188,135.9219 L417.7188,138.6406 Z "/><text fill="#000000" font-family="sans-serif" font-size="12" lengthAdjust="spacingAndGlyphs" textLength="178" x="435.25" y="137.1543">RegistOrganizationController</text><line style="stroke: #A80036; stroke-width: 1.5;" x1="65.5" x2="950.5" y1="149" y2="149"/><line style="stroke: #A80036; stroke-width: 1.5;" x1="65.5" x2="950.5" y1="157" y2="157"/><text fill="#000000" font-family="sans-serif" font-size="11" lengthAdjust="spacingAndGlyphs" textLength="875" x="70.5" y="171.2104">newOrganizacao(name,email,NIF,street,doorNumber,locality, nameC, emailC, passwordC, phoneNumberC, nameM, emailM, passwordM, phoneNumberM)</text><text fill="#000000" font-family="sans-serif" font-size="11" lengthAdjust="spacingAndGlyphs" textLength="112" x="70.5" y="184.0151">registOrganization()</text><!--MD5=[234319eec65dce97214bce33ac959acb]
class RegistOrganizationUI--><rect fill="#FEFECE" filter="url(#f1iwg4zwgump2d)" height="48" id="RegistOrganizationUI" style="stroke: #A80036; stroke-width: 1.5;" width="161" x="427.5" y="8"/><ellipse cx="442.5" cy="24" fill="#ADD1B2" rx="11" ry="11" style="stroke: #A80036; stroke-width: 1.0;"/><path d="M445.4688,29.6406 Q444.8906,29.9375 444.25,30.0859 Q443.6094,30.2344 442.9063,30.2344 Q440.4063,30.2344 439.0859,28.5859 Q437.7656,26.9375 437.7656,23.8125 Q437.7656,20.6875 439.0859,19.0313 Q440.4063,17.375 442.9063,17.375 Q443.6094,17.375 444.2578,17.5313 Q444.9063,17.6875 445.4688,17.9844 L445.4688,20.7031 Q444.8438,20.125 444.25,19.8516 Q443.6563,19.5781 443.0313,19.5781 Q441.6875,19.5781 441,20.6484 Q440.3125,21.7188 440.3125,23.8125 Q440.3125,25.9063 441,26.9766 Q441.6875,28.0469 443.0313,28.0469 Q443.6563,28.0469 444.25,27.7734 Q444.8438,27.5 445.4688,26.9219 L445.4688,29.6406 Z "/><text fill="#000000" font-family="sans-serif" font-size="12" lengthAdjust="spacingAndGlyphs" textLength="129" x="456.5" y="28.1543">RegistOrganizationUI</text><line style="stroke: #A80036; stroke-width: 1.5;" x1="428.5" x2="587.5" y1="40" y2="40"/><line style="stroke: #A80036; stroke-width: 1.5;" x1="428.5" x2="587.5" y1="48" y2="48"/><!--MD5=[9d489c289d4e346f6e07a3431e5804e8]
link RegistOrganizationUI to RegistOrganizationController--><path d="M508,56.1033 C508,71.972 508,93.1768 508,111.7934 " fill="none" id="RegistOrganizationUI-&gt;RegistOrganizationController" style="stroke: #A80036; stroke-width: 1.0; stroke-dasharray: 7.0,7.0;"/><polygon fill="#A80036" points="508,116.9691,512,107.9691,508,111.9691,504,107.9691,508,116.9691" style="stroke: #A80036; stroke-width: 1.0;"/><!--MD5=[5f24b9e410cd57157f4e3b8f516d0838]
link RegistOrganizationController to Platform--><path d="M484.1513,191.2883 C451.5933,242.1939 393.21,333.4783 357.5032,389.3072 " fill="none" id="RegistOrganizationController-&gt;Platform" style="stroke: #A80036; stroke-width: 1.0; stroke-dasharray: 7.0,7.0;"/><polygon fill="#A80036" points="354.7595,393.597,362.9784,388.1703,357.4535,389.3848,356.239,383.8599,354.7595,393.597" style="stroke: #A80036; stroke-width: 1.0;"/><!--MD5=[4e402fbe6d5742c1b052c631dbc42b19]
link RegistOrganizationController to Organization--><path d="M510.1997,191.0326 C513.6363,233.7808 522.2017,305.688 543,364 C560.5616,413.2373 588.298,464.0424 613.9916,505.6795 " fill="none" id="RegistOrganizationController-&gt;Organization" style="stroke: #A80036; stroke-width: 1.0; stroke-dasharray: 7.0,7.0;"/><polygon fill="#A80036" points="616.6311,509.9365,615.288,500.1796,613.9963,505.687,608.4889,504.3953,616.6311,509.9365" style="stroke: #A80036; stroke-width: 1.0;"/><!--MD5=[26677f82097ddef73535ed4399242291]
link RegistOrganizationController to RegistOrganization--><path d="M636.5859,191.0828 C698.3688,208.9004 773.8189,230.6594 842.8024,250.5535 " fill="none" id="RegistOrganizationController-&gt;RegistOrganization" style="stroke: #A80036; stroke-width: 1.0; stroke-dasharray: 7.0,7.0;"/><polygon fill="#A80036" points="847.7578,251.9826,840.2187,245.6452,842.9536,250.597,838.0018,253.3319,847.7578,251.9826" style="stroke: #A80036; stroke-width: 1.0;"/><!--MD5=[d411498342421bd1a71eac283a388815]
link RegistOrganization to AuthorizationFacade--><path d="M1114.5544,364.2588 C1191.0471,423.5713 1309.0517,515.0721 1372.3403,564.1462 " fill="none" id="RegistOrganization-&gt;AuthorizationFacade" style="stroke: #A80036; stroke-width: 1.0; stroke-dasharray: 7.0,7.0;"/><polygon fill="#A80036" points="1376.4289,567.3165,1371.7677,558.6405,1372.4776,564.2526,1366.8655,564.9626,1376.4289,567.3165" style="stroke: #A80036; stroke-width: 1.0;"/><!--MD5=[0022955466599e05ea0f932f52f7df87]
link RegistOrganization to PasswordGenerator--><path d="M1042,364.2588 C1042,422.7426 1042,512.5215 1042,562.0646 " fill="none" id="RegistOrganization-&gt;PasswordGenerator" style="stroke: #A80036; stroke-width: 1.0; stroke-dasharray: 7.0,7.0;"/><polygon fill="#A80036" points="1042,567.3165,1046,558.3165,1042,562.3165,1038,558.3165,1042,567.3165" style="stroke: #A80036; stroke-width: 1.0;"/><!--MD5=[b2767384522f615c85a28d92ddf7f4b1]
link RegistOrganization to Organization--><path d="M971.1915,364.2588 C920.3757,404.633 850.7878,459.922 792.0488,506.5914 " fill="none" id="RegistOrganization-&gt;Organization" style="stroke: #A80036; stroke-width: 1.0;"/><polygon fill="#A80036" points="787.8387,509.9364,797.3736,507.4694,791.7534,506.826,792.3969,501.2058,787.8387,509.9364" style="stroke: #A80036; stroke-width: 1.0;"/><text fill="#000000" font-family="sans-serif" font-size="13" lengthAdjust="spacingAndGlyphs" textLength="92" x="924" y="441.5669">has registered</text><text fill="#000000" font-family="sans-serif" font-size="13" lengthAdjust="spacingAndGlyphs" textLength="8" x="954.0742" y="384.103">1</text><text fill="#000000" font-family="sans-serif" font-size="13" lengthAdjust="spacingAndGlyphs" textLength="23" x="773.3756" y="498.7945">1..*</text><!--MD5=[45817597bcd7048073a670d966abfd17]
link Organization to Collaborator--><path d="M584.8291,686.157 C530.5725,738.0508 463.9523,801.7698 418.7779,844.9769 " fill="none" id="Organization-Collaborator" style="stroke: #A80036; stroke-width: 1.0;"/><text fill="#000000" font-family="sans-serif" font-size="13" lengthAdjust="spacingAndGlyphs" textLength="23" x="550" y="770.0669">has</text><text fill="#000000" font-family="sans-serif" font-size="13" lengthAdjust="spacingAndGlyphs" textLength="8" x="568.8649" y="706.149">1</text><text fill="#000000" font-family="sans-serif" font-size="13" lengthAdjust="spacingAndGlyphs" textLength="8" x="417.4967" y="834.0189">1</text><!--MD5=[bc039f41cf0b27fadee5cae63fc6e1fe]
link Organization to Manager--><path d="M685.3251,686.157 C690.2257,738.0508 696.243,801.7698 700.3233,844.9769 " fill="none" id="Organization-Manager" style="stroke: #A80036; stroke-width: 1.0;"/><text fill="#000000" font-family="sans-serif" font-size="13" lengthAdjust="spacingAndGlyphs" textLength="23" x="698" y="770.0669">has</text><text fill="#000000" font-family="sans-serif" font-size="13" lengthAdjust="spacingAndGlyphs" textLength="8" x="677.6833" y="706.149">1</text><text fill="#000000" font-family="sans-serif" font-size="13" lengthAdjust="spacingAndGlyphs" textLength="8" x="691.1031" y="834.0189">1</text><!--MD5=[ec97d39b7e7a4ec2b79aa9dbbb3f5070]
link Organization to Address--><path d="M773.0361,686.157 C829.568,738.0508 898.9819,801.7698 946.0507,844.9769 " fill="none" id="Organization-Address" style="stroke: #A80036; stroke-width: 1.0;"/><text fill="#000000" font-family="sans-serif" font-size="13" lengthAdjust="spacingAndGlyphs" textLength="62" x="914" y="770.0669">located in</text><text fill="#000000" font-family="sans-serif" font-size="13" lengthAdjust="spacingAndGlyphs" textLength="8" x="772.6578" y="706.149">1</text><text fill="#000000" font-family="sans-serif" font-size="13" lengthAdjust="spacingAndGlyphs" textLength="8" x="929.9016" y="834.0189">1</text><!--MD5=[0f7004bed4496639b3a5258ab2ead378]
link Platform to Administrator--><path d="M305.7865,480.2834 C275.9435,541.1742 221.7074,651.8361 190.2863,715.9468 " fill="none" id="Platform-Administrator" style="stroke: #A80036; stroke-width: 1.0; stroke-dasharray: 7.0,7.0;"/><text fill="#000000" font-family="sans-serif" font-size="13" lengthAdjust="spacingAndGlyphs" textLength="23" x="290" y="602.5669">has</text><text fill="#000000" font-family="sans-serif" font-size="13" lengthAdjust="spacingAndGlyphs" textLength="8" x="293.7681" y="500.4215">1</text><text fill="#000000" font-family="sans-serif" font-size="13" lengthAdjust="spacingAndGlyphs" textLength="8" x="185.1391" y="704.9845">1</text><!--MD5=[6eb6e197a729f6ec2412743e0bdbca1d]
link Manager to User--><path d="M613.0865,944.1279 C557.4709,974.157 487.6802,1011.8398 436.6396,1039.3987 " fill="none" id="Manager-User" style="stroke: #A80036; stroke-width: 1.0; stroke-dasharray: 7.0,7.0;"/><text fill="#000000" font-family="sans-serif" font-size="13" lengthAdjust="spacingAndGlyphs" textLength="27" x="557" y="987.0669">acts</text><text fill="#000000" font-family="sans-serif" font-size="13" lengthAdjust="spacingAndGlyphs" textLength="8" x="591.5987" y="964.2224">1</text><text fill="#000000" font-family="sans-serif" font-size="13" lengthAdjust="spacingAndGlyphs" textLength="8" x="444.6939" y="1031.5386">1</text><!--MD5=[04ce0ecdab38a3951889ff50c232570f]
link Collaborator to User--><path d="M367,944.3689 C367,968.0092 367,996.3506 367,1020.7548 " fill="none" id="Collaborator-User" style="stroke: #A80036; stroke-width: 1.0; stroke-dasharray: 7.0,7.0;"/><text fill="#000000" font-family="sans-serif" font-size="13" lengthAdjust="spacingAndGlyphs" textLength="27" x="368" y="987.0669">acts</text><text fill="#000000" font-family="sans-serif" font-size="13" lengthAdjust="spacingAndGlyphs" textLength="8" x="358.4625" y="964.139">1</text><text fill="#000000" font-family="sans-serif" font-size="13" lengthAdjust="spacingAndGlyphs" textLength="8" x="358.5125" y="1010.0594">1</text><!--MD5=[edc107c0a572352bcd12c9afaba4390b]
link Administrator to User--><path d="M153.0767,815.1662 C146.0926,852.8084 142.7111,904.601 164,944 C192.0913,995.9882 250.3316,1030.9316 297.2551,1051.9024 " fill="none" id="Administrator-User" style="stroke: #A80036; stroke-width: 1.0; stroke-dasharray: 7.0,7.0;"/><text fill="#000000" font-family="sans-serif" font-size="13" lengthAdjust="spacingAndGlyphs" textLength="27" x="165" y="899.0669">acts</text><text fill="#000000" font-family="sans-serif" font-size="13" lengthAdjust="spacingAndGlyphs" textLength="8" x="142.6969" y="835.266">1</text><text fill="#000000" font-family="sans-serif" font-size="13" lengthAdjust="spacingAndGlyphs" textLength="8" x="281.6502" y="1045.6133">1</text><!--MD5=[bc6ae93e3862e126a87863d69c7204ac]
@startuml
class Organization {
  -String name
  -String email
  -String NIF
  Organization(name, email, nif, address, collaborator, manager)
  String getNome()
  String getEmail()
  String getNif()
  {static} Address newAddress(street, doorNumber, locality)
  {static} Collaborator newCollaborator(name, email ,email)
  {static} Collaborator newManager(name, email ,email)
}

class Administrator {
  -String name
  -int phoneNumber
  Administrator(name, email, password, phoneNumber)
  String getName()
}

class Address {
  -String street
  -int doorNumber
  -String locality
  Address(street, doorNumber, locality)
}

class Collaborator {
  -String name
  -int phoneNumber
  Collaborator(name, email, password, phoneNumber)
  String getName()
}

class Manager {
  -String name
  -int phoneNumber
  Manager(name, email, password, phoneNumber)
  String getName()
}
  
class User {
  -String email
  -String pwd
  -String role
  User(email, pwd, role)
  String getEmail()
}
  
class Platform {
  -String designation
  RegistOrganization getOrganizationRegists()
  addOrganizacao(Organizacao org) 
}

class AuthorizationFacade {
  registerUserWithRole(name, email, password, phoneNumber, role)
}
  
interface PasswordGenerator {
  String pwdGenerator(String name, String email)
}
  
class RegistOrganization {
  Organizacao newOrganization(name,email,NIF,street,doorNumber,locality, nameC, emailC, passwordC, phoneNumberC, nameM, emailM, passwordM, phoneNumberM)
  registOrganization(Organization org)
  authenticatesOrganization(Organization org, pwd)
  addOrganization(Organization org)
  sendPassword(String name, String email)
}

class RegistOrganizationController {
  newOrganizacao(name,email,NIF,street,doorNumber,locality, nameC, emailC, passwordC, phoneNumberC, nameM, emailM, passwordM, phoneNumberM)
  registOrganization()
}
  

class RegistOrganizationUI {
}

RegistOrganizationUI ..> RegistOrganizationController
RegistOrganizationController ..> Platform
RegistOrganizationController ..> Organization
RegistOrganizationController ..> RegistOrganization
RegistOrganization ..> AuthorizationFacade
RegistOrganization ..> PasswordGenerator
RegistOrganization "1" - -> "1..*" Organization: has registered
Organization "1" - - "1" Collaborator: has
Organization "1" - - "1" Manager: has
Organization "1" - - "1" Address: located in
Platform "1" .. "1" Administrator: has
Manager "1" .. "1" User: acts 
Collaborator "1" .. "1" User: acts 
Administrator "1" .. "1" User: acts
@enduml

PlantUML version 1.2019.12(Sun Nov 03 10:24:54 UTC 2019)
(GPL source distribution)
Java Runtime: OpenJDK Runtime Environment
JVM: OpenJDK 64-Bit Server VM
Java Version: 1.8.0_232-heroku-b09
Operating System: Linux
Default Encoding: UTF-8
Language: en
Country: US
--></g></svg>