<?xml version="1.0" encoding="UTF-8" standalone="no"?><svg xmlns="http://www.w3.org/2000/svg" xmlns:xlink="http://www.w3.org/1999/xlink" contentScriptType="application/ecmascript" contentStyleType="text/css" height="400px" preserveAspectRatio="none" style="width:984px;height:400px;" version="1.1" viewBox="0 0 984 400" width="984px" zoomAndPan="magnify"><defs><filter height="300%" id="f1qol5cggghutw" width="300%" x="-1" y="-1"><feGaussianBlur result="blurOut" stdDeviation="2.0"/><feColorMatrix in="blurOut" result="blurOut2" type="matrix" values="0 0 0 0 0 0 0 0 0 0 0 0 0 0 0 0 0 0 .4 0"/><feOffset dx="4.0" dy="4.0" in="blurOut2" result="blurOut3"/><feBlend in="SourceGraphic" in2="blurOut3" mode="normal"/></filter></defs><g><!--MD5=[99b8db98afdc2c8404e39242ef4c1e65]
class Platform--><rect fill="#FEFECE" filter="url(#f1qol5cggghutw)" height="40" id="Platform" style="stroke: #A80036; stroke-width: 1.5;" width="84" x="6" y="149.9446"/><ellipse cx="21" cy="165.9446" fill="#ADD1B2" rx="11" ry="11" style="stroke: #A80036; stroke-width: 1.0;"/><path d="M23.9688,171.5852 Q23.3906,171.8821 22.75,172.0305 Q22.1094,172.179 21.4063,172.179 Q18.9063,172.179 17.5859,170.5305 Q16.2656,168.8821 16.2656,165.7571 Q16.2656,162.6321 17.5859,160.9759 Q18.9063,159.3196 21.4063,159.3196 Q22.1094,159.3196 22.7578,159.4759 Q23.4063,159.6321 23.9688,159.929 L23.9688,162.6477 Q23.3438,162.0696 22.75,161.7962 Q22.1563,161.5227 21.5313,161.5227 Q20.1875,161.5227 19.5,162.593 Q18.8125,163.6634 18.8125,165.7571 Q18.8125,167.8509 19.5,168.9212 Q20.1875,169.9915 21.5313,169.9915 Q22.1563,169.9915 22.75,169.718 Q23.3438,169.4446 23.9688,168.8665 L23.9688,171.5852 Z "/><text fill="#000000" font-family="sans-serif" font-size="12" lengthAdjust="spacingAndGlyphs" textLength="52" x="35" y="170.0989">Platform</text><line style="stroke: #A80036; stroke-width: 1.5;" x1="7" x2="89" y1="181.9446" y2="181.9446"/><!--MD5=[86c7c362de55a38b660185a1328fe18d]
class Organization--><rect fill="#FEFECE" filter="url(#f1qol5cggghutw)" height="78.4141" id="Organization" style="stroke: #A80036; stroke-width: 1.5;" width="110" x="435" y="81.9446"/><ellipse cx="450" cy="97.9446" fill="#ADD1B2" rx="11" ry="11" style="stroke: #A80036; stroke-width: 1.0;"/><path d="M452.9688,103.5852 Q452.3906,103.8821 451.75,104.0305 Q451.1094,104.179 450.4063,104.179 Q447.9063,104.179 446.5859,102.5305 Q445.2656,100.8821 445.2656,97.7571 Q445.2656,94.6321 446.5859,92.9758 Q447.9063,91.3196 450.4063,91.3196 Q451.1094,91.3196 451.7578,91.4758 Q452.4063,91.6321 452.9688,91.929 L452.9688,94.6477 Q452.3438,94.0696 451.75,93.7962 Q451.1563,93.5227 450.5313,93.5227 Q449.1875,93.5227 448.5,94.593 Q447.8125,95.6633 447.8125,97.7571 Q447.8125,99.8508 448.5,100.9212 Q449.1875,101.9915 450.5313,101.9915 Q451.1563,101.9915 451.75,101.718 Q452.3438,101.4446 452.9688,100.8665 L452.9688,103.5852 Z "/><text fill="#000000" font-family="sans-serif" font-size="12" lengthAdjust="spacingAndGlyphs" textLength="78" x="464" y="102.0989">Organization</text><line style="stroke: #A80036; stroke-width: 1.5;" x1="436" x2="544" y1="113.9446" y2="113.9446"/><text fill="#000000" font-family="sans-serif" font-size="11" lengthAdjust="spacingAndGlyphs" textLength="74" x="441" y="128.155">-String nome</text><text fill="#000000" font-family="sans-serif" font-size="11" lengthAdjust="spacingAndGlyphs" textLength="73" x="441" y="140.9597">-String email</text><text fill="#000000" font-family="sans-serif" font-size="11" lengthAdjust="spacingAndGlyphs" textLength="56" x="441" y="153.7644">-String nif</text><!--MD5=[f483d6e5de34a60207b28a5563be5e8b]
class Collaborator--><rect fill="#FEFECE" filter="url(#f1qol5cggghutw)" height="65.6094" id="Collaborator" style="stroke: #A80036; stroke-width: 1.5;" width="109" x="674" y="272.9446"/><ellipse cx="689" cy="288.9446" fill="#ADD1B2" rx="11" ry="11" style="stroke: #A80036; stroke-width: 1.0;"/><path d="M691.9688,294.5852 Q691.3906,294.8821 690.75,295.0305 Q690.1094,295.179 689.4063,295.179 Q686.9063,295.179 685.5859,293.5305 Q684.2656,291.8821 684.2656,288.7571 Q684.2656,285.6321 685.5859,283.9759 Q686.9063,282.3196 689.4063,282.3196 Q690.1094,282.3196 690.7578,282.4759 Q691.4063,282.6321 691.9688,282.929 L691.9688,285.6477 Q691.3438,285.0696 690.75,284.7962 Q690.1563,284.5227 689.5313,284.5227 Q688.1875,284.5227 687.5,285.593 Q686.8125,286.6634 686.8125,288.7571 Q686.8125,290.8509 687.5,291.9212 Q688.1875,292.9915 689.5313,292.9915 Q690.1563,292.9915 690.75,292.718 Q691.3438,292.4446 691.9688,291.8665 L691.9688,294.5852 Z "/><text fill="#000000" font-family="sans-serif" font-size="12" lengthAdjust="spacingAndGlyphs" textLength="77" x="703" y="293.0989">Collaborator</text><line style="stroke: #A80036; stroke-width: 1.5;" x1="675" x2="782" y1="304.9446" y2="304.9446"/><text fill="#000000" font-family="sans-serif" font-size="11" lengthAdjust="spacingAndGlyphs" textLength="74" x="680" y="319.155">-String nome</text><text fill="#000000" font-family="sans-serif" font-size="11" lengthAdjust="spacingAndGlyphs" textLength="73" x="680" y="331.9597">-String email</text><!--MD5=[b24ed8d4ae84bae9290d9aab401637c7]
class Manager--><rect fill="#FEFECE" filter="url(#f1qol5cggghutw)" height="65.6094" id="Manager" style="stroke: #A80036; stroke-width: 1.5;" width="87" x="685" y="171.9446"/><ellipse cx="700" cy="187.9446" fill="#ADD1B2" rx="11" ry="11" style="stroke: #A80036; stroke-width: 1.0;"/><path d="M702.9688,193.5852 Q702.3906,193.8821 701.75,194.0305 Q701.1094,194.179 700.4063,194.179 Q697.9063,194.179 696.5859,192.5305 Q695.2656,190.8821 695.2656,187.7571 Q695.2656,184.6321 696.5859,182.9759 Q697.9063,181.3196 700.4063,181.3196 Q701.1094,181.3196 701.7578,181.4759 Q702.4063,181.6321 702.9688,181.929 L702.9688,184.6477 Q702.3438,184.0696 701.75,183.7962 Q701.1563,183.5227 700.5313,183.5227 Q699.1875,183.5227 698.5,184.593 Q697.8125,185.6634 697.8125,187.7571 Q697.8125,189.8509 698.5,190.9212 Q699.1875,191.9915 700.5313,191.9915 Q701.1563,191.9915 701.75,191.718 Q702.3438,191.4446 702.9688,190.8665 L702.9688,193.5852 Z "/><text fill="#000000" font-family="sans-serif" font-size="12" lengthAdjust="spacingAndGlyphs" textLength="55" x="714" y="192.0989">Manager</text><line style="stroke: #A80036; stroke-width: 1.5;" x1="686" x2="771" y1="203.9446" y2="203.9446"/><text fill="#000000" font-family="sans-serif" font-size="11" lengthAdjust="spacingAndGlyphs" textLength="74" x="691" y="218.155">-String nome</text><text fill="#000000" font-family="sans-serif" font-size="11" lengthAdjust="spacingAndGlyphs" textLength="73" x="691" y="230.9597">-String email</text><!--MD5=[3fd616f346a44cd59a91eb10b19e157c]
class User--><rect fill="#FEFECE" filter="url(#f1qol5cggghutw)" height="40" id="User" style="stroke: #A80036; stroke-width: 1.5;" width="61" x="912" y="285.9446"/><ellipse cx="927" cy="301.9446" fill="#ADD1B2" rx="11" ry="11" style="stroke: #A80036; stroke-width: 1.0;"/><path d="M929.9688,307.5852 Q929.3906,307.8821 928.75,308.0305 Q928.1094,308.179 927.4063,308.179 Q924.9063,308.179 923.5859,306.5305 Q922.2656,304.8821 922.2656,301.7571 Q922.2656,298.6321 923.5859,296.9759 Q924.9063,295.3196 927.4063,295.3196 Q928.1094,295.3196 928.7578,295.4759 Q929.4063,295.6321 929.9688,295.929 L929.9688,298.6477 Q929.3438,298.0696 928.75,297.7962 Q928.1563,297.5227 927.5313,297.5227 Q926.1875,297.5227 925.5,298.593 Q924.8125,299.6634 924.8125,301.7571 Q924.8125,303.8509 925.5,304.9212 Q926.1875,305.9915 927.5313,305.9915 Q928.1563,305.9915 928.75,305.718 Q929.3438,305.4446 929.9688,304.8665 L929.9688,307.5852 Z "/><text fill="#000000" font-family="sans-serif" font-size="12" lengthAdjust="spacingAndGlyphs" textLength="29" x="941" y="306.0989">User</text><line style="stroke: #A80036; stroke-width: 1.5;" x1="913" x2="972" y1="317.9446" y2="317.9446"/><!--MD5=[0f39e4cb6f03951afbf6d14bd2505654]
class Address--><rect fill="#FEFECE" filter="url(#f1qol5cggghutw)" height="78.4141" id="Address" style="stroke: #A80036; stroke-width: 1.5;" width="125" x="666" y="7.9446"/><ellipse cx="699.9" cy="23.9446" fill="#ADD1B2" rx="11" ry="11" style="stroke: #A80036; stroke-width: 1.0;"/><path d="M702.8688,29.5852 Q702.2906,29.8821 701.65,30.0305 Q701.0094,30.179 700.3063,30.179 Q697.8063,30.179 696.4859,28.5305 Q695.1656,26.8821 695.1656,23.7571 Q695.1656,20.6321 696.4859,18.9758 Q697.8063,17.3196 700.3063,17.3196 Q701.0094,17.3196 701.6578,17.4758 Q702.3063,17.6321 702.8688,17.929 L702.8688,20.6477 Q702.2438,20.0696 701.65,19.7962 Q701.0563,19.5227 700.4313,19.5227 Q699.0875,19.5227 698.4,20.593 Q697.7125,21.6633 697.7125,23.7571 Q697.7125,25.8508 698.4,26.9212 Q699.0875,27.9915 700.4313,27.9915 Q701.0563,27.9915 701.65,27.718 Q702.2438,27.4446 702.8688,26.8665 L702.8688,29.5852 Z "/><text fill="#000000" font-family="sans-serif" font-size="12" lengthAdjust="spacingAndGlyphs" textLength="51" x="718.1" y="28.0989">Address</text><line style="stroke: #A80036; stroke-width: 1.5;" x1="667" x2="790" y1="39.9446" y2="39.9446"/><text fill="#000000" font-family="sans-serif" font-size="11" lengthAdjust="spacingAndGlyphs" textLength="76" x="672" y="54.155">-String street</text><text fill="#000000" font-family="sans-serif" font-size="11" lengthAdjust="spacingAndGlyphs" textLength="113" x="672" y="66.9597">-String doorNumber</text><text fill="#000000" font-family="sans-serif" font-size="11" lengthAdjust="spacingAndGlyphs" textLength="61" x="672" y="79.7644">-String city</text><!--MD5=[da547346deef918ea16944ba046651ef]
class Administrator--><rect fill="#FEFECE" filter="url(#f1qol5cggghutw)" height="40" id="Administrator" style="stroke: #A80036; stroke-width: 1.5;" width="116" x="188" y="198.9446"/><ellipse cx="203" cy="214.9446" fill="#ADD1B2" rx="11" ry="11" style="stroke: #A80036; stroke-width: 1.0;"/><path d="M205.9688,220.5852 Q205.3906,220.8821 204.75,221.0305 Q204.1094,221.179 203.4063,221.179 Q200.9063,221.179 199.5859,219.5305 Q198.2656,217.8821 198.2656,214.7571 Q198.2656,211.6321 199.5859,209.9759 Q200.9063,208.3196 203.4063,208.3196 Q204.1094,208.3196 204.7578,208.4759 Q205.4063,208.6321 205.9688,208.929 L205.9688,211.6477 Q205.3438,211.0696 204.75,210.7962 Q204.1563,210.5227 203.5313,210.5227 Q202.1875,210.5227 201.5,211.593 Q200.8125,212.6634 200.8125,214.7571 Q200.8125,216.8509 201.5,217.9212 Q202.1875,218.9915 203.5313,218.9915 Q204.1563,218.9915 204.75,218.718 Q205.3438,218.4446 205.9688,217.8665 L205.9688,220.5852 Z "/><text fill="#000000" font-family="sans-serif" font-size="12" lengthAdjust="spacingAndGlyphs" textLength="84" x="217" y="219.0989">Administrator</text><line style="stroke: #A80036; stroke-width: 1.5;" x1="189" x2="303" y1="230.9446" y2="230.9446"/><!--MD5=[0f7004bed4496639b3a5258ab2ead378]
link Platform to Administrator--><path d="M90.476,180.4563 C118.8836,187.4865 156.6293,196.8276 187.8208,204.5467 " fill="none" id="Platform-Administrator" style="stroke: #A80036; stroke-width: 1.0;"/><text fill="#000000" font-family="sans-serif" font-size="13" lengthAdjust="spacingAndGlyphs" textLength="23" x="121" y="185.0115">has</text><polygon fill="#000000" points="147,179.011,153,182.011,147,185.011,147,179.011" style="stroke: #000000; stroke-width: 1.0;"/><text fill="#000000" font-family="sans-serif" font-size="13" lengthAdjust="spacingAndGlyphs" textLength="8" x="97.8831" y="195.4044">1</text><text fill="#000000" font-family="sans-serif" font-size="13" lengthAdjust="spacingAndGlyphs" textLength="8" x="171.8541" y="215.7383">1</text><!--MD5=[7640e466c042ba2d6f9c19c816f7f0fc]
link Platform to Organization--><path d="M90.3808,165.2463 C170.7597,156.3355 345.2942,136.9866 434.733,127.0715 " fill="none" id="Platform-Organization" style="stroke: #A80036; stroke-width: 1.0;"/><text fill="#000000" font-family="sans-serif" font-size="13" lengthAdjust="spacingAndGlyphs" textLength="92" x="193.5" y="139.0115">has registered</text><polygon fill="#000000" points="288.5,133.011,294.5,136.011,288.5,139.011,288.5,133.011" style="stroke: #000000; stroke-width: 1.0;"/><text fill="#000000" font-family="sans-serif" font-size="13" lengthAdjust="spacingAndGlyphs" textLength="8" x="98.0626" y="177.7882">1</text><text fill="#000000" font-family="sans-serif" font-size="13" lengthAdjust="spacingAndGlyphs" textLength="23" x="404.0131" y="140.6977">1..*</text><!--MD5=[ec97d39b7e7a4ec2b79aa9dbbb3f5070]
link Organization to Address--><path d="M545.3564,96.8303 C555.1432,92.9472 565.3038,89.1546 575,85.9446 C604.4961,76.1795 637.8605,67.4364 665.9312,60.7157 " fill="none" id="Organization-Address" style="stroke: #A80036; stroke-width: 1.0;"/><text fill="#000000" font-family="sans-serif" font-size="13" lengthAdjust="spacingAndGlyphs" textLength="23" x="587.5" y="65.0115">has</text><polygon fill="#000000" points="613.5,59.011,619.5,62.011,613.5,65.011,613.5,59.011" style="stroke: #000000; stroke-width: 1.0;"/><text fill="#000000" font-family="sans-serif" font-size="13" lengthAdjust="spacingAndGlyphs" textLength="8" x="552.9614" y="106.7505">1</text><text fill="#000000" font-family="sans-serif" font-size="13" lengthAdjust="spacingAndGlyphs" textLength="8" x="649.8181" y="75.3579">1</text><!--MD5=[bc039f41cf0b27fadee5cae63fc6e1fe]
link Organization to Manager--><path d="M545.2053,123.5219 C573.167,126.2453 607.2024,131.7742 636,142.9446 C654.0242,149.9361 672.0814,160.9259 687.3955,171.7236 " fill="none" id="Organization-Manager" style="stroke: #A80036; stroke-width: 1.0;"/><text fill="#000000" font-family="sans-serif" font-size="13" lengthAdjust="spacingAndGlyphs" textLength="23" x="587.5" y="124.0115">has</text><polygon fill="#000000" points="613.5,118.011,619.5,121.011,613.5,124.011,613.5,118.011" style="stroke: #000000; stroke-width: 1.0;"/><text fill="#000000" font-family="sans-serif" font-size="13" lengthAdjust="spacingAndGlyphs" textLength="8" x="553.161" y="136.924">1</text><text fill="#000000" font-family="sans-serif" font-size="13" lengthAdjust="spacingAndGlyphs" textLength="8" x="670.5156" y="160.8251">1</text><!--MD5=[45817597bcd7048073a670d966abfd17]
link Organization to Collaborator--><path d="M540.2883,159.9523 C583.4749,193.4513 645.0467,241.2114 685.8588,272.8686 " fill="none" id="Organization-Collaborator" style="stroke: #A80036; stroke-width: 1.0;"/><text fill="#000000" font-family="sans-serif" font-size="13" lengthAdjust="spacingAndGlyphs" textLength="23" x="587.5" y="188.0115">has</text><polygon fill="#000000" points="613.5,182.011,619.5,185.011,613.5,188.011,613.5,182.011" style="stroke: #000000; stroke-width: 1.0;"/><text fill="#000000" font-family="sans-serif" font-size="13" lengthAdjust="spacingAndGlyphs" textLength="8" x="540.8227" y="180.5681">1</text><text fill="#000000" font-family="sans-serif" font-size="13" lengthAdjust="spacingAndGlyphs" textLength="8" x="668.6763" y="261.9986">1</text><!--MD5=[04ce0ecdab38a3951889ff50c232570f]
link Collaborator to User--><path d="M783.0549,305.9446 C823.9201,305.9446 878.3442,305.9446 911.8728,305.9446 " fill="none" id="Collaborator-User" style="stroke: #A80036; stroke-width: 1.0;"/><text fill="#000000" font-family="sans-serif" font-size="13" lengthAdjust="spacingAndGlyphs" textLength="46" x="822" y="302.0115">acts as</text><polygon fill="#000000" points="871,296.011,877,299.011,871,302.011,871,296.011" style="stroke: #000000; stroke-width: 1.0;"/><text fill="#000000" font-family="sans-serif" font-size="13" lengthAdjust="spacingAndGlyphs" textLength="8" x="790.9232" y="319.0545">1</text><text fill="#000000" font-family="sans-serif" font-size="13" lengthAdjust="spacingAndGlyphs" textLength="8" x="895.8653" y="319.7612">1</text><!--MD5=[6eb6e197a729f6ec2412743e0bdbca1d]
link Manager to User--><path d="M772.064,225.5052 C813.6147,245.1155 875.1396,274.153 911.7874,291.4494 " fill="none" id="Manager-User" style="stroke: #A80036; stroke-width: 1.0;"/><text fill="#000000" font-family="sans-serif" font-size="13" lengthAdjust="spacingAndGlyphs" textLength="46" x="822" y="246.0115">acts as</text><polygon fill="#000000" points="871,240.011,877,243.011,871,246.011,871,240.011" style="stroke: #000000; stroke-width: 1.0;"/><text fill="#000000" font-family="sans-serif" font-size="13" lengthAdjust="spacingAndGlyphs" textLength="8" x="779.9418" y="242.263">1</text><text fill="#000000" font-family="sans-serif" font-size="13" lengthAdjust="spacingAndGlyphs" textLength="8" x="896.194" y="302.0006">1</text><!--MD5=[2a41c1af413c0662bf55a6b8913ea24f]
link Administrator to Organization--><path d="M304.1152,200.9372 C334.5387,190.9867 372.1875,177.844 405,163.9446 C414.7458,159.8162 424.9313,155.0646 434.7274,150.2592 " fill="none" id="Administrator-Organization" style="stroke: #A80036; stroke-width: 1.0;"/><text fill="#000000" font-family="sans-serif" font-size="13" lengthAdjust="spacingAndGlyphs" textLength="56" x="335" y="160.0115">registers</text><polygon fill="#000000" points="394,154.011,400,157.011,394,160.011,394,154.011" style="stroke: #000000; stroke-width: 1.0;"/><text fill="#000000" font-family="sans-serif" font-size="13" lengthAdjust="spacingAndGlyphs" textLength="8" x="312.0737" y="211.6663">1</text><text fill="#000000" font-family="sans-serif" font-size="13" lengthAdjust="spacingAndGlyphs" textLength="8" x="419.1331" y="167.0249">1</text><!--MD5=[edc107c0a572352bcd12c9afaba4390b]
link Administrator to User--><path d="M282.5468,239.0291 C369.5891,284.4684 596.4324,388.8149 791,356.9446 C834.2721,349.8566 881.8397,332.0909 911.9172,319.5277 " fill="none" id="Administrator-User" style="stroke: #A80036; stroke-width: 1.0;"/><text fill="#000000" font-family="sans-serif" font-size="13" lengthAdjust="spacingAndGlyphs" textLength="46" x="576" y="343.0115">acts as</text><polygon fill="#000000" points="625,337.011,631,340.011,625,343.011,625,337.011" style="stroke: #000000; stroke-width: 1.0;"/><text fill="#000000" font-family="sans-serif" font-size="13" lengthAdjust="spacingAndGlyphs" textLength="8" x="283.7006" y="258.8728">1</text><text fill="#000000" font-family="sans-serif" font-size="13" lengthAdjust="spacingAndGlyphs" textLength="8" x="895.9199" y="336.4854">1</text><!--MD5=[757406b2e460220911d4cccaa97c87d9]
link Administrator to Collaborator--><path d="M304.2008,229.4388 C398.1927,246.3866 582.113,279.5494 673.8094,296.0833 " fill="none" id="Administrator-Collaborator" style="stroke: #A80036; stroke-width: 1.0;"/><text fill="#000000" font-family="sans-serif" font-size="13" lengthAdjust="spacingAndGlyphs" textLength="56" x="455.5" y="250.0115">registers</text><polygon fill="#000000" points="514.5,244.011,520.5,247.011,514.5,250.011,514.5,244.011" style="stroke: #000000; stroke-width: 1.0;"/><text fill="#000000" font-family="sans-serif" font-size="13" lengthAdjust="spacingAndGlyphs" textLength="8" x="312.1703" y="243.8197">1</text><text fill="#000000" font-family="sans-serif" font-size="13" lengthAdjust="spacingAndGlyphs" textLength="8" x="657.9229" y="307.8681">1</text><!--MD5=[64d713fdb760e3b6b59069371d93ba85]
link Administrator to Manager--><path d="M304.2008,217.2559 C402.0777,214.4159 597.4707,208.7465 684.6942,206.2156 " fill="none" id="Administrator-Manager" style="stroke: #A80036; stroke-width: 1.0;"/><text fill="#000000" font-family="sans-serif" font-size="13" lengthAdjust="spacingAndGlyphs" textLength="56" x="455.5" y="207.0115">registers</text><polygon fill="#000000" points="514.5,201.011,520.5,204.011,514.5,207.011,514.5,201.011" style="stroke: #000000; stroke-width: 1.0;"/><text fill="#000000" font-family="sans-serif" font-size="13" lengthAdjust="spacingAndGlyphs" textLength="8" x="312.1703" y="225.8454">1</text><text fill="#000000" font-family="sans-serif" font-size="13" lengthAdjust="spacingAndGlyphs" textLength="8" x="669.0752" y="219.7221">1</text><!--MD5=[56ef3cce48303165310871cab8270ee4]
@startuml
skinparam classAttributeIconSize 0
hide methods
left to right direction

class Platform{
}

class Organization {
  -String nome
  -String email
  -String nif
}

class Collaborator{
  -String nome
  -String email
}


class Manager {
  -String nome
  -String email
}

class User {
}

class Address {
  -String street
  -String doorNumber
  -String city
}


Platform "1" - - "1" Administrator: has >
Platform "1" - - "1..*" Organization: has registered >
Organization "1" - - "1" Address: has >
Organization "1" - - "1" Manager: has >
Organization "1" - - "1" Collaborator: has >
Collaborator "1" - - "1" User: acts as >
Manager "1" - - "1" User: acts as >
Administrator "1" - - "1" Organization: registers >
Administrator "1" - - "1" User: acts as >
Administrator "1" - - "1" Collaborator: registers >
Administrator "1" - - "1" Manager: registers >
@enduml

PlantUML version 1.2019.12(Sun Nov 03 10:24:54 UTC 2019)
(GPL source distribution)
Java Runtime: OpenJDK Runtime Environment
JVM: OpenJDK 64-Bit Server VM
Java Version: 1.8.0_232-heroku-b09
Operating System: Linux
Default Encoding: UTF-8
Language: en
Country: US
--></g></svg>