<?xml version="1.0" encoding="UTF-8" standalone="no"?><svg xmlns="http://www.w3.org/2000/svg" xmlns:xlink="http://www.w3.org/1999/xlink" contentScriptType="application/ecmascript" contentStyleType="text/css" height="550px" preserveAspectRatio="none" style="width:2081px;height:550px;" version="1.1" viewBox="0 0 2081 550" width="2081px" zoomAndPan="magnify"><defs><filter height="300%" id="fywsj1kyq74" width="300%" x="-1" y="-1"><feGaussianBlur result="blurOut" stdDeviation="2.0"/><feColorMatrix in="blurOut" result="blurOut2" type="matrix" values="0 0 0 0 0 0 0 0 0 0 0 0 0 0 0 0 0 0 .4 0"/><feOffset dx="4.0" dy="4.0" in="blurOut2" result="blurOut3"/><feBlend in="SourceGraphic" in2="blurOut3" mode="normal"/></filter></defs><g><!--MD5=[45b10b8ff4ed64a4a6f2a6ab6acf684c]
class WatchStatisticsUI--><rect fill="#FEFECE" filter="url(#fywsj1kyq74)" height="48" id="WatchStatisticsUI" style="stroke: #A80036; stroke-width: 1.5;" width="141" x="6" y="164"/><ellipse cx="21" cy="180" fill="#ADD1B2" rx="11" ry="11" style="stroke: #A80036; stroke-width: 1.0;"/><path d="M23.9688,185.6406 Q23.3906,185.9375 22.75,186.0859 Q22.1094,186.2344 21.4063,186.2344 Q18.9063,186.2344 17.5859,184.5859 Q16.2656,182.9375 16.2656,179.8125 Q16.2656,176.6875 17.5859,175.0313 Q18.9063,173.375 21.4063,173.375 Q22.1094,173.375 22.7578,173.5313 Q23.4063,173.6875 23.9688,173.9844 L23.9688,176.7031 Q23.3438,176.125 22.75,175.8516 Q22.1563,175.5781 21.5313,175.5781 Q20.1875,175.5781 19.5,176.6484 Q18.8125,177.7188 18.8125,179.8125 Q18.8125,181.9063 19.5,182.9766 Q20.1875,184.0469 21.5313,184.0469 Q22.1563,184.0469 22.75,183.7734 Q23.3438,183.5 23.9688,182.9219 L23.9688,185.6406 Z "/><text fill="#000000" font-family="sans-serif" font-size="12" lengthAdjust="spacingAndGlyphs" textLength="109" x="35" y="184.1543">WatchStatisticsUI</text><line style="stroke: #A80036; stroke-width: 1.5;" x1="7" x2="146" y1="196" y2="196"/><line style="stroke: #A80036; stroke-width: 1.5;" x1="7" x2="146" y1="204" y2="204"/><!--MD5=[3ed78abb7ad3a3fd83e44d4afd5ddf5d]
class WatchStatisticsController--><rect fill="#FEFECE" filter="url(#fywsj1kyq74)" height="60.8047" id="WatchStatisticsController" style="stroke: #A80036; stroke-width: 1.5;" width="190" x="208" y="157.5"/><ellipse cx="223" cy="173.5" fill="#ADD1B2" rx="11" ry="11" style="stroke: #A80036; stroke-width: 1.0;"/><path d="M225.9688,179.1406 Q225.3906,179.4375 224.75,179.5859 Q224.1094,179.7344 223.4063,179.7344 Q220.9063,179.7344 219.5859,178.0859 Q218.2656,176.4375 218.2656,173.3125 Q218.2656,170.1875 219.5859,168.5313 Q220.9063,166.875 223.4063,166.875 Q224.1094,166.875 224.7578,167.0313 Q225.4063,167.1875 225.9688,167.4844 L225.9688,170.2031 Q225.3438,169.625 224.75,169.3516 Q224.1563,169.0781 223.5313,169.0781 Q222.1875,169.0781 221.5,170.1484 Q220.8125,171.2188 220.8125,173.3125 Q220.8125,175.4063 221.5,176.4766 Q222.1875,177.5469 223.5313,177.5469 Q224.1563,177.5469 224.75,177.2734 Q225.3438,177 225.9688,176.4219 L225.9688,179.1406 Z "/><text fill="#000000" font-family="sans-serif" font-size="12" lengthAdjust="spacingAndGlyphs" textLength="158" x="237" y="177.6543">WatchStatisticsController</text><line style="stroke: #A80036; stroke-width: 1.5;" x1="209" x2="397" y1="189.5" y2="189.5"/><line style="stroke: #A80036; stroke-width: 1.5;" x1="209" x2="397" y1="197.5" y2="197.5"/><text fill="#000000" font-family="sans-serif" font-size="11" lengthAdjust="spacingAndGlyphs" textLength="128" x="214" y="211.7104">+getOverallStatistics()</text><!--MD5=[99b8db98afdc2c8404e39242ef4c1e65]
class Platform--><rect fill="#FEFECE" filter="url(#fywsj1kyq74)" height="86.4141" id="Platform" style="stroke: #A80036; stroke-width: 1.5;" width="200" x="459" y="390"/><ellipse cx="528.75" cy="406" fill="#ADD1B2" rx="11" ry="11" style="stroke: #A80036; stroke-width: 1.0;"/><path d="M531.7188,411.6406 Q531.1406,411.9375 530.5,412.0859 Q529.8594,412.2344 529.1563,412.2344 Q526.6563,412.2344 525.3359,410.5859 Q524.0156,408.9375 524.0156,405.8125 Q524.0156,402.6875 525.3359,401.0313 Q526.6563,399.375 529.1563,399.375 Q529.8594,399.375 530.5078,399.5313 Q531.1563,399.6875 531.7188,399.9844 L531.7188,402.7031 Q531.0938,402.125 530.5,401.8516 Q529.9063,401.5781 529.2813,401.5781 Q527.9375,401.5781 527.25,402.6484 Q526.5625,403.7188 526.5625,405.8125 Q526.5625,407.9063 527.25,408.9766 Q527.9375,410.0469 529.2813,410.0469 Q529.9063,410.0469 530.5,409.7734 Q531.0938,409.5 531.7188,408.9219 L531.7188,411.6406 Z "/><text fill="#000000" font-family="sans-serif" font-size="12" lengthAdjust="spacingAndGlyphs" textLength="52" x="549.25" y="410.1543">Platform</text><line style="stroke: #A80036; stroke-width: 1.5;" x1="460" x2="658" y1="422" y2="422"/><line style="stroke: #A80036; stroke-width: 1.5;" x1="460" x2="658" y1="430" y2="430"/><text fill="#000000" font-family="sans-serif" font-size="11" lengthAdjust="spacingAndGlyphs" textLength="142" x="465" y="444.2104">+getRegisterFreelancer()</text><text fill="#000000" font-family="sans-serif" font-size="11" lengthAdjust="spacingAndGlyphs" textLength="188" x="465" y="457.0151">+getOrgaanizacaoByEmail(email)</text><text fill="#000000" font-family="sans-serif" font-size="11" lengthAdjust="spacingAndGlyphs" textLength="129" x="465" y="469.8198">+getListTransactions()</text><!--MD5=[6735b55cc4e757c70976e457f6d95f3d]
class RegisterFreelancer--><rect fill="#FEFECE" filter="url(#fywsj1kyq74)" height="73.6094" id="RegisterFreelancer" style="stroke: #A80036; stroke-width: 1.5;" width="151" x="744" y="411"/><ellipse cx="759" cy="427" fill="#ADD1B2" rx="11" ry="11" style="stroke: #A80036; stroke-width: 1.0;"/><path d="M761.9688,432.6406 Q761.3906,432.9375 760.75,433.0859 Q760.1094,433.2344 759.4063,433.2344 Q756.9063,433.2344 755.5859,431.5859 Q754.2656,429.9375 754.2656,426.8125 Q754.2656,423.6875 755.5859,422.0313 Q756.9063,420.375 759.4063,420.375 Q760.1094,420.375 760.7578,420.5313 Q761.4063,420.6875 761.9688,420.9844 L761.9688,423.7031 Q761.3438,423.125 760.75,422.8516 Q760.1563,422.5781 759.5313,422.5781 Q758.1875,422.5781 757.5,423.6484 Q756.8125,424.7188 756.8125,426.8125 Q756.8125,428.9063 757.5,429.9766 Q758.1875,431.0469 759.5313,431.0469 Q760.1563,431.0469 760.75,430.7734 Q761.3438,430.5 761.9688,429.9219 L761.9688,432.6406 Z "/><text fill="#000000" font-family="sans-serif" font-size="12" lengthAdjust="spacingAndGlyphs" textLength="119" x="773" y="431.1543">RegisterFreelancer</text><line style="stroke: #A80036; stroke-width: 1.5;" x1="745" x2="894" y1="443" y2="443"/><line style="stroke: #A80036; stroke-width: 1.5;" x1="745" x2="894" y1="451" y2="451"/><text fill="#000000" font-family="sans-serif" font-size="11" lengthAdjust="spacingAndGlyphs" textLength="115" x="750" y="465.2104">+getListFreelancer()</text><text fill="#000000" font-family="sans-serif" font-size="11" lengthAdjust="spacingAndGlyphs" textLength="102" x="750" y="478.0151">+getFreelancers()</text><!--MD5=[764fca796ce7f635542948d8fc39db5e]
class Payment--><rect fill="#FEFECE" filter="url(#fywsj1kyq74)" height="86.4141" id="Payment" style="stroke: #A80036; stroke-width: 1.5;" width="141" x="1438" y="134"/><ellipse cx="1477.75" cy="150" fill="#ADD1B2" rx="11" ry="11" style="stroke: #A80036; stroke-width: 1.0;"/><path d="M1480.7188,155.6406 Q1480.1406,155.9375 1479.5,156.0859 Q1478.8594,156.2344 1478.1563,156.2344 Q1475.6563,156.2344 1474.3359,154.5859 Q1473.0156,152.9375 1473.0156,149.8125 Q1473.0156,146.6875 1474.3359,145.0313 Q1475.6563,143.375 1478.1563,143.375 Q1478.8594,143.375 1479.5078,143.5313 Q1480.1563,143.6875 1480.7188,143.9844 L1480.7188,146.7031 Q1480.0938,146.125 1479.5,145.8516 Q1478.9063,145.5781 1478.2813,145.5781 Q1476.9375,145.5781 1476.25,146.6484 Q1475.5625,147.7188 1475.5625,149.8125 Q1475.5625,151.9063 1476.25,152.9766 Q1476.9375,154.0469 1478.2813,154.0469 Q1478.9063,154.0469 1479.5,153.7734 Q1480.0938,153.5 1480.7188,152.9219 L1480.7188,155.6406 Z "/><text fill="#000000" font-family="sans-serif" font-size="12" lengthAdjust="spacingAndGlyphs" textLength="54" x="1497.25" y="154.1543">Payment</text><line style="stroke: #A80036; stroke-width: 1.5;" x1="1439" x2="1578" y1="166" y2="166"/><text fill="#000000" font-family="sans-serif" font-size="11" lengthAdjust="spacingAndGlyphs" textLength="83" x="1444" y="180.2104">-double valueE</text><text fill="#000000" font-family="sans-serif" font-size="11" lengthAdjust="spacingAndGlyphs" textLength="84" x="1444" y="193.0151">-double valueC</text><line style="stroke: #A80036; stroke-width: 1.5;" x1="1439" x2="1578" y1="199.6094" y2="199.6094"/><text fill="#000000" font-family="sans-serif" font-size="11" lengthAdjust="spacingAndGlyphs" textLength="129" x="1444" y="213.8198">+getListTransactions()</text><!--MD5=[1f687b5315377fe49fca59b457947463]
class Freelancer--><rect fill="#FEFECE" filter="url(#fywsj1kyq74)" height="214.4609" id="Freelancer" style="stroke: #A80036; stroke-width: 1.5;" width="373" x="980" y="205"/><ellipse cx="1128.75" cy="221" fill="#ADD1B2" rx="11" ry="11" style="stroke: #A80036; stroke-width: 1.0;"/><path d="M1131.7188,226.6406 Q1131.1406,226.9375 1130.5,227.0859 Q1129.8594,227.2344 1129.1563,227.2344 Q1126.6563,227.2344 1125.3359,225.5859 Q1124.0156,223.9375 1124.0156,220.8125 Q1124.0156,217.6875 1125.3359,216.0313 Q1126.6563,214.375 1129.1563,214.375 Q1129.8594,214.375 1130.5078,214.5313 Q1131.1563,214.6875 1131.7188,214.9844 L1131.7188,217.7031 Q1131.0938,217.125 1130.5,216.8516 Q1129.9063,216.5781 1129.2813,216.5781 Q1127.9375,216.5781 1127.25,217.6484 Q1126.5625,218.7188 1126.5625,220.8125 Q1126.5625,222.9063 1127.25,223.9766 Q1127.9375,225.0469 1129.2813,225.0469 Q1129.9063,225.0469 1130.5,224.7734 Q1131.0938,224.5 1131.7188,223.9219 L1131.7188,226.6406 Z "/><text fill="#000000" font-family="sans-serif" font-size="12" lengthAdjust="spacingAndGlyphs" textLength="67" x="1149.25" y="225.1543">Freelancer</text><line style="stroke: #A80036; stroke-width: 1.5;" x1="981" x2="1352" y1="237" y2="237"/><text fill="#000000" font-family="sans-serif" font-size="11" lengthAdjust="spacingAndGlyphs" textLength="76" x="986" y="251.2104">-String freeID</text><text fill="#000000" font-family="sans-serif" font-size="11" lengthAdjust="spacingAndGlyphs" textLength="74" x="986" y="264.0151">-String name</text><text fill="#000000" font-family="sans-serif" font-size="11" lengthAdjust="spacingAndGlyphs" textLength="88" x="986" y="276.8198">-String levelExp</text><text fill="#000000" font-family="sans-serif" font-size="11" lengthAdjust="spacingAndGlyphs" textLength="73" x="986" y="289.6245">-String email</text><text fill="#000000" font-family="sans-serif" font-size="11" lengthAdjust="spacingAndGlyphs" textLength="56" x="986" y="302.4292">-String nif</text><text fill="#000000" font-family="sans-serif" font-size="11" lengthAdjust="spacingAndGlyphs" textLength="66" x="986" y="315.2339">-String iban</text><text fill="#000000" font-family="sans-serif" font-size="11" lengthAdjust="spacingAndGlyphs" textLength="84" x="986" y="328.0386">-String country</text><line style="stroke: #A80036; stroke-width: 1.5;" x1="981" x2="1352" y1="334.6328" y2="334.6328"/><text fill="#000000" font-family="sans-serif" font-size="11" lengthAdjust="spacingAndGlyphs" textLength="111" x="986" y="348.8433">+getListPayments()</text><text fill="#000000" font-family="sans-serif" font-size="11" lengthAdjust="spacingAndGlyphs" textLength="240" x="986" y="361.6479">+averageOfEachFreelancer(PaymentTotal)</text><text fill="#000000" font-family="sans-serif" font-size="11" lengthAdjust="spacingAndGlyphs" textLength="246" x="986" y="374.4526">+calculateDeviation(averageFreel,payment)</text><text fill="#000000" font-family="sans-serif" font-size="11" lengthAdjust="spacingAndGlyphs" textLength="265" x="986" y="387.2573">+calculateDeviation(sumAllPaymentsDeviation)</text><text fill="#000000" font-family="sans-serif" font-size="11" lengthAdjust="spacingAndGlyphs" textLength="310" x="986" y="400.062">+deviationDelay(delayTask,averageDelayOfFreelancer)</text><text fill="#000000" font-family="sans-serif" font-size="11" lengthAdjust="spacingAndGlyphs" textLength="361" x="986" y="412.8667">+calculateDeviationOfAllFreelancers(sumDelayOfAllFreelancers)</text><!--MD5=[5ce80547de3caced9d0089e35ded5090]
class TaskExecution--><rect fill="#FEFECE" filter="url(#fywsj1kyq74)" height="99.2188" id="TaskExecution" style="stroke: #A80036; stroke-width: 1.5;" width="169" x="1901" y="8.5"/><ellipse cx="1937.15" cy="24.5" fill="#ADD1B2" rx="11" ry="11" style="stroke: #A80036; stroke-width: 1.0;"/><path d="M1940.1188,30.1406 Q1939.5406,30.4375 1938.9,30.5859 Q1938.2594,30.7344 1937.5563,30.7344 Q1935.0563,30.7344 1933.7359,29.0859 Q1932.4156,27.4375 1932.4156,24.3125 Q1932.4156,21.1875 1933.7359,19.5313 Q1935.0563,17.875 1937.5563,17.875 Q1938.2594,17.875 1938.9078,18.0313 Q1939.5563,18.1875 1940.1188,18.4844 L1940.1188,21.2031 Q1939.4938,20.625 1938.9,20.3516 Q1938.3063,20.0781 1937.6813,20.0781 Q1936.3375,20.0781 1935.65,21.1484 Q1934.9625,22.2188 1934.9625,24.3125 Q1934.9625,26.4063 1935.65,27.4766 Q1936.3375,28.5469 1937.6813,28.5469 Q1938.3063,28.5469 1938.9,28.2734 Q1939.4938,28 1940.1188,27.4219 L1940.1188,30.1406 Z "/><text fill="#000000" font-family="sans-serif" font-size="12" lengthAdjust="spacingAndGlyphs" textLength="90" x="1955.85" y="28.6543">TaskExecution</text><line style="stroke: #A80036; stroke-width: 1.5;" x1="1902" x2="2069" y1="40.5" y2="40.5"/><text fill="#000000" font-family="sans-serif" font-size="11" lengthAdjust="spacingAndGlyphs" textLength="81" x="1907" y="54.7104">-Data endDate</text><text fill="#000000" font-family="sans-serif" font-size="11" lengthAdjust="spacingAndGlyphs" textLength="76" x="1907" y="67.5151">-double delay</text><text fill="#000000" font-family="sans-serif" font-size="11" lengthAdjust="spacingAndGlyphs" textLength="157" x="1907" y="80.3198">-String descriptionOfQuality</text><line style="stroke: #A80036; stroke-width: 1.5;" x1="1902" x2="2069" y1="86.9141" y2="86.9141"/><text fill="#000000" font-family="sans-serif" font-size="11" lengthAdjust="spacingAndGlyphs" textLength="131" x="1907" y="101.1245">+getDelayByTask(task)</text><!--MD5=[4555bb1b0911a5adf28ce6dbe60fed2e]
class Transaction--><rect fill="#FEFECE" filter="url(#fywsj1kyq74)" height="86.4141" id="Transaction" style="stroke: #A80036; stroke-width: 1.5;" width="127" x="1664" y="98"/><ellipse cx="1688.45" cy="114" fill="#ADD1B2" rx="11" ry="11" style="stroke: #A80036; stroke-width: 1.0;"/><path d="M1691.4188,119.6406 Q1690.8406,119.9375 1690.2,120.0859 Q1689.5594,120.2344 1688.8563,120.2344 Q1686.3563,120.2344 1685.0359,118.5859 Q1683.7156,116.9375 1683.7156,113.8125 Q1683.7156,110.6875 1685.0359,109.0313 Q1686.3563,107.375 1688.8563,107.375 Q1689.5594,107.375 1690.2078,107.5313 Q1690.8563,107.6875 1691.4188,107.9844 L1691.4188,110.7031 Q1690.7938,110.125 1690.2,109.8516 Q1689.6063,109.5781 1688.9813,109.5781 Q1687.6375,109.5781 1686.95,110.6484 Q1686.2625,111.7188 1686.2625,113.8125 Q1686.2625,115.9063 1686.95,116.9766 Q1687.6375,118.0469 1688.9813,118.0469 Q1689.6063,118.0469 1690.2,117.7734 Q1690.7938,117.5 1691.4188,116.9219 L1691.4188,119.6406 Z "/><text fill="#000000" font-family="sans-serif" font-size="12" lengthAdjust="spacingAndGlyphs" textLength="74" x="1704.55" y="118.1543">Transaction</text><line style="stroke: #A80036; stroke-width: 1.5;" x1="1665" x2="1790" y1="130" y2="130"/><line style="stroke: #A80036; stroke-width: 1.5;" x1="1665" x2="1790" y1="138" y2="138"/><text fill="#000000" font-family="sans-serif" font-size="11" lengthAdjust="spacingAndGlyphs" textLength="115" x="1670" y="152.2104">+getPaymentValue()</text><text fill="#000000" font-family="sans-serif" font-size="11" lengthAdjust="spacingAndGlyphs" textLength="62" x="1670" y="165.0151">+getTask()</text><text fill="#000000" font-family="sans-serif" font-size="11" lengthAdjust="spacingAndGlyphs" textLength="95" x="1670" y="177.8198">+getFreelancer()</text><!--MD5=[86c7c362de55a38b660185a1328fe18d]
class Organization--><rect fill="#FEFECE" filter="url(#fywsj1kyq74)" height="99.2188" id="Organization" style="stroke: #A80036; stroke-width: 1.5;" width="110" x="764.5" y="276.5"/><ellipse cx="779.5" cy="292.5" fill="#ADD1B2" rx="11" ry="11" style="stroke: #A80036; stroke-width: 1.0;"/><path d="M782.4688,298.1406 Q781.8906,298.4375 781.25,298.5859 Q780.6094,298.7344 779.9063,298.7344 Q777.4063,298.7344 776.0859,297.0859 Q774.7656,295.4375 774.7656,292.3125 Q774.7656,289.1875 776.0859,287.5313 Q777.4063,285.875 779.9063,285.875 Q780.6094,285.875 781.2578,286.0313 Q781.9063,286.1875 782.4688,286.4844 L782.4688,289.2031 Q781.8438,288.625 781.25,288.3516 Q780.6563,288.0781 780.0313,288.0781 Q778.6875,288.0781 778,289.1484 Q777.3125,290.2188 777.3125,292.3125 Q777.3125,294.4063 778,295.4766 Q778.6875,296.5469 780.0313,296.5469 Q780.6563,296.5469 781.25,296.2734 Q781.8438,296 782.4688,295.4219 L782.4688,298.1406 Z "/><text fill="#000000" font-family="sans-serif" font-size="12" lengthAdjust="spacingAndGlyphs" textLength="78" x="793.5" y="296.6543">Organization</text><line style="stroke: #A80036; stroke-width: 1.5;" x1="765.5" x2="873.5" y1="308.5" y2="308.5"/><text fill="#000000" font-family="sans-serif" font-size="11" lengthAdjust="spacingAndGlyphs" textLength="74" x="770.5" y="322.7104">-String nome</text><text fill="#000000" font-family="sans-serif" font-size="11" lengthAdjust="spacingAndGlyphs" textLength="73" x="770.5" y="335.5151">-String email</text><text fill="#000000" font-family="sans-serif" font-size="11" lengthAdjust="spacingAndGlyphs" textLength="56" x="770.5" y="348.3198">-String nif</text><line style="stroke: #A80036; stroke-width: 1.5;" x1="765.5" x2="873.5" y1="354.9141" y2="354.9141"/><text fill="#000000" font-family="sans-serif" font-size="11" lengthAdjust="spacingAndGlyphs" textLength="82" x="770.5" y="369.1245">+getTaskList()</text><!--MD5=[681bd264a5afbdbb7acc45dbd74a008f]
link WatchStatisticsUI to WatchStatisticsController--><path d="M147.2343,188 C164.7939,188 183.9486,188 202.6298,188 " fill="none" id="WatchStatisticsUI-&gt;WatchStatisticsController" style="stroke: #A80036; stroke-width: 1.0; stroke-dasharray: 7.0,7.0;"/><polygon fill="#A80036" points="207.8845,188,198.8845,184,202.8845,188,198.8845,192,207.8845,188" style="stroke: #A80036; stroke-width: 1.0;"/><!--MD5=[a3147ce88a635d4643ae6077965016dc]
link WatchStatisticsController to Platform--><path d="M326.1467,218.7611 C350.0091,249.5302 389.1163,297.4153 428,334 C447.659,352.4967 470.697,370.8543 491.9248,386.6453 " fill="none" id="WatchStatisticsController-&gt;Platform" style="stroke: #A80036; stroke-width: 1.0; stroke-dasharray: 7.0,7.0;"/><polygon fill="#A80036" points="496.1447,389.7686,491.2903,381.1992,492.1258,386.794,486.531,387.6294,496.1447,389.7686" style="stroke: #A80036; stroke-width: 1.0;"/><!--MD5=[7f30376b5489b5e5b6600c050fcb7672]
link WatchStatisticsController to Payment--><path d="M398.2878,168.1572 C446.2708,159.8116 505.4785,152 559,152 C559,152 559,152 1166.5,152 C1258.1745,152 1363.3048,161.0456 1432.5332,168.2546 " fill="none" id="WatchStatisticsController-&gt;Payment" style="stroke: #A80036; stroke-width: 1.0; stroke-dasharray: 7.0,7.0;"/><polygon fill="#A80036" points="1437.8698,168.8141,1429.336,163.8973,1432.8971,168.2927,1428.5017,171.8537,1437.8698,168.8141" style="stroke: #A80036; stroke-width: 1.0;"/><!--MD5=[80175d969ce784f63d673dd484189a94]
link WatchStatisticsController to Transaction--><path d="M346.4699,157.3381 C395.6408,125.7198 479.2779,81 559,81 C559,81 559,81 1508.5,81 C1560.1243,81 1616.2387,96.7001 1658.7411,112.038 " fill="none" id="WatchStatisticsController-&gt;Transaction" style="stroke: #A80036; stroke-width: 1.0; stroke-dasharray: 7.0,7.0;"/><polygon fill="#A80036" points="1663.5934,113.8088,1656.5101,106.9658,1658.8964,112.0947,1653.7675,114.4809,1663.5934,113.8088" style="stroke: #A80036; stroke-width: 1.0;"/><!--MD5=[c32f7ba26e830b4b31f9f1bf0c2cd0d2]
link WatchStatisticsController to Freelancer--><path d="M398.1375,197.2363 C515.344,209.1152 720.3977,231.5255 895,259 C920.9037,263.0761 948.1085,267.8244 974.881,272.7729 " fill="none" id="WatchStatisticsController-&gt;Freelancer" style="stroke: #A80036; stroke-width: 1.0; stroke-dasharray: 7.0,7.0;"/><polygon fill="#A80036" points="979.8746,273.6991,971.7552,268.1246,974.9585,272.7871,970.296,275.9904,979.8746,273.6991" style="stroke: #A80036; stroke-width: 1.0;"/><!--MD5=[2961de71af536c1e536baaf42e16934e]
link WatchStatisticsController to TaskExecution--><path d="M325.7258,157.4007 C366.3925,106.5079 456.9609,10 559,10 C559,10 559,10 1727.5,10 C1784.1011,10 1846.5265,21.3042 1895.7935,32.9409 " fill="none" id="WatchStatisticsController-&gt;TaskExecution" style="stroke: #A80036; stroke-width: 1.0; stroke-dasharray: 7.0,7.0;"/><polygon fill="#A80036" points="1900.8222,34.1406,1892.9961,28.1613,1895.9587,32.9803,1891.1397,35.9429,1900.8222,34.1406" style="stroke: #A80036; stroke-width: 1.0;"/><!--MD5=[5ac7a21f30a395131361a7e216f0d266]
link WatchStatisticsController to Organization--><path d="M357.6945,218.5193 C379.1005,229.4355 404.194,241.0024 428,249 C541.8897,287.2609 681.162,309.022 759.1459,319.0783 " fill="none" id="WatchStatisticsController-&gt;Organization" style="stroke: #A80036; stroke-width: 1.0; stroke-dasharray: 7.0,7.0;"/><polygon fill="#A80036" points="764.1931,319.7239,755.7734,314.6143,759.2335,319.0895,754.7583,322.5496,764.1931,319.7239" style="stroke: #A80036; stroke-width: 1.0;"/><!--MD5=[bd4dc258c99bd36fa08dcfc6a9cf30bc]
link Platform to RegisterFreelancer--><path d="M659.3435,438.7779 C685.5702,440.2881 713.5071,441.8968 738.5819,443.3406 " fill="none" id="Platform-&gt;RegisterFreelancer" style="stroke: #A80036; stroke-width: 1.0;"/><polygon fill="#A80036" points="743.8875,443.6461,735.1325,439.1351,738.8958,443.3585,734.6723,447.1218,743.8875,443.6461" style="stroke: #A80036; stroke-width: 1.0;"/><text fill="#000000" font-family="sans-serif" font-size="13" lengthAdjust="spacingAndGlyphs" textLength="23" x="690" y="436.0669">has</text><text fill="#000000" font-family="sans-serif" font-size="13" lengthAdjust="spacingAndGlyphs" textLength="8" x="667.0062" y="451.8096">1</text><text fill="#000000" font-family="sans-serif" font-size="13" lengthAdjust="spacingAndGlyphs" textLength="8" x="728.0506" y="456.0485">1</text><!--MD5=[7640e466c042ba2d6f9c19c816f7f0fc]
link Platform to Organization--><path d="M659.3435,391.7841 C693.2198,377.8694 729.9493,362.7828 759.6786,350.5715 " fill="none" id="Platform-&gt;Organization" style="stroke: #A80036; stroke-width: 1.0;"/><polygon fill="#A80036" points="764.3884,348.637,754.5435,348.3566,759.7634,350.5368,757.5832,355.7567,764.3884,348.637" style="stroke: #A80036; stroke-width: 1.0;"/><text fill="#000000" font-family="sans-serif" font-size="13" lengthAdjust="spacingAndGlyphs" textLength="23" x="690" y="365.0669">has</text><text fill="#000000" font-family="sans-serif" font-size="13" lengthAdjust="spacingAndGlyphs" textLength="8" x="667.0062" y="401.3647">1</text><text fill="#000000" font-family="sans-serif" font-size="13" lengthAdjust="spacingAndGlyphs" textLength="7" x="749.5125" y="364.7478">*</text><!--MD5=[3781be57b219e856d6dd67e0b949b069]
link Platform to Transaction--><path d="M625.1679,476.0105 C676.1483,505.0077 749.5275,538 819.5,538 C819.5,538 819.5,538 1508.5,538 C1666.0257,538 1711.0974,295.3957 1723.2683,189.4868 " fill="none" id="Platform-&gt;Transaction" style="stroke: #A80036; stroke-width: 1.0;"/><polygon fill="#A80036" points="1723.857,184.2417,1718.8781,192.7394,1723.2993,189.2105,1726.8281,193.6317,1723.857,184.2417" style="stroke: #A80036; stroke-width: 1.0;"/><text fill="#000000" font-family="sans-serif" font-size="13" lengthAdjust="spacingAndGlyphs" textLength="23" x="1155" y="534.0669">has</text><text fill="#000000" font-family="sans-serif" font-size="13" lengthAdjust="spacingAndGlyphs" textLength="8" x="627.4645" y="496.4199">1</text><text fill="#000000" font-family="sans-serif" font-size="13" lengthAdjust="spacingAndGlyphs" textLength="7" x="1715.7186" y="204.3731">*</text><!--MD5=[49ce8ea186f6865d1a47f1469d32fd2e]
link RegisterFreelancer to Freelancer--><path d="M895.2218,418.3223 C919.1627,408.9391 946.7915,398.1105 975.0624,387.0303 " fill="none" id="RegisterFreelancer-&gt;Freelancer" style="stroke: #A80036; stroke-width: 1.0;"/><polygon fill="#A80036" points="979.9748,385.105,970.1358,384.665,975.3196,386.9295,973.055,392.1134,979.9748,385.105" style="stroke: #A80036; stroke-width: 1.0;"/><text fill="#000000" font-family="sans-serif" font-size="13" lengthAdjust="spacingAndGlyphs" textLength="23" x="926" y="396.0669">has</text><text fill="#000000" font-family="sans-serif" font-size="13" lengthAdjust="spacingAndGlyphs" textLength="8" x="903.0694" y="428.2318">1</text><text fill="#000000" font-family="sans-serif" font-size="13" lengthAdjust="spacingAndGlyphs" textLength="7" x="964.9581" y="400.5655">*</text><!--MD5=[a1bcd49bda1d48eee0717f7ad534cdd6]
link Freelancer to Payment--><path d="M1353.0113,238.3771 C1381.293,227.2133 1409.004,216.2747 1433.0158,206.7964 " fill="none" id="Freelancer-&gt;Payment" style="stroke: #A80036; stroke-width: 1.0;"/><polygon fill="#A80036" points="1437.7679,204.9206,1427.9278,204.5046,1433.1171,206.7565,1430.8652,211.9458,1437.7679,204.9206" style="stroke: #A80036; stroke-width: 1.0;"/><text fill="#000000" font-family="sans-serif" font-size="13" lengthAdjust="spacingAndGlyphs" textLength="23" x="1384" y="213.0669">has</text><text fill="#000000" font-family="sans-serif" font-size="13" lengthAdjust="spacingAndGlyphs" textLength="8" x="1361.0485" y="247.6475">1</text><text fill="#000000" font-family="sans-serif" font-size="13" lengthAdjust="spacingAndGlyphs" textLength="16" x="1414.0177" y="220.4604">1..</text><!--MD5=[c4629210b2ba88e64afbee18491f07dd]
link Payment to Transaction--><path d="M1579.3006,165.3615 C1604.8411,161.1631 1633.6052,156.4348 1658.9498,152.2685 " fill="none" id="Payment-&gt;Transaction" style="stroke: #A80036; stroke-width: 1.0;"/><polygon fill="#A80036" points="1663.9712,151.4431,1654.4415,148.9562,1659.0374,152.2543,1655.7393,156.8502,1663.9712,151.4431" style="stroke: #A80036; stroke-width: 1.0;"/><text fill="#000000" font-family="sans-serif" font-size="13" lengthAdjust="spacingAndGlyphs" textLength="23" x="1610" y="153.0669">has</text><text fill="#000000" font-family="sans-serif" font-size="13" lengthAdjust="spacingAndGlyphs" textLength="8" x="1587.0144" y="176.9871">1</text><text fill="#000000" font-family="sans-serif" font-size="13" lengthAdjust="spacingAndGlyphs" textLength="23" x="1633.2339" y="165.3459">1..*</text><!--MD5=[590de1eb4160e0577c453d6e7f1b2aac]
link Transaction to TaskExecution--><path d="M1791.2753,120.4831 C1822.7073,110.3713 1861.1503,98.004 1895.5155,86.9485 " fill="none" id="Transaction-&gt;TaskExecution" style="stroke: #A80036; stroke-width: 1.0;"/><polygon fill="#A80036" points="1900.5549,85.3273,1890.7623,84.2761,1895.7952,86.8587,1893.2126,91.8916,1900.5549,85.3273" style="stroke: #A80036; stroke-width: 1.0;"/><text fill="#000000" font-family="sans-serif" font-size="13" lengthAdjust="spacingAndGlyphs" textLength="48" x="1822" y="94.0669">creates</text><text fill="#000000" font-family="sans-serif" font-size="13" lengthAdjust="spacingAndGlyphs" textLength="8" x="1799.1118" y="131.0287">1</text><text fill="#000000" font-family="sans-serif" font-size="13" lengthAdjust="spacingAndGlyphs" textLength="8" x="1884.9112" y="100.3835">1</text><!--MD5=[e17e41adb2da12e74db4b1433b6a1ff4]
@startuml
skinparam classAttributeIconSize 0
left to right direction

class WatchStatisticsUI {
}

class WatchStatisticsController {
  +getOverallStatistics()
}
class Platform {
    +getRegisterFreelancer()
    +getOrgaanizacaoByEmail(email)
    +getListTransactions()
}

class RegisterFreelancer{
  +getListFreelancer()
  +getFreelancers()
}

class Payment {
  -double valueE
  -double valueC
  +getListTransactions()
}

class Freelancer{
  -String freeID
  -String name
  -String levelExp
  -String email
  -String nif
  -String iban
  -String country
  +getListPayments()
  +averageOfEachFreelancer(PaymentTotal)
  +calculateDeviation(averageFreel,payment)
  +calculateDeviation(sumAllPaymentsDeviation)
  +deviationDelay(delayTask,averageDelayOfFreelancer)
  +calculateDeviationOfAllFreelancers(sumDelayOfAllFreelancers)
}

class TaskExecution {
  -Data endDate
  -double delay
  -String descriptionOfQuality
  +getDelayByTask(task)
}

class Transaction {
  +getPaymentValue() 
  +getTask()
  +getFreelancer()
}

class Organization{
  -String nome
  -String email
  -String nif
  +getTaskList()
  }



WatchStatisticsUI ..> WatchStatisticsController
WatchStatisticsController ..> Platform
WatchStatisticsController ..> Payment
WatchStatisticsController ..> Transaction
WatchStatisticsController ..> Freelancer
WatchStatisticsController ..> TaskExecution
WatchStatisticsController ..> Organization

Platform "1" - -> "1" RegisterFreelancer: has
Platform "1" - -> "*" Organization: has
Platform "1" - -> "*" Transaction: has
RegisterFreelancer "1" - -> "*" Freelancer: has
Freelancer "1" - -> "1.." Payment: has
Payment "1" - -> "1..*" Transaction: has
Transaction "1" - -> "1" TaskExecution: creates
@enduml

PlantUML version 1.2019.12(Sun Nov 03 10:24:54 UTC 2019)
(GPL source distribution)
Java Runtime: OpenJDK Runtime Environment
JVM: OpenJDK 64-Bit Server VM
Java Version: 1.8.0_232-heroku-b09
Operating System: Linux
Default Encoding: UTF-8
Language: en
Country: US
--></g></svg>