<?xml version="1.0" encoding="UTF-8" standalone="no"?><svg xmlns="http://www.w3.org/2000/svg" xmlns:xlink="http://www.w3.org/1999/xlink" contentScriptType="application/ecmascript" contentStyleType="text/css" height="485px" preserveAspectRatio="none" style="width:1642px;height:485px;" version="1.1" viewBox="0 0 1642 485" width="1642px" zoomAndPan="magnify"><defs><filter height="300%" id="fh5qclitm7lkb" width="300%" x="-1" y="-1"><feGaussianBlur result="blurOut" stdDeviation="2.0"/><feColorMatrix in="blurOut" result="blurOut2" type="matrix" values="0 0 0 0 0 0 0 0 0 0 0 0 0 0 0 0 0 0 .4 0"/><feOffset dx="4.0" dy="4.0" in="blurOut2" result="blurOut3"/><feBlend in="SourceGraphic" in2="blurOut3" mode="normal"/></filter></defs><g><!--MD5=[99b8db98afdc2c8404e39242ef4c1e65]
class Platform--><rect fill="#FEFECE" filter="url(#fh5qclitm7lkb)" height="40" id="Platform" style="stroke: #A80036; stroke-width: 1.5;" width="84" x="6" y="238"/><ellipse cx="21" cy="254" fill="#ADD1B2" rx="11" ry="11" style="stroke: #A80036; stroke-width: 1.0;"/><path d="M23.9688,259.6406 Q23.3906,259.9375 22.75,260.0859 Q22.1094,260.2344 21.4063,260.2344 Q18.9063,260.2344 17.5859,258.5859 Q16.2656,256.9375 16.2656,253.8125 Q16.2656,250.6875 17.5859,249.0313 Q18.9063,247.375 21.4063,247.375 Q22.1094,247.375 22.7578,247.5313 Q23.4063,247.6875 23.9688,247.9844 L23.9688,250.7031 Q23.3438,250.125 22.75,249.8516 Q22.1563,249.5781 21.5313,249.5781 Q20.1875,249.5781 19.5,250.6484 Q18.8125,251.7188 18.8125,253.8125 Q18.8125,255.9063 19.5,256.9766 Q20.1875,258.0469 21.5313,258.0469 Q22.1563,258.0469 22.75,257.7734 Q23.3438,257.5 23.9688,256.9219 L23.9688,259.6406 Z "/><text fill="#000000" font-family="sans-serif" font-size="12" lengthAdjust="spacingAndGlyphs" textLength="52" x="35" y="258.1543">Platform</text><line style="stroke: #A80036; stroke-width: 1.5;" x1="7" x2="89" y1="270" y2="270"/><!--MD5=[1f687b5315377fe49fca59b457947463]
class Freelancer--><rect fill="#FEFECE" filter="url(#fh5qclitm7lkb)" height="129.6328" id="Freelancer" style="stroke: #A80036; stroke-width: 1.5;" width="100" x="1278" y="153"/><ellipse cx="1293.45" cy="169" fill="#ADD1B2" rx="11" ry="11" style="stroke: #A80036; stroke-width: 1.0;"/><path d="M1296.4188,174.6406 Q1295.8406,174.9375 1295.2,175.0859 Q1294.5594,175.2344 1293.8563,175.2344 Q1291.3563,175.2344 1290.0359,173.5859 Q1288.7156,171.9375 1288.7156,168.8125 Q1288.7156,165.6875 1290.0359,164.0313 Q1291.3563,162.375 1293.8563,162.375 Q1294.5594,162.375 1295.2078,162.5313 Q1295.8563,162.6875 1296.4188,162.9844 L1296.4188,165.7031 Q1295.7938,165.125 1295.2,164.8516 Q1294.6063,164.5781 1293.9813,164.5781 Q1292.6375,164.5781 1291.95,165.6484 Q1291.2625,166.7188 1291.2625,168.8125 Q1291.2625,170.9063 1291.95,171.9766 Q1292.6375,173.0469 1293.9813,173.0469 Q1294.6063,173.0469 1295.2,172.7734 Q1295.7938,172.5 1296.4188,171.9219 L1296.4188,174.6406 Z "/><text fill="#000000" font-family="sans-serif" font-size="12" lengthAdjust="spacingAndGlyphs" textLength="67" x="1307.55" y="173.1543">Freelancer</text><line style="stroke: #A80036; stroke-width: 1.5;" x1="1279" x2="1377" y1="185" y2="185"/><text fill="#000000" font-family="sans-serif" font-size="11" lengthAdjust="spacingAndGlyphs" textLength="76" x="1284" y="199.2104">-String freeID</text><text fill="#000000" font-family="sans-serif" font-size="11" lengthAdjust="spacingAndGlyphs" textLength="74" x="1284" y="212.0151">-String name</text><text fill="#000000" font-family="sans-serif" font-size="11" lengthAdjust="spacingAndGlyphs" textLength="88" x="1284" y="224.8198">-String levelExp</text><text fill="#000000" font-family="sans-serif" font-size="11" lengthAdjust="spacingAndGlyphs" textLength="73" x="1284" y="237.6245">-String email</text><text fill="#000000" font-family="sans-serif" font-size="11" lengthAdjust="spacingAndGlyphs" textLength="56" x="1284" y="250.4292">-String nif</text><text fill="#000000" font-family="sans-serif" font-size="11" lengthAdjust="spacingAndGlyphs" textLength="66" x="1284" y="263.2339">-String iban</text><text fill="#000000" font-family="sans-serif" font-size="11" lengthAdjust="spacingAndGlyphs" textLength="84" x="1284" y="276.0386">-String country</text><!--MD5=[86c7c362de55a38b660185a1328fe18d]
class Organization--><rect fill="#FEFECE" filter="url(#fh5qclitm7lkb)" height="78.4141" id="Organization" style="stroke: #A80036; stroke-width: 1.5;" width="110" x="257" y="219"/><ellipse cx="272" cy="235" fill="#ADD1B2" rx="11" ry="11" style="stroke: #A80036; stroke-width: 1.0;"/><path d="M274.9688,240.6406 Q274.3906,240.9375 273.75,241.0859 Q273.1094,241.2344 272.4063,241.2344 Q269.9063,241.2344 268.5859,239.5859 Q267.2656,237.9375 267.2656,234.8125 Q267.2656,231.6875 268.5859,230.0313 Q269.9063,228.375 272.4063,228.375 Q273.1094,228.375 273.7578,228.5313 Q274.4063,228.6875 274.9688,228.9844 L274.9688,231.7031 Q274.3438,231.125 273.75,230.8516 Q273.1563,230.5781 272.5313,230.5781 Q271.1875,230.5781 270.5,231.6484 Q269.8125,232.7188 269.8125,234.8125 Q269.8125,236.9063 270.5,237.9766 Q271.1875,239.0469 272.5313,239.0469 Q273.1563,239.0469 273.75,238.7734 Q274.3438,238.5 274.9688,237.9219 L274.9688,240.6406 Z "/><text fill="#000000" font-family="sans-serif" font-size="12" lengthAdjust="spacingAndGlyphs" textLength="78" x="286" y="239.1543">Organization</text><line style="stroke: #A80036; stroke-width: 1.5;" x1="258" x2="366" y1="251" y2="251"/><text fill="#000000" font-family="sans-serif" font-size="11" lengthAdjust="spacingAndGlyphs" textLength="74" x="263" y="265.2104">-String name</text><text fill="#000000" font-family="sans-serif" font-size="11" lengthAdjust="spacingAndGlyphs" textLength="73" x="263" y="278.0151">-String email</text><text fill="#000000" font-family="sans-serif" font-size="11" lengthAdjust="spacingAndGlyphs" textLength="56" x="263" y="290.8198">-String nif</text><!--MD5=[f483d6e5de34a60207b28a5563be5e8b]
class Collaborator--><rect fill="#FEFECE" filter="url(#fh5qclitm7lkb)" height="78.4141" id="Collaborator" style="stroke: #A80036; stroke-width: 1.5;" width="109" x="465" y="220"/><ellipse cx="480" cy="236" fill="#ADD1B2" rx="11" ry="11" style="stroke: #A80036; stroke-width: 1.0;"/><path d="M482.9688,241.6406 Q482.3906,241.9375 481.75,242.0859 Q481.1094,242.2344 480.4063,242.2344 Q477.9063,242.2344 476.5859,240.5859 Q475.2656,238.9375 475.2656,235.8125 Q475.2656,232.6875 476.5859,231.0313 Q477.9063,229.375 480.4063,229.375 Q481.1094,229.375 481.7578,229.5313 Q482.4063,229.6875 482.9688,229.9844 L482.9688,232.7031 Q482.3438,232.125 481.75,231.8516 Q481.1563,231.5781 480.5313,231.5781 Q479.1875,231.5781 478.5,232.6484 Q477.8125,233.7188 477.8125,235.8125 Q477.8125,237.9063 478.5,238.9766 Q479.1875,240.0469 480.5313,240.0469 Q481.1563,240.0469 481.75,239.7734 Q482.3438,239.5 482.9688,238.9219 L482.9688,241.6406 Z "/><text fill="#000000" font-family="sans-serif" font-size="12" lengthAdjust="spacingAndGlyphs" textLength="77" x="494" y="240.1543">Collaborator</text><line style="stroke: #A80036; stroke-width: 1.5;" x1="466" x2="573" y1="252" y2="252"/><text fill="#000000" font-family="sans-serif" font-size="11" lengthAdjust="spacingAndGlyphs" textLength="82" x="471" y="266.2104">-String nameC</text><text fill="#000000" font-family="sans-serif" font-size="11" lengthAdjust="spacingAndGlyphs" textLength="81" x="471" y="279.0151">-String emailC</text><text fill="#000000" font-family="sans-serif" font-size="11" lengthAdjust="spacingAndGlyphs" textLength="64" x="471" y="291.8198">-String role</text><!--MD5=[b34797a66dc35cbf1d65f7e3ca75530e]
class Task--><rect fill="#FEFECE" filter="url(#fh5qclitm7lkb)" height="129.6328" id="Task" style="stroke: #A80036; stroke-width: 1.5;" width="129" x="1000" y="153"/><ellipse cx="1045.75" cy="169" fill="#ADD1B2" rx="11" ry="11" style="stroke: #A80036; stroke-width: 1.0;"/><path d="M1048.7188,174.6406 Q1048.1406,174.9375 1047.5,175.0859 Q1046.8594,175.2344 1046.1563,175.2344 Q1043.6563,175.2344 1042.3359,173.5859 Q1041.0156,171.9375 1041.0156,168.8125 Q1041.0156,165.6875 1042.3359,164.0313 Q1043.6563,162.375 1046.1563,162.375 Q1046.8594,162.375 1047.5078,162.5313 Q1048.1563,162.6875 1048.7188,162.9844 L1048.7188,165.7031 Q1048.0938,165.125 1047.5,164.8516 Q1046.9063,164.5781 1046.2813,164.5781 Q1044.9375,164.5781 1044.25,165.6484 Q1043.5625,166.7188 1043.5625,168.8125 Q1043.5625,170.9063 1044.25,171.9766 Q1044.9375,173.0469 1046.2813,173.0469 Q1046.9063,173.0469 1047.5,172.7734 Q1048.0938,172.5 1048.7188,171.9219 L1048.7188,174.6406 Z "/><text fill="#000000" font-family="sans-serif" font-size="12" lengthAdjust="spacingAndGlyphs" textLength="29" x="1066.25" y="173.1543">Task</text><line style="stroke: #A80036; stroke-width: 1.5;" x1="1001" x2="1128" y1="185" y2="185"/><text fill="#000000" font-family="sans-serif" font-size="11" lengthAdjust="spacingAndGlyphs" textLength="79" x="1006" y="199.2104">-String idTask</text><text fill="#000000" font-family="sans-serif" font-size="11" lengthAdjust="spacingAndGlyphs" textLength="105" x="1006" y="212.0151">-String description</text><text fill="#000000" font-family="sans-serif" font-size="11" lengthAdjust="spacingAndGlyphs" textLength="74" x="1006" y="224.8198">-int timeTask</text><text fill="#000000" font-family="sans-serif" font-size="11" lengthAdjust="spacingAndGlyphs" textLength="97" x="1006" y="237.6245">-double costHour</text><text fill="#000000" font-family="sans-serif" font-size="11" lengthAdjust="spacingAndGlyphs" textLength="117" x="1006" y="250.4292">-String taskCategory</text><text fill="#000000" font-family="sans-serif" font-size="11" lengthAdjust="spacingAndGlyphs" textLength="97" x="1006" y="263.2339">-boolean isPayed</text><text fill="#000000" font-family="sans-serif" font-size="11" lengthAdjust="spacingAndGlyphs" textLength="110" x="1006" y="276.0386">-boolean isFinished</text><!--MD5=[b24ed8d4ae84bae9290d9aab401637c7]
class Manager--><rect fill="#FEFECE" filter="url(#fh5qclitm7lkb)" height="78.4141" id="Manager" style="stroke: #A80036; stroke-width: 1.5;" width="95" x="472" y="334"/><ellipse cx="490.6" cy="350" fill="#ADD1B2" rx="11" ry="11" style="stroke: #A80036; stroke-width: 1.0;"/><path d="M493.5688,355.6406 Q492.9906,355.9375 492.35,356.0859 Q491.7094,356.2344 491.0063,356.2344 Q488.5063,356.2344 487.1859,354.5859 Q485.8656,352.9375 485.8656,349.8125 Q485.8656,346.6875 487.1859,345.0313 Q488.5063,343.375 491.0063,343.375 Q491.7094,343.375 492.3578,343.5313 Q493.0063,343.6875 493.5688,343.9844 L493.5688,346.7031 Q492.9438,346.125 492.35,345.8516 Q491.7563,345.5781 491.1313,345.5781 Q489.7875,345.5781 489.1,346.6484 Q488.4125,347.7188 488.4125,349.8125 Q488.4125,351.9063 489.1,352.9766 Q489.7875,354.0469 491.1313,354.0469 Q491.7563,354.0469 492.35,353.7734 Q492.9438,353.5 493.5688,352.9219 L493.5688,355.6406 Z "/><text fill="#000000" font-family="sans-serif" font-size="12" lengthAdjust="spacingAndGlyphs" textLength="55" x="505.4" y="354.1543">Manager</text><line style="stroke: #A80036; stroke-width: 1.5;" x1="473" x2="566" y1="366" y2="366"/><text fill="#000000" font-family="sans-serif" font-size="11" lengthAdjust="spacingAndGlyphs" textLength="83" x="478" y="380.2104">-String nameM</text><text fill="#000000" font-family="sans-serif" font-size="11" lengthAdjust="spacingAndGlyphs" textLength="82" x="478" y="393.0151">-String emailM</text><text fill="#000000" font-family="sans-serif" font-size="11" lengthAdjust="spacingAndGlyphs" textLength="64" x="478" y="405.8198">-String role</text><!--MD5=[3fd616f346a44cd59a91eb10b19e157c]
class User--><rect fill="#FEFECE" filter="url(#fh5qclitm7lkb)" height="40" id="User" style="stroke: #A80036; stroke-width: 1.5;" width="61" x="751" y="434"/><ellipse cx="766" cy="450" fill="#ADD1B2" rx="11" ry="11" style="stroke: #A80036; stroke-width: 1.0;"/><path d="M768.9688,455.6406 Q768.3906,455.9375 767.75,456.0859 Q767.1094,456.2344 766.4063,456.2344 Q763.9063,456.2344 762.5859,454.5859 Q761.2656,452.9375 761.2656,449.8125 Q761.2656,446.6875 762.5859,445.0313 Q763.9063,443.375 766.4063,443.375 Q767.1094,443.375 767.7578,443.5313 Q768.4063,443.6875 768.9688,443.9844 L768.9688,446.7031 Q768.3438,446.125 767.75,445.8516 Q767.1563,445.5781 766.5313,445.5781 Q765.1875,445.5781 764.5,446.6484 Q763.8125,447.7188 763.8125,449.8125 Q763.8125,451.9063 764.5,452.9766 Q765.1875,454.0469 766.5313,454.0469 Q767.1563,454.0469 767.75,453.7734 Q768.3438,453.5 768.9688,452.9219 L768.9688,455.6406 Z "/><text fill="#000000" font-family="sans-serif" font-size="12" lengthAdjust="spacingAndGlyphs" textLength="29" x="780" y="454.1543">User</text><line style="stroke: #A80036; stroke-width: 1.5;" x1="752" x2="811" y1="466" y2="466"/><!--MD5=[4045d6f6a06909f8c0c16b57fdb55c63]
class TransactionExecution--><rect fill="#FEFECE" filter="url(#fh5qclitm7lkb)" height="91.2188" id="TransactionExecution" style="stroke: #A80036; stroke-width: 1.5;" width="169" x="697" y="307.5"/><ellipse cx="712.9" cy="323.5" fill="#ADD1B2" rx="11" ry="11" style="stroke: #A80036; stroke-width: 1.0;"/><path d="M715.8688,329.1406 Q715.2906,329.4375 714.65,329.5859 Q714.0094,329.7344 713.3063,329.7344 Q710.8063,329.7344 709.4859,328.0859 Q708.1656,326.4375 708.1656,323.3125 Q708.1656,320.1875 709.4859,318.5313 Q710.8063,316.875 713.3063,316.875 Q714.0094,316.875 714.6578,317.0313 Q715.3063,317.1875 715.8688,317.4844 L715.8688,320.2031 Q715.2438,319.625 714.65,319.3516 Q714.0563,319.0781 713.4313,319.0781 Q712.0875,319.0781 711.4,320.1484 Q710.7125,321.2188 710.7125,323.3125 Q710.7125,325.4063 711.4,326.4766 Q712.0875,327.5469 713.4313,327.5469 Q714.0563,327.5469 714.65,327.2734 Q715.2438,327 715.8688,326.4219 L715.8688,329.1406 Z "/><text fill="#000000" font-family="sans-serif" font-size="12" lengthAdjust="spacingAndGlyphs" textLength="135" x="727.1" y="327.6543">TransactionExecution</text><line style="stroke: #A80036; stroke-width: 1.5;" x1="698" x2="865" y1="339.5" y2="339.5"/><text fill="#000000" font-family="sans-serif" font-size="11" lengthAdjust="spacingAndGlyphs" textLength="81" x="703" y="353.7104">-Date endDate</text><text fill="#000000" font-family="sans-serif" font-size="11" lengthAdjust="spacingAndGlyphs" textLength="76" x="703" y="366.5151">-double delay</text><text fill="#000000" font-family="sans-serif" font-size="11" lengthAdjust="spacingAndGlyphs" textLength="157" x="703" y="379.3198">-String descriptionOfQuality</text><text fill="#000000" font-family="sans-serif" font-size="11" lengthAdjust="spacingAndGlyphs" textLength="63" x="703" y="392.1245">-int transID</text><!--MD5=[0f39e4cb6f03951afbf6d14bd2505654]
class Address--><rect fill="#FEFECE" filter="url(#fh5qclitm7lkb)" height="78.4141" id="Address" style="stroke: #A80036; stroke-width: 1.5;" width="125" x="1506" y="179"/><ellipse cx="1539.9" cy="195" fill="#ADD1B2" rx="11" ry="11" style="stroke: #A80036; stroke-width: 1.0;"/><path d="M1542.8688,200.6406 Q1542.2906,200.9375 1541.65,201.0859 Q1541.0094,201.2344 1540.3063,201.2344 Q1537.8063,201.2344 1536.4859,199.5859 Q1535.1656,197.9375 1535.1656,194.8125 Q1535.1656,191.6875 1536.4859,190.0313 Q1537.8063,188.375 1540.3063,188.375 Q1541.0094,188.375 1541.6578,188.5313 Q1542.3063,188.6875 1542.8688,188.9844 L1542.8688,191.7031 Q1542.2438,191.125 1541.65,190.8516 Q1541.0563,190.5781 1540.4313,190.5781 Q1539.0875,190.5781 1538.4,191.6484 Q1537.7125,192.7188 1537.7125,194.8125 Q1537.7125,196.9063 1538.4,197.9766 Q1539.0875,199.0469 1540.4313,199.0469 Q1541.0563,199.0469 1541.65,198.7734 Q1542.2438,198.5 1542.8688,197.9219 L1542.8688,200.6406 Z "/><text fill="#000000" font-family="sans-serif" font-size="12" lengthAdjust="spacingAndGlyphs" textLength="51" x="1558.1" y="199.1543">Address</text><line style="stroke: #A80036; stroke-width: 1.5;" x1="1507" x2="1630" y1="211" y2="211"/><text fill="#000000" font-family="sans-serif" font-size="11" lengthAdjust="spacingAndGlyphs" textLength="76" x="1512" y="225.2104">-String street</text><text fill="#000000" font-family="sans-serif" font-size="11" lengthAdjust="spacingAndGlyphs" textLength="113" x="1512" y="238.0151">-String doorNumber</text><text fill="#000000" font-family="sans-serif" font-size="11" lengthAdjust="spacingAndGlyphs" textLength="81" x="1512" y="250.8198">-String locality</text><!--MD5=[764fca796ce7f635542948d8fc39db5e]
class Payment--><rect fill="#FEFECE" filter="url(#fh5qclitm7lkb)" height="65.6094" id="Payment" style="stroke: #A80036; stroke-width: 1.5;" width="96" x="1520.5" y="341"/><ellipse cx="1540" cy="357" fill="#ADD1B2" rx="11" ry="11" style="stroke: #A80036; stroke-width: 1.0;"/><path d="M1542.9688,362.6406 Q1542.3906,362.9375 1541.75,363.0859 Q1541.1094,363.2344 1540.4063,363.2344 Q1537.9063,363.2344 1536.5859,361.5859 Q1535.2656,359.9375 1535.2656,356.8125 Q1535.2656,353.6875 1536.5859,352.0313 Q1537.9063,350.375 1540.4063,350.375 Q1541.1094,350.375 1541.7578,350.5313 Q1542.4063,350.6875 1542.9688,350.9844 L1542.9688,353.7031 Q1542.3438,353.125 1541.75,352.8516 Q1541.1563,352.5781 1540.5313,352.5781 Q1539.1875,352.5781 1538.5,353.6484 Q1537.8125,354.7188 1537.8125,356.8125 Q1537.8125,358.9063 1538.5,359.9766 Q1539.1875,361.0469 1540.5313,361.0469 Q1541.1563,361.0469 1541.75,360.7734 Q1542.3438,360.5 1542.9688,359.9219 L1542.9688,362.6406 Z "/><text fill="#000000" font-family="sans-serif" font-size="12" lengthAdjust="spacingAndGlyphs" textLength="54" x="1555" y="361.1543">Payment</text><line style="stroke: #A80036; stroke-width: 1.5;" x1="1521.5" x2="1615.5" y1="373" y2="373"/><text fill="#000000" font-family="sans-serif" font-size="11" lengthAdjust="spacingAndGlyphs" textLength="83" x="1526.5" y="387.2104">-double valueE</text><text fill="#000000" font-family="sans-serif" font-size="11" lengthAdjust="spacingAndGlyphs" textLength="84" x="1526.5" y="400.0151">-double valueC</text><!--MD5=[a1bcd49bda1d48eee0717f7ad534cdd6]
link Freelancer to Payment--><path d="M1378.1239,250.5128 C1419.9736,277.6585 1479.2418,316.1028 1520.4904,342.8586 " fill="none" id="Freelancer-Payment" style="stroke: #A80036; stroke-width: 1.0;"/><text fill="#000000" font-family="sans-serif" font-size="13" lengthAdjust="spacingAndGlyphs" textLength="53" x="1409" y="268.0669">receives</text><polygon fill="#000000" points="1465,262.0664,1471,265.0664,1465,268.0664,1465,262.0664" style="stroke: #000000; stroke-width: 1.0;"/><text fill="#000000" font-family="sans-serif" font-size="13" lengthAdjust="spacingAndGlyphs" textLength="8" x="1386.0733" y="268.4933">1</text><text fill="#000000" font-family="sans-serif" font-size="13" lengthAdjust="spacingAndGlyphs" textLength="23" x="1489.4938" y="351.7838">1..*</text><!--MD5=[874150c88719dac3f651931978d26083]
link Freelancer to Address--><path d="M1378.1239,218 C1415.1554,218 1465.8254,218 1505.5808,218 " fill="none" id="Freelancer-Address" style="stroke: #A80036; stroke-width: 1.0;"/><text fill="#000000" font-family="sans-serif" font-size="13" lengthAdjust="spacingAndGlyphs" textLength="23" x="1424" y="214.0669">has</text><polygon fill="#000000" points="1450,208.0664,1456,211.0664,1450,214.0664,1450,208.0664" style="stroke: #000000; stroke-width: 1.0;"/><text fill="#000000" font-family="sans-serif" font-size="13" lengthAdjust="spacingAndGlyphs" textLength="8" x="1386.0733" y="231.2052">1</text><text fill="#000000" font-family="sans-serif" font-size="13" lengthAdjust="spacingAndGlyphs" textLength="8" x="1489.8433" y="230.9178">1</text><!--MD5=[8853e9d83a8841c20c4ef075af762602]
link Task to Freelancer--><path d="M1129.2968,218 C1175.164,218 1235.7763,218 1277.9442,218 " fill="none" id="Task-Freelancer" style="stroke: #A80036; stroke-width: 1.0;"/><text fill="#000000" font-family="sans-serif" font-size="13" lengthAdjust="spacingAndGlyphs" textLength="56" x="1174.5" y="214.0669">made by</text><polygon fill="#000000" points="1233.5,208.0664,1239.5,211.0664,1233.5,214.0664,1233.5,208.0664" style="stroke: #000000; stroke-width: 1.0;"/><text fill="#000000" font-family="sans-serif" font-size="13" lengthAdjust="spacingAndGlyphs" textLength="23" x="1137.1649" y="230.8661">1..*</text><text fill="#000000" font-family="sans-serif" font-size="13" lengthAdjust="spacingAndGlyphs" textLength="8" x="1262.0048" y="231.2052">1</text><!--MD5=[22697d4d863c2e08ab1d60ca0d61f844]
link Platform to Freelancer--><path d="M58.2901,237.7304 C88.6707,181.0429 183.9304,25 312,25 C312,25 312,25 1064.5,25 C1153.1016,25 1231.7084,96.8981 1279.5143,152.9281 " fill="none" id="Platform-Freelancer" style="stroke: #A80036; stroke-width: 1.0;"/><text fill="#000000" font-family="sans-serif" font-size="13" lengthAdjust="spacingAndGlyphs" textLength="23" x="617.5" y="21.0669">has</text><polygon fill="#000000" points="643.5,15.0664,649.5,18.0664,643.5,21.0664,643.5,15.0664" style="stroke: #000000; stroke-width: 1.0;"/><text fill="#000000" font-family="sans-serif" font-size="13" lengthAdjust="spacingAndGlyphs" textLength="8" x="52.0592" y="227.0058">1</text><text fill="#000000" font-family="sans-serif" font-size="13" lengthAdjust="spacingAndGlyphs" textLength="23" x="1249.9534" y="142.0848">1..*</text><!--MD5=[fe099013e52a8d16c3af5f33501aec65]
link Platform to Manager--><path d="M90.117,275.5187 C131.8281,292.2432 197.851,317.0469 257,332 C330.7857,350.6533 418.5049,362.2936 471.5444,368.2121 " fill="none" id="Platform-Manager" style="stroke: #A80036; stroke-width: 1.0;"/><text fill="#000000" font-family="sans-serif" font-size="13" lengthAdjust="spacingAndGlyphs" textLength="94" x="258.5" y="328.0669">sends email to</text><polygon fill="#000000" points="355.5,322.0664,361.5,325.0664,355.5,328.0664,355.5,322.0664" style="stroke: #000000; stroke-width: 1.0;"/><text fill="#000000" font-family="sans-serif" font-size="13" lengthAdjust="spacingAndGlyphs" textLength="8" x="98.0434" y="291.8971">1</text><text fill="#000000" font-family="sans-serif" font-size="13" lengthAdjust="spacingAndGlyphs" textLength="8" x="455.9134" y="380.6567">1</text><!--MD5=[7640e466c042ba2d6f9c19c816f7f0fc]
link Platform to Organization--><path d="M90.1235,258 C135.2517,258 207.0707,258 256.716,258 " fill="none" id="Platform-Organization" style="stroke: #A80036; stroke-width: 1.0;"/><text fill="#000000" font-family="sans-serif" font-size="13" lengthAdjust="spacingAndGlyphs" textLength="92" x="121" y="254.0669">has registered</text><polygon fill="#000000" points="216,248.0664,222,251.0664,216,254.0664,216,248.0664" style="stroke: #000000; stroke-width: 1.0;"/><text fill="#000000" font-family="sans-serif" font-size="13" lengthAdjust="spacingAndGlyphs" textLength="8" x="98.051" y="271.3674">1</text><text fill="#000000" font-family="sans-serif" font-size="13" lengthAdjust="spacingAndGlyphs" textLength="23" x="225.9941" y="270.9178">1..*</text><!--MD5=[6eb6e197a729f6ec2412743e0bdbca1d]
link Manager to User--><path d="M567.1028,401.4253 C578.8644,407.5788 591.6421,413.5628 604,418 C653.8651,435.9045 714.9861,445.8358 750.9424,450.533 " fill="none" id="Manager-User" style="stroke: #A80036; stroke-width: 1.0;"/><text fill="#000000" font-family="sans-serif" font-size="13" lengthAdjust="spacingAndGlyphs" textLength="46" x="606" y="414.0669">acts as</text><polygon fill="#000000" points="655,408.0664,661,411.0664,655,414.0664,655,408.0664" style="stroke: #000000; stroke-width: 1.0;"/><text fill="#000000" font-family="sans-serif" font-size="13" lengthAdjust="spacingAndGlyphs" textLength="8" x="575.0045" y="418.9717">1</text><text fill="#000000" font-family="sans-serif" font-size="13" lengthAdjust="spacingAndGlyphs" textLength="8" x="734.951" y="463.5479">1</text><!--MD5=[bc039f41cf0b27fadee5cae63fc6e1fe]
link Organization to Manager--><path d="M367.0614,288.516 C399.7189,306.6153 440.7,329.3277 471.9441,346.6437 " fill="none" id="Organization-Manager" style="stroke: #A80036; stroke-width: 1.0;"/><text fill="#000000" font-family="sans-serif" font-size="13" lengthAdjust="spacingAndGlyphs" textLength="23" x="398" y="301.0669">has</text><polygon fill="#000000" points="424,295.0664,430,298.0664,424,301.0664,424,295.0664" style="stroke: #000000; stroke-width: 1.0;"/><text fill="#000000" font-family="sans-serif" font-size="13" lengthAdjust="spacingAndGlyphs" textLength="8" x="374.9978" y="305.6724">1</text><text fill="#000000" font-family="sans-serif" font-size="13" lengthAdjust="spacingAndGlyphs" textLength="8" x="456.0496" y="355.8017">1</text><!--MD5=[45817597bcd7048073a670d966abfd17]
link Organization to Collaborator--><path d="M367.0614,258.2654 C397.3176,258.4112 434.7184,258.5914 464.9013,258.7369 " fill="none" id="Organization-Collaborator" style="stroke: #A80036; stroke-width: 1.0;"/><text fill="#000000" font-family="sans-serif" font-size="13" lengthAdjust="spacingAndGlyphs" textLength="23" x="398" y="254.0669">has</text><polygon fill="#000000" points="424,248.0664,430,251.0664,424,254.0664,424,248.0664" style="stroke: #000000; stroke-width: 1.0;"/><text fill="#000000" font-family="sans-serif" font-size="13" lengthAdjust="spacingAndGlyphs" textLength="8" x="374.9978" y="271.3569">1</text><text fill="#000000" font-family="sans-serif" font-size="13" lengthAdjust="spacingAndGlyphs" textLength="8" x="449.0271" y="271.7574">1</text><!--MD5=[4078351e3988aa35b1504a42837f2ab1]
link Organization to Task--><path d="M367.0089,232.5418 C395.5734,220.705 431.4387,207.949 465,202 C681.1856,163.6797 740.0659,185.4927 959,202 C972.3005,203.0028 986.4647,204.7072 999.9547,206.6392 " fill="none" id="Organization-Task" style="stroke: #A80036; stroke-width: 1.0;"/><text fill="#000000" font-family="sans-serif" font-size="13" lengthAdjust="spacingAndGlyphs" textLength="23" x="617.5" y="177.0669">has</text><polygon fill="#000000" points="643.5,171.0664,649.5,174.0664,643.5,177.0664,643.5,171.0664" style="stroke: #000000; stroke-width: 1.0;"/><text fill="#000000" font-family="sans-serif" font-size="13" lengthAdjust="spacingAndGlyphs" textLength="8" x="374.9382" y="242.1767">1</text><text fill="#000000" font-family="sans-serif" font-size="13" lengthAdjust="spacingAndGlyphs" textLength="23" x="969.1125" y="218.3337">1..*</text><!--MD5=[57cb959bbb8d6516b63cb4c28268197c]
link TransactionExecution to Task--><path d="M866.1066,321.0378 C895.8772,309.0506 929.3035,294.7407 959,280 C972.4157,273.3408 986.4433,265.6472 999.7285,257.9941 " fill="none" id="TransactionExecution-Task" style="stroke: #A80036; stroke-width: 1.0;"/><text fill="#000000" font-family="sans-serif" font-size="13" lengthAdjust="spacingAndGlyphs" textLength="23" x="909.5" y="276.0669">has</text><polygon fill="#000000" points="935.5,270.0664,941.5,273.0664,935.5,276.0664,935.5,270.0664" style="stroke: #000000; stroke-width: 1.0;"/><text fill="#000000" font-family="sans-serif" font-size="13" lengthAdjust="spacingAndGlyphs" textLength="8" x="873.9981" y="330.9222">1</text><text fill="#000000" font-family="sans-serif" font-size="13" lengthAdjust="spacingAndGlyphs" textLength="8" x="984.2066" y="275.283">1</text><!--MD5=[fcdd4dc74bc0207eaed6eb249aae2fb9]
link TransactionExecution to Freelancer--><path d="M866.2353,353.9545 C940.0364,352.6279 1049.1491,345.4167 1140,318 C1189.5495,303.0471 1241.1298,274.5417 1277.7009,251.7789 " fill="none" id="TransactionExecution-Freelancer" style="stroke: #A80036; stroke-width: 1.0;"/><text fill="#000000" font-family="sans-serif" font-size="13" lengthAdjust="spacingAndGlyphs" textLength="136" x="990" y="314.0669">related to the work of</text><polygon fill="#000000" points="1129,308.0664,1135,311.0664,1129,314.0664,1129,308.0664" style="stroke: #000000; stroke-width: 1.0;"/><text fill="#000000" font-family="sans-serif" font-size="13" lengthAdjust="spacingAndGlyphs" textLength="8" x="874.1383" y="366.7705">1</text><text fill="#000000" font-family="sans-serif" font-size="13" lengthAdjust="spacingAndGlyphs" textLength="8" x="1262.0651" y="269.6858">1</text><!--MD5=[209a2c3229d506e84b8c72b391c080a4]
link TransactionExecution to Payment--><path d="M866.1986,359.3992 C876.2387,360.0152 886.345,360.5697 896,361 C1129.9022,371.4254 1409.9348,373.4947 1520.3616,373.9019 " fill="none" id="TransactionExecution-Payment" style="stroke: #A80036; stroke-width: 1.0;"/><text fill="#000000" font-family="sans-serif" font-size="13" lengthAdjust="spacingAndGlyphs" textLength="63" x="1171" y="365.0669">originates</text><polygon fill="#000000" points="1237,359.0664,1243,362.0664,1237,365.0664,1237,359.0664" style="stroke: #000000; stroke-width: 1.0;"/><text fill="#000000" font-family="sans-serif" font-size="13" lengthAdjust="spacingAndGlyphs" textLength="8" x="874.0983" y="356.3642">1</text><text fill="#000000" font-family="sans-serif" font-size="13" lengthAdjust="spacingAndGlyphs" textLength="8" x="1504.3779" y="387.1423">1</text><!--MD5=[d2c3650dbd07e79cdad2ffd4a879dec6]
link Collaborator to Freelancer--><path d="M540.4372,219.8884 C554.9887,196.9607 576.6642,169.8554 604,156 C816.6494,48.217 906.7276,85.7972 1140,135 C1189.0487,145.3456 1240.8867,169.3359 1277.6783,188.8775 " fill="none" id="Collaborator-Freelancer" style="stroke: #A80036; stroke-width: 1.0;"/><text fill="#000000" font-family="sans-serif" font-size="13" lengthAdjust="spacingAndGlyphs" textLength="48" x="897" y="85.0669">creates</text><polygon fill="#000000" points="948,79.0664,954,82.0664,948,85.0664,948,79.0664" style="stroke: #000000; stroke-width: 1.0;"/><text fill="#000000" font-family="sans-serif" font-size="13" lengthAdjust="spacingAndGlyphs" textLength="8" x="535.3483" y="208.9198">1</text><text fill="#000000" font-family="sans-serif" font-size="13" lengthAdjust="spacingAndGlyphs" textLength="8" x="1262.0393" y="197.9389">1</text><!--MD5=[f919d21ae7a75ef5ececc535e09d5009]
link Collaborator to Task--><path d="M574.0003,254.9 C675.0953,247.2947 891.2265,231.0353 999.6522,222.8785 " fill="none" id="Collaborator-Task" style="stroke: #A80036; stroke-width: 1.0;"/><text fill="#000000" font-family="sans-serif" font-size="13" lengthAdjust="spacingAndGlyphs" textLength="48" x="751" y="229.0669">creates</text><polygon fill="#000000" points="802,223.0664,808,226.0664,802,229.0664,802,223.0664" style="stroke: #000000; stroke-width: 1.0;"/><text fill="#000000" font-family="sans-serif" font-size="13" lengthAdjust="spacingAndGlyphs" textLength="8" x="581.8613" y="267.4049">1</text><text fill="#000000" font-family="sans-serif" font-size="13" lengthAdjust="spacingAndGlyphs" textLength="23" x="968.7788" y="236.2477">1..*</text><!--MD5=[2ab7a6a303d213bb8ebe4ab6162585db]
link Collaborator to TransactionExecution--><path d="M574.1049,278.5911 C609.5728,291.3162 656.5252,308.1617 696.7849,322.606 " fill="none" id="Collaborator-TransactionExecution" style="stroke: #A80036; stroke-width: 1.0;"/><text fill="#000000" font-family="sans-serif" font-size="13" lengthAdjust="spacingAndGlyphs" textLength="48" x="605" y="285.0669">creates</text><polygon fill="#000000" points="656,279.0664,662,282.0664,656,285.0664,656,279.0664" style="stroke: #000000; stroke-width: 1.0;"/><text fill="#000000" font-family="sans-serif" font-size="13" lengthAdjust="spacingAndGlyphs" textLength="8" x="581.9799" y="294.2795">1</text><text fill="#000000" font-family="sans-serif" font-size="13" lengthAdjust="spacingAndGlyphs" textLength="23" x="666.1178" y="332.8451">1..*</text><!--MD5=[04ce0ecdab38a3951889ff50c232570f]
link Collaborator to User--><path d="M556.4526,298.0523 C590.5128,332.4134 643.7141,382.1079 697,416 C713.8299,426.7045 734.1812,435.9546 750.6938,442.6477 " fill="none" id="Collaborator-User" style="stroke: #A80036; stroke-width: 1.0;"/><text fill="#000000" font-family="sans-serif" font-size="13" lengthAdjust="spacingAndGlyphs" textLength="46" x="606" y="340.0669">acts as</text><polygon fill="#000000" points="655,334.0664,661,337.0664,655,340.0664,655,334.0664" style="stroke: #000000; stroke-width: 1.0;"/><text fill="#000000" font-family="sans-serif" font-size="13" lengthAdjust="spacingAndGlyphs" textLength="8" x="554.3223" y="318.3863">1</text><text fill="#000000" font-family="sans-serif" font-size="13" lengthAdjust="spacingAndGlyphs" textLength="8" x="735.0799" y="453.8864">1</text><!--MD5=[aeadb193487d51471d99d25e894c3012]
@startuml
skinparam classAttributeIconSize 0
hide methods
left to right direction

class Platform{
}
class Freelancer {
  -String freeID
  -String name
  -String levelExp
  -String email
  -String nif
  -String iban
  -String country
}

class Organization {
  -String name
  -String email
  -String nif
}

class Collaborator{
  -String nameC
  -String emailC
  -String role
}

class Task {
  -String idTask
  -String description
  -int timeTask
  -double costHour
  -String taskCategory
  -boolean isPayed
  -boolean isFinished
}

class Manager {
  -String nameM
  -String emailM
  -String role
}

class User {
}

class TransactionExecution { 
  -Date endDate
  -double delay
  -String descriptionOfQuality
  -int transID
}

class Address{
  -String street
  -String doorNumber
  -String locality
}


class Payment{
  -double valueE
  -double valueC
}


Freelancer "1" - - "1..*" Payment: receives >
Freelancer "1" - - "1" Address: has >

Task "1..*" - - "1" Freelancer: made by >

Platform "1" - - "1..*" Freelancer: has >
Platform "1" - - "1" Manager: sends email to > 
Platform "1" - - "1..*" Organization: has registered >


Manager "1" - - "1" User: acts as >

Organization "1" - - "1" Manager: has >
Organization "1" - - "1" Collaborator: has >
Organization "1" - - "1..*" Task: has >

TransactionExecution "1" - - "1" Task : has >
TransactionExecution "1" - - "1" Freelancer: related to the work of >
TransactionExecution "1" - - "1" Payment : originates >

Collaborator "1" - - "1" Freelancer: creates >
Collaborator "1" - - "1..*" Task: creates >
Collaborator "1" - - "1..*" TransactionExecution: creates >
Collaborator "1" - - "1" User: acts as >
@enduml

PlantUML version 1.2019.12(Sun Nov 03 10:24:54 UTC 2019)
(GPL source distribution)
Java Runtime: OpenJDK Runtime Environment
JVM: OpenJDK 64-Bit Server VM
Java Version: 1.8.0_232-heroku-b09
Operating System: Linux
Default Encoding: UTF-8
Language: en
Country: US
--></g></svg>