<?xml version="1.0" encoding="UTF-8" standalone="no"?><svg xmlns="http://www.w3.org/2000/svg" xmlns:xlink="http://www.w3.org/1999/xlink" contentScriptType="application/ecmascript" contentStyleType="text/css" height="1236px" preserveAspectRatio="none" style="width:720px;height:1236px;" version="1.1" viewBox="0 0 720 1236" width="720px" zoomAndPan="magnify"><defs><filter height="300%" id="f1vpgx9dxh9uw5" width="300%" x="-1" y="-1"><feGaussianBlur result="blurOut" stdDeviation="2.0"/><feColorMatrix in="blurOut" result="blurOut2" type="matrix" values="0 0 0 0 0 0 0 0 0 0 0 0 0 0 0 0 0 0 .4 0"/><feOffset dx="4.0" dy="4.0" in="blurOut2" result="blurOut3"/><feBlend in="SourceGraphic" in2="blurOut3" mode="normal"/></filter></defs><g><!--MD5=[45b10b8ff4ed64a4a6f2a6ab6acf684c]
class WatchStatisticsUI--><rect fill="#FEFECE" filter="url(#f1vpgx9dxh9uw5)" height="48" id="WatchStatisticsUI" style="stroke: #A80036; stroke-width: 1.5;" width="141" x="274" y="8"/><ellipse cx="289" cy="24" fill="#ADD1B2" rx="11" ry="11" style="stroke: #A80036; stroke-width: 1.0;"/><path d="M291.9688,29.6406 Q291.3906,29.9375 290.75,30.0859 Q290.1094,30.2344 289.4063,30.2344 Q286.9063,30.2344 285.5859,28.5859 Q284.2656,26.9375 284.2656,23.8125 Q284.2656,20.6875 285.5859,19.0313 Q286.9063,17.375 289.4063,17.375 Q290.1094,17.375 290.7578,17.5313 Q291.4063,17.6875 291.9688,17.9844 L291.9688,20.7031 Q291.3438,20.125 290.75,19.8516 Q290.1563,19.5781 289.5313,19.5781 Q288.1875,19.5781 287.5,20.6484 Q286.8125,21.7188 286.8125,23.8125 Q286.8125,25.9063 287.5,26.9766 Q288.1875,28.0469 289.5313,28.0469 Q290.1563,28.0469 290.75,27.7734 Q291.3438,27.5 291.9688,26.9219 L291.9688,29.6406 Z "/><text fill="#000000" font-family="sans-serif" font-size="12" lengthAdjust="spacingAndGlyphs" textLength="109" x="303" y="28.1543">WatchStatisticsUI</text><line style="stroke: #A80036; stroke-width: 1.5;" x1="275" x2="414" y1="40" y2="40"/><line style="stroke: #A80036; stroke-width: 1.5;" x1="275" x2="414" y1="48" y2="48"/><!--MD5=[3ed78abb7ad3a3fd83e44d4afd5ddf5d]
class WatchStatisticsController--><rect fill="#FEFECE" filter="url(#f1vpgx9dxh9uw5)" height="60.8047" id="WatchStatisticsController" style="stroke: #A80036; stroke-width: 1.5;" width="190" x="249.5" y="117"/><ellipse cx="264.5" cy="133" fill="#ADD1B2" rx="11" ry="11" style="stroke: #A80036; stroke-width: 1.0;"/><path d="M267.4688,138.6406 Q266.8906,138.9375 266.25,139.0859 Q265.6094,139.2344 264.9063,139.2344 Q262.4063,139.2344 261.0859,137.5859 Q259.7656,135.9375 259.7656,132.8125 Q259.7656,129.6875 261.0859,128.0313 Q262.4063,126.375 264.9063,126.375 Q265.6094,126.375 266.2578,126.5313 Q266.9063,126.6875 267.4688,126.9844 L267.4688,129.7031 Q266.8438,129.125 266.25,128.8516 Q265.6563,128.5781 265.0313,128.5781 Q263.6875,128.5781 263,129.6484 Q262.3125,130.7188 262.3125,132.8125 Q262.3125,134.9063 263,135.9766 Q263.6875,137.0469 265.0313,137.0469 Q265.6563,137.0469 266.25,136.7734 Q266.8438,136.5 267.4688,135.9219 L267.4688,138.6406 Z "/><text fill="#000000" font-family="sans-serif" font-size="12" lengthAdjust="spacingAndGlyphs" textLength="158" x="278.5" y="137.1543">WatchStatisticsController</text><line style="stroke: #A80036; stroke-width: 1.5;" x1="250.5" x2="438.5" y1="149" y2="149"/><line style="stroke: #A80036; stroke-width: 1.5;" x1="250.5" x2="438.5" y1="157" y2="157"/><ellipse cx="260.5" cy="168" fill="#84BE84" rx="3" ry="3" style="stroke: #038048; stroke-width: 1.0;"/><text fill="#000000" font-family="sans-serif" font-size="11" lengthAdjust="spacingAndGlyphs" textLength="93" x="269.5" y="171.2104">getFreelancers()</text><!--MD5=[e45a4727c47b726c25e081782e8bc183]
class ApplicationPOT--><rect fill="#FEFECE" filter="url(#f1vpgx9dxh9uw5)" height="86.4141" id="ApplicationPOT" style="stroke: #A80036; stroke-width: 1.5;" width="165" x="262" y="239"/><ellipse cx="295" cy="255" fill="#ADD1B2" rx="11" ry="11" style="stroke: #A80036; stroke-width: 1.0;"/><path d="M297.9688,260.6406 Q297.3906,260.9375 296.75,261.0859 Q296.1094,261.2344 295.4063,261.2344 Q292.9063,261.2344 291.5859,259.5859 Q290.2656,257.9375 290.2656,254.8125 Q290.2656,251.6875 291.5859,250.0313 Q292.9063,248.375 295.4063,248.375 Q296.1094,248.375 296.7578,248.5313 Q297.4063,248.6875 297.9688,248.9844 L297.9688,251.7031 Q297.3438,251.125 296.75,250.8516 Q296.1563,250.5781 295.5313,250.5781 Q294.1875,250.5781 293.5,251.6484 Q292.8125,252.7188 292.8125,254.8125 Q292.8125,256.9063 293.5,257.9766 Q294.1875,259.0469 295.5313,259.0469 Q296.1563,259.0469 296.75,258.7734 Q297.3438,258.5 297.9688,257.9219 L297.9688,260.6406 Z "/><text fill="#000000" font-family="sans-serif" font-size="12" lengthAdjust="spacingAndGlyphs" textLength="93" x="313" y="259.1543">ApplicationPOT</text><line style="stroke: #A80036; stroke-width: 1.5;" x1="263" x2="426" y1="271" y2="271"/><line style="stroke: #A80036; stroke-width: 1.5;" x1="263" x2="426" y1="279" y2="279"/><ellipse cx="273" cy="290" fill="#84BE84" rx="3" ry="3" style="stroke: #038048; stroke-width: 1.0;"/><text fill="#000000" font-family="sans-serif" font-size="11" lengthAdjust="spacingAndGlyphs" textLength="74" x="282" y="293.2104">getInstance()</text><ellipse cx="273" cy="302.8047" fill="#84BE84" rx="3" ry="3" style="stroke: #038048; stroke-width: 1.0;"/><text fill="#000000" font-family="sans-serif" font-size="11" lengthAdjust="spacingAndGlyphs" textLength="106" x="282" y="306.0151">getActualSession()</text><ellipse cx="273" cy="315.6094" fill="#84BE84" rx="3" ry="3" style="stroke: #038048; stroke-width: 1.0;"/><text fill="#000000" font-family="sans-serif" font-size="11" lengthAdjust="spacingAndGlyphs" textLength="139" x="282" y="318.8198">getFacadeAuthorization()</text><!--MD5=[99b8db98afdc2c8404e39242ef4c1e65]
class Platform--><rect fill="#FEFECE" filter="url(#f1vpgx9dxh9uw5)" height="73.6094" id="Platform" style="stroke: #A80036; stroke-width: 1.5;" width="84" x="286.5" y="386"/><ellipse cx="301.5" cy="402" fill="#ADD1B2" rx="11" ry="11" style="stroke: #A80036; stroke-width: 1.0;"/><path d="M304.4688,407.6406 Q303.8906,407.9375 303.25,408.0859 Q302.6094,408.2344 301.9063,408.2344 Q299.4063,408.2344 298.0859,406.5859 Q296.7656,404.9375 296.7656,401.8125 Q296.7656,398.6875 298.0859,397.0313 Q299.4063,395.375 301.9063,395.375 Q302.6094,395.375 303.2578,395.5313 Q303.9063,395.6875 304.4688,395.9844 L304.4688,398.7031 Q303.8438,398.125 303.25,397.8516 Q302.6563,397.5781 302.0313,397.5781 Q300.6875,397.5781 300,398.6484 Q299.3125,399.7188 299.3125,401.8125 Q299.3125,403.9063 300,404.9766 Q300.6875,406.0469 302.0313,406.0469 Q302.6563,406.0469 303.25,405.7734 Q303.8438,405.5 304.4688,404.9219 L304.4688,407.6406 Z "/><text fill="#000000" font-family="sans-serif" font-size="12" lengthAdjust="spacingAndGlyphs" textLength="52" x="315.5" y="406.1543">Platform</text><line style="stroke: #A80036; stroke-width: 1.5;" x1="287.5" x2="369.5" y1="418" y2="418"/><line style="stroke: #A80036; stroke-width: 1.5;" x1="287.5" x2="369.5" y1="426" y2="426"/><ellipse cx="297.5" cy="437" fill="#84BE84" rx="3" ry="3" style="stroke: #038048; stroke-width: 1.0;"/><text fill="#000000" font-family="sans-serif" font-size="11" lengthAdjust="spacingAndGlyphs" textLength="41" x="306.5" y="440.2104">getST()</text><ellipse cx="297.5" cy="449.8047" fill="#84BE84" rx="3" ry="3" style="stroke: #038048; stroke-width: 1.0;"/><text fill="#000000" font-family="sans-serif" font-size="11" lengthAdjust="spacingAndGlyphs" textLength="52" x="306.5" y="453.0151">getrOrg()</text><!--MD5=[c5b08e60048ef1bcd788d24cf324082e]
class UserSession--><rect fill="#FEFECE" filter="url(#f1vpgx9dxh9uw5)" height="60.8047" id="UserSession" style="stroke: #A80036; stroke-width: 1.5;" width="110" x="599.5" y="537"/><ellipse cx="614.5" cy="553" fill="#ADD1B2" rx="11" ry="11" style="stroke: #A80036; stroke-width: 1.0;"/><path d="M617.4688,558.6406 Q616.8906,558.9375 616.25,559.0859 Q615.6094,559.2344 614.9063,559.2344 Q612.4063,559.2344 611.0859,557.5859 Q609.7656,555.9375 609.7656,552.8125 Q609.7656,549.6875 611.0859,548.0313 Q612.4063,546.375 614.9063,546.375 Q615.6094,546.375 616.2578,546.5313 Q616.9063,546.6875 617.4688,546.9844 L617.4688,549.7031 Q616.8438,549.125 616.25,548.8516 Q615.6563,548.5781 615.0313,548.5781 Q613.6875,548.5781 613,549.6484 Q612.3125,550.7188 612.3125,552.8125 Q612.3125,554.9063 613,555.9766 Q613.6875,557.0469 615.0313,557.0469 Q615.6563,557.0469 616.25,556.7734 Q616.8438,556.5 617.4688,555.9219 L617.4688,558.6406 Z "/><text fill="#000000" font-family="sans-serif" font-size="12" lengthAdjust="spacingAndGlyphs" textLength="78" x="628.5" y="557.1543">UserSession</text><line style="stroke: #A80036; stroke-width: 1.5;" x1="600.5" x2="708.5" y1="569" y2="569"/><line style="stroke: #A80036; stroke-width: 1.5;" x1="600.5" x2="708.5" y1="577" y2="577"/><ellipse cx="610.5" cy="588" fill="#84BE84" rx="3" ry="3" style="stroke: #038048; stroke-width: 1.0;"/><text fill="#000000" font-family="sans-serif" font-size="11" lengthAdjust="spacingAndGlyphs" textLength="84" x="619.5" y="591.2104">getUserEmail()</text><!--MD5=[bf6f636222406559e0ae8c46c1f32994]
class RegisterOrganization--><rect fill="#FEFECE" filter="url(#f1vpgx9dxh9uw5)" height="60.8047" id="RegisterOrganization" style="stroke: #A80036; stroke-width: 1.5;" width="226" x="215.5" y="537"/><ellipse cx="259.3" cy="553" fill="#ADD1B2" rx="11" ry="11" style="stroke: #A80036; stroke-width: 1.0;"/><path d="M262.2688,558.6406 Q261.6906,558.9375 261.05,559.0859 Q260.4094,559.2344 259.7063,559.2344 Q257.2063,559.2344 255.8859,557.5859 Q254.5656,555.9375 254.5656,552.8125 Q254.5656,549.6875 255.8859,548.0313 Q257.2063,546.375 259.7063,546.375 Q260.4094,546.375 261.0578,546.5313 Q261.7063,546.6875 262.2688,546.9844 L262.2688,549.7031 Q261.6438,549.125 261.05,548.8516 Q260.4563,548.5781 259.8313,548.5781 Q258.4875,548.5781 257.8,549.6484 Q257.1125,550.7188 257.1125,552.8125 Q257.1125,554.9063 257.8,555.9766 Q258.4875,557.0469 259.8313,557.0469 Q260.4563,557.0469 261.05,556.7734 Q261.6438,556.5 262.2688,555.9219 L262.2688,558.6406 Z "/><text fill="#000000" font-family="sans-serif" font-size="12" lengthAdjust="spacingAndGlyphs" textLength="130" x="279.7" y="557.1543">RegisterOrganization</text><line style="stroke: #A80036; stroke-width: 1.5;" x1="216.5" x2="440.5" y1="569" y2="569"/><line style="stroke: #A80036; stroke-width: 1.5;" x1="216.5" x2="440.5" y1="577" y2="577"/><ellipse cx="226.5" cy="588" fill="#84BE84" rx="3" ry="3" style="stroke: #038048; stroke-width: 1.0;"/><text fill="#000000" font-family="sans-serif" font-size="11" lengthAdjust="spacingAndGlyphs" textLength="200" x="235.5" y="591.2104">getOrganizationByUserEmail(email)</text><!--MD5=[86c7c362de55a38b660185a1328fe18d]
class Organization--><rect fill="#FEFECE" filter="url(#f1vpgx9dxh9uw5)" height="99.2188" id="Organization" style="stroke: #A80036; stroke-width: 1.5;" width="110" x="119.5" y="675"/><ellipse cx="134.5" cy="691" fill="#ADD1B2" rx="11" ry="11" style="stroke: #A80036; stroke-width: 1.0;"/><path d="M137.4688,696.6406 Q136.8906,696.9375 136.25,697.0859 Q135.6094,697.2344 134.9063,697.2344 Q132.4063,697.2344 131.0859,695.5859 Q129.7656,693.9375 129.7656,690.8125 Q129.7656,687.6875 131.0859,686.0313 Q132.4063,684.375 134.9063,684.375 Q135.6094,684.375 136.2578,684.5313 Q136.9063,684.6875 137.4688,684.9844 L137.4688,687.7031 Q136.8438,687.125 136.25,686.8516 Q135.6563,686.5781 135.0313,686.5781 Q133.6875,686.5781 133,687.6484 Q132.3125,688.7188 132.3125,690.8125 Q132.3125,692.9063 133,693.9766 Q133.6875,695.0469 135.0313,695.0469 Q135.6563,695.0469 136.25,694.7734 Q136.8438,694.5 137.4688,693.9219 L137.4688,696.6406 Z "/><text fill="#000000" font-family="sans-serif" font-size="12" lengthAdjust="spacingAndGlyphs" textLength="78" x="148.5" y="695.1543">Organization</text><line style="stroke: #A80036; stroke-width: 1.5;" x1="120.5" x2="228.5" y1="707" y2="707"/><rect fill="none" height="6" style="stroke: #C82930; stroke-width: 1.0;" width="6" x="127.5" y="715"/><text fill="#000000" font-family="sans-serif" font-size="11" lengthAdjust="spacingAndGlyphs" textLength="70" x="139.5" y="721.2104">String nome</text><rect fill="none" height="6" style="stroke: #C82930; stroke-width: 1.0;" width="6" x="127.5" y="727.8047"/><text fill="#000000" font-family="sans-serif" font-size="11" lengthAdjust="spacingAndGlyphs" textLength="69" x="139.5" y="734.0151">String email</text><rect fill="none" height="6" style="stroke: #C82930; stroke-width: 1.0;" width="6" x="127.5" y="740.6094"/><text fill="#000000" font-family="sans-serif" font-size="11" lengthAdjust="spacingAndGlyphs" textLength="55" x="139.5" y="746.8198">String NIF</text><line style="stroke: #A80036; stroke-width: 1.5;" x1="120.5" x2="228.5" y1="753.4141" y2="753.4141"/><ellipse cx="130.5" cy="764.4141" fill="#84BE84" rx="3" ry="3" style="stroke: #038048; stroke-width: 1.0;"/><text fill="#000000" font-family="sans-serif" font-size="11" lengthAdjust="spacingAndGlyphs" textLength="66" x="139.5" y="767.6245">getRTrans()</text><!--MD5=[f6ed7daa03e434106607816c975112f0]
class RegisterTransaction--><rect fill="#FEFECE" filter="url(#f1vpgx9dxh9uw5)" height="60.8047" id="RegisterTransaction" style="stroke: #A80036; stroke-width: 1.5;" width="158" x="16.5" y="851"/><ellipse cx="31.5" cy="867" fill="#ADD1B2" rx="11" ry="11" style="stroke: #A80036; stroke-width: 1.0;"/><path d="M34.4688,872.6406 Q33.8906,872.9375 33.25,873.0859 Q32.6094,873.2344 31.9063,873.2344 Q29.4063,873.2344 28.0859,871.5859 Q26.7656,869.9375 26.7656,866.8125 Q26.7656,863.6875 28.0859,862.0313 Q29.4063,860.375 31.9063,860.375 Q32.6094,860.375 33.2578,860.5313 Q33.9063,860.6875 34.4688,860.9844 L34.4688,863.7031 Q33.8438,863.125 33.25,862.8516 Q32.6563,862.5781 32.0313,862.5781 Q30.6875,862.5781 30,863.6484 Q29.3125,864.7188 29.3125,866.8125 Q29.3125,868.9063 30,869.9766 Q30.6875,871.0469 32.0313,871.0469 Q32.6563,871.0469 33.25,870.7734 Q33.8438,870.5 34.4688,869.9219 L34.4688,872.6406 Z "/><text fill="#000000" font-family="sans-serif" font-size="12" lengthAdjust="spacingAndGlyphs" textLength="126" x="45.5" y="871.1543">RegisterTransaction</text><line style="stroke: #A80036; stroke-width: 1.5;" x1="17.5" x2="173.5" y1="883" y2="883"/><line style="stroke: #A80036; stroke-width: 1.5;" x1="17.5" x2="173.5" y1="891" y2="891"/><ellipse cx="27.5" cy="902" fill="#84BE84" rx="3" ry="3" style="stroke: #038048; stroke-width: 1.0;"/><text fill="#000000" font-family="sans-serif" font-size="11" lengthAdjust="spacingAndGlyphs" textLength="100" x="36.5" y="905.2104">getTransactions()</text><!--MD5=[4045d6f6a06909f8c0c16b57fdb55c63]
class TransactionExecution--><rect fill="#FEFECE" filter="url(#f1vpgx9dxh9uw5)" height="86.4141" id="TransactionExecution" style="stroke: #A80036; stroke-width: 1.5;" width="179" x="6" y="989"/><ellipse cx="26.4" cy="1005" fill="#ADD1B2" rx="11" ry="11" style="stroke: #A80036; stroke-width: 1.0;"/><path d="M29.3688,1010.6406 Q28.7906,1010.9375 28.15,1011.0859 Q27.5094,1011.2344 26.8063,1011.2344 Q24.3063,1011.2344 22.9859,1009.5859 Q21.6656,1007.9375 21.6656,1004.8125 Q21.6656,1001.6875 22.9859,1000.0313 Q24.3063,998.375 26.8063,998.375 Q27.5094,998.375 28.1578,998.5313 Q28.8063,998.6875 29.3688,998.9844 L29.3688,1001.7031 Q28.7438,1001.125 28.15,1000.8516 Q27.5563,1000.5781 26.9313,1000.5781 Q25.5875,1000.5781 24.9,1001.6484 Q24.2125,1002.7188 24.2125,1004.8125 Q24.2125,1006.9063 24.9,1007.9766 Q25.5875,1009.0469 26.9313,1009.0469 Q27.5563,1009.0469 28.15,1008.7734 Q28.7438,1008.5 29.3688,1007.9219 L29.3688,1010.6406 Z "/><text fill="#000000" font-family="sans-serif" font-size="12" lengthAdjust="spacingAndGlyphs" textLength="135" x="41.6" y="1009.1543">TransactionExecution</text><line style="stroke: #A80036; stroke-width: 1.5;" x1="7" x2="184" y1="1021" y2="1021"/><rect fill="none" height="6" style="stroke: #C82930; stroke-width: 1.0;" width="6" x="14" y="1029"/><text fill="#000000" font-family="sans-serif" font-size="11" lengthAdjust="spacingAndGlyphs" textLength="77" x="26" y="1035.2104">Data endDate</text><rect fill="none" height="6" style="stroke: #C82930; stroke-width: 1.0;" width="6" x="14" y="1041.8047"/><text fill="#000000" font-family="sans-serif" font-size="11" lengthAdjust="spacingAndGlyphs" textLength="72" x="26" y="1048.0151">double delay</text><rect fill="none" height="6" style="stroke: #C82930; stroke-width: 1.0;" width="6" x="14" y="1054.6094"/><text fill="#000000" font-family="sans-serif" font-size="11" lengthAdjust="spacingAndGlyphs" textLength="153" x="26" y="1060.8198">String descriptionOfQuality</text><line style="stroke: #A80036; stroke-width: 1.5;" x1="7" x2="184" y1="1067.4141" y2="1067.4141"/><!--MD5=[c92a301914785b9701ae4dd841eeae97]
class FacadeAuthorization--><rect fill="#FEFECE" filter="url(#f1vpgx9dxh9uw5)" height="60.8047" id="FacadeAuthorization" style="stroke: #A80036; stroke-width: 1.5;" width="160" x="486.5" y="392.5"/><ellipse cx="501.5" cy="408.5" fill="#ADD1B2" rx="11" ry="11" style="stroke: #A80036; stroke-width: 1.0;"/><path d="M504.4688,414.1406 Q503.8906,414.4375 503.25,414.5859 Q502.6094,414.7344 501.9063,414.7344 Q499.4063,414.7344 498.0859,413.0859 Q496.7656,411.4375 496.7656,408.3125 Q496.7656,405.1875 498.0859,403.5313 Q499.4063,401.875 501.9063,401.875 Q502.6094,401.875 503.2578,402.0313 Q503.9063,402.1875 504.4688,402.4844 L504.4688,405.2031 Q503.8438,404.625 503.25,404.3516 Q502.6563,404.0781 502.0313,404.0781 Q500.6875,404.0781 500,405.1484 Q499.3125,406.2188 499.3125,408.3125 Q499.3125,410.4063 500,411.4766 Q500.6875,412.5469 502.0313,412.5469 Q502.6563,412.5469 503.25,412.2734 Q503.8438,412 504.4688,411.4219 L504.4688,414.1406 Z "/><text fill="#000000" font-family="sans-serif" font-size="12" lengthAdjust="spacingAndGlyphs" textLength="128" x="515.5" y="412.6543">FacadeAuthorization</text><line style="stroke: #A80036; stroke-width: 1.5;" x1="487.5" x2="645.5" y1="424.5" y2="424.5"/><line style="stroke: #A80036; stroke-width: 1.5;" x1="487.5" x2="645.5" y1="432.5" y2="432.5"/><ellipse cx="497.5" cy="443.5" fill="#84BE84" rx="3" ry="3" style="stroke: #038048; stroke-width: 1.0;"/><text fill="#000000" font-family="sans-serif" font-size="11" lengthAdjust="spacingAndGlyphs" textLength="99" x="506.5" y="446.7104">getUserSession()</text><!--MD5=[764fca796ce7f635542948d8fc39db5e]
class Payment--><rect fill="#FEFECE" filter="url(#f1vpgx9dxh9uw5)" height="73.6094" id="Payment" style="stroke: #A80036; stroke-width: 1.5;" width="106" x="42.5" y="1152"/><ellipse cx="66.5" cy="1168" fill="#ADD1B2" rx="11" ry="11" style="stroke: #A80036; stroke-width: 1.0;"/><path d="M69.4688,1173.6406 Q68.8906,1173.9375 68.25,1174.0859 Q67.6094,1174.2344 66.9063,1174.2344 Q64.4063,1174.2344 63.0859,1172.5859 Q61.7656,1170.9375 61.7656,1167.8125 Q61.7656,1164.6875 63.0859,1163.0313 Q64.4063,1161.375 66.9063,1161.375 Q67.6094,1161.375 68.2578,1161.5313 Q68.9063,1161.6875 69.4688,1161.9844 L69.4688,1164.7031 Q68.8438,1164.125 68.25,1163.8516 Q67.6563,1163.5781 67.0313,1163.5781 Q65.6875,1163.5781 65,1164.6484 Q64.3125,1165.7188 64.3125,1167.8125 Q64.3125,1169.9063 65,1170.9766 Q65.6875,1172.0469 67.0313,1172.0469 Q67.6563,1172.0469 68.25,1171.7734 Q68.8438,1171.5 69.4688,1170.9219 L69.4688,1173.6406 Z "/><text fill="#000000" font-family="sans-serif" font-size="12" lengthAdjust="spacingAndGlyphs" textLength="54" x="82.5" y="1172.1543">Payment</text><line style="stroke: #A80036; stroke-width: 1.5;" x1="43.5" x2="147.5" y1="1184" y2="1184"/><rect fill="none" height="6" style="stroke: #C82930; stroke-width: 1.0;" width="6" x="50.5" y="1192"/><text fill="#000000" font-family="sans-serif" font-size="11" lengthAdjust="spacingAndGlyphs" textLength="79" x="62.5" y="1198.2104">double valueE</text><rect fill="none" height="6" style="stroke: #C82930; stroke-width: 1.0;" width="6" x="50.5" y="1204.8047"/><text fill="#000000" font-family="sans-serif" font-size="11" lengthAdjust="spacingAndGlyphs" textLength="80" x="62.5" y="1211.0151">double valueC</text><line style="stroke: #A80036; stroke-width: 1.5;" x1="43.5" x2="147.5" y1="1217.6094" y2="1217.6094"/><!--MD5=[681bd264a5afbdbb7acc45dbd74a008f]
link WatchStatisticsUI to WatchStatisticsController--><path d="M344.5,56.2126 C344.5,72.1586 344.5,93.3253 344.5,111.2618 " fill="none" id="WatchStatisticsUI-&gt;WatchStatisticsController" style="stroke: #A80036; stroke-width: 1.0; stroke-dasharray: 7.0,7.0;"/><polygon fill="#A80036" points="344.5,116.7152,348.5,107.7152,344.5,111.7152,340.5,107.7152,344.5,116.7152" style="stroke: #A80036; stroke-width: 1.0;"/><!--MD5=[5634d1f2ffd6742e637ee3f5d81cd11b]
link WatchStatisticsController to ApplicationPOT--><path d="M344.5,178.0201 C344.5,194.4563 344.5,215.1149 344.5,233.6785 " fill="none" id="WatchStatisticsController-&gt;ApplicationPOT" style="stroke: #A80036; stroke-width: 1.0; stroke-dasharray: 7.0,7.0;"/><polygon fill="#A80036" points="344.5,238.8536,348.5,229.8536,344.5,233.8536,340.5,229.8536,344.5,238.8536" style="stroke: #A80036; stroke-width: 1.0;"/><!--MD5=[a3147ce88a635d4643ae6077965016dc]
link WatchStatisticsController to Platform--><path d="M296.3105,178.0648 C276.3262,193.6194 255.3132,214.4493 244.5,239 C229.0935,273.9797 231.2389,289.152 244.5,325 C252.523,346.6883 267.7273,366.8157 283.0196,383.1164 " fill="none" id="WatchStatisticsController-&gt;Platform" style="stroke: #A80036; stroke-width: 1.0; stroke-dasharray: 7.0,7.0;"/><polygon fill="#A80036" points="286.4877,386.7482,283.165,377.4768,283.0346,383.1321,277.3793,383.0017,286.4877,386.7482" style="stroke: #A80036; stroke-width: 1.0;"/><!--MD5=[c73f39b2b7c857c691dc93c12183c94f]
link WatchStatisticsController to UserSession--><path d="M439.7569,165.5021 C485.1581,178.6891 536.7828,201.1499 570.5,239 C622.0828,296.9055 642.7365,311.5676 664.5,386 C678.8082,434.9348 671.0748,494.3897 663.4213,531.5983 " fill="none" id="WatchStatisticsController-&gt;UserSession" style="stroke: #A80036; stroke-width: 1.0; stroke-dasharray: 7.0,7.0;"/><polygon fill="#A80036" points="662.2953,536.9228,668.0709,528.9452,663.3299,532.031,660.2441,527.2899,662.2953,536.9228" style="stroke: #A80036; stroke-width: 1.0;"/><!--MD5=[2ac7ee9d5f571fb40a3e9b7a8b69a183]
link WatchStatisticsController to RegisterOrganization--><path d="M392.6895,178.0648 C412.6738,193.6194 433.6868,214.4493 444.5,239 C459.9065,273.9797 452.0845,287.5378 444.5,325 C428.4862,404.097 381.1792,486.9827 352.1612,532.4493 " fill="none" id="WatchStatisticsController-&gt;RegisterOrganization" style="stroke: #A80036; stroke-width: 1.0; stroke-dasharray: 7.0,7.0;"/><polygon fill="#A80036" points="349.4118,536.7311,357.6404,531.3191,352.1133,532.5238,350.9087,526.9967,349.4118,536.7311" style="stroke: #A80036; stroke-width: 1.0;"/><!--MD5=[5ac7a21f30a395131361a7e216f0d266]
link WatchStatisticsController to Organization--><path d="M249.4818,170.4621 C195.0649,189.9033 137.5,224.1425 137.5,282 C137.5,282 137.5,282 137.5,567.5 C137.5,602.1786 146.158,640.0445 155.0976,669.8994 " fill="none" id="WatchStatisticsController-&gt;Organization" style="stroke: #A80036; stroke-width: 1.0; stroke-dasharray: 7.0,7.0;"/><polygon fill="#A80036" points="156.6503,674.9983,157.855,665.2234,155.1937,670.2152,150.202,667.5539,156.6503,674.9983" style="stroke: #A80036; stroke-width: 1.0;"/><!--MD5=[9902323caa82453da688fe66dc60835f]
link WatchStatisticsController to RegisterTransaction--><path d="M249.2171,174.2604 C168.7417,199.7752 66.5,240.3807 66.5,282 C66.5,282 66.5,282 66.5,724.5 C66.5,766.7283 76.7707,814.2987 85.0876,845.8972 " fill="none" id="WatchStatisticsController-&gt;RegisterTransaction" style="stroke: #A80036; stroke-width: 1.0; stroke-dasharray: 7.0,7.0;"/><polygon fill="#A80036" points="86.4038,850.8281,87.9473,841.1009,85.1142,845.9973,80.2179,843.1642,86.4038,850.8281" style="stroke: #A80036; stroke-width: 1.0;"/><!--MD5=[f51ef758e70a5763d7cc4dbf4e3ec04c]
link WatchStatisticsController to FacadeAuthorization--><path d="M439.5691,166.4785 C464.1861,175.4594 488.7333,188.6498 506.5,208 C552.3047,257.8871 563.5327,339.8604 566.0462,386.8615 " fill="none" id="WatchStatisticsController-&gt;FacadeAuthorization" style="stroke: #A80036; stroke-width: 1.0; stroke-dasharray: 7.0,7.0;"/><polygon fill="#A80036" points="566.2995,392.136,569.8629,382.9544,566.0595,387.1418,561.8721,383.3384,566.2995,392.136" style="stroke: #A80036; stroke-width: 1.0;"/><!--MD5=[4b807d121e661cabe031d29ffdf91e81]
link ApplicationPOT to Platform--><path d="M339.6125,325.0708 C337.6137,342.6855 335.3077,363.0068 333.3163,380.5564 " fill="none" id="ApplicationPOT-&gt;Platform" style="stroke: #A80036; stroke-width: 1.0; stroke-dasharray: 7.0,7.0;"/><polygon fill="#A80036" points="332.709,385.9078,337.6984,377.4163,333.2729,380.9397,329.7495,376.5141,332.709,385.9078" style="stroke: #A80036; stroke-width: 1.0;"/><!--MD5=[d1825128764562d69fae95bd724952fd]
link ApplicationPOT to FacadeAuthorization--><path d="M412.3136,325.0708 C445.0065,345.8352 483.6209,370.3606 514.0281,389.6733 " fill="none" id="ApplicationPOT-&gt;FacadeAuthorization" style="stroke: #A80036; stroke-width: 1.0; stroke-dasharray: 7.0,7.0;"/><polygon fill="#A80036" points="518.4532,392.4838,513.0006,384.2821,514.2325,389.8031,508.7115,391.0351,518.4532,392.4838" style="stroke: #A80036; stroke-width: 1.0;"/><!--MD5=[a9ccfb21abaf09863fac9dabfab3f31b]
link FacadeAuthorization to UserSession--><path d="M585.1625,453.6447 C600.0964,478.1669 620.9376,512.389 635.8644,536.8994 " fill="none" id="FacadeAuthorization-UserSession" style="stroke: #A80036; stroke-width: 1.0;"/><text fill="#000000" font-family="sans-serif" font-size="13" lengthAdjust="spacingAndGlyphs" textLength="23" x="616.5" y="503.0669">has</text><text fill="#000000" font-family="sans-serif" font-size="13" lengthAdjust="spacingAndGlyphs" textLength="8" x="580.0492" y="473.2536">1</text><text fill="#000000" font-family="sans-serif" font-size="13" lengthAdjust="spacingAndGlyphs" textLength="8" x="623.1958" y="526.1419">1</text><!--MD5=[ac4cc276e9ceab0b214a306c222564f6]
link Platform to RegisterOrganization--><path d="M328.5,460.2123 C328.5,483.9609 328.5,514.3735 328.5,536.7503 " fill="none" id="Platform-RegisterOrganization" style="stroke: #A80036; stroke-width: 1.0;"/><text fill="#000000" font-family="sans-serif" font-size="13" lengthAdjust="spacingAndGlyphs" textLength="23" x="329.5" y="503.0669">has</text><text fill="#000000" font-family="sans-serif" font-size="13" lengthAdjust="spacingAndGlyphs" textLength="8" x="319.8375" y="479.728">1</text><text fill="#000000" font-family="sans-serif" font-size="13" lengthAdjust="spacingAndGlyphs" textLength="8" x="319.675" y="525.962">1</text><!--MD5=[f099c38114634f7b0b0cd46ad2e921be]
link RegisterOrganization to Organization--><path d="M298.4417,598.1439 C277.0837,619.918 247.9339,649.6356 223.2695,674.7804 " fill="none" id="RegisterOrganization-Organization" style="stroke: #A80036; stroke-width: 1.0;"/><text fill="#000000" font-family="sans-serif" font-size="13" lengthAdjust="spacingAndGlyphs" textLength="23" x="266.5" y="641.0669">has</text><text fill="#000000" font-family="sans-serif" font-size="13" lengthAdjust="spacingAndGlyphs" textLength="8" x="283.7365" y="617.7527">1</text><text fill="#000000" font-family="sans-serif" font-size="13" lengthAdjust="spacingAndGlyphs" textLength="23" x="205.5105" y="663.7947">1..*</text><!--MD5=[1cee15229ba43e7dfa4358cbff3c895a]
link Organization to RegisterTransaction--><path d="M149.5039,774.1758 C136.8467,799.3299 121.8823,829.0694 110.9195,850.8561 " fill="none" id="Organization-RegisterTransaction" style="stroke: #A80036; stroke-width: 1.0;"/><text fill="#000000" font-family="sans-serif" font-size="13" lengthAdjust="spacingAndGlyphs" textLength="23" x="134.5" y="817.0669">has</text><text fill="#000000" font-family="sans-serif" font-size="13" lengthAdjust="spacingAndGlyphs" textLength="8" x="137.4263" y="794.277">1</text><text fill="#000000" font-family="sans-serif" font-size="13" lengthAdjust="spacingAndGlyphs" textLength="8" x="105.2748" y="840.0897">1</text><!--MD5=[1d0ba793ebf64dcf1aa20e2f414a81a9]
link RegisterTransaction to TransactionExecution--><path d="M95.5,912.3191 C95.5,934.4205 95.5,964.4886 95.5,988.957 " fill="none" id="RegisterTransaction-TransactionExecution" style="stroke: #A80036; stroke-width: 1.0;"/><text fill="#000000" font-family="sans-serif" font-size="13" lengthAdjust="spacingAndGlyphs" textLength="23" x="96.5" y="955.0669">has</text><text fill="#000000" font-family="sans-serif" font-size="13" lengthAdjust="spacingAndGlyphs" textLength="8" x="86.7125" y="931.9624">1</text><text fill="#000000" font-family="sans-serif" font-size="13" lengthAdjust="spacingAndGlyphs" textLength="23" x="70.6672" y="977.9462">1..*</text><!--MD5=[209a2c3229d506e84b8c72b391c080a4]
link TransactionExecution to Payment--><path d="M95.5,1075.3165 C95.5,1099.3689 95.5,1128.9777 95.5,1151.9478 " fill="none" id="TransactionExecution-Payment" style="stroke: #A80036; stroke-width: 1.0;"/><text fill="#000000" font-family="sans-serif" font-size="13" lengthAdjust="spacingAndGlyphs" textLength="63" x="96.5" y="1118.0669">originates</text><text fill="#000000" font-family="sans-serif" font-size="13" lengthAdjust="spacingAndGlyphs" textLength="8" x="86.8625" y="1095.4599">1</text><text fill="#000000" font-family="sans-serif" font-size="13" lengthAdjust="spacingAndGlyphs" textLength="8" x="86.7625" y="1140.8486">1</text><!--MD5=[1d1e75ecc260e912f5efcba242747cf4]
@startuml
class WatchStatisticsUI{  
  
}

class WatchStatisticsController{
  +getFreelancers()
  }

class ApplicationPOT{
  +getInstance()
  +getActualSession()
  +getFacadeAuthorization()
  }

class Platform {
  +getST()
  +getrOrg()
  }

class UserSession {
  +getUserEmail()
  }

class RegisterOrganization{
  +getOrganizationByUserEmail(email)
  }

class Organization {
  -String nome
  -String email
  -String NIF
  +getRTrans()
  }

class RegisterTransaction{
  +getTransactions()
  }

class TransactionExecution{
  -Data endDate
  -double delay
  -String descriptionOfQuality
  }

class FacadeAuthorization {  
  +getUserSession()
}

class Payment {
  -double valueE
-double valueC
  }


WatchStatisticsUI ..> WatchStatisticsController

WatchStatisticsController ..> ApplicationPOT
WatchStatisticsController ..> Platform
WatchStatisticsController ..> UserSession
WatchStatisticsController ..> RegisterOrganization
WatchStatisticsController ..> Organization
WatchStatisticsController ..> RegisterTransaction
WatchStatisticsController ..> FacadeAuthorization

ApplicationPOT  ..> Platform
ApplicationPOT  ..> FacadeAuthorization

FacadeAuthorization "1"- - "1" UserSession: has


Platform "1" - - "1" RegisterOrganization : has

RegisterOrganization "1" - - "1..*" Organization : has

Organization "1" - - "1" RegisterTransaction : has

RegisterTransaction "1" - - "1..*" TransactionExecution : has

TransactionExecution "1" - - "1" Payment : originates
@enduml

PlantUML version 1.2019.12(Sun Nov 03 10:24:54 UTC 2019)
(GPL source distribution)
Java Runtime: OpenJDK Runtime Environment
JVM: OpenJDK 64-Bit Server VM
Java Version: 1.8.0_232-heroku-b09
Operating System: Linux
Default Encoding: UTF-8
Language: en
Country: US
--></g></svg>