<?xml version="1.0" encoding="UTF-8" standalone="no"?><svg xmlns="http://www.w3.org/2000/svg" xmlns:xlink="http://www.w3.org/1999/xlink" contentScriptType="application/ecmascript" contentStyleType="text/css" height="528px" preserveAspectRatio="none" style="width:1671px;height:528px;" version="1.1" viewBox="0 0 1671 528" width="1671px" zoomAndPan="magnify"><defs><filter height="300%" id="fyurjkv3hf9x6" width="300%" x="-1" y="-1"><feGaussianBlur result="blurOut" stdDeviation="2.0"/><feColorMatrix in="blurOut" result="blurOut2" type="matrix" values="0 0 0 0 0 0 0 0 0 0 0 0 0 0 0 0 0 0 .4 0"/><feOffset dx="4.0" dy="4.0" in="blurOut2" result="blurOut3"/><feBlend in="SourceGraphic" in2="blurOut3" mode="normal"/></filter></defs><g><!--MD5=[99b8db98afdc2c8404e39242ef4c1e65]
class Platform--><rect fill="#FEFECE" filter="url(#fyurjkv3hf9x6)" height="40" id="Platform" style="stroke: #A80036; stroke-width: 1.5;" width="84" x="6" y="251"/><ellipse cx="21" cy="267" fill="#ADD1B2" rx="11" ry="11" style="stroke: #A80036; stroke-width: 1.0;"/><path d="M23.9688,272.6406 Q23.3906,272.9375 22.75,273.0859 Q22.1094,273.2344 21.4063,273.2344 Q18.9063,273.2344 17.5859,271.5859 Q16.2656,269.9375 16.2656,266.8125 Q16.2656,263.6875 17.5859,262.0313 Q18.9063,260.375 21.4063,260.375 Q22.1094,260.375 22.7578,260.5313 Q23.4063,260.6875 23.9688,260.9844 L23.9688,263.7031 Q23.3438,263.125 22.75,262.8516 Q22.1563,262.5781 21.5313,262.5781 Q20.1875,262.5781 19.5,263.6484 Q18.8125,264.7188 18.8125,266.8125 Q18.8125,268.9063 19.5,269.9766 Q20.1875,271.0469 21.5313,271.0469 Q22.1563,271.0469 22.75,270.7734 Q23.3438,270.5 23.9688,269.9219 L23.9688,272.6406 Z "/><text fill="#000000" font-family="sans-serif" font-size="12" lengthAdjust="spacingAndGlyphs" textLength="52" x="35" y="271.1543">Platform</text><line style="stroke: #A80036; stroke-width: 1.5;" x1="7" x2="89" y1="283" y2="283"/><!--MD5=[1f687b5315377fe49fca59b457947463]
class Freelancer--><rect fill="#FEFECE" filter="url(#fyurjkv3hf9x6)" height="129.6328" id="Freelancer" style="stroke: #A80036; stroke-width: 1.5;" width="100" x="697" y="88"/><ellipse cx="712.45" cy="104" fill="#ADD1B2" rx="11" ry="11" style="stroke: #A80036; stroke-width: 1.0;"/><path d="M715.4188,109.6406 Q714.8406,109.9375 714.2,110.0859 Q713.5594,110.2344 712.8563,110.2344 Q710.3563,110.2344 709.0359,108.5859 Q707.7156,106.9375 707.7156,103.8125 Q707.7156,100.6875 709.0359,99.0313 Q710.3563,97.375 712.8563,97.375 Q713.5594,97.375 714.2078,97.5313 Q714.8563,97.6875 715.4188,97.9844 L715.4188,100.7031 Q714.7938,100.125 714.2,99.8516 Q713.6063,99.5781 712.9813,99.5781 Q711.6375,99.5781 710.95,100.6484 Q710.2625,101.7188 710.2625,103.8125 Q710.2625,105.9063 710.95,106.9766 Q711.6375,108.0469 712.9813,108.0469 Q713.6063,108.0469 714.2,107.7734 Q714.7938,107.5 715.4188,106.9219 L715.4188,109.6406 Z "/><text fill="#000000" font-family="sans-serif" font-size="12" lengthAdjust="spacingAndGlyphs" textLength="67" x="726.55" y="108.1543">Freelancer</text><line style="stroke: #A80036; stroke-width: 1.5;" x1="698" x2="796" y1="120" y2="120"/><text fill="#000000" font-family="sans-serif" font-size="11" lengthAdjust="spacingAndGlyphs" textLength="76" x="703" y="134.2104">-String freeID</text><text fill="#000000" font-family="sans-serif" font-size="11" lengthAdjust="spacingAndGlyphs" textLength="74" x="703" y="147.0151">-String name</text><text fill="#000000" font-family="sans-serif" font-size="11" lengthAdjust="spacingAndGlyphs" textLength="88" x="703" y="159.8198">-String levelExp</text><text fill="#000000" font-family="sans-serif" font-size="11" lengthAdjust="spacingAndGlyphs" textLength="73" x="703" y="172.6245">-String email</text><text fill="#000000" font-family="sans-serif" font-size="11" lengthAdjust="spacingAndGlyphs" textLength="56" x="703" y="185.4292">-String nif</text><text fill="#000000" font-family="sans-serif" font-size="11" lengthAdjust="spacingAndGlyphs" textLength="66" x="703" y="198.2339">-String iban</text><text fill="#000000" font-family="sans-serif" font-size="11" lengthAdjust="spacingAndGlyphs" textLength="84" x="703" y="211.0386">-String country</text><!--MD5=[86c7c362de55a38b660185a1328fe18d]
class Organization--><rect fill="#FEFECE" filter="url(#fyurjkv3hf9x6)" height="78.4141" id="Organization" style="stroke: #A80036; stroke-width: 1.5;" width="110" x="257" y="232"/><ellipse cx="272" cy="248" fill="#ADD1B2" rx="11" ry="11" style="stroke: #A80036; stroke-width: 1.0;"/><path d="M274.9688,253.6406 Q274.3906,253.9375 273.75,254.0859 Q273.1094,254.2344 272.4063,254.2344 Q269.9063,254.2344 268.5859,252.5859 Q267.2656,250.9375 267.2656,247.8125 Q267.2656,244.6875 268.5859,243.0313 Q269.9063,241.375 272.4063,241.375 Q273.1094,241.375 273.7578,241.5313 Q274.4063,241.6875 274.9688,241.9844 L274.9688,244.7031 Q274.3438,244.125 273.75,243.8516 Q273.1563,243.5781 272.5313,243.5781 Q271.1875,243.5781 270.5,244.6484 Q269.8125,245.7188 269.8125,247.8125 Q269.8125,249.9063 270.5,250.9766 Q271.1875,252.0469 272.5313,252.0469 Q273.1563,252.0469 273.75,251.7734 Q274.3438,251.5 274.9688,250.9219 L274.9688,253.6406 Z "/><text fill="#000000" font-family="sans-serif" font-size="12" lengthAdjust="spacingAndGlyphs" textLength="78" x="286" y="252.1543">Organization</text><line style="stroke: #A80036; stroke-width: 1.5;" x1="258" x2="366" y1="264" y2="264"/><text fill="#000000" font-family="sans-serif" font-size="11" lengthAdjust="spacingAndGlyphs" textLength="74" x="263" y="278.2104">-String nome</text><text fill="#000000" font-family="sans-serif" font-size="11" lengthAdjust="spacingAndGlyphs" textLength="73" x="263" y="291.0151">-String email</text><text fill="#000000" font-family="sans-serif" font-size="11" lengthAdjust="spacingAndGlyphs" textLength="56" x="263" y="303.8198">-String nif</text><!--MD5=[f483d6e5de34a60207b28a5563be5e8b]
class Collaborator--><rect fill="#FEFECE" filter="url(#fyurjkv3hf9x6)" height="65.6094" id="Collaborator" style="stroke: #A80036; stroke-width: 1.5;" width="109" x="465" y="238"/><ellipse cx="480" cy="254" fill="#ADD1B2" rx="11" ry="11" style="stroke: #A80036; stroke-width: 1.0;"/><path d="M482.9688,259.6406 Q482.3906,259.9375 481.75,260.0859 Q481.1094,260.2344 480.4063,260.2344 Q477.9063,260.2344 476.5859,258.5859 Q475.2656,256.9375 475.2656,253.8125 Q475.2656,250.6875 476.5859,249.0313 Q477.9063,247.375 480.4063,247.375 Q481.1094,247.375 481.7578,247.5313 Q482.4063,247.6875 482.9688,247.9844 L482.9688,250.7031 Q482.3438,250.125 481.75,249.8516 Q481.1563,249.5781 480.5313,249.5781 Q479.1875,249.5781 478.5,250.6484 Q477.8125,251.7188 477.8125,253.8125 Q477.8125,255.9063 478.5,256.9766 Q479.1875,258.0469 480.5313,258.0469 Q481.1563,258.0469 481.75,257.7734 Q482.3438,257.5 482.9688,256.9219 L482.9688,259.6406 Z "/><text fill="#000000" font-family="sans-serif" font-size="12" lengthAdjust="spacingAndGlyphs" textLength="77" x="494" y="258.1543">Collaborator</text><line style="stroke: #A80036; stroke-width: 1.5;" x1="466" x2="573" y1="270" y2="270"/><text fill="#000000" font-family="sans-serif" font-size="11" lengthAdjust="spacingAndGlyphs" textLength="74" x="471" y="284.2104">-String nome</text><text fill="#000000" font-family="sans-serif" font-size="11" lengthAdjust="spacingAndGlyphs" textLength="73" x="471" y="297.0151">-String email</text><!--MD5=[b34797a66dc35cbf1d65f7e3ca75530e]
class Task--><rect fill="#FEFECE" filter="url(#fyurjkv3hf9x6)" height="116.8281" id="Task" style="stroke: #A80036; stroke-width: 1.5;" width="129" x="1224" y="199.5"/><ellipse cx="1269.75" cy="215.5" fill="#ADD1B2" rx="11" ry="11" style="stroke: #A80036; stroke-width: 1.0;"/><path d="M1272.7188,221.1406 Q1272.1406,221.4375 1271.5,221.5859 Q1270.8594,221.7344 1270.1563,221.7344 Q1267.6563,221.7344 1266.3359,220.0859 Q1265.0156,218.4375 1265.0156,215.3125 Q1265.0156,212.1875 1266.3359,210.5313 Q1267.6563,208.875 1270.1563,208.875 Q1270.8594,208.875 1271.5078,209.0313 Q1272.1563,209.1875 1272.7188,209.4844 L1272.7188,212.2031 Q1272.0938,211.625 1271.5,211.3516 Q1270.9063,211.0781 1270.2813,211.0781 Q1268.9375,211.0781 1268.25,212.1484 Q1267.5625,213.2188 1267.5625,215.3125 Q1267.5625,217.4063 1268.25,218.4766 Q1268.9375,219.5469 1270.2813,219.5469 Q1270.9063,219.5469 1271.5,219.2734 Q1272.0938,219 1272.7188,218.4219 L1272.7188,221.1406 Z "/><text fill="#000000" font-family="sans-serif" font-size="12" lengthAdjust="spacingAndGlyphs" textLength="29" x="1290.25" y="219.6543">Task</text><line style="stroke: #A80036; stroke-width: 1.5;" x1="1225" x2="1352" y1="231.5" y2="231.5"/><text fill="#000000" font-family="sans-serif" font-size="11" lengthAdjust="spacingAndGlyphs" textLength="59" x="1230" y="245.7104">-String idT</text><text fill="#000000" font-family="sans-serif" font-size="11" lengthAdjust="spacingAndGlyphs" textLength="105" x="1230" y="258.5151">-String description</text><text fill="#000000" font-family="sans-serif" font-size="11" lengthAdjust="spacingAndGlyphs" textLength="109" x="1230" y="271.3198">-Time timeDuration</text><text fill="#000000" font-family="sans-serif" font-size="11" lengthAdjust="spacingAndGlyphs" textLength="97" x="1230" y="284.1245">-double costHour</text><text fill="#000000" font-family="sans-serif" font-size="11" lengthAdjust="spacingAndGlyphs" textLength="117" x="1230" y="296.9292">-String taskCategory</text><text fill="#000000" font-family="sans-serif" font-size="11" lengthAdjust="spacingAndGlyphs" textLength="98" x="1230" y="309.7339">-Boolean isPayed</text><!--MD5=[b24ed8d4ae84bae9290d9aab401637c7]
class Manager--><rect fill="#FEFECE" filter="url(#fyurjkv3hf9x6)" height="65.6094" id="Manager" style="stroke: #A80036; stroke-width: 1.5;" width="87" x="476" y="137"/><ellipse cx="491" cy="153" fill="#ADD1B2" rx="11" ry="11" style="stroke: #A80036; stroke-width: 1.0;"/><path d="M493.9688,158.6406 Q493.3906,158.9375 492.75,159.0859 Q492.1094,159.2344 491.4063,159.2344 Q488.9063,159.2344 487.5859,157.5859 Q486.2656,155.9375 486.2656,152.8125 Q486.2656,149.6875 487.5859,148.0313 Q488.9063,146.375 491.4063,146.375 Q492.1094,146.375 492.7578,146.5313 Q493.4063,146.6875 493.9688,146.9844 L493.9688,149.7031 Q493.3438,149.125 492.75,148.8516 Q492.1563,148.5781 491.5313,148.5781 Q490.1875,148.5781 489.5,149.6484 Q488.8125,150.7188 488.8125,152.8125 Q488.8125,154.9063 489.5,155.9766 Q490.1875,157.0469 491.5313,157.0469 Q492.1563,157.0469 492.75,156.7734 Q493.3438,156.5 493.9688,155.9219 L493.9688,158.6406 Z "/><text fill="#000000" font-family="sans-serif" font-size="12" lengthAdjust="spacingAndGlyphs" textLength="55" x="505" y="157.1543">Manager</text><line style="stroke: #A80036; stroke-width: 1.5;" x1="477" x2="562" y1="169" y2="169"/><text fill="#000000" font-family="sans-serif" font-size="11" lengthAdjust="spacingAndGlyphs" textLength="74" x="482" y="183.2104">-String nome</text><text fill="#000000" font-family="sans-serif" font-size="11" lengthAdjust="spacingAndGlyphs" textLength="73" x="482" y="196.0151">-String email</text><!--MD5=[4555bb1b0911a5adf28ce6dbe60fed2e]
class Transaction--><rect fill="#FEFECE" filter="url(#fyurjkv3hf9x6)" height="40" id="Transaction" style="stroke: #A80036; stroke-width: 1.5;" width="106" x="920" y="324"/><ellipse cx="935" cy="340" fill="#ADD1B2" rx="11" ry="11" style="stroke: #A80036; stroke-width: 1.0;"/><path d="M937.9688,345.6406 Q937.3906,345.9375 936.75,346.0859 Q936.1094,346.2344 935.4063,346.2344 Q932.9063,346.2344 931.5859,344.5859 Q930.2656,342.9375 930.2656,339.8125 Q930.2656,336.6875 931.5859,335.0313 Q932.9063,333.375 935.4063,333.375 Q936.1094,333.375 936.7578,333.5313 Q937.4063,333.6875 937.9688,333.9844 L937.9688,336.7031 Q937.3438,336.125 936.75,335.8516 Q936.1563,335.5781 935.5313,335.5781 Q934.1875,335.5781 933.5,336.6484 Q932.8125,337.7188 932.8125,339.8125 Q932.8125,341.9063 933.5,342.9766 Q934.1875,344.0469 935.5313,344.0469 Q936.1563,344.0469 936.75,343.7734 Q937.3438,343.5 937.9688,342.9219 L937.9688,345.6406 Z "/><text fill="#000000" font-family="sans-serif" font-size="12" lengthAdjust="spacingAndGlyphs" textLength="74" x="949" y="344.1543">Transaction</text><line style="stroke: #A80036; stroke-width: 1.5;" x1="921" x2="1025" y1="356" y2="356"/><!--MD5=[5ce80547de3caced9d0089e35ded5090]
class TaskExecution--><rect fill="#FEFECE" filter="url(#fyurjkv3hf9x6)" height="78.4141" id="TaskExecution" style="stroke: #A80036; stroke-width: 1.5;" width="169" x="1491" y="111"/><ellipse cx="1527.15" cy="127" fill="#ADD1B2" rx="11" ry="11" style="stroke: #A80036; stroke-width: 1.0;"/><path d="M1530.1188,132.6406 Q1529.5406,132.9375 1528.9,133.0859 Q1528.2594,133.2344 1527.5563,133.2344 Q1525.0563,133.2344 1523.7359,131.5859 Q1522.4156,129.9375 1522.4156,126.8125 Q1522.4156,123.6875 1523.7359,122.0313 Q1525.0563,120.375 1527.5563,120.375 Q1528.2594,120.375 1528.9078,120.5313 Q1529.5563,120.6875 1530.1188,120.9844 L1530.1188,123.7031 Q1529.4938,123.125 1528.9,122.8516 Q1528.3063,122.5781 1527.6813,122.5781 Q1526.3375,122.5781 1525.65,123.6484 Q1524.9625,124.7188 1524.9625,126.8125 Q1524.9625,128.9063 1525.65,129.9766 Q1526.3375,131.0469 1527.6813,131.0469 Q1528.3063,131.0469 1528.9,130.7734 Q1529.4938,130.5 1530.1188,129.9219 L1530.1188,132.6406 Z "/><text fill="#000000" font-family="sans-serif" font-size="12" lengthAdjust="spacingAndGlyphs" textLength="90" x="1545.85" y="131.1543">TaskExecution</text><line style="stroke: #A80036; stroke-width: 1.5;" x1="1492" x2="1659" y1="143" y2="143"/><text fill="#000000" font-family="sans-serif" font-size="11" lengthAdjust="spacingAndGlyphs" textLength="81" x="1497" y="157.2104">-Data endDate</text><text fill="#000000" font-family="sans-serif" font-size="11" lengthAdjust="spacingAndGlyphs" textLength="76" x="1497" y="170.0151">-double delay</text><text fill="#000000" font-family="sans-serif" font-size="11" lengthAdjust="spacingAndGlyphs" textLength="157" x="1497" y="182.8198">-String descriptionOfQuality</text><!--MD5=[83bb469d45366b675450ee1d8d93a557]
link Freelancer to Transaction--><path d="M797.3128,195.1897 C806.9673,202.7251 817.144,210.3013 827,217 C853.6718,235.1277 864.8279,232.8415 890,253 C916.5381,274.2524 942.1288,304.2093 957.7116,323.8598 " fill="none" id="Freelancer-Transaction" style="stroke: #A80036; stroke-width: 1.0;"/><text fill="#000000" font-family="sans-serif" font-size="13" lengthAdjust="spacingAndGlyphs" textLength="46" x="829" y="213.0669">receive</text><polygon fill="#000000" points="878,207.0664,884,210.0664,878,213.0664,878,207.0664" style="stroke: #000000; stroke-width: 1.0;"/><text fill="#000000" font-family="sans-serif" font-size="13" lengthAdjust="spacingAndGlyphs" textLength="8" x="804.9505" y="214.2794">1</text><text fill="#000000" font-family="sans-serif" font-size="13" lengthAdjust="spacingAndGlyphs" textLength="8" x="944.0456" y="312.8269">1</text><!--MD5=[8853e9d83a8841c20c4ef075af762602]
link Task to Freelancer--><path d="M1223.8629,245.4665 C1114.7247,224.304 896.1769,181.9263 797.4567,162.7839 " fill="none" id="Task-Freelancer" style="stroke: #A80036; stroke-width: 1.0;"/><polygon fill="#000000" points="945.5,177.0664,939.5,180.0664,945.5,183.0664,945.5,177.0664" style="stroke: #000000; stroke-width: 1.0;"/><text fill="#000000" font-family="sans-serif" font-size="13" lengthAdjust="spacingAndGlyphs" textLength="56" x="951.5" y="183.0669">made by</text><text fill="#000000" font-family="sans-serif" font-size="13" lengthAdjust="spacingAndGlyphs" textLength="23" x="1193.0113" y="257.03">1..*</text><text fill="#000000" font-family="sans-serif" font-size="13" lengthAdjust="spacingAndGlyphs" textLength="8" x="805.1147" y="177.3165">1</text><!--MD5=[3781be57b219e856d6dd67e0b949b069]
link Platform to Transaction--><path d="M57.3741,291.0494 C86.2712,349.5625 180.0635,516 312,516 C312,516 312,516 747,516 C846.3532,516 929.319,409.4389 960.1414,364.0672 " fill="none" id="Platform-Transaction" style="stroke: #A80036; stroke-width: 1.0;"/><text fill="#000000" font-family="sans-serif" font-size="13" lengthAdjust="spacingAndGlyphs" textLength="23" x="501.5" y="512.0669">has</text><polygon fill="#000000" points="527.5,506.0664,533.5,509.0664,527.5,512.0664,527.5,506.0664" style="stroke: #000000; stroke-width: 1.0;"/><text fill="#000000" font-family="sans-serif" font-size="13" lengthAdjust="spacingAndGlyphs" textLength="8" x="50.9527" y="311.2284">1</text><text fill="#000000" font-family="sans-serif" font-size="13" lengthAdjust="spacingAndGlyphs" textLength="23" x="930.2905" y="383.906">1..*</text><!--MD5=[7640e466c042ba2d6f9c19c816f7f0fc]
link Platform to Organization--><path d="M90.1235,271 C135.2517,271 207.0707,271 256.716,271 " fill="none" id="Platform-Organization" style="stroke: #A80036; stroke-width: 1.0;"/><text fill="#000000" font-family="sans-serif" font-size="13" lengthAdjust="spacingAndGlyphs" textLength="92" x="121" y="267.0669">has registered</text><polygon fill="#000000" points="216,261.0664,222,264.0664,216,267.0664,216,261.0664" style="stroke: #000000; stroke-width: 1.0;"/><text fill="#000000" font-family="sans-serif" font-size="13" lengthAdjust="spacingAndGlyphs" textLength="8" x="98.051" y="284.3674">1</text><text fill="#000000" font-family="sans-serif" font-size="13" lengthAdjust="spacingAndGlyphs" textLength="23" x="225.9941" y="283.9178">1..*</text><!--MD5=[22697d4d863c2e08ab1d60ca0d61f844]
link Platform to Freelancer--><path d="M88.1103,250.9765 C160.9586,215.8544 320.8251,144.4572 465,119 C512.7065,110.5764 525.7834,114.3068 574,119 C615.7375,123.0625 662.3486,132.5142 696.6639,140.4235 " fill="none" id="Platform-Freelancer" style="stroke: #A80036; stroke-width: 1.0;"/><text fill="#000000" font-family="sans-serif" font-size="13" lengthAdjust="spacingAndGlyphs" textLength="23" x="398" y="122.0669">has</text><polygon fill="#000000" points="424,116.0664,430,119.0664,424,122.0664,424,116.0664" style="stroke: #000000; stroke-width: 1.0;"/><text fill="#000000" font-family="sans-serif" font-size="13" lengthAdjust="spacingAndGlyphs" textLength="8" x="90.7177" y="239.9779">1</text><text fill="#000000" font-family="sans-serif" font-size="13" lengthAdjust="spacingAndGlyphs" textLength="23" x="666.1276" y="151.9022">1..*</text><!--MD5=[bc039f41cf0b27fadee5cae63fc6e1fe]
link Organization to Manager--><path d="M367.0614,244.199 C401.0396,227.6602 444.0283,206.7356 475.6858,191.3264 " fill="none" id="Organization-Manager" style="stroke: #A80036; stroke-width: 1.0;"/><text fill="#000000" font-family="sans-serif" font-size="13" lengthAdjust="spacingAndGlyphs" textLength="23" x="398" y="208.0669">has</text><polygon fill="#000000" points="424,202.0664,430,205.0664,424,208.0664,424,202.0664" style="stroke: #000000; stroke-width: 1.0;"/><text fill="#000000" font-family="sans-serif" font-size="13" lengthAdjust="spacingAndGlyphs" textLength="8" x="374.9978" y="253.6534">1</text><text fill="#000000" font-family="sans-serif" font-size="13" lengthAdjust="spacingAndGlyphs" textLength="8" x="460.0654" y="208.0292">1</text><!--MD5=[45817597bcd7048073a670d966abfd17]
link Organization to Collaborator--><path d="M367.0614,271 C397.3176,271 434.7184,271 464.9013,271 " fill="none" id="Organization-Collaborator" style="stroke: #A80036; stroke-width: 1.0;"/><text fill="#000000" font-family="sans-serif" font-size="13" lengthAdjust="spacingAndGlyphs" textLength="23" x="398" y="267.0669">has</text><polygon fill="#000000" points="424,261.0664,430,264.0664,424,267.0664,424,261.0664" style="stroke: #000000; stroke-width: 1.0;"/><text fill="#000000" font-family="sans-serif" font-size="13" lengthAdjust="spacingAndGlyphs" textLength="8" x="374.9978" y="284.0558">1</text><text fill="#000000" font-family="sans-serif" font-size="13" lengthAdjust="spacingAndGlyphs" textLength="8" x="449.0271" y="284.1099">1</text><!--MD5=[4078351e3988aa35b1504a42837f2ab1]
link Organization to Task--><path d="M338.9548,310.2127 C374.4518,356.715 441.5748,428 519.5,428 C519.5,428 519.5,428 973,428 C1077.4596,428 1105.1738,402.9701 1194,348 C1208.1602,339.237 1221.9791,328.087 1234.4855,316.643 " fill="none" id="Organization-Task" style="stroke: #A80036; stroke-width: 1.0;"/><text fill="#000000" font-family="sans-serif" font-size="13" lengthAdjust="spacingAndGlyphs" textLength="23" x="729" y="424.0669">has</text><polygon fill="#000000" points="755,418.0664,761,421.0664,755,424.0664,755,418.0664" style="stroke: #000000; stroke-width: 1.0;"/><text fill="#000000" font-family="sans-serif" font-size="13" lengthAdjust="spacingAndGlyphs" textLength="8" x="335.0436" y="330.5752">1</text><text fill="#000000" font-family="sans-serif" font-size="13" lengthAdjust="spacingAndGlyphs" textLength="23" x="1203.9104" y="336.3753">1..*</text><!--MD5=[8e4873cec2cb3febaaa9495c716fc885]
link Transaction to Task--><path d="M1026.1696,342.6989 C1071.8145,340.2029 1138.7819,333.2188 1194,314 C1203.996,310.5209 1214.0994,305.9182 1223.7938,300.8427 " fill="none" id="Transaction-Task" style="stroke: #A80036; stroke-width: 1.0;"/><text fill="#000000" font-family="sans-serif" font-size="13" lengthAdjust="spacingAndGlyphs" textLength="23" x="1107" y="310.0669">has</text><polygon fill="#000000" points="1133,304.0664,1139,307.0664,1133,310.0664,1133,304.0664" style="stroke: #000000; stroke-width: 1.0;"/><text fill="#000000" font-family="sans-serif" font-size="13" lengthAdjust="spacingAndGlyphs" textLength="8" x="1033.8518" y="338.5921">1</text><text fill="#000000" font-family="sans-serif" font-size="13" lengthAdjust="spacingAndGlyphs" textLength="8" x="1207.8496" y="318.7481">1</text><!--MD5=[590de1eb4160e0577c453d6e7f1b2aac]
link Transaction to TaskExecution--><path d="M1026.1699,357.166 C1101.697,373.2073 1243.0771,393.2987 1353,351 C1437.2926,318.564 1509.5288,237.7699 1547.333,189.0642 " fill="none" id="Transaction-TaskExecution" style="stroke: #A80036; stroke-width: 1.0;"/><text fill="#000000" font-family="sans-serif" font-size="13" lengthAdjust="spacingAndGlyphs" textLength="23" x="1270.5" y="347.0669">has</text><polygon fill="#000000" points="1296.5,341.0664,1302.5,344.0664,1296.5,347.0664,1296.5,341.0664" style="stroke: #000000; stroke-width: 1.0;"/><text fill="#000000" font-family="sans-serif" font-size="13" lengthAdjust="spacingAndGlyphs" textLength="8" x="1033.8521" y="372.0188">1</text><text fill="#000000" font-family="sans-serif" font-size="13" lengthAdjust="spacingAndGlyphs" textLength="8" x="1533.6033" y="209.4003">1</text><!--MD5=[d2c3650dbd07e79cdad2ffd4a879dec6]
link Collaborator to Freelancer--><path d="M574.2814,242.5859 C611.6213,223.2184 660.679,197.7731 696.9664,178.9515 " fill="none" id="Collaborator-Freelancer" style="stroke: #A80036; stroke-width: 1.0;"/><text fill="#000000" font-family="sans-serif" font-size="13" lengthAdjust="spacingAndGlyphs" textLength="48" x="605" y="191.0669">creates</text><polygon fill="#000000" points="656,185.0664,662,188.0664,656,191.0664,656,185.0664" style="stroke: #000000; stroke-width: 1.0;"/><text fill="#000000" font-family="sans-serif" font-size="13" lengthAdjust="spacingAndGlyphs" textLength="8" x="582.1802" y="251.8776">1</text><text fill="#000000" font-family="sans-serif" font-size="13" lengthAdjust="spacingAndGlyphs" textLength="8" x="681.0302" y="195.9683">1</text><!--MD5=[f919d21ae7a75ef5ececc535e09d5009]
link Collaborator to Task--><path d="M574.207,272.621 C635.6924,274.3554 738.4965,276.9928 827,278 C968.7385,279.6131 1134.75,269.4649 1223.9511,263.0271 " fill="none" id="Collaborator-Task" style="stroke: #A80036; stroke-width: 1.0;"/><text fill="#000000" font-family="sans-serif" font-size="13" lengthAdjust="spacingAndGlyphs" textLength="48" x="828" y="274.0669">creates</text><polygon fill="#000000" points="879,268.0664,885,271.0664,879,274.0664,879,268.0664" style="stroke: #000000; stroke-width: 1.0;"/><text fill="#000000" font-family="sans-serif" font-size="13" lengthAdjust="spacingAndGlyphs" textLength="8" x="582.0958" y="285.9487">1</text><text fill="#000000" font-family="sans-serif" font-size="13" lengthAdjust="spacingAndGlyphs" textLength="23" x="1193.1086" y="276.4016">1..*</text><!--MD5=[8b5db564ea9bd1758097b07ca3fd81a4]
link Collaborator to Transaction--><path d="M574.2389,288.868 C584.0907,291.7902 594.3084,294.6319 604,297 C714.4126,323.9788 847.4181,336.0766 919.764,341.0031 " fill="none" id="Collaborator-Transaction" style="stroke: #A80036; stroke-width: 1.0;"/><text fill="#000000" font-family="sans-serif" font-size="13" lengthAdjust="spacingAndGlyphs" textLength="48" x="716.5" y="312.0669">creates</text><polygon fill="#000000" points="767.5,306.0664,773.5,309.0664,767.5,312.0664,767.5,306.0664" style="stroke: #000000; stroke-width: 1.0;"/><text fill="#000000" font-family="sans-serif" font-size="13" lengthAdjust="spacingAndGlyphs" textLength="8" x="582.1319" y="304.3789">1</text><text fill="#000000" font-family="sans-serif" font-size="13" lengthAdjust="spacingAndGlyphs" textLength="23" x="888.8743" y="353.6269">1..*</text><!--MD5=[ff0537dd903a7a771fc0cea37037e59c]
link Collaborator to TaskExecution--><path d="M557.83,237.7273 C563.5248,232.0628 569.1142,226.0482 574,220 C590.2851,199.8406 588.4243,190.7123 604,170 C640.4785,121.4915 653.7339,112.5653 697,70 C718.3122,49.033 717.1031,25 747,25 C747,25 747,25 1288.5,25 C1375.8631,25 1466.6733,74.287 1522.1546,110.9634 " fill="none" id="Collaborator-TaskExecution" style="stroke: #A80036; stroke-width: 1.0;"/><text fill="#000000" font-family="sans-serif" font-size="13" lengthAdjust="spacingAndGlyphs" textLength="67" x="933" y="21.0669">introduces</text><polygon fill="#000000" points="1003,15.0664,1009,18.0664,1003,21.0664,1003,15.0664" style="stroke: #000000; stroke-width: 1.0;"/><text fill="#000000" font-family="sans-serif" font-size="13" lengthAdjust="spacingAndGlyphs" textLength="8" x="556.5887" y="226.8186">1</text><text fill="#000000" font-family="sans-serif" font-size="13" lengthAdjust="spacingAndGlyphs" textLength="8" x="1504.2984" y="100.0076">1</text><!--MD5=[b5492b811c5199351212545c210346d5]
link TaskExecution to Freelancer--><path d="M1490.8073,149.8367 C1361.3447,149.5962 1106.4504,149.1579 890,149 C862,148.9796 854.9913,148.3007 827,149 C817.4077,149.2397 807.1745,149.6407 797.3427,150.0988 " fill="none" id="TaskExecution-Freelancer" style="stroke: #A80036; stroke-width: 1.0;"/><text fill="#000000" font-family="sans-serif" font-size="13" lengthAdjust="spacingAndGlyphs" textLength="136" x="1057" y="146.0669">related to the work of</text><text fill="#000000" font-family="sans-serif" font-size="13" lengthAdjust="spacingAndGlyphs" textLength="8" x="1474.9081" y="162.5445">1</text><text fill="#000000" font-family="sans-serif" font-size="13" lengthAdjust="spacingAndGlyphs" textLength="8" x="804.9846" y="145.7382">1</text><!--MD5=[bdc7b78a1b1f03a53fec8289ba75cac4]
link Task to TaskExecution--><path d="M1353.2663,233.628 C1393.9368,218.3234 1446.8282,198.42 1490.8082,181.8701 " fill="none" id="Task-TaskExecution" style="stroke: #A80036; stroke-width: 1.0;"/><text fill="#000000" font-family="sans-serif" font-size="13" lengthAdjust="spacingAndGlyphs" textLength="63" x="1384" y="191.0669">originates</text><polygon fill="#000000" points="1450,185.0664,1456,188.0664,1450,191.0664,1450,185.0664" style="stroke: #000000; stroke-width: 1.0;"/><text fill="#000000" font-family="sans-serif" font-size="13" lengthAdjust="spacingAndGlyphs" textLength="8" x="1360.7876" y="243.8662">1</text><text fill="#000000" font-family="sans-serif" font-size="13" lengthAdjust="spacingAndGlyphs" textLength="8" x="1474.9091" y="197.4309">1</text><!--MD5=[f8078b762188fc536981ce8f70908c89]
@startuml
skinparam classAttributeIconSize 0
hide methods
left to right direction

class Platform{
}
class Freelancer {
  -String freeID
  -String name
  -String levelExp
  -String email
  -String nif
  -String iban
  -String country
}

class Organization {
  -String nome
  -String email
  -String nif
}

class Collaborator{
  -String nome
  -String email
}

class Task {
  -String idT
  -String description
  -Time timeDuration
  -double costHour
  -String taskCategory
  -Boolean isPayed
}

class Manager {
  -String nome
  -String email
}


class Transaction {

}
class TaskExecution{
  -Data endDate
  -double delay
  -String descriptionOfQuality
  }

Freelancer "1" - - "1" Transaction: receive >

Task "1..*" - - "1" Freelancer: made by >


Platform "1" - - "1..*" Transaction: has >
Platform "1" - - "1..*" Organization: has registered >
Platform "1" - - "1..*" Freelancer: has >


Organization "1" - - "1" Manager: has >
Organization "1" - - "1" Collaborator: has >
Organization "1" - - "1..*" Task: has >

Transaction "1" - - "1" Task: has >
Transaction "1" - - "1" TaskExecution: has >

Collaborator "1" - - "1" Freelancer: creates >
Collaborator "1" - - "1..*" Task: creates >
Collaborator "1" - - "1..*" Transaction: creates >
Collaborator "1" - - "1" TaskExecution: introduces >

TaskExecution "1" - - "1" Freelancer: related to the work of

Task "1" - - "1" TaskExecution : originates >
@enduml

PlantUML version 1.2019.12(Sun Nov 03 10:24:54 UTC 2019)
(GPL source distribution)
Java Runtime: OpenJDK Runtime Environment
JVM: OpenJDK 64-Bit Server VM
Java Version: 1.8.0_232-heroku-b09
Operating System: Linux
Default Encoding: UTF-8
Language: en
Country: US
--></g></svg>