<?xml version="1.0" encoding="UTF-8" standalone="no"?><svg xmlns="http://www.w3.org/2000/svg" xmlns:xlink="http://www.w3.org/1999/xlink" contentScriptType="application/ecmascript" contentStyleType="text/css" height="518px" preserveAspectRatio="none" style="width:1436px;height:518px;" version="1.1" viewBox="0 0 1436 518" width="1436px" zoomAndPan="magnify"><defs><filter height="300%" id="f1ezupmk36x8bb" width="300%" x="-1" y="-1"><feGaussianBlur result="blurOut" stdDeviation="2.0"/><feColorMatrix in="blurOut" result="blurOut2" type="matrix" values="0 0 0 0 0 0 0 0 0 0 0 0 0 0 0 0 0 0 .4 0"/><feOffset dx="4.0" dy="4.0" in="blurOut2" result="blurOut3"/><feBlend in="SourceGraphic" in2="blurOut3" mode="normal"/></filter></defs><g><!--MD5=[99b8db98afdc2c8404e39242ef4c1e65]
class Platform--><rect fill="#FEFECE" filter="url(#f1ezupmk36x8bb)" height="40" id="Platform" style="stroke: #A80036; stroke-width: 1.5;" width="84" x="6" y="132"/><ellipse cx="21" cy="148" fill="#ADD1B2" rx="11" ry="11" style="stroke: #A80036; stroke-width: 1.0;"/><path d="M23.9688,153.6406 Q23.3906,153.9375 22.75,154.0859 Q22.1094,154.2344 21.4063,154.2344 Q18.9063,154.2344 17.5859,152.5859 Q16.2656,150.9375 16.2656,147.8125 Q16.2656,144.6875 17.5859,143.0313 Q18.9063,141.375 21.4063,141.375 Q22.1094,141.375 22.7578,141.5313 Q23.4063,141.6875 23.9688,141.9844 L23.9688,144.7031 Q23.3438,144.125 22.75,143.8516 Q22.1563,143.5781 21.5313,143.5781 Q20.1875,143.5781 19.5,144.6484 Q18.8125,145.7188 18.8125,147.8125 Q18.8125,149.9063 19.5,150.9766 Q20.1875,152.0469 21.5313,152.0469 Q22.1563,152.0469 22.75,151.7734 Q23.3438,151.5 23.9688,150.9219 L23.9688,153.6406 Z "/><text fill="#000000" font-family="sans-serif" font-size="12" lengthAdjust="spacingAndGlyphs" textLength="52" x="35" y="152.1543">Platform</text><line style="stroke: #A80036; stroke-width: 1.5;" x1="7" x2="89" y1="164" y2="164"/><!--MD5=[1f687b5315377fe49fca59b457947463]
class Freelancer--><rect fill="#FEFECE" filter="url(#f1ezupmk36x8bb)" height="129.6328" id="Freelancer" style="stroke: #A80036; stroke-width: 1.5;" width="100" x="1072" y="153"/><ellipse cx="1087.45" cy="169" fill="#ADD1B2" rx="11" ry="11" style="stroke: #A80036; stroke-width: 1.0;"/><path d="M1090.4188,174.6406 Q1089.8406,174.9375 1089.2,175.0859 Q1088.5594,175.2344 1087.8563,175.2344 Q1085.3563,175.2344 1084.0359,173.5859 Q1082.7156,171.9375 1082.7156,168.8125 Q1082.7156,165.6875 1084.0359,164.0313 Q1085.3563,162.375 1087.8563,162.375 Q1088.5594,162.375 1089.2078,162.5313 Q1089.8563,162.6875 1090.4188,162.9844 L1090.4188,165.7031 Q1089.7938,165.125 1089.2,164.8516 Q1088.6063,164.5781 1087.9813,164.5781 Q1086.6375,164.5781 1085.95,165.6484 Q1085.2625,166.7188 1085.2625,168.8125 Q1085.2625,170.9063 1085.95,171.9766 Q1086.6375,173.0469 1087.9813,173.0469 Q1088.6063,173.0469 1089.2,172.7734 Q1089.7938,172.5 1090.4188,171.9219 L1090.4188,174.6406 Z "/><text fill="#000000" font-family="sans-serif" font-size="12" lengthAdjust="spacingAndGlyphs" textLength="67" x="1101.55" y="173.1543">Freelancer</text><line style="stroke: #A80036; stroke-width: 1.5;" x1="1073" x2="1171" y1="185" y2="185"/><text fill="#000000" font-family="sans-serif" font-size="11" lengthAdjust="spacingAndGlyphs" textLength="76" x="1078" y="199.2104">-String freeID</text><text fill="#000000" font-family="sans-serif" font-size="11" lengthAdjust="spacingAndGlyphs" textLength="74" x="1078" y="212.0151">-String name</text><text fill="#000000" font-family="sans-serif" font-size="11" lengthAdjust="spacingAndGlyphs" textLength="88" x="1078" y="224.8198">-String levelExp</text><text fill="#000000" font-family="sans-serif" font-size="11" lengthAdjust="spacingAndGlyphs" textLength="73" x="1078" y="237.6245">-String email</text><text fill="#000000" font-family="sans-serif" font-size="11" lengthAdjust="spacingAndGlyphs" textLength="56" x="1078" y="250.4292">-String nif</text><text fill="#000000" font-family="sans-serif" font-size="11" lengthAdjust="spacingAndGlyphs" textLength="66" x="1078" y="263.2339">-String iban</text><text fill="#000000" font-family="sans-serif" font-size="11" lengthAdjust="spacingAndGlyphs" textLength="84" x="1078" y="276.0386">-String country</text><!--MD5=[f483d6e5de34a60207b28a5563be5e8b]
class Collaborator--><rect fill="#FEFECE" filter="url(#f1ezupmk36x8bb)" height="78.4141" id="Collaborator" style="stroke: #A80036; stroke-width: 1.5;" width="109" x="259" y="231"/><ellipse cx="274" cy="247" fill="#ADD1B2" rx="11" ry="11" style="stroke: #A80036; stroke-width: 1.0;"/><path d="M276.9688,252.6406 Q276.3906,252.9375 275.75,253.0859 Q275.1094,253.2344 274.4063,253.2344 Q271.9063,253.2344 270.5859,251.5859 Q269.2656,249.9375 269.2656,246.8125 Q269.2656,243.6875 270.5859,242.0313 Q271.9063,240.375 274.4063,240.375 Q275.1094,240.375 275.7578,240.5313 Q276.4063,240.6875 276.9688,240.9844 L276.9688,243.7031 Q276.3438,243.125 275.75,242.8516 Q275.1563,242.5781 274.5313,242.5781 Q273.1875,242.5781 272.5,243.6484 Q271.8125,244.7188 271.8125,246.8125 Q271.8125,248.9063 272.5,249.9766 Q273.1875,251.0469 274.5313,251.0469 Q275.1563,251.0469 275.75,250.7734 Q276.3438,250.5 276.9688,249.9219 L276.9688,252.6406 Z "/><text fill="#000000" font-family="sans-serif" font-size="12" lengthAdjust="spacingAndGlyphs" textLength="77" x="288" y="251.1543">Collaborator</text><line style="stroke: #A80036; stroke-width: 1.5;" x1="260" x2="367" y1="263" y2="263"/><text fill="#000000" font-family="sans-serif" font-size="11" lengthAdjust="spacingAndGlyphs" textLength="82" x="265" y="277.2104">-String nameC</text><text fill="#000000" font-family="sans-serif" font-size="11" lengthAdjust="spacingAndGlyphs" textLength="81" x="265" y="290.0151">-String emailC</text><text fill="#000000" font-family="sans-serif" font-size="11" lengthAdjust="spacingAndGlyphs" textLength="64" x="265" y="302.8198">-String role</text><!--MD5=[b34797a66dc35cbf1d65f7e3ca75530e]
class Task--><rect fill="#FEFECE" filter="url(#f1ezupmk36x8bb)" height="129.6328" id="Task" style="stroke: #A80036; stroke-width: 1.5;" width="129" x="794" y="241"/><ellipse cx="839.75" cy="257" fill="#ADD1B2" rx="11" ry="11" style="stroke: #A80036; stroke-width: 1.0;"/><path d="M842.7188,262.6406 Q842.1406,262.9375 841.5,263.0859 Q840.8594,263.2344 840.1563,263.2344 Q837.6563,263.2344 836.3359,261.5859 Q835.0156,259.9375 835.0156,256.8125 Q835.0156,253.6875 836.3359,252.0313 Q837.6563,250.375 840.1563,250.375 Q840.8594,250.375 841.5078,250.5313 Q842.1563,250.6875 842.7188,250.9844 L842.7188,253.7031 Q842.0938,253.125 841.5,252.8516 Q840.9063,252.5781 840.2813,252.5781 Q838.9375,252.5781 838.25,253.6484 Q837.5625,254.7188 837.5625,256.8125 Q837.5625,258.9063 838.25,259.9766 Q838.9375,261.0469 840.2813,261.0469 Q840.9063,261.0469 841.5,260.7734 Q842.0938,260.5 842.7188,259.9219 L842.7188,262.6406 Z "/><text fill="#000000" font-family="sans-serif" font-size="12" lengthAdjust="spacingAndGlyphs" textLength="29" x="860.25" y="261.1543">Task</text><line style="stroke: #A80036; stroke-width: 1.5;" x1="795" x2="922" y1="273" y2="273"/><text fill="#000000" font-family="sans-serif" font-size="11" lengthAdjust="spacingAndGlyphs" textLength="79" x="800" y="287.2104">-String idTask</text><text fill="#000000" font-family="sans-serif" font-size="11" lengthAdjust="spacingAndGlyphs" textLength="105" x="800" y="300.0151">-String description</text><text fill="#000000" font-family="sans-serif" font-size="11" lengthAdjust="spacingAndGlyphs" textLength="74" x="800" y="312.8198">-int timeTask</text><text fill="#000000" font-family="sans-serif" font-size="11" lengthAdjust="spacingAndGlyphs" textLength="97" x="800" y="325.6245">-double costHour</text><text fill="#000000" font-family="sans-serif" font-size="11" lengthAdjust="spacingAndGlyphs" textLength="117" x="800" y="338.4292">-String taskCategory</text><text fill="#000000" font-family="sans-serif" font-size="11" lengthAdjust="spacingAndGlyphs" textLength="97" x="800" y="351.2339">-boolean isPayed</text><text fill="#000000" font-family="sans-serif" font-size="11" lengthAdjust="spacingAndGlyphs" textLength="110" x="800" y="364.0386">-boolean isFinished</text><!--MD5=[b24ed8d4ae84bae9290d9aab401637c7]
class Manager--><rect fill="#FEFECE" filter="url(#f1ezupmk36x8bb)" height="78.4141" id="Manager" style="stroke: #A80036; stroke-width: 1.5;" width="95" x="266" y="392"/><ellipse cx="284.6" cy="408" fill="#ADD1B2" rx="11" ry="11" style="stroke: #A80036; stroke-width: 1.0;"/><path d="M287.5688,413.6406 Q286.9906,413.9375 286.35,414.0859 Q285.7094,414.2344 285.0063,414.2344 Q282.5063,414.2344 281.1859,412.5859 Q279.8656,410.9375 279.8656,407.8125 Q279.8656,404.6875 281.1859,403.0313 Q282.5063,401.375 285.0063,401.375 Q285.7094,401.375 286.3578,401.5313 Q287.0063,401.6875 287.5688,401.9844 L287.5688,404.7031 Q286.9438,404.125 286.35,403.8516 Q285.7563,403.5781 285.1313,403.5781 Q283.7875,403.5781 283.1,404.6484 Q282.4125,405.7188 282.4125,407.8125 Q282.4125,409.9063 283.1,410.9766 Q283.7875,412.0469 285.1313,412.0469 Q285.7563,412.0469 286.35,411.7734 Q286.9438,411.5 287.5688,410.9219 L287.5688,413.6406 Z "/><text fill="#000000" font-family="sans-serif" font-size="12" lengthAdjust="spacingAndGlyphs" textLength="55" x="299.4" y="412.1543">Manager</text><line style="stroke: #A80036; stroke-width: 1.5;" x1="267" x2="360" y1="424" y2="424"/><text fill="#000000" font-family="sans-serif" font-size="11" lengthAdjust="spacingAndGlyphs" textLength="83" x="272" y="438.2104">-String nameM</text><text fill="#000000" font-family="sans-serif" font-size="11" lengthAdjust="spacingAndGlyphs" textLength="82" x="272" y="451.0151">-String emailM</text><text fill="#000000" font-family="sans-serif" font-size="11" lengthAdjust="spacingAndGlyphs" textLength="64" x="272" y="463.8198">-String role</text><!--MD5=[3fd616f346a44cd59a91eb10b19e157c]
class User--><rect fill="#FEFECE" filter="url(#f1ezupmk36x8bb)" height="40" id="User" style="stroke: #A80036; stroke-width: 1.5;" width="61" x="545" y="467"/><ellipse cx="560" cy="483" fill="#ADD1B2" rx="11" ry="11" style="stroke: #A80036; stroke-width: 1.0;"/><path d="M562.9688,488.6406 Q562.3906,488.9375 561.75,489.0859 Q561.1094,489.2344 560.4063,489.2344 Q557.9063,489.2344 556.5859,487.5859 Q555.2656,485.9375 555.2656,482.8125 Q555.2656,479.6875 556.5859,478.0313 Q557.9063,476.375 560.4063,476.375 Q561.1094,476.375 561.7578,476.5313 Q562.4063,476.6875 562.9688,476.9844 L562.9688,479.7031 Q562.3438,479.125 561.75,478.8516 Q561.1563,478.5781 560.5313,478.5781 Q559.1875,478.5781 558.5,479.6484 Q557.8125,480.7188 557.8125,482.8125 Q557.8125,484.9063 558.5,485.9766 Q559.1875,487.0469 560.5313,487.0469 Q561.1563,487.0469 561.75,486.7734 Q562.3438,486.5 562.9688,485.9219 L562.9688,488.6406 Z "/><text fill="#000000" font-family="sans-serif" font-size="12" lengthAdjust="spacingAndGlyphs" textLength="29" x="574" y="487.1543">User</text><line style="stroke: #A80036; stroke-width: 1.5;" x1="546" x2="605" y1="499" y2="499"/><!--MD5=[4045d6f6a06909f8c0c16b57fdb55c63]
class TransactionExecution--><rect fill="#FEFECE" filter="url(#f1ezupmk36x8bb)" height="91.2188" id="TransactionExecution" style="stroke: #A80036; stroke-width: 1.5;" width="169" x="491" y="340.5"/><ellipse cx="506.9" cy="356.5" fill="#ADD1B2" rx="11" ry="11" style="stroke: #A80036; stroke-width: 1.0;"/><path d="M509.8688,362.1406 Q509.2906,362.4375 508.65,362.5859 Q508.0094,362.7344 507.3063,362.7344 Q504.8063,362.7344 503.4859,361.0859 Q502.1656,359.4375 502.1656,356.3125 Q502.1656,353.1875 503.4859,351.5313 Q504.8063,349.875 507.3063,349.875 Q508.0094,349.875 508.6578,350.0313 Q509.3063,350.1875 509.8688,350.4844 L509.8688,353.2031 Q509.2438,352.625 508.65,352.3516 Q508.0563,352.0781 507.4313,352.0781 Q506.0875,352.0781 505.4,353.1484 Q504.7125,354.2188 504.7125,356.3125 Q504.7125,358.4063 505.4,359.4766 Q506.0875,360.5469 507.4313,360.5469 Q508.0563,360.5469 508.65,360.2734 Q509.2438,360 509.8688,359.4219 L509.8688,362.1406 Z "/><text fill="#000000" font-family="sans-serif" font-size="12" lengthAdjust="spacingAndGlyphs" textLength="135" x="521.1" y="360.6543">TransactionExecution</text><line style="stroke: #A80036; stroke-width: 1.5;" x1="492" x2="659" y1="372.5" y2="372.5"/><text fill="#000000" font-family="sans-serif" font-size="11" lengthAdjust="spacingAndGlyphs" textLength="81" x="497" y="386.7104">-Date endDate</text><text fill="#000000" font-family="sans-serif" font-size="11" lengthAdjust="spacingAndGlyphs" textLength="76" x="497" y="399.5151">-double delay</text><text fill="#000000" font-family="sans-serif" font-size="11" lengthAdjust="spacingAndGlyphs" textLength="157" x="497" y="412.3198">-String descriptionOfQuality</text><text fill="#000000" font-family="sans-serif" font-size="11" lengthAdjust="spacingAndGlyphs" textLength="63" x="497" y="425.1245">-int transID</text><!--MD5=[0f39e4cb6f03951afbf6d14bd2505654]
class Address--><rect fill="#FEFECE" filter="url(#f1ezupmk36x8bb)" height="78.4141" id="Address" style="stroke: #A80036; stroke-width: 1.5;" width="125" x="1300" y="179"/><ellipse cx="1333.9" cy="195" fill="#ADD1B2" rx="11" ry="11" style="stroke: #A80036; stroke-width: 1.0;"/><path d="M1336.8688,200.6406 Q1336.2906,200.9375 1335.65,201.0859 Q1335.0094,201.2344 1334.3063,201.2344 Q1331.8063,201.2344 1330.4859,199.5859 Q1329.1656,197.9375 1329.1656,194.8125 Q1329.1656,191.6875 1330.4859,190.0313 Q1331.8063,188.375 1334.3063,188.375 Q1335.0094,188.375 1335.6578,188.5313 Q1336.3063,188.6875 1336.8688,188.9844 L1336.8688,191.7031 Q1336.2438,191.125 1335.65,190.8516 Q1335.0563,190.5781 1334.4313,190.5781 Q1333.0875,190.5781 1332.4,191.6484 Q1331.7125,192.7188 1331.7125,194.8125 Q1331.7125,196.9063 1332.4,197.9766 Q1333.0875,199.0469 1334.4313,199.0469 Q1335.0563,199.0469 1335.65,198.7734 Q1336.2438,198.5 1336.8688,197.9219 L1336.8688,200.6406 Z "/><text fill="#000000" font-family="sans-serif" font-size="12" lengthAdjust="spacingAndGlyphs" textLength="51" x="1352.1" y="199.1543">Address</text><line style="stroke: #A80036; stroke-width: 1.5;" x1="1301" x2="1424" y1="211" y2="211"/><text fill="#000000" font-family="sans-serif" font-size="11" lengthAdjust="spacingAndGlyphs" textLength="76" x="1306" y="225.2104">-String street</text><text fill="#000000" font-family="sans-serif" font-size="11" lengthAdjust="spacingAndGlyphs" textLength="113" x="1306" y="238.0151">-String doorNumber</text><text fill="#000000" font-family="sans-serif" font-size="11" lengthAdjust="spacingAndGlyphs" textLength="81" x="1306" y="250.8198">-String locality</text><!--MD5=[764fca796ce7f635542948d8fc39db5e]
class Payment--><rect fill="#FEFECE" filter="url(#f1ezupmk36x8bb)" height="65.6094" id="Payment" style="stroke: #A80036; stroke-width: 1.5;" width="96" x="1314.5" y="341"/><ellipse cx="1334" cy="357" fill="#ADD1B2" rx="11" ry="11" style="stroke: #A80036; stroke-width: 1.0;"/><path d="M1336.9688,362.6406 Q1336.3906,362.9375 1335.75,363.0859 Q1335.1094,363.2344 1334.4063,363.2344 Q1331.9063,363.2344 1330.5859,361.5859 Q1329.2656,359.9375 1329.2656,356.8125 Q1329.2656,353.6875 1330.5859,352.0313 Q1331.9063,350.375 1334.4063,350.375 Q1335.1094,350.375 1335.7578,350.5313 Q1336.4063,350.6875 1336.9688,350.9844 L1336.9688,353.7031 Q1336.3438,353.125 1335.75,352.8516 Q1335.1563,352.5781 1334.5313,352.5781 Q1333.1875,352.5781 1332.5,353.6484 Q1331.8125,354.7188 1331.8125,356.8125 Q1331.8125,358.9063 1332.5,359.9766 Q1333.1875,361.0469 1334.5313,361.0469 Q1335.1563,361.0469 1335.75,360.7734 Q1336.3438,360.5 1336.9688,359.9219 L1336.9688,362.6406 Z "/><text fill="#000000" font-family="sans-serif" font-size="12" lengthAdjust="spacingAndGlyphs" textLength="54" x="1349" y="361.1543">Payment</text><line style="stroke: #A80036; stroke-width: 1.5;" x1="1315.5" x2="1409.5" y1="373" y2="373"/><text fill="#000000" font-family="sans-serif" font-size="11" lengthAdjust="spacingAndGlyphs" textLength="83" x="1320.5" y="387.2104">-double valueE</text><text fill="#000000" font-family="sans-serif" font-size="11" lengthAdjust="spacingAndGlyphs" textLength="84" x="1320.5" y="400.0151">-double valueC</text><!--MD5=[a1bcd49bda1d48eee0717f7ad534cdd6]
link Freelancer to Payment--><path d="M1172.1239,250.5128 C1213.9736,277.6585 1273.2418,316.1028 1314.4904,342.8586 " fill="none" id="Freelancer-Payment" style="stroke: #A80036; stroke-width: 1.0;"/><text fill="#000000" font-family="sans-serif" font-size="13" lengthAdjust="spacingAndGlyphs" textLength="53" x="1203" y="268.0669">receives</text><polygon fill="#000000" points="1259,262.0664,1265,265.0664,1259,268.0664,1259,262.0664" style="stroke: #000000; stroke-width: 1.0;"/><text fill="#000000" font-family="sans-serif" font-size="13" lengthAdjust="spacingAndGlyphs" textLength="8" x="1180.0733" y="268.4933">1</text><text fill="#000000" font-family="sans-serif" font-size="13" lengthAdjust="spacingAndGlyphs" textLength="23" x="1283.4938" y="351.7838">1..*</text><!--MD5=[874150c88719dac3f651931978d26083]
link Freelancer to Address--><path d="M1172.1239,218 C1209.1554,218 1259.8254,218 1299.5808,218 " fill="none" id="Freelancer-Address" style="stroke: #A80036; stroke-width: 1.0;"/><text fill="#000000" font-family="sans-serif" font-size="13" lengthAdjust="spacingAndGlyphs" textLength="23" x="1218" y="214.0669">has</text><polygon fill="#000000" points="1244,208.0664,1250,211.0664,1244,214.0664,1244,208.0664" style="stroke: #000000; stroke-width: 1.0;"/><text fill="#000000" font-family="sans-serif" font-size="13" lengthAdjust="spacingAndGlyphs" textLength="8" x="1180.0733" y="231.2052">1</text><text fill="#000000" font-family="sans-serif" font-size="13" lengthAdjust="spacingAndGlyphs" textLength="8" x="1283.8433" y="230.9178">1</text><!--MD5=[8853e9d83a8841c20c4ef075af762602]
link Task to Freelancer--><path d="M923.2968,284.3601 C969.164,269.042 1029.7763,248.7996 1071.9442,234.7169 " fill="none" id="Task-Freelancer" style="stroke: #A80036; stroke-width: 1.0;"/><text fill="#000000" font-family="sans-serif" font-size="13" lengthAdjust="spacingAndGlyphs" textLength="56" x="968.5" y="242.0669">made by</text><polygon fill="#000000" points="1027.5,236.0664,1033.5,239.0664,1027.5,242.0664,1027.5,236.0664" style="stroke: #000000; stroke-width: 1.0;"/><text fill="#000000" font-family="sans-serif" font-size="13" lengthAdjust="spacingAndGlyphs" textLength="23" x="931.1649" y="294.9946">1..*</text><text fill="#000000" font-family="sans-serif" font-size="13" lengthAdjust="spacingAndGlyphs" textLength="8" x="1056.0048" y="250.3774">1</text><!--MD5=[22697d4d863c2e08ab1d60ca0d61f844]
link Platform to Freelancer--><path d="M65.4265,131.8619 C78.9958,117.2985 99.0009,98.1257 120,86 C198.0883,40.9087 223.3279,25 313.5,25 C313.5,25 313.5,25 858.5,25 C944.4437,25 974.8191,32.3992 1042,86 C1063.9941,103.5481 1081.4044,128.9074 1094.2911,152.7182 " fill="none" id="Platform-Freelancer" style="stroke: #A80036; stroke-width: 1.0;"/><text fill="#000000" font-family="sans-serif" font-size="13" lengthAdjust="spacingAndGlyphs" textLength="23" x="557.5" y="21.0669">has</text><polygon fill="#000000" points="583.5,15.0664,589.5,18.0664,583.5,21.0664,583.5,15.0664" style="stroke: #000000; stroke-width: 1.0;"/><text fill="#000000" font-family="sans-serif" font-size="13" lengthAdjust="spacingAndGlyphs" textLength="8" x="61.3705" y="120.8296">1</text><text fill="#000000" font-family="sans-serif" font-size="13" lengthAdjust="spacingAndGlyphs" textLength="23" x="1067.0026" y="141.8519">1..*</text><!--MD5=[22697d4d863c2e08ab1d60ca0d61f844]
link Platform to Freelancer--><path d="M90.0101,141.699 C142.1063,129.8473 233.7902,112 313.5,112 C313.5,112 313.5,112 858.5,112 C937.3949,112 1020.6008,153.4062 1071.9107,184.4609 " fill="none" id="Platform-Freelancer-1" style="stroke: #A80036; stroke-width: 1.0;"/><text fill="#000000" font-family="sans-serif" font-size="13" lengthAdjust="spacingAndGlyphs" textLength="94" x="522" y="108.0669">sends email to</text><polygon fill="#000000" points="619,102.0664,625,105.0664,619,108.0664,619,102.0664" style="stroke: #000000; stroke-width: 1.0;"/><text fill="#000000" font-family="sans-serif" font-size="13" lengthAdjust="spacingAndGlyphs" textLength="8" x="97.9181" y="153.2959">1</text><text fill="#000000" font-family="sans-serif" font-size="13" lengthAdjust="spacingAndGlyphs" textLength="8" x="1055.9663" y="192.74">1</text><!--MD5=[729d38e941f71726a36b38b157ad7957]
link Platform to Collaborator--><path d="M90.0693,170.6975 C135.6894,190.9731 208.6783,223.4126 258.7398,245.6621 " fill="none" id="Platform-Collaborator" style="stroke: #A80036; stroke-width: 1.0;"/><text fill="#000000" font-family="sans-serif" font-size="13" lengthAdjust="spacingAndGlyphs" textLength="94" x="121" y="182.0669">sends email to</text><polygon fill="#000000" points="218,176.0664,224,179.0664,218,182.0664,218,176.0664" style="stroke: #000000; stroke-width: 1.0;"/><text fill="#000000" font-family="sans-serif" font-size="13" lengthAdjust="spacingAndGlyphs" textLength="8" x="97.9875" y="187.2785">1</text><text fill="#000000" font-family="sans-serif" font-size="13" lengthAdjust="spacingAndGlyphs" textLength="8" x="242.8439" y="255.4475">1</text><!--MD5=[fe099013e52a8d16c3af5f33501aec65]
link Platform to Manager--><path d="M60.0061,172.1553 C73.3718,193.8668 96.2374,228.937 120,256 C165.2763,307.5649 224.7321,359.3871 265.7278,393.1027 " fill="none" id="Platform-Manager" style="stroke: #A80036; stroke-width: 1.0;"/><text fill="#000000" font-family="sans-serif" font-size="13" lengthAdjust="spacingAndGlyphs" textLength="94" x="121" y="252.0669">sends email to</text><polygon fill="#000000" points="163.5,261.1328,166.5,267.1328,169.5,261.1328,163.5,261.1328" style="stroke: #000000; stroke-width: 1.0;"/><text fill="#000000" font-family="sans-serif" font-size="13" lengthAdjust="spacingAndGlyphs" textLength="8" x="54.2578" y="192.0189">1</text><text fill="#000000" font-family="sans-serif" font-size="13" lengthAdjust="spacingAndGlyphs" textLength="8" x="250.1238" y="400.6843">1</text><!--MD5=[6eb6e197a729f6ec2412743e0bdbca1d]
link Manager to User--><path d="M361.2546,442.587 C373.2344,445.4154 386.0733,448.3798 398,451 C449.4409,462.3011 509.5551,474.2254 544.9707,481.1194 " fill="none" id="Manager-User" style="stroke: #A80036; stroke-width: 1.0;"/><text fill="#000000" font-family="sans-serif" font-size="13" lengthAdjust="spacingAndGlyphs" textLength="46" x="400" y="447.0669">acts as</text><polygon fill="#000000" points="449,441.0664,455,444.0664,449,447.0664,449,441.0664" style="stroke: #000000; stroke-width: 1.0;"/><text fill="#000000" font-family="sans-serif" font-size="13" lengthAdjust="spacingAndGlyphs" textLength="8" x="368.8561" y="457.4366">1</text><text fill="#000000" font-family="sans-serif" font-size="13" lengthAdjust="spacingAndGlyphs" textLength="8" x="528.9858" y="493.5761">1</text><!--MD5=[57cb959bbb8d6516b63cb4c28268197c]
link TransactionExecution to Task--><path d="M660.026,362.1057 C702.8614,349.9968 754.0592,335.5239 793.7259,324.3107 " fill="none" id="TransactionExecution-Task" style="stroke: #A80036; stroke-width: 1.0;"/><text fill="#000000" font-family="sans-serif" font-size="13" lengthAdjust="spacingAndGlyphs" textLength="23" x="703.5" y="332.0669">has</text><polygon fill="#000000" points="729.5,326.0664,735.5,329.0664,729.5,332.0664,729.5,326.0664" style="stroke: #000000; stroke-width: 1.0;"/><text fill="#000000" font-family="sans-serif" font-size="13" lengthAdjust="spacingAndGlyphs" textLength="8" x="667.9103" y="372.7087">1</text><text fill="#000000" font-family="sans-serif" font-size="13" lengthAdjust="spacingAndGlyphs" textLength="8" x="778.2037" y="339.228">1</text><!--MD5=[fcdd4dc74bc0207eaed6eb249aae2fb9]
link TransactionExecution to Freelancer--><path d="M660.111,410.8327 C735.0415,428.2259 845.8853,442.4983 934,406 C993.9159,381.182 1044.6926,326.9777 1078.3145,283.1187 " fill="none" id="TransactionExecution-Freelancer" style="stroke: #A80036; stroke-width: 1.0;"/><text fill="#000000" font-family="sans-serif" font-size="13" lengthAdjust="spacingAndGlyphs" textLength="136" x="784" y="402.0669">related to the work of</text><polygon fill="#000000" points="923,396.0664,929,399.0664,923,402.0664,923,396.0664" style="stroke: #000000; stroke-width: 1.0;"/><text fill="#000000" font-family="sans-serif" font-size="13" lengthAdjust="spacingAndGlyphs" textLength="8" x="668.0029" y="425.7754">1</text><text fill="#000000" font-family="sans-serif" font-size="13" lengthAdjust="spacingAndGlyphs" textLength="8" x="1065.3969" y="302.7002">1</text><!--MD5=[209a2c3229d506e84b8c72b391c080a4]
link TransactionExecution to Payment--><path d="M660.092,424.602 C670.0155,427.9641 680.1244,430.886 690,433 C730.4387,441.6563 741.6505,435.3332 783,436 C850.1024,437.082 867.062,440.8176 934,436 C1072.8877,426.0042 1235.1497,398.009 1314.2293,383.2986 " fill="none" id="TransactionExecution-Payment" style="stroke: #A80036; stroke-width: 1.0;"/><text fill="#000000" font-family="sans-serif" font-size="13" lengthAdjust="spacingAndGlyphs" textLength="63" x="965" y="421.0669">originates</text><polygon fill="#000000" points="1031,415.0664,1037,418.0664,1031,421.0664,1031,415.0664" style="stroke: #000000; stroke-width: 1.0;"/><text fill="#000000" font-family="sans-serif" font-size="13" lengthAdjust="spacingAndGlyphs" textLength="8" x="667.9822" y="440.771">1</text><text fill="#000000" font-family="sans-serif" font-size="13" lengthAdjust="spacingAndGlyphs" textLength="8" x="1298.552" y="397.8712">1</text><!--MD5=[d2c3650dbd07e79cdad2ffd4a879dec6]
link Collaborator to Freelancer--><path d="M368.2746,256.4206 C378.1226,254.3408 388.3297,252.418 398,251 C648.8548,214.2167 953.3571,214.8935 1071.6391,216.8488 " fill="none" id="Collaborator-Freelancer" style="stroke: #A80036; stroke-width: 1.0;"/><text fill="#000000" font-family="sans-serif" font-size="13" lengthAdjust="spacingAndGlyphs" textLength="48" x="691" y="216.0669">creates</text><polygon fill="#000000" points="742,210.0664,748,213.0664,742,216.0664,742,210.0664" style="stroke: #000000; stroke-width: 1.0;"/><text fill="#000000" font-family="sans-serif" font-size="13" lengthAdjust="spacingAndGlyphs" textLength="8" x="376.1724" y="267.6517">1</text><text fill="#000000" font-family="sans-serif" font-size="13" lengthAdjust="spacingAndGlyphs" textLength="8" x="1055.9946" y="229.8437">1</text><!--MD5=[f919d21ae7a75ef5ececc535e09d5009]
link Collaborator to Task--><path d="M368.0003,273.6 C469.0953,280.2779 685.2265,294.5544 793.6522,301.7165 " fill="none" id="Collaborator-Task" style="stroke: #A80036; stroke-width: 1.0;"/><text fill="#000000" font-family="sans-serif" font-size="13" lengthAdjust="spacingAndGlyphs" textLength="48" x="545" y="278.0669">creates</text><polygon fill="#000000" points="596,272.0664,602,275.0664,596,278.0664,596,272.0664" style="stroke: #000000; stroke-width: 1.0;"/><text fill="#000000" font-family="sans-serif" font-size="13" lengthAdjust="spacingAndGlyphs" textLength="8" x="375.8613" y="287.1396">1</text><text fill="#000000" font-family="sans-serif" font-size="13" lengthAdjust="spacingAndGlyphs" textLength="23" x="762.7788" y="314.1409">1..*</text><!--MD5=[2ab7a6a303d213bb8ebe4ab6162585db]
link Collaborator to TransactionExecution--><path d="M368.1862,298.6356 C378.0436,303.5658 388.2768,308.5354 398,313 C427.9779,326.7649 461.3152,340.8008 490.9303,352.8395 " fill="none" id="Collaborator-TransactionExecution" style="stroke: #A80036; stroke-width: 1.0;"/><text fill="#000000" font-family="sans-serif" font-size="13" lengthAdjust="spacingAndGlyphs" textLength="48" x="399" y="309.0669">creates</text><polygon fill="#000000" points="450,303.0664,456,306.0664,450,309.0664,450,303.0664" style="stroke: #000000; stroke-width: 1.0;"/><text fill="#000000" font-family="sans-serif" font-size="13" lengthAdjust="spacingAndGlyphs" textLength="8" x="376.0722" y="315.5393">1</text><text fill="#000000" font-family="sans-serif" font-size="13" lengthAdjust="spacingAndGlyphs" textLength="23" x="459.9745" y="362.7778">1..*</text><!--MD5=[04ce0ecdab38a3951889ff50c232570f]
link Collaborator to User--><path d="M344.0136,309.3659 C376.6697,349.2251 431.8244,410.3482 491,449 C507.8338,459.9954 528.3747,469.313 544.989,475.9698 " fill="none" id="Collaborator-User" style="stroke: #A80036; stroke-width: 1.0;"/><text fill="#000000" font-family="sans-serif" font-size="13" lengthAdjust="spacingAndGlyphs" textLength="46" x="400" y="369.0669">acts as</text><polygon fill="#000000" points="449,363.0664,455,366.0664,449,369.0664,449,363.0664" style="stroke: #000000; stroke-width: 1.0;"/><text fill="#000000" font-family="sans-serif" font-size="13" lengthAdjust="spacingAndGlyphs" textLength="8" x="340.5706" y="329.4637">1</text><text fill="#000000" font-family="sans-serif" font-size="13" lengthAdjust="spacingAndGlyphs" textLength="8" x="529.0083" y="468.7669">1</text><!--MD5=[5f527cd2e3f33bc7d046557f685bd1df]
@startuml
skinparam classAttributeIconSize 0
hide methods
left to right direction

class Platform{
}
class Freelancer {
  -String freeID
  -String name
  -String levelExp
  -String email
  -String nif
  -String iban
  -String country
}


class Collaborator{
  -String nameC
  -String emailC
  -String role
}

class Task {
  -String idTask
  -String description
  -int timeTask
  -double costHour
  -String taskCategory
  -boolean isPayed
  -boolean isFinished
}

class Manager {
  -String nameM
  -String emailM
  -String role
}

class User {
}

class TransactionExecution { 
  -Date endDate
  -double delay
  -String descriptionOfQuality
  -int transID
}

class Address{
  -String street
  -String doorNumber
  -String locality
}


class Payment{
  -double valueE
  -double valueC
}


Freelancer "1" - - "1..*" Payment: receives >
Freelancer "1" - - "1" Address: has >

Task "1..*" - - "1" Freelancer: made by >

Platform "1" - - "1..*" Freelancer: has >
Platform "1" - - "1" Freelancer: sends email to >
Platform "1" - - "1" Collaborator: sends email to >
Platform "1" - - "1" Manager: sends email to > 


Manager "1" - - "1" User: acts as >


TransactionExecution "1" - - "1" Task : has >
TransactionExecution "1" - - "1" Freelancer: related to the work of >
TransactionExecution "1" - - "1" Payment : originates >

Collaborator "1" - - "1" Freelancer: creates >
Collaborator "1" - - "1..*" Task: creates >
Collaborator "1" - - "1..*" TransactionExecution: creates >
Collaborator "1" - - "1" User: acts as >
@enduml

PlantUML version 1.2019.12(Sun Nov 03 10:24:54 UTC 2019)
(GPL source distribution)
Java Runtime: OpenJDK Runtime Environment
JVM: OpenJDK 64-Bit Server VM
Java Version: 1.8.0_232-heroku-b09
Operating System: Linux
Default Encoding: UTF-8
Language: en
Country: US
--></g></svg>