<?xml version="1.0" encoding="UTF-8" standalone="no"?><svg xmlns="http://www.w3.org/2000/svg" xmlns:xlink="http://www.w3.org/1999/xlink" contentScriptType="application/ecmascript" contentStyleType="text/css" height="1458px" preserveAspectRatio="none" style="width:2710px;height:1458px;" version="1.1" viewBox="0 0 2710 1458" width="2710px" zoomAndPan="magnify"><defs><filter height="300%" id="fqx8lzmq69a9r" width="300%" x="-1" y="-1"><feGaussianBlur result="blurOut" stdDeviation="2.0"/><feColorMatrix in="blurOut" result="blurOut2" type="matrix" values="0 0 0 0 0 0 0 0 0 0 0 0 0 0 0 0 0 0 .4 0"/><feOffset dx="4.0" dy="4.0" in="blurOut2" result="blurOut3"/><feBlend in="SourceGraphic" in2="blurOut3" mode="normal"/></filter></defs><g><!--MD5=[99b8db98afdc2c8404e39242ef4c1e65]
class Platform--><rect fill="#FEFECE" filter="url(#fqx8lzmq69a9r)" height="40" id="Platform" style="stroke: #A80036; stroke-width: 1.5;" width="78" x="6" y="754"/><ellipse cx="21" cy="770" fill="#ADD1B2" rx="11" ry="11" style="stroke: #A80036; stroke-width: 1.0;"/><path d="M23,766.5 Q23.2031,766 23.4375,765.75 Q23.6719,765.5 23.9375,765.5 Q24.4063,765.5 24.7031,765.7813 Q25,766.0625 25,766.7188 L25,768.2813 Q25,768.9375 24.7188,769.2188 Q24.4375,769.5 24,769.5 Q23.6094,769.5 23.3594,769.3281 Q23.1094,769.1563 23,768.7031 Q22.9531,768.3906 22.7813,768.2188 Q22.4688,767.8906 21.9063,767.7031 Q21.3438,767.5 20.7813,767.5 Q20.0781,767.5 19.4844,767.7813 Q18.9063,768.0625 18.4531,768.6875 Q18,769.3125 18,770.1719 L18,771.0938 Q18,772.125 18.8438,772.8125 Q19.6875,773.5 21.1875,773.5 Q22.0781,773.5 22.7031,773.2969 Q23.0625,773.1875 23.4688,772.8281 Q23.7344,772.625 23.875,772.5625 Q24.0156,772.5 24.1875,772.5 Q24.5156,772.5 24.75,772.7656 Q25,773.0156 25,773.375 Q25,773.7188 24.6563,774.125 Q24.1563,774.7188 23.3594,775.0469 Q22.3125,775.5 21.0313,775.5 Q19.5313,775.5 18.3281,774.9063 Q17.3594,774.4375 16.6719,773.4219 Q16,772.4063 16,771.2031 L16,770.1094 Q16,768.8594 16.5938,767.7656 Q17.2031,766.6719 18.25,766.0938 Q19.3125,765.5 20.5,765.5 Q21.2188,765.5 21.8438,765.75 Q22.4688,766 23,766.5 Z "/><text fill="#000000" font-family="sans-serif" font-size="12" lengthAdjust="spacingAndGlyphs" textLength="46" x="35" y="774.9102">Platform</text><line style="stroke: #A80036; stroke-width: 1.5;" x1="7" x2="83" y1="786" y2="786"/><!--MD5=[1f687b5315377fe49fca59b457947463]
class Freelancer--><rect fill="#FEFECE" filter="url(#fqx8lzmq69a9r)" height="136.8516" id="Freelancer" style="stroke: #A80036; stroke-width: 1.5;" width="91" x="1280" y="329.5"/><ellipse cx="1295" cy="345.5" fill="#ADD1B2" rx="11" ry="11" style="stroke: #A80036; stroke-width: 1.0;"/><path d="M1297,342 Q1297.2031,341.5 1297.4375,341.25 Q1297.6719,341 1297.9375,341 Q1298.4063,341 1298.7031,341.2813 Q1299,341.5625 1299,342.2188 L1299,343.7813 Q1299,344.4375 1298.7188,344.7188 Q1298.4375,345 1298,345 Q1297.6094,345 1297.3594,344.8281 Q1297.1094,344.6563 1297,344.2031 Q1296.9531,343.8906 1296.7813,343.7188 Q1296.4688,343.3906 1295.9063,343.2031 Q1295.3438,343 1294.7813,343 Q1294.0781,343 1293.4844,343.2813 Q1292.9063,343.5625 1292.4531,344.1875 Q1292,344.8125 1292,345.6719 L1292,346.5938 Q1292,347.625 1292.8438,348.3125 Q1293.6875,349 1295.1875,349 Q1296.0781,349 1296.7031,348.7969 Q1297.0625,348.6875 1297.4688,348.3281 Q1297.7344,348.125 1297.875,348.0625 Q1298.0156,348 1298.1875,348 Q1298.5156,348 1298.75,348.2656 Q1299,348.5156 1299,348.875 Q1299,349.2188 1298.6563,349.625 Q1298.1563,350.2188 1297.3594,350.5469 Q1296.3125,351 1295.0313,351 Q1293.5313,351 1292.3281,350.4063 Q1291.3594,349.9375 1290.6719,348.9219 Q1290,347.9063 1290,346.7031 L1290,345.6094 Q1290,344.3594 1290.5938,343.2656 Q1291.2031,342.1719 1292.25,341.5938 Q1293.3125,341 1294.5,341 Q1295.2188,341 1295.8438,341.25 Q1296.4688,341.5 1297,342 Z "/><text fill="#000000" font-family="sans-serif" font-size="12" lengthAdjust="spacingAndGlyphs" textLength="59" x="1309" y="350.4102">Freelancer</text><line style="stroke: #A80036; stroke-width: 1.5;" x1="1281" x2="1370" y1="361.5" y2="361.5"/><text fill="#000000" font-family="sans-serif" font-size="11" lengthAdjust="spacingAndGlyphs" textLength="64" x="1286" y="376.9189">-String freeID</text><text fill="#000000" font-family="sans-serif" font-size="11" lengthAdjust="spacingAndGlyphs" textLength="61" x="1286" y="390.7549">-String name</text><text fill="#000000" font-family="sans-serif" font-size="11" lengthAdjust="spacingAndGlyphs" textLength="75" x="1286" y="404.5908">-String levelExp</text><text fill="#000000" font-family="sans-serif" font-size="11" lengthAdjust="spacingAndGlyphs" textLength="59" x="1286" y="418.4268">-String email</text><text fill="#000000" font-family="sans-serif" font-size="11" lengthAdjust="spacingAndGlyphs" textLength="47" x="1286" y="432.2627">-String nif</text><text fill="#000000" font-family="sans-serif" font-size="11" lengthAdjust="spacingAndGlyphs" textLength="55" x="1286" y="446.0986">-String iban</text><text fill="#000000" font-family="sans-serif" font-size="11" lengthAdjust="spacingAndGlyphs" textLength="72" x="1286" y="459.9346">-String country</text><!--MD5=[86c7c362de55a38b660185a1328fe18d]
class Organization--><rect fill="#FEFECE" filter="url(#fqx8lzmq69a9r)" height="81.5078" id="Organization" style="stroke: #A80036; stroke-width: 1.5;" width="101" x="445" y="910"/><ellipse cx="460" cy="926" fill="#ADD1B2" rx="11" ry="11" style="stroke: #A80036; stroke-width: 1.0;"/><path d="M462,922.5 Q462.2031,922 462.4375,921.75 Q462.6719,921.5 462.9375,921.5 Q463.4063,921.5 463.7031,921.7813 Q464,922.0625 464,922.7188 L464,924.2813 Q464,924.9375 463.7188,925.2188 Q463.4375,925.5 463,925.5 Q462.6094,925.5 462.3594,925.3281 Q462.1094,925.1563 462,924.7031 Q461.9531,924.3906 461.7813,924.2188 Q461.4688,923.8906 460.9063,923.7031 Q460.3438,923.5 459.7813,923.5 Q459.0781,923.5 458.4844,923.7813 Q457.9063,924.0625 457.4531,924.6875 Q457,925.3125 457,926.1719 L457,927.0938 Q457,928.125 457.8438,928.8125 Q458.6875,929.5 460.1875,929.5 Q461.0781,929.5 461.7031,929.2969 Q462.0625,929.1875 462.4688,928.8281 Q462.7344,928.625 462.875,928.5625 Q463.0156,928.5 463.1875,928.5 Q463.5156,928.5 463.75,928.7656 Q464,929.0156 464,929.375 Q464,929.7188 463.6563,930.125 Q463.1563,930.7188 462.3594,931.0469 Q461.3125,931.5 460.0313,931.5 Q458.5313,931.5 457.3281,930.9063 Q456.3594,930.4375 455.6719,929.4219 Q455,928.4063 455,927.2031 L455,926.1094 Q455,924.8594 455.5938,923.7656 Q456.2031,922.6719 457.25,922.0938 Q458.3125,921.5 459.5,921.5 Q460.2188,921.5 460.8438,921.75 Q461.4688,922 462,922.5 Z "/><text fill="#000000" font-family="sans-serif" font-size="12" lengthAdjust="spacingAndGlyphs" textLength="69" x="474" y="930.9102">Organization</text><line style="stroke: #A80036; stroke-width: 1.5;" x1="446" x2="545" y1="942" y2="942"/><text fill="#000000" font-family="sans-serif" font-size="11" lengthAdjust="spacingAndGlyphs" textLength="61" x="451" y="957.4189">-String nome</text><text fill="#000000" font-family="sans-serif" font-size="11" lengthAdjust="spacingAndGlyphs" textLength="59" x="451" y="971.2549">-String email</text><text fill="#000000" font-family="sans-serif" font-size="11" lengthAdjust="spacingAndGlyphs" textLength="47" x="451" y="985.0908">-String nif</text><!--MD5=[f483d6e5de34a60207b28a5563be5e8b]
class Collaborator--><rect fill="#FEFECE" filter="url(#fqx8lzmq69a9r)" height="67.6719" id="Collaborator" style="stroke: #A80036; stroke-width: 1.5;" width="100" x="706" y="722"/><ellipse cx="721" cy="738" fill="#ADD1B2" rx="11" ry="11" style="stroke: #A80036; stroke-width: 1.0;"/><path d="M723,734.5 Q723.2031,734 723.4375,733.75 Q723.6719,733.5 723.9375,733.5 Q724.4063,733.5 724.7031,733.7813 Q725,734.0625 725,734.7188 L725,736.2813 Q725,736.9375 724.7188,737.2188 Q724.4375,737.5 724,737.5 Q723.6094,737.5 723.3594,737.3281 Q723.1094,737.1563 723,736.7031 Q722.9531,736.3906 722.7813,736.2188 Q722.4688,735.8906 721.9063,735.7031 Q721.3438,735.5 720.7813,735.5 Q720.0781,735.5 719.4844,735.7813 Q718.9063,736.0625 718.4531,736.6875 Q718,737.3125 718,738.1719 L718,739.0938 Q718,740.125 718.8438,740.8125 Q719.6875,741.5 721.1875,741.5 Q722.0781,741.5 722.7031,741.2969 Q723.0625,741.1875 723.4688,740.8281 Q723.7344,740.625 723.875,740.5625 Q724.0156,740.5 724.1875,740.5 Q724.5156,740.5 724.75,740.7656 Q725,741.0156 725,741.375 Q725,741.7188 724.6563,742.125 Q724.1563,742.7188 723.3594,743.0469 Q722.3125,743.5 721.0313,743.5 Q719.5313,743.5 718.3281,742.9063 Q717.3594,742.4375 716.6719,741.4219 Q716,740.4063 716,739.2031 L716,738.1094 Q716,736.8594 716.5938,735.7656 Q717.2031,734.6719 718.25,734.0938 Q719.3125,733.5 720.5,733.5 Q721.2188,733.5 721.8438,733.75 Q722.4688,734 723,734.5 Z "/><text fill="#000000" font-family="sans-serif" font-size="12" lengthAdjust="spacingAndGlyphs" textLength="68" x="735" y="742.9102">Collaborator</text><line style="stroke: #A80036; stroke-width: 1.5;" x1="707" x2="805" y1="754" y2="754"/><text fill="#000000" font-family="sans-serif" font-size="11" lengthAdjust="spacingAndGlyphs" textLength="61" x="712" y="769.4189">-String nome</text><text fill="#000000" font-family="sans-serif" font-size="11" lengthAdjust="spacingAndGlyphs" textLength="59" x="712" y="783.2549">-String email</text><!--MD5=[b34797a66dc35cbf1d65f7e3ca75530e]
class Task--><rect fill="#FEFECE" filter="url(#fqx8lzmq69a9r)" height="136.8516" id="Task" style="stroke: #A80036; stroke-width: 1.5;" width="111" x="2312" y="258.5"/><ellipse cx="2350.4" cy="274.5" fill="#ADD1B2" rx="11" ry="11" style="stroke: #A80036; stroke-width: 1.0;"/><path d="M2352.4,271 Q2352.6031,270.5 2352.8375,270.25 Q2353.0719,270 2353.3375,270 Q2353.8063,270 2354.1031,270.2813 Q2354.4,270.5625 2354.4,271.2188 L2354.4,272.7813 Q2354.4,273.4375 2354.1188,273.7188 Q2353.8375,274 2353.4,274 Q2353.0094,274 2352.7594,273.8281 Q2352.5094,273.6563 2352.4,273.2031 Q2352.3531,272.8906 2352.1813,272.7188 Q2351.8688,272.3906 2351.3063,272.2031 Q2350.7438,272 2350.1813,272 Q2349.4781,272 2348.8844,272.2813 Q2348.3063,272.5625 2347.8531,273.1875 Q2347.4,273.8125 2347.4,274.6719 L2347.4,275.5938 Q2347.4,276.625 2348.2438,277.3125 Q2349.0875,278 2350.5875,278 Q2351.4781,278 2352.1031,277.7969 Q2352.4625,277.6875 2352.8688,277.3281 Q2353.1344,277.125 2353.275,277.0625 Q2353.4156,277 2353.5875,277 Q2353.9156,277 2354.15,277.2656 Q2354.4,277.5156 2354.4,277.875 Q2354.4,278.2188 2354.0563,278.625 Q2353.5563,279.2188 2352.7594,279.5469 Q2351.7125,280 2350.4313,280 Q2348.9313,280 2347.7281,279.4063 Q2346.7594,278.9375 2346.0719,277.9219 Q2345.4,276.9063 2345.4,275.7031 L2345.4,274.6094 Q2345.4,273.3594 2345.9938,272.2656 Q2346.6031,271.1719 2347.65,270.5938 Q2348.7125,270 2349.9,270 Q2350.6188,270 2351.2438,270.25 Q2351.8688,270.5 2352.4,271 Z "/><text fill="#000000" font-family="sans-serif" font-size="12" lengthAdjust="spacingAndGlyphs" textLength="27" x="2369.6" y="279.4102">Task</text><line style="stroke: #A80036; stroke-width: 1.5;" x1="2313" x2="2422" y1="290.5" y2="290.5"/><text fill="#000000" font-family="sans-serif" font-size="11" lengthAdjust="spacingAndGlyphs" textLength="49" x="2318" y="305.9189">-String idT</text><text fill="#000000" font-family="sans-serif" font-size="11" lengthAdjust="spacingAndGlyphs" textLength="88" x="2318" y="319.7549">-String description</text><text fill="#000000" font-family="sans-serif" font-size="11" lengthAdjust="spacingAndGlyphs" textLength="88" x="2318" y="333.5908">-Time timeDuration</text><text fill="#000000" font-family="sans-serif" font-size="11" lengthAdjust="spacingAndGlyphs" textLength="83" x="2318" y="347.4268">-double costHour</text><text fill="#000000" font-family="sans-serif" font-size="11" lengthAdjust="spacingAndGlyphs" textLength="99" x="2318" y="361.2627">-String taskCategory</text><text fill="#000000" font-family="sans-serif" font-size="11" lengthAdjust="spacingAndGlyphs" textLength="83" x="2318" y="375.0986">-boolean isPayed</text><text fill="#000000" font-family="sans-serif" font-size="11" lengthAdjust="spacingAndGlyphs" textLength="93" x="2318" y="388.9346">-boolean isFinished</text><!--MD5=[b24ed8d4ae84bae9290d9aab401637c7]
class Manager--><rect fill="#FEFECE" filter="url(#fqx8lzmq69a9r)" height="67.6719" id="Manager" style="stroke: #A80036; stroke-width: 1.5;" width="80" x="716" y="1112"/><ellipse cx="731" cy="1128" fill="#ADD1B2" rx="11" ry="11" style="stroke: #A80036; stroke-width: 1.0;"/><path d="M733,1124.5 Q733.2031,1124 733.4375,1123.75 Q733.6719,1123.5 733.9375,1123.5 Q734.4063,1123.5 734.7031,1123.7813 Q735,1124.0625 735,1124.7188 L735,1126.2813 Q735,1126.9375 734.7188,1127.2188 Q734.4375,1127.5 734,1127.5 Q733.6094,1127.5 733.3594,1127.3281 Q733.1094,1127.1563 733,1126.7031 Q732.9531,1126.3906 732.7813,1126.2188 Q732.4688,1125.8906 731.9063,1125.7031 Q731.3438,1125.5 730.7813,1125.5 Q730.0781,1125.5 729.4844,1125.7813 Q728.9063,1126.0625 728.4531,1126.6875 Q728,1127.3125 728,1128.1719 L728,1129.0938 Q728,1130.125 728.8438,1130.8125 Q729.6875,1131.5 731.1875,1131.5 Q732.0781,1131.5 732.7031,1131.2969 Q733.0625,1131.1875 733.4688,1130.8281 Q733.7344,1130.625 733.875,1130.5625 Q734.0156,1130.5 734.1875,1130.5 Q734.5156,1130.5 734.75,1130.7656 Q735,1131.0156 735,1131.375 Q735,1131.7188 734.6563,1132.125 Q734.1563,1132.7188 733.3594,1133.0469 Q732.3125,1133.5 731.0313,1133.5 Q729.5313,1133.5 728.3281,1132.9063 Q727.3594,1132.4375 726.6719,1131.4219 Q726,1130.4063 726,1129.2031 L726,1128.1094 Q726,1126.8594 726.5938,1125.7656 Q727.2031,1124.6719 728.25,1124.0938 Q729.3125,1123.5 730.5,1123.5 Q731.2188,1123.5 731.8438,1123.75 Q732.4688,1124 733,1124.5 Z "/><text fill="#000000" font-family="sans-serif" font-size="12" lengthAdjust="spacingAndGlyphs" textLength="48" x="745" y="1132.9102">Manager</text><line style="stroke: #A80036; stroke-width: 1.5;" x1="717" x2="795" y1="1144" y2="1144"/><text fill="#000000" font-family="sans-serif" font-size="11" lengthAdjust="spacingAndGlyphs" textLength="61" x="722" y="1159.4189">-String nome</text><text fill="#000000" font-family="sans-serif" font-size="11" lengthAdjust="spacingAndGlyphs" textLength="59" x="722" y="1173.2549">-String email</text><!--MD5=[3fd616f346a44cd59a91eb10b19e157c]
class User--><rect fill="#FEFECE" filter="url(#fqx8lzmq69a9r)" height="40" id="User" style="stroke: #A80036; stroke-width: 1.5;" width="59" x="990" y="1210"/><ellipse cx="1005" cy="1226" fill="#ADD1B2" rx="11" ry="11" style="stroke: #A80036; stroke-width: 1.0;"/><path d="M1007,1222.5 Q1007.2031,1222 1007.4375,1221.75 Q1007.6719,1221.5 1007.9375,1221.5 Q1008.4063,1221.5 1008.7031,1221.7813 Q1009,1222.0625 1009,1222.7188 L1009,1224.2813 Q1009,1224.9375 1008.7188,1225.2188 Q1008.4375,1225.5 1008,1225.5 Q1007.6094,1225.5 1007.3594,1225.3281 Q1007.1094,1225.1563 1007,1224.7031 Q1006.9531,1224.3906 1006.7813,1224.2188 Q1006.4688,1223.8906 1005.9063,1223.7031 Q1005.3438,1223.5 1004.7813,1223.5 Q1004.0781,1223.5 1003.4844,1223.7813 Q1002.9063,1224.0625 1002.4531,1224.6875 Q1002,1225.3125 1002,1226.1719 L1002,1227.0938 Q1002,1228.125 1002.8438,1228.8125 Q1003.6875,1229.5 1005.1875,1229.5 Q1006.0781,1229.5 1006.7031,1229.2969 Q1007.0625,1229.1875 1007.4688,1228.8281 Q1007.7344,1228.625 1007.875,1228.5625 Q1008.0156,1228.5 1008.1875,1228.5 Q1008.5156,1228.5 1008.75,1228.7656 Q1009,1229.0156 1009,1229.375 Q1009,1229.7188 1008.6563,1230.125 Q1008.1563,1230.7188 1007.3594,1231.0469 Q1006.3125,1231.5 1005.0313,1231.5 Q1003.5313,1231.5 1002.3281,1230.9063 Q1001.3594,1230.4375 1000.6719,1229.4219 Q1000,1228.4063 1000,1227.2031 L1000,1226.1094 Q1000,1224.8594 1000.5938,1223.7656 Q1001.2031,1222.6719 1002.25,1222.0938 Q1003.3125,1221.5 1004.5,1221.5 Q1005.2188,1221.5 1005.8438,1221.75 Q1006.4688,1222 1007,1222.5 Z "/><text fill="#000000" font-family="sans-serif" font-size="12" lengthAdjust="spacingAndGlyphs" textLength="27" x="1019" y="1230.9102">User</text><line style="stroke: #A80036; stroke-width: 1.5;" x1="991" x2="1048" y1="1242" y2="1242"/><!--MD5=[34b75dd4d6d4601c280a5b76e9c1a953]
class Receipt--><rect fill="#FEFECE" filter="url(#fqx8lzmq69a9r)" height="40" id="Receipt" style="stroke: #A80036; stroke-width: 1.5;" width="74" x="1849" y="667"/><ellipse cx="1864" cy="683" fill="#ADD1B2" rx="11" ry="11" style="stroke: #A80036; stroke-width: 1.0;"/><path d="M1866,679.5 Q1866.2031,679 1866.4375,678.75 Q1866.6719,678.5 1866.9375,678.5 Q1867.4063,678.5 1867.7031,678.7813 Q1868,679.0625 1868,679.7188 L1868,681.2813 Q1868,681.9375 1867.7188,682.2188 Q1867.4375,682.5 1867,682.5 Q1866.6094,682.5 1866.3594,682.3281 Q1866.1094,682.1563 1866,681.7031 Q1865.9531,681.3906 1865.7813,681.2188 Q1865.4688,680.8906 1864.9063,680.7031 Q1864.3438,680.5 1863.7813,680.5 Q1863.0781,680.5 1862.4844,680.7813 Q1861.9063,681.0625 1861.4531,681.6875 Q1861,682.3125 1861,683.1719 L1861,684.0938 Q1861,685.125 1861.8438,685.8125 Q1862.6875,686.5 1864.1875,686.5 Q1865.0781,686.5 1865.7031,686.2969 Q1866.0625,686.1875 1866.4688,685.8281 Q1866.7344,685.625 1866.875,685.5625 Q1867.0156,685.5 1867.1875,685.5 Q1867.5156,685.5 1867.75,685.7656 Q1868,686.0156 1868,686.375 Q1868,686.7188 1867.6563,687.125 Q1867.1563,687.7188 1866.3594,688.0469 Q1865.3125,688.5 1864.0313,688.5 Q1862.5313,688.5 1861.3281,687.9063 Q1860.3594,687.4375 1859.6719,686.4219 Q1859,685.4063 1859,684.2031 L1859,683.1094 Q1859,681.8594 1859.5938,680.7656 Q1860.2031,679.6719 1861.25,679.0938 Q1862.3125,678.5 1863.5,678.5 Q1864.2188,678.5 1864.8438,678.75 Q1865.4688,679 1866,679.5 Z "/><text fill="#000000" font-family="sans-serif" font-size="12" lengthAdjust="spacingAndGlyphs" textLength="42" x="1878" y="687.9102">Receipt</text><line style="stroke: #A80036; stroke-width: 1.5;" x1="1850" x2="1922" y1="699" y2="699"/><!--MD5=[4555bb1b0911a5adf28ce6dbe60fed2e]
class Transaction--><rect fill="#FEFECE" filter="url(#fqx8lzmq69a9r)" height="67.6719" id="Transaction" style="stroke: #A80036; stroke-width: 1.5;" width="97" x="2119" y="293"/><ellipse cx="2134" cy="309" fill="#ADD1B2" rx="11" ry="11" style="stroke: #A80036; stroke-width: 1.0;"/><path d="M2136,305.5 Q2136.2031,305 2136.4375,304.75 Q2136.6719,304.5 2136.9375,304.5 Q2137.4063,304.5 2137.7031,304.7813 Q2138,305.0625 2138,305.7188 L2138,307.2813 Q2138,307.9375 2137.7188,308.2188 Q2137.4375,308.5 2137,308.5 Q2136.6094,308.5 2136.3594,308.3281 Q2136.1094,308.1563 2136,307.7031 Q2135.9531,307.3906 2135.7813,307.2188 Q2135.4688,306.8906 2134.9063,306.7031 Q2134.3438,306.5 2133.7813,306.5 Q2133.0781,306.5 2132.4844,306.7813 Q2131.9063,307.0625 2131.4531,307.6875 Q2131,308.3125 2131,309.1719 L2131,310.0938 Q2131,311.125 2131.8438,311.8125 Q2132.6875,312.5 2134.1875,312.5 Q2135.0781,312.5 2135.7031,312.2969 Q2136.0625,312.1875 2136.4688,311.8281 Q2136.7344,311.625 2136.875,311.5625 Q2137.0156,311.5 2137.1875,311.5 Q2137.5156,311.5 2137.75,311.7656 Q2138,312.0156 2138,312.375 Q2138,312.7188 2137.6563,313.125 Q2137.1563,313.7188 2136.3594,314.0469 Q2135.3125,314.5 2134.0313,314.5 Q2132.5313,314.5 2131.3281,313.9063 Q2130.3594,313.4375 2129.6719,312.4219 Q2129,311.4063 2129,310.2031 L2129,309.1094 Q2129,307.8594 2129.5938,306.7656 Q2130.2031,305.6719 2131.25,305.0938 Q2132.3125,304.5 2133.5,304.5 Q2134.2188,304.5 2134.8438,304.75 Q2135.4688,305 2136,305.5 Z "/><text fill="#000000" font-family="sans-serif" font-size="12" lengthAdjust="spacingAndGlyphs" textLength="65" x="2148" y="313.9102">Transaction</text><line style="stroke: #A80036; stroke-width: 1.5;" x1="2120" x2="2215" y1="325" y2="325"/><text fill="#000000" font-family="sans-serif" font-size="11" lengthAdjust="spacingAndGlyphs" textLength="71" x="2125" y="340.4189">-double valueE</text><text fill="#000000" font-family="sans-serif" font-size="11" lengthAdjust="spacingAndGlyphs" textLength="72" x="2125" y="354.2549">-double valueC</text><!--MD5=[0f39e4cb6f03951afbf6d14bd2505654]
class Address--><rect fill="#FEFECE" filter="url(#fqx8lzmq69a9r)" height="81.5078" id="Address" style="stroke: #A80036; stroke-width: 1.5;" width="106" x="1557" y="539"/><ellipse cx="1584.6" cy="555" fill="#ADD1B2" rx="11" ry="11" style="stroke: #A80036; stroke-width: 1.0;"/><path d="M1586.6,551.5 Q1586.8031,551 1587.0375,550.75 Q1587.2719,550.5 1587.5375,550.5 Q1588.0063,550.5 1588.3031,550.7813 Q1588.6,551.0625 1588.6,551.7188 L1588.6,553.2813 Q1588.6,553.9375 1588.3188,554.2188 Q1588.0375,554.5 1587.6,554.5 Q1587.2094,554.5 1586.9594,554.3281 Q1586.7094,554.1563 1586.6,553.7031 Q1586.5531,553.3906 1586.3813,553.2188 Q1586.0688,552.8906 1585.5063,552.7031 Q1584.9438,552.5 1584.3813,552.5 Q1583.6781,552.5 1583.0844,552.7813 Q1582.5063,553.0625 1582.0531,553.6875 Q1581.6,554.3125 1581.6,555.1719 L1581.6,556.0938 Q1581.6,557.125 1582.4438,557.8125 Q1583.2875,558.5 1584.7875,558.5 Q1585.6781,558.5 1586.3031,558.2969 Q1586.6625,558.1875 1587.0688,557.8281 Q1587.3344,557.625 1587.475,557.5625 Q1587.6156,557.5 1587.7875,557.5 Q1588.1156,557.5 1588.35,557.7656 Q1588.6,558.0156 1588.6,558.375 Q1588.6,558.7188 1588.2563,559.125 Q1587.7563,559.7188 1586.9594,560.0469 Q1585.9125,560.5 1584.6313,560.5 Q1583.1313,560.5 1581.9281,559.9063 Q1580.9594,559.4375 1580.2719,558.4219 Q1579.6,557.4063 1579.6,556.2031 L1579.6,555.1094 Q1579.6,553.8594 1580.1938,552.7656 Q1580.8031,551.6719 1581.85,551.0938 Q1582.9125,550.5 1584.1,550.5 Q1584.8188,550.5 1585.4438,550.75 Q1586.0688,551 1586.6,551.5 Z "/><text fill="#000000" font-family="sans-serif" font-size="12" lengthAdjust="spacingAndGlyphs" textLength="46" x="1601.4" y="559.9102">Address</text><line style="stroke: #A80036; stroke-width: 1.5;" x1="1558" x2="1662" y1="571" y2="571"/><text fill="#000000" font-family="sans-serif" font-size="11" lengthAdjust="spacingAndGlyphs" textLength="63" x="1563" y="586.4189">-String street</text><text fill="#000000" font-family="sans-serif" font-size="11" lengthAdjust="spacingAndGlyphs" textLength="94" x="1563" y="600.2549">-String doorNumber</text><text fill="#000000" font-family="sans-serif" font-size="11" lengthAdjust="spacingAndGlyphs" textLength="52" x="1563" y="614.0908">-String city</text><!--MD5=[da547346deef918ea16944ba046651ef]
class Administrator--><rect fill="#FEFECE" filter="url(#fqx8lzmq69a9r)" height="40" id="Administrator" style="stroke: #A80036; stroke-width: 1.5;" width="105" x="180" y="1074"/><ellipse cx="195" cy="1090" fill="#ADD1B2" rx="11" ry="11" style="stroke: #A80036; stroke-width: 1.0;"/><path d="M197,1086.5 Q197.2031,1086 197.4375,1085.75 Q197.6719,1085.5 197.9375,1085.5 Q198.4063,1085.5 198.7031,1085.7813 Q199,1086.0625 199,1086.7188 L199,1088.2813 Q199,1088.9375 198.7188,1089.2188 Q198.4375,1089.5 198,1089.5 Q197.6094,1089.5 197.3594,1089.3281 Q197.1094,1089.1563 197,1088.7031 Q196.9531,1088.3906 196.7813,1088.2188 Q196.4688,1087.8906 195.9063,1087.7031 Q195.3438,1087.5 194.7813,1087.5 Q194.0781,1087.5 193.4844,1087.7813 Q192.9063,1088.0625 192.4531,1088.6875 Q192,1089.3125 192,1090.1719 L192,1091.0938 Q192,1092.125 192.8438,1092.8125 Q193.6875,1093.5 195.1875,1093.5 Q196.0781,1093.5 196.7031,1093.2969 Q197.0625,1093.1875 197.4688,1092.8281 Q197.7344,1092.625 197.875,1092.5625 Q198.0156,1092.5 198.1875,1092.5 Q198.5156,1092.5 198.75,1092.7656 Q199,1093.0156 199,1093.375 Q199,1093.7188 198.6563,1094.125 Q198.1563,1094.7188 197.3594,1095.0469 Q196.3125,1095.5 195.0313,1095.5 Q193.5313,1095.5 192.3281,1094.9063 Q191.3594,1094.4375 190.6719,1093.4219 Q190,1092.4063 190,1091.2031 L190,1090.1094 Q190,1088.8594 190.5938,1087.7656 Q191.2031,1086.6719 192.25,1086.0938 Q193.3125,1085.5 194.5,1085.5 Q195.2188,1085.5 195.8438,1085.75 Q196.4688,1086 197,1086.5 Z "/><text fill="#000000" font-family="sans-serif" font-size="12" lengthAdjust="spacingAndGlyphs" textLength="73" x="209" y="1094.9102">Administrator</text><line style="stroke: #A80036; stroke-width: 1.5;" x1="181" x2="284" y1="1106" y2="1106"/><!--MD5=[764fca796ce7f635542948d8fc39db5e]
class Payment--><rect fill="#FEFECE" filter="url(#fqx8lzmq69a9r)" height="67.6719" id="Payment" style="stroke: #A80036; stroke-width: 1.5;" width="84" x="1568" y="727"/><ellipse cx="1584.8" cy="743" fill="#ADD1B2" rx="11" ry="11" style="stroke: #A80036; stroke-width: 1.0;"/><path d="M1586.8,739.5 Q1587.0031,739 1587.2375,738.75 Q1587.4719,738.5 1587.7375,738.5 Q1588.2063,738.5 1588.5031,738.7813 Q1588.8,739.0625 1588.8,739.7188 L1588.8,741.2813 Q1588.8,741.9375 1588.5188,742.2188 Q1588.2375,742.5 1587.8,742.5 Q1587.4094,742.5 1587.1594,742.3281 Q1586.9094,742.1563 1586.8,741.7031 Q1586.7531,741.3906 1586.5813,741.2188 Q1586.2688,740.8906 1585.7063,740.7031 Q1585.1438,740.5 1584.5813,740.5 Q1583.8781,740.5 1583.2844,740.7813 Q1582.7063,741.0625 1582.2531,741.6875 Q1581.8,742.3125 1581.8,743.1719 L1581.8,744.0938 Q1581.8,745.125 1582.6438,745.8125 Q1583.4875,746.5 1584.9875,746.5 Q1585.8781,746.5 1586.5031,746.2969 Q1586.8625,746.1875 1587.2688,745.8281 Q1587.5344,745.625 1587.675,745.5625 Q1587.8156,745.5 1587.9875,745.5 Q1588.3156,745.5 1588.55,745.7656 Q1588.8,746.0156 1588.8,746.375 Q1588.8,746.7188 1588.4563,747.125 Q1587.9563,747.7188 1587.1594,748.0469 Q1586.1125,748.5 1584.8313,748.5 Q1583.3313,748.5 1582.1281,747.9063 Q1581.1594,747.4375 1580.4719,746.4219 Q1579.8,745.4063 1579.8,744.2031 L1579.8,743.1094 Q1579.8,741.8594 1580.3938,740.7656 Q1581.0031,739.6719 1582.05,739.0938 Q1583.1125,738.5 1584.3,738.5 Q1585.0188,738.5 1585.6438,738.75 Q1586.2688,739 1586.8,739.5 Z "/><text fill="#000000" font-family="sans-serif" font-size="12" lengthAdjust="spacingAndGlyphs" textLength="48" x="1599.2" y="747.9102">Payment</text><line style="stroke: #A80036; stroke-width: 1.5;" x1="1569" x2="1651" y1="759" y2="759"/><text fill="#000000" font-family="sans-serif" font-size="11" lengthAdjust="spacingAndGlyphs" textLength="71" x="1574" y="774.4189">-double valueE</text><text fill="#000000" font-family="sans-serif" font-size="11" lengthAdjust="spacingAndGlyphs" textLength="72" x="1574" y="788.2549">-double valueC</text><!--MD5=[dc112212ffdae1b478a87df5bc652088]
class DefinePayment--><rect fill="#FEFECE" filter="url(#fqx8lzmq69a9r)" height="81.5078" id="DefinePayment" style="stroke: #A80036; stroke-width: 1.5;" width="116" x="961.5" y="951"/><ellipse cx="976.5" cy="967" fill="#ADD1B2" rx="11" ry="11" style="stroke: #A80036; stroke-width: 1.0;"/><path d="M978.5,963.5 Q978.7031,963 978.9375,962.75 Q979.1719,962.5 979.4375,962.5 Q979.9063,962.5 980.2031,962.7813 Q980.5,963.0625 980.5,963.7188 L980.5,965.2813 Q980.5,965.9375 980.2188,966.2188 Q979.9375,966.5 979.5,966.5 Q979.1094,966.5 978.8594,966.3281 Q978.6094,966.1563 978.5,965.7031 Q978.4531,965.3906 978.2813,965.2188 Q977.9688,964.8906 977.4063,964.7031 Q976.8438,964.5 976.2813,964.5 Q975.5781,964.5 974.9844,964.7813 Q974.4063,965.0625 973.9531,965.6875 Q973.5,966.3125 973.5,967.1719 L973.5,968.0938 Q973.5,969.125 974.3438,969.8125 Q975.1875,970.5 976.6875,970.5 Q977.5781,970.5 978.2031,970.2969 Q978.5625,970.1875 978.9688,969.8281 Q979.2344,969.625 979.375,969.5625 Q979.5156,969.5 979.6875,969.5 Q980.0156,969.5 980.25,969.7656 Q980.5,970.0156 980.5,970.375 Q980.5,970.7188 980.1563,971.125 Q979.6563,971.7188 978.8594,972.0469 Q977.8125,972.5 976.5313,972.5 Q975.0313,972.5 973.8281,971.9063 Q972.8594,971.4375 972.1719,970.4219 Q971.5,969.4063 971.5,968.2031 L971.5,967.1094 Q971.5,965.8594 972.0938,964.7656 Q972.7031,963.6719 973.75,963.0938 Q974.8125,962.5 976,962.5 Q976.7188,962.5 977.3438,962.75 Q977.9688,963 978.5,963.5 Z "/><text fill="#000000" font-family="sans-serif" font-size="12" lengthAdjust="spacingAndGlyphs" textLength="84" x="990.5" y="971.9102">DefinePayment</text><line style="stroke: #A80036; stroke-width: 1.5;" x1="962.5" x2="1076.5" y1="983" y2="983"/><text fill="#000000" font-family="sans-serif" font-size="11" lengthAdjust="spacingAndGlyphs" textLength="78" x="967.5" y="998.4189">-Time timeToPay</text><text fill="#000000" font-family="sans-serif" font-size="11" lengthAdjust="spacingAndGlyphs" textLength="80" x="967.5" y="1012.2549">-Data dateToPay</text><text fill="#000000" font-family="sans-serif" font-size="11" lengthAdjust="spacingAndGlyphs" textLength="53" x="967.5" y="1026.0908">-int nrDays</text><!--MD5=[e86a4777f2c0372cf9fb3cd047e1466e]
class Reader--><rect fill="#FEFECE" filter="url(#fqx8lzmq69a9r)" height="53.8359" id="Reader" style="stroke: #A80036; stroke-width: 1.5;" width="88" x="712" y="338"/><ellipse cx="733.75" cy="354" fill="#ADD1B2" rx="11" ry="11" style="stroke: #A80036; stroke-width: 1.0;"/><path d="M735.75,350.5 Q735.9531,350 736.1875,349.75 Q736.4219,349.5 736.6875,349.5 Q737.1563,349.5 737.4531,349.7813 Q737.75,350.0625 737.75,350.7188 L737.75,352.2813 Q737.75,352.9375 737.4688,353.2188 Q737.1875,353.5 736.75,353.5 Q736.3594,353.5 736.1094,353.3281 Q735.8594,353.1563 735.75,352.7031 Q735.7031,352.3906 735.5313,352.2188 Q735.2188,351.8906 734.6563,351.7031 Q734.0938,351.5 733.5313,351.5 Q732.8281,351.5 732.2344,351.7813 Q731.6563,352.0625 731.2031,352.6875 Q730.75,353.3125 730.75,354.1719 L730.75,355.0938 Q730.75,356.125 731.5938,356.8125 Q732.4375,357.5 733.9375,357.5 Q734.8281,357.5 735.4531,357.2969 Q735.8125,357.1875 736.2188,356.8281 Q736.4844,356.625 736.625,356.5625 Q736.7656,356.5 736.9375,356.5 Q737.2656,356.5 737.5,356.7656 Q737.75,357.0156 737.75,357.375 Q737.75,357.7188 737.4063,358.125 Q736.9063,358.7188 736.1094,359.0469 Q735.0625,359.5 733.7813,359.5 Q732.2813,359.5 731.0781,358.9063 Q730.1094,358.4375 729.4219,357.4219 Q728.75,356.4063 728.75,355.2031 L728.75,354.1094 Q728.75,352.8594 729.3438,351.7656 Q729.9531,350.6719 731,350.0938 Q732.0625,349.5 733.25,349.5 Q733.9688,349.5 734.5938,349.75 Q735.2188,350 735.75,350.5 Z "/><text fill="#000000" font-family="sans-serif" font-size="12" lengthAdjust="spacingAndGlyphs" textLength="41" x="749.25" y="358.9102">Reader</text><line style="stroke: #A80036; stroke-width: 1.5;" x1="713" x2="799" y1="370" y2="370"/><text fill="#000000" font-family="sans-serif" font-size="11" lengthAdjust="spacingAndGlyphs" textLength="76" x="718" y="385.4189">-String fileName</text><!--MD5=[5f120048d977cf6fddcd4f613ae1ac70]
class HistoricalTransaction--><rect fill="#FEFECE" filter="url(#fqx8lzmq69a9r)" height="40" id="HistoricalTransaction" style="stroke: #A80036; stroke-width: 1.5;" width="149" x="945" y="341"/><ellipse cx="960" cy="357" fill="#ADD1B2" rx="11" ry="11" style="stroke: #A80036; stroke-width: 1.0;"/><path d="M962,353.5 Q962.2031,353 962.4375,352.75 Q962.6719,352.5 962.9375,352.5 Q963.4063,352.5 963.7031,352.7813 Q964,353.0625 964,353.7188 L964,355.2813 Q964,355.9375 963.7188,356.2188 Q963.4375,356.5 963,356.5 Q962.6094,356.5 962.3594,356.3281 Q962.1094,356.1563 962,355.7031 Q961.9531,355.3906 961.7813,355.2188 Q961.4688,354.8906 960.9063,354.7031 Q960.3438,354.5 959.7813,354.5 Q959.0781,354.5 958.4844,354.7813 Q957.9063,355.0625 957.4531,355.6875 Q957,356.3125 957,357.1719 L957,358.0938 Q957,359.125 957.8438,359.8125 Q958.6875,360.5 960.1875,360.5 Q961.0781,360.5 961.7031,360.2969 Q962.0625,360.1875 962.4688,359.8281 Q962.7344,359.625 962.875,359.5625 Q963.0156,359.5 963.1875,359.5 Q963.5156,359.5 963.75,359.7656 Q964,360.0156 964,360.375 Q964,360.7188 963.6563,361.125 Q963.1563,361.7188 962.3594,362.0469 Q961.3125,362.5 960.0313,362.5 Q958.5313,362.5 957.3281,361.9063 Q956.3594,361.4375 955.6719,360.4219 Q955,359.4063 955,358.2031 L955,357.1094 Q955,355.8594 955.5938,354.7656 Q956.2031,353.6719 957.25,353.0938 Q958.3125,352.5 959.5,352.5 Q960.2188,352.5 960.8438,352.75 Q961.4688,353 962,353.5 Z "/><text fill="#000000" font-family="sans-serif" font-size="12" lengthAdjust="spacingAndGlyphs" textLength="117" x="974" y="361.9102">HistoricalTransaction</text><line style="stroke: #A80036; stroke-width: 1.5;" x1="946" x2="1093" y1="373" y2="373"/><!--MD5=[5ce80547de3caced9d0089e35ded5090]
class TaskExecution--><rect fill="#FEFECE" filter="url(#fqx8lzmq69a9r)" height="81.5078" id="TaskExecution" style="stroke: #A80036; stroke-width: 1.5;" width="145" x="2554" y="124"/><ellipse cx="2583.85" cy="140" fill="#ADD1B2" rx="11" ry="11" style="stroke: #A80036; stroke-width: 1.0;"/><path d="M2585.85,136.5 Q2586.0531,136 2586.2875,135.75 Q2586.5219,135.5 2586.7875,135.5 Q2587.2563,135.5 2587.5531,135.7813 Q2587.85,136.0625 2587.85,136.7188 L2587.85,138.2813 Q2587.85,138.9375 2587.5688,139.2188 Q2587.2875,139.5 2586.85,139.5 Q2586.4594,139.5 2586.2094,139.3281 Q2585.9594,139.1563 2585.85,138.7031 Q2585.8031,138.3906 2585.6313,138.2188 Q2585.3188,137.8906 2584.7563,137.7031 Q2584.1938,137.5 2583.6313,137.5 Q2582.9281,137.5 2582.3344,137.7813 Q2581.7563,138.0625 2581.3031,138.6875 Q2580.85,139.3125 2580.85,140.1719 L2580.85,141.0938 Q2580.85,142.125 2581.6938,142.8125 Q2582.5375,143.5 2584.0375,143.5 Q2584.9281,143.5 2585.5531,143.2969 Q2585.9125,143.1875 2586.3188,142.8281 Q2586.5844,142.625 2586.725,142.5625 Q2586.8656,142.5 2587.0375,142.5 Q2587.3656,142.5 2587.6,142.7656 Q2587.85,143.0156 2587.85,143.375 Q2587.85,143.7188 2587.5063,144.125 Q2587.0063,144.7188 2586.2094,145.0469 Q2585.1625,145.5 2583.8813,145.5 Q2582.3813,145.5 2581.1781,144.9063 Q2580.2094,144.4375 2579.5219,143.4219 Q2578.85,142.4063 2578.85,141.2031 L2578.85,140.1094 Q2578.85,138.8594 2579.4438,137.7656 Q2580.0531,136.6719 2581.1,136.0938 Q2582.1625,135.5 2583.35,135.5 Q2584.0688,135.5 2584.6938,135.75 Q2585.3188,136 2585.85,136.5 Z "/><text fill="#000000" font-family="sans-serif" font-size="12" lengthAdjust="spacingAndGlyphs" textLength="80" x="2601.15" y="144.9102">TaskExecution</text><line style="stroke: #A80036; stroke-width: 1.5;" x1="2555" x2="2698" y1="156" y2="156"/><text fill="#000000" font-family="sans-serif" font-size="11" lengthAdjust="spacingAndGlyphs" textLength="69" x="2560" y="171.4189">-Data endDate</text><text fill="#000000" font-family="sans-serif" font-size="11" lengthAdjust="spacingAndGlyphs" textLength="65" x="2560" y="185.2549">-double delay</text><text fill="#000000" font-family="sans-serif" font-size="11" lengthAdjust="spacingAndGlyphs" textLength="133" x="2560" y="199.0908">-String descriptionOfQuality</text><!--MD5=[86cfdc25119a3a20e0664f11a0f5b002]
class Writer--><rect fill="#FEFECE" filter="url(#fqx8lzmq69a9r)" height="53.8359" id="Writer" style="stroke: #A80036; stroke-width: 1.5;" width="88" x="2123.5" y="1095"/><ellipse cx="2149.3" cy="1111" fill="#ADD1B2" rx="11" ry="11" style="stroke: #A80036; stroke-width: 1.0;"/><path d="M2151.3,1107.5 Q2151.5031,1107 2151.7375,1106.75 Q2151.9719,1106.5 2152.2375,1106.5 Q2152.7063,1106.5 2153.0031,1106.7813 Q2153.3,1107.0625 2153.3,1107.7188 L2153.3,1109.2813 Q2153.3,1109.9375 2153.0188,1110.2188 Q2152.7375,1110.5 2152.3,1110.5 Q2151.9094,1110.5 2151.6594,1110.3281 Q2151.4094,1110.1563 2151.3,1109.7031 Q2151.2531,1109.3906 2151.0813,1109.2188 Q2150.7688,1108.8906 2150.2063,1108.7031 Q2149.6438,1108.5 2149.0813,1108.5 Q2148.3781,1108.5 2147.7844,1108.7813 Q2147.2063,1109.0625 2146.7531,1109.6875 Q2146.3,1110.3125 2146.3,1111.1719 L2146.3,1112.0938 Q2146.3,1113.125 2147.1438,1113.8125 Q2147.9875,1114.5 2149.4875,1114.5 Q2150.3781,1114.5 2151.0031,1114.2969 Q2151.3625,1114.1875 2151.7688,1113.8281 Q2152.0344,1113.625 2152.175,1113.5625 Q2152.3156,1113.5 2152.4875,1113.5 Q2152.8156,1113.5 2153.05,1113.7656 Q2153.3,1114.0156 2153.3,1114.375 Q2153.3,1114.7188 2152.9563,1115.125 Q2152.4563,1115.7188 2151.6594,1116.0469 Q2150.6125,1116.5 2149.3313,1116.5 Q2147.8313,1116.5 2146.6281,1115.9063 Q2145.6594,1115.4375 2144.9719,1114.4219 Q2144.3,1113.4063 2144.3,1112.2031 L2144.3,1111.1094 Q2144.3,1109.8594 2144.8938,1108.7656 Q2145.5031,1107.6719 2146.55,1107.0938 Q2147.6125,1106.5 2148.8,1106.5 Q2149.5188,1106.5 2150.1438,1106.75 Q2150.7688,1107 2151.3,1107.5 Z "/><text fill="#000000" font-family="sans-serif" font-size="12" lengthAdjust="spacingAndGlyphs" textLength="32" x="2165.7" y="1115.9102">Writer</text><line style="stroke: #A80036; stroke-width: 1.5;" x1="2124.5" x2="2210.5" y1="1127" y2="1127"/><text fill="#000000" font-family="sans-serif" font-size="11" lengthAdjust="spacingAndGlyphs" textLength="76" x="2129.5" y="1142.4189">-String fileName</text><!--MD5=[83bb469d45366b675450ee1d8d93a557]
link Freelancer to Transaction--><path d="M1371.25,380.14 C1380.92,376.92 1391.19,373.96 1401,372 C1668.3,318.58 1997.7,321.83 2118.88,325.27 " fill="none" id="Freelancer-Transaction" style="stroke: #A80036; stroke-width: 1.0;"/><text fill="#000000" font-family="sans-serif" font-size="13" lengthAdjust="spacingAndGlyphs" textLength="40" x="1729.5" y="323.4951">receive</text><polygon fill="#000000" points="1772.5,316.6758,1778.5,319.6758,1772.5,322.6758,1772.5,316.6758" style="stroke: #000000; stroke-width: 1.0;"/><text fill="#000000" font-family="sans-serif" font-size="13" lengthAdjust="spacingAndGlyphs" textLength="7" x="1379.0992" y="373.5535">1</text><text fill="#000000" font-family="sans-serif" font-size="13" lengthAdjust="spacingAndGlyphs" textLength="7" x="2103.8991" y="339.7772">1</text><!--MD5=[910f19d525f345201aad74ebe5d4fbde]
link Freelancer to Receipt--><path d="M1371.17,410.77 C1412.11,422.83 1474.21,441.99 1527,462 C1588.78,485.411 1605.91,488.754 1663,522 C1740.19,566.948 1822.4,633.683 1861.59,666.818 " fill="none" id="Freelancer-Receipt" style="stroke: #A80036; stroke-width: 1.0;"/><text fill="#000000" font-family="sans-serif" font-size="13" lengthAdjust="spacingAndGlyphs" textLength="47" x="1580" y="469.4951">receives</text><polygon fill="#000000" points="1630,462.6758,1636,465.6758,1630,468.6758,1630,462.6758" style="stroke: #000000; stroke-width: 1.0;"/><text fill="#000000" font-family="sans-serif" font-size="13" lengthAdjust="spacingAndGlyphs" textLength="7" x="1379.0065" y="427.6152">1</text><text fill="#000000" font-family="sans-serif" font-size="13" lengthAdjust="spacingAndGlyphs" textLength="7" x="1846.3914" y="656.0863">1</text><!--MD5=[a1bcd49bda1d48eee0717f7ad534cdd6]
link Freelancer to Payment--><path d="M1353.9,466.67 C1366.16,492.922 1382.13,522.235 1401,546 C1446.34,603.083 1476.87,598.078 1527,651 C1549.28,674.518 1571.03,704.093 1586.52,726.652 " fill="none" id="Freelancer-Payment" style="stroke: #A80036; stroke-width: 1.0;"/><text fill="#000000" font-family="sans-serif" font-size="13" lengthAdjust="spacingAndGlyphs" textLength="47" x="1434" y="542.4951">receives</text><polygon fill="#000000" points="1453,551.3516,1456,557.3516,1459,551.3516,1453,551.3516" style="stroke: #000000; stroke-width: 1.0;"/><text fill="#000000" font-family="sans-serif" font-size="13" lengthAdjust="spacingAndGlyphs" textLength="7" x="1349.3511" y="487.7369">1</text><text fill="#000000" font-family="sans-serif" font-size="13" lengthAdjust="spacingAndGlyphs" textLength="20" x="1560.1379" y="716.1393">1..*</text><!--MD5=[874150c88719dac3f651931978d26083]
link Freelancer to Address--><path d="M1371.37,459.093 C1380.35,468.43 1390.34,477.203 1401,484 C1450.11,515.312 1474.68,494.406 1527,520 C1537.77,525.271 1548.61,531.976 1558.72,538.98 " fill="none" id="Freelancer-Address" style="stroke: #A80036; stroke-width: 1.0;"/><text fill="#000000" font-family="sans-serif" font-size="13" lengthAdjust="spacingAndGlyphs" textLength="21" x="1447" y="480.4951">has</text><polygon fill="#000000" points="1471,473.6758,1477,476.6758,1471,479.6758,1471,473.6758" style="stroke: #000000; stroke-width: 1.0;"/><text fill="#000000" font-family="sans-serif" font-size="13" lengthAdjust="spacingAndGlyphs" textLength="7" x="1378.9298" y="483.2063">1</text><text fill="#000000" font-family="sans-serif" font-size="13" lengthAdjust="spacingAndGlyphs" textLength="7" x="1542.3047" y="528.1223">1</text><!--MD5=[535e17355da54b57e77a1c7dbde973e0]
link Freelancer to Writer--><path d="M1371.35,395.76 C1506.2,391.78 1909.67,400.45 2089,632 C2145.89,705.456 2161.93,1003.129 2165.57,1094.918 " fill="none" id="Freelancer-Writer" style="stroke: #A80036; stroke-width: 1.0;"/><text fill="#000000" font-family="sans-serif" font-size="13" lengthAdjust="spacingAndGlyphs" textLength="111" x="1694" y="417.4951">receives email from</text><polygon fill="#000000" points="1808,410.6758,1814,413.6758,1808,416.6758,1808,410.6758" style="stroke: #000000; stroke-width: 1.0;"/><text fill="#000000" font-family="sans-serif" font-size="13" lengthAdjust="spacingAndGlyphs" textLength="7" x="1378.9067" y="396.3379">1</text><text fill="#000000" font-family="sans-serif" font-size="13" lengthAdjust="spacingAndGlyphs" textLength="7" x="2157.3143" y="1084.36">1</text><!--MD5=[8853e9d83a8841c20c4ef075af762602]
link Task to Freelancer--><path d="M2311.8,281.33 C2258.7,240.2 2173.89,182.7 2089,159 C1986.26,130.32 1954,140.2 1849,159 C1638.26,196.72 1582.92,223.14 1401,336 C1390.85,342.3 1380.6,349.87 1371.08,357.53 " fill="none" id="Task-Freelancer" style="stroke: #A80036; stroke-width: 1.0;"/><polygon fill="#000000" points="1861.5,135.6758,1855.5,138.6758,1861.5,141.6758,1861.5,135.6758" style="stroke: #000000; stroke-width: 1.0;"/><text fill="#000000" font-family="sans-serif" font-size="13" lengthAdjust="spacingAndGlyphs" textLength="50" x="1867.5" y="142.4951">made by</text><text fill="#000000" font-family="sans-serif" font-size="13" lengthAdjust="spacingAndGlyphs" textLength="20" x="2284.2034" y="290.4984">1..*</text><text fill="#000000" font-family="sans-serif" font-size="13" lengthAdjust="spacingAndGlyphs" textLength="7" x="1378.9021" y="347.3401">1</text><!--MD5=[3781be57b219e856d6dd67e0b949b069]
link Platform to Transaction--><path d="M47.6704,753.837 C56.921,648.687 106.069,168 231.5,168 C231.5,168 231.5,168 1465,168 C1745.94,168 1830.4,159.22 2089,269 C2102.92,274.91 2116.63,283.83 2128.56,292.92 " fill="none" id="Platform-Transaction" style="stroke: #A80036; stroke-width: 1.0;"/><text fill="#000000" font-family="sans-serif" font-size="13" lengthAdjust="spacingAndGlyphs" textLength="21" x="1002.5" y="164.4951">has</text><polygon fill="#000000" points="1026.5,157.6758,1032.5,160.6758,1026.5,163.6758,1026.5,157.6758" style="stroke: #000000; stroke-width: 1.0;"/><text fill="#000000" font-family="sans-serif" font-size="13" lengthAdjust="spacingAndGlyphs" textLength="7" x="40.4267" y="743.1109">1</text><text fill="#000000" font-family="sans-serif" font-size="13" lengthAdjust="spacingAndGlyphs" textLength="20" x="2098.9249" y="282.1975">1..*</text><!--MD5=[0f7004bed4496639b3a5258ab2ead378]
link Platform to Administrator--><path d="M51.4059,794.05 C61.0179,827.879 83.0233,897.803 114,951 C141.973,999.038 185.799,1047.455 211.276,1073.801 " fill="none" id="Platform-Administrator" style="stroke: #A80036; stroke-width: 1.0;"/><text fill="#000000" font-family="sans-serif" font-size="13" lengthAdjust="spacingAndGlyphs" textLength="21" x="115" y="947.4951">has</text><polygon fill="#000000" points="121,956.3516,124,962.3516,127,956.3516,121,956.3516" style="stroke: #000000; stroke-width: 1.0;"/><text fill="#000000" font-family="sans-serif" font-size="13" lengthAdjust="spacingAndGlyphs" textLength="7" x="54.1919" y="815.4836">1</text><text fill="#000000" font-family="sans-serif" font-size="13" lengthAdjust="spacingAndGlyphs" textLength="7" x="197.0133" y="1063.0643">1</text><!--MD5=[7640e466c042ba2d6f9c19c816f7f0fc]
link Platform to Organization--><path d="M84.2389,789.091 C165.372,821.11 354.694,895.826 444.944,931.443 " fill="none" id="Platform-Organization" style="stroke: #A80036; stroke-width: 1.0;"/><text fill="#000000" font-family="sans-serif" font-size="13" lengthAdjust="spacingAndGlyphs" textLength="82" x="185" y="823.4951">has registered</text><polygon fill="#000000" points="270,816.6758,276,819.6758,270,822.6758,270,816.6758" style="stroke: #000000; stroke-width: 1.0;"/><text fill="#000000" font-family="sans-serif" font-size="13" lengthAdjust="spacingAndGlyphs" textLength="7" x="92.1189" y="806.8759">1</text><text fill="#000000" font-family="sans-serif" font-size="13" lengthAdjust="spacingAndGlyphs" textLength="20" x="417.1853" y="943.5114">1..*</text><!--MD5=[22697d4d863c2e08ab1d60ca0d61f844]
link Platform to Freelancer--><path d="M46.7123,753.696 C49.3115,699.105 61.1582,545.626 114,432 C149.269,356.16 147.86,285 231.5,285 C231.5,285 231.5,285 1020.5,285 C1126.27,285 1153.83,303.95 1250,348 C1260.06,352.61 1270.26,358.5 1279.77,364.62 " fill="none" id="Platform-Freelancer" style="stroke: #A80036; stroke-width: 1.0;"/><text fill="#000000" font-family="sans-serif" font-size="13" lengthAdjust="spacingAndGlyphs" textLength="21" x="609" y="281.4951">has</text><polygon fill="#000000" points="633,274.6758,639,277.6758,633,280.6758,633,274.6758" style="stroke: #000000; stroke-width: 1.0;"/><text fill="#000000" font-family="sans-serif" font-size="13" lengthAdjust="spacingAndGlyphs" textLength="7" x="39.2095" y="743.2801">1</text><text fill="#000000" font-family="sans-serif" font-size="13" lengthAdjust="spacingAndGlyphs" textLength="20" x="1251.933" y="374.5812">1..*</text><!--MD5=[22697d4d863c2e08ab1d60ca0d61f844]
link Platform to Freelancer--><path d="M48.0492,753.752 C56.3262,684.008 93.7731,458 231.5,458 C231.5,458 231.5,458 757,458 C952.67,458 1184.2,422.29 1279.79,405.97 " fill="none" id="Platform-Freelancer-1" style="stroke: #A80036; stroke-width: 1.0;"/><text fill="#000000" font-family="sans-serif" font-size="13" lengthAdjust="spacingAndGlyphs" textLength="85" x="577" y="454.4951">sends email to</text><polygon fill="#000000" points="665,447.6758,671,450.6758,665,453.6758,665,447.6758" style="stroke: #000000; stroke-width: 1.0;"/><text fill="#000000" font-family="sans-serif" font-size="13" lengthAdjust="spacingAndGlyphs" textLength="7" x="49.973" y="743.0009">1</text><text fill="#000000" font-family="sans-serif" font-size="13" lengthAdjust="spacingAndGlyphs" textLength="7" x="1264.9472" y="422.0502">1</text><!--MD5=[729d38e941f71726a36b38b157ad7957]
link Platform to Collaborator--><path d="M84.205,770.803 C171.335,763.692 391.475,746.739 576,741 C620.423,739.618 631.751,736.836 676,741 C685.729,741.915 696.044,743.452 705.898,745.201 " fill="none" id="Platform-Collaborator" style="stroke: #A80036; stroke-width: 1.0;"/><text fill="#000000" font-family="sans-serif" font-size="13" lengthAdjust="spacingAndGlyphs" textLength="85" x="316" y="744.4951">sends email to</text><polygon fill="#000000" points="404,737.6758,410,740.6758,404,743.6758,404,737.6758" style="stroke: #000000; stroke-width: 1.0;"/><text fill="#000000" font-family="sans-serif" font-size="13" lengthAdjust="spacingAndGlyphs" textLength="7" x="92.0787" y="785.2161">1</text><text fill="#000000" font-family="sans-serif" font-size="13" lengthAdjust="spacingAndGlyphs" textLength="7" x="691.0252" y="739.9849">1</text><!--MD5=[fe099013e52a8d16c3af5f33501aec65]
link Platform to Manager--><path d="M47.5568,794.224 C55.5413,881.774 100.3465,1229.029 315,1348 C463.505,1430.3087 651.603,1256.955 724.349,1180.159 " fill="none" id="Platform-Manager" style="stroke: #A80036; stroke-width: 1.0;"/><text fill="#000000" font-family="sans-serif" font-size="13" lengthAdjust="spacingAndGlyphs" textLength="85" x="316" y="1344.4951">sends email to</text><polygon fill="#000000" points="404,1337.6758,410,1340.6758,404,1343.6758,404,1337.6758" style="stroke: #000000; stroke-width: 1.0;"/><text fill="#000000" font-family="sans-serif" font-size="13" lengthAdjust="spacingAndGlyphs" textLength="7" x="40.3033" y="815.3516">1</text><text fill="#000000" font-family="sans-serif" font-size="13" lengthAdjust="spacingAndGlyphs" textLength="7" x="711.0877" y="1201.2242">1</text><!--MD5=[0bf675f16fbaf9ae71c3659ee262a45e]
link Platform to Writer--><path d="M47.0871,794.112 C53.6637,905.924 92.6181,1446 231.5,1446 C231.5,1446 231.5,1446 1887,1446 C2043.38,1446 2131.56,1226.937 2157.97,1149.067 " fill="none" id="Platform-Writer" style="stroke: #A80036; stroke-width: 1.0;"/><text fill="#000000" font-family="sans-serif" font-size="13" lengthAdjust="spacingAndGlyphs" textLength="106" x="960" y="1442.4951">sends emails from</text><polygon fill="#000000" points="1069,1435.6758,1075,1438.6758,1069,1441.6758,1069,1435.6758" style="stroke: #000000; stroke-width: 1.0;"/><text fill="#000000" font-family="sans-serif" font-size="13" lengthAdjust="spacingAndGlyphs" textLength="7" x="48.6585" y="815.5631">1</text><text fill="#000000" font-family="sans-serif" font-size="13" lengthAdjust="spacingAndGlyphs" textLength="7" x="2148.1197" y="1170.2894">1</text><!--MD5=[ec97d39b7e7a4ec2b79aa9dbbb3f5070]
link Organization to Address--><path d="M546.213,928.368 C607.463,900.405 714.64,851.223 806,808 C947.949,740.843 974.035,700.587 1124,654 C1276.92,606.495 1466.8,588.854 1556.89,582.834 " fill="none" id="Organization-Address" style="stroke: #A80036; stroke-width: 1.0;"/><text fill="#000000" font-family="sans-serif" font-size="13" lengthAdjust="spacingAndGlyphs" textLength="21" x="1002.5" y="660.4951">has</text><polygon fill="#000000" points="1026.5,653.6758,1032.5,656.6758,1026.5,659.6758,1026.5,653.6758" style="stroke: #000000; stroke-width: 1.0;"/><text fill="#000000" font-family="sans-serif" font-size="13" lengthAdjust="spacingAndGlyphs" textLength="7" x="553.8367" y="939.8648">1</text><text fill="#000000" font-family="sans-serif" font-size="13" lengthAdjust="spacingAndGlyphs" textLength="7" x="1541.9292" y="597.912">1</text><!--MD5=[bc039f41cf0b27fadee5cae63fc6e1fe]
link Organization to Manager--><path d="M510.53,992.168 C523.106,1023.217 544.478,1064.653 576,1090 C587.102,1098.927 666.672,1121.818 715.914,1135.41 " fill="none" id="Organization-Manager" style="stroke: #A80036; stroke-width: 1.0;"/><text fill="#000000" font-family="sans-serif" font-size="13" lengthAdjust="spacingAndGlyphs" textLength="21" x="609" y="1086.4951">has</text><polygon fill="#000000" points="633,1079.6758,639,1082.6758,633,1085.6758,633,1079.6758" style="stroke: #000000; stroke-width: 1.0;"/><text fill="#000000" font-family="sans-serif" font-size="13" lengthAdjust="spacingAndGlyphs" textLength="7" x="505.2235" y="1012.9466">1</text><text fill="#000000" font-family="sans-serif" font-size="13" lengthAdjust="spacingAndGlyphs" textLength="7" x="700.8778" y="1129.5402">1</text><!--MD5=[45817597bcd7048073a670d966abfd17]
link Organization to Collaborator--><path d="M516.514,909.945 C530.263,885.5 550.606,855.535 576,836 C613.44,807.197 633.002,819.557 676,800 C685.86,795.515 696.145,790.252 705.908,784.955 " fill="none" id="Organization-Collaborator" style="stroke: #A80036; stroke-width: 1.0;"/><text fill="#000000" font-family="sans-serif" font-size="13" lengthAdjust="spacingAndGlyphs" textLength="21" x="609" y="796.4951">has</text><polygon fill="#000000" points="633,789.6758,639,792.6758,633,795.6758,633,789.6758" style="stroke: #000000; stroke-width: 1.0;"/><text fill="#000000" font-family="sans-serif" font-size="13" lengthAdjust="spacingAndGlyphs" textLength="7" x="512.5242" y="899.0813">1</text><text fill="#000000" font-family="sans-serif" font-size="13" lengthAdjust="spacingAndGlyphs" textLength="7" x="691.0367" y="803.9278">1</text><!--MD5=[4078351e3988aa35b1504a42837f2ab1]
link Organization to Task--><path d="M546.32,966.08 C628.444,990.034 797.814,1035.64 945,1051 C1010.86,1057.873 1027.93,1055.527 1094,1051 C1107.92,1050.046 2076.71,920.595 2089,914 C2281.58,810.678 2341.62,527.185 2359.43,395.68 " fill="none" id="Organization-Task" style="stroke: #A80036; stroke-width: 1.0;"/><text fill="#000000" font-family="sans-serif" font-size="13" lengthAdjust="spacingAndGlyphs" textLength="21" x="1447" y="989.4951">has</text><polygon fill="#000000" points="1471,982.6758,1477,985.6758,1471,988.6758,1471,982.6758" style="stroke: #000000; stroke-width: 1.0;"/><text fill="#000000" font-family="sans-serif" font-size="13" lengthAdjust="spacingAndGlyphs" textLength="7" x="553.9588" y="982.8801">1</text><text fill="#000000" font-family="sans-serif" font-size="13" lengthAdjust="spacingAndGlyphs" textLength="20" x="2359.62" y="416.7479">1..*</text><!--MD5=[cb0755ad77e11534d97f26a610810f27]
link Organization to DefinePayment--><path d="M546.079,954.894 C643.295,962.53 858.422,979.427 961.399,987.515 " fill="none" id="Organization-DefinePayment" style="stroke: #A80036; stroke-width: 1.0;"/><text fill="#000000" font-family="sans-serif" font-size="13" lengthAdjust="spacingAndGlyphs" textLength="33" x="733" y="964.4951">saves</text><polygon fill="#000000" points="769,957.6758,775,960.6758,769,963.6758,769,957.6758" style="stroke: #000000; stroke-width: 1.0;"/><text fill="#000000" font-family="sans-serif" font-size="13" lengthAdjust="spacingAndGlyphs" textLength="7" x="554.0219" y="961.023">1</text><text fill="#000000" font-family="sans-serif" font-size="13" lengthAdjust="spacingAndGlyphs" textLength="7" x="946.5064" y="1001.5145">1</text><!--MD5=[6eb6e197a729f6ec2412743e0bdbca1d]
link Manager to User--><path d="M796.265,1172.888 C808.553,1180.32 822.451,1187.771 836,1193 C888.177,1213.139 953.178,1222.956 989.842,1227.205 " fill="none" id="Manager-User" style="stroke: #A80036; stroke-width: 1.0;"/><text fill="#000000" font-family="sans-serif" font-size="13" lengthAdjust="spacingAndGlyphs" textLength="43" x="847.5" y="1189.4951">acts as</text><polygon fill="#000000" points="893.5,1182.6758,899.5,1185.6758,893.5,1188.6758,893.5,1182.6758" style="stroke: #000000; stroke-width: 1.0;"/><text fill="#000000" font-family="sans-serif" font-size="13" lengthAdjust="spacingAndGlyphs" textLength="7" x="804.0606" y="1192.6581">1</text><text fill="#000000" font-family="sans-serif" font-size="13" lengthAdjust="spacingAndGlyphs" textLength="7" x="975.1742" y="1241.9444">1</text><!--MD5=[22b92a6bde93b1f8afcaf2cbb8515056]
link Manager to Writer--><path d="M796.031,1147.671 C871.395,1150.748 1042.21,1157 1186,1157 C1186,1157 1186,1157 1887,1157 C1971.11,1157 2068.37,1141.2 2123.14,1130.832 " fill="none" id="Manager-Writer" style="stroke: #A80036; stroke-width: 1.0;"/><text fill="#000000" font-family="sans-serif" font-size="13" lengthAdjust="spacingAndGlyphs" textLength="111" x="1402" y="1153.4951">receives email from</text><polygon fill="#000000" points="1516,1146.6758,1522,1149.6758,1516,1152.6758,1516,1146.6758" style="stroke: #000000; stroke-width: 1.0;"/><text fill="#000000" font-family="sans-serif" font-size="13" lengthAdjust="spacingAndGlyphs" textLength="7" x="804.057" y="1163.0119">1</text><text fill="#000000" font-family="sans-serif" font-size="13" lengthAdjust="spacingAndGlyphs" textLength="7" x="2108.5123" y="1147.0508">1</text><!--MD5=[7607ad5d3fcdbaed39551b8453eb8b3b]
link Manager to DefinePayment--><path d="M784.32,1111.992 C798.439,1096.096 816.729,1077.881 836,1065 C874.584,1039.21 923.679,1020.22 961.228,1008.083 " fill="none" id="Manager-DefinePayment" style="stroke: #A80036; stroke-width: 1.0;"/><text fill="#000000" font-family="sans-serif" font-size="13" lengthAdjust="spacingAndGlyphs" textLength="64" x="837" y="1021.4951">determines</text><polygon fill="#000000" points="904,1014.6758,910,1017.6758,904,1020.6758,904,1014.6758" style="stroke: #000000; stroke-width: 1.0;"/><text fill="#000000" font-family="sans-serif" font-size="13" lengthAdjust="spacingAndGlyphs" textLength="7" x="782.4391" y="1100.8931">1</text><text fill="#000000" font-family="sans-serif" font-size="13" lengthAdjust="spacingAndGlyphs" textLength="7" x="946.3135" y="1024.7178">1</text><!--MD5=[2a41c1af413c0662bf55a6b8913ea24f]
link Administrator to Organization--><path d="M270.066,1073.966 C315.662,1048.984 393.803,1006.171 444.8,978.23 " fill="none" id="Administrator-Organization" style="stroke: #A80036; stroke-width: 1.0;"/><text fill="#000000" font-family="sans-serif" font-size="13" lengthAdjust="spacingAndGlyphs" textLength="50" x="333.5" y="993.4951">registers</text><polygon fill="#000000" points="386.5,986.6758,392.5,989.6758,386.5,992.6758,386.5,986.6758" style="stroke: #000000; stroke-width: 1.0;"/><text fill="#000000" font-family="sans-serif" font-size="13" lengthAdjust="spacingAndGlyphs" textLength="7" x="273.0729" y="1063.2778">1</text><text fill="#000000" font-family="sans-serif" font-size="13" lengthAdjust="spacingAndGlyphs" textLength="7" x="429.8394" y="996.9615">1</text><!--MD5=[edc107c0a572352bcd12c9afaba4390b]
link Administrator to User--><path d="M285.021,1110.641 C294.922,1113.601 305.245,1116.525 315,1119 C543.871,1177.075 601.413,1196.102 836,1223 C890.182,1229.213 953.94,1230.237 989.948,1230.24 " fill="none" id="Administrator-User" style="stroke: #A80036; stroke-width: 1.0;"/><text fill="#000000" font-family="sans-serif" font-size="13" lengthAdjust="spacingAndGlyphs" textLength="43" x="598" y="1179.4951">acts as</text><polygon fill="#000000" points="644,1172.6758,650,1175.6758,644,1178.6758,644,1172.6758" style="stroke: #000000; stroke-width: 1.0;"/><text fill="#000000" font-family="sans-serif" font-size="13" lengthAdjust="spacingAndGlyphs" textLength="7" x="293.0337" y="1131.7363">1</text><text fill="#000000" font-family="sans-serif" font-size="13" lengthAdjust="spacingAndGlyphs" textLength="7" x="974.8916" y="1245.7865">1</text><!--MD5=[757406b2e460220911d4cccaa97c87d9]
link Administrator to Collaborator--><path d="M244.022,1073.729 C257.991,1048.008 284.481,1003.134 315,971 C414.352,866.391 441.995,831.447 576,778 C617.733,761.355 668.924,756.458 705.856,755.368 " fill="none" id="Administrator-Collaborator" style="stroke: #A80036; stroke-width: 1.0;"/><text fill="#000000" font-family="sans-serif" font-size="13" lengthAdjust="spacingAndGlyphs" textLength="50" x="464" y="787.4951">registers</text><polygon fill="#000000" points="517,780.6758,523,783.6758,517,786.6758,517,780.6758" style="stroke: #000000; stroke-width: 1.0;"/><text fill="#000000" font-family="sans-serif" font-size="13" lengthAdjust="spacingAndGlyphs" textLength="7" x="239.3785" y="1062.9711">1</text><text fill="#000000" font-family="sans-serif" font-size="13" lengthAdjust="spacingAndGlyphs" textLength="7" x="690.977" y="769.9952">1</text><!--MD5=[64d713fdb760e3b6b59069371d93ba85]
link Administrator to Manager--><path d="M285.41,1099.176 C389.751,1109.58 622.846,1132.823 715.716,1142.083 " fill="none" id="Administrator-Manager" style="stroke: #A80036; stroke-width: 1.0;"/><text fill="#000000" font-family="sans-serif" font-size="13" lengthAdjust="spacingAndGlyphs" textLength="50" x="464" y="1111.4951">registers</text><polygon fill="#000000" points="517,1104.6758,523,1107.6758,517,1110.6758,517,1104.6758" style="stroke: #000000; stroke-width: 1.0;"/><text fill="#000000" font-family="sans-serif" font-size="13" lengthAdjust="spacingAndGlyphs" textLength="7" x="292.9901" y="1114.4653">1</text><text fill="#000000" font-family="sans-serif" font-size="13" lengthAdjust="spacingAndGlyphs" textLength="7" x="700.917" y="1156.3659">1</text><!--MD5=[07102334b95112f39e7e0811ba637f1c]
link Administrator to Writer--><path d="M245.294,1114.136 C277.766,1166.697 374.112,1304 494.5,1304 C494.5,1304 494.5,1304 1887,1304 C1999.05,1304 2101.39,1200.019 2144.69,1149.247 " fill="none" id="Administrator-Writer" style="stroke: #A80036; stroke-width: 1.0;"/><text fill="#000000" font-family="sans-serif" font-size="13" lengthAdjust="spacingAndGlyphs" textLength="111" x="1125" y="1300.4951">receives email from</text><polygon fill="#000000" points="1239,1293.6758,1245,1296.6758,1239,1299.6758,1239,1293.6758" style="stroke: #000000; stroke-width: 1.0;"/><text fill="#000000" font-family="sans-serif" font-size="13" lengthAdjust="spacingAndGlyphs" textLength="7" x="240.9079" y="1135.5938">1</text><text fill="#000000" font-family="sans-serif" font-size="13" lengthAdjust="spacingAndGlyphs" textLength="7" x="2131.9347" y="1170.5088">1</text><!--MD5=[8e4873cec2cb3febaaa9495c716fc885]
link Transaction to Task--><path d="M2216.18,327 C2245.01,327 2281.88,327 2311.89,327 " fill="none" id="Transaction-Task" style="stroke: #A80036; stroke-width: 1.0;"/><text fill="#000000" font-family="sans-serif" font-size="13" lengthAdjust="spacingAndGlyphs" textLength="21" x="2247" y="323.4951">has</text><polygon fill="#000000" points="2271,316.6758,2277,319.6758,2271,322.6758,2271,316.6758" style="stroke: #000000; stroke-width: 1.0;"/><text fill="#000000" font-family="sans-serif" font-size="13" lengthAdjust="spacingAndGlyphs" textLength="7" x="2223.8439" y="341.72">1</text><text fill="#000000" font-family="sans-serif" font-size="13" lengthAdjust="spacingAndGlyphs" textLength="7" x="2296.9471" y="341.6037">1</text><!--MD5=[590de1eb4160e0577c453d6e7f1b2aac]
link Transaction to TaskExecution--><path d="M2216.12,293.67 C2243.21,275.97 2278.36,255.02 2312,241 C2391.61,207.82 2488.88,187.05 2553.77,175.78 " fill="none" id="Transaction-TaskExecution" style="stroke: #A80036; stroke-width: 1.0;"/><text fill="#000000" font-family="sans-serif" font-size="13" lengthAdjust="spacingAndGlyphs" textLength="21" x="2350.5" y="201.4951">has</text><polygon fill="#000000" points="2374.5,194.6758,2380.5,197.6758,2374.5,200.6758,2374.5,194.6758" style="stroke: #000000; stroke-width: 1.0;"/><text fill="#000000" font-family="sans-serif" font-size="13" lengthAdjust="spacingAndGlyphs" textLength="7" x="2224.1009" y="303.3385">1</text><text fill="#000000" font-family="sans-serif" font-size="13" lengthAdjust="spacingAndGlyphs" textLength="7" x="2538.9088" y="191.2553">1</text><!--MD5=[264464a3d777ed38cc26833f9af77f81]
link Payment to Receipt--><path d="M1652.1,746.771 C1665.11,742.453 1679.6,737.84 1693,734 C1746.77,718.591 1809.91,703.75 1848.68,695.001 " fill="none" id="Payment-Receipt" style="stroke: #A80036; stroke-width: 1.0;"/><text fill="#000000" font-family="sans-serif" font-size="13" lengthAdjust="spacingAndGlyphs" textLength="50" x="1724.5" y="698.4951">generate</text><polygon fill="#000000" points="1777.5,691.6758,1783.5,694.6758,1777.5,697.6758,1777.5,691.6758" style="stroke: #000000; stroke-width: 1.0;"/><text fill="#000000" font-family="sans-serif" font-size="13" lengthAdjust="spacingAndGlyphs" textLength="7" x="1659.9375" y="759.2539">1</text><text fill="#000000" font-family="sans-serif" font-size="13" lengthAdjust="spacingAndGlyphs" textLength="7" x="1833.8987" y="711.5798">1</text><!--MD5=[c4629210b2ba88e64afbee18491f07dd]
link Payment to Transaction--><path d="M1652.23,770.99 C1745.26,790.811 1972.47,823.467 2089,703 C2136.27,654.138 2157.42,444.39 2164.06,361.19 " fill="none" id="Payment-Transaction" style="stroke: #A80036; stroke-width: 1.0;"/><text fill="#000000" font-family="sans-serif" font-size="13" lengthAdjust="spacingAndGlyphs" textLength="21" x="1869" y="779.4951">has</text><polygon fill="#000000" points="1893,772.6758,1899,775.6758,1893,778.6758,1893,772.6758" style="stroke: #000000; stroke-width: 1.0;"/><text fill="#000000" font-family="sans-serif" font-size="13" lengthAdjust="spacingAndGlyphs" textLength="7" x="1660.0898" y="787.6356">1</text><text fill="#000000" font-family="sans-serif" font-size="13" lengthAdjust="spacingAndGlyphs" textLength="20" x="2165.2285" y="382.2607">1..*</text><!--MD5=[8d90593bea2390679155cfb91b569b68]
link DefinePayment to Payment--><path d="M1077.73,969.536 C1196.01,923.108 1464.94,817.549 1567.87,777.145 " fill="none" id="DefinePayment-Payment" style="stroke: #A80036; stroke-width: 1.0;"/><text fill="#000000" font-family="sans-serif" font-size="13" lengthAdjust="spacingAndGlyphs" textLength="41" x="1298.5" y="853.4951">defines</text><polygon fill="#000000" points="1342.5,846.6758,1348.5,849.6758,1342.5,852.6758,1342.5,846.6758" style="stroke: #000000; stroke-width: 1.0;"/><text fill="#000000" font-family="sans-serif" font-size="13" lengthAdjust="spacingAndGlyphs" textLength="7" x="1085.6392" y="981.232">1</text><text fill="#000000" font-family="sans-serif" font-size="13" lengthAdjust="spacingAndGlyphs" textLength="20" x="1539.8876" y="794.3894">1..*</text><!--MD5=[818a7ceb57ddd368999fbf099f390a6d]
link Reader to HistoricalTransaction--><path d="M800.181,364.34 C839.422,363.74 898.137,362.84 944.796,362.13 " fill="none" id="Reader-HistoricalTransaction" style="stroke: #A80036; stroke-width: 1.0;"/><text fill="#000000" font-family="sans-serif" font-size="13" lengthAdjust="spacingAndGlyphs" textLength="56" x="841" y="358.4951">originates</text><polygon fill="#000000" points="900,351.6758,906,354.6758,900,357.6758,900,351.6758" style="stroke: #000000; stroke-width: 1.0;"/><text fill="#000000" font-family="sans-serif" font-size="13" lengthAdjust="spacingAndGlyphs" textLength="7" x="808.0782" y="379.0935">1</text><text fill="#000000" font-family="sans-serif" font-size="13" lengthAdjust="spacingAndGlyphs" textLength="20" x="916.9874" y="376.483">1..*</text><!--MD5=[09813f49c964f2362ae6ca00d2202492]
link HistoricalTransaction to Transaction--><path d="M1094.14,343.84 C1145.83,332.6 1216.75,318.77 1280,312 C1577.48,280.16 1653.83,299.44 1953,298 C2013.44,297.71 2029.52,287.24 2089,298 C2098.9,299.79 2109.17,302.77 2118.89,306.16 " fill="none" id="HistoricalTransaction-Transaction" style="stroke: #A80036; stroke-width: 1.0;"/><text fill="#000000" font-family="sans-serif" font-size="13" lengthAdjust="spacingAndGlyphs" textLength="21" x="1593" y="289.4951">has</text><polygon fill="#000000" points="1617,282.6758,1623,285.6758,1617,288.6758,1617,282.6758" style="stroke: #000000; stroke-width: 1.0;"/><text fill="#000000" font-family="sans-serif" font-size="13" lengthAdjust="spacingAndGlyphs" textLength="7" x="1102.1982" y="356.4086">1</text><text fill="#000000" font-family="sans-serif" font-size="13" lengthAdjust="spacingAndGlyphs" textLength="20" x="2091.0143" y="317.9754">1..*</text><!--MD5=[9fd72751b03cb19134c76fd7e0acb422]
link HistoricalTransaction to Freelancer--><path d="M1094.09,369.96 C1152.08,377.01 1231.03,386.62 1279.84,392.56 " fill="none" id="HistoricalTransaction-Freelancer" style="stroke: #A80036; stroke-width: 1.0;"/><text fill="#000000" font-family="sans-serif" font-size="13" lengthAdjust="spacingAndGlyphs" textLength="21" x="1170" y="370.4951">has</text><polygon fill="#000000" points="1194,363.6758,1200,366.6758,1194,369.6758,1194,363.6758" style="stroke: #000000; stroke-width: 1.0;"/><text fill="#000000" font-family="sans-serif" font-size="13" lengthAdjust="spacingAndGlyphs" textLength="7" x="1102.143" y="385.2222">1</text><text fill="#000000" font-family="sans-serif" font-size="13" lengthAdjust="spacingAndGlyphs" textLength="20" x="1252.0128" y="406.4503">1..*</text><!--MD5=[d2c3650dbd07e79cdad2ffd4a879dec6]
link Collaborator to Freelancer--><path d="M765.016,721.91 C775.361,685.243 796.868,627.68 836,594 C982.172,468.191 1082.12,558.925 1250,464 C1260.38,458.132 1270.57,450.632 1279.93,442.81 " fill="none" id="Collaborator-Freelancer" style="stroke: #A80036; stroke-width: 1.0;"/><text fill="#000000" font-family="sans-serif" font-size="13" lengthAdjust="spacingAndGlyphs" textLength="43" x="991.5" y="508.4951">creates</text><polygon fill="#000000" points="1037.5,501.6758,1043.5,504.6758,1037.5,507.6758,1037.5,501.6758" style="stroke: #000000; stroke-width: 1.0;"/><text fill="#000000" font-family="sans-serif" font-size="13" lengthAdjust="spacingAndGlyphs" textLength="7" x="767.4801" y="711.1856">1</text><text fill="#000000" font-family="sans-serif" font-size="13" lengthAdjust="spacingAndGlyphs" textLength="7" x="1265.1095" y="464.7616">1</text><!--MD5=[f919d21ae7a75ef5ececc535e09d5009]
link Collaborator to Task--><path d="M806.046,762.21 C931.015,777.68 1271.69,817.655 1557,831 C1604.06,833.201 1615.96,833.587 1663,831 C1853.19,820.54 1928.37,886.387 2089,784 C2231.85,692.945 2312.05,499.461 2346.34,395.87 " fill="none" id="Collaborator-Task" style="stroke: #A80036; stroke-width: 1.0;"/><text fill="#000000" font-family="sans-serif" font-size="13" lengthAdjust="spacingAndGlyphs" textLength="43" x="1582" y="827.4951">creates</text><polygon fill="#000000" points="1628,820.6758,1634,823.6758,1628,826.6758,1628,820.6758" style="stroke: #000000; stroke-width: 1.0;"/><text fill="#000000" font-family="sans-serif" font-size="13" lengthAdjust="spacingAndGlyphs" textLength="7" x="813.9106" y="759.4921">1</text><text fill="#000000" font-family="sans-serif" font-size="13" lengthAdjust="spacingAndGlyphs" textLength="20" x="2323.2727" y="416.9566">1..*</text><!--MD5=[8b5db564ea9bd1758097b07ca3fd81a4]
link Collaborator to Transaction--><path d="M806.291,738.032 C816.037,734.977 826.264,732.114 836,730 C1197.36,651.553 1313.44,759.583 1663,639 C1852.08,573.776 2044.49,427.56 2126.02,361.07 " fill="none" id="Collaborator-Transaction" style="stroke: #A80036; stroke-width: 1.0;"/><text fill="#000000" font-family="sans-serif" font-size="13" lengthAdjust="spacingAndGlyphs" textLength="43" x="1436" y="673.4951">creates</text><polygon fill="#000000" points="1482,666.6758,1488,669.6758,1482,672.6758,1482,666.6758" style="stroke: #000000; stroke-width: 1.0;"/><text fill="#000000" font-family="sans-serif" font-size="13" lengthAdjust="spacingAndGlyphs" textLength="7" x="813.8554" y="731.9232">1</text><text fill="#000000" font-family="sans-serif" font-size="13" lengthAdjust="spacingAndGlyphs" textLength="20" x="2096.8501" y="382.1194">1..*</text><!--MD5=[04ce0ecdab38a3951889ff50c232570f]
link Collaborator to User--><path d="M767.994,790.036 C778.688,823.972 794.903,877.712 806,925 C823.128,997.99 796.855,1027.058 836,1091 C855.391,1122.675 943.388,1181.971 989.738,1211.832 " fill="none" id="Collaborator-User" style="stroke: #A80036; stroke-width: 1.0;"/><text fill="#000000" font-family="sans-serif" font-size="13" lengthAdjust="spacingAndGlyphs" textLength="43" x="847.5" y="1087.4951">acts as</text><polygon fill="#000000" points="864.5,1096.3516,867.5,1102.3516,870.5,1096.3516,864.5,1096.3516" style="stroke: #000000; stroke-width: 1.0;"/><text fill="#000000" font-family="sans-serif" font-size="13" lengthAdjust="spacingAndGlyphs" textLength="7" x="762.507" y="811.0793">1</text><text fill="#000000" font-family="sans-serif" font-size="13" lengthAdjust="spacingAndGlyphs" textLength="7" x="975.0462" y="1223.0164">1</text><!--MD5=[2bf0bd16ae3d2322f415cdcee023b5a6]
link Collaborator to HistoricalTransaction--><path d="M759.422,721.651 C764.849,666.433 782.105,556.67 836,483 C870.654,435.63 929.658,401.1 971.175,381.11 " fill="none" id="Collaborator-HistoricalTransaction" style="stroke: #A80036; stroke-width: 1.0;"/><polygon fill="#000000" points="864.5,408,867.5,402,870.5,408,864.5,408" style="stroke: #000000; stroke-width: 1.0;"/><text fill="#000000" font-family="sans-serif" font-size="13" lengthAdjust="spacingAndGlyphs" textLength="31" x="853.5" y="424.4951">loads</text><text fill="#000000" font-family="sans-serif" font-size="13" lengthAdjust="spacingAndGlyphs" textLength="7" x="752.4071" y="711.1381">1</text><text fill="#000000" font-family="sans-serif" font-size="13" lengthAdjust="spacingAndGlyphs" textLength="7" x="949.5992" y="402.5605">1</text><!--MD5=[ff0537dd903a7a771fc0cea37037e59c]
link Collaborator to TaskExecution--><path d="M806.11,773.464 C815.963,776.776 826.276,780.106 836,783 C1031.16,841.084 1080.4,855.735 1280,896 C1606,961.762 1687.43,1007 2020,1007 C2020,1007 2020,1007 2368.5,1007 C2537.96,1007 2606.68,375.23 2622.03,206.18 " fill="none" id="Collaborator-TaskExecution" style="stroke: #A80036; stroke-width: 1.0;"/><text fill="#000000" font-family="sans-serif" font-size="13" lengthAdjust="spacingAndGlyphs" textLength="60" x="1719.5" y="980.4951">introduces</text><polygon fill="#000000" points="1782.5,973.6758,1788.5,976.6758,1782.5,979.6758,1782.5,973.6758" style="stroke: #000000; stroke-width: 1.0;"/><text fill="#000000" font-family="sans-serif" font-size="13" lengthAdjust="spacingAndGlyphs" textLength="7" x="813.984" y="790.7491">1</text><text fill="#000000" font-family="sans-serif" font-size="13" lengthAdjust="spacingAndGlyphs" textLength="7" x="2613.8594" y="226.9604">1</text><!--MD5=[5e2b2aaa030151c8c360b190d75bd120]
link Collaborator to Writer--><path d="M777.628,790.434 C791.701,811.243 812.091,836.791 836,853 C935.48,920.441 981.661,891.288 1094,934 C1233.83,987.164 1255.83,1035.884 1401,1072 C1471.11,1089.443 1972.39,1113.241 2123.5,1120.087 " fill="none" id="Collaborator-Writer" style="stroke: #A80036; stroke-width: 1.0;"/><text fill="#000000" font-family="sans-serif" font-size="13" lengthAdjust="spacingAndGlyphs" textLength="111" x="1402" y="1068.4951">receives email from</text><polygon fill="#000000" points="1516,1061.6758,1522,1064.6758,1516,1067.6758,1516,1061.6758" style="stroke: #000000; stroke-width: 1.0;"/><text fill="#000000" font-family="sans-serif" font-size="13" lengthAdjust="spacingAndGlyphs" textLength="7" x="773.7438" y="811.2809">1</text><text fill="#000000" font-family="sans-serif" font-size="13" lengthAdjust="spacingAndGlyphs" textLength="7" x="2108.6328" y="1115.983">1</text><!--MD5=[b5492b811c5199351212545c210346d5]
link TaskExecution to Freelancer--><path d="M2581.57,123.67 C2533.27,82.7 2451.44,26 2368.5,26 C1609,26 1609,26 1609,26 C1458.37,26 1377.6,221.85 1344.61,329.34 " fill="none" id="TaskExecution-Freelancer" style="stroke: #A80036; stroke-width: 1.0;"/><polygon fill="#000000" points="1961,15.6758,1955,18.6758,1961,21.6758,1961,15.6758" style="stroke: #000000; stroke-width: 1.0;"/><text fill="#000000" font-family="sans-serif" font-size="13" lengthAdjust="spacingAndGlyphs" textLength="121" x="1967" y="22.4951">related to the work of</text><text fill="#000000" font-family="sans-serif" font-size="13" lengthAdjust="spacingAndGlyphs" textLength="7" x="2566.5488" y="113.0647">1</text><text fill="#000000" font-family="sans-serif" font-size="13" lengthAdjust="spacingAndGlyphs" textLength="7" x="1339.3173" y="318.4778">1</text><!--MD5=[bdc7b78a1b1f03a53fec8289ba75cac4]
link Task to TaskExecution--><path d="M2423,292.64 C2463.08,267.38 2517.73,232.94 2560.15,206.19 " fill="none" id="Task-TaskExecution" style="stroke: #A80036; stroke-width: 1.0;"/><text fill="#000000" font-family="sans-serif" font-size="13" lengthAdjust="spacingAndGlyphs" textLength="56" x="2454" y="227.4951">originates</text><polygon fill="#000000" points="2513,220.6758,2519,223.6758,2513,226.6758,2513,220.6758" style="stroke: #000000; stroke-width: 1.0;"/><text fill="#000000" font-family="sans-serif" font-size="13" lengthAdjust="spacingAndGlyphs" textLength="7" x="2430.9281" y="302.6266">1</text><text fill="#000000" font-family="sans-serif" font-size="13" lengthAdjust="spacingAndGlyphs" textLength="7" x="2542.8908" y="226.9719">1</text><!--MD5=[5dcb98e97564e4a4002da6305cf8f575]
link Receipt to Writer--><path d="M1903.19,707.282 C1909.54,715.455 1916.79,725.052 1923,734 C2014.41,865.618 2112.78,1030.422 2150.52,1094.628 " fill="none" id="Receipt-Writer" style="stroke: #A80036; stroke-width: 1.0;"/><text fill="#000000" font-family="sans-serif" font-size="13" lengthAdjust="spacingAndGlyphs" textLength="28" x="2000.5" y="781.4951">uses</text><polygon fill="#000000" points="2010,790.3516,2013,796.3516,2016,790.3516,2010,790.3516" style="stroke: #000000; stroke-width: 1.0;"/><text fill="#000000" font-family="sans-serif" font-size="13" lengthAdjust="spacingAndGlyphs" textLength="7" x="1899.8692" y="728.4251">1</text><text fill="#000000" font-family="sans-serif" font-size="13" lengthAdjust="spacingAndGlyphs" textLength="7" x="2138.784" y="1084.003">1</text><!--MD5=[e06129d45b1217ddabb9245c7b381eeb]
link Receipt to Transaction--><path d="M1923.07,692.934 C1967.89,698.1 2043.94,699.286 2089,658 C2132.68,617.981 2155.51,437.18 2163.33,361.01 " fill="none" id="Receipt-Transaction" style="stroke: #A80036; stroke-width: 1.0;"/><polygon fill="#000000" points="2010,651,2013,645,2016,651,2010,651" style="stroke: #000000; stroke-width: 1.0;"/><text fill="#000000" font-family="sans-serif" font-size="13" lengthAdjust="spacingAndGlyphs" textLength="21" x="2004" y="667.4951">has</text><text fill="#000000" font-family="sans-serif" font-size="13" lengthAdjust="spacingAndGlyphs" textLength="7" x="1931.0572" y="709.207">1</text><text fill="#000000" font-family="sans-serif" font-size="13" lengthAdjust="spacingAndGlyphs" textLength="5" x="2157.1419" y="382.0487">*</text><!--MD5=[9c6878446bfb90019f605abe1d891060]
@startuml
skinparam classAttributeIconSize 0
hide methods
left to right direction

class Platform{
}
class Freelancer {
  -String freeID
  -String name
  -String levelExp
  -String email
  -String nif
  -String iban
  -String country
}

class Organization {
  -String nome
  -String email
  -String nif
}

class Collaborator{
  -String nome
  -String email
}

class Task {
  -String idT
  -String description
  -Time timeDuration
  -double costHour
  -String taskCategory
  -boolean isPayed
  -boolean isFinished
}

class Manager {
  -String nome
  -String email
}

class User {
}

class Receipt {
}

class Transaction {
    -double valueE
    -double valueC
}

class Address{
  -String street
  -String doorNumber
  -String city
}

class Administrator {
}

class Payment{
  -double valueE
  -double valueC
}

class DefinePayment{
  -Time timeToPay
  -Data dateToPay
  -int nrDays
  }

class Reader {
  -String fileName
}

class HistoricalTransaction{
}

class TaskExecution{
  -Data endDate
  -double delay
  -String descriptionOfQuality
  }

class Writer{
  -String fileName
  }

Freelancer "1" - - "1" Transaction: receive >
Freelancer "1" - - "1" Receipt: receives > 
Freelancer "1" - - "1..*" Payment: receives >
Freelancer "1" - - "1" Address: has >
Freelancer "1" - - "1" Writer: receives email from >

Task "1..*" - - "1" Freelancer: made by >


Platform "1" - - "1..*" Transaction: has >
Platform "1" - - "1" Administrator: has >
Platform "1" - - "1..*" Organization: has registered >
Platform "1" - - "1..*" Freelancer: has >
Platform "1" - - "1" Freelancer: sends email to >
Platform "1" - - "1" Collaborator: sends email to >
Platform "1" - - "1" Manager: sends email to >
Platform "1" - - "1" Writer : sends emails from >

Organization "1" - - "1" Address: has >
Organization "1" - - "1" Manager: has >
Organization "1" - - "1" Collaborator: has >
Organization "1" - - "1..*" Task: has >
Organization "1" - - "1" DefinePayment: saves >

Manager "1" - - "1" User: acts as >
Manager "1" - - "1" Writer: receives email from >
Manager "1" - - "1" DefinePayment: determines >

Administrator "1" - - "1" Organization: registers >
Administrator "1" - - "1" User: acts as >
Administrator "1" - - "1" Collaborator: registers >
Administrator "1" - - "1" Manager: registers >
Administrator "1" - - "1" Writer: receives email from >

Transaction "1" - - "1" Task: has >
Transaction "1" - - "1" TaskExecution: has >


Payment "1" - - "1" Receipt: generate >
Payment "1" - - "1..*" Transaction : has >

DefinePayment "1" - - "1..*" Payment: defines > 


Reader "1" - - "1..*" HistoricalTransaction: originates >

HistoricalTransaction "1" - - "1..*" Transaction: has >
HistoricalTransaction "1" - - "1..*" Freelancer: has >

Collaborator "1" - - "1" Freelancer: creates >
Collaborator "1" - - "1..*" Task: creates >
Collaborator "1" - - "1..*" Transaction: creates >
Collaborator "1" - - "1" User: acts as >
Collaborator "1" - - "1" HistoricalTransaction: loads >
Collaborator "1" - - "1" TaskExecution: introduces >
Collaborator "1" - - "1" Writer: receives email from >


TaskExecution "1" - - "1" Freelancer: related to the work of >

Task "1" - - "1" TaskExecution : originates >

Receipt "1" - - "1" Writer : uses >
Receipt "1" - - "*" Transaction: has >




@enduml

PlantUML version 1.2020.09(Sun May 10 11:51:06 BST 2020)
(GPL source distribution)
Java Runtime: OpenJDK Runtime Environment
JVM: OpenJDK 64-Bit Server VM
Java Version: 11.0.6+8-b765.40
Operating System: Windows 10
Default Encoding: Cp1252
Language: pt
Country: PT
--></g></svg>