<?xml version="1.0" encoding="UTF-8" standalone="no"?><svg xmlns="http://www.w3.org/2000/svg" xmlns:xlink="http://www.w3.org/1999/xlink" contentScriptType="application/ecmascript" contentStyleType="text/css" height="1050.4px" preserveAspectRatio="none" style="width:1952px;height:1050px;" version="1.1" viewBox="0 0 1952 1050" width="1952.8px" zoomAndPan="magnify"><defs><filter height="300%" id="f15dpo4t3v43t0" width="300%" x="-1" y="-1"><feGaussianBlur result="blurOut" stdDeviation="1.6"/><feColorMatrix in="blurOut" result="blurOut2" type="matrix" values="0 0 0 0 0 0 0 0 0 0 0 0 0 0 0 0 0 0 .4 0"/><feOffset dx="3.2" dy="3.2" in="blurOut2" result="blurOut3"/><feBlend in="SourceGraphic" in2="blurOut3" mode="normal"/></filter></defs><g><!--MD5=[99b8db98afdc2c8404e39242ef4c1e65]
class Platform--><rect fill="#FEFECE" filter="url(#f15dpo4t3v43t0)" height="32" id="Platform" style="stroke: #A80036; stroke-width: 1.2000000000000002;" width="62.4" x="4.8" y="512"/><ellipse cx="16.8" cy="524.8" fill="#ADD1B2" rx="8.8" ry="8.8" style="stroke: #A80036; stroke-width: 0.8;"/><path d="M18.4,522 Q18.5625,521.6 18.75,521.4 Q18.9375,521.2 19.15,521.2 Q19.525,521.2 19.7625,521.425 Q20,521.65 20,522.175 L20,523.425 Q20,523.95 19.775,524.175 Q19.55,524.4 19.2,524.4 Q18.8875,524.4 18.6875,524.2625 Q18.4875,524.125 18.4,523.7625 Q18.3625,523.5125 18.225,523.375 Q17.975,523.1125 17.525,522.9625 Q17.075,522.8 16.625,522.8 Q16.0625,522.8 15.5875,523.025 Q15.125,523.25 14.7625,523.75 Q14.4,524.25 14.4,524.9375 L14.4,525.675 Q14.4,526.5 15.075,527.05 Q15.75,527.6 16.95,527.6 Q17.6625,527.6 18.1625,527.4375 Q18.45,527.35 18.775,527.0625 Q18.9875,526.9 19.1,526.85 Q19.2125,526.8 19.35,526.8 Q19.6125,526.8 19.8,527.0125 Q20,527.2125 20,527.5 Q20,527.775 19.725,528.1 Q19.325,528.575 18.6875,528.8375 Q17.85,529.2 16.825,529.2 Q15.625,529.2 14.6625,528.725 Q13.8875,528.35 13.3375,527.5375 Q12.8,526.725 12.8,525.7625 L12.8,524.8875 Q12.8,523.8875 13.275,523.0125 Q13.7625,522.1375 14.6,521.675 Q15.45,521.2 16.4,521.2 Q16.975,521.2 17.475,521.4 Q17.975,521.6 18.4,522 Z "/><text fill="#000000" font-family="sans-serif" font-size="9.6" lengthAdjust="spacingAndGlyphs" textLength="36.8" x="28" y="528.7281">Platform</text><line style="stroke: #A80036; stroke-width: 1.2000000000000002;" x1="5.6" x2="66.4" y1="537.6" y2="537.6"/><!--MD5=[1f687b5315377fe49fca59b457947463]
class Freelancer--><rect fill="#FEFECE" filter="url(#f15dpo4t3v43t0)" height="109.4813" id="Freelancer" style="stroke: #A80036; stroke-width: 1.2000000000000002;" width="72.8" x="1027.6" y="143.6"/><ellipse cx="1039.6" cy="156.4" fill="#ADD1B2" rx="8.8" ry="8.8" style="stroke: #A80036; stroke-width: 0.8;"/><path d="M1041.2,153.6 Q1041.3625,153.2 1041.55,153 Q1041.7375,152.8 1041.95,152.8 Q1042.325,152.8 1042.5625,153.025 Q1042.8,153.25 1042.8,153.775 L1042.8,155.025 Q1042.8,155.55 1042.575,155.775 Q1042.35,156 1042,156 Q1041.6875,156 1041.4875,155.8625 Q1041.2875,155.725 1041.2,155.3625 Q1041.1625,155.1125 1041.025,154.975 Q1040.775,154.7125 1040.325,154.5625 Q1039.875,154.4 1039.425,154.4 Q1038.8625,154.4 1038.3875,154.625 Q1037.925,154.85 1037.5625,155.35 Q1037.2,155.85 1037.2,156.5375 L1037.2,157.275 Q1037.2,158.1 1037.875,158.65 Q1038.55,159.2 1039.75,159.2 Q1040.4625,159.2 1040.9625,159.0375 Q1041.25,158.95 1041.575,158.6625 Q1041.7875,158.5 1041.9,158.45 Q1042.0125,158.4 1042.15,158.4 Q1042.4125,158.4 1042.6,158.6125 Q1042.8,158.8125 1042.8,159.1 Q1042.8,159.375 1042.525,159.7 Q1042.125,160.175 1041.4875,160.4375 Q1040.65,160.8 1039.625,160.8 Q1038.425,160.8 1037.4625,160.325 Q1036.6875,159.95 1036.1375,159.1375 Q1035.6,158.325 1035.6,157.3625 L1035.6,156.4875 Q1035.6,155.4875 1036.075,154.6125 Q1036.5625,153.7375 1037.4,153.275 Q1038.25,152.8 1039.2,152.8 Q1039.775,152.8 1040.275,153 Q1040.775,153.2 1041.2,153.6 Z "/><text fill="#000000" font-family="sans-serif" font-size="9.6" lengthAdjust="spacingAndGlyphs" textLength="47.2" x="1050.8" y="160.3281">Freelancer</text><line style="stroke: #A80036; stroke-width: 1.2000000000000002;" x1="1028.4" x2="1099.6" y1="169.2" y2="169.2"/><text fill="#000000" font-family="sans-serif" font-size="8.8" lengthAdjust="spacingAndGlyphs" textLength="51.2" x="1032.4" y="181.5352">-String freeID</text><text fill="#000000" font-family="sans-serif" font-size="8.8" lengthAdjust="spacingAndGlyphs" textLength="48.8" x="1032.4" y="192.6039">-String name</text><text fill="#000000" font-family="sans-serif" font-size="8.8" lengthAdjust="spacingAndGlyphs" textLength="60" x="1032.4" y="203.6727">-String levelExp</text><text fill="#000000" font-family="sans-serif" font-size="8.8" lengthAdjust="spacingAndGlyphs" textLength="47.2" x="1032.4" y="214.7414">-String email</text><text fill="#000000" font-family="sans-serif" font-size="8.8" lengthAdjust="spacingAndGlyphs" textLength="37.6" x="1032.4" y="225.8102">-String nif</text><text fill="#000000" font-family="sans-serif" font-size="8.8" lengthAdjust="spacingAndGlyphs" textLength="44" x="1032.4" y="236.8789">-String iban</text><text fill="#000000" font-family="sans-serif" font-size="8.8" lengthAdjust="spacingAndGlyphs" textLength="57.6" x="1032.4" y="247.9477">-String country</text><!--MD5=[86c7c362de55a38b660185a1328fe18d]
class Organization--><rect fill="#FEFECE" filter="url(#f15dpo4t3v43t0)" height="65.2063" id="Organization" style="stroke: #A80036; stroke-width: 1.2000000000000002;" width="80.8" x="356" y="627.2"/><ellipse cx="368" cy="640" fill="#ADD1B2" rx="8.8" ry="8.8" style="stroke: #A80036; stroke-width: 0.8;"/><path d="M369.6,637.2 Q369.7625,636.8 369.95,636.6 Q370.1375,636.4 370.35,636.4 Q370.725,636.4 370.9625,636.625 Q371.2,636.85 371.2,637.375 L371.2,638.625 Q371.2,639.15 370.975,639.375 Q370.75,639.6 370.4,639.6 Q370.0875,639.6 369.8875,639.4625 Q369.6875,639.325 369.6,638.9625 Q369.5625,638.7125 369.425,638.575 Q369.175,638.3125 368.725,638.1625 Q368.275,638 367.825,638 Q367.2625,638 366.7875,638.225 Q366.325,638.45 365.9625,638.95 Q365.6,639.45 365.6,640.1375 L365.6,640.875 Q365.6,641.7 366.275,642.25 Q366.95,642.8 368.15,642.8 Q368.8625,642.8 369.3625,642.6375 Q369.65,642.55 369.975,642.2625 Q370.1875,642.1 370.3,642.05 Q370.4125,642 370.55,642 Q370.8125,642 371,642.2125 Q371.2,642.4125 371.2,642.7 Q371.2,642.975 370.925,643.3 Q370.525,643.775 369.8875,644.0375 Q369.05,644.4 368.025,644.4 Q366.825,644.4 365.8625,643.925 Q365.0875,643.55 364.5375,642.7375 Q364,641.925 364,640.9625 L364,640.0875 Q364,639.0875 364.475,638.2125 Q364.9625,637.3375 365.8,636.875 Q366.65,636.4 367.6,636.4 Q368.175,636.4 368.675,636.6 Q369.175,636.8 369.6,637.2 Z "/><text fill="#000000" font-family="sans-serif" font-size="9.6" lengthAdjust="spacingAndGlyphs" textLength="55.2" x="379.2" y="643.9281">Organization</text><line style="stroke: #A80036; stroke-width: 1.2000000000000002;" x1="356.8" x2="436" y1="652.8" y2="652.8"/><text fill="#000000" font-family="sans-serif" font-size="8.8" lengthAdjust="spacingAndGlyphs" textLength="48.8" x="360.8" y="665.1352">-String nome</text><text fill="#000000" font-family="sans-serif" font-size="8.8" lengthAdjust="spacingAndGlyphs" textLength="47.2" x="360.8" y="676.2039">-String email</text><text fill="#000000" font-family="sans-serif" font-size="8.8" lengthAdjust="spacingAndGlyphs" textLength="37.6" x="360.8" y="687.2727">-String nif</text><!--MD5=[f483d6e5de34a60207b28a5563be5e8b]
class Collaborator--><rect fill="#FEFECE" filter="url(#f15dpo4t3v43t0)" height="54.1375" id="Collaborator" style="stroke: #A80036; stroke-width: 1.2000000000000002;" width="80" x="564.8" y="496"/><ellipse cx="576.8" cy="508.8" fill="#ADD1B2" rx="8.8" ry="8.8" style="stroke: #A80036; stroke-width: 0.8;"/><path d="M578.4,506 Q578.5625,505.6 578.75,505.4 Q578.9375,505.2 579.15,505.2 Q579.525,505.2 579.7625,505.425 Q580,505.65 580,506.175 L580,507.425 Q580,507.95 579.775,508.175 Q579.55,508.4 579.2,508.4 Q578.8875,508.4 578.6875,508.2625 Q578.4875,508.125 578.4,507.7625 Q578.3625,507.5125 578.225,507.375 Q577.975,507.1125 577.525,506.9625 Q577.075,506.8 576.625,506.8 Q576.0625,506.8 575.5875,507.025 Q575.125,507.25 574.7625,507.75 Q574.4,508.25 574.4,508.9375 L574.4,509.675 Q574.4,510.5 575.075,511.05 Q575.75,511.6 576.95,511.6 Q577.6625,511.6 578.1625,511.4375 Q578.45,511.35 578.775,511.0625 Q578.9875,510.9 579.1,510.85 Q579.2125,510.8 579.35,510.8 Q579.6125,510.8 579.8,511.0125 Q580,511.2125 580,511.5 Q580,511.775 579.725,512.1 Q579.325,512.575 578.6875,512.8375 Q577.85,513.2 576.825,513.2 Q575.625,513.2 574.6625,512.725 Q573.8875,512.35 573.3375,511.5375 Q572.8,510.725 572.8,509.7625 L572.8,508.8875 Q572.8,507.8875 573.275,507.0125 Q573.7625,506.1375 574.6,505.675 Q575.45,505.2 576.4,505.2 Q576.975,505.2 577.475,505.4 Q577.975,505.6 578.4,506 Z "/><text fill="#000000" font-family="sans-serif" font-size="9.6" lengthAdjust="spacingAndGlyphs" textLength="54.4" x="588" y="512.7281">Collaborator</text><line style="stroke: #A80036; stroke-width: 1.2000000000000002;" x1="565.6" x2="644" y1="521.6" y2="521.6"/><text fill="#000000" font-family="sans-serif" font-size="8.8" lengthAdjust="spacingAndGlyphs" textLength="48.8" x="569.6" y="533.9352">-String nome</text><text fill="#000000" font-family="sans-serif" font-size="8.8" lengthAdjust="spacingAndGlyphs" textLength="47.2" x="569.6" y="545.0039">-String email</text><!--MD5=[b34797a66dc35cbf1d65f7e3ca75530e]
class Task--><rect fill="#FEFECE" filter="url(#f15dpo4t3v43t0)" height="98.4125" id="Task" style="stroke: #A80036; stroke-width: 1.2000000000000002;" width="88.8" x="1475.6" y="513.2"/><ellipse cx="1506.32" cy="526" fill="#ADD1B2" rx="8.8" ry="8.8" style="stroke: #A80036; stroke-width: 0.8;"/><path d="M1507.92,523.2 Q1508.0825,522.8 1508.27,522.6 Q1508.4575,522.4 1508.67,522.4 Q1509.045,522.4 1509.2825,522.625 Q1509.52,522.85 1509.52,523.375 L1509.52,524.625 Q1509.52,525.15 1509.295,525.375 Q1509.07,525.6 1508.72,525.6 Q1508.4075,525.6 1508.2075,525.4625 Q1508.0075,525.325 1507.92,524.9625 Q1507.8825,524.7125 1507.745,524.575 Q1507.495,524.3125 1507.045,524.1625 Q1506.595,524 1506.145,524 Q1505.5825,524 1505.1075,524.225 Q1504.645,524.45 1504.2825,524.95 Q1503.92,525.45 1503.92,526.1375 L1503.92,526.875 Q1503.92,527.7 1504.595,528.25 Q1505.27,528.8 1506.47,528.8 Q1507.1825,528.8 1507.6825,528.6375 Q1507.97,528.55 1508.295,528.2625 Q1508.5075,528.1 1508.62,528.05 Q1508.7325,528 1508.87,528 Q1509.1325,528 1509.32,528.2125 Q1509.52,528.4125 1509.52,528.7 Q1509.52,528.975 1509.245,529.3 Q1508.845,529.775 1508.2075,530.0375 Q1507.37,530.4 1506.345,530.4 Q1505.145,530.4 1504.1825,529.925 Q1503.4075,529.55 1502.8575,528.7375 Q1502.32,527.925 1502.32,526.9625 L1502.32,526.0875 Q1502.32,525.0875 1502.795,524.2125 Q1503.2825,523.3375 1504.12,522.875 Q1504.97,522.4 1505.92,522.4 Q1506.495,522.4 1506.995,522.6 Q1507.495,522.8 1507.92,523.2 Z "/><text fill="#000000" font-family="sans-serif" font-size="9.6" lengthAdjust="spacingAndGlyphs" textLength="21.6" x="1521.68" y="529.9281">Task</text><line style="stroke: #A80036; stroke-width: 1.2000000000000002;" x1="1476.4" x2="1563.6" y1="538.8" y2="538.8"/><text fill="#000000" font-family="sans-serif" font-size="8.8" lengthAdjust="spacingAndGlyphs" textLength="39.2" x="1480.4" y="551.1352">-String idT</text><text fill="#000000" font-family="sans-serif" font-size="8.8" lengthAdjust="spacingAndGlyphs" textLength="70.4" x="1480.4" y="562.2039">-String description</text><text fill="#000000" font-family="sans-serif" font-size="8.8" lengthAdjust="spacingAndGlyphs" textLength="70.4" x="1480.4" y="573.2727">-Time timeDuration</text><text fill="#000000" font-family="sans-serif" font-size="8.8" lengthAdjust="spacingAndGlyphs" textLength="66.4" x="1480.4" y="584.3414">-double costHour</text><text fill="#000000" font-family="sans-serif" font-size="8.8" lengthAdjust="spacingAndGlyphs" textLength="79.2" x="1480.4" y="595.4102">-String taskCategory</text><text fill="#000000" font-family="sans-serif" font-size="8.8" lengthAdjust="spacingAndGlyphs" textLength="67.2" x="1480.4" y="606.4789">-Boolean isPayed</text><!--MD5=[b24ed8d4ae84bae9290d9aab401637c7]
class Manager--><rect fill="#FEFECE" filter="url(#f15dpo4t3v43t0)" height="54.1375" id="Manager" style="stroke: #A80036; stroke-width: 1.2000000000000002;" width="64" x="572.8" y="816.8"/><ellipse cx="584.8" cy="829.6" fill="#ADD1B2" rx="8.8" ry="8.8" style="stroke: #A80036; stroke-width: 0.8;"/><path d="M586.4,826.8 Q586.5625,826.4 586.75,826.2 Q586.9375,826 587.15,826 Q587.525,826 587.7625,826.225 Q588,826.45 588,826.975 L588,828.225 Q588,828.75 587.775,828.975 Q587.55,829.2 587.2,829.2 Q586.8875,829.2 586.6875,829.0625 Q586.4875,828.925 586.4,828.5625 Q586.3625,828.3125 586.225,828.175 Q585.975,827.9125 585.525,827.7625 Q585.075,827.6 584.625,827.6 Q584.0625,827.6 583.5875,827.825 Q583.125,828.05 582.7625,828.55 Q582.4,829.05 582.4,829.7375 L582.4,830.475 Q582.4,831.3 583.075,831.85 Q583.75,832.4 584.95,832.4 Q585.6625,832.4 586.1625,832.2375 Q586.45,832.15 586.775,831.8625 Q586.9875,831.7 587.1,831.65 Q587.2125,831.6 587.35,831.6 Q587.6125,831.6 587.8,831.8125 Q588,832.0125 588,832.3 Q588,832.575 587.725,832.9 Q587.325,833.375 586.6875,833.6375 Q585.85,834 584.825,834 Q583.625,834 582.6625,833.525 Q581.8875,833.15 581.3375,832.3375 Q580.8,831.525 580.8,830.5625 L580.8,829.6875 Q580.8,828.6875 581.275,827.8125 Q581.7625,826.9375 582.6,826.475 Q583.45,826 584.4,826 Q584.975,826 585.475,826.2 Q585.975,826.4 586.4,826.8 Z "/><text fill="#000000" font-family="sans-serif" font-size="9.6" lengthAdjust="spacingAndGlyphs" textLength="38.4" x="596" y="833.5281">Manager</text><line style="stroke: #A80036; stroke-width: 1.2000000000000002;" x1="573.6" x2="636" y1="842.4" y2="842.4"/><text fill="#000000" font-family="sans-serif" font-size="8.8" lengthAdjust="spacingAndGlyphs" textLength="48.8" x="577.6" y="854.7352">-String nome</text><text fill="#000000" font-family="sans-serif" font-size="8.8" lengthAdjust="spacingAndGlyphs" textLength="47.2" x="577.6" y="865.8039">-String email</text><!--MD5=[3fd616f346a44cd59a91eb10b19e157c]
class User--><rect fill="#FEFECE" filter="url(#f15dpo4t3v43t0)" height="32" id="User" style="stroke: #A80036; stroke-width: 1.2000000000000002;" width="47.2" x="785.6" y="782.4"/><ellipse cx="797.6" cy="795.2" fill="#ADD1B2" rx="8.8" ry="8.8" style="stroke: #A80036; stroke-width: 0.8;"/><path d="M799.2,792.4 Q799.3625,792 799.55,791.8 Q799.7375,791.6 799.95,791.6 Q800.325,791.6 800.5625,791.825 Q800.8,792.05 800.8,792.575 L800.8,793.825 Q800.8,794.35 800.575,794.575 Q800.35,794.8 800,794.8 Q799.6875,794.8 799.4875,794.6625 Q799.2875,794.525 799.2,794.1625 Q799.1625,793.9125 799.025,793.775 Q798.775,793.5125 798.325,793.3625 Q797.875,793.2 797.425,793.2 Q796.8625,793.2 796.3875,793.425 Q795.925,793.65 795.5625,794.15 Q795.2,794.65 795.2,795.3375 L795.2,796.075 Q795.2,796.9 795.875,797.45 Q796.55,798 797.75,798 Q798.4625,798 798.9625,797.8375 Q799.25,797.75 799.575,797.4625 Q799.7875,797.3 799.9,797.25 Q800.0125,797.2 800.15,797.2 Q800.4125,797.2 800.6,797.4125 Q800.8,797.6125 800.8,797.9 Q800.8,798.175 800.525,798.5 Q800.125,798.975 799.4875,799.2375 Q798.65,799.6 797.625,799.6 Q796.425,799.6 795.4625,799.125 Q794.6875,798.75 794.1375,797.9375 Q793.6,797.125 793.6,796.1625 L793.6,795.2875 Q793.6,794.2875 794.075,793.4125 Q794.5625,792.5375 795.4,792.075 Q796.25,791.6 797.2,791.6 Q797.775,791.6 798.275,791.8 Q798.775,792 799.2,792.4 Z "/><text fill="#000000" font-family="sans-serif" font-size="9.6" lengthAdjust="spacingAndGlyphs" textLength="21.6" x="808.8" y="799.1281">User</text><line style="stroke: #A80036; stroke-width: 1.2000000000000002;" x1="786.4" x2="832" y1="808" y2="808"/><!--MD5=[34b75dd4d6d4601c280a5b76e9c1a953]
class Receipt--><rect fill="#FEFECE" filter="url(#f15dpo4t3v43t0)" height="32" id="Receipt" style="stroke: #A80036; stroke-width: 1.2000000000000002;" width="59.2" x="1703.6" y="221.6"/><ellipse cx="1715.6" cy="234.4" fill="#ADD1B2" rx="8.8" ry="8.8" style="stroke: #A80036; stroke-width: 0.8;"/><path d="M1717.2,231.6 Q1717.3625,231.2 1717.55,231 Q1717.7375,230.8 1717.95,230.8 Q1718.325,230.8 1718.5625,231.025 Q1718.8,231.25 1718.8,231.775 L1718.8,233.025 Q1718.8,233.55 1718.575,233.775 Q1718.35,234 1718,234 Q1717.6875,234 1717.4875,233.8625 Q1717.2875,233.725 1717.2,233.3625 Q1717.1625,233.1125 1717.025,232.975 Q1716.775,232.7125 1716.325,232.5625 Q1715.875,232.4 1715.425,232.4 Q1714.8625,232.4 1714.3875,232.625 Q1713.925,232.85 1713.5625,233.35 Q1713.2,233.85 1713.2,234.5375 L1713.2,235.275 Q1713.2,236.1 1713.875,236.65 Q1714.55,237.2 1715.75,237.2 Q1716.4625,237.2 1716.9625,237.0375 Q1717.25,236.95 1717.575,236.6625 Q1717.7875,236.5 1717.9,236.45 Q1718.0125,236.4 1718.15,236.4 Q1718.4125,236.4 1718.6,236.6125 Q1718.8,236.8125 1718.8,237.1 Q1718.8,237.375 1718.525,237.7 Q1718.125,238.175 1717.4875,238.4375 Q1716.65,238.8 1715.625,238.8 Q1714.425,238.8 1713.4625,238.325 Q1712.6875,237.95 1712.1375,237.1375 Q1711.6,236.325 1711.6,235.3625 L1711.6,234.4875 Q1711.6,233.4875 1712.075,232.6125 Q1712.5625,231.7375 1713.4,231.275 Q1714.25,230.8 1715.2,230.8 Q1715.775,230.8 1716.275,231 Q1716.775,231.2 1717.2,231.6 Z "/><text fill="#000000" font-family="sans-serif" font-size="9.6" lengthAdjust="spacingAndGlyphs" textLength="33.6" x="1726.8" y="238.3281">Receipt</text><line style="stroke: #A80036; stroke-width: 1.2000000000000002;" x1="1704.4" x2="1762" y1="247.2" y2="247.2"/><!--MD5=[4555bb1b0911a5adf28ce6dbe60fed2e]
class Transaction--><rect fill="#FEFECE" filter="url(#f15dpo4t3v43t0)" height="32" id="Transaction" style="stroke: #A80036; stroke-width: 1.2000000000000002;" width="77.6" x="1234" y="331.2"/><ellipse cx="1246" cy="344" fill="#ADD1B2" rx="8.8" ry="8.8" style="stroke: #A80036; stroke-width: 0.8;"/><path d="M1247.6,341.2 Q1247.7625,340.8 1247.95,340.6 Q1248.1375,340.4 1248.35,340.4 Q1248.725,340.4 1248.9625,340.625 Q1249.2,340.85 1249.2,341.375 L1249.2,342.625 Q1249.2,343.15 1248.975,343.375 Q1248.75,343.6 1248.4,343.6 Q1248.0875,343.6 1247.8875,343.4625 Q1247.6875,343.325 1247.6,342.9625 Q1247.5625,342.7125 1247.425,342.575 Q1247.175,342.3125 1246.725,342.1625 Q1246.275,342 1245.825,342 Q1245.2625,342 1244.7875,342.225 Q1244.325,342.45 1243.9625,342.95 Q1243.6,343.45 1243.6,344.1375 L1243.6,344.875 Q1243.6,345.7 1244.275,346.25 Q1244.95,346.8 1246.15,346.8 Q1246.8625,346.8 1247.3625,346.6375 Q1247.65,346.55 1247.975,346.2625 Q1248.1875,346.1 1248.3,346.05 Q1248.4125,346 1248.55,346 Q1248.8125,346 1249,346.2125 Q1249.2,346.4125 1249.2,346.7 Q1249.2,346.975 1248.925,347.3 Q1248.525,347.775 1247.8875,348.0375 Q1247.05,348.4 1246.025,348.4 Q1244.825,348.4 1243.8625,347.925 Q1243.0875,347.55 1242.5375,346.7375 Q1242,345.925 1242,344.9625 L1242,344.0875 Q1242,343.0875 1242.475,342.2125 Q1242.9625,341.3375 1243.8,340.875 Q1244.65,340.4 1245.6,340.4 Q1246.175,340.4 1246.675,340.6 Q1247.175,340.8 1247.6,341.2 Z "/><text fill="#000000" font-family="sans-serif" font-size="9.6" lengthAdjust="spacingAndGlyphs" textLength="52" x="1257.2" y="347.9281">Transaction</text><line style="stroke: #A80036; stroke-width: 1.2000000000000002;" x1="1234.8" x2="1310.8" y1="356.8" y2="356.8"/><!--MD5=[0f39e4cb6f03951afbf6d14bd2505654]
class Address--><rect fill="#FEFECE" filter="url(#f15dpo4t3v43t0)" height="65.2063" id="Address" style="stroke: #A80036; stroke-width: 1.2000000000000002;" width="84.8" x="1230.4" y="391.2"/><ellipse cx="1252.48" cy="404" fill="#ADD1B2" rx="8.8" ry="8.8" style="stroke: #A80036; stroke-width: 0.8;"/><path d="M1254.08,401.2 Q1254.2425,400.8 1254.43,400.6 Q1254.6175,400.4 1254.83,400.4 Q1255.205,400.4 1255.4425,400.625 Q1255.68,400.85 1255.68,401.375 L1255.68,402.625 Q1255.68,403.15 1255.455,403.375 Q1255.23,403.6 1254.88,403.6 Q1254.5675,403.6 1254.3675,403.4625 Q1254.1675,403.325 1254.08,402.9625 Q1254.0425,402.7125 1253.905,402.575 Q1253.655,402.3125 1253.205,402.1625 Q1252.755,402 1252.305,402 Q1251.7425,402 1251.2675,402.225 Q1250.805,402.45 1250.4425,402.95 Q1250.08,403.45 1250.08,404.1375 L1250.08,404.875 Q1250.08,405.7 1250.755,406.25 Q1251.43,406.8 1252.63,406.8 Q1253.3425,406.8 1253.8425,406.6375 Q1254.13,406.55 1254.455,406.2625 Q1254.6675,406.1 1254.78,406.05 Q1254.8925,406 1255.03,406 Q1255.2925,406 1255.48,406.2125 Q1255.68,406.4125 1255.68,406.7 Q1255.68,406.975 1255.405,407.3 Q1255.005,407.775 1254.3675,408.0375 Q1253.53,408.4 1252.505,408.4 Q1251.305,408.4 1250.3425,407.925 Q1249.5675,407.55 1249.0175,406.7375 Q1248.48,405.925 1248.48,404.9625 L1248.48,404.0875 Q1248.48,403.0875 1248.955,402.2125 Q1249.4425,401.3375 1250.28,400.875 Q1251.13,400.4 1252.08,400.4 Q1252.655,400.4 1253.155,400.6 Q1253.655,400.8 1254.08,401.2 Z "/><text fill="#000000" font-family="sans-serif" font-size="9.6" lengthAdjust="spacingAndGlyphs" textLength="36.8" x="1265.92" y="407.9281">Address</text><line style="stroke: #A80036; stroke-width: 1.2000000000000002;" x1="1231.2" x2="1314.4" y1="416.8" y2="416.8"/><text fill="#000000" font-family="sans-serif" font-size="8.8" lengthAdjust="spacingAndGlyphs" textLength="50.4" x="1235.2" y="429.1352">-String street</text><text fill="#000000" font-family="sans-serif" font-size="8.8" lengthAdjust="spacingAndGlyphs" textLength="75.2" x="1235.2" y="440.2039">-String doorNumber</text><text fill="#000000" font-family="sans-serif" font-size="8.8" lengthAdjust="spacingAndGlyphs" textLength="41.6" x="1235.2" y="451.2727">-String city</text><!--MD5=[da547346deef918ea16944ba046651ef]
class Administrator--><rect fill="#FEFECE" filter="url(#f15dpo4t3v43t0)" height="32" id="Administrator" style="stroke: #A80036; stroke-width: 1.2000000000000002;" width="84" x="144" y="726.4"/><ellipse cx="156" cy="739.2" fill="#ADD1B2" rx="8.8" ry="8.8" style="stroke: #A80036; stroke-width: 0.8;"/><path d="M157.6,736.4 Q157.7625,736 157.95,735.8 Q158.1375,735.6 158.35,735.6 Q158.725,735.6 158.9625,735.825 Q159.2,736.05 159.2,736.575 L159.2,737.825 Q159.2,738.35 158.975,738.575 Q158.75,738.8 158.4,738.8 Q158.0875,738.8 157.8875,738.6625 Q157.6875,738.525 157.6,738.1625 Q157.5625,737.9125 157.425,737.775 Q157.175,737.5125 156.725,737.3625 Q156.275,737.2 155.825,737.2 Q155.2625,737.2 154.7875,737.425 Q154.325,737.65 153.9625,738.15 Q153.6,738.65 153.6,739.3375 L153.6,740.075 Q153.6,740.9 154.275,741.45 Q154.95,742 156.15,742 Q156.8625,742 157.3625,741.8375 Q157.65,741.75 157.975,741.4625 Q158.1875,741.3 158.3,741.25 Q158.4125,741.2 158.55,741.2 Q158.8125,741.2 159,741.4125 Q159.2,741.6125 159.2,741.9 Q159.2,742.175 158.925,742.5 Q158.525,742.975 157.8875,743.2375 Q157.05,743.6 156.025,743.6 Q154.825,743.6 153.8625,743.125 Q153.0875,742.75 152.5375,741.9375 Q152,741.125 152,740.1625 L152,739.2875 Q152,738.2875 152.475,737.4125 Q152.9625,736.5375 153.8,736.075 Q154.65,735.6 155.6,735.6 Q156.175,735.6 156.675,735.8 Q157.175,736 157.6,736.4 Z "/><text fill="#000000" font-family="sans-serif" font-size="9.6" lengthAdjust="spacingAndGlyphs" textLength="58.4" x="167.2" y="743.1281">Administrator</text><line style="stroke: #A80036; stroke-width: 1.2000000000000002;" x1="144.8" x2="227.2" y1="752" y2="752"/><!--MD5=[764fca796ce7f635542948d8fc39db5e]
class Payment--><rect fill="#FEFECE" filter="url(#f15dpo4t3v43t0)" height="65.2063" id="Payment" style="stroke: #A80036; stroke-width: 1.2000000000000002;" width="73.6" x="1483.2" y="204.8"/><ellipse cx="1499.52" cy="217.6" fill="#ADD1B2" rx="8.8" ry="8.8" style="stroke: #A80036; stroke-width: 0.8;"/><path d="M1501.12,214.8 Q1501.2825,214.4 1501.47,214.2 Q1501.6575,214 1501.87,214 Q1502.245,214 1502.4825,214.225 Q1502.72,214.45 1502.72,214.975 L1502.72,216.225 Q1502.72,216.75 1502.495,216.975 Q1502.27,217.2 1501.92,217.2 Q1501.6075,217.2 1501.4075,217.0625 Q1501.2075,216.925 1501.12,216.5625 Q1501.0825,216.3125 1500.945,216.175 Q1500.695,215.9125 1500.245,215.7625 Q1499.795,215.6 1499.345,215.6 Q1498.7825,215.6 1498.3075,215.825 Q1497.845,216.05 1497.4825,216.55 Q1497.12,217.05 1497.12,217.7375 L1497.12,218.475 Q1497.12,219.3 1497.795,219.85 Q1498.47,220.4 1499.67,220.4 Q1500.3825,220.4 1500.8825,220.2375 Q1501.17,220.15 1501.495,219.8625 Q1501.7075,219.7 1501.82,219.65 Q1501.9325,219.6 1502.07,219.6 Q1502.3325,219.6 1502.52,219.8125 Q1502.72,220.0125 1502.72,220.3 Q1502.72,220.575 1502.445,220.9 Q1502.045,221.375 1501.4075,221.6375 Q1500.57,222 1499.545,222 Q1498.345,222 1497.3825,221.525 Q1496.6075,221.15 1496.0575,220.3375 Q1495.52,219.525 1495.52,218.5625 L1495.52,217.6875 Q1495.52,216.6875 1495.995,215.8125 Q1496.4825,214.9375 1497.32,214.475 Q1498.17,214 1499.12,214 Q1499.695,214 1500.195,214.2 Q1500.695,214.4 1501.12,214.8 Z "/><text fill="#000000" font-family="sans-serif" font-size="9.6" lengthAdjust="spacingAndGlyphs" textLength="38.4" x="1511.68" y="221.5281">Payment</text><line style="stroke: #A80036; stroke-width: 1.2000000000000002;" x1="1484" x2="1556" y1="230.4" y2="230.4"/><text fill="#000000" font-family="sans-serif" font-size="8.8" lengthAdjust="spacingAndGlyphs" textLength="62.4" x="1488" y="242.7352">-Time timeToPay</text><text fill="#000000" font-family="sans-serif" font-size="8.8" lengthAdjust="spacingAndGlyphs" textLength="64" x="1488" y="253.8039">-Data dateToPay</text><text fill="#000000" font-family="sans-serif" font-size="8.8" lengthAdjust="spacingAndGlyphs" textLength="42.4" x="1488" y="264.8727">-int nrDays</text><!--MD5=[e86a4777f2c0372cf9fb3cd047e1466e]
class Reader--><rect fill="#FEFECE" filter="url(#f15dpo4t3v43t0)" height="43.0688" id="Reader" style="stroke: #A80036; stroke-width: 1.2000000000000002;" width="70.4" x="569.6" y="311.2"/><ellipse cx="587" cy="324" fill="#ADD1B2" rx="8.8" ry="8.8" style="stroke: #A80036; stroke-width: 0.8;"/><path d="M588.6,321.2 Q588.7625,320.8 588.95,320.6 Q589.1375,320.4 589.35,320.4 Q589.725,320.4 589.9625,320.625 Q590.2,320.85 590.2,321.375 L590.2,322.625 Q590.2,323.15 589.975,323.375 Q589.75,323.6 589.4,323.6 Q589.0875,323.6 588.8875,323.4625 Q588.6875,323.325 588.6,322.9625 Q588.5625,322.7125 588.425,322.575 Q588.175,322.3125 587.725,322.1625 Q587.275,322 586.825,322 Q586.2625,322 585.7875,322.225 Q585.325,322.45 584.9625,322.95 Q584.6,323.45 584.6,324.1375 L584.6,324.875 Q584.6,325.7 585.275,326.25 Q585.95,326.8 587.15,326.8 Q587.8625,326.8 588.3625,326.6375 Q588.65,326.55 588.975,326.2625 Q589.1875,326.1 589.3,326.05 Q589.4125,326 589.55,326 Q589.8125,326 590,326.2125 Q590.2,326.4125 590.2,326.7 Q590.2,326.975 589.925,327.3 Q589.525,327.775 588.8875,328.0375 Q588.05,328.4 587.025,328.4 Q585.825,328.4 584.8625,327.925 Q584.0875,327.55 583.5375,326.7375 Q583,325.925 583,324.9625 L583,324.0875 Q583,323.0875 583.475,322.2125 Q583.9625,321.3375 584.8,320.875 Q585.65,320.4 586.6,320.4 Q587.175,320.4 587.675,320.6 Q588.175,320.8 588.6,321.2 Z "/><text fill="#000000" font-family="sans-serif" font-size="9.6" lengthAdjust="spacingAndGlyphs" textLength="32.8" x="599.4" y="327.9281">Reader</text><line style="stroke: #A80036; stroke-width: 1.2000000000000002;" x1="570.4" x2="639.2" y1="336.8" y2="336.8"/><text fill="#000000" font-family="sans-serif" font-size="8.8" lengthAdjust="spacingAndGlyphs" textLength="60.8" x="574.4" y="349.1352">-String fileName</text><!--MD5=[5f120048d977cf6fddcd4f613ae1ac70]
class HistoricalTransaction--><rect fill="#FEFECE" filter="url(#f15dpo4t3v43t0)" height="32" id="HistoricalTransaction" style="stroke: #A80036; stroke-width: 1.2000000000000002;" width="119.2" x="749.6" y="297.6"/><ellipse cx="761.6" cy="310.4" fill="#ADD1B2" rx="8.8" ry="8.8" style="stroke: #A80036; stroke-width: 0.8;"/><path d="M763.2,307.6 Q763.3625,307.2 763.55,307 Q763.7375,306.8 763.95,306.8 Q764.325,306.8 764.5625,307.025 Q764.8,307.25 764.8,307.775 L764.8,309.025 Q764.8,309.55 764.575,309.775 Q764.35,310 764,310 Q763.6875,310 763.4875,309.8625 Q763.2875,309.725 763.2,309.3625 Q763.1625,309.1125 763.025,308.975 Q762.775,308.7125 762.325,308.5625 Q761.875,308.4 761.425,308.4 Q760.8625,308.4 760.3875,308.625 Q759.925,308.85 759.5625,309.35 Q759.2,309.85 759.2,310.5375 L759.2,311.275 Q759.2,312.1 759.875,312.65 Q760.55,313.2 761.75,313.2 Q762.4625,313.2 762.9625,313.0375 Q763.25,312.95 763.575,312.6625 Q763.7875,312.5 763.9,312.45 Q764.0125,312.4 764.15,312.4 Q764.4125,312.4 764.6,312.6125 Q764.8,312.8125 764.8,313.1 Q764.8,313.375 764.525,313.7 Q764.125,314.175 763.4875,314.4375 Q762.65,314.8 761.625,314.8 Q760.425,314.8 759.4625,314.325 Q758.6875,313.95 758.1375,313.1375 Q757.6,312.325 757.6,311.3625 L757.6,310.4875 Q757.6,309.4875 758.075,308.6125 Q758.5625,307.7375 759.4,307.275 Q760.25,306.8 761.2,306.8 Q761.775,306.8 762.275,307 Q762.775,307.2 763.2,307.6 Z "/><text fill="#000000" font-family="sans-serif" font-size="9.6" lengthAdjust="spacingAndGlyphs" textLength="93.6" x="772.8" y="314.3281">HistoricalTransaction</text><line style="stroke: #A80036; stroke-width: 1.2000000000000002;" x1="750.4" x2="868" y1="323.2" y2="323.2"/><!--MD5=[5ce80547de3caced9d0089e35ded5090]
class TaskExecution--><rect fill="#FEFECE" filter="url(#f15dpo4t3v43t0)" height="65.2063" id="TaskExecution" style="stroke: #A80036; stroke-width: 1.2000000000000002;" width="116" x="1675.2" y="450.4"/><ellipse cx="1699.08" cy="463.2" fill="#ADD1B2" rx="8.8" ry="8.8" style="stroke: #A80036; stroke-width: 0.8;"/><path d="M1700.68,460.4 Q1700.8425,460 1701.03,459.8 Q1701.2175,459.6 1701.43,459.6 Q1701.805,459.6 1702.0425,459.825 Q1702.28,460.05 1702.28,460.575 L1702.28,461.825 Q1702.28,462.35 1702.055,462.575 Q1701.83,462.8 1701.48,462.8 Q1701.1675,462.8 1700.9675,462.6625 Q1700.7675,462.525 1700.68,462.1625 Q1700.6425,461.9125 1700.505,461.775 Q1700.255,461.5125 1699.805,461.3625 Q1699.355,461.2 1698.905,461.2 Q1698.3425,461.2 1697.8675,461.425 Q1697.405,461.65 1697.0425,462.15 Q1696.68,462.65 1696.68,463.3375 L1696.68,464.075 Q1696.68,464.9 1697.355,465.45 Q1698.03,466 1699.23,466 Q1699.9425,466 1700.4425,465.8375 Q1700.73,465.75 1701.055,465.4625 Q1701.2675,465.3 1701.38,465.25 Q1701.4925,465.2 1701.63,465.2 Q1701.8925,465.2 1702.08,465.4125 Q1702.28,465.6125 1702.28,465.9 Q1702.28,466.175 1702.005,466.5 Q1701.605,466.975 1700.9675,467.2375 Q1700.13,467.6 1699.105,467.6 Q1697.905,467.6 1696.9425,467.125 Q1696.1675,466.75 1695.6175,465.9375 Q1695.08,465.125 1695.08,464.1625 L1695.08,463.2875 Q1695.08,462.2875 1695.555,461.4125 Q1696.0425,460.5375 1696.88,460.075 Q1697.73,459.6 1698.68,459.6 Q1699.255,459.6 1699.755,459.8 Q1700.255,460 1700.68,460.4 Z "/><text fill="#000000" font-family="sans-serif" font-size="9.6" lengthAdjust="spacingAndGlyphs" textLength="64" x="1712.92" y="467.1281">TaskExecution</text><line style="stroke: #A80036; stroke-width: 1.2000000000000002;" x1="1676" x2="1790.4" y1="476" y2="476"/><text fill="#000000" font-family="sans-serif" font-size="8.8" lengthAdjust="spacingAndGlyphs" textLength="55.2" x="1680" y="488.3352">-Data endDate</text><text fill="#000000" font-family="sans-serif" font-size="8.8" lengthAdjust="spacingAndGlyphs" textLength="52" x="1680" y="499.4039">-double delay</text><text fill="#000000" font-family="sans-serif" font-size="8.8" lengthAdjust="spacingAndGlyphs" textLength="106.4" x="1680" y="510.4727">-String descriptionOfQuality</text><!--MD5=[86cfdc25119a3a20e0664f11a0f5b002]
class Writer--><rect fill="#FEFECE" filter="url(#f15dpo4t3v43t0)" height="43.0688" id="Writer" style="stroke: #A80036; stroke-width: 1.2000000000000002;" width="70.4" x="1873.6" y="833.6"/><ellipse cx="1894.24" cy="846.4" fill="#ADD1B2" rx="8.8" ry="8.8" style="stroke: #A80036; stroke-width: 0.8;"/><path d="M1895.84,843.6 Q1896.0025,843.2 1896.19,843 Q1896.3775,842.8 1896.59,842.8 Q1896.965,842.8 1897.2025,843.025 Q1897.44,843.25 1897.44,843.775 L1897.44,845.025 Q1897.44,845.55 1897.215,845.775 Q1896.99,846 1896.64,846 Q1896.3275,846 1896.1275,845.8625 Q1895.9275,845.725 1895.84,845.3625 Q1895.8025,845.1125 1895.665,844.975 Q1895.415,844.7125 1894.965,844.5625 Q1894.515,844.4 1894.065,844.4 Q1893.5025,844.4 1893.0275,844.625 Q1892.565,844.85 1892.2025,845.35 Q1891.84,845.85 1891.84,846.5375 L1891.84,847.275 Q1891.84,848.1 1892.515,848.65 Q1893.19,849.2 1894.39,849.2 Q1895.1025,849.2 1895.6025,849.0375 Q1895.89,848.95 1896.215,848.6625 Q1896.4275,848.5 1896.54,848.45 Q1896.6525,848.4 1896.79,848.4 Q1897.0525,848.4 1897.24,848.6125 Q1897.44,848.8125 1897.44,849.1 Q1897.44,849.375 1897.165,849.7 Q1896.765,850.175 1896.1275,850.4375 Q1895.29,850.8 1894.265,850.8 Q1893.065,850.8 1892.1025,850.325 Q1891.3275,849.95 1890.7775,849.1375 Q1890.24,848.325 1890.24,847.3625 L1890.24,846.4875 Q1890.24,845.4875 1890.715,844.6125 Q1891.2025,843.7375 1892.04,843.275 Q1892.89,842.8 1893.84,842.8 Q1894.415,842.8 1894.915,843 Q1895.415,843.2 1895.84,843.6 Z "/><text fill="#000000" font-family="sans-serif" font-size="9.6" lengthAdjust="spacingAndGlyphs" textLength="25.6" x="1907.36" y="850.3281">Writer</text><line style="stroke: #A80036; stroke-width: 1.2000000000000002;" x1="1874.4" x2="1943.2" y1="859.2" y2="859.2"/><text fill="#000000" font-family="sans-serif" font-size="8.8" lengthAdjust="spacingAndGlyphs" textLength="60.8" x="1878.4" y="871.5352">-String fileName</text><!--MD5=[83bb469d45366b675450ee1d8d93a557]
link Freelancer to Transaction--><path d="M1100.632,233.464 C1112.16,243.7544 1125.336,254.5552 1138.4,263.2 C1163.064,279.5264 1173.112,276.6528 1198.4,292 C1201.168,293.6784 1229.904,315.3376 1250.64,331.0168 " fill="none" id="Freelancer-Transaction" style="stroke: #A80036; stroke-width: 0.8;"/><text fill="#000000" font-family="sans-serif" font-size="10.4" lengthAdjust="spacingAndGlyphs" textLength="32" x="1147.2" y="260.3961">receive</text><polygon fill="#000000" points="1181.6,254.9406,1186.4,257.3406,1181.6,259.7406,1181.6,254.9406" style="stroke: #000000; stroke-width: 0.8;"/><text fill="#000000" font-family="sans-serif" font-size="10.4" lengthAdjust="spacingAndGlyphs" textLength="5.6" x="1106.9165" y="250.9003">1</text><text fill="#000000" font-family="sans-serif" font-size="10.4" lengthAdjust="spacingAndGlyphs" textLength="5.6" x="1237.708" y="322.4204">1</text><!--MD5=[910f19d525f345201aad74ebe5d4fbde]
link Freelancer to Receipt--><path d="M1100.696,153.12 C1111.568,142.624 1124.392,132.864 1138.4,127.2 C1349.68,41.728 1447.832,24.328 1651.2,127.2 C1690.48,147.072 1715.392,195.872 1726.192,221.416 " fill="none" id="Freelancer-Receipt" style="stroke: #A80036; stroke-width: 0.8;"/><text fill="#000000" font-family="sans-serif" font-size="10.4" lengthAdjust="spacingAndGlyphs" textLength="37.6" x="1372.4" y="53.1961">receives</text><polygon fill="#000000" points="1412.4,47.7406,1417.2,50.1406,1412.4,52.5406,1412.4,47.7406" style="stroke: #000000; stroke-width: 0.8;"/><text fill="#000000" font-family="sans-serif" font-size="10.4" lengthAdjust="spacingAndGlyphs" textLength="5.6" x="1106.7438" y="157.9932">1</text><text fill="#000000" font-family="sans-serif" font-size="10.4" lengthAdjust="spacingAndGlyphs" textLength="5.6" x="1717.7109" y="212.8194">1</text><!--MD5=[a1bcd49bda1d48eee0717f7ad534cdd6]
link Freelancer to Payment--><path d="M1100.456,201.472 C1185.192,208.784 1397.88,227.136 1483.08,234.488 " fill="none" id="Freelancer-Payment" style="stroke: #A80036; stroke-width: 0.8;"/><text fill="#000000" font-family="sans-serif" font-size="10.4" lengthAdjust="spacingAndGlyphs" textLength="37.6" x="1248.8" y="209.1961">receives</text><polygon fill="#000000" points="1288.8,203.7406,1293.6,206.1406,1288.8,208.5406,1288.8,203.7406" style="stroke: #000000; stroke-width: 0.8;"/><text fill="#000000" font-family="sans-serif" font-size="10.4" lengthAdjust="spacingAndGlyphs" textLength="5.6" x="1106.7124" y="198.9696">1</text><text fill="#000000" font-family="sans-serif" font-size="10.4" lengthAdjust="spacingAndGlyphs" textLength="5.6" x="1471.1496" y="245.8619">1</text><!--MD5=[874150c88719dac3f651931978d26083]
link Freelancer to Address--><path d="M1095.512,253.4896 C1107.664,273.144 1122.52,294.8448 1138.4,312.8 C1165.888,343.8816 1202.392,373.6544 1230.296,394.5576 " fill="none" id="Freelancer-Address" style="stroke: #A80036; stroke-width: 0.8;"/><text fill="#000000" font-family="sans-serif" font-size="10.4" lengthAdjust="spacingAndGlyphs" textLength="16.8" x="1154.8" y="309.9961">has</text><polygon fill="#000000" points="1159.6,317.0813,1162,321.8813,1164.4,317.0813,1159.6,317.0813" style="stroke: #000000; stroke-width: 0.8;"/><text fill="#000000" font-family="sans-serif" font-size="10.4" lengthAdjust="spacingAndGlyphs" textLength="5.6" x="1092.7383" y="270.3583">1</text><text fill="#000000" font-family="sans-serif" font-size="10.4" lengthAdjust="spacingAndGlyphs" textLength="5.6" x="1218.3251" y="402.1608">1</text><!--MD5=[535e17355da54b57e77a1c7dbde973e0]
link Freelancer to Writer--><path d="M1097.544,143.424 C1133.24,91.264 1195.6,20.8 1272,20.8 C1272,20.8 1272,20.8 1734,20.8 C1905.192,20.8 1909.072,702.396 1908.232,833.524 " fill="none" id="Freelancer-Writer" style="stroke: #A80036; stroke-width: 0.8;"/><text fill="#000000" font-family="sans-serif" font-size="10.4" lengthAdjust="spacingAndGlyphs" textLength="88.8" x="1470.4" y="17.9961">receives email from</text><polygon fill="#000000" points="1561.6,12.5406,1566.4,14.9406,1561.6,17.3406,1561.6,12.5406" style="stroke: #000000; stroke-width: 0.8;"/><text fill="#000000" font-family="sans-serif" font-size="10.4" lengthAdjust="spacingAndGlyphs" textLength="5.6" x="1095.3066" y="134.729">1</text><text fill="#000000" font-family="sans-serif" font-size="10.4" lengthAdjust="spacingAndGlyphs" textLength="5.6" x="1901.8532" y="825.0752">1</text><!--MD5=[8853e9d83a8841c20c4ef075af762602]
link Task to Freelancer--><path d="M1487.864,513.0536 C1452.52,460.1288 1391.048,375.8536 1323.2,317.6 C1274.616,275.8856 1256.568,272.3784 1198.4,245.6 C1166.224,230.784 1127.976,217.704 1100.664,209.088 " fill="none" id="Task-Freelancer" style="stroke: #A80036; stroke-width: 0.8;"/><polygon fill="#000000" points="1253.2,247.7406,1248.4,250.1406,1253.2,252.5406,1253.2,247.7406" style="stroke: #000000; stroke-width: 0.8;"/><text fill="#000000" font-family="sans-serif" font-size="10.4" lengthAdjust="spacingAndGlyphs" textLength="40" x="1258" y="253.1961">made by</text><text fill="#000000" font-family="sans-serif" font-size="10.4" lengthAdjust="spacingAndGlyphs" textLength="16" x="1467.2233" y="504.6196">1..*</text><text fill="#000000" font-family="sans-serif" font-size="10.4" lengthAdjust="spacingAndGlyphs" textLength="5.6" x="1106.7069" y="222.5313">1</text><!--MD5=[3781be57b219e856d6dd67e0b949b069]
link Platform to Transaction--><path d="M37.8694,511.752 C42.6932,453.0232 67.6648,255.2 185.2,255.2 C185.2,255.2 185.2,255.2 698,255.2 C754.1352,255.2 1143.576,312.724 1198.4,324.8 C1210.008,327.3576 1222.44,330.844 1233.72,334.304 " fill="none" id="Platform-Transaction" style="stroke: #A80036; stroke-width: 0.8;"/><text fill="#000000" font-family="sans-serif" font-size="10.4" lengthAdjust="spacingAndGlyphs" textLength="16.8" x="591.2" y="252.3961">has</text><polygon fill="#000000" points="610.4,246.9406,615.2,249.3406,610.4,251.7406,610.4,246.9406" style="stroke: #000000; stroke-width: 0.8;"/><text fill="#000000" font-family="sans-serif" font-size="10.4" lengthAdjust="spacingAndGlyphs" textLength="5.6" x="30.4548" y="503.6187">1</text><text fill="#000000" font-family="sans-serif" font-size="10.4" lengthAdjust="spacingAndGlyphs" textLength="16" x="1211.6879" y="344.2858">1..*</text><!--MD5=[0f7004bed4496639b3a5258ab2ead378]
link Platform to Administrator--><path d="M42.5382,544.1272 C51.159,567.2192 68.8507,610.5208 91.2,643.2 C113.4336,675.7096 146.3568,707.7696 166.7584,726.2928 " fill="none" id="Platform-Administrator" style="stroke: #A80036; stroke-width: 0.8;"/><text fill="#000000" font-family="sans-serif" font-size="10.4" lengthAdjust="spacingAndGlyphs" textLength="16.8" x="92" y="640.3961">has</text><polygon fill="#000000" points="96.8,647.4813,99.2,652.2813,101.6,647.4813,96.8,647.4813" style="stroke: #000000; stroke-width: 0.8;"/><text fill="#000000" font-family="sans-serif" font-size="10.4" lengthAdjust="spacingAndGlyphs" textLength="5.6" x="45.1646" y="561.2986">1</text><text fill="#000000" font-family="sans-serif" font-size="10.4" lengthAdjust="spacingAndGlyphs" textLength="5.6" x="154.6837" y="717.7187">1</text><!--MD5=[7640e466c042ba2d6f9c19c816f7f0fc]
link Platform to Organization--><path d="M67.3911,539.2544 C132.2976,563.1328 283.7552,618.8528 355.9552,645.4152 " fill="none" id="Platform-Organization" style="stroke: #A80036; stroke-width: 0.8;"/><text fill="#000000" font-family="sans-serif" font-size="10.4" lengthAdjust="spacingAndGlyphs" textLength="65.6" x="148" y="565.1961">has registered</text><polygon fill="#000000" points="216,559.7406,220.8,562.1406,216,564.5406,216,559.7406" style="stroke: #000000; stroke-width: 0.8;"/><text fill="#000000" font-family="sans-serif" font-size="10.4" lengthAdjust="spacingAndGlyphs" textLength="5.6" x="73.6951" y="553.3315">1</text><text fill="#000000" font-family="sans-serif" font-size="10.4" lengthAdjust="spacingAndGlyphs" textLength="16" x="333.7482" y="655.2059">1..*</text><!--MD5=[22697d4d863c2e08ab1d60ca0d61f844]
link Platform to Freelancer--><path d="M37.7461,511.888 C41.2794,456.8656 55.3842,277.432 91.2,234.4 C119.8192,200.016 140.4632,198.4 185.2,198.4 C185.2,198.4 185.2,198.4 810,198.4 C887.584,198.4 978.544,198.4 1027.56,198.4 " fill="none" id="Platform-Freelancer" style="stroke: #A80036; stroke-width: 0.8;"/><text fill="#000000" font-family="sans-serif" font-size="10.4" lengthAdjust="spacingAndGlyphs" textLength="16.8" x="487.2" y="195.5961">has</text><polygon fill="#000000" points="506.4,190.1406,511.2,192.5406,506.4,194.9406,506.4,190.1406" style="stroke: #000000; stroke-width: 0.8;"/><text fill="#000000" font-family="sans-serif" font-size="10.4" lengthAdjust="spacingAndGlyphs" textLength="5.6" x="31.8365" y="503.3125">1</text><text fill="#000000" font-family="sans-serif" font-size="10.4" lengthAdjust="spacingAndGlyphs" textLength="16" x="1005.3106" y="210.1242">1..*</text><!--MD5=[22697d4d863c2e08ab1d60ca0d61f844]
link Platform to Freelancer--><path d="M37.7429,511.9672 C41.4342,453.5896 56.4477,253.0696 91.2,200.8 C118.536,159.688 135.8272,141.6 185.2,141.6 C185.2,141.6 185.2,141.6 810,141.6 C889.176,141.6 978.976,168.368 1027.496,185.152 " fill="none" id="Platform-Freelancer-1" style="stroke: #A80036; stroke-width: 0.8;"/><text fill="#000000" font-family="sans-serif" font-size="10.4" lengthAdjust="spacingAndGlyphs" textLength="68" x="461.6" y="138.7961">sends email to</text><polygon fill="#000000" points="532,133.3406,536.8,135.7406,532,138.1406,532,133.3406" style="stroke: #000000; stroke-width: 0.8;"/><text fill="#000000" font-family="sans-serif" font-size="10.4" lengthAdjust="spacingAndGlyphs" textLength="5.6" x="39.0774" y="503.415">1</text><text fill="#000000" font-family="sans-serif" font-size="10.4" lengthAdjust="spacingAndGlyphs" textLength="5.6" x="1015.6319" y="194.8886">1</text><!--MD5=[729d38e941f71726a36b38b157ad7957]
link Platform to Collaborator--><path d="M67.2951,527.7416 C163.0184,526.932 457.5008,524.44 564.5656,523.5336 " fill="none" id="Platform-Collaborator" style="stroke: #A80036; stroke-width: 0.8;"/><text fill="#000000" font-family="sans-serif" font-size="10.4" lengthAdjust="spacingAndGlyphs" textLength="68" x="252.8" y="521.9961">sends email to</text><polygon fill="#000000" points="323.2,516.5406,328,518.9406,323.2,521.3406,323.2,516.5406" style="stroke: #000000; stroke-width: 0.8;"/><text fill="#000000" font-family="sans-serif" font-size="10.4" lengthAdjust="spacingAndGlyphs" textLength="5.6" x="73.5814" y="524.536">1</text><text fill="#000000" font-family="sans-serif" font-size="10.4" lengthAdjust="spacingAndGlyphs" textLength="5.6" x="552.9139" y="535.3148">1</text><!--MD5=[fe099013e52a8d16c3af5f33501aec65]
link Platform to Manager--><path d="M39.3656,544.2664 C47.0452,587.6448 73.8224,707.2344 144,772.8 C265.9384,886.7248 490.464,863.1848 572.7328,849.8216 " fill="none" id="Platform-Manager" style="stroke: #A80036; stroke-width: 0.8;"/><text fill="#000000" font-family="sans-serif" font-size="10.4" lengthAdjust="spacingAndGlyphs" textLength="68" x="252.8" y="832.3961">sends email to</text><polygon fill="#000000" points="323.2,826.9406,328,829.3406,323.2,831.7406,323.2,826.9406" style="stroke: #000000; stroke-width: 0.8;"/><text fill="#000000" font-family="sans-serif" font-size="10.4" lengthAdjust="spacingAndGlyphs" textLength="5.6" x="33.9176" y="561.1919">1</text><text fill="#000000" font-family="sans-serif" font-size="10.4" lengthAdjust="spacingAndGlyphs" textLength="5.6" x="560.7042" y="862.9212">1</text><!--MD5=[0bf675f16fbaf9ae71c3659ee262a45e]
link Platform to Writer--><path d="M37.8832,544.1944 C44.1443,631.36 79.1964,1040.8 185.2,1040.8 C185.2,1040.8 185.2,1040.8 1734,1040.8 C1823,1040.8 1879.696,925.8128 1899.8,876.8536 " fill="none" id="Platform-Writer" style="stroke: #A80036; stroke-width: 0.8;"/><text fill="#000000" font-family="sans-serif" font-size="10.4" lengthAdjust="spacingAndGlyphs" textLength="84.8" x="893.6" y="1037.9961">sends emails from</text><polygon fill="#000000" points="980.8,1032.5406,985.6,1034.9406,980.8,1037.3406,980.8,1032.5406" style="stroke: #000000; stroke-width: 0.8;"/><text fill="#000000" font-family="sans-serif" font-size="10.4" lengthAdjust="spacingAndGlyphs" textLength="5.6" x="39.1418" y="561.1005">1</text><text fill="#000000" font-family="sans-serif" font-size="10.4" lengthAdjust="spacingAndGlyphs" textLength="5.6" x="1891.6188" y="893.8315">1</text><!--MD5=[ec97d39b7e7a4ec2b79aa9dbbb3f5070]
link Organization to Address--><path d="M437.0616,649.2464 C582.2936,610.0664 1082.336,475.168 1230.384,435.2272 " fill="none" id="Organization-Address" style="stroke: #A80036; stroke-width: 0.8;"/><text fill="#000000" font-family="sans-serif" font-size="10.4" lengthAdjust="spacingAndGlyphs" textLength="16.8" x="795.6" y="530.7961">has</text><polygon fill="#000000" points="814.8,525.3406,819.6,527.7406,814.8,530.1406,814.8,525.3406" style="stroke: #000000; stroke-width: 0.8;"/><text fill="#000000" font-family="sans-serif" font-size="10.4" lengthAdjust="spacingAndGlyphs" textLength="5.6" x="443.1734" y="659.4777">1</text><text fill="#000000" font-family="sans-serif" font-size="10.4" lengthAdjust="spacingAndGlyphs" textLength="5.6" x="1218.4255" y="448.5496">1</text><!--MD5=[bc039f41cf0b27fadee5cae63fc6e1fe]
link Organization to Manager--><path d="M428.1848,693.0104 C437.9696,702.124 449.2576,711.4152 460.8,718.4 C493.1312,737.964 511.156,723.764 540.8,747.2 C564.1016,765.6216 581.584,795.0968 592.1872,816.6872 " fill="none" id="Organization-Manager" style="stroke: #A80036; stroke-width: 0.8;"/><text fill="#000000" font-family="sans-serif" font-size="10.4" lengthAdjust="spacingAndGlyphs" textLength="16.8" x="487.2" y="715.5961">has</text><polygon fill="#000000" points="506.4,710.1406,511.2,712.5406,506.4,714.9406,506.4,710.1406" style="stroke: #000000; stroke-width: 0.8;"/><text fill="#000000" font-family="sans-serif" font-size="10.4" lengthAdjust="spacingAndGlyphs" textLength="5.6" x="426.8419" y="709.6445">1</text><text fill="#000000" font-family="sans-serif" font-size="10.4" lengthAdjust="spacingAndGlyphs" textLength="5.6" x="583.5528" y="808.0996">1</text><!--MD5=[45817597bcd7048073a670d966abfd17]
link Organization to Collaborator--><path d="M436.2848,627.0416 C444.1144,621.3072 452.4944,615.7376 460.8,611.2 C493.9632,593.0824 508.5664,602.1248 540.8,582.4 C554.9056,573.768 568.5584,561.624 579.5424,550.58 " fill="none" id="Organization-Collaborator" style="stroke: #A80036; stroke-width: 0.8;"/><text fill="#000000" font-family="sans-serif" font-size="10.4" lengthAdjust="spacingAndGlyphs" textLength="16.8" x="487.2" y="579.5961">has</text><polygon fill="#000000" points="506.4,574.1406,511.2,576.5406,506.4,578.9406,506.4,574.1406" style="stroke: #000000; stroke-width: 0.8;"/><text fill="#000000" font-family="sans-serif" font-size="10.4" lengthAdjust="spacingAndGlyphs" textLength="5.6" x="443.0877" y="633.6587">1</text><text fill="#000000" font-family="sans-serif" font-size="10.4" lengthAdjust="spacingAndGlyphs" textLength="5.6" x="569.12" y="567.2288">1</text><!--MD5=[4078351e3988aa35b1504a42837f2ab1]
link Organization to Task--><path d="M436.8768,664.9248 C572.004,681.6928 1006.328,735.5536 1013.6,736 C1058.312,738.7464 1078.768,763.152 1114.4,736 C1146.376,711.6384 1109.096,676.3112 1138.4,648.8 C1189.24,601.0736 1378.04,602.08 1445.6,584.8 C1455.304,582.3176 1465.64,579.3672 1475.408,576.436 " fill="none" id="Organization-Task" style="stroke: #A80036; stroke-width: 0.8;"/><text fill="#000000" font-family="sans-serif" font-size="10.4" lengthAdjust="spacingAndGlyphs" textLength="16.8" x="927.6" y="717.9961">has</text><polygon fill="#000000" points="946.8,712.5406,951.6,714.9406,946.8,717.3406,946.8,712.5406" style="stroke: #000000; stroke-width: 0.8;"/><text fill="#000000" font-family="sans-serif" font-size="10.4" lengthAdjust="spacingAndGlyphs" textLength="5.6" x="443.2331" y="677.4338">1</text><text fill="#000000" font-family="sans-serif" font-size="10.4" lengthAdjust="spacingAndGlyphs" textLength="16" x="1453.3271" y="589.6105">1..*</text><!--MD5=[6eb6e197a729f6ec2412743e0bdbca1d]
link Manager to User--><path d="M636.8432,836.9752 C677.8416,827.756 748.8536,811.7888 785.3224,803.5888 " fill="none" id="Manager-User" style="stroke: #A80036; stroke-width: 0.8;"/><text fill="#000000" font-family="sans-serif" font-size="10.4" lengthAdjust="spacingAndGlyphs" textLength="34.4" x="674.8" y="813.9961">acts as</text><polygon fill="#000000" points="711.6,808.5406,716.4,810.9406,711.6,813.3406,711.6,808.5406" style="stroke: #000000; stroke-width: 0.8;"/><text fill="#000000" font-family="sans-serif" font-size="10.4" lengthAdjust="spacingAndGlyphs" textLength="5.6" x="643.2674" y="847.7062">1</text><text fill="#000000" font-family="sans-serif" font-size="10.4" lengthAdjust="spacingAndGlyphs" textLength="5.6" x="773.5532" y="817.0973">1</text><!--MD5=[21898ab70dd7e221b590f87a1f131a40]
link Manager to Payment--><path d="M636.8344,848.0648 C687.428,853.3808 789.6184,858.8048 868.8,828.8 C988.96,783.2672 1230.928,560.6256 1323.2,471.2 C1391.056,405.4352 1459.576,317.8104 1494.848,270.7832 " fill="none" id="Manager-Payment" style="stroke: #A80036; stroke-width: 0.8;"/><text fill="#000000" font-family="sans-serif" font-size="10.4" lengthAdjust="spacingAndGlyphs" textLength="32.8" x="1042.4" y="657.9961">defines</text><polygon fill="#000000" points="1077.6,652.5406,1082.4,654.9406,1077.6,657.3406,1077.6,652.5406" style="stroke: #000000; stroke-width: 0.8;"/><text fill="#000000" font-family="sans-serif" font-size="10.4" lengthAdjust="spacingAndGlyphs" textLength="5.6" x="643.257" y="860.8405">1</text><text fill="#000000" font-family="sans-serif" font-size="10.4" lengthAdjust="spacingAndGlyphs" textLength="5.6" x="1485.3173" y="287.1931">1</text><!--MD5=[22b92a6bde93b1f8afcaf2cbb8515056]
link Manager to Writer--><path d="M636.912,852.22 C647.0232,854.5824 658.3264,856.9176 668.8,858.4 C989.16,903.7416 1072.048,900 1395.6,900 C1395.6,900 1395.6,900 1734,900 C1783.6,900 1838.704,882.7184 1873.352,869.6216 " fill="none" id="Manager-Writer" style="stroke: #A80036; stroke-width: 0.8;"/><text fill="#000000" font-family="sans-serif" font-size="10.4" lengthAdjust="spacingAndGlyphs" textLength="88.8" x="1223.2" y="897.1961">receives email from</text><polygon fill="#000000" points="1314.4,891.7406,1319.2,894.1406,1314.4,896.5406,1314.4,891.7406" style="stroke: #000000; stroke-width: 0.8;"/><text fill="#000000" font-family="sans-serif" font-size="10.4" lengthAdjust="spacingAndGlyphs" textLength="5.6" x="643.1307" y="865.6687">1</text><text fill="#000000" font-family="sans-serif" font-size="10.4" lengthAdjust="spacingAndGlyphs" textLength="5.6" x="1861.6562" y="883.769">1</text><!--MD5=[2a41c1af413c0662bf55a6b8913ea24f]
link Administrator to Organization--><path d="M227.5544,726.3168 C264.5832,711.704 318.8848,690.2744 355.6576,675.7624 " fill="none" id="Administrator-Organization" style="stroke: #A80036; stroke-width: 0.8;"/><text fill="#000000" font-family="sans-serif" font-size="10.4" lengthAdjust="spacingAndGlyphs" textLength="40" x="266.8" y="683.5961">registers</text><polygon fill="#000000" points="309.2,678.1406,314,680.5406,309.2,682.9406,309.2,678.1406" style="stroke: #000000; stroke-width: 0.8;"/><text fill="#000000" font-family="sans-serif" font-size="10.4" lengthAdjust="spacingAndGlyphs" textLength="5.6" x="234.3462" y="735.6517">1</text><text fill="#000000" font-family="sans-serif" font-size="10.4" lengthAdjust="spacingAndGlyphs" textLength="5.6" x="343.9345" y="689.7225">1</text><!--MD5=[edc107c0a572352bcd12c9afaba4390b]
link Administrator to User--><path d="M228.1064,746.336 C281.736,751.4288 378.2448,760.5336 460.8,768 C583.1216,779.0632 729.7208,791.6712 785.4152,796.4376 " fill="none" id="Administrator-User" style="stroke: #A80036; stroke-width: 0.8;"/><text fill="#000000" font-family="sans-serif" font-size="10.4" lengthAdjust="spacingAndGlyphs" textLength="34.4" x="478.4" y="765.1961">acts as</text><polygon fill="#000000" points="515.2,759.7406,520,762.1406,515.2,764.5406,515.2,759.7406" style="stroke: #000000; stroke-width: 0.8;"/><text fill="#000000" font-family="sans-serif" font-size="10.4" lengthAdjust="spacingAndGlyphs" textLength="5.6" x="234.4214" y="758.6054">1</text><text fill="#000000" font-family="sans-serif" font-size="10.4" lengthAdjust="spacingAndGlyphs" textLength="5.6" x="773.6675" y="792.5324">1</text><!--MD5=[757406b2e460220911d4cccaa97c87d9]
link Administrator to Collaborator--><path d="M197.4816,726.3248 C209.2712,709.5216 229.5704,683.1976 252,665.6 C350.1528,588.5896 495.5536,547.6184 564.7056,531.488 " fill="none" id="Administrator-Collaborator" style="stroke: #A80036; stroke-width: 0.8;"/><text fill="#000000" font-family="sans-serif" font-size="10.4" lengthAdjust="spacingAndGlyphs" textLength="40" x="371.2" y="567.5961">registers</text><polygon fill="#000000" points="413.6,562.1406,418.4,564.5406,413.6,566.9406,413.6,562.1406" style="stroke: #000000; stroke-width: 0.8;"/><text fill="#000000" font-family="sans-serif" font-size="10.4" lengthAdjust="spacingAndGlyphs" textLength="5.6" x="194.4318" y="717.7601">1</text><text fill="#000000" font-family="sans-serif" font-size="10.4" lengthAdjust="spacingAndGlyphs" textLength="5.6" x="552.8055" y="544.4813">1</text><!--MD5=[64d713fdb760e3b6b59069371d93ba85]
link Administrator to Manager--><path d="M207.7152,758.4264 C219.9896,767.0568 236.1592,777.1456 252,783.2 C364.816,826.3216 509.6968,839.0208 572.5664,842.6296 " fill="none" id="Administrator-Manager" style="stroke: #A80036; stroke-width: 0.8;"/><text fill="#000000" font-family="sans-serif" font-size="10.4" lengthAdjust="spacingAndGlyphs" textLength="40" x="371.2" y="810.7961">registers</text><polygon fill="#000000" points="413.6,805.3406,418.4,807.7406,413.6,810.1406,413.6,805.3406" style="stroke: #000000; stroke-width: 0.8;"/><text fill="#000000" font-family="sans-serif" font-size="10.4" lengthAdjust="spacingAndGlyphs" textLength="5.6" x="207.4351" y="775.5695">1</text><text fill="#000000" font-family="sans-serif" font-size="10.4" lengthAdjust="spacingAndGlyphs" textLength="5.6" x="560.726" y="839.29">1</text><!--MD5=[07102334b95112f39e7e0811ba637f1c]
link Administrator to Writer--><path d="M192.4056,758.4328 C211.6824,810.3304 280.4688,970.4 395.6,970.4 C395.6,970.4 395.6,970.4 1734,970.4 C1801.024,970.4 1862.048,910.2392 1890.736,876.868 " fill="none" id="Administrator-Writer" style="stroke: #A80036; stroke-width: 0.8;"/><text fill="#000000" font-family="sans-serif" font-size="10.4" lengthAdjust="spacingAndGlyphs" textLength="88.8" x="1014.4" y="967.5961">receives email from</text><polygon fill="#000000" points="1105.6,962.1406,1110.4,964.5406,1105.6,966.9406,1105.6,962.1406" style="stroke: #000000; stroke-width: 0.8;"/><text fill="#000000" font-family="sans-serif" font-size="10.4" lengthAdjust="spacingAndGlyphs" textLength="5.6" x="187.8197" y="775.5777">1</text><text fill="#000000" font-family="sans-serif" font-size="10.4" lengthAdjust="spacingAndGlyphs" textLength="5.6" x="1880.572" y="893.8491">1</text><!--MD5=[ee25a9e267be641cadbaef6c1594e19f]
link Transaction to Payment--><path d="M1309.576,331.1456 C1356.072,310.3952 1436.584,274.4688 1483.128,253.6968 " fill="none" id="Transaction-Payment" style="stroke: #A80036; stroke-width: 0.8;"/><text fill="#000000" font-family="sans-serif" font-size="10.4" lengthAdjust="spacingAndGlyphs" textLength="42.4" x="1370" y="269.9961">results in</text><polygon fill="#000000" points="1414.8,264.5406,1419.6,266.9406,1414.8,269.3406,1414.8,264.5406" style="stroke: #000000; stroke-width: 0.8;"/><text fill="#000000" font-family="sans-serif" font-size="10.4" lengthAdjust="spacingAndGlyphs" textLength="5.6" x="1313.9565" y="322.587">1</text><text fill="#000000" font-family="sans-serif" font-size="10.4" lengthAdjust="spacingAndGlyphs" textLength="5.6" x="1471.2053" y="268.1321">1</text><!--MD5=[8e4873cec2cb3febaaa9495c716fc885]
link Transaction to Task--><path d="M1308.16,363.2216 C1313.888,367.2096 1319.24,371.9864 1323.2,377.6 C1353.128,420.0664 1313.952,452.0832 1347.2,492 C1351.592,497.268 1426,526.5848 1475.496,545.6872 " fill="none" id="Transaction-Task" style="stroke: #A80036; stroke-width: 0.8;"/><text fill="#000000" font-family="sans-serif" font-size="10.4" lengthAdjust="spacingAndGlyphs" textLength="16.8" x="1382.8" y="489.1961">has</text><polygon fill="#000000" points="1387.6,496.2813,1390,501.0813,1392.4,496.2813,1387.6,496.2813" style="stroke: #000000; stroke-width: 0.8;"/><text fill="#000000" font-family="sans-serif" font-size="10.4" lengthAdjust="spacingAndGlyphs" textLength="5.6" x="1311.7175" y="380.3633">1</text><text fill="#000000" font-family="sans-serif" font-size="10.4" lengthAdjust="spacingAndGlyphs" textLength="5.6" x="1463.5395" y="540.5956">1</text><!--MD5=[590de1eb4160e0577c453d6e7f1b2aac]
link Transaction to TaskExecution--><path d="M1311.928,358.5616 C1392.584,382.4696 1580.208,438.0856 1675.16,466.2336 " fill="none" id="Transaction-TaskExecution" style="stroke: #A80036; stroke-width: 0.8;"/><text fill="#000000" font-family="sans-serif" font-size="10.4" lengthAdjust="spacingAndGlyphs" textLength="16.8" x="1506.4" y="402.7961">has</text><polygon fill="#000000" points="1525.6,397.3406,1530.4,399.7406,1525.6,402.1406,1525.6,397.3406" style="stroke: #000000; stroke-width: 0.8;"/><text fill="#000000" font-family="sans-serif" font-size="10.4" lengthAdjust="spacingAndGlyphs" textLength="5.6" x="1318.0862" y="371.9871">1</text><text fill="#000000" font-family="sans-serif" font-size="10.4" lengthAdjust="spacingAndGlyphs" textLength="5.6" x="1663.2859" y="475.9748">1</text><!--MD5=[264464a3d777ed38cc26833f9af77f81]
link Payment to Receipt--><path d="M1556.936,237.6 C1598.368,237.6 1665.456,237.6 1703.552,237.6 " fill="none" id="Payment-Receipt" style="stroke: #A80036; stroke-width: 0.8;"/><text fill="#000000" font-family="sans-serif" font-size="10.4" lengthAdjust="spacingAndGlyphs" textLength="40" x="1597.6" y="234.7961">generate</text><polygon fill="#000000" points="1640,229.3406,1644.8,231.7406,1640,234.1406,1640,229.3406" style="stroke: #000000; stroke-width: 0.8;"/><text fill="#000000" font-family="sans-serif" font-size="10.4" lengthAdjust="spacingAndGlyphs" textLength="5.6" x="1563.2689" y="249.4699">1</text><text fill="#000000" font-family="sans-serif" font-size="10.4" lengthAdjust="spacingAndGlyphs" textLength="5.6" x="1691.5638" y="249.6838">1</text><!--MD5=[818a7ceb57ddd368999fbf099f390a6d]
link Reader to HistoricalTransaction--><path d="M640.0024,329.5432 C669.9488,326.708 714.008,322.5368 749.548,319.172 " fill="none" id="Reader-HistoricalTransaction" style="stroke: #A80036; stroke-width: 0.8;"/><text fill="#000000" font-family="sans-serif" font-size="10.4" lengthAdjust="spacingAndGlyphs" textLength="44.8" x="669.6" y="317.9961">originates</text><polygon fill="#000000" points="716.8,312.5406,721.6,314.9406,716.8,317.3406,716.8,312.5406" style="stroke: #000000; stroke-width: 0.8;"/><text fill="#000000" font-family="sans-serif" font-size="10.4" lengthAdjust="spacingAndGlyphs" textLength="5.6" x="646.2965" y="340.894">1</text><text fill="#000000" font-family="sans-serif" font-size="10.4" lengthAdjust="spacingAndGlyphs" textLength="16" x="727.0999" y="331.1226">1..*</text><!--MD5=[09813f49c964f2362ae6ca00d2202492]
link HistoricalTransaction to Transaction--><path d="M868.952,326.5584 C934.392,340.228 1043.336,360.8664 1138.4,368.8 C1164.976,371.0176 1172.008,372.5936 1198.4,368.8 C1210.128,367.1144 1222.6,363.9896 1233.88,360.6312 " fill="none" id="HistoricalTransaction-Transaction" style="stroke: #A80036; stroke-width: 0.8;"/><text fill="#000000" font-family="sans-serif" font-size="10.4" lengthAdjust="spacingAndGlyphs" textLength="16.8" x="1050.4" y="350.7961">has</text><polygon fill="#000000" points="1069.6,345.3406,1074.4,347.7406,1069.6,350.1406,1069.6,345.3406" style="stroke: #000000; stroke-width: 0.8;"/><text fill="#000000" font-family="sans-serif" font-size="10.4" lengthAdjust="spacingAndGlyphs" textLength="5.6" x="875.1095" y="339.2739">1</text><text fill="#000000" font-family="sans-serif" font-size="10.4" lengthAdjust="spacingAndGlyphs" textLength="16" x="1211.5751" y="359.591">1..*</text><!--MD5=[9fd72751b03cb19134c76fd7e0acb422]
link HistoricalTransaction to Freelancer--><path d="M846.936,297.496 C883.336,281.5432 940.48,256.28 989.6,233.6 C1001.944,227.896 1015.384,221.528 1027.352,215.784 " fill="none" id="HistoricalTransaction-Freelancer" style="stroke: #A80036; stroke-width: 0.8;"/><text fill="#000000" font-family="sans-serif" font-size="10.4" lengthAdjust="spacingAndGlyphs" textLength="16.8" x="927.6" y="230.7961">has</text><polygon fill="#000000" points="946.8,225.3406,951.6,227.7406,946.8,230.1406,946.8,225.3406" style="stroke: #000000; stroke-width: 0.8;"/><text fill="#000000" font-family="sans-serif" font-size="10.4" lengthAdjust="spacingAndGlyphs" textLength="5.6" x="851.5985" y="288.9229">1</text><text fill="#000000" font-family="sans-serif" font-size="10.4" lengthAdjust="spacingAndGlyphs" textLength="16" x="1005.0734" y="229.9528">1..*</text><!--MD5=[d2c3650dbd07e79cdad2ffd4a879dec6]
link Collaborator to Freelancer--><path d="M616.1688,495.8808 C626.3712,472.94 643.9416,440.9008 668.8,421.6 C742.4328,364.4296 784.3072,397.7848 868.8,358.4 C926.464,331.5216 941.208,322.8976 989.6,281.6 C1002.952,270.208 1016.112,256.4024 1027.528,243.3384 " fill="none" id="Collaborator-Freelancer" style="stroke: #A80036; stroke-width: 0.8;"/><text fill="#000000" font-family="sans-serif" font-size="10.4" lengthAdjust="spacingAndGlyphs" textLength="34.4" x="786.8" y="355.5961">creates</text><polygon fill="#000000" points="823.6,350.1406,828.4,352.5406,823.6,354.9406,823.6,350.1406" style="stroke: #000000; stroke-width: 0.8;"/><text fill="#000000" font-family="sans-serif" font-size="10.4" lengthAdjust="spacingAndGlyphs" textLength="5.6" x="612.2558" y="487.292">1</text><text fill="#000000" font-family="sans-serif" font-size="10.4" lengthAdjust="spacingAndGlyphs" textLength="5.6" x="1015.669" y="262.3484">1</text><!--MD5=[f919d21ae7a75ef5ececc535e09d5009]
link Collaborator to Task--><path d="M644.9328,540.904 C668.4328,551.5776 698.8264,565.5528 725.6,578.4 C736.352,583.5592 737.9936,587.66 749.6,590.4 C888.992,623.3064 1334.112,581.5216 1475.592,567.0168 " fill="none" id="Collaborator-Task" style="stroke: #A80036; stroke-width: 0.8;"/><text fill="#000000" font-family="sans-serif" font-size="10.4" lengthAdjust="spacingAndGlyphs" textLength="34.4" x="1041.6" y="593.1961">creates</text><polygon fill="#000000" points="1078.4,587.7406,1083.2,590.1406,1078.4,592.5406,1078.4,587.7406" style="stroke: #000000; stroke-width: 0.8;"/><text fill="#000000" font-family="sans-serif" font-size="10.4" lengthAdjust="spacingAndGlyphs" textLength="5.6" x="651.2386" y="555.2803">1</text><text fill="#000000" font-family="sans-serif" font-size="10.4" lengthAdjust="spacingAndGlyphs" textLength="16" x="1453.2048" y="564.8119">1..*</text><!--MD5=[8b5db564ea9bd1758097b07ca3fd81a4]
link Collaborator to Transaction--><path d="M638.4488,495.94 C647.784,489.3296 658.284,482.884 668.8,478.4 C889.264,384.3856 968.464,444.4056 1198.4,376.8 C1210.952,373.1096 1224.328,368.0816 1236.176,363.2176 " fill="none" id="Collaborator-Transaction" style="stroke: #A80036; stroke-width: 0.8;"/><text fill="#000000" font-family="sans-serif" font-size="10.4" lengthAdjust="spacingAndGlyphs" textLength="34.4" x="918.8" y="410.7961">creates</text><polygon fill="#000000" points="955.6,405.3406,960.4,407.7406,955.6,410.1406,955.6,405.3406" style="stroke: #000000; stroke-width: 0.8;"/><text fill="#000000" font-family="sans-serif" font-size="10.4" lengthAdjust="spacingAndGlyphs" textLength="5.6" x="638.9222" y="487.3628">1</text><text fill="#000000" font-family="sans-serif" font-size="10.4" lengthAdjust="spacingAndGlyphs" textLength="16" x="1211.6696" y="378.3139">1..*</text><!--MD5=[04ce0ecdab38a3951889ff50c232570f]
link Collaborator to User--><path d="M617.0776,550.5048 C637.9568,597.7432 685.9432,695.88 749.6,760.8 C759.9496,771.3552 773.7888,780.3896 785.4416,786.9552 " fill="none" id="Collaborator-User" style="stroke: #A80036; stroke-width: 0.8;"/><text fill="#000000" font-family="sans-serif" font-size="10.4" lengthAdjust="spacingAndGlyphs" textLength="34.4" x="674.8" y="648.3961">acts as</text><polygon fill="#000000" points="688.4,655.4813,690.8,660.2813,693.2,655.4813,688.4,655.4813" style="stroke: #000000; stroke-width: 0.8;"/><text fill="#000000" font-family="sans-serif" font-size="10.4" lengthAdjust="spacingAndGlyphs" textLength="5.6" x="613.1658" y="567.353">1</text><text fill="#000000" font-family="sans-serif" font-size="10.4" lengthAdjust="spacingAndGlyphs" textLength="5.6" x="773.7" y="780.8572">1</text><!--MD5=[2bf0bd16ae3d2322f415cdcee023b5a6]
link Collaborator to HistoricalTransaction--><path d="M611.3112,495.8832 C619.2368,464.0384 636.4016,411.5536 668.8,378.4 C676.4568,370.5648 731.5952,346.1744 770.2368,329.656 " fill="none" id="Collaborator-HistoricalTransaction" style="stroke: #A80036; stroke-width: 0.8;"/><polygon fill="#000000" points="688.4,344,690.8,339.2,693.2,344,688.4,344" style="stroke: #000000; stroke-width: 0.8;"/><text fill="#000000" font-family="sans-serif" font-size="10.4" lengthAdjust="spacingAndGlyphs" textLength="24.8" x="679.6" y="357.1961">loads</text><text fill="#000000" font-family="sans-serif" font-size="10.4" lengthAdjust="spacingAndGlyphs" textLength="5.6" x="606.4418" y="487.2948">1</text><text fill="#000000" font-family="sans-serif" font-size="10.4" lengthAdjust="spacingAndGlyphs" textLength="5.6" x="752.8909" y="346.8074">1</text><!--MD5=[ff0537dd903a7a771fc0cea37037e59c]
link Collaborator to TaskExecution--><path d="M644.8672,515.112 C697.1192,505.9456 791.8616,494.9208 868.8,516.8 C941.592,537.5008 941.712,582.756 1013.6,606.4 C1196.352,666.5024 1253.32,639.7568 1445.6,633.6 C1501.152,631.8216 1519.048,646.8624 1570.4,625.6 C1627.144,602.1072 1677.664,550.2736 1706.656,516.052 " fill="none" id="Collaborator-TaskExecution" style="stroke: #A80036; stroke-width: 0.8;"/><text fill="#000000" font-family="sans-serif" font-size="10.4" lengthAdjust="spacingAndGlyphs" textLength="48" x="1139.2" y="634.7961">introduces</text><polygon fill="#000000" points="1189.6,629.3406,1194.4,631.7406,1189.6,634.1406,1189.6,629.3406" style="stroke: #000000; stroke-width: 0.8;"/><text fill="#000000" font-family="sans-serif" font-size="10.4" lengthAdjust="spacingAndGlyphs" textLength="5.6" x="651.1633" y="525.7001">1</text><text fill="#000000" font-family="sans-serif" font-size="10.4" lengthAdjust="spacingAndGlyphs" textLength="5.6" x="1696.5627" y="532.9102">1</text><!--MD5=[5e2b2aaa030151c8c360b190d75bd120]
link Collaborator to Writer--><path d="M637.4136,550.4784 C647.3528,558.8104 658.4312,567.9064 668.8,576 C861.88,726.7248 922.656,810.4 1167.6,810.4 C1167.6,810.4 1167.6,810.4 1734,810.4 C1783.6,810.4 1838.704,827.6816 1873.352,840.7784 " fill="none" id="Collaborator-Writer" style="stroke: #A80036; stroke-width: 0.8;"/><text fill="#000000" font-family="sans-serif" font-size="10.4" lengthAdjust="spacingAndGlyphs" textLength="88.8" x="1223.2" y="807.5961">receives email from</text><polygon fill="#000000" points="1314.4,802.1406,1319.2,804.5406,1314.4,806.9406,1314.4,802.1406" style="stroke: #000000; stroke-width: 0.8;"/><text fill="#000000" font-family="sans-serif" font-size="10.4" lengthAdjust="spacingAndGlyphs" textLength="5.6" x="637.1241" y="567.3219">1</text><text fill="#000000" font-family="sans-serif" font-size="10.4" lengthAdjust="spacingAndGlyphs" textLength="5.6" x="1861.6562" y="850.3289">1</text><!--MD5=[b5492b811c5199351212545c210346d5]
link TaskExecution to Freelancer--><path d="M1724.184,450.2272 C1707.104,382.7376 1667.968,233.752 1651.2,216.8 C1500.96,64.904 1203.256,149.568 1100.592,185.112 " fill="none" id="TaskExecution-Freelancer" style="stroke: #A80036; stroke-width: 0.8;"/><text fill="#000000" font-family="sans-serif" font-size="10.4" lengthAdjust="spacingAndGlyphs" textLength="96.8" x="1348" y="125.9961">related to the work of</text><text fill="#000000" font-family="sans-serif" font-size="10.4" lengthAdjust="spacingAndGlyphs" textLength="5.6" x="1716.627" y="441.7581">1</text><text fill="#000000" font-family="sans-serif" font-size="10.4" lengthAdjust="spacingAndGlyphs" textLength="5.6" x="1106.8701" y="180.0022">1</text><!--MD5=[bdc7b78a1b1f03a53fec8289ba75cac4]
link Task to TaskExecution--><path d="M1564.64,545.9896 C1596.6,534.028 1640.208,517.708 1674.944,504.7048 " fill="none" id="Task-TaskExecution" style="stroke: #A80036; stroke-width: 0.8;"/><text fill="#000000" font-family="sans-serif" font-size="10.4" lengthAdjust="spacingAndGlyphs" textLength="44.8" x="1595.2" y="512.3961">originates</text><polygon fill="#000000" points="1642.4,506.9406,1647.2,509.3406,1642.4,511.7406,1642.4,506.9406" style="stroke: #000000; stroke-width: 0.8;"/><text fill="#000000" font-family="sans-serif" font-size="10.4" lengthAdjust="spacingAndGlyphs" textLength="5.6" x="1570.7183" y="555.5203">1</text><text fill="#000000" font-family="sans-serif" font-size="10.4" lengthAdjust="spacingAndGlyphs" textLength="5.6" x="1663.0476" y="518.4134">1</text><!--MD5=[5dcb98e97564e4a4002da6305cf8f575]
link Receipt to Writer--><path d="M1738.712,253.856 C1748.544,287.8136 1771.936,368.772 1791.2,436.8 C1834.144,588.4576 1884.816,771.3584 1901.976,833.4056 " fill="none" id="Receipt-Writer" style="stroke: #A80036; stroke-width: 0.8;"/><text fill="#000000" font-family="sans-serif" font-size="10.4" lengthAdjust="spacingAndGlyphs" textLength="22.4" x="1816" y="525.1961">uses</text><polygon fill="#000000" points="1823.6,532.2813,1826,537.0813,1828.4,532.2813,1823.6,532.2813" style="stroke: #000000; stroke-width: 0.8;"/><text fill="#000000" font-family="sans-serif" font-size="10.4" lengthAdjust="spacingAndGlyphs" textLength="5.6" x="1733.8408" y="270.7787">1</text><text fill="#000000" font-family="sans-serif" font-size="10.4" lengthAdjust="spacingAndGlyphs" textLength="5.6" x="1894.1505" y="824.9294">1</text><!--MD5=[ad727a44f80116fd1419c64687858a87]
@startuml
skinparam classAttributeIconSize 0
hide methods
left to right direction

class Platform{
}
class Freelancer {
  -String freeID
  -String name
  -String levelExp
  -String email
  -String nif
  -String iban
  -String country
}

class Organization {
  -String nome
  -String email
  -String nif
}

class Collaborator{
  -String nome
  -String email
}

class Task {
  -String idT
  -String description
  -Time timeDuration
  -double costHour
  -String taskCategory
  -Boolean isPayed
}

class Manager {
  -String nome
  -String email
}

class User {
}

class Receipt {
}

class Transaction {

}

class Address{
  -String street
  -String doorNumber
  -String city
}

class Administrator {
}

class Payment{
  -Time timeToPay
  -Data dateToPay
  -int nrDays
}

class Reader {
  -String fileName
}

class HistoricalTransaction{
}

class TaskExecution{
  -Data endDate
  -double delay
  -String descriptionOfQuality
  }

class Writer{
  -String fileName
  }

Freelancer "1" - - "1" Transaction: receive >
Freelancer "1" - - "1" Receipt: receives > 
Freelancer "1" - - "1" Payment: receives >
Freelancer "1" - - "1" Address: has >
Freelancer "1" - - "1" Writer: receives email from >

Task "1..*" - - "1" Freelancer: made by >


Platform "1" - - "1..*" Transaction: has >
Platform "1" - - "1" Administrator: has >
Platform "1" - - "1..*" Organization: has registered >
Platform "1" - - "1..*" Freelancer: has >
Platform "1" - - "1" Freelancer: sends email to >
Platform "1" - - "1" Collaborator: sends email to >
Platform "1" - - "1" Manager: sends email to >
Platform "1" - - "1" Writer : sends emails from >

Organization "1" - - "1" Address: has >
Organization "1" - - "1" Manager: has >
Organization "1" - - "1" Collaborator: has >
Organization "1" - - "1..*" Task: has >

Manager "1" - - "1" User: acts as >
Manager "1" - - "1" Payment: defines >
Manager "1" - - "1" Writer: receives email from >

Administrator "1" - - "1" Organization: registers >
Administrator "1" - - "1" User: acts as >
Administrator "1" - - "1" Collaborator: registers >
Administrator "1" - - "1" Manager: registers >
Administrator "1" - - "1" Writer: receives email from >

Transaction "1" - - "1" Payment: results in >
Transaction "1" - - "1" Task: has >
Transaction "1" - - "1" TaskExecution: has >


Payment "1" - - "1" Receipt: generate >


Reader "1" - - "1..*" HistoricalTransaction: originates >

HistoricalTransaction "1" - - "1..*" Transaction: has >
HistoricalTransaction "1" - - "1..*" Freelancer: has >

Collaborator "1" - - "1" Freelancer: creates >
Collaborator "1" - - "1..*" Task: creates >
Collaborator "1" - - "1..*" Transaction: creates >
Collaborator "1" - - "1" User: acts as >
Collaborator "1" - - "1" HistoricalTransaction: loads >
Collaborator "1" - - "1" TaskExecution: introduces >
Collaborator "1" - - "1" Writer: receives email from >


TaskExecution "1" - - "1" Freelancer: related to the work of

Task "1" - - "1" TaskExecution : originates >

Receipt "1" - - "1" Writer : uses >




@enduml

PlantUML version 1.2020.09(Sun May 10 11:51:06 BST 2020)
(GPL source distribution)
Java Runtime: OpenJDK Runtime Environment
JVM: OpenJDK 64-Bit Server VM
Java Version: 11.0.6+8-b765.40
Operating System: Windows 10
Default Encoding: Cp1252
Language: pt
Country: PT
--></g></svg>