<?xml version="1.0" encoding="UTF-8" standalone="no"?><svg xmlns="http://www.w3.org/2000/svg" xmlns:xlink="http://www.w3.org/1999/xlink" contentScriptType="application/ecmascript" contentStyleType="text/css" height="821px" preserveAspectRatio="none" style="width:1652px;height:821px;" version="1.1" viewBox="0 0 1652 821" width="1652px" zoomAndPan="magnify"><defs><filter height="300%" id="f3ez4r2b7xo6z" width="300%" x="-1" y="-1"><feGaussianBlur result="blurOut" stdDeviation="2.0"/><feColorMatrix in="blurOut" result="blurOut2" type="matrix" values="0 0 0 0 0 0 0 0 0 0 0 0 0 0 0 0 0 0 .4 0"/><feOffset dx="4.0" dy="4.0" in="blurOut2" result="blurOut3"/><feBlend in="SourceGraphic" in2="blurOut3" mode="normal"/></filter></defs><g><!--MD5=[99b8db98afdc2c8404e39242ef4c1e65]
class Platform--><rect fill="#FEFECE" filter="url(#f3ez4r2b7xo6z)" height="40" id="Platform" style="stroke: #A80036; stroke-width: 1.5;" width="84" x="6" y="416.4411"/><ellipse cx="21" cy="432.4411" fill="#ADD1B2" rx="11" ry="11" style="stroke: #A80036; stroke-width: 1.0;"/><path d="M23.9688,438.0817 Q23.3906,438.3786 22.75,438.527 Q22.1094,438.6755 21.4063,438.6755 Q18.9063,438.6755 17.5859,437.027 Q16.2656,435.3786 16.2656,432.2536 Q16.2656,429.1286 17.5859,427.4724 Q18.9063,425.8161 21.4063,425.8161 Q22.1094,425.8161 22.7578,425.9724 Q23.4063,426.1286 23.9688,426.4255 L23.9688,429.1442 Q23.3438,428.5661 22.75,428.2927 Q22.1563,428.0192 21.5313,428.0192 Q20.1875,428.0192 19.5,429.0895 Q18.8125,430.1599 18.8125,432.2536 Q18.8125,434.3474 19.5,435.4177 Q20.1875,436.488 21.5313,436.488 Q22.1563,436.488 22.75,436.2145 Q23.3438,435.9411 23.9688,435.363 L23.9688,438.0817 Z "/><text fill="#000000" font-family="sans-serif" font-size="12" lengthAdjust="spacingAndGlyphs" textLength="52" x="35" y="436.5954">Platform</text><line style="stroke: #A80036; stroke-width: 1.5;" x1="7" x2="89" y1="448.4411" y2="448.4411"/><!--MD5=[1f687b5315377fe49fca59b457947463]
class Freelancer--><rect fill="#FEFECE" filter="url(#f3ez4r2b7xo6z)" height="129.6328" id="Freelancer" style="stroke: #A80036; stroke-width: 1.5;" width="133" x="712" y="228.4411"/><ellipse cx="742.3" cy="244.4411" fill="#ADD1B2" rx="11" ry="11" style="stroke: #A80036; stroke-width: 1.0;"/><path d="M745.2688,250.0817 Q744.6906,250.3786 744.05,250.527 Q743.4094,250.6755 742.7063,250.6755 Q740.2063,250.6755 738.8859,249.027 Q737.5656,247.3786 737.5656,244.2536 Q737.5656,241.1286 738.8859,239.4724 Q740.2063,237.8161 742.7063,237.8161 Q743.4094,237.8161 744.0578,237.9724 Q744.7063,238.1286 745.2688,238.4255 L745.2688,241.1442 Q744.6438,240.5661 744.05,240.2927 Q743.4563,240.0192 742.8313,240.0192 Q741.4875,240.0192 740.8,241.0895 Q740.1125,242.1599 740.1125,244.2536 Q740.1125,246.3474 740.8,247.4177 Q741.4875,248.488 742.8313,248.488 Q743.4563,248.488 744.05,248.2145 Q744.6438,247.9411 745.2688,247.363 L745.2688,250.0817 Z "/><text fill="#000000" font-family="sans-serif" font-size="12" lengthAdjust="spacingAndGlyphs" textLength="67" x="759.7" y="248.5954">Freelancer</text><line style="stroke: #A80036; stroke-width: 1.5;" x1="713" x2="844" y1="260.4411" y2="260.4411"/><text fill="#000000" font-family="sans-serif" font-size="11" lengthAdjust="spacingAndGlyphs" textLength="58" x="718" y="274.6515">-String idF</text><text fill="#000000" font-family="sans-serif" font-size="11" lengthAdjust="spacingAndGlyphs" textLength="74" x="718" y="287.4562">-String name</text><text fill="#000000" font-family="sans-serif" font-size="11" lengthAdjust="spacingAndGlyphs" textLength="121" x="718" y="300.2609">-String levelExpertise</text><text fill="#000000" font-family="sans-serif" font-size="11" lengthAdjust="spacingAndGlyphs" textLength="73" x="718" y="313.0656">-String email</text><text fill="#000000" font-family="sans-serif" font-size="11" lengthAdjust="spacingAndGlyphs" textLength="56" x="718" y="325.8703">-String nif</text><text fill="#000000" font-family="sans-serif" font-size="11" lengthAdjust="spacingAndGlyphs" textLength="110" x="718" y="338.675">-String ibanAccount</text><text fill="#000000" font-family="sans-serif" font-size="11" lengthAdjust="spacingAndGlyphs" textLength="77" x="718" y="351.4797">-String coutry</text><!--MD5=[86c7c362de55a38b660185a1328fe18d]
class Organization--><rect fill="#FEFECE" filter="url(#f3ez4r2b7xo6z)" height="78.4141" id="Organization" style="stroke: #A80036; stroke-width: 1.5;" width="110" x="435" y="507.4411"/><ellipse cx="450" cy="523.4411" fill="#ADD1B2" rx="11" ry="11" style="stroke: #A80036; stroke-width: 1.0;"/><path d="M452.9688,529.0817 Q452.3906,529.3786 451.75,529.527 Q451.1094,529.6755 450.4063,529.6755 Q447.9063,529.6755 446.5859,528.027 Q445.2656,526.3786 445.2656,523.2536 Q445.2656,520.1286 446.5859,518.4724 Q447.9063,516.8161 450.4063,516.8161 Q451.1094,516.8161 451.7578,516.9724 Q452.4063,517.1286 452.9688,517.4255 L452.9688,520.1442 Q452.3438,519.5661 451.75,519.2927 Q451.1563,519.0192 450.5313,519.0192 Q449.1875,519.0192 448.5,520.0895 Q447.8125,521.1599 447.8125,523.2536 Q447.8125,525.3474 448.5,526.4177 Q449.1875,527.488 450.5313,527.488 Q451.1563,527.488 451.75,527.2145 Q452.3438,526.9411 452.9688,526.363 L452.9688,529.0817 Z "/><text fill="#000000" font-family="sans-serif" font-size="12" lengthAdjust="spacingAndGlyphs" textLength="78" x="464" y="527.5954">Organization</text><line style="stroke: #A80036; stroke-width: 1.5;" x1="436" x2="544" y1="539.4411" y2="539.4411"/><text fill="#000000" font-family="sans-serif" font-size="11" lengthAdjust="spacingAndGlyphs" textLength="74" x="441" y="553.6515">-String nome</text><text fill="#000000" font-family="sans-serif" font-size="11" lengthAdjust="spacingAndGlyphs" textLength="73" x="441" y="566.4562">-String email</text><text fill="#000000" font-family="sans-serif" font-size="11" lengthAdjust="spacingAndGlyphs" textLength="56" x="441" y="579.2609">-String nif</text><!--MD5=[f483d6e5de34a60207b28a5563be5e8b]
class Collaborator--><rect fill="#FEFECE" filter="url(#f3ez4r2b7xo6z)" height="65.6094" id="Collaborator" style="stroke: #A80036; stroke-width: 1.5;" width="109" x="724" y="576.4411"/><ellipse cx="739" cy="592.4411" fill="#ADD1B2" rx="11" ry="11" style="stroke: #A80036; stroke-width: 1.0;"/><path d="M741.9688,598.0817 Q741.3906,598.3786 740.75,598.527 Q740.1094,598.6755 739.4063,598.6755 Q736.9063,598.6755 735.5859,597.027 Q734.2656,595.3786 734.2656,592.2536 Q734.2656,589.1286 735.5859,587.4724 Q736.9063,585.8161 739.4063,585.8161 Q740.1094,585.8161 740.7578,585.9724 Q741.4063,586.1286 741.9688,586.4255 L741.9688,589.1442 Q741.3438,588.5661 740.75,588.2927 Q740.1563,588.0192 739.5313,588.0192 Q738.1875,588.0192 737.5,589.0895 Q736.8125,590.1599 736.8125,592.2536 Q736.8125,594.3474 737.5,595.4177 Q738.1875,596.488 739.5313,596.488 Q740.1563,596.488 740.75,596.2145 Q741.3438,595.9411 741.9688,595.363 L741.9688,598.0817 Z "/><text fill="#000000" font-family="sans-serif" font-size="12" lengthAdjust="spacingAndGlyphs" textLength="77" x="753" y="596.5954">Collaborator</text><line style="stroke: #A80036; stroke-width: 1.5;" x1="725" x2="832" y1="608.4411" y2="608.4411"/><text fill="#000000" font-family="sans-serif" font-size="11" lengthAdjust="spacingAndGlyphs" textLength="74" x="730" y="622.6515">-String nome</text><text fill="#000000" font-family="sans-serif" font-size="11" lengthAdjust="spacingAndGlyphs" textLength="73" x="730" y="635.4562">-String email</text><!--MD5=[b34797a66dc35cbf1d65f7e3ca75530e]
class Task--><rect fill="#FEFECE" filter="url(#f3ez4r2b7xo6z)" height="104.0234" id="Task" style="stroke: #A80036; stroke-width: 1.5;" width="129" x="1270" y="149.4411"/><ellipse cx="1315.75" cy="165.4411" fill="#ADD1B2" rx="11" ry="11" style="stroke: #A80036; stroke-width: 1.0;"/><path d="M1318.7188,171.0817 Q1318.1406,171.3786 1317.5,171.527 Q1316.8594,171.6755 1316.1563,171.6755 Q1313.6563,171.6755 1312.3359,170.027 Q1311.0156,168.3786 1311.0156,165.2536 Q1311.0156,162.1286 1312.3359,160.4724 Q1313.6563,158.8161 1316.1563,158.8161 Q1316.8594,158.8161 1317.5078,158.9724 Q1318.1563,159.1286 1318.7188,159.4255 L1318.7188,162.1442 Q1318.0938,161.5661 1317.5,161.2927 Q1316.9063,161.0192 1316.2813,161.0192 Q1314.9375,161.0192 1314.25,162.0895 Q1313.5625,163.1599 1313.5625,165.2536 Q1313.5625,167.3474 1314.25,168.4177 Q1314.9375,169.488 1316.2813,169.488 Q1316.9063,169.488 1317.5,169.2145 Q1318.0938,168.9411 1318.7188,168.363 L1318.7188,171.0817 Z "/><text fill="#000000" font-family="sans-serif" font-size="12" lengthAdjust="spacingAndGlyphs" textLength="29" x="1336.25" y="169.5954">Task</text><line style="stroke: #A80036; stroke-width: 1.5;" x1="1271" x2="1398" y1="181.4411" y2="181.4411"/><text fill="#000000" font-family="sans-serif" font-size="11" lengthAdjust="spacingAndGlyphs" textLength="59" x="1276" y="195.6515">-String idT</text><text fill="#000000" font-family="sans-serif" font-size="11" lengthAdjust="spacingAndGlyphs" textLength="105" x="1276" y="208.4562">-String description</text><text fill="#000000" font-family="sans-serif" font-size="11" lengthAdjust="spacingAndGlyphs" textLength="109" x="1276" y="221.2609">-Time timeDuration</text><text fill="#000000" font-family="sans-serif" font-size="11" lengthAdjust="spacingAndGlyphs" textLength="97" x="1276" y="234.0656">-double costHour</text><text fill="#000000" font-family="sans-serif" font-size="11" lengthAdjust="spacingAndGlyphs" textLength="117" x="1276" y="246.8703">-String taskCategory</text><!--MD5=[b24ed8d4ae84bae9290d9aab401637c7]
class Manager--><rect fill="#FEFECE" filter="url(#f3ez4r2b7xo6z)" height="65.6094" id="Manager" style="stroke: #A80036; stroke-width: 1.5;" width="87" x="735" y="677.4411"/><ellipse cx="750" cy="693.4411" fill="#ADD1B2" rx="11" ry="11" style="stroke: #A80036; stroke-width: 1.0;"/><path d="M752.9688,699.0817 Q752.3906,699.3786 751.75,699.527 Q751.1094,699.6755 750.4063,699.6755 Q747.9063,699.6755 746.5859,698.027 Q745.2656,696.3786 745.2656,693.2536 Q745.2656,690.1286 746.5859,688.4724 Q747.9063,686.8161 750.4063,686.8161 Q751.1094,686.8161 751.7578,686.9724 Q752.4063,687.1286 752.9688,687.4255 L752.9688,690.1442 Q752.3438,689.5661 751.75,689.2927 Q751.1563,689.0192 750.5313,689.0192 Q749.1875,689.0192 748.5,690.0895 Q747.8125,691.1599 747.8125,693.2536 Q747.8125,695.3474 748.5,696.4177 Q749.1875,697.488 750.5313,697.488 Q751.1563,697.488 751.75,697.2145 Q752.3438,696.9411 752.9688,696.363 L752.9688,699.0817 Z "/><text fill="#000000" font-family="sans-serif" font-size="12" lengthAdjust="spacingAndGlyphs" textLength="55" x="764" y="697.5954">Manager</text><line style="stroke: #A80036; stroke-width: 1.5;" x1="736" x2="821" y1="709.4411" y2="709.4411"/><text fill="#000000" font-family="sans-serif" font-size="11" lengthAdjust="spacingAndGlyphs" textLength="74" x="741" y="723.6515">-String nome</text><text fill="#000000" font-family="sans-serif" font-size="11" lengthAdjust="spacingAndGlyphs" textLength="73" x="741" y="736.4562">-String email</text><!--MD5=[3fd616f346a44cd59a91eb10b19e157c]
class User--><rect fill="#FEFECE" filter="url(#f3ez4r2b7xo6z)" height="40" id="User" style="stroke: #A80036; stroke-width: 1.5;" width="61" x="1022" y="639.4411"/><ellipse cx="1037" cy="655.4411" fill="#ADD1B2" rx="11" ry="11" style="stroke: #A80036; stroke-width: 1.0;"/><path d="M1039.9688,661.0817 Q1039.3906,661.3786 1038.75,661.527 Q1038.1094,661.6755 1037.4063,661.6755 Q1034.9063,661.6755 1033.5859,660.027 Q1032.2656,658.3786 1032.2656,655.2536 Q1032.2656,652.1286 1033.5859,650.4724 Q1034.9063,648.8161 1037.4063,648.8161 Q1038.1094,648.8161 1038.7578,648.9724 Q1039.4063,649.1286 1039.9688,649.4255 L1039.9688,652.1442 Q1039.3438,651.5661 1038.75,651.2927 Q1038.1563,651.0192 1037.5313,651.0192 Q1036.1875,651.0192 1035.5,652.0895 Q1034.8125,653.1599 1034.8125,655.2536 Q1034.8125,657.3474 1035.5,658.4177 Q1036.1875,659.488 1037.5313,659.488 Q1038.1563,659.488 1038.75,659.2145 Q1039.3438,658.9411 1039.9688,658.363 L1039.9688,661.0817 Z "/><text fill="#000000" font-family="sans-serif" font-size="12" lengthAdjust="spacingAndGlyphs" textLength="29" x="1051" y="659.5954">User</text><line style="stroke: #A80036; stroke-width: 1.5;" x1="1023" x2="1082" y1="671.4411" y2="671.4411"/><!--MD5=[894442645724153f40a9f7a43026dbfc]
class Invoice--><rect fill="#FEFECE" filter="url(#f3ez4r2b7xo6z)" height="65.6094" id="Invoice" style="stroke: #A80036; stroke-width: 1.5;" width="109" x="1532" y="169.4411"/><ellipse cx="1562.3" cy="185.4411" fill="#ADD1B2" rx="11" ry="11" style="stroke: #A80036; stroke-width: 1.0;"/><path d="M1565.2688,191.0817 Q1564.6906,191.3786 1564.05,191.527 Q1563.4094,191.6755 1562.7063,191.6755 Q1560.2063,191.6755 1558.8859,190.027 Q1557.5656,188.3786 1557.5656,185.2536 Q1557.5656,182.1286 1558.8859,180.4724 Q1560.2063,178.8161 1562.7063,178.8161 Q1563.4094,178.8161 1564.0578,178.9724 Q1564.7063,179.1286 1565.2688,179.4255 L1565.2688,182.1442 Q1564.6438,181.5661 1564.05,181.2927 Q1563.4563,181.0192 1562.8313,181.0192 Q1561.4875,181.0192 1560.8,182.0895 Q1560.1125,183.1599 1560.1125,185.2536 Q1560.1125,187.3474 1560.8,188.4177 Q1561.4875,189.488 1562.8313,189.488 Q1563.4563,189.488 1564.05,189.2145 Q1564.6438,188.9411 1565.2688,188.363 L1565.2688,191.0817 Z "/><text fill="#000000" font-family="sans-serif" font-size="12" lengthAdjust="spacingAndGlyphs" textLength="43" x="1579.7" y="189.5954">Invoice</text><line style="stroke: #A80036; stroke-width: 1.5;" x1="1533" x2="1640" y1="201.4411" y2="201.4411"/><text fill="#000000" font-family="sans-serif" font-size="11" lengthAdjust="spacingAndGlyphs" textLength="96" x="1538" y="215.6515">-double amountE</text><text fill="#000000" font-family="sans-serif" font-size="11" lengthAdjust="spacingAndGlyphs" textLength="97" x="1538" y="228.4562">-double amountC</text><!--MD5=[4555bb1b0911a5adf28ce6dbe60fed2e]
class Transaction--><rect fill="#FEFECE" filter="url(#f3ez4r2b7xo6z)" height="78.4141" id="Transaction" style="stroke: #A80036; stroke-width: 1.5;" width="169" x="968" y="436.4411"/><ellipse cx="1011.35" cy="452.4411" fill="#ADD1B2" rx="11" ry="11" style="stroke: #A80036; stroke-width: 1.0;"/><path d="M1014.3188,458.0817 Q1013.7406,458.3786 1013.1,458.527 Q1012.4594,458.6755 1011.7563,458.6755 Q1009.2563,458.6755 1007.9359,457.027 Q1006.6156,455.3786 1006.6156,452.2536 Q1006.6156,449.1286 1007.9359,447.4724 Q1009.2563,445.8161 1011.7563,445.8161 Q1012.4594,445.8161 1013.1078,445.9724 Q1013.7563,446.1286 1014.3188,446.4255 L1014.3188,449.1442 Q1013.6938,448.5661 1013.1,448.2927 Q1012.5063,448.0192 1011.8813,448.0192 Q1010.5375,448.0192 1009.85,449.0895 Q1009.1625,450.1599 1009.1625,452.2536 Q1009.1625,454.3474 1009.85,455.4177 Q1010.5375,456.488 1011.8813,456.488 Q1012.5063,456.488 1013.1,456.2145 Q1013.6938,455.9411 1014.3188,455.363 L1014.3188,458.0817 Z "/><text fill="#000000" font-family="sans-serif" font-size="12" lengthAdjust="spacingAndGlyphs" textLength="74" x="1031.65" y="456.5954">Transaction</text><line style="stroke: #A80036; stroke-width: 1.5;" x1="969" x2="1136" y1="468.4411" y2="468.4411"/><text fill="#000000" font-family="sans-serif" font-size="11" lengthAdjust="spacingAndGlyphs" textLength="81" x="974" y="482.6515">-Data endDate</text><text fill="#000000" font-family="sans-serif" font-size="11" lengthAdjust="spacingAndGlyphs" textLength="76" x="974" y="495.4562">-double delay</text><text fill="#000000" font-family="sans-serif" font-size="11" lengthAdjust="spacingAndGlyphs" textLength="157" x="974" y="508.2609">-String descriptionOfQuality</text><!--MD5=[0f39e4cb6f03951afbf6d14bd2505654]
class Address--><rect fill="#FEFECE" filter="url(#f3ez4r2b7xo6z)" height="78.4141" id="Address" style="stroke: #A80036; stroke-width: 1.5;" width="125" x="990" y="323.4411"/><ellipse cx="1023.9" cy="339.4411" fill="#ADD1B2" rx="11" ry="11" style="stroke: #A80036; stroke-width: 1.0;"/><path d="M1026.8688,345.0817 Q1026.2906,345.3786 1025.65,345.527 Q1025.0094,345.6755 1024.3063,345.6755 Q1021.8063,345.6755 1020.4859,344.027 Q1019.1656,342.3786 1019.1656,339.2536 Q1019.1656,336.1286 1020.4859,334.4724 Q1021.8063,332.8161 1024.3063,332.8161 Q1025.0094,332.8161 1025.6578,332.9724 Q1026.3063,333.1286 1026.8688,333.4255 L1026.8688,336.1442 Q1026.2438,335.5661 1025.65,335.2927 Q1025.0563,335.0192 1024.4313,335.0192 Q1023.0875,335.0192 1022.4,336.0895 Q1021.7125,337.1599 1021.7125,339.2536 Q1021.7125,341.3474 1022.4,342.4177 Q1023.0875,343.488 1024.4313,343.488 Q1025.0563,343.488 1025.65,343.2145 Q1026.2438,342.9411 1026.8688,342.363 L1026.8688,345.0817 Z "/><text fill="#000000" font-family="sans-serif" font-size="12" lengthAdjust="spacingAndGlyphs" textLength="51" x="1042.1" y="343.5954">Address</text><line style="stroke: #A80036; stroke-width: 1.5;" x1="991" x2="1114" y1="355.4411" y2="355.4411"/><text fill="#000000" font-family="sans-serif" font-size="11" lengthAdjust="spacingAndGlyphs" textLength="76" x="996" y="369.6515">-String street</text><text fill="#000000" font-family="sans-serif" font-size="11" lengthAdjust="spacingAndGlyphs" textLength="113" x="996" y="382.4562">-String doorNumber</text><text fill="#000000" font-family="sans-serif" font-size="11" lengthAdjust="spacingAndGlyphs" textLength="61" x="996" y="395.2609">-String city</text><!--MD5=[da547346deef918ea16944ba046651ef]
class Administrator--><rect fill="#FEFECE" filter="url(#f3ez4r2b7xo6z)" height="40" id="Administrator" style="stroke: #A80036; stroke-width: 1.5;" width="116" x="188" y="629.4411"/><ellipse cx="203" cy="645.4411" fill="#ADD1B2" rx="11" ry="11" style="stroke: #A80036; stroke-width: 1.0;"/><path d="M205.9688,651.0817 Q205.3906,651.3786 204.75,651.527 Q204.1094,651.6755 203.4063,651.6755 Q200.9063,651.6755 199.5859,650.027 Q198.2656,648.3786 198.2656,645.2536 Q198.2656,642.1286 199.5859,640.4724 Q200.9063,638.8161 203.4063,638.8161 Q204.1094,638.8161 204.7578,638.9724 Q205.4063,639.1286 205.9688,639.4255 L205.9688,642.1442 Q205.3438,641.5661 204.75,641.2927 Q204.1563,641.0192 203.5313,641.0192 Q202.1875,641.0192 201.5,642.0895 Q200.8125,643.1599 200.8125,645.2536 Q200.8125,647.3474 201.5,648.4177 Q202.1875,649.488 203.5313,649.488 Q204.1563,649.488 204.75,649.2145 Q205.3438,648.9411 205.9688,648.363 L205.9688,651.0817 Z "/><text fill="#000000" font-family="sans-serif" font-size="12" lengthAdjust="spacingAndGlyphs" textLength="84" x="217" y="649.5954">Administrator</text><line style="stroke: #A80036; stroke-width: 1.5;" x1="189" x2="303" y1="661.4411" y2="661.4411"/><!--MD5=[764fca796ce7f635542948d8fc39db5e]
class Payment--><rect fill="#FEFECE" filter="url(#f3ez4r2b7xo6z)" height="40" id="Payment" style="stroke: #A80036; stroke-width: 1.5;" width="86" x="1291.5" y="288.4411"/><ellipse cx="1306.5" cy="304.4411" fill="#ADD1B2" rx="11" ry="11" style="stroke: #A80036; stroke-width: 1.0;"/><path d="M1309.4688,310.0817 Q1308.8906,310.3786 1308.25,310.527 Q1307.6094,310.6755 1306.9063,310.6755 Q1304.4063,310.6755 1303.0859,309.027 Q1301.7656,307.3786 1301.7656,304.2536 Q1301.7656,301.1286 1303.0859,299.4724 Q1304.4063,297.8161 1306.9063,297.8161 Q1307.6094,297.8161 1308.2578,297.9724 Q1308.9063,298.1286 1309.4688,298.4255 L1309.4688,301.1442 Q1308.8438,300.5661 1308.25,300.2927 Q1307.6563,300.0192 1307.0313,300.0192 Q1305.6875,300.0192 1305,301.0895 Q1304.3125,302.1599 1304.3125,304.2536 Q1304.3125,306.3474 1305,307.4177 Q1305.6875,308.488 1307.0313,308.488 Q1307.6563,308.488 1308.25,308.2145 Q1308.8438,307.9411 1309.4688,307.363 L1309.4688,310.0817 Z "/><text fill="#000000" font-family="sans-serif" font-size="12" lengthAdjust="spacingAndGlyphs" textLength="54" x="1320.5" y="308.5954">Payment</text><line style="stroke: #A80036; stroke-width: 1.5;" x1="1292.5" x2="1376.5" y1="320.4411" y2="320.4411"/><!--MD5=[83bb469d45366b675450ee1d8d93a557]
link Freelancer to Transaction--><path d="M845.0956,339.0429 C855.0056,345.408 865.1874,351.7207 875,357.4411 C902.1314,373.2575 912.4258,371.2138 938,389.4411 C953.1015,400.2042 953.5913,406.7667 968,418.4411 C975.4246,424.4567 983.4767,430.4706 991.5613,436.216 " fill="none" id="Freelancer-Transaction" style="stroke: #A80036; stroke-width: 1.0;"/><text fill="#000000" font-family="sans-serif" font-size="13" lengthAdjust="spacingAndGlyphs" textLength="46" x="877" y="353.508">receive</text><polygon fill="#000000" points="926,347.5075,932,350.5075,926,353.5075,926,347.5075" style="stroke: #000000; stroke-width: 1.0;"/><text fill="#000000" font-family="sans-serif" font-size="13" lengthAdjust="spacingAndGlyphs" textLength="8" x="852.817" y="356.9451">1</text><text fill="#000000" font-family="sans-serif" font-size="13" lengthAdjust="spacingAndGlyphs" textLength="8" x="972.8058" y="425.5208">1</text><!--MD5=[3781be57b219e856d6dd67e0b949b069]
link Platform to Transaction--><path d="M90.1013,436.4411 C130.1844,436.4411 192.2031,436.4411 246,436.4411 C246,436.4411 246,436.4411 628.5,436.4411 C746.5902,436.4411 882.4061,451.6279 967.8403,463.0476 " fill="none" id="Platform-Transaction" style="stroke: #A80036; stroke-width: 1.0;"/><text fill="#000000" font-family="sans-serif" font-size="13" lengthAdjust="spacingAndGlyphs" textLength="23" x="472" y="432.508">has</text><polygon fill="#000000" points="498,426.5075,504,429.5075,498,432.5075,498,426.5075" style="stroke: #000000; stroke-width: 1.0;"/><text fill="#000000" font-family="sans-serif" font-size="13" lengthAdjust="spacingAndGlyphs" textLength="8" x="98.025" y="449.8085">1</text><text fill="#000000" font-family="sans-serif" font-size="13" lengthAdjust="spacingAndGlyphs" textLength="23" x="936.8771" y="474.6976">1..*</text><!--MD5=[8853e9d83a8841c20c4ef075af762602]
link Task to Freelancer--><path d="M1269.7311,201.6068 C1179.6392,203.3143 1012.1147,211.8686 875,249.4411 C865.1442,252.1418 855.0263,255.7395 845.223,259.7184 " fill="none" id="Task-Freelancer" style="stroke: #A80036; stroke-width: 1.0;"/><polygon fill="#000000" points="1025,198.5075,1019,201.5075,1025,204.5075,1025,198.5075" style="stroke: #000000; stroke-width: 1.0;"/><text fill="#000000" font-family="sans-serif" font-size="13" lengthAdjust="spacingAndGlyphs" textLength="56" x="1031" y="204.508">made by</text><text fill="#000000" font-family="sans-serif" font-size="13" lengthAdjust="spacingAndGlyphs" textLength="23" x="1238.8659" y="214.4699">1..*</text><text fill="#000000" font-family="sans-serif" font-size="13" lengthAdjust="spacingAndGlyphs" textLength="8" x="852.9583" y="268.9445">1</text><!--MD5=[874150c88719dac3f651931978d26083]
link Freelancer to Address--><path d="M845.3001,309.5157 C873.8788,316.4599 907.6022,324.743 938,332.4411 C954.8329,336.7039 973.0284,341.4211 989.853,345.8284 " fill="none" id="Freelancer-Address" style="stroke: #A80036; stroke-width: 1.0;"/><text fill="#000000" font-family="sans-serif" font-size="13" lengthAdjust="spacingAndGlyphs" textLength="23" x="888.5" y="313.508">has</text><polygon fill="#000000" points="914.5,307.5075,920.5,310.5075,914.5,313.5075,914.5,307.5075" style="stroke: #000000; stroke-width: 1.0;"/><text fill="#000000" font-family="sans-serif" font-size="13" lengthAdjust="spacingAndGlyphs" textLength="8" x="853.0439" y="324.1884">1</text><text fill="#000000" font-family="sans-serif" font-size="13" lengthAdjust="spacingAndGlyphs" textLength="8" x="974.1469" y="356.8254">1</text><!--MD5=[0f7004bed4496639b3a5258ab2ead378]
link Platform to Administrator--><path d="M56.43,456.621 C68.0079,482.6823 90.763,528.4819 120,560.4411 C145.9409,588.7973 182.3904,613.3284 209.4165,629.4129 " fill="none" id="Platform-Administrator" style="stroke: #A80036; stroke-width: 1.0;"/><text fill="#000000" font-family="sans-serif" font-size="13" lengthAdjust="spacingAndGlyphs" textLength="23" x="121" y="556.508">has</text><polygon fill="#000000" points="128,565.5739,131,571.5739,134,565.5739,128,565.5739" style="stroke: #000000; stroke-width: 1.0;"/><text fill="#000000" font-family="sans-serif" font-size="13" lengthAdjust="spacingAndGlyphs" textLength="8" x="49.6759" y="476.4915">1</text><text fill="#000000" font-family="sans-serif" font-size="13" lengthAdjust="spacingAndGlyphs" textLength="8" x="189.4951" y="618.4129">1</text><!--MD5=[7640e466c042ba2d6f9c19c816f7f0fc]
link Platform to Organization--><path d="M90.0193,452.4247 C99.7969,455.9178 110.211,459.4584 120,462.4411 C229.9537,495.9434 361.9241,522.8019 434.8081,536.5076 " fill="none" id="Platform-Organization" style="stroke: #A80036; stroke-width: 1.0;"/><text fill="#000000" font-family="sans-serif" font-size="13" lengthAdjust="spacingAndGlyphs" textLength="92" x="193.5" y="479.508">has registered</text><polygon fill="#000000" points="288.5,473.5075,294.5,476.5075,288.5,479.5075,288.5,473.5075" style="stroke: #000000; stroke-width: 1.0;"/><text fill="#000000" font-family="sans-serif" font-size="13" lengthAdjust="spacingAndGlyphs" textLength="8" x="97.9289" y="468.5393">1</text><text fill="#000000" font-family="sans-serif" font-size="13" lengthAdjust="spacingAndGlyphs" textLength="23" x="404.0968" y="548.2769">1..*</text><!--MD5=[22697d4d863c2e08ab1d60ca0d61f844]
link Platform to Freelancer--><path d="M90.2582,419.8234 C99.9323,416.4004 110.2421,413.0493 120,410.4411 C332.8525,353.5464 591.9435,316.7146 711.7883,301.4616 " fill="none" id="Platform-Freelancer" style="stroke: #A80036; stroke-width: 1.0;"/><text fill="#000000" font-family="sans-serif" font-size="13" lengthAdjust="spacingAndGlyphs" textLength="23" x="351.5" y="345.508">has</text><polygon fill="#000000" points="377.5,339.5075,383.5,342.5075,377.5,345.5075,377.5,339.5075" style="stroke: #000000; stroke-width: 1.0;"/><text fill="#000000" font-family="sans-serif" font-size="13" lengthAdjust="spacingAndGlyphs" textLength="8" x="97.9197" y="430.3912">1</text><text fill="#000000" font-family="sans-serif" font-size="13" lengthAdjust="spacingAndGlyphs" textLength="23" x="681.0893" y="315.0809">1..*</text><!--MD5=[ec97d39b7e7a4ec2b79aa9dbbb3f5070]
link Organization to Address--><path d="M545.2874,540.2255 C661.6332,526.9499 922.383,496.0891 938,484.4411 C963.8284,465.1768 947.0929,442.9588 968,418.4411 C974.2807,411.0757 981.7629,404.2904 989.6406,398.1757 " fill="none" id="Organization-Address" style="stroke: #A80036; stroke-width: 1.0;"/><text fill="#000000" font-family="sans-serif" font-size="13" lengthAdjust="spacingAndGlyphs" textLength="23" x="760.5" y="499.508">has</text><polygon fill="#000000" points="786.5,493.5075,792.5,496.5075,786.5,499.5075,786.5,493.5075" style="stroke: #000000; stroke-width: 1.0;"/><text fill="#000000" font-family="sans-serif" font-size="13" lengthAdjust="spacingAndGlyphs" textLength="8" x="552.8836" y="552.4389">1</text><text fill="#000000" font-family="sans-serif" font-size="13" lengthAdjust="spacingAndGlyphs" textLength="8" x="973.91" y="415.2253">1</text><!--MD5=[65ab54bb4516ebbc699d18e0b28e9aea]
link Freelancer to User--><path d="M827.17,358.4528 C890.5284,443.0848 997.8255,586.4087 1037.3215,639.1661 " fill="none" id="Freelancer-User" style="stroke: #A80036; stroke-width: 1.0;"/><text fill="#000000" font-family="sans-serif" font-size="13" lengthAdjust="spacingAndGlyphs" textLength="46" x="877" y="429.508">acts as</text><polygon fill="#000000" points="895.5,438.5739,898.5,444.5739,901.5,438.5739,895.5,438.5739" style="stroke: #000000; stroke-width: 1.0;"/><text fill="#000000" font-family="sans-serif" font-size="13" lengthAdjust="spacingAndGlyphs" textLength="8" x="823.7766" y="378.0232">1</text><text fill="#000000" font-family="sans-serif" font-size="13" lengthAdjust="spacingAndGlyphs" textLength="8" x="1023.9275" y="628.44">1</text><!--MD5=[bc039f41cf0b27fadee5cae63fc6e1fe]
link Organization to Manager--><path d="M538.7824,585.6308 C550.3637,594.2363 562.8819,602.9937 575,610.4411 C627.822,642.9038 692.6757,673.2735 734.7625,691.838 " fill="none" id="Organization-Manager" style="stroke: #A80036; stroke-width: 1.0;"/><text fill="#000000" font-family="sans-serif" font-size="13" lengthAdjust="spacingAndGlyphs" textLength="23" x="610.5" y="606.508">has</text><polygon fill="#000000" points="636.5,600.5075,642.5,603.5075,636.5,606.5075,636.5,600.5075" style="stroke: #000000; stroke-width: 1.0;"/><text fill="#000000" font-family="sans-serif" font-size="13" lengthAdjust="spacingAndGlyphs" textLength="8" x="538.7593" y="605.9892">1</text><text fill="#000000" font-family="sans-serif" font-size="13" lengthAdjust="spacingAndGlyphs" textLength="8" x="718.856" y="702.1093">1</text><!--MD5=[45817597bcd7048073a670d966abfd17]
link Organization to Collaborator--><path d="M545.172,556.9893 C583.619,564.5008 636.0475,575.0648 682,585.4411 C695.6403,588.5211 710.3097,592.0547 723.9915,595.4466 " fill="none" id="Organization-Collaborator" style="stroke: #A80036; stroke-width: 1.0;"/><text fill="#000000" font-family="sans-serif" font-size="13" lengthAdjust="spacingAndGlyphs" textLength="23" x="610.5" y="558.508">has</text><polygon fill="#000000" points="636.5,552.5075,642.5,555.5075,636.5,558.5075,636.5,552.5075" style="stroke: #000000; stroke-width: 1.0;"/><text fill="#000000" font-family="sans-serif" font-size="13" lengthAdjust="spacingAndGlyphs" textLength="8" x="553.1232" y="571.4625">1</text><text fill="#000000" font-family="sans-serif" font-size="13" lengthAdjust="spacingAndGlyphs" textLength="8" x="708.1294" y="606.676">1</text><!--MD5=[04ce0ecdab38a3951889ff50c232570f]
link Collaborator to User--><path d="M833.2895,619.4391 C889.8238,629.7556 975.9969,645.4806 1021.6366,653.8091 " fill="none" id="Collaborator-User" style="stroke: #A80036; stroke-width: 1.0;"/><text fill="#000000" font-family="sans-serif" font-size="13" lengthAdjust="spacingAndGlyphs" textLength="46" x="877" y="624.508">acts as</text><polygon fill="#000000" points="926,618.5075,932,621.5075,926,624.5075,926,618.5075" style="stroke: #000000; stroke-width: 1.0;"/><text fill="#000000" font-family="sans-serif" font-size="13" lengthAdjust="spacingAndGlyphs" textLength="8" x="840.8219" y="633.7815">1</text><text fill="#000000" font-family="sans-serif" font-size="13" lengthAdjust="spacingAndGlyphs" textLength="8" x="1006.0102" y="666.2991">1</text><!--MD5=[6eb6e197a729f6ec2412743e0bdbca1d]
link Manager to User--><path d="M822.2191,702.3036 C877.971,691.9264 972.9727,674.2436 1021.691,665.1756 " fill="none" id="Manager-User" style="stroke: #A80036; stroke-width: 1.0;"/><text fill="#000000" font-family="sans-serif" font-size="13" lengthAdjust="spacingAndGlyphs" textLength="46" x="877" y="677.508">acts as</text><polygon fill="#000000" points="926,671.5075,932,674.5075,926,677.5075,926,671.5075" style="stroke: #000000; stroke-width: 1.0;"/><text fill="#000000" font-family="sans-serif" font-size="13" lengthAdjust="spacingAndGlyphs" textLength="8" x="830.1226" y="714.3083">1</text><text fill="#000000" font-family="sans-serif" font-size="13" lengthAdjust="spacingAndGlyphs" textLength="8" x="1006.0765" y="680.1521">1</text><!--MD5=[2a41c1af413c0662bf55a6b8913ea24f]
link Administrator to Organization--><path d="M293.6249,629.3371 C334.1219,612.2421 392.2993,587.6836 434.8184,569.7349 " fill="none" id="Administrator-Organization" style="stroke: #A80036; stroke-width: 1.0;"/><text fill="#000000" font-family="sans-serif" font-size="13" lengthAdjust="spacingAndGlyphs" textLength="56" x="335" y="578.508">registers</text><polygon fill="#000000" points="394,572.5075,400,575.5075,394,578.5075,394,572.5075" style="stroke: #000000; stroke-width: 1.0;"/><text fill="#000000" font-family="sans-serif" font-size="13" lengthAdjust="spacingAndGlyphs" textLength="8" x="298.4397" y="618.3148">1</text><text fill="#000000" font-family="sans-serif" font-size="13" lengthAdjust="spacingAndGlyphs" textLength="8" x="418.8659" y="585.9208">1</text><!--MD5=[edc107c0a572352bcd12c9afaba4390b]
link Administrator to User--><path d="M288.7519,669.5603 C387.3603,713.3282 638.1335,809.537 845,761.4411 C912.8361,745.6694 984.0322,704.4247 1022.8752,679.4792 " fill="none" id="Administrator-User" style="stroke: #A80036; stroke-width: 1.0;"/><text fill="#000000" font-family="sans-serif" font-size="13" lengthAdjust="spacingAndGlyphs" textLength="46" x="599" y="756.508">acts as</text><polygon fill="#000000" points="648,750.5075,654,753.5075,648,756.5075,648,750.5075" style="stroke: #000000; stroke-width: 1.0;"/><text fill="#000000" font-family="sans-serif" font-size="13" lengthAdjust="spacingAndGlyphs" textLength="8" x="291.6509" y="689.4138">1</text><text fill="#000000" font-family="sans-serif" font-size="13" lengthAdjust="spacingAndGlyphs" textLength="8" x="1005.8385" y="698.9648">1</text><!--MD5=[ee25a9e267be641cadbaef6c1594e19f]
link Transaction to Payment--><path d="M1137.277,439.2453 C1170.2379,423.9115 1207.7506,404.8662 1240,384.4411 C1266.3239,367.7688 1293.7954,344.9725 1312.2894,328.7054 " fill="none" id="Transaction-Payment" style="stroke: #A80036; stroke-width: 1.0;"/><text fill="#000000" font-family="sans-serif" font-size="13" lengthAdjust="spacingAndGlyphs" textLength="58" x="1168" y="380.508">results in</text><polygon fill="#000000" points="1229,374.5075,1235,377.5075,1229,380.5075,1229,374.5075" style="stroke: #000000; stroke-width: 1.0;"/><text fill="#000000" font-family="sans-serif" font-size="13" lengthAdjust="spacingAndGlyphs" textLength="8" x="1144.9063" y="448.8341">1</text><text fill="#000000" font-family="sans-serif" font-size="13" lengthAdjust="spacingAndGlyphs" textLength="8" x="1296.9177" y="348.5997">1</text><!--MD5=[757406b2e460220911d4cccaa97c87d9]
link Administrator to Collaborator--><path d="M304.3046,653.2103 C388.3774,657.4938 548.2496,661.3236 682,639.4411 C695.7648,637.189 710.2867,633.4426 723.7681,629.347 " fill="none" id="Administrator-Collaborator" style="stroke: #A80036; stroke-width: 1.0;"/><text fill="#000000" font-family="sans-serif" font-size="13" lengthAdjust="spacingAndGlyphs" textLength="56" x="455.5" y="649.508">registers</text><polygon fill="#000000" points="514.5,643.5075,520.5,646.5075,514.5,649.5075,514.5,643.5075" style="stroke: #000000; stroke-width: 1.0;"/><text fill="#000000" font-family="sans-serif" font-size="13" lengthAdjust="spacingAndGlyphs" textLength="8" x="311.898" y="666.6587">1</text><text fill="#000000" font-family="sans-serif" font-size="13" lengthAdjust="spacingAndGlyphs" textLength="8" x="707.876" y="645.1317">1</text><!--MD5=[64d713fdb760e3b6b59069371d93ba85]
link Administrator to Manager--><path d="M304.1357,660.576 C341.42,667.3967 390.9239,675.8591 435,681.4411 C542.4657,695.051 669.6815,703.9125 734.9981,707.9367 " fill="none" id="Administrator-Manager" style="stroke: #A80036; stroke-width: 1.0;"/><text fill="#000000" font-family="sans-serif" font-size="13" lengthAdjust="spacingAndGlyphs" textLength="56" x="455.5" y="677.508">registers</text><polygon fill="#000000" points="514.5,671.5075,520.5,674.5075,514.5,677.5075,514.5,671.5075" style="stroke: #000000; stroke-width: 1.0;"/><text fill="#000000" font-family="sans-serif" font-size="13" lengthAdjust="spacingAndGlyphs" textLength="8" x="312.0968" y="675.039">1</text><text fill="#000000" font-family="sans-serif" font-size="13" lengthAdjust="spacingAndGlyphs" textLength="8" x="719.1306" y="720.8743">1</text><!--MD5=[ed78a468ed200fe64308209ec6c86f1e]
link Platform to Task--><path d="M52.9684,416.3395 C73.9387,333.8232 158.1841,25.4411 246,25.4411 C246,25.4411 246,25.4411 1052.5,25.4411 C1146.8575,25.4411 1235.7163,97.2318 1287.6116,149.1118 " fill="none" id="Platform-Task" style="stroke: #A80036; stroke-width: 1.0;"/><text fill="#000000" font-family="sans-serif" font-size="13" lengthAdjust="spacingAndGlyphs" textLength="92" x="576" y="21.508">has registered</text><polygon fill="#000000" points="671,15.5075,677,18.5075,671,21.5075,671,15.5075" style="stroke: #000000; stroke-width: 1.0;"/><text fill="#000000" font-family="sans-serif" font-size="13" lengthAdjust="spacingAndGlyphs" textLength="8" x="45.2529" y="405.3179">1</text><text fill="#000000" font-family="sans-serif" font-size="13" lengthAdjust="spacingAndGlyphs" textLength="23" x="1257.1306" y="138.5201">1..*</text><!--MD5=[8b5db564ea9bd1758097b07ca3fd81a4]
link Collaborator to Transaction--><path d="M833.255,592.0963 C864.6183,581.3656 904.314,566.4162 938,549.4411 C957.9741,539.3757 978.804,526.6578 997.1361,514.6172 " fill="none" id="Collaborator-Transaction" style="stroke: #A80036; stroke-width: 1.0;"/><text fill="#000000" font-family="sans-serif" font-size="13" lengthAdjust="spacingAndGlyphs" textLength="48" x="876" y="545.508">creates</text><polygon fill="#000000" points="927,539.5075,933,542.5075,927,545.5075,927,539.5075" style="stroke: #000000; stroke-width: 1.0;"/><text fill="#000000" font-family="sans-serif" font-size="13" lengthAdjust="spacingAndGlyphs" textLength="8" x="841.1502" y="602.8755">1</text><text fill="#000000" font-family="sans-serif" font-size="13" lengthAdjust="spacingAndGlyphs" textLength="23" x="962.226" y="534.9732">1..*</text><!--MD5=[2dffed8b43a6af8e86a4c453c2e29d39]
link Freelancer to Invoice--><path d="M845.0336,235.7753 C854.7408,228.7395 864.8833,222.0632 875,216.4411 C1031.9649,129.2119 1091.078,146.7324 1270,131.4411 C1327.1251,126.5589 1342.6032,121.1208 1399,131.4411 C1445.3941,139.9309 1495.2048,159.3244 1531.8177,175.7007 " fill="none" id="Freelancer-Invoice" style="stroke: #A80036; stroke-width: 1.0;"/><text fill="#000000" font-family="sans-serif" font-size="13" lengthAdjust="spacingAndGlyphs" textLength="53" x="1170.5" y="130.508">receives</text><polygon fill="#000000" points="1226.5,124.5075,1232.5,127.5075,1226.5,130.5075,1226.5,124.5075" style="stroke: #000000; stroke-width: 1.0;"/><text fill="#000000" font-family="sans-serif" font-size="13" lengthAdjust="spacingAndGlyphs" textLength="8" x="853.189" y="242.0707">1</text><text fill="#000000" font-family="sans-serif" font-size="13" lengthAdjust="spacingAndGlyphs" textLength="8" x="1515.9323" y="185.2173">1</text><!--MD5=[8e4873cec2cb3febaaa9495c716fc885]
link Transaction to Task--><path d="M1117.8795,436.1426 C1124.7391,430.6532 1131.283,424.723 1137,418.4411 C1155.7411,397.8479 1150.1331,385.5954 1167,363.4411 C1197.6328,323.2055 1238.2859,283.6387 1271.8704,253.6804 " fill="none" id="Transaction-Task" style="stroke: #A80036; stroke-width: 1.0;"/><polygon fill="#000000" points="1192.5,277.4411,1195.5,271.4411,1198.5,277.4411,1192.5,277.4411" style="stroke: #000000; stroke-width: 1.0;"/><text fill="#000000" font-family="sans-serif" font-size="13" lengthAdjust="spacingAndGlyphs" textLength="23" x="1185.5" y="292.508">has</text><text fill="#000000" font-family="sans-serif" font-size="13" lengthAdjust="spacingAndGlyphs" textLength="8" x="1120.0455" y="425.4352">1</text><text fill="#000000" font-family="sans-serif" font-size="13" lengthAdjust="spacingAndGlyphs" textLength="8" x="1255.3335" y="273.4084">1</text><!--MD5=[fa14470ca025e2dabf590937e8b2fb39]
link Payment to Invoice--><path d="M1377.534,290.3395 C1420.1281,272.4229 1485.4929,244.9282 1531.7597,225.4668 " fill="none" id="Payment-Invoice" style="stroke: #A80036; stroke-width: 1.0;"/><text fill="#000000" font-family="sans-serif" font-size="13" lengthAdjust="spacingAndGlyphs" textLength="58" x="1430" y="236.508">generate</text><polygon fill="#000000" points="1491,230.5075,1497,233.5075,1491,236.5075,1491,230.5075" style="stroke: #000000; stroke-width: 1.0;"/><text fill="#000000" font-family="sans-serif" font-size="13" lengthAdjust="spacingAndGlyphs" textLength="8" x="1385.618" y="300.5957">1</text><text fill="#000000" font-family="sans-serif" font-size="13" lengthAdjust="spacingAndGlyphs" textLength="8" x="1515.8665" y="241.6708">1</text><!--MD5=[a1bcd49bda1d48eee0717f7ad534cdd6]
link Freelancer to Payment--><path d="M845.1598,282.2977 C935.3814,269.153 1101.063,251.8799 1240,275.4411 C1257.1332,278.3465 1275.3006,284.0175 1291.08,289.8501 " fill="none" id="Freelancer-Payment" style="stroke: #A80036; stroke-width: 1.0;"/><text fill="#000000" font-family="sans-serif" font-size="13" lengthAdjust="spacingAndGlyphs" textLength="53" x="1019.5" y="260.508">receives</text><polygon fill="#000000" points="1075.5,254.5075,1081.5,257.5075,1075.5,260.5075,1075.5,254.5075" style="stroke: #000000; stroke-width: 1.0;"/><text fill="#000000" font-family="sans-serif" font-size="13" lengthAdjust="spacingAndGlyphs" textLength="8" x="852.8882" y="293.9934">1</text><text fill="#000000" font-family="sans-serif" font-size="13" lengthAdjust="spacingAndGlyphs" textLength="8" x="1275.5224" y="300.1599">1</text><!--MD5=[6d853d2e1267d90d36996f9bdd088650]
@startuml
skinparam classAttributeIconSize 0
hide methods
left to right direction

class Platform{
}
class Freelancer {
  -String idF
  -String name
  -String levelExpertise
  -String email
  -String nif
  -String ibanAccount
  -String coutry
}

class Organization {
  -String nome
  -String email
  -String nif
}

class Collaborator{
  -String nome
  -String email
}

class Task {
  -String idT
  -String description
  -Time timeDuration
  -double costHour
  -String taskCategory
}

class Manager {
  -String nome
  -String email
}

class User {
}

class Invoice {
  -double amountE
  -double amountC
}

class Transaction {
  -Data endDate
  -double delay
  -String descriptionOfQuality
}

class Address{
  -String street
  -String doorNumber
  -String city
}

class Administrator {
}

class Payment{
}


Freelancer "1" - - "1" Transaction: receive >
Platform "1" - - "1..*" Transaction: has >
Task "1..*" - - "1" Freelancer: made by >
Freelancer "1" - - "1" Address: has >
Platform "1" - - "1" Administrator: has >
Platform "1" - - "1..*" Organization: has registered >
Platform "1" - - "1..*" Freelancer: has >
Organization "1" - - "1" Address: has >
Freelancer "1" - - "1" User: acts as >
Organization "1" - - "1" Manager: has >
Organization "1" - - "1" Collaborator: has >
Collaborator "1" - - "1" User: acts as >
Manager "1" - - "1" User: acts as >
Administrator "1" - - "1" Organization: registers >
Administrator "1" - - "1" User: acts as >
Transaction "1" - - "1" Payment: results in >
Administrator "1" - - "1" Collaborator: registers >
Administrator "1" - - "1" Manager: registers >
Platform "1" - - "1..*" Task: has registered >
Collaborator "1" - - "1..*" Transaction: creates >
Freelancer "1" - - "1" Invoice: receives > 
Transaction "1" - - "1" Task: has >
Payment "1" - - "1" Invoice: generate >
Freelancer "1" - - "1" Payment: receives >
@enduml

PlantUML version 1.2019.12(Sun Nov 03 10:24:54 UTC 2019)
(GPL source distribution)
Java Runtime: OpenJDK Runtime Environment
JVM: OpenJDK 64-Bit Server VM
Java Version: 1.8.0_232-heroku-b09
Operating System: Linux
Default Encoding: UTF-8
Language: en
Country: US
--></g></svg>