<?xml version="1.0" encoding="UTF-8" standalone="no"?><svg xmlns="http://www.w3.org/2000/svg" xmlns:xlink="http://www.w3.org/1999/xlink" contentScriptType="application/ecmascript" contentStyleType="text/css" height="784px" preserveAspectRatio="none" style="width:1910px;height:784px;" version="1.1" viewBox="0 0 1910 784" width="1910px" zoomAndPan="magnify"><defs><filter height="300%" id="fbf0hj7t4iopf" width="300%" x="-1" y="-1"><feGaussianBlur result="blurOut" stdDeviation="2.0"/><feColorMatrix in="blurOut" result="blurOut2" type="matrix" values="0 0 0 0 0 0 0 0 0 0 0 0 0 0 0 0 0 0 .4 0"/><feOffset dx="4.0" dy="4.0" in="blurOut2" result="blurOut3"/><feBlend in="SourceGraphic" in2="blurOut3" mode="normal"/></filter></defs><g><!--MD5=[99b8db98afdc2c8404e39242ef4c1e65]
class Platform--><rect fill="#FEFECE" filter="url(#fbf0hj7t4iopf)" height="40" id="Platform" style="stroke: #A80036; stroke-width: 1.5;" width="84" x="6" y="299.2459"/><ellipse cx="21" cy="315.2459" fill="#ADD1B2" rx="11" ry="11" style="stroke: #A80036; stroke-width: 1.0;"/><path d="M23.9688,320.8865 Q23.3906,321.1834 22.75,321.3318 Q22.1094,321.4803 21.4063,321.4803 Q18.9063,321.4803 17.5859,319.8318 Q16.2656,318.1834 16.2656,315.0584 Q16.2656,311.9334 17.5859,310.2772 Q18.9063,308.6209 21.4063,308.6209 Q22.1094,308.6209 22.7578,308.7772 Q23.4063,308.9334 23.9688,309.2303 L23.9688,311.949 Q23.3438,311.3709 22.75,311.0975 Q22.1563,310.824 21.5313,310.824 Q20.1875,310.824 19.5,311.8943 Q18.8125,312.9647 18.8125,315.0584 Q18.8125,317.1522 19.5,318.2225 Q20.1875,319.2928 21.5313,319.2928 Q22.1563,319.2928 22.75,319.0193 Q23.3438,318.7459 23.9688,318.1678 L23.9688,320.8865 Z "/><text fill="#000000" font-family="sans-serif" font-size="12" lengthAdjust="spacingAndGlyphs" textLength="52" x="35" y="319.4002">Platform</text><line style="stroke: #A80036; stroke-width: 1.5;" x1="7" x2="89" y1="331.2459" y2="331.2459"/><!--MD5=[1f687b5315377fe49fca59b457947463]
class Freelancer--><rect fill="#FEFECE" filter="url(#fbf0hj7t4iopf)" height="129.6328" id="Freelancer" style="stroke: #A80036; stroke-width: 1.5;" width="133" x="970" y="557.2459"/><ellipse cx="1000.3" cy="573.2459" fill="#ADD1B2" rx="11" ry="11" style="stroke: #A80036; stroke-width: 1.0;"/><path d="M1003.2688,578.8865 Q1002.6906,579.1834 1002.05,579.3318 Q1001.4094,579.4803 1000.7063,579.4803 Q998.2063,579.4803 996.8859,577.8318 Q995.5656,576.1834 995.5656,573.0584 Q995.5656,569.9334 996.8859,568.2772 Q998.2063,566.6209 1000.7063,566.6209 Q1001.4094,566.6209 1002.0578,566.7772 Q1002.7063,566.9334 1003.2688,567.2303 L1003.2688,569.949 Q1002.6438,569.3709 1002.05,569.0975 Q1001.4563,568.824 1000.8313,568.824 Q999.4875,568.824 998.8,569.8943 Q998.1125,570.9647 998.1125,573.0584 Q998.1125,575.1522 998.8,576.2225 Q999.4875,577.2928 1000.8313,577.2928 Q1001.4563,577.2928 1002.05,577.0193 Q1002.6438,576.7459 1003.2688,576.1678 L1003.2688,578.8865 Z "/><text fill="#000000" font-family="sans-serif" font-size="12" lengthAdjust="spacingAndGlyphs" textLength="67" x="1017.7" y="577.4002">Freelancer</text><line style="stroke: #A80036; stroke-width: 1.5;" x1="971" x2="1102" y1="589.2459" y2="589.2459"/><text fill="#000000" font-family="sans-serif" font-size="11" lengthAdjust="spacingAndGlyphs" textLength="58" x="976" y="603.4563">-String idF</text><text fill="#000000" font-family="sans-serif" font-size="11" lengthAdjust="spacingAndGlyphs" textLength="74" x="976" y="616.261">-String name</text><text fill="#000000" font-family="sans-serif" font-size="11" lengthAdjust="spacingAndGlyphs" textLength="121" x="976" y="629.0657">-String levelExpertise</text><text fill="#000000" font-family="sans-serif" font-size="11" lengthAdjust="spacingAndGlyphs" textLength="73" x="976" y="641.8704">-String email</text><text fill="#000000" font-family="sans-serif" font-size="11" lengthAdjust="spacingAndGlyphs" textLength="56" x="976" y="654.6751">-String nif</text><text fill="#000000" font-family="sans-serif" font-size="11" lengthAdjust="spacingAndGlyphs" textLength="110" x="976" y="667.4798">-String ibanAccount</text><text fill="#000000" font-family="sans-serif" font-size="11" lengthAdjust="spacingAndGlyphs" textLength="77" x="976" y="680.2845">-String coutry</text><!--MD5=[86c7c362de55a38b660185a1328fe18d]
class Organization--><rect fill="#FEFECE" filter="url(#fbf0hj7t4iopf)" height="78.4141" id="Organization" style="stroke: #A80036; stroke-width: 1.5;" width="110" x="435" y="253.2459"/><ellipse cx="450" cy="269.2459" fill="#ADD1B2" rx="11" ry="11" style="stroke: #A80036; stroke-width: 1.0;"/><path d="M452.9688,274.8865 Q452.3906,275.1834 451.75,275.3318 Q451.1094,275.4803 450.4063,275.4803 Q447.9063,275.4803 446.5859,273.8318 Q445.2656,272.1834 445.2656,269.0584 Q445.2656,265.9334 446.5859,264.2772 Q447.9063,262.6209 450.4063,262.6209 Q451.1094,262.6209 451.7578,262.7772 Q452.4063,262.9334 452.9688,263.2303 L452.9688,265.949 Q452.3438,265.3709 451.75,265.0975 Q451.1563,264.824 450.5313,264.824 Q449.1875,264.824 448.5,265.8943 Q447.8125,266.9647 447.8125,269.0584 Q447.8125,271.1522 448.5,272.2225 Q449.1875,273.2928 450.5313,273.2928 Q451.1563,273.2928 451.75,273.0193 Q452.3438,272.7459 452.9688,272.1678 L452.9688,274.8865 Z "/><text fill="#000000" font-family="sans-serif" font-size="12" lengthAdjust="spacingAndGlyphs" textLength="78" x="464" y="273.4002">Organization</text><line style="stroke: #A80036; stroke-width: 1.5;" x1="436" x2="544" y1="285.2459" y2="285.2459"/><text fill="#000000" font-family="sans-serif" font-size="11" lengthAdjust="spacingAndGlyphs" textLength="74" x="441" y="299.4563">-String nome</text><text fill="#000000" font-family="sans-serif" font-size="11" lengthAdjust="spacingAndGlyphs" textLength="73" x="441" y="312.261">-String email</text><text fill="#000000" font-family="sans-serif" font-size="11" lengthAdjust="spacingAndGlyphs" textLength="56" x="441" y="325.0657">-String nif</text><!--MD5=[f483d6e5de34a60207b28a5563be5e8b]
class Collaborator--><rect fill="#FEFECE" filter="url(#fbf0hj7t4iopf)" height="65.6094" id="Collaborator" style="stroke: #A80036; stroke-width: 1.5;" width="109" x="710.5" y="344.2459"/><ellipse cx="725.5" cy="360.2459" fill="#ADD1B2" rx="11" ry="11" style="stroke: #A80036; stroke-width: 1.0;"/><path d="M728.4688,365.8865 Q727.8906,366.1834 727.25,366.3318 Q726.6094,366.4803 725.9063,366.4803 Q723.4063,366.4803 722.0859,364.8318 Q720.7656,363.1834 720.7656,360.0584 Q720.7656,356.9334 722.0859,355.2772 Q723.4063,353.6209 725.9063,353.6209 Q726.6094,353.6209 727.2578,353.7772 Q727.9063,353.9334 728.4688,354.2303 L728.4688,356.949 Q727.8438,356.3709 727.25,356.0975 Q726.6563,355.824 726.0313,355.824 Q724.6875,355.824 724,356.8943 Q723.3125,357.9647 723.3125,360.0584 Q723.3125,362.1522 724,363.2225 Q724.6875,364.2928 726.0313,364.2928 Q726.6563,364.2928 727.25,364.0193 Q727.8438,363.7459 728.4688,363.1678 L728.4688,365.8865 Z "/><text fill="#000000" font-family="sans-serif" font-size="12" lengthAdjust="spacingAndGlyphs" textLength="77" x="739.5" y="364.4002">Collaborator</text><line style="stroke: #A80036; stroke-width: 1.5;" x1="711.5" x2="818.5" y1="376.2459" y2="376.2459"/><text fill="#000000" font-family="sans-serif" font-size="11" lengthAdjust="spacingAndGlyphs" textLength="74" x="716.5" y="390.4563">-String nome</text><text fill="#000000" font-family="sans-serif" font-size="11" lengthAdjust="spacingAndGlyphs" textLength="73" x="716.5" y="403.261">-String email</text><!--MD5=[b34797a66dc35cbf1d65f7e3ca75530e]
class Task--><rect fill="#FEFECE" filter="url(#fbf0hj7t4iopf)" height="104.0234" id="Task" style="stroke: #A80036; stroke-width: 1.5;" width="129" x="1528" y="349.2459"/><ellipse cx="1573.75" cy="365.2459" fill="#ADD1B2" rx="11" ry="11" style="stroke: #A80036; stroke-width: 1.0;"/><path d="M1576.7188,370.8865 Q1576.1406,371.1834 1575.5,371.3318 Q1574.8594,371.4803 1574.1563,371.4803 Q1571.6563,371.4803 1570.3359,369.8318 Q1569.0156,368.1834 1569.0156,365.0584 Q1569.0156,361.9334 1570.3359,360.2772 Q1571.6563,358.6209 1574.1563,358.6209 Q1574.8594,358.6209 1575.5078,358.7772 Q1576.1563,358.9334 1576.7188,359.2303 L1576.7188,361.949 Q1576.0938,361.3709 1575.5,361.0975 Q1574.9063,360.824 1574.2813,360.824 Q1572.9375,360.824 1572.25,361.8943 Q1571.5625,362.9647 1571.5625,365.0584 Q1571.5625,367.1522 1572.25,368.2225 Q1572.9375,369.2928 1574.2813,369.2928 Q1574.9063,369.2928 1575.5,369.0193 Q1576.0938,368.7459 1576.7188,368.1678 L1576.7188,370.8865 Z "/><text fill="#000000" font-family="sans-serif" font-size="12" lengthAdjust="spacingAndGlyphs" textLength="29" x="1594.25" y="369.4002">Task</text><line style="stroke: #A80036; stroke-width: 1.5;" x1="1529" x2="1656" y1="381.2459" y2="381.2459"/><text fill="#000000" font-family="sans-serif" font-size="11" lengthAdjust="spacingAndGlyphs" textLength="59" x="1534" y="395.4563">-String idT</text><text fill="#000000" font-family="sans-serif" font-size="11" lengthAdjust="spacingAndGlyphs" textLength="105" x="1534" y="408.261">-String description</text><text fill="#000000" font-family="sans-serif" font-size="11" lengthAdjust="spacingAndGlyphs" textLength="109" x="1534" y="421.0657">-Time timeDuration</text><text fill="#000000" font-family="sans-serif" font-size="11" lengthAdjust="spacingAndGlyphs" textLength="97" x="1534" y="433.8704">-double costHour</text><text fill="#000000" font-family="sans-serif" font-size="11" lengthAdjust="spacingAndGlyphs" textLength="117" x="1534" y="446.6751">-String taskCategory</text><!--MD5=[b24ed8d4ae84bae9290d9aab401637c7]
class Manager--><rect fill="#FEFECE" filter="url(#fbf0hj7t4iopf)" height="65.6094" id="Manager" style="stroke: #A80036; stroke-width: 1.5;" width="87" x="721.5" y="237.2459"/><ellipse cx="736.5" cy="253.2459" fill="#ADD1B2" rx="11" ry="11" style="stroke: #A80036; stroke-width: 1.0;"/><path d="M739.4688,258.8865 Q738.8906,259.1834 738.25,259.3318 Q737.6094,259.4803 736.9063,259.4803 Q734.4063,259.4803 733.0859,257.8318 Q731.7656,256.1834 731.7656,253.0584 Q731.7656,249.9334 733.0859,248.2772 Q734.4063,246.6209 736.9063,246.6209 Q737.6094,246.6209 738.2578,246.7772 Q738.9063,246.9334 739.4688,247.2303 L739.4688,249.949 Q738.8438,249.3709 738.25,249.0975 Q737.6563,248.824 737.0313,248.824 Q735.6875,248.824 735,249.8943 Q734.3125,250.9647 734.3125,253.0584 Q734.3125,255.1522 735,256.2225 Q735.6875,257.2928 737.0313,257.2928 Q737.6563,257.2928 738.25,257.0193 Q738.8438,256.7459 739.4688,256.1678 L739.4688,258.8865 Z "/><text fill="#000000" font-family="sans-serif" font-size="12" lengthAdjust="spacingAndGlyphs" textLength="55" x="750.5" y="257.4002">Manager</text><line style="stroke: #A80036; stroke-width: 1.5;" x1="722.5" x2="807.5" y1="269.2459" y2="269.2459"/><text fill="#000000" font-family="sans-serif" font-size="11" lengthAdjust="spacingAndGlyphs" textLength="74" x="727.5" y="283.4563">-String nome</text><text fill="#000000" font-family="sans-serif" font-size="11" lengthAdjust="spacingAndGlyphs" textLength="73" x="727.5" y="296.261">-String email</text><!--MD5=[3fd616f346a44cd59a91eb10b19e157c]
class User--><rect fill="#FEFECE" filter="url(#fbf0hj7t4iopf)" height="40" id="User" style="stroke: #A80036; stroke-width: 1.5;" width="61" x="1006" y="237.2459"/><ellipse cx="1021" cy="253.2459" fill="#ADD1B2" rx="11" ry="11" style="stroke: #A80036; stroke-width: 1.0;"/><path d="M1023.9688,258.8865 Q1023.3906,259.1834 1022.75,259.3318 Q1022.1094,259.4803 1021.4063,259.4803 Q1018.9063,259.4803 1017.5859,257.8318 Q1016.2656,256.1834 1016.2656,253.0584 Q1016.2656,249.9334 1017.5859,248.2772 Q1018.9063,246.6209 1021.4063,246.6209 Q1022.1094,246.6209 1022.7578,246.7772 Q1023.4063,246.9334 1023.9688,247.2303 L1023.9688,249.949 Q1023.3438,249.3709 1022.75,249.0975 Q1022.1563,248.824 1021.5313,248.824 Q1020.1875,248.824 1019.5,249.8943 Q1018.8125,250.9647 1018.8125,253.0584 Q1018.8125,255.1522 1019.5,256.2225 Q1020.1875,257.2928 1021.5313,257.2928 Q1022.1563,257.2928 1022.75,257.0193 Q1023.3438,256.7459 1023.9688,256.1678 L1023.9688,258.8865 Z "/><text fill="#000000" font-family="sans-serif" font-size="12" lengthAdjust="spacingAndGlyphs" textLength="29" x="1035" y="257.4002">User</text><line style="stroke: #A80036; stroke-width: 1.5;" x1="1007" x2="1066" y1="269.2459" y2="269.2459"/><!--MD5=[894442645724153f40a9f7a43026dbfc]
class Invoice--><rect fill="#FEFECE" filter="url(#fbf0hj7t4iopf)" height="65.6094" id="Invoice" style="stroke: #A80036; stroke-width: 1.5;" width="109" x="1790" y="676.2459"/><ellipse cx="1820.3" cy="692.2459" fill="#ADD1B2" rx="11" ry="11" style="stroke: #A80036; stroke-width: 1.0;"/><path d="M1823.2688,697.8865 Q1822.6906,698.1834 1822.05,698.3318 Q1821.4094,698.4803 1820.7063,698.4803 Q1818.2063,698.4803 1816.8859,696.8318 Q1815.5656,695.1834 1815.5656,692.0584 Q1815.5656,688.9334 1816.8859,687.2772 Q1818.2063,685.6209 1820.7063,685.6209 Q1821.4094,685.6209 1822.0578,685.7772 Q1822.7063,685.9334 1823.2688,686.2303 L1823.2688,688.949 Q1822.6438,688.3709 1822.05,688.0975 Q1821.4563,687.824 1820.8313,687.824 Q1819.4875,687.824 1818.8,688.8943 Q1818.1125,689.9647 1818.1125,692.0584 Q1818.1125,694.1522 1818.8,695.2225 Q1819.4875,696.2928 1820.8313,696.2928 Q1821.4563,696.2928 1822.05,696.0193 Q1822.6438,695.7459 1823.2688,695.1678 L1823.2688,697.8865 Z "/><text fill="#000000" font-family="sans-serif" font-size="12" lengthAdjust="spacingAndGlyphs" textLength="43" x="1837.7" y="696.4002">Invoice</text><line style="stroke: #A80036; stroke-width: 1.5;" x1="1791" x2="1898" y1="708.2459" y2="708.2459"/><text fill="#000000" font-family="sans-serif" font-size="11" lengthAdjust="spacingAndGlyphs" textLength="96" x="1796" y="722.4563">-double amountE</text><text fill="#000000" font-family="sans-serif" font-size="11" lengthAdjust="spacingAndGlyphs" textLength="97" x="1796" y="735.261">-double amountC</text><!--MD5=[4555bb1b0911a5adf28ce6dbe60fed2e]
class Transaction--><rect fill="#FEFECE" filter="url(#fbf0hj7t4iopf)" height="78.4141" id="Transaction" style="stroke: #A80036; stroke-width: 1.5;" width="169" x="1226" y="542.2459"/><ellipse cx="1269.35" cy="558.2459" fill="#ADD1B2" rx="11" ry="11" style="stroke: #A80036; stroke-width: 1.0;"/><path d="M1272.3188,563.8865 Q1271.7406,564.1834 1271.1,564.3318 Q1270.4594,564.4803 1269.7563,564.4803 Q1267.2563,564.4803 1265.9359,562.8318 Q1264.6156,561.1834 1264.6156,558.0584 Q1264.6156,554.9334 1265.9359,553.2772 Q1267.2563,551.6209 1269.7563,551.6209 Q1270.4594,551.6209 1271.1078,551.7772 Q1271.7563,551.9334 1272.3188,552.2303 L1272.3188,554.949 Q1271.6938,554.3709 1271.1,554.0975 Q1270.5063,553.824 1269.8813,553.824 Q1268.5375,553.824 1267.85,554.8943 Q1267.1625,555.9647 1267.1625,558.0584 Q1267.1625,560.1522 1267.85,561.2225 Q1268.5375,562.2928 1269.8813,562.2928 Q1270.5063,562.2928 1271.1,562.0193 Q1271.6938,561.7459 1272.3188,561.1678 L1272.3188,563.8865 Z "/><text fill="#000000" font-family="sans-serif" font-size="12" lengthAdjust="spacingAndGlyphs" textLength="74" x="1289.65" y="562.4002">Transaction</text><line style="stroke: #A80036; stroke-width: 1.5;" x1="1227" x2="1394" y1="574.2459" y2="574.2459"/><text fill="#000000" font-family="sans-serif" font-size="11" lengthAdjust="spacingAndGlyphs" textLength="81" x="1232" y="588.4563">-Data endDate</text><text fill="#000000" font-family="sans-serif" font-size="11" lengthAdjust="spacingAndGlyphs" textLength="76" x="1232" y="601.261">-double delay</text><text fill="#000000" font-family="sans-serif" font-size="11" lengthAdjust="spacingAndGlyphs" textLength="157" x="1232" y="614.0657">-String descriptionOfQuality</text><!--MD5=[0f39e4cb6f03951afbf6d14bd2505654]
class Address--><rect fill="#FEFECE" filter="url(#fbf0hj7t4iopf)" height="78.4141" id="Address" style="stroke: #A80036; stroke-width: 1.5;" width="125" x="1248" y="172.2459"/><ellipse cx="1281.9" cy="188.2459" fill="#ADD1B2" rx="11" ry="11" style="stroke: #A80036; stroke-width: 1.0;"/><path d="M1284.8688,193.8865 Q1284.2906,194.1834 1283.65,194.3318 Q1283.0094,194.4803 1282.3063,194.4803 Q1279.8063,194.4803 1278.4859,192.8318 Q1277.1656,191.1834 1277.1656,188.0584 Q1277.1656,184.9334 1278.4859,183.2772 Q1279.8063,181.6209 1282.3063,181.6209 Q1283.0094,181.6209 1283.6578,181.7772 Q1284.3063,181.9334 1284.8688,182.2303 L1284.8688,184.949 Q1284.2438,184.3709 1283.65,184.0975 Q1283.0563,183.824 1282.4313,183.824 Q1281.0875,183.824 1280.4,184.8943 Q1279.7125,185.9647 1279.7125,188.0584 Q1279.7125,190.1522 1280.4,191.2225 Q1281.0875,192.2928 1282.4313,192.2928 Q1283.0563,192.2928 1283.65,192.0193 Q1284.2438,191.7459 1284.8688,191.1678 L1284.8688,193.8865 Z "/><text fill="#000000" font-family="sans-serif" font-size="12" lengthAdjust="spacingAndGlyphs" textLength="51" x="1300.1" y="192.4002">Address</text><line style="stroke: #A80036; stroke-width: 1.5;" x1="1249" x2="1372" y1="204.2459" y2="204.2459"/><text fill="#000000" font-family="sans-serif" font-size="11" lengthAdjust="spacingAndGlyphs" textLength="76" x="1254" y="218.4563">-String street</text><text fill="#000000" font-family="sans-serif" font-size="11" lengthAdjust="spacingAndGlyphs" textLength="113" x="1254" y="231.261">-String doorNumber</text><text fill="#000000" font-family="sans-serif" font-size="11" lengthAdjust="spacingAndGlyphs" textLength="61" x="1254" y="244.0657">-String city</text><!--MD5=[da547346deef918ea16944ba046651ef]
class Administrator--><rect fill="#FEFECE" filter="url(#fbf0hj7t4iopf)" height="40" id="Administrator" style="stroke: #A80036; stroke-width: 1.5;" width="116" x="188" y="227.2459"/><ellipse cx="203" cy="243.2459" fill="#ADD1B2" rx="11" ry="11" style="stroke: #A80036; stroke-width: 1.0;"/><path d="M205.9688,248.8865 Q205.3906,249.1834 204.75,249.3318 Q204.1094,249.4803 203.4063,249.4803 Q200.9063,249.4803 199.5859,247.8318 Q198.2656,246.1834 198.2656,243.0584 Q198.2656,239.9334 199.5859,238.2772 Q200.9063,236.6209 203.4063,236.6209 Q204.1094,236.6209 204.7578,236.7772 Q205.4063,236.9334 205.9688,237.2303 L205.9688,239.949 Q205.3438,239.3709 204.75,239.0975 Q204.1563,238.824 203.5313,238.824 Q202.1875,238.824 201.5,239.8943 Q200.8125,240.9647 200.8125,243.0584 Q200.8125,245.1522 201.5,246.2225 Q202.1875,247.2928 203.5313,247.2928 Q204.1563,247.2928 204.75,247.0193 Q205.3438,246.7459 205.9688,246.1678 L205.9688,248.8865 Z "/><text fill="#000000" font-family="sans-serif" font-size="12" lengthAdjust="spacingAndGlyphs" textLength="84" x="217" y="247.4002">Administrator</text><line style="stroke: #A80036; stroke-width: 1.5;" x1="189" x2="303" y1="259.2459" y2="259.2459"/><!--MD5=[764fca796ce7f635542948d8fc39db5e]
class Payment--><rect fill="#FEFECE" filter="url(#fbf0hj7t4iopf)" height="40" id="Payment" style="stroke: #A80036; stroke-width: 1.5;" width="86" x="1549.5" y="726.2459"/><ellipse cx="1564.5" cy="742.2459" fill="#ADD1B2" rx="11" ry="11" style="stroke: #A80036; stroke-width: 1.0;"/><path d="M1567.4688,747.8865 Q1566.8906,748.1834 1566.25,748.3318 Q1565.6094,748.4803 1564.9063,748.4803 Q1562.4063,748.4803 1561.0859,746.8318 Q1559.7656,745.1834 1559.7656,742.0584 Q1559.7656,738.9334 1561.0859,737.2772 Q1562.4063,735.6209 1564.9063,735.6209 Q1565.6094,735.6209 1566.2578,735.7772 Q1566.9063,735.9334 1567.4688,736.2303 L1567.4688,738.949 Q1566.8438,738.3709 1566.25,738.0975 Q1565.6563,737.824 1565.0313,737.824 Q1563.6875,737.824 1563,738.8943 Q1562.3125,739.9647 1562.3125,742.0584 Q1562.3125,744.1522 1563,745.2225 Q1563.6875,746.2928 1565.0313,746.2928 Q1565.6563,746.2928 1566.25,746.0193 Q1566.8438,745.7459 1567.4688,745.1678 L1567.4688,747.8865 Z "/><text fill="#000000" font-family="sans-serif" font-size="12" lengthAdjust="spacingAndGlyphs" textLength="54" x="1578.5" y="746.4002">Payment</text><line style="stroke: #A80036; stroke-width: 1.5;" x1="1550.5" x2="1634.5" y1="758.2459" y2="758.2459"/><!--MD5=[e86a4777f2c0372cf9fb3cd047e1466e]
class Reader--><rect fill="#FEFECE" filter="url(#fbf0hj7t4iopf)" height="52.8047" id="Reader" style="stroke: #A80036; stroke-width: 1.5;" width="104" x="438" y="486.7459"/><ellipse cx="465.15" cy="502.7459" fill="#ADD1B2" rx="11" ry="11" style="stroke: #A80036; stroke-width: 1.0;"/><path d="M468.1188,508.3865 Q467.5406,508.6834 466.9,508.8318 Q466.2594,508.9803 465.5563,508.9803 Q463.0563,508.9803 461.7359,507.3318 Q460.4156,505.6834 460.4156,502.5584 Q460.4156,499.4334 461.7359,497.7772 Q463.0563,496.1209 465.5563,496.1209 Q466.2594,496.1209 466.9078,496.2772 Q467.5563,496.4334 468.1188,496.7303 L468.1188,499.449 Q467.4938,498.8709 466.9,498.5975 Q466.3063,498.324 465.6813,498.324 Q464.3375,498.324 463.65,499.3943 Q462.9625,500.4647 462.9625,502.5584 Q462.9625,504.6522 463.65,505.7225 Q464.3375,506.7928 465.6813,506.7928 Q466.3063,506.7928 466.9,506.5193 Q467.4938,506.2459 468.1188,505.6678 L468.1188,508.3865 Z "/><text fill="#000000" font-family="sans-serif" font-size="12" lengthAdjust="spacingAndGlyphs" textLength="45" x="481.85" y="506.9002">Reader</text><line style="stroke: #A80036; stroke-width: 1.5;" x1="439" x2="541" y1="518.7459" y2="518.7459"/><text fill="#000000" font-family="sans-serif" font-size="11" lengthAdjust="spacingAndGlyphs" textLength="92" x="444" y="532.9563">-String fileName</text><!--MD5=[5f120048d977cf6fddcd4f613ae1ac70]
class HistoricalTransaction--><rect fill="#FEFECE" filter="url(#fbf0hj7t4iopf)" height="40" id="HistoricalTransaction" style="stroke: #A80036; stroke-width: 1.5;" width="164" x="683" y="493.2459"/><ellipse cx="698" cy="509.2459" fill="#ADD1B2" rx="11" ry="11" style="stroke: #A80036; stroke-width: 1.0;"/><path d="M700.9688,514.8865 Q700.3906,515.1834 699.75,515.3318 Q699.1094,515.4803 698.4063,515.4803 Q695.9063,515.4803 694.5859,513.8318 Q693.2656,512.1834 693.2656,509.0584 Q693.2656,505.9334 694.5859,504.2772 Q695.9063,502.6209 698.4063,502.6209 Q699.1094,502.6209 699.7578,502.7772 Q700.4063,502.9334 700.9688,503.2303 L700.9688,505.949 Q700.3438,505.3709 699.75,505.0975 Q699.1563,504.824 698.5313,504.824 Q697.1875,504.824 696.5,505.8943 Q695.8125,506.9647 695.8125,509.0584 Q695.8125,511.1522 696.5,512.2225 Q697.1875,513.2928 698.5313,513.2928 Q699.1563,513.2928 699.75,513.0193 Q700.3438,512.7459 700.9688,512.1678 L700.9688,514.8865 Z "/><text fill="#000000" font-family="sans-serif" font-size="12" lengthAdjust="spacingAndGlyphs" textLength="132" x="712" y="513.4002">HistoricalTransaction</text><line style="stroke: #A80036; stroke-width: 1.5;" x1="684" x2="846" y1="525.2459" y2="525.2459"/><!--MD5=[83bb469d45366b675450ee1d8d93a557]
link Freelancer to Transaction--><path d="M1103.1776,612.2686 C1140.0866,606.7457 1186.3383,599.8248 1225.7857,593.9221 " fill="none" id="Freelancer-Transaction" style="stroke: #A80036; stroke-width: 1.0;"/><text fill="#000000" font-family="sans-serif" font-size="13" lengthAdjust="spacingAndGlyphs" textLength="46" x="1135" y="595.3128">receive</text><polygon fill="#000000" points="1184,589.3123,1190,592.3123,1184,595.3123,1184,589.3123" style="stroke: #000000; stroke-width: 1.0;"/><text fill="#000000" font-family="sans-serif" font-size="13" lengthAdjust="spacingAndGlyphs" textLength="8" x="1110.908" y="624.0919">1</text><text fill="#000000" font-family="sans-serif" font-size="13" lengthAdjust="spacingAndGlyphs" textLength="8" x="1209.8846" y="607.7734">1</text><!--MD5=[2dffed8b43a6af8e86a4c453c2e29d39]
link Freelancer to Invoice--><path d="M1103.4258,628.3316 C1231.2123,640.1405 1518.7218,667.6187 1760,697.2459 C1769.7065,698.4378 1780.0246,699.8127 1789.9938,701.1971 " fill="none" id="Freelancer-Invoice" style="stroke: #A80036; stroke-width: 1.0;"/><text fill="#000000" font-family="sans-serif" font-size="13" lengthAdjust="spacingAndGlyphs" textLength="53" x="1428.5" y="656.3128">receives</text><polygon fill="#000000" points="1484.5,650.3123,1490.5,653.3123,1484.5,656.3123,1484.5,650.3123" style="stroke: #000000; stroke-width: 1.0;"/><text fill="#000000" font-family="sans-serif" font-size="13" lengthAdjust="spacingAndGlyphs" textLength="8" x="1111.1833" y="641.9118">1</text><text fill="#000000" font-family="sans-serif" font-size="13" lengthAdjust="spacingAndGlyphs" textLength="8" x="1774.132" y="713.2254">1</text><!--MD5=[a1bcd49bda1d48eee0717f7ad534cdd6]
link Freelancer to Payment--><path d="M1103.1869,681.7787 C1112.7536,688.3923 1122.8179,694.456 1133,699.2459 C1281.8267,769.2578 1333.9725,772.3301 1498,760.2459 C1514.8713,759.003 1533.3004,756.5279 1549.3675,754 " fill="none" id="Freelancer-Payment" style="stroke: #A80036; stroke-width: 1.0;"/><text fill="#000000" font-family="sans-serif" font-size="13" lengthAdjust="spacingAndGlyphs" textLength="53" x="1277.5" y="735.3128">receives</text><polygon fill="#000000" points="1333.5,729.3123,1339.5,732.3123,1333.5,735.3123,1333.5,729.3123" style="stroke: #000000; stroke-width: 1.0;"/><text fill="#000000" font-family="sans-serif" font-size="13" lengthAdjust="spacingAndGlyphs" textLength="8" x="1110.9183" y="701.2047">1</text><text fill="#000000" font-family="sans-serif" font-size="13" lengthAdjust="spacingAndGlyphs" textLength="8" x="1533.5612" y="768.6044">1</text><!--MD5=[874150c88719dac3f651931978d26083]
link Freelancer to Address--><path d="M1089.2944,557.1856 C1094.5924,548.4875 1099.3521,539.3998 1103,530.2459 C1140.3469,436.5283 1075.3586,388.0423 1133,305.2459 C1160.096,266.3251 1208.4977,242.2284 1247.9206,228.1896 " fill="none" id="Freelancer-Address" style="stroke: #A80036; stroke-width: 1.0;"/><polygon fill="#000000" points="1153.5,247.2459,1156.5,241.2459,1159.5,247.2459,1153.5,247.2459" style="stroke: #000000; stroke-width: 1.0;"/><text fill="#000000" font-family="sans-serif" font-size="13" lengthAdjust="spacingAndGlyphs" textLength="23" x="1146.5" y="262.3128">has</text><text fill="#000000" font-family="sans-serif" font-size="13" lengthAdjust="spacingAndGlyphs" textLength="8" x="1086.6313" y="546.3436">1</text><text fill="#000000" font-family="sans-serif" font-size="13" lengthAdjust="spacingAndGlyphs" textLength="8" x="1231.8062" y="243.2184">1</text><!--MD5=[8853e9d83a8841c20c4ef075af762602]
link Task to Freelancer--><path d="M1527.8783,419.9596 C1453.8156,442.1271 1329.3358,481.596 1226,525.2459 C1184.2935,542.8631 1139.1103,565.8308 1103.3275,584.9946 " fill="none" id="Task-Freelancer" style="stroke: #A80036; stroke-width: 1.0;"/><polygon fill="#000000" points="1283,454.3123,1277,457.3123,1283,460.3123,1283,454.3123" style="stroke: #000000; stroke-width: 1.0;"/><text fill="#000000" font-family="sans-serif" font-size="13" lengthAdjust="spacingAndGlyphs" textLength="56" x="1289" y="460.3128">made by</text><text fill="#000000" font-family="sans-serif" font-size="13" lengthAdjust="spacingAndGlyphs" textLength="23" x="1497.0282" y="434.7354">1..*</text><text fill="#000000" font-family="sans-serif" font-size="13" lengthAdjust="spacingAndGlyphs" textLength="8" x="1111.0743" y="593.8348">1</text><!--MD5=[3781be57b219e856d6dd67e0b949b069]
link Platform to Transaction--><path d="M50.8247,339.4576 C57.7013,384.5197 77.9236,495.8143 120,579.2459 C160.9158,660.376 155.1364,740.2459 246,740.2459 C246,740.2459 246,740.2459 1036.5,740.2459 C1131.6475,740.2459 1223.3276,667.6337 1272.7747,620.5493 " fill="none" id="Platform-Transaction" style="stroke: #A80036; stroke-width: 1.0;"/><text fill="#000000" font-family="sans-serif" font-size="13" lengthAdjust="spacingAndGlyphs" textLength="23" x="596" y="736.3128">has</text><polygon fill="#000000" points="622,730.3123,628,733.3123,622,736.3123,622,730.3123" style="stroke: #000000; stroke-width: 1.0;"/><text fill="#000000" font-family="sans-serif" font-size="13" lengthAdjust="spacingAndGlyphs" textLength="8" x="52.7441" y="359.3371">1</text><text fill="#000000" font-family="sans-serif" font-size="13" lengthAdjust="spacingAndGlyphs" textLength="23" x="1241.3141" y="640.6364">1..*</text><!--MD5=[0f7004bed4496639b3a5258ab2ead378]
link Platform to Administrator--><path d="M90.476,303.8001 C119.7927,293.1395 159.0545,278.8624 190.7946,267.3206 " fill="none" id="Platform-Administrator" style="stroke: #A80036; stroke-width: 1.0;"/><text fill="#000000" font-family="sans-serif" font-size="13" lengthAdjust="spacingAndGlyphs" textLength="23" x="121" y="277.3128">has</text><polygon fill="#000000" points="147,271.3123,153,274.3123,147,277.3123,147,271.3123" style="stroke: #000000; stroke-width: 1.0;"/><text fill="#000000" font-family="sans-serif" font-size="13" lengthAdjust="spacingAndGlyphs" textLength="8" x="97.8831" y="297.2206">1</text><text fill="#000000" font-family="sans-serif" font-size="13" lengthAdjust="spacingAndGlyphs" textLength="8" x="171.8786" y="284.4838">1</text><!--MD5=[7640e466c042ba2d6f9c19c816f7f0fc]
link Platform to Organization--><path d="M90.3808,316.657 C170.7597,311.747 345.2942,301.0854 434.733,295.6219 " fill="none" id="Platform-Organization" style="stroke: #A80036; stroke-width: 1.0;"/><text fill="#000000" font-family="sans-serif" font-size="13" lengthAdjust="spacingAndGlyphs" textLength="92" x="193.5" y="300.3128">has registered</text><polygon fill="#000000" points="288.5,294.3123,294.5,297.3123,288.5,300.3123,288.5,294.3123" style="stroke: #000000; stroke-width: 1.0;"/><text fill="#000000" font-family="sans-serif" font-size="13" lengthAdjust="spacingAndGlyphs" textLength="8" x="98.0626" y="329.5483">1</text><text fill="#000000" font-family="sans-serif" font-size="13" lengthAdjust="spacingAndGlyphs" textLength="23" x="404.0131" y="308.9301">1..*</text><!--MD5=[22697d4d863c2e08ab1d60ca0d61f844]
link Platform to Freelancer--><path d="M51.4045,339.5224 C63.8646,406.1713 113.3841,614.2459 246,614.2459 C246,614.2459 246,614.2459 765,614.2459 C834.9086,614.2459 914.8987,616.9288 969.8494,619.1872 " fill="none" id="Platform-Freelancer" style="stroke: #A80036; stroke-width: 1.0;"/><text fill="#000000" font-family="sans-serif" font-size="13" lengthAdjust="spacingAndGlyphs" textLength="23" x="472" y="610.3128">has</text><polygon fill="#000000" points="498,604.3123,504,607.3123,498,610.3123,498,604.3123" style="stroke: #000000; stroke-width: 1.0;"/><text fill="#000000" font-family="sans-serif" font-size="13" lengthAdjust="spacingAndGlyphs" textLength="8" x="43.237" y="359.4201">1</text><text fill="#000000" font-family="sans-serif" font-size="13" lengthAdjust="spacingAndGlyphs" textLength="23" x="938.7901" y="631.7379">1..*</text><!--MD5=[ed78a468ed200fe64308209ec6c86f1e]
link Platform to Task--><path d="M51.4284,299.0381 C63.9639,232.6151 113.6939,25.2459 246,25.2459 C246,25.2459 246,25.2459 1310.5,25.2459 C1470.4306,25.2459 1550.7707,245.6502 1579.6449,348.9647 " fill="none" id="Platform-Task" style="stroke: #A80036; stroke-width: 1.0;"/><text fill="#000000" font-family="sans-serif" font-size="13" lengthAdjust="spacingAndGlyphs" textLength="92" x="712.5" y="21.3128">has registered</text><polygon fill="#000000" points="807.5,15.3123,813.5,18.3123,807.5,21.3123,807.5,15.3123" style="stroke: #000000; stroke-width: 1.0;"/><text fill="#000000" font-family="sans-serif" font-size="13" lengthAdjust="spacingAndGlyphs" textLength="8" x="43.2676" y="288.3309">1</text><text fill="#000000" font-family="sans-serif" font-size="13" lengthAdjust="spacingAndGlyphs" textLength="23" x="1553.3722" y="338.0058">1..*</text><!--MD5=[ec97d39b7e7a4ec2b79aa9dbbb3f5070]
link Organization to Address--><path d="M545.3825,264.6976 C583.1139,247.5999 634.783,227.3862 683,219.2459 C887.1162,184.7857 1133.901,197.0706 1247.5823,205.6955 " fill="none" id="Organization-Address" style="stroke: #A80036; stroke-width: 1.0;"/><text fill="#000000" font-family="sans-serif" font-size="13" lengthAdjust="spacingAndGlyphs" textLength="23" x="890.5" y="193.3128">has</text><polygon fill="#000000" points="916.5,187.3123,922.5,190.3123,916.5,193.3123,916.5,187.3123" style="stroke: #000000; stroke-width: 1.0;"/><text fill="#000000" font-family="sans-serif" font-size="13" lengthAdjust="spacingAndGlyphs" textLength="8" x="552.9909" y="274.1778">1</text><text fill="#000000" font-family="sans-serif" font-size="13" lengthAdjust="spacingAndGlyphs" textLength="8" x="1231.8449" y="217.9716">1</text><!--MD5=[bc039f41cf0b27fadee5cae63fc6e1fe]
link Organization to Manager--><path d="M545.3195,287.8203 C597.0783,283.6796 673.3766,277.5758 721.0797,273.7595 " fill="none" id="Organization-Manager" style="stroke: #A80036; stroke-width: 1.0;"/><text fill="#000000" font-family="sans-serif" font-size="13" lengthAdjust="spacingAndGlyphs" textLength="23" x="596" y="276.3128">has</text><polygon fill="#000000" points="622,270.3123,628,273.3123,622,276.3123,622,270.3123" style="stroke: #000000; stroke-width: 1.0;"/><text fill="#000000" font-family="sans-serif" font-size="13" lengthAdjust="spacingAndGlyphs" textLength="8" x="552.9198" y="300.2631">1</text><text fill="#000000" font-family="sans-serif" font-size="13" lengthAdjust="spacingAndGlyphs" textLength="8" x="705.4424" y="287.6234">1</text><!--MD5=[45817597bcd7048073a670d966abfd17]
link Organization to Collaborator--><path d="M545.3195,309.3447 C593.314,324.1793 662.4084,345.5358 710.2385,360.3196 " fill="none" id="Organization-Collaborator" style="stroke: #A80036; stroke-width: 1.0;"/><text fill="#000000" font-family="sans-serif" font-size="13" lengthAdjust="spacingAndGlyphs" textLength="23" x="596" y="316.3128">has</text><polygon fill="#000000" points="622,310.3123,628,313.3123,622,316.3123,622,310.3123" style="stroke: #000000; stroke-width: 1.0;"/><text fill="#000000" font-family="sans-serif" font-size="13" lengthAdjust="spacingAndGlyphs" textLength="8" x="552.9198" y="324.5453">1</text><text fill="#000000" font-family="sans-serif" font-size="13" lengthAdjust="spacingAndGlyphs" textLength="8" x="694.3424" y="371.155">1</text><!--MD5=[6eb6e197a729f6ec2412743e0bdbca1d]
link Manager to User--><path d="M808.6212,268.1572 C863.7829,265.516 957.3722,261.0347 1005.6528,258.7229 " fill="none" id="Manager-User" style="stroke: #A80036; stroke-width: 1.0;"/><text fill="#000000" font-family="sans-serif" font-size="13" lengthAdjust="spacingAndGlyphs" textLength="46" x="879" y="258.3128">acts as</text><polygon fill="#000000" points="928,252.3123,934,255.3123,928,258.3123,928,252.3123" style="stroke: #000000; stroke-width: 1.0;"/><text fill="#000000" font-family="sans-serif" font-size="13" lengthAdjust="spacingAndGlyphs" textLength="8" x="816.5085" y="281.1637">1</text><text fill="#000000" font-family="sans-serif" font-size="13" lengthAdjust="spacingAndGlyphs" textLength="8" x="990.03" y="254.4868">1</text><!--MD5=[2a41c1af413c0662bf55a6b8913ea24f]
link Administrator to Organization--><path d="M304.1341,257.9673 C343.7431,265.2723 395.8601,274.884 434.825,282.0702 " fill="none" id="Administrator-Organization" style="stroke: #A80036; stroke-width: 1.0;"/><text fill="#000000" font-family="sans-serif" font-size="13" lengthAdjust="spacingAndGlyphs" textLength="56" x="335" y="261.3128">registers</text><polygon fill="#000000" points="394,255.3123,400,258.3123,394,261.3123,394,255.3123" style="stroke: #000000; stroke-width: 1.0;"/><text fill="#000000" font-family="sans-serif" font-size="13" lengthAdjust="spacingAndGlyphs" textLength="8" x="312.095" y="272.3773">1</text><text fill="#000000" font-family="sans-serif" font-size="13" lengthAdjust="spacingAndGlyphs" textLength="8" x="418.8734" y="276.743">1</text><!--MD5=[edc107c0a572352bcd12c9afaba4390b]
link Administrator to User--><path d="M289.5237,227.1301 C303.4629,221.4542 319.1399,215.8497 334,212.2459 C569.6495,155.0974 634.8067,171.0376 877,159.2459 C904.9669,157.8843 914.1729,148.4311 940,159.2459 C977.6625,175.0166 1008.0668,213.4445 1024.1051,237.2244 " fill="none" id="Administrator-User" style="stroke: #A80036; stroke-width: 1.0;"/><text fill="#000000" font-family="sans-serif" font-size="13" lengthAdjust="spacingAndGlyphs" textLength="46" x="584.5" y="163.3128">acts as</text><polygon fill="#000000" points="633.5,157.3123,639.5,160.3123,633.5,163.3123,633.5,157.3123" style="stroke: #000000; stroke-width: 1.0;"/><text fill="#000000" font-family="sans-serif" font-size="13" lengthAdjust="spacingAndGlyphs" textLength="8" x="293.1338" y="216.1044">1</text><text fill="#000000" font-family="sans-serif" font-size="13" lengthAdjust="spacingAndGlyphs" textLength="8" x="1011.2891" y="226.2264">1</text><!--MD5=[757406b2e460220911d4cccaa97c87d9]
link Administrator to Collaborator--><path d="M283.371,267.3122 C290.2837,271.1797 297.4013,275.2676 304,279.2459 C363.6459,315.206 368.6435,344.0899 435,365.2459 C528.1282,394.9374 643.5871,390.4018 710.322,384.0602 " fill="none" id="Administrator-Collaborator" style="stroke: #A80036; stroke-width: 1.0;"/><text fill="#000000" font-family="sans-serif" font-size="13" lengthAdjust="spacingAndGlyphs" textLength="56" x="455.5" y="361.3128">registers</text><polygon fill="#000000" points="514.5,355.3123,520.5,358.3123,514.5,361.3123,514.5,355.3123" style="stroke: #000000; stroke-width: 1.0;"/><text fill="#000000" font-family="sans-serif" font-size="13" lengthAdjust="spacingAndGlyphs" textLength="8" x="284.7566" y="287.1508">1</text><text fill="#000000" font-family="sans-serif" font-size="13" lengthAdjust="spacingAndGlyphs" textLength="8" x="694.4371" y="398.0857">1</text><!--MD5=[64d713fdb760e3b6b59069371d93ba85]
link Administrator to Manager--><path d="M304.2052,242.3689 C314.1422,241.6071 324.3646,240.8675 334,240.2459 C378.8506,237.3526 390.0699,236.3574 435,235.2459 C483.8739,234.0369 496.2631,231.3933 545,235.2459 C606.6872,240.1222 677.2029,252.575 721.4149,261.2289 " fill="none" id="Administrator-Manager" style="stroke: #A80036; stroke-width: 1.0;"/><text fill="#000000" font-family="sans-serif" font-size="13" lengthAdjust="spacingAndGlyphs" textLength="56" x="455.5" y="229.3128">registers</text><polygon fill="#000000" points="514.5,223.3123,520.5,226.3123,514.5,229.3123,514.5,223.3123" style="stroke: #000000; stroke-width: 1.0;"/><text fill="#000000" font-family="sans-serif" font-size="13" lengthAdjust="spacingAndGlyphs" textLength="8" x="312.1752" y="254.7804">1</text><text fill="#000000" font-family="sans-serif" font-size="13" lengthAdjust="spacingAndGlyphs" textLength="8" x="705.5336" y="255.6035">1</text><!--MD5=[ee25a9e267be641cadbaef6c1594e19f]
link Transaction to Payment--><path d="M1328.0421,620.331 C1346.5449,656.4678 1379.3678,708.2384 1425,733.2459 C1463.1115,754.1319 1513.6012,755.1092 1549.1494,752.2774 " fill="none" id="Transaction-Payment" style="stroke: #A80036; stroke-width: 1.0;"/><text fill="#000000" font-family="sans-serif" font-size="13" lengthAdjust="spacingAndGlyphs" textLength="58" x="1426" y="729.3128">results in</text><polygon fill="#000000" points="1487,723.3123,1493,726.3123,1487,729.3123,1487,723.3123" style="stroke: #000000; stroke-width: 1.0;"/><text fill="#000000" font-family="sans-serif" font-size="13" lengthAdjust="spacingAndGlyphs" textLength="8" x="1322.4543" y="640.6708">1</text><text fill="#000000" font-family="sans-serif" font-size="13" lengthAdjust="spacingAndGlyphs" textLength="8" x="1533.6029" y="749.1208">1</text><!--MD5=[8e4873cec2cb3febaaa9495c716fc885]
link Transaction to Task--><path d="M1395.382,561.9386 C1429.2713,551.6286 1467.4203,536.5528 1498,515.2459 C1521.6235,498.7858 1542.6643,474.908 1558.8606,453.2535 " fill="none" id="Transaction-Task" style="stroke: #A80036; stroke-width: 1.0;"/><text fill="#000000" font-family="sans-serif" font-size="13" lengthAdjust="spacingAndGlyphs" textLength="23" x="1443.5" y="511.3128">has</text><polygon fill="#000000" points="1469.5,505.3123,1475.5,508.3123,1469.5,511.3123,1469.5,505.3123" style="stroke: #000000; stroke-width: 1.0;"/><text fill="#000000" font-family="sans-serif" font-size="13" lengthAdjust="spacingAndGlyphs" textLength="8" x="1403.0203" y="572.9787">1</text><text fill="#000000" font-family="sans-serif" font-size="13" lengthAdjust="spacingAndGlyphs" textLength="8" x="1545.8028" y="473.3241">1</text><!--MD5=[fa14470ca025e2dabf590937e8b2fb39]
link Payment to Invoice--><path d="M1635.534,739.9274 C1678.1281,733.6735 1743.4929,724.0763 1789.7597,717.2832 " fill="none" id="Payment-Invoice" style="stroke: #A80036; stroke-width: 1.0;"/><text fill="#000000" font-family="sans-serif" font-size="13" lengthAdjust="spacingAndGlyphs" textLength="58" x="1688" y="718.3128">generate</text><polygon fill="#000000" points="1749,712.3123,1755,715.3123,1749,718.3123,1749,712.3123" style="stroke: #000000; stroke-width: 1.0;"/><text fill="#000000" font-family="sans-serif" font-size="13" lengthAdjust="spacingAndGlyphs" textLength="8" x="1643.618" y="752.2088">1</text><text fill="#000000" font-family="sans-serif" font-size="13" lengthAdjust="spacingAndGlyphs" textLength="8" x="1773.8665" y="731.4731">1</text><!--MD5=[818a7ceb57ddd368999fbf099f390a6d]
link Reader to HistoricalTransaction--><path d="M542.0487,513.2459 C581.7557,513.2459 637.214,513.2459 682.8845,513.2459 " fill="none" id="Reader-HistoricalTransaction" style="stroke: #A80036; stroke-width: 1.0;"/><text fill="#000000" font-family="sans-serif" font-size="13" lengthAdjust="spacingAndGlyphs" textLength="63" x="576" y="509.3128">originates</text><polygon fill="#000000" points="642,503.3123,648,506.3123,642,509.3123,642,503.3123" style="stroke: #000000; stroke-width: 1.0;"/><text fill="#000000" font-family="sans-serif" font-size="13" lengthAdjust="spacingAndGlyphs" textLength="8" x="549.9305" y="526.3906">1</text><text fill="#000000" font-family="sans-serif" font-size="13" lengthAdjust="spacingAndGlyphs" textLength="23" x="652.132" y="525.9394">1..*</text><!--MD5=[09813f49c964f2362ae6ca00d2202492]
link HistoricalTransaction to Transaction--><path d="M847.2469,517.1573 C915.8678,521.0569 1016.114,528.2325 1103,540.2459 C1143.6488,545.8662 1188.349,554.3924 1225.8177,562.2165 " fill="none" id="HistoricalTransaction-Transaction" style="stroke: #A80036; stroke-width: 1.0;"/><text fill="#000000" font-family="sans-serif" font-size="13" lengthAdjust="spacingAndGlyphs" textLength="23" x="1018.5" y="521.3128">has</text><polygon fill="#000000" points="1044.5,515.3123,1050.5,518.3123,1044.5,521.3123,1044.5,515.3123" style="stroke: #000000; stroke-width: 1.0;"/><text fill="#000000" font-family="sans-serif" font-size="13" lengthAdjust="spacingAndGlyphs" textLength="8" x="854.9283" y="530.2464">1</text><text fill="#000000" font-family="sans-serif" font-size="13" lengthAdjust="spacingAndGlyphs" textLength="23" x="1194.8526" y="573.317">1..*</text><!--MD5=[9fd72751b03cb19134c76fd7e0acb422]
link HistoricalTransaction to Freelancer--><path d="M815.1137,533.3652 C858.628,550.835 921.9844,576.2709 969.7821,595.4605 " fill="none" id="HistoricalTransaction-Freelancer" style="stroke: #A80036; stroke-width: 1.0;"/><text fill="#000000" font-family="sans-serif" font-size="13" lengthAdjust="spacingAndGlyphs" textLength="23" x="890.5" y="556.3128">has</text><polygon fill="#000000" points="916.5,550.3123,922.5,553.3123,916.5,556.3123,916.5,550.3123" style="stroke: #000000; stroke-width: 1.0;"/><text fill="#000000" font-family="sans-serif" font-size="13" lengthAdjust="spacingAndGlyphs" textLength="8" x="820.0832" y="553.2187">1</text><text fill="#000000" font-family="sans-serif" font-size="13" lengthAdjust="spacingAndGlyphs" textLength="23" x="939.0825" y="605.6536">1..*</text><!--MD5=[d2c3650dbd07e79cdad2ffd4a879dec6]
link Collaborator to Freelancer--><path d="M801.6157,410.2877 C844.6041,449.0801 916.7556,514.1892 969.7712,562.0303 " fill="none" id="Collaborator-Freelancer" style="stroke: #A80036; stroke-width: 1.0;"/><text fill="#000000" font-family="sans-serif" font-size="13" lengthAdjust="spacingAndGlyphs" textLength="48" x="878" y="481.3128">creates</text><polygon fill="#000000" points="929,475.3123,935,478.3123,929,481.3123,929,475.3123" style="stroke: #000000; stroke-width: 1.0;"/><text fill="#000000" font-family="sans-serif" font-size="13" lengthAdjust="spacingAndGlyphs" textLength="8" x="799.6292" y="429.8777">1</text><text fill="#000000" font-family="sans-serif" font-size="13" lengthAdjust="spacingAndGlyphs" textLength="8" x="954.0352" y="568.3588">1</text><!--MD5=[f919d21ae7a75ef5ececc535e09d5009]
link Collaborator to Task--><path d="M819.6146,378.8299 C966.6047,383.093 1370.1191,394.7962 1527.9821,399.3747 " fill="none" id="Collaborator-Task" style="stroke: #A80036; stroke-width: 1.0;"/><text fill="#000000" font-family="sans-serif" font-size="13" lengthAdjust="spacingAndGlyphs" textLength="48" x="1134" y="384.3128">creates</text><polygon fill="#000000" points="1185,378.3123,1191,381.3123,1185,384.3123,1185,378.3123" style="stroke: #000000; stroke-width: 1.0;"/><text fill="#000000" font-family="sans-serif" font-size="13" lengthAdjust="spacingAndGlyphs" textLength="8" x="827.4909" y="392.1526">1</text><text fill="#000000" font-family="sans-serif" font-size="13" lengthAdjust="spacingAndGlyphs" textLength="23" x="1497.1428" y="412.0277">1..*</text><!--MD5=[8b5db564ea9bd1758097b07ca3fd81a4]
link Collaborator to Transaction--><path d="M819.6138,393.3093 C902.2779,418.1942 1063.574,468.9897 1196,524.2459 C1209.0131,529.6757 1222.6153,535.9189 1235.7137,542.2379 " fill="none" id="Collaborator-Transaction" style="stroke: #A80036; stroke-width: 1.0;"/><text fill="#000000" font-family="sans-serif" font-size="13" lengthAdjust="spacingAndGlyphs" textLength="48" x="1006" y="439.3128">creates</text><polygon fill="#000000" points="1057,433.3123,1063,436.3123,1057,439.3123,1057,433.3123" style="stroke: #000000; stroke-width: 1.0;"/><text fill="#000000" font-family="sans-serif" font-size="13" lengthAdjust="spacingAndGlyphs" textLength="8" x="827.49" y="408.5777">1</text><text fill="#000000" font-family="sans-serif" font-size="13" lengthAdjust="spacingAndGlyphs" textLength="23" x="1197.8832" y="531.2871">1..*</text><!--MD5=[04ce0ecdab38a3951889ff50c232570f]
link Collaborator to User--><path d="M819.6155,353.1065 C875.6706,328.3307 960.8794,290.6694 1005.9951,270.7287 " fill="none" id="Collaborator-User" style="stroke: #A80036; stroke-width: 1.0;"/><text fill="#000000" font-family="sans-serif" font-size="13" lengthAdjust="spacingAndGlyphs" textLength="46" x="879" y="299.3128">acts as</text><polygon fill="#000000" points="928,293.3123,934,296.3123,928,299.3123,928,293.3123" style="stroke: #000000; stroke-width: 1.0;"/><text fill="#000000" font-family="sans-serif" font-size="13" lengthAdjust="spacingAndGlyphs" textLength="8" x="827.492" y="362.9726">1</text><text fill="#000000" font-family="sans-serif" font-size="13" lengthAdjust="spacingAndGlyphs" textLength="8" x="990.0158" y="287.6632">1</text><!--MD5=[6e375067390e2f3ba6a7b78023d6e703]
@startuml
skinparam classAttributeIconSize 0
hide methods
left to right direction

class Platform{
}
class Freelancer {
  -String idF
  -String name
  -String levelExpertise
  -String email
  -String nif
  -String ibanAccount
  -String coutry
}

class Organization {
  -String nome
  -String email
  -String nif
}

class Collaborator{
  -String nome
  -String email
}

class Task {
  -String idT
  -String description
  -Time timeDuration
  -double costHour
  -String taskCategory
}

class Manager {
  -String nome
  -String email
}

class User {
}

class Invoice {
  -double amountE
  -double amountC
}

class Transaction {
  -Data endDate
  -double delay
  -String descriptionOfQuality
}

class Address{
  -String street
  -String doorNumber
  -String city
}

class Administrator {
}

class Payment{
}

class Reader {
  -String fileName
}

class HistoricalTransaction{
}

Freelancer "1" - - "1" Transaction: receive >
Freelancer "1" - - "1" Invoice: receives > 
Freelancer "1" - - "1" Payment: receives >
Freelancer "1" - - "1" Address: has >

Task "1..*" - - "1" Freelancer: made by >

Platform "1" - - "1..*" Transaction: has >
Platform "1" - - "1" Administrator: has >
Platform "1" - - "1..*" Organization: has registered >
Platform "1" - - "1..*" Freelancer: has >
Platform "1" - - "1..*" Task: has registered >

Organization "1" - - "1" Address: has >
Organization "1" - - "1" Manager: has >
Organization "1" - - "1" Collaborator: has >

Manager "1" - - "1" User: acts as >

Administrator "1" - - "1" Organization: registers >
Administrator "1" - - "1" User: acts as >
Administrator "1" - - "1" Collaborator: registers >
Administrator "1" - - "1" Manager: registers >

Transaction "1" - - "1" Payment: results in >
Transaction "1" - - "1" Task: has >


Payment "1" - - "1" Invoice: generate >


Reader "1" - - "1..*" HistoricalTransaction: originates >

HistoricalTransaction "1" - - "1..*" Transaction: has >
HistoricalTransaction "1" - - "1..*" Freelancer: has >

Collaborator "1" - - "1" Freelancer: creates >
Collaborator "1" - - "1..*" Task: creates >
Collaborator "1" - - "1..*" Transaction: creates >
Collaborator "1" - - "1" User: acts as >
@enduml

PlantUML version 1.2019.12(Sun Nov 03 10:24:54 UTC 2019)
(GPL source distribution)
Java Runtime: OpenJDK Runtime Environment
JVM: OpenJDK 64-Bit Server VM
Java Version: 1.8.0_232-heroku-b09
Operating System: Linux
Default Encoding: UTF-8
Language: en
Country: US
--></g></svg>