<?xml version="1.0" encoding="UTF-8" standalone="no"?><svg xmlns="http://www.w3.org/2000/svg" xmlns:xlink="http://www.w3.org/1999/xlink" contentScriptType="application/ecmascript" contentStyleType="text/css" height="769px" preserveAspectRatio="none" style="width:1995px;height:769px;" version="1.1" viewBox="0 0 1995 769" width="1995px" zoomAndPan="magnify"><defs><filter height="300%" id="f1eogpjgnfniag" width="300%" x="-1" y="-1"><feGaussianBlur result="blurOut" stdDeviation="2.0"/><feColorMatrix in="blurOut" result="blurOut2" type="matrix" values="0 0 0 0 0 0 0 0 0 0 0 0 0 0 0 0 0 0 .4 0"/><feOffset dx="4.0" dy="4.0" in="blurOut2" result="blurOut3"/><feBlend in="SourceGraphic" in2="blurOut3" mode="normal"/></filter></defs><g><!--MD5=[99b8db98afdc2c8404e39242ef4c1e65]
class Platform--><rect fill="#FEFECE" filter="url(#f1eogpjgnfniag)" height="40" id="Platform" style="stroke: #A80036; stroke-width: 1.5;" width="78" x="6" y="518"/><ellipse cx="21" cy="534" fill="#ADD1B2" rx="11" ry="11" style="stroke: #A80036; stroke-width: 1.0;"/><path d="M23,530.5 Q23.2031,530 23.4375,529.75 Q23.6719,529.5 23.9375,529.5 Q24.4063,529.5 24.7031,529.7813 Q25,530.0625 25,530.7188 L25,532.2813 Q25,532.9375 24.7188,533.2188 Q24.4375,533.5 24,533.5 Q23.6094,533.5 23.3594,533.3281 Q23.1094,533.1563 23,532.7031 Q22.9531,532.3906 22.7813,532.2188 Q22.4688,531.8906 21.9063,531.7031 Q21.3438,531.5 20.7813,531.5 Q20.0781,531.5 19.4844,531.7813 Q18.9063,532.0625 18.4531,532.6875 Q18,533.3125 18,534.1719 L18,535.0938 Q18,536.125 18.8438,536.8125 Q19.6875,537.5 21.1875,537.5 Q22.0781,537.5 22.7031,537.2969 Q23.0625,537.1875 23.4688,536.8281 Q23.7344,536.625 23.875,536.5625 Q24.0156,536.5 24.1875,536.5 Q24.5156,536.5 24.75,536.7656 Q25,537.0156 25,537.375 Q25,537.7188 24.6563,538.125 Q24.1563,538.7188 23.3594,539.0469 Q22.3125,539.5 21.0313,539.5 Q19.5313,539.5 18.3281,538.9063 Q17.3594,538.4375 16.6719,537.4219 Q16,536.4063 16,535.2031 L16,534.1094 Q16,532.8594 16.5938,531.7656 Q17.2031,530.6719 18.25,530.0938 Q19.3125,529.5 20.5,529.5 Q21.2188,529.5 21.8438,529.75 Q22.4688,530 23,530.5 Z "/><text fill="#000000" font-family="sans-serif" font-size="12" lengthAdjust="spacingAndGlyphs" textLength="46" x="35" y="538.9102">Platform</text><line style="stroke: #A80036; stroke-width: 1.5;" x1="7" x2="83" y1="550" y2="550"/><!--MD5=[1f687b5315377fe49fca59b457947463]
class Freelancer--><rect fill="#FEFECE" filter="url(#f1eogpjgnfniag)" height="136.8516" id="Freelancer" style="stroke: #A80036; stroke-width: 1.5;" width="114" x="1153" y="234.5"/><ellipse cx="1178.35" cy="250.5" fill="#ADD1B2" rx="11" ry="11" style="stroke: #A80036; stroke-width: 1.0;"/><path d="M1180.35,247 Q1180.5531,246.5 1180.7875,246.25 Q1181.0219,246 1181.2875,246 Q1181.7563,246 1182.0531,246.2813 Q1182.35,246.5625 1182.35,247.2188 L1182.35,248.7813 Q1182.35,249.4375 1182.0688,249.7188 Q1181.7875,250 1181.35,250 Q1180.9594,250 1180.7094,249.8281 Q1180.4594,249.6563 1180.35,249.2031 Q1180.3031,248.8906 1180.1313,248.7188 Q1179.8188,248.3906 1179.2563,248.2031 Q1178.6938,248 1178.1313,248 Q1177.4281,248 1176.8344,248.2813 Q1176.2563,248.5625 1175.8031,249.1875 Q1175.35,249.8125 1175.35,250.6719 L1175.35,251.5938 Q1175.35,252.625 1176.1938,253.3125 Q1177.0375,254 1178.5375,254 Q1179.4281,254 1180.0531,253.7969 Q1180.4125,253.6875 1180.8188,253.3281 Q1181.0844,253.125 1181.225,253.0625 Q1181.3656,253 1181.5375,253 Q1181.8656,253 1182.1,253.2656 Q1182.35,253.5156 1182.35,253.875 Q1182.35,254.2188 1182.0063,254.625 Q1181.5063,255.2188 1180.7094,255.5469 Q1179.6625,256 1178.3813,256 Q1176.8813,256 1175.6781,255.4063 Q1174.7094,254.9375 1174.0219,253.9219 Q1173.35,252.9063 1173.35,251.7031 L1173.35,250.6094 Q1173.35,249.3594 1173.9438,248.2656 Q1174.5531,247.1719 1175.6,246.5938 Q1176.6625,246 1177.85,246 Q1178.5688,246 1179.1938,246.25 Q1179.8188,246.5 1180.35,247 Z "/><text fill="#000000" font-family="sans-serif" font-size="12" lengthAdjust="spacingAndGlyphs" textLength="59" x="1194.65" y="255.4102">Freelancer</text><line style="stroke: #A80036; stroke-width: 1.5;" x1="1154" x2="1266" y1="266.5" y2="266.5"/><text fill="#000000" font-family="sans-serif" font-size="11" lengthAdjust="spacingAndGlyphs" textLength="49" x="1159" y="281.9189">-String idF</text><text fill="#000000" font-family="sans-serif" font-size="11" lengthAdjust="spacingAndGlyphs" textLength="61" x="1159" y="295.7549">-String name</text><text fill="#000000" font-family="sans-serif" font-size="11" lengthAdjust="spacingAndGlyphs" textLength="102" x="1159" y="309.5908">-String levelExpertise</text><text fill="#000000" font-family="sans-serif" font-size="11" lengthAdjust="spacingAndGlyphs" textLength="59" x="1159" y="323.4268">-String email</text><text fill="#000000" font-family="sans-serif" font-size="11" lengthAdjust="spacingAndGlyphs" textLength="47" x="1159" y="337.2627">-String nif</text><text fill="#000000" font-family="sans-serif" font-size="11" lengthAdjust="spacingAndGlyphs" textLength="96" x="1159" y="351.0986">-String ibanAccount</text><text fill="#000000" font-family="sans-serif" font-size="11" lengthAdjust="spacingAndGlyphs" textLength="66" x="1159" y="364.9346">-String coutry</text><!--MD5=[86c7c362de55a38b660185a1328fe18d]
class Organization--><rect fill="#FEFECE" filter="url(#f1eogpjgnfniag)" height="81.5078" id="Organization" style="stroke: #A80036; stroke-width: 1.5;" width="101" x="410" y="60"/><ellipse cx="425" cy="76" fill="#ADD1B2" rx="11" ry="11" style="stroke: #A80036; stroke-width: 1.0;"/><path d="M427,72.5 Q427.2031,72 427.4375,71.75 Q427.6719,71.5 427.9375,71.5 Q428.4063,71.5 428.7031,71.7813 Q429,72.0625 429,72.7188 L429,74.2813 Q429,74.9375 428.7188,75.2188 Q428.4375,75.5 428,75.5 Q427.6094,75.5 427.3594,75.3281 Q427.1094,75.1563 427,74.7031 Q426.9531,74.3906 426.7813,74.2188 Q426.4688,73.8906 425.9063,73.7031 Q425.3438,73.5 424.7813,73.5 Q424.0781,73.5 423.4844,73.7813 Q422.9063,74.0625 422.4531,74.6875 Q422,75.3125 422,76.1719 L422,77.0938 Q422,78.125 422.8438,78.8125 Q423.6875,79.5 425.1875,79.5 Q426.0781,79.5 426.7031,79.2969 Q427.0625,79.1875 427.4688,78.8281 Q427.7344,78.625 427.875,78.5625 Q428.0156,78.5 428.1875,78.5 Q428.5156,78.5 428.75,78.7656 Q429,79.0156 429,79.375 Q429,79.7188 428.6563,80.125 Q428.1563,80.7188 427.3594,81.0469 Q426.3125,81.5 425.0313,81.5 Q423.5313,81.5 422.3281,80.9063 Q421.3594,80.4375 420.6719,79.4219 Q420,78.4063 420,77.2031 L420,76.1094 Q420,74.8594 420.5938,73.7656 Q421.2031,72.6719 422.25,72.0938 Q423.3125,71.5 424.5,71.5 Q425.2188,71.5 425.8438,71.75 Q426.4688,72 427,72.5 Z "/><text fill="#000000" font-family="sans-serif" font-size="12" lengthAdjust="spacingAndGlyphs" textLength="69" x="439" y="80.9102">Organization</text><line style="stroke: #A80036; stroke-width: 1.5;" x1="411" x2="510" y1="92" y2="92"/><text fill="#000000" font-family="sans-serif" font-size="11" lengthAdjust="spacingAndGlyphs" textLength="61" x="416" y="107.4189">-String nome</text><text fill="#000000" font-family="sans-serif" font-size="11" lengthAdjust="spacingAndGlyphs" textLength="59" x="416" y="121.2549">-String email</text><text fill="#000000" font-family="sans-serif" font-size="11" lengthAdjust="spacingAndGlyphs" textLength="47" x="416" y="135.0908">-String nif</text><!--MD5=[f483d6e5de34a60207b28a5563be5e8b]
class Collaborator--><rect fill="#FEFECE" filter="url(#f1eogpjgnfniag)" height="67.6719" id="Collaborator" style="stroke: #A80036; stroke-width: 1.5;" width="100" x="629" y="342"/><ellipse cx="644" cy="358" fill="#ADD1B2" rx="11" ry="11" style="stroke: #A80036; stroke-width: 1.0;"/><path d="M646,354.5 Q646.2031,354 646.4375,353.75 Q646.6719,353.5 646.9375,353.5 Q647.4063,353.5 647.7031,353.7813 Q648,354.0625 648,354.7188 L648,356.2813 Q648,356.9375 647.7188,357.2188 Q647.4375,357.5 647,357.5 Q646.6094,357.5 646.3594,357.3281 Q646.1094,357.1563 646,356.7031 Q645.9531,356.3906 645.7813,356.2188 Q645.4688,355.8906 644.9063,355.7031 Q644.3438,355.5 643.7813,355.5 Q643.0781,355.5 642.4844,355.7813 Q641.9063,356.0625 641.4531,356.6875 Q641,357.3125 641,358.1719 L641,359.0938 Q641,360.125 641.8438,360.8125 Q642.6875,361.5 644.1875,361.5 Q645.0781,361.5 645.7031,361.2969 Q646.0625,361.1875 646.4688,360.8281 Q646.7344,360.625 646.875,360.5625 Q647.0156,360.5 647.1875,360.5 Q647.5156,360.5 647.75,360.7656 Q648,361.0156 648,361.375 Q648,361.7188 647.6563,362.125 Q647.1563,362.7188 646.3594,363.0469 Q645.3125,363.5 644.0313,363.5 Q642.5313,363.5 641.3281,362.9063 Q640.3594,362.4375 639.6719,361.4219 Q639,360.4063 639,359.2031 L639,358.1094 Q639,356.8594 639.5938,355.7656 Q640.2031,354.6719 641.25,354.0938 Q642.3125,353.5 643.5,353.5 Q644.2188,353.5 644.8438,353.75 Q645.4688,354 646,354.5 Z "/><text fill="#000000" font-family="sans-serif" font-size="12" lengthAdjust="spacingAndGlyphs" textLength="68" x="658" y="362.9102">Collaborator</text><line style="stroke: #A80036; stroke-width: 1.5;" x1="630" x2="728" y1="374" y2="374"/><text fill="#000000" font-family="sans-serif" font-size="11" lengthAdjust="spacingAndGlyphs" textLength="61" x="635" y="389.4189">-String nome</text><text fill="#000000" font-family="sans-serif" font-size="11" lengthAdjust="spacingAndGlyphs" textLength="59" x="635" y="403.2549">-String email</text><!--MD5=[b34797a66dc35cbf1d65f7e3ca75530e]
class Task--><rect fill="#FEFECE" filter="url(#f1eogpjgnfniag)" height="109.1797" id="Task" style="stroke: #A80036; stroke-width: 1.5;" width="111" x="1655" y="571.5"/><ellipse cx="1693.4" cy="587.5" fill="#ADD1B2" rx="11" ry="11" style="stroke: #A80036; stroke-width: 1.0;"/><path d="M1695.4,584 Q1695.6031,583.5 1695.8375,583.25 Q1696.0719,583 1696.3375,583 Q1696.8063,583 1697.1031,583.2813 Q1697.4,583.5625 1697.4,584.2188 L1697.4,585.7813 Q1697.4,586.4375 1697.1188,586.7188 Q1696.8375,587 1696.4,587 Q1696.0094,587 1695.7594,586.8281 Q1695.5094,586.6563 1695.4,586.2031 Q1695.3531,585.8906 1695.1813,585.7188 Q1694.8688,585.3906 1694.3063,585.2031 Q1693.7438,585 1693.1813,585 Q1692.4781,585 1691.8844,585.2813 Q1691.3063,585.5625 1690.8531,586.1875 Q1690.4,586.8125 1690.4,587.6719 L1690.4,588.5938 Q1690.4,589.625 1691.2438,590.3125 Q1692.0875,591 1693.5875,591 Q1694.4781,591 1695.1031,590.7969 Q1695.4625,590.6875 1695.8688,590.3281 Q1696.1344,590.125 1696.275,590.0625 Q1696.4156,590 1696.5875,590 Q1696.9156,590 1697.15,590.2656 Q1697.4,590.5156 1697.4,590.875 Q1697.4,591.2188 1697.0563,591.625 Q1696.5563,592.2188 1695.7594,592.5469 Q1694.7125,593 1693.4313,593 Q1691.9313,593 1690.7281,592.4063 Q1689.7594,591.9375 1689.0719,590.9219 Q1688.4,589.9063 1688.4,588.7031 L1688.4,587.6094 Q1688.4,586.3594 1688.9938,585.2656 Q1689.6031,584.1719 1690.65,583.5938 Q1691.7125,583 1692.9,583 Q1693.6188,583 1694.2438,583.25 Q1694.8688,583.5 1695.4,584 Z "/><text fill="#000000" font-family="sans-serif" font-size="12" lengthAdjust="spacingAndGlyphs" textLength="27" x="1712.6" y="592.4102">Task</text><line style="stroke: #A80036; stroke-width: 1.5;" x1="1656" x2="1765" y1="603.5" y2="603.5"/><text fill="#000000" font-family="sans-serif" font-size="11" lengthAdjust="spacingAndGlyphs" textLength="49" x="1661" y="618.9189">-String idT</text><text fill="#000000" font-family="sans-serif" font-size="11" lengthAdjust="spacingAndGlyphs" textLength="88" x="1661" y="632.7549">-String description</text><text fill="#000000" font-family="sans-serif" font-size="11" lengthAdjust="spacingAndGlyphs" textLength="88" x="1661" y="646.5908">-Time timeDuration</text><text fill="#000000" font-family="sans-serif" font-size="11" lengthAdjust="spacingAndGlyphs" textLength="83" x="1661" y="660.4268">-double costHour</text><text fill="#000000" font-family="sans-serif" font-size="11" lengthAdjust="spacingAndGlyphs" textLength="99" x="1661" y="674.2627">-String taskCategory</text><!--MD5=[b24ed8d4ae84bae9290d9aab401637c7]
class Manager--><rect fill="#FEFECE" filter="url(#f1eogpjgnfniag)" height="67.6719" id="Manager" style="stroke: #A80036; stroke-width: 1.5;" width="80" x="639" y="79"/><ellipse cx="654" cy="95" fill="#ADD1B2" rx="11" ry="11" style="stroke: #A80036; stroke-width: 1.0;"/><path d="M656,91.5 Q656.2031,91 656.4375,90.75 Q656.6719,90.5 656.9375,90.5 Q657.4063,90.5 657.7031,90.7813 Q658,91.0625 658,91.7188 L658,93.2813 Q658,93.9375 657.7188,94.2188 Q657.4375,94.5 657,94.5 Q656.6094,94.5 656.3594,94.3281 Q656.1094,94.1563 656,93.7031 Q655.9531,93.3906 655.7813,93.2188 Q655.4688,92.8906 654.9063,92.7031 Q654.3438,92.5 653.7813,92.5 Q653.0781,92.5 652.4844,92.7813 Q651.9063,93.0625 651.4531,93.6875 Q651,94.3125 651,95.1719 L651,96.0938 Q651,97.125 651.8438,97.8125 Q652.6875,98.5 654.1875,98.5 Q655.0781,98.5 655.7031,98.2969 Q656.0625,98.1875 656.4688,97.8281 Q656.7344,97.625 656.875,97.5625 Q657.0156,97.5 657.1875,97.5 Q657.5156,97.5 657.75,97.7656 Q658,98.0156 658,98.375 Q658,98.7188 657.6563,99.125 Q657.1563,99.7188 656.3594,100.0469 Q655.3125,100.5 654.0313,100.5 Q652.5313,100.5 651.3281,99.9063 Q650.3594,99.4375 649.6719,98.4219 Q649,97.4063 649,96.2031 L649,95.1094 Q649,93.8594 649.5938,92.7656 Q650.2031,91.6719 651.25,91.0938 Q652.3125,90.5 653.5,90.5 Q654.2188,90.5 654.8438,90.75 Q655.4688,91 656,91.5 Z "/><text fill="#000000" font-family="sans-serif" font-size="12" lengthAdjust="spacingAndGlyphs" textLength="48" x="668" y="99.9102">Manager</text><line style="stroke: #A80036; stroke-width: 1.5;" x1="640" x2="718" y1="111" y2="111"/><text fill="#000000" font-family="sans-serif" font-size="11" lengthAdjust="spacingAndGlyphs" textLength="61" x="645" y="126.4189">-String nome</text><text fill="#000000" font-family="sans-serif" font-size="11" lengthAdjust="spacingAndGlyphs" textLength="59" x="645" y="140.2549">-String email</text><!--MD5=[3fd616f346a44cd59a91eb10b19e157c]
class User--><rect fill="#FEFECE" filter="url(#f1eogpjgnfniag)" height="40" id="User" style="stroke: #A80036; stroke-width: 1.5;" width="59" x="931" y="180"/><ellipse cx="946" cy="196" fill="#ADD1B2" rx="11" ry="11" style="stroke: #A80036; stroke-width: 1.0;"/><path d="M948,192.5 Q948.2031,192 948.4375,191.75 Q948.6719,191.5 948.9375,191.5 Q949.4063,191.5 949.7031,191.7813 Q950,192.0625 950,192.7188 L950,194.2813 Q950,194.9375 949.7188,195.2188 Q949.4375,195.5 949,195.5 Q948.6094,195.5 948.3594,195.3281 Q948.1094,195.1563 948,194.7031 Q947.9531,194.3906 947.7813,194.2188 Q947.4688,193.8906 946.9063,193.7031 Q946.3438,193.5 945.7813,193.5 Q945.0781,193.5 944.4844,193.7813 Q943.9063,194.0625 943.4531,194.6875 Q943,195.3125 943,196.1719 L943,197.0938 Q943,198.125 943.8438,198.8125 Q944.6875,199.5 946.1875,199.5 Q947.0781,199.5 947.7031,199.2969 Q948.0625,199.1875 948.4688,198.8281 Q948.7344,198.625 948.875,198.5625 Q949.0156,198.5 949.1875,198.5 Q949.5156,198.5 949.75,198.7656 Q950,199.0156 950,199.375 Q950,199.7188 949.6563,200.125 Q949.1563,200.7188 948.3594,201.0469 Q947.3125,201.5 946.0313,201.5 Q944.5313,201.5 943.3281,200.9063 Q942.3594,200.4375 941.6719,199.4219 Q941,198.4063 941,197.2031 L941,196.1094 Q941,194.8594 941.5938,193.7656 Q942.2031,192.6719 943.25,192.0938 Q944.3125,191.5 945.5,191.5 Q946.2188,191.5 946.8438,191.75 Q947.4688,192 948,192.5 Z "/><text fill="#000000" font-family="sans-serif" font-size="12" lengthAdjust="spacingAndGlyphs" textLength="27" x="960" y="200.9102">User</text><line style="stroke: #A80036; stroke-width: 1.5;" x1="932" x2="989" y1="212" y2="212"/><!--MD5=[894442645724153f40a9f7a43026dbfc]
class Invoice--><rect fill="#FEFECE" filter="url(#f1eogpjgnfniag)" height="67.6719" id="Invoice" style="stroke: #A80036; stroke-width: 1.5;" width="93" x="1891" y="211"/><ellipse cx="1916.35" cy="227" fill="#ADD1B2" rx="11" ry="11" style="stroke: #A80036; stroke-width: 1.0;"/><path d="M1918.35,223.5 Q1918.5531,223 1918.7875,222.75 Q1919.0219,222.5 1919.2875,222.5 Q1919.7563,222.5 1920.0531,222.7813 Q1920.35,223.0625 1920.35,223.7188 L1920.35,225.2813 Q1920.35,225.9375 1920.0688,226.2188 Q1919.7875,226.5 1919.35,226.5 Q1918.9594,226.5 1918.7094,226.3281 Q1918.4594,226.1563 1918.35,225.7031 Q1918.3031,225.3906 1918.1313,225.2188 Q1917.8188,224.8906 1917.2563,224.7031 Q1916.6938,224.5 1916.1313,224.5 Q1915.4281,224.5 1914.8344,224.7813 Q1914.2563,225.0625 1913.8031,225.6875 Q1913.35,226.3125 1913.35,227.1719 L1913.35,228.0938 Q1913.35,229.125 1914.1938,229.8125 Q1915.0375,230.5 1916.5375,230.5 Q1917.4281,230.5 1918.0531,230.2969 Q1918.4125,230.1875 1918.8188,229.8281 Q1919.0844,229.625 1919.225,229.5625 Q1919.3656,229.5 1919.5375,229.5 Q1919.8656,229.5 1920.1,229.7656 Q1920.35,230.0156 1920.35,230.375 Q1920.35,230.7188 1920.0063,231.125 Q1919.5063,231.7188 1918.7094,232.0469 Q1917.6625,232.5 1916.3813,232.5 Q1914.8813,232.5 1913.6781,231.9063 Q1912.7094,231.4375 1912.0219,230.4219 Q1911.35,229.4063 1911.35,228.2031 L1911.35,227.1094 Q1911.35,225.8594 1911.9438,224.7656 Q1912.5531,223.6719 1913.6,223.0938 Q1914.6625,222.5 1915.85,222.5 Q1916.5688,222.5 1917.1938,222.75 Q1917.8188,223 1918.35,223.5 Z "/><text fill="#000000" font-family="sans-serif" font-size="12" lengthAdjust="spacingAndGlyphs" textLength="38" x="1932.65" y="231.9102">Invoice</text><line style="stroke: #A80036; stroke-width: 1.5;" x1="1892" x2="1983" y1="243" y2="243"/><text fill="#000000" font-family="sans-serif" font-size="11" lengthAdjust="spacingAndGlyphs" textLength="80" x="1897" y="258.4189">-double amountE</text><text fill="#000000" font-family="sans-serif" font-size="11" lengthAdjust="spacingAndGlyphs" textLength="81" x="1897" y="272.2549">-double amountC</text><!--MD5=[4555bb1b0911a5adf28ce6dbe60fed2e]
class Transaction--><rect fill="#FEFECE" filter="url(#f1eogpjgnfniag)" height="81.5078" id="Transaction" style="stroke: #A80036; stroke-width: 1.5;" width="145" x="1382" y="450"/><ellipse cx="1418.6" cy="466" fill="#ADD1B2" rx="11" ry="11" style="stroke: #A80036; stroke-width: 1.0;"/><path d="M1420.6,462.5 Q1420.8031,462 1421.0375,461.75 Q1421.2719,461.5 1421.5375,461.5 Q1422.0063,461.5 1422.3031,461.7813 Q1422.6,462.0625 1422.6,462.7188 L1422.6,464.2813 Q1422.6,464.9375 1422.3188,465.2188 Q1422.0375,465.5 1421.6,465.5 Q1421.2094,465.5 1420.9594,465.3281 Q1420.7094,465.1563 1420.6,464.7031 Q1420.5531,464.3906 1420.3813,464.2188 Q1420.0688,463.8906 1419.5063,463.7031 Q1418.9438,463.5 1418.3813,463.5 Q1417.6781,463.5 1417.0844,463.7813 Q1416.5063,464.0625 1416.0531,464.6875 Q1415.6,465.3125 1415.6,466.1719 L1415.6,467.0938 Q1415.6,468.125 1416.4438,468.8125 Q1417.2875,469.5 1418.7875,469.5 Q1419.6781,469.5 1420.3031,469.2969 Q1420.6625,469.1875 1421.0688,468.8281 Q1421.3344,468.625 1421.475,468.5625 Q1421.6156,468.5 1421.7875,468.5 Q1422.1156,468.5 1422.35,468.7656 Q1422.6,469.0156 1422.6,469.375 Q1422.6,469.7188 1422.2563,470.125 Q1421.7563,470.7188 1420.9594,471.0469 Q1419.9125,471.5 1418.6313,471.5 Q1417.1313,471.5 1415.9281,470.9063 Q1414.9594,470.4375 1414.2719,469.4219 Q1413.6,468.4063 1413.6,467.2031 L1413.6,466.1094 Q1413.6,464.8594 1414.1938,463.7656 Q1414.8031,462.6719 1415.85,462.0938 Q1416.9125,461.5 1418.1,461.5 Q1418.8188,461.5 1419.4438,461.75 Q1420.0688,462 1420.6,462.5 Z "/><text fill="#000000" font-family="sans-serif" font-size="12" lengthAdjust="spacingAndGlyphs" textLength="65" x="1437.4" y="470.9102">Transaction</text><line style="stroke: #A80036; stroke-width: 1.5;" x1="1383" x2="1526" y1="482" y2="482"/><text fill="#000000" font-family="sans-serif" font-size="11" lengthAdjust="spacingAndGlyphs" textLength="69" x="1388" y="497.4189">-Data endDate</text><text fill="#000000" font-family="sans-serif" font-size="11" lengthAdjust="spacingAndGlyphs" textLength="65" x="1388" y="511.2549">-double delay</text><text fill="#000000" font-family="sans-serif" font-size="11" lengthAdjust="spacingAndGlyphs" textLength="133" x="1388" y="525.0908">-String descriptionOfQuality</text><!--MD5=[0f39e4cb6f03951afbf6d14bd2505654]
class Address--><rect fill="#FEFECE" filter="url(#f1eogpjgnfniag)" height="81.5078" id="Address" style="stroke: #A80036; stroke-width: 1.5;" width="106" x="1401.5" y="34"/><ellipse cx="1429.1" cy="50" fill="#ADD1B2" rx="11" ry="11" style="stroke: #A80036; stroke-width: 1.0;"/><path d="M1431.1,46.5 Q1431.3031,46 1431.5375,45.75 Q1431.7719,45.5 1432.0375,45.5 Q1432.5063,45.5 1432.8031,45.7813 Q1433.1,46.0625 1433.1,46.7188 L1433.1,48.2813 Q1433.1,48.9375 1432.8188,49.2188 Q1432.5375,49.5 1432.1,49.5 Q1431.7094,49.5 1431.4594,49.3281 Q1431.2094,49.1563 1431.1,48.7031 Q1431.0531,48.3906 1430.8813,48.2188 Q1430.5688,47.8906 1430.0063,47.7031 Q1429.4438,47.5 1428.8813,47.5 Q1428.1781,47.5 1427.5844,47.7813 Q1427.0063,48.0625 1426.5531,48.6875 Q1426.1,49.3125 1426.1,50.1719 L1426.1,51.0938 Q1426.1,52.125 1426.9438,52.8125 Q1427.7875,53.5 1429.2875,53.5 Q1430.1781,53.5 1430.8031,53.2969 Q1431.1625,53.1875 1431.5688,52.8281 Q1431.8344,52.625 1431.975,52.5625 Q1432.1156,52.5 1432.2875,52.5 Q1432.6156,52.5 1432.85,52.7656 Q1433.1,53.0156 1433.1,53.375 Q1433.1,53.7188 1432.7563,54.125 Q1432.2563,54.7188 1431.4594,55.0469 Q1430.4125,55.5 1429.1313,55.5 Q1427.6313,55.5 1426.4281,54.9063 Q1425.4594,54.4375 1424.7719,53.4219 Q1424.1,52.4063 1424.1,51.2031 L1424.1,50.1094 Q1424.1,48.8594 1424.6938,47.7656 Q1425.3031,46.6719 1426.35,46.0938 Q1427.4125,45.5 1428.6,45.5 Q1429.3188,45.5 1429.9438,45.75 Q1430.5688,46 1431.1,46.5 Z "/><text fill="#000000" font-family="sans-serif" font-size="12" lengthAdjust="spacingAndGlyphs" textLength="46" x="1445.9" y="54.9102">Address</text><line style="stroke: #A80036; stroke-width: 1.5;" x1="1402.5" x2="1506.5" y1="66" y2="66"/><text fill="#000000" font-family="sans-serif" font-size="11" lengthAdjust="spacingAndGlyphs" textLength="63" x="1407.5" y="81.4189">-String street</text><text fill="#000000" font-family="sans-serif" font-size="11" lengthAdjust="spacingAndGlyphs" textLength="94" x="1407.5" y="95.2549">-String doorNumber</text><text fill="#000000" font-family="sans-serif" font-size="11" lengthAdjust="spacingAndGlyphs" textLength="52" x="1407.5" y="109.0908">-String city</text><!--MD5=[da547346deef918ea16944ba046651ef]
class Administrator--><rect fill="#FEFECE" filter="url(#f1eogpjgnfniag)" height="40" id="Administrator" style="stroke: #A80036; stroke-width: 1.5;" width="105" x="180" y="180"/><ellipse cx="195" cy="196" fill="#ADD1B2" rx="11" ry="11" style="stroke: #A80036; stroke-width: 1.0;"/><path d="M197,192.5 Q197.2031,192 197.4375,191.75 Q197.6719,191.5 197.9375,191.5 Q198.4063,191.5 198.7031,191.7813 Q199,192.0625 199,192.7188 L199,194.2813 Q199,194.9375 198.7188,195.2188 Q198.4375,195.5 198,195.5 Q197.6094,195.5 197.3594,195.3281 Q197.1094,195.1563 197,194.7031 Q196.9531,194.3906 196.7813,194.2188 Q196.4688,193.8906 195.9063,193.7031 Q195.3438,193.5 194.7813,193.5 Q194.0781,193.5 193.4844,193.7813 Q192.9063,194.0625 192.4531,194.6875 Q192,195.3125 192,196.1719 L192,197.0938 Q192,198.125 192.8438,198.8125 Q193.6875,199.5 195.1875,199.5 Q196.0781,199.5 196.7031,199.2969 Q197.0625,199.1875 197.4688,198.8281 Q197.7344,198.625 197.875,198.5625 Q198.0156,198.5 198.1875,198.5 Q198.5156,198.5 198.75,198.7656 Q199,199.0156 199,199.375 Q199,199.7188 198.6563,200.125 Q198.1563,200.7188 197.3594,201.0469 Q196.3125,201.5 195.0313,201.5 Q193.5313,201.5 192.3281,200.9063 Q191.3594,200.4375 190.6719,199.4219 Q190,198.4063 190,197.2031 L190,196.1094 Q190,194.8594 190.5938,193.7656 Q191.2031,192.6719 192.25,192.0938 Q193.3125,191.5 194.5,191.5 Q195.2188,191.5 195.8438,191.75 Q196.4688,192 197,192.5 Z "/><text fill="#000000" font-family="sans-serif" font-size="12" lengthAdjust="spacingAndGlyphs" textLength="73" x="209" y="200.9102">Administrator</text><line style="stroke: #A80036; stroke-width: 1.5;" x1="181" x2="284" y1="212" y2="212"/><!--MD5=[764fca796ce7f635542948d8fc39db5e]
class Payment--><rect fill="#FEFECE" filter="url(#f1eogpjgnfniag)" height="40" id="Payment" style="stroke: #A80036; stroke-width: 1.5;" width="80" x="1670.5" y="269"/><ellipse cx="1685.5" cy="285" fill="#ADD1B2" rx="11" ry="11" style="stroke: #A80036; stroke-width: 1.0;"/><path d="M1687.5,281.5 Q1687.7031,281 1687.9375,280.75 Q1688.1719,280.5 1688.4375,280.5 Q1688.9063,280.5 1689.2031,280.7813 Q1689.5,281.0625 1689.5,281.7188 L1689.5,283.2813 Q1689.5,283.9375 1689.2188,284.2188 Q1688.9375,284.5 1688.5,284.5 Q1688.1094,284.5 1687.8594,284.3281 Q1687.6094,284.1563 1687.5,283.7031 Q1687.4531,283.3906 1687.2813,283.2188 Q1686.9688,282.8906 1686.4063,282.7031 Q1685.8438,282.5 1685.2813,282.5 Q1684.5781,282.5 1683.9844,282.7813 Q1683.4063,283.0625 1682.9531,283.6875 Q1682.5,284.3125 1682.5,285.1719 L1682.5,286.0938 Q1682.5,287.125 1683.3438,287.8125 Q1684.1875,288.5 1685.6875,288.5 Q1686.5781,288.5 1687.2031,288.2969 Q1687.5625,288.1875 1687.9688,287.8281 Q1688.2344,287.625 1688.375,287.5625 Q1688.5156,287.5 1688.6875,287.5 Q1689.0156,287.5 1689.25,287.7656 Q1689.5,288.0156 1689.5,288.375 Q1689.5,288.7188 1689.1563,289.125 Q1688.6563,289.7188 1687.8594,290.0469 Q1686.8125,290.5 1685.5313,290.5 Q1684.0313,290.5 1682.8281,289.9063 Q1681.8594,289.4375 1681.1719,288.4219 Q1680.5,287.4063 1680.5,286.2031 L1680.5,285.1094 Q1680.5,283.8594 1681.0938,282.7656 Q1681.7031,281.6719 1682.75,281.0938 Q1683.8125,280.5 1685,280.5 Q1685.7188,280.5 1686.3438,280.75 Q1686.9688,281 1687.5,281.5 Z "/><text fill="#000000" font-family="sans-serif" font-size="12" lengthAdjust="spacingAndGlyphs" textLength="48" x="1699.5" y="289.9102">Payment</text><line style="stroke: #A80036; stroke-width: 1.5;" x1="1671.5" x2="1749.5" y1="301" y2="301"/><!--MD5=[e86a4777f2c0372cf9fb3cd047e1466e]
class Reader--><rect fill="#FEFECE" filter="url(#f1eogpjgnfniag)" height="53.8359" id="Reader" style="stroke: #A80036; stroke-width: 1.5;" width="88" x="635" y="253"/><ellipse cx="656.75" cy="269" fill="#ADD1B2" rx="11" ry="11" style="stroke: #A80036; stroke-width: 1.0;"/><path d="M658.75,265.5 Q658.9531,265 659.1875,264.75 Q659.4219,264.5 659.6875,264.5 Q660.1563,264.5 660.4531,264.7813 Q660.75,265.0625 660.75,265.7188 L660.75,267.2813 Q660.75,267.9375 660.4688,268.2188 Q660.1875,268.5 659.75,268.5 Q659.3594,268.5 659.1094,268.3281 Q658.8594,268.1563 658.75,267.7031 Q658.7031,267.3906 658.5313,267.2188 Q658.2188,266.8906 657.6563,266.7031 Q657.0938,266.5 656.5313,266.5 Q655.8281,266.5 655.2344,266.7813 Q654.6563,267.0625 654.2031,267.6875 Q653.75,268.3125 653.75,269.1719 L653.75,270.0938 Q653.75,271.125 654.5938,271.8125 Q655.4375,272.5 656.9375,272.5 Q657.8281,272.5 658.4531,272.2969 Q658.8125,272.1875 659.2188,271.8281 Q659.4844,271.625 659.625,271.5625 Q659.7656,271.5 659.9375,271.5 Q660.2656,271.5 660.5,271.7656 Q660.75,272.0156 660.75,272.375 Q660.75,272.7188 660.4063,273.125 Q659.9063,273.7188 659.1094,274.0469 Q658.0625,274.5 656.7813,274.5 Q655.2813,274.5 654.0781,273.9063 Q653.1094,273.4375 652.4219,272.4219 Q651.75,271.4063 651.75,270.2031 L651.75,269.1094 Q651.75,267.8594 652.3438,266.7656 Q652.9531,265.6719 654,265.0938 Q655.0625,264.5 656.25,264.5 Q656.9688,264.5 657.5938,264.75 Q658.2188,265 658.75,265.5 Z "/><text fill="#000000" font-family="sans-serif" font-size="12" lengthAdjust="spacingAndGlyphs" textLength="41" x="672.25" y="273.9102">Reader</text><line style="stroke: #A80036; stroke-width: 1.5;" x1="636" x2="722" y1="285" y2="285"/><text fill="#000000" font-family="sans-serif" font-size="11" lengthAdjust="spacingAndGlyphs" textLength="76" x="641" y="300.4189">-String fileName</text><!--MD5=[5f120048d977cf6fddcd4f613ae1ac70]
class HistoricalTransaction--><rect fill="#FEFECE" filter="url(#f1eogpjgnfniag)" height="40" id="HistoricalTransaction" style="stroke: #A80036; stroke-width: 1.5;" width="149" x="886" y="363"/><ellipse cx="901" cy="379" fill="#ADD1B2" rx="11" ry="11" style="stroke: #A80036; stroke-width: 1.0;"/><path d="M903,375.5 Q903.2031,375 903.4375,374.75 Q903.6719,374.5 903.9375,374.5 Q904.4063,374.5 904.7031,374.7813 Q905,375.0625 905,375.7188 L905,377.2813 Q905,377.9375 904.7188,378.2188 Q904.4375,378.5 904,378.5 Q903.6094,378.5 903.3594,378.3281 Q903.1094,378.1563 903,377.7031 Q902.9531,377.3906 902.7813,377.2188 Q902.4688,376.8906 901.9063,376.7031 Q901.3438,376.5 900.7813,376.5 Q900.0781,376.5 899.4844,376.7813 Q898.9063,377.0625 898.4531,377.6875 Q898,378.3125 898,379.1719 L898,380.0938 Q898,381.125 898.8438,381.8125 Q899.6875,382.5 901.1875,382.5 Q902.0781,382.5 902.7031,382.2969 Q903.0625,382.1875 903.4688,381.8281 Q903.7344,381.625 903.875,381.5625 Q904.0156,381.5 904.1875,381.5 Q904.5156,381.5 904.75,381.7656 Q905,382.0156 905,382.375 Q905,382.7188 904.6563,383.125 Q904.1563,383.7188 903.3594,384.0469 Q902.3125,384.5 901.0313,384.5 Q899.5313,384.5 898.3281,383.9063 Q897.3594,383.4375 896.6719,382.4219 Q896,381.4063 896,380.2031 L896,379.1094 Q896,377.8594 896.5938,376.7656 Q897.2031,375.6719 898.25,375.0938 Q899.3125,374.5 900.5,374.5 Q901.2188,374.5 901.8438,374.75 Q902.4688,375 903,375.5 Z "/><text fill="#000000" font-family="sans-serif" font-size="12" lengthAdjust="spacingAndGlyphs" textLength="117" x="915" y="383.9102">HistoricalTransaction</text><line style="stroke: #A80036; stroke-width: 1.5;" x1="887" x2="1034" y1="395" y2="395"/><!--MD5=[83bb469d45366b675450ee1d8d93a557]
link Freelancer to Transaction--><path d="M1267.46,360.364 C1277.05,369.259 1287.11,378.104 1297,386 C1319.83,404.225 1327.7,405.787 1352,422 C1365.47,430.987 1379.89,440.719 1393.51,449.962 " fill="none" id="Freelancer-Transaction" style="stroke: #A80036; stroke-width: 1.0;"/><text fill="#000000" font-family="sans-serif" font-size="13" lengthAdjust="spacingAndGlyphs" textLength="40" x="1298" y="382.4951">receive</text><polygon fill="#000000" points="1341,375.6758,1347,378.6758,1341,381.6758,1341,375.6758" style="stroke: #000000; stroke-width: 1.0;"/><text fill="#000000" font-family="sans-serif" font-size="13" lengthAdjust="spacingAndGlyphs" textLength="7" x="1274.8895" y="381.8558">1</text><text fill="#000000" font-family="sans-serif" font-size="13" lengthAdjust="spacingAndGlyphs" textLength="7" x="1375.4258" y="439.1012">1</text><!--MD5=[2dffed8b43a6af8e86a4c453c2e29d39]
link Freelancer to Invoice--><path d="M1267.3,280.978 C1277.08,277.843 1287.24,275.007 1297,273 C1514.77,228.214 1573.81,245.783 1796,238 C1824.87,236.989 1832.14,236.665 1861,238 C1870.6,238.444 1880.86,239.204 1890.63,240.064 " fill="none" id="Freelancer-Invoice" style="stroke: #A80036; stroke-width: 1.0;"/><text fill="#000000" font-family="sans-serif" font-size="13" lengthAdjust="spacingAndGlyphs" textLength="47" x="1561" y="236.4951">receives</text><polygon fill="#000000" points="1611,229.6758,1617,232.6758,1611,235.6758,1611,229.6758" style="stroke: #000000; stroke-width: 1.0;"/><text fill="#000000" font-family="sans-serif" font-size="13" lengthAdjust="spacingAndGlyphs" textLength="7" x="1275.09" y="292.7086">1</text><text fill="#000000" font-family="sans-serif" font-size="13" lengthAdjust="spacingAndGlyphs" textLength="7" x="1875.9171" y="254.0803">1</text><!--MD5=[a1bcd49bda1d48eee0717f7ad534cdd6]
link Freelancer to Payment--><path d="M1267.22,301.421 C1369.19,298.557 1582.26,292.574 1670.22,290.103 " fill="none" id="Freelancer-Payment" style="stroke: #A80036; stroke-width: 1.0;"/><text fill="#000000" font-family="sans-serif" font-size="13" lengthAdjust="spacingAndGlyphs" textLength="47" x="1424.5" y="290.4951">receives</text><polygon fill="#000000" points="1474.5,283.6758,1480.5,286.6758,1474.5,289.6758,1474.5,283.6758" style="stroke: #000000; stroke-width: 1.0;"/><text fill="#000000" font-family="sans-serif" font-size="13" lengthAdjust="spacingAndGlyphs" textLength="7" x="1274.9998" y="315.7708">1</text><text fill="#000000" font-family="sans-serif" font-size="13" lengthAdjust="spacingAndGlyphs" textLength="7" x="1655.4217" y="305.2509">1</text><!--MD5=[874150c88719dac3f651931978d26083]
link Freelancer to Address--><path d="M1258.26,234.337 C1270.12,219.038 1283.38,203.396 1297,190 C1328.73,158.795 1369.35,129.195 1401.25,107.842 " fill="none" id="Freelancer-Address" style="stroke: #A80036; stroke-width: 1.0;"/><text fill="#000000" font-family="sans-serif" font-size="13" lengthAdjust="spacingAndGlyphs" textLength="21" x="1307.5" y="140.4951">has</text><polygon fill="#000000" points="1331.5,133.6758,1337.5,136.6758,1331.5,139.6758,1331.5,133.6758" style="stroke: #000000; stroke-width: 1.0;"/><text fill="#000000" font-family="sans-serif" font-size="13" lengthAdjust="spacingAndGlyphs" textLength="7" x="1256.1556" y="223.4744">1</text><text fill="#000000" font-family="sans-serif" font-size="13" lengthAdjust="spacingAndGlyphs" textLength="7" x="1386.6242" y="126.882">1</text><!--MD5=[8853e9d83a8841c20c4ef075af762602]
link Task to Freelancer--><path d="M1704.11,571.425 C1695.98,519.018 1675.64,441.444 1625,397 C1572.1,350.572 1367.68,321.098 1267.28,309.123 " fill="none" id="Task-Freelancer" style="stroke: #A80036; stroke-width: 1.0;"/><polygon fill="#000000" points="1430,314.6758,1424,317.6758,1430,320.6758,1430,314.6758" style="stroke: #000000; stroke-width: 1.0;"/><text fill="#000000" font-family="sans-serif" font-size="13" lengthAdjust="spacingAndGlyphs" textLength="50" x="1436" y="321.4951">made by</text><text fill="#000000" font-family="sans-serif" font-size="13" lengthAdjust="spacingAndGlyphs" textLength="20" x="1681.9076" y="560.5231">1..*</text><text fill="#000000" font-family="sans-serif" font-size="13" lengthAdjust="spacingAndGlyphs" textLength="7" x="1275.0674" y="324.4597">1</text><!--MD5=[3781be57b219e856d6dd67e0b949b069]
link Platform to Transaction--><path d="M60.569,558.182 C88.9611,594.928 155.605,669 231.5,669 C231.5,669 231.5,669 808.5,669 C1023.41,669 1264.54,576.043 1381.77,524.48 " fill="none" id="Platform-Transaction" style="stroke: #A80036; stroke-width: 1.0;"/><text fill="#000000" font-family="sans-serif" font-size="13" lengthAdjust="spacingAndGlyphs" textLength="21" x="662" y="665.4951">has</text><polygon fill="#000000" points="686,658.6758,692,661.6758,686,664.6758,686,658.6758" style="stroke: #000000; stroke-width: 1.0;"/><text fill="#000000" font-family="sans-serif" font-size="13" lengthAdjust="spacingAndGlyphs" textLength="7" x="56.9634" y="579.6527">1</text><text fill="#000000" font-family="sans-serif" font-size="13" lengthAdjust="spacingAndGlyphs" textLength="20" x="1353.8848" y="541.9689">1..*</text><!--MD5=[0f7004bed4496639b3a5258ab2ead378]
link Platform to Administrator--><path d="M57.0483,517.869 C90.0413,457.752 187.592,280.004 220.51,220.026 " fill="none" id="Platform-Administrator" style="stroke: #A80036; stroke-width: 1.0;"/><polygon fill="#000000" points="121,341,124,335,127,341,121,341" style="stroke: #000000; stroke-width: 1.0;"/><text fill="#000000" font-family="sans-serif" font-size="13" lengthAdjust="spacingAndGlyphs" textLength="21" x="115" y="357.4951">has</text><text fill="#000000" font-family="sans-serif" font-size="13" lengthAdjust="spacingAndGlyphs" textLength="7" x="52.5594" y="507.1523">1</text><text fill="#000000" font-family="sans-serif" font-size="13" lengthAdjust="spacingAndGlyphs" textLength="7" x="209.1534" y="241.4529">1</text><!--MD5=[7640e466c042ba2d6f9c19c816f7f0fc]
link Platform to Organization--><path d="M47.2415,517.67 C52.1351,455.451 75.3632,265.632 180,163 C241.388,102.789 347.448,95.642 409.769,97.338 " fill="none" id="Platform-Organization" style="stroke: #A80036; stroke-width: 1.0;"/><polygon fill="#000000" points="221.5,103,224.5,97,227.5,103,221.5,103" style="stroke: #000000; stroke-width: 1.0;"/><text fill="#000000" font-family="sans-serif" font-size="13" lengthAdjust="spacingAndGlyphs" textLength="82" x="185" y="119.4951">has registered</text><text fill="#000000" font-family="sans-serif" font-size="13" lengthAdjust="spacingAndGlyphs" textLength="7" x="39.8875" y="507.2467">1</text><text fill="#000000" font-family="sans-serif" font-size="13" lengthAdjust="spacingAndGlyphs" textLength="20" x="381.9878" y="111.443">1..*</text><!--MD5=[22697d4d863c2e08ab1d60ca0d61f844]
link Platform to Freelancer--><path d="M84.0138,538 C121.51,538 180.455,538 231.5,538 C231.5,538 231.5,538 680,538 C866.166,538 1059.91,414.944 1152.78,346.926 " fill="none" id="Platform-Freelancer" style="stroke: #A80036; stroke-width: 1.0;"/><text fill="#000000" font-family="sans-serif" font-size="13" lengthAdjust="spacingAndGlyphs" textLength="21" x="553" y="534.4951">has</text><polygon fill="#000000" points="577,527.6758,583,530.6758,577,533.6758,577,527.6758" style="stroke: #000000; stroke-width: 1.0;"/><text fill="#000000" font-family="sans-serif" font-size="13" lengthAdjust="spacingAndGlyphs" textLength="7" x="92.118" y="553.0536">1</text><text fill="#000000" font-family="sans-serif" font-size="13" lengthAdjust="spacingAndGlyphs" textLength="20" x="1125.0077" y="366.454">1..*</text><!--MD5=[ed78a468ed200fe64308209ec6c86f1e]
link Platform to Task--><path d="M52.1881,558.21 C70.1759,612.426 127.86,757 231.5,757 C231.5,757 231.5,757 1455.5,757 C1530.67,757 1605.83,711.1207 1654.66,673.6646 " fill="none" id="Platform-Task" style="stroke: #A80036; stroke-width: 1.0;"/><text fill="#000000" font-family="sans-serif" font-size="13" lengthAdjust="spacingAndGlyphs" textLength="82" x="760" y="753.4951">has registered</text><polygon fill="#000000" points="845,746.6758,851,749.6758,845,752.6758,845,746.6758" style="stroke: #000000; stroke-width: 1.0;"/><text fill="#000000" font-family="sans-serif" font-size="13" lengthAdjust="spacingAndGlyphs" textLength="7" x="46.1793" y="579.3338">1</text><text fill="#000000" font-family="sans-serif" font-size="13" lengthAdjust="spacingAndGlyphs" textLength="20" x="1627.0473" y="693.6059">1..*</text><!--MD5=[ec97d39b7e7a4ec2b79aa9dbbb3f5070]
link Organization to Address--><path d="M511.044,83.226 C577.402,61.048 699.234,26 806.5,26 C806.5,26 806.5,26 1211,26 C1277.57,26 1352.43,43.963 1401.13,58.137 " fill="none" id="Organization-Address" style="stroke: #A80036; stroke-width: 1.0;"/><text fill="#000000" font-family="sans-serif" font-size="13" lengthAdjust="spacingAndGlyphs" textLength="21" x="943.5" y="22.4951">has</text><polygon fill="#000000" points="967.5,15.6758,973.5,18.6758,967.5,21.6758,967.5,15.6758" style="stroke: #000000; stroke-width: 1.0;"/><text fill="#000000" font-family="sans-serif" font-size="13" lengthAdjust="spacingAndGlyphs" textLength="7" x="518.9817" y="95.3475">1</text><text fill="#000000" font-family="sans-serif" font-size="13" lengthAdjust="spacingAndGlyphs" textLength="7" x="1386.4881" y="70.4978">1</text><!--MD5=[bc039f41cf0b27fadee5cae63fc6e1fe]
link Organization to Manager--><path d="M511.169,103.753 C549.87,105.898 602.865,108.835 638.658,110.819 " fill="none" id="Organization-Manager" style="stroke: #A80036; stroke-width: 1.0;"/><text fill="#000000" font-family="sans-serif" font-size="13" lengthAdjust="spacingAndGlyphs" textLength="21" x="553" y="102.4951">has</text><polygon fill="#000000" points="577,95.6758,583,98.6758,577,101.6758,577,95.6758" style="stroke: #000000; stroke-width: 1.0;"/><text fill="#000000" font-family="sans-serif" font-size="13" lengthAdjust="spacingAndGlyphs" textLength="7" x="519.1251" y="118.8894">1</text><text fill="#000000" font-family="sans-serif" font-size="13" lengthAdjust="spacingAndGlyphs" textLength="7" x="624.1227" y="125.3727">1</text><!--MD5=[45817597bcd7048073a670d966abfd17]
link Organization to Collaborator--><path d="M511.11,124.457 C545.611,141.735 587.412,164.926 599,181 C637.23,234.03 598.499,267.177 629,325 C632.094,330.865 636.062,336.524 640.399,341.805 " fill="none" id="Organization-Collaborator" style="stroke: #A80036; stroke-width: 1.0;"/><text fill="#000000" font-family="sans-serif" font-size="13" lengthAdjust="spacingAndGlyphs" textLength="21" x="553" y="136.4951">has</text><polygon fill="#000000" points="559,145.3516,562,151.3516,565,145.3516,559,145.3516" style="stroke: #000000; stroke-width: 1.0;"/><text fill="#000000" font-family="sans-serif" font-size="13" lengthAdjust="spacingAndGlyphs" textLength="7" x="519.0574" y="142.6343">1</text><text fill="#000000" font-family="sans-serif" font-size="13" lengthAdjust="spacingAndGlyphs" textLength="7" x="625.1104" y="331.0599">1</text><!--MD5=[6eb6e197a729f6ec2412743e0bdbca1d]
link Manager to User--><path d="M719.158,125.189 C776.098,142.912 880.435,175.389 930.799,191.066 " fill="none" id="Manager-User" style="stroke: #A80036; stroke-width: 1.0;"/><text fill="#000000" font-family="sans-serif" font-size="13" lengthAdjust="spacingAndGlyphs" textLength="43" x="779.5" y="134.4951">acts as</text><polygon fill="#000000" points="825.5,127.6758,831.5,130.6758,825.5,133.6758,825.5,127.6758" style="stroke: #000000; stroke-width: 1.0;"/><text fill="#000000" font-family="sans-serif" font-size="13" lengthAdjust="spacingAndGlyphs" textLength="7" x="726.9346" y="142.3408">1</text><text fill="#000000" font-family="sans-serif" font-size="13" lengthAdjust="spacingAndGlyphs" textLength="7" x="916.1213" y="204.3858">1</text><!--MD5=[2a41c1af413c0662bf55a6b8913ea24f]
link Administrator to Organization--><path d="M279.234,179.966 C317.155,163.355 370.964,139.783 409.912,122.722 " fill="none" id="Administrator-Organization" style="stroke: #A80036; stroke-width: 1.0;"/><text fill="#000000" font-family="sans-serif" font-size="13" lengthAdjust="spacingAndGlyphs" textLength="50" x="316" y="132.4951">registers</text><polygon fill="#000000" points="369,125.6758,375,128.6758,369,131.6758,369,125.6758" style="stroke: #000000; stroke-width: 1.0;"/><text fill="#000000" font-family="sans-serif" font-size="13" lengthAdjust="spacingAndGlyphs" textLength="7" x="284.934" y="169.2778">1</text><text fill="#000000" font-family="sans-serif" font-size="13" lengthAdjust="spacingAndGlyphs" textLength="7" x="394.9678" y="140.6445">1</text><!--MD5=[edc107c0a572352bcd12c9afaba4390b]
link Administrator to User--><path d="M285.181,201.535 C346.277,203.267 451.028,205.976 541,207 C687.595,208.668 863.053,203.36 930.834,201.035 " fill="none" id="Administrator-User" style="stroke: #A80036; stroke-width: 1.0;"/><text fill="#000000" font-family="sans-serif" font-size="13" lengthAdjust="spacingAndGlyphs" textLength="43" x="542" y="203.4951">acts as</text><polygon fill="#000000" points="588,196.6758,594,199.6758,588,202.6758,588,196.6758" style="stroke: #000000; stroke-width: 1.0;"/><text fill="#000000" font-family="sans-serif" font-size="13" lengthAdjust="spacingAndGlyphs" textLength="7" x="293.0815" y="216.3957">1</text><text fill="#000000" font-family="sans-serif" font-size="13" lengthAdjust="spacingAndGlyphs" textLength="7" x="916.1644" y="216.6601">1</text><!--MD5=[757406b2e460220911d4cccaa97c87d9]
link Administrator to Collaborator--><path d="M284.057,220.018 C370.069,254.075 543.801,322.864 628.848,356.538 " fill="none" id="Administrator-Collaborator" style="stroke: #A80036; stroke-width: 1.0;"/><text fill="#000000" font-family="sans-serif" font-size="13" lengthAdjust="spacingAndGlyphs" textLength="50" x="429" y="266.4951">registers</text><polygon fill="#000000" points="482,259.6758,488,262.6758,482,265.6758,482,259.6758" style="stroke: #000000; stroke-width: 1.0;"/><text fill="#000000" font-family="sans-serif" font-size="13" lengthAdjust="spacingAndGlyphs" textLength="7" x="290.573" y="241.4426">1</text><text fill="#000000" font-family="sans-serif" font-size="13" lengthAdjust="spacingAndGlyphs" textLength="7" x="613.9679" y="368.3996">1</text><!--MD5=[64d713fdb760e3b6b59069371d93ba85]
link Administrator to Manager--><path d="M246.981,179.838 C273.127,142.943 334.816,66.135 410,42 C490.201,16.254 585.989,58.886 638.575,88.442 " fill="none" id="Administrator-Manager" style="stroke: #A80036; stroke-width: 1.0;"/><text fill="#000000" font-family="sans-serif" font-size="13" lengthAdjust="spacingAndGlyphs" textLength="50" x="429" y="31.4951">registers</text><polygon fill="#000000" points="482,24.6758,488,27.6758,482,30.6758,482,24.6758" style="stroke: #000000; stroke-width: 1.0;"/><text fill="#000000" font-family="sans-serif" font-size="13" lengthAdjust="spacingAndGlyphs" textLength="7" x="243.2067" y="169.1122">1</text><text fill="#000000" font-family="sans-serif" font-size="13" lengthAdjust="spacingAndGlyphs" textLength="7" x="624.0254" y="99.1496">1</text><!--MD5=[ee25a9e267be641cadbaef6c1594e19f]
link Transaction to Payment--><path d="M1507.21,449.879 C1561.02,407.082 1643.06,341.836 1684.17,309.146 " fill="none" id="Transaction-Payment" style="stroke: #A80036; stroke-width: 1.0;"/><text fill="#000000" font-family="sans-serif" font-size="13" lengthAdjust="spacingAndGlyphs" textLength="53" x="1558" y="356.4951">results in</text><polygon fill="#000000" points="1614,349.6758,1620,352.6758,1614,355.6758,1614,349.6758" style="stroke: #000000; stroke-width: 1.0;"/><text fill="#000000" font-family="sans-serif" font-size="13" lengthAdjust="spacingAndGlyphs" textLength="7" x="1508.668" y="439.004">1</text><text fill="#000000" font-family="sans-serif" font-size="13" lengthAdjust="spacingAndGlyphs" textLength="7" x="1668.7803" y="330.6066">1</text><!--MD5=[8e4873cec2cb3febaaa9495c716fc885]
link Transaction to Task--><path d="M1527.27,529.144 C1567.76,550.664 1617.55,577.128 1654.85,596.952 " fill="none" id="Transaction-Task" style="stroke: #A80036; stroke-width: 1.0;"/><text fill="#000000" font-family="sans-serif" font-size="13" lengthAdjust="spacingAndGlyphs" textLength="21" x="1574" y="542.4951">has</text><polygon fill="#000000" points="1598,535.6758,1604,538.6758,1598,541.6758,1598,535.6758" style="stroke: #000000; stroke-width: 1.0;"/><text fill="#000000" font-family="sans-serif" font-size="13" lengthAdjust="spacingAndGlyphs" textLength="7" x="1535.1353" y="547.4412">1</text><text fill="#000000" font-family="sans-serif" font-size="13" lengthAdjust="spacingAndGlyphs" textLength="7" x="1639.9017" y="607.6303">1</text><!--MD5=[fa14470ca025e2dabf590937e8b2fb39]
link Payment to Invoice--><path d="M1750.54,281.477 C1780.71,275.651 1823.51,267.36 1861,260 C1870.7,258.095 1881.11,256.038 1890.99,254.076 " fill="none" id="Payment-Invoice" style="stroke: #A80036; stroke-width: 1.0;"/><text fill="#000000" font-family="sans-serif" font-size="13" lengthAdjust="spacingAndGlyphs" textLength="50" x="1797" y="256.4951">generate</text><polygon fill="#000000" points="1850,249.6758,1856,252.6758,1850,255.6758,1850,249.6758" style="stroke: #000000; stroke-width: 1.0;"/><text fill="#000000" font-family="sans-serif" font-size="13" lengthAdjust="spacingAndGlyphs" textLength="7" x="1758.5677" y="295.0925">1</text><text fill="#000000" font-family="sans-serif" font-size="13" lengthAdjust="spacingAndGlyphs" textLength="7" x="1876.0197" y="270.3468">1</text><!--MD5=[818a7ceb57ddd368999fbf099f390a6d]
link Reader to HistoricalTransaction--><path d="M723.067,268.337 C760.858,260.675 815.89,255.984 856,280 C880.225,294.505 866.819,315.28 886,336 C895.672,346.448 908.151,355.56 920.071,362.909 " fill="none" id="Reader-HistoricalTransaction" style="stroke: #A80036; stroke-width: 1.0;"/><text fill="#000000" font-family="sans-serif" font-size="13" lengthAdjust="spacingAndGlyphs" textLength="56" x="773" y="258.4951">originates</text><polygon fill="#000000" points="832,251.6758,838,254.6758,832,257.6758,832,251.6758" style="stroke: #000000; stroke-width: 1.0;"/><text fill="#000000" font-family="sans-serif" font-size="13" lengthAdjust="spacingAndGlyphs" textLength="7" x="730.9453" y="281.2681">1</text><text fill="#000000" font-family="sans-serif" font-size="13" lengthAdjust="spacingAndGlyphs" textLength="20" x="885.2575" y="352.204">1..*</text><!--MD5=[09813f49c964f2362ae6ca00d2202492]
link HistoricalTransaction to Transaction--><path d="M1035.16,399.169 C1128.71,419.705 1289.1,454.913 1381.74,475.248 " fill="none" id="HistoricalTransaction-Transaction" style="stroke: #A80036; stroke-width: 1.0;"/><text fill="#000000" font-family="sans-serif" font-size="13" lengthAdjust="spacingAndGlyphs" textLength="21" x="1193" y="422.4951">has</text><polygon fill="#000000" points="1217,415.6758,1223,418.6758,1217,421.6758,1217,415.6758" style="stroke: #000000; stroke-width: 1.0;"/><text fill="#000000" font-family="sans-serif" font-size="13" lengthAdjust="spacingAndGlyphs" textLength="7" x="1043.2203" y="415.1747">1</text><text fill="#000000" font-family="sans-serif" font-size="13" lengthAdjust="spacingAndGlyphs" textLength="20" x="1354.1106" y="470.5924">1..*</text><!--MD5=[9fd72751b03cb19134c76fd7e0acb422]
link HistoricalTransaction to Freelancer--><path d="M1035.13,363.682 C1062.87,355.975 1094.56,346.645 1123,337 C1132.73,333.7 1142.97,329.925 1152.86,326.118 " fill="none" id="HistoricalTransaction-Freelancer" style="stroke: #A80036; stroke-width: 1.0;"/><text fill="#000000" font-family="sans-serif" font-size="13" lengthAdjust="spacingAndGlyphs" textLength="21" x="1077" y="333.4951">has</text><polygon fill="#000000" points="1101,326.6758,1107,329.6758,1101,332.6758,1101,326.6758" style="stroke: #000000; stroke-width: 1.0;"/><text fill="#000000" font-family="sans-serif" font-size="13" lengthAdjust="spacingAndGlyphs" textLength="7" x="1043.1872" y="376.0281">1</text><text fill="#000000" font-family="sans-serif" font-size="13" lengthAdjust="spacingAndGlyphs" textLength="20" x="1125.0969" y="343.24">1..*</text><!--MD5=[d2c3650dbd07e79cdad2ffd4a879dec6]
link Collaborator to Freelancer--><path d="M729.065,367.032 C802.072,353.96 943.729,329.64 1065,315 C1093.89,311.512 1126.17,308.721 1152.83,306.712 " fill="none" id="Collaborator-Freelancer" style="stroke: #A80036; stroke-width: 1.0;"/><text fill="#000000" font-family="sans-serif" font-size="13" lengthAdjust="spacingAndGlyphs" textLength="43" x="932.5" y="315.4951">creates</text><polygon fill="#000000" points="978.5,308.6758,984.5,311.6758,978.5,314.6758,978.5,308.6758" style="stroke: #000000; stroke-width: 1.0;"/><text fill="#000000" font-family="sans-serif" font-size="13" lengthAdjust="spacingAndGlyphs" textLength="7" x="736.9324" y="380.4349">1</text><text fill="#000000" font-family="sans-serif" font-size="13" lengthAdjust="spacingAndGlyphs" textLength="7" x="1138.0567" y="321.7397">1</text><!--MD5=[f919d21ae7a75ef5ececc535e09d5009]
link Collaborator to Task--><path d="M712.64,410.265 C725.932,422.346 742.133,434.919 759,443 C1074.04,593.938 1504.17,620.413 1654.76,625.032 " fill="none" id="Collaborator-Task" style="stroke: #A80036; stroke-width: 1.0;"/><text fill="#000000" font-family="sans-serif" font-size="13" lengthAdjust="spacingAndGlyphs" textLength="43" x="1182" y="565.4951">creates</text><polygon fill="#000000" points="1228,558.6758,1234,561.6758,1228,564.6758,1228,558.6758" style="stroke: #000000; stroke-width: 1.0;"/><text fill="#000000" font-family="sans-serif" font-size="13" lengthAdjust="spacingAndGlyphs" textLength="7" x="710.8203" y="431.0828">1</text><text fill="#000000" font-family="sans-serif" font-size="13" lengthAdjust="spacingAndGlyphs" textLength="20" x="1627.1588" y="639.3501">1..*</text><!--MD5=[8b5db564ea9bd1758097b07ca3fd81a4]
link Collaborator to Transaction--><path d="M729.267,401.273 C738.926,405.415 749.128,409.246 759,412 C990.889,476.696 1057.69,448.757 1297,475 C1324.69,478.037 1355.16,481.194 1381.8,483.893 " fill="none" id="Collaborator-Transaction" style="stroke: #A80036; stroke-width: 1.0;"/><text fill="#000000" font-family="sans-serif" font-size="13" lengthAdjust="spacingAndGlyphs" textLength="43" x="1066" y="455.4951">creates</text><polygon fill="#000000" points="1112,448.6758,1118,451.6758,1112,454.6758,1112,448.6758" style="stroke: #000000; stroke-width: 1.0;"/><text fill="#000000" font-family="sans-serif" font-size="13" lengthAdjust="spacingAndGlyphs" textLength="7" x="737.164" y="419.705">1</text><text fill="#000000" font-family="sans-serif" font-size="13" lengthAdjust="spacingAndGlyphs" textLength="20" x="1353.9177" y="497.5134">1..*</text><!--MD5=[04ce0ecdab38a3951889ff50c232570f]
link Collaborator to User--><path d="M729.287,351.083 C739.033,346.501 749.261,341.929 759,338 C801.099,321.014 818.971,332.261 856,306 C873.838,293.349 871.195,283.095 886,267 C901.43,250.225 920.489,232.936 935.332,220.123 " fill="none" id="Collaborator-User" style="stroke: #A80036; stroke-width: 1.0;"/><text fill="#000000" font-family="sans-serif" font-size="13" lengthAdjust="spacingAndGlyphs" textLength="43" x="779.5" y="302.4951">acts as</text><polygon fill="#000000" points="825.5,295.6758,831.5,298.6758,825.5,301.6758,825.5,295.6758" style="stroke: #000000; stroke-width: 1.0;"/><text fill="#000000" font-family="sans-serif" font-size="13" lengthAdjust="spacingAndGlyphs" textLength="7" x="736.8508" y="362.247">1</text><text fill="#000000" font-family="sans-serif" font-size="13" lengthAdjust="spacingAndGlyphs" textLength="7" x="920.2691" y="241.5771">1</text><!--MD5=[2bf0bd16ae3d2322f415cdcee023b5a6]
link Collaborator to HistoricalTransaction--><path d="M729.173,394.105 C738.929,396.97 749.19,399.485 759,401 C800.793,407.455 847.871,403.787 885.901,398.123 " fill="none" id="Collaborator-HistoricalTransaction" style="stroke: #A80036; stroke-width: 1.0;"/><text fill="#000000" font-family="sans-serif" font-size="13" lengthAdjust="spacingAndGlyphs" textLength="31" x="785.5" y="397.4951">loads</text><polygon fill="#000000" points="819.5,390.6758,825.5,393.6758,819.5,396.6758,819.5,390.6758" style="stroke: #000000; stroke-width: 1.0;"/><text fill="#000000" font-family="sans-serif" font-size="13" lengthAdjust="spacingAndGlyphs" textLength="7" x="737.0562" y="397.7217">1</text><text fill="#000000" font-family="sans-serif" font-size="13" lengthAdjust="spacingAndGlyphs" textLength="7" x="870.847" y="414.0208">1</text><!--MD5=[3672b8a0f16fb41212c5ce83a8efa8a6]
@startuml
skinparam classAttributeIconSize 0
hide methods
left to right direction

class Platform{
}
class Freelancer {
  -String idF
  -String name
  -String levelExpertise
  -String email
  -String nif
  -String ibanAccount
  -String coutry
}

class Organization {
  -String nome
  -String email
  -String nif
}

class Collaborator{
  -String nome
  -String email
}

class Task {
  -String idT
  -String description
  -Time timeDuration
  -double costHour
  -String taskCategory
}

class Manager {
  -String nome
  -String email
}

class User {
}

class Invoice {
  -double amountE
  -double amountC
}

class Transaction {
  -Data endDate
  -double delay
  -String descriptionOfQuality
}

class Address{
  -String street
  -String doorNumber
  -String city
}

class Administrator {
}

class Payment{
}

class Reader {
  -String fileName
}

class HistoricalTransaction{
}

Freelancer "1" - - "1" Transaction: receive >
Freelancer "1" - - "1" Invoice: receives > 
Freelancer "1" - - "1" Payment: receives >
Freelancer "1" - - "1" Address: has >

Task "1..*" - - "1" Freelancer: made by >

Platform "1" - - "1..*" Transaction: has >
Platform "1" - - "1" Administrator: has >
Platform "1" - - "1..*" Organization: has registered >
Platform "1" - - "1..*" Freelancer: has >
Platform "1" - - "1..*" Task: has registered >

Organization "1" - - "1" Address: has >
Organization "1" - - "1" Manager: has >
Organization "1" - - "1" Collaborator: has >

Manager "1" - - "1" User: acts as >

Administrator "1" - - "1" Organization: registers >
Administrator "1" - - "1" User: acts as >
Administrator "1" - - "1" Collaborator: registers >
Administrator "1" - - "1" Manager: registers >

Transaction "1" - - "1" Payment: results in >
Transaction "1" - - "1" Task: has >


Payment "1" - - "1" Invoice: generate >


Reader "1" - - "1..*" HistoricalTransaction: originates >

HistoricalTransaction "1" - - "1..*" Transaction: has >
HistoricalTransaction "1" - - "1..*" Freelancer: has >

Collaborator "1" - - "1" Freelancer: creates >
Collaborator "1" - - "1..*" Task: creates >
Collaborator "1" - - "1..*" Transaction: creates >
Collaborator "1" - - "1" User: acts as >
Collaborator "1" - - "1" HistoricalTransaction: loads >



@enduml

PlantUML version 1.2020.09(Sun May 10 11:51:06 BST 2020)
(GPL source distribution)
Java Runtime: OpenJDK Runtime Environment
JVM: OpenJDK 64-Bit Server VM
Java Version: 11.0.6+8-b765.40
Operating System: Windows 10
Default Encoding: Cp1252
Language: pt
Country: PT
--></g></svg>