<?xml version="1.0" encoding="UTF-8" standalone="no"?><svg xmlns="http://www.w3.org/2000/svg" xmlns:xlink="http://www.w3.org/1999/xlink" contentScriptType="application/ecmascript" contentStyleType="text/css" height="569px" preserveAspectRatio="none" style="width:1380px;height:569px;" version="1.1" viewBox="0 0 1380 569" width="1380px" zoomAndPan="magnify"><defs><filter height="300%" id="fsbhfyhn2du7v" width="300%" x="-1" y="-1"><feGaussianBlur result="blurOut" stdDeviation="2.0"/><feColorMatrix in="blurOut" result="blurOut2" type="matrix" values="0 0 0 0 0 0 0 0 0 0 0 0 0 0 0 0 0 0 .4 0"/><feOffset dx="4.0" dy="4.0" in="blurOut2" result="blurOut3"/><feBlend in="SourceGraphic" in2="blurOut3" mode="normal"/></filter></defs><g><!--MD5=[99b8db98afdc2c8404e39242ef4c1e65]
class Platform--><rect fill="#FEFECE" filter="url(#fsbhfyhn2du7v)" height="40" id="Platform" style="stroke: #A80036; stroke-width: 1.5;" width="84" x="6" y="172.3889"/><ellipse cx="21" cy="188.3889" fill="#ADD1B2" rx="11" ry="11" style="stroke: #A80036; stroke-width: 1.0;"/><path d="M23.9688,194.0295 Q23.3906,194.3264 22.75,194.4748 Q22.1094,194.6233 21.4063,194.6233 Q18.9063,194.6233 17.5859,192.9748 Q16.2656,191.3264 16.2656,188.2014 Q16.2656,185.0764 17.5859,183.4201 Q18.9063,181.7639 21.4063,181.7639 Q22.1094,181.7639 22.7578,181.9201 Q23.4063,182.0764 23.9688,182.3733 L23.9688,185.092 Q23.3438,184.5139 22.75,184.2405 Q22.1563,183.967 21.5313,183.967 Q20.1875,183.967 19.5,185.0373 Q18.8125,186.1076 18.8125,188.2014 Q18.8125,190.2951 19.5,191.3655 Q20.1875,192.4358 21.5313,192.4358 Q22.1563,192.4358 22.75,192.1623 Q23.3438,191.8889 23.9688,191.3108 L23.9688,194.0295 Z "/><text fill="#000000" font-family="sans-serif" font-size="12" lengthAdjust="spacingAndGlyphs" textLength="52" x="35" y="192.5432">Platform</text><line style="stroke: #A80036; stroke-width: 1.5;" x1="7" x2="89" y1="204.3889" y2="204.3889"/><!--MD5=[1f687b5315377fe49fca59b457947463]
class Freelancer--><rect fill="#FEFECE" filter="url(#fsbhfyhn2du7v)" height="129.6328" id="Freelancer" style="stroke: #A80036; stroke-width: 1.5;" width="133" x="695" y="8.3889"/><ellipse cx="725.3" cy="24.3889" fill="#ADD1B2" rx="11" ry="11" style="stroke: #A80036; stroke-width: 1.0;"/><path d="M728.2688,30.0295 Q727.6906,30.3264 727.05,30.4748 Q726.4094,30.6233 725.7063,30.6233 Q723.2063,30.6233 721.8859,28.9748 Q720.5656,27.3264 720.5656,24.2014 Q720.5656,21.0764 721.8859,19.4202 Q723.2063,17.7639 725.7063,17.7639 Q726.4094,17.7639 727.0578,17.9202 Q727.7063,18.0764 728.2688,18.3733 L728.2688,21.092 Q727.6438,20.5139 727.05,20.2405 Q726.4563,19.967 725.8313,19.967 Q724.4875,19.967 723.8,21.0373 Q723.1125,22.1077 723.1125,24.2014 Q723.1125,26.2952 723.8,27.3655 Q724.4875,28.4358 725.8313,28.4358 Q726.4563,28.4358 727.05,28.1623 Q727.6438,27.8889 728.2688,27.3108 L728.2688,30.0295 Z "/><text fill="#000000" font-family="sans-serif" font-size="12" lengthAdjust="spacingAndGlyphs" textLength="67" x="742.7" y="28.5432">Freelancer</text><line style="stroke: #A80036; stroke-width: 1.5;" x1="696" x2="827" y1="40.3889" y2="40.3889"/><text fill="#000000" font-family="sans-serif" font-size="11" lengthAdjust="spacingAndGlyphs" textLength="58" x="701" y="54.5993">-String idF</text><text fill="#000000" font-family="sans-serif" font-size="11" lengthAdjust="spacingAndGlyphs" textLength="74" x="701" y="67.404">-String name</text><text fill="#000000" font-family="sans-serif" font-size="11" lengthAdjust="spacingAndGlyphs" textLength="121" x="701" y="80.2087">-String levelExpertise</text><text fill="#000000" font-family="sans-serif" font-size="11" lengthAdjust="spacingAndGlyphs" textLength="73" x="701" y="93.0134">-String email</text><text fill="#000000" font-family="sans-serif" font-size="11" lengthAdjust="spacingAndGlyphs" textLength="56" x="701" y="105.8181">-String nif</text><text fill="#000000" font-family="sans-serif" font-size="11" lengthAdjust="spacingAndGlyphs" textLength="110" x="701" y="118.6228">-String ibanAccount</text><text fill="#000000" font-family="sans-serif" font-size="11" lengthAdjust="spacingAndGlyphs" textLength="77" x="701" y="131.4275">-String coutry</text><!--MD5=[86c7c362de55a38b660185a1328fe18d]
class Organization--><rect fill="#FEFECE" filter="url(#fsbhfyhn2du7v)" height="78.4141" id="Organization" style="stroke: #A80036; stroke-width: 1.5;" width="110" x="444.5" y="346.3889"/><ellipse cx="459.5" cy="362.3889" fill="#ADD1B2" rx="11" ry="11" style="stroke: #A80036; stroke-width: 1.0;"/><path d="M462.4688,368.0295 Q461.8906,368.3264 461.25,368.4748 Q460.6094,368.6233 459.9063,368.6233 Q457.4063,368.6233 456.0859,366.9748 Q454.7656,365.3264 454.7656,362.2014 Q454.7656,359.0764 456.0859,357.4202 Q457.4063,355.7639 459.9063,355.7639 Q460.6094,355.7639 461.2578,355.9202 Q461.9063,356.0764 462.4688,356.3733 L462.4688,359.092 Q461.8438,358.5139 461.25,358.2405 Q460.6563,357.967 460.0313,357.967 Q458.6875,357.967 458,359.0373 Q457.3125,360.1077 457.3125,362.2014 Q457.3125,364.2952 458,365.3655 Q458.6875,366.4358 460.0313,366.4358 Q460.6563,366.4358 461.25,366.1623 Q461.8438,365.8889 462.4688,365.3108 L462.4688,368.0295 Z "/><text fill="#000000" font-family="sans-serif" font-size="12" lengthAdjust="spacingAndGlyphs" textLength="78" x="473.5" y="366.5432">Organization</text><line style="stroke: #A80036; stroke-width: 1.5;" x1="445.5" x2="553.5" y1="378.3889" y2="378.3889"/><text fill="#000000" font-family="sans-serif" font-size="11" lengthAdjust="spacingAndGlyphs" textLength="74" x="450.5" y="392.5993">-String nome</text><text fill="#000000" font-family="sans-serif" font-size="11" lengthAdjust="spacingAndGlyphs" textLength="73" x="450.5" y="405.404">-String email</text><text fill="#000000" font-family="sans-serif" font-size="11" lengthAdjust="spacingAndGlyphs" textLength="56" x="450.5" y="418.2087">-String nif</text><!--MD5=[f483d6e5de34a60207b28a5563be5e8b]
class Collaborator--><rect fill="#FEFECE" filter="url(#fsbhfyhn2du7v)" height="65.6094" id="Collaborator" style="stroke: #A80036; stroke-width: 1.5;" width="109" x="707" y="260.3889"/><ellipse cx="722" cy="276.3889" fill="#ADD1B2" rx="11" ry="11" style="stroke: #A80036; stroke-width: 1.0;"/><path d="M724.9688,282.0295 Q724.3906,282.3264 723.75,282.4748 Q723.1094,282.6233 722.4063,282.6233 Q719.9063,282.6233 718.5859,280.9748 Q717.2656,279.3264 717.2656,276.2014 Q717.2656,273.0764 718.5859,271.4202 Q719.9063,269.7639 722.4063,269.7639 Q723.1094,269.7639 723.7578,269.9202 Q724.4063,270.0764 724.9688,270.3733 L724.9688,273.092 Q724.3438,272.5139 723.75,272.2405 Q723.1563,271.967 722.5313,271.967 Q721.1875,271.967 720.5,273.0373 Q719.8125,274.1077 719.8125,276.2014 Q719.8125,278.2952 720.5,279.3655 Q721.1875,280.4358 722.5313,280.4358 Q723.1563,280.4358 723.75,280.1623 Q724.3438,279.8889 724.9688,279.3108 L724.9688,282.0295 Z "/><text fill="#000000" font-family="sans-serif" font-size="12" lengthAdjust="spacingAndGlyphs" textLength="77" x="736" y="280.5432">Collaborator</text><line style="stroke: #A80036; stroke-width: 1.5;" x1="708" x2="815" y1="292.3889" y2="292.3889"/><text fill="#000000" font-family="sans-serif" font-size="11" lengthAdjust="spacingAndGlyphs" textLength="74" x="713" y="306.5993">-String nome</text><text fill="#000000" font-family="sans-serif" font-size="11" lengthAdjust="spacingAndGlyphs" textLength="73" x="713" y="319.404">-String email</text><!--MD5=[b34797a66dc35cbf1d65f7e3ca75530e]
class Task--><rect fill="#FEFECE" filter="url(#fsbhfyhn2du7v)" height="104.0234" id="Task" style="stroke: #A80036; stroke-width: 1.5;" width="129" x="435" y="120.3889"/><ellipse cx="480.75" cy="136.3889" fill="#ADD1B2" rx="11" ry="11" style="stroke: #A80036; stroke-width: 1.0;"/><path d="M483.7188,142.0295 Q483.1406,142.3264 482.5,142.4748 Q481.8594,142.6233 481.1563,142.6233 Q478.6563,142.6233 477.3359,140.9748 Q476.0156,139.3264 476.0156,136.2014 Q476.0156,133.0764 477.3359,131.4201 Q478.6563,129.7639 481.1563,129.7639 Q481.8594,129.7639 482.5078,129.9201 Q483.1563,130.0764 483.7188,130.3733 L483.7188,133.092 Q483.0938,132.5139 482.5,132.2405 Q481.9063,131.967 481.2813,131.967 Q479.9375,131.967 479.25,133.0373 Q478.5625,134.1076 478.5625,136.2014 Q478.5625,138.2951 479.25,139.3655 Q479.9375,140.4358 481.2813,140.4358 Q481.9063,140.4358 482.5,140.1623 Q483.0938,139.8889 483.7188,139.3108 L483.7188,142.0295 Z "/><text fill="#000000" font-family="sans-serif" font-size="12" lengthAdjust="spacingAndGlyphs" textLength="29" x="501.25" y="140.5432">Task</text><line style="stroke: #A80036; stroke-width: 1.5;" x1="436" x2="563" y1="152.3889" y2="152.3889"/><text fill="#000000" font-family="sans-serif" font-size="11" lengthAdjust="spacingAndGlyphs" textLength="59" x="441" y="166.5993">-String idT</text><text fill="#000000" font-family="sans-serif" font-size="11" lengthAdjust="spacingAndGlyphs" textLength="105" x="441" y="179.404">-String description</text><text fill="#000000" font-family="sans-serif" font-size="11" lengthAdjust="spacingAndGlyphs" textLength="109" x="441" y="192.2087">-Time timeDuration</text><text fill="#000000" font-family="sans-serif" font-size="11" lengthAdjust="spacingAndGlyphs" textLength="97" x="441" y="205.0134">-double costHour</text><text fill="#000000" font-family="sans-serif" font-size="11" lengthAdjust="spacingAndGlyphs" textLength="117" x="441" y="217.8181">-String taskCategory</text><!--MD5=[b24ed8d4ae84bae9290d9aab401637c7]
class Manager--><rect fill="#FEFECE" filter="url(#fsbhfyhn2du7v)" height="40" id="Manager" style="stroke: #A80036; stroke-width: 1.5;" width="87" x="718" y="455.3889"/><ellipse cx="733" cy="471.3889" fill="#ADD1B2" rx="11" ry="11" style="stroke: #A80036; stroke-width: 1.0;"/><path d="M735.9688,477.0295 Q735.3906,477.3264 734.75,477.4748 Q734.1094,477.6233 733.4063,477.6233 Q730.9063,477.6233 729.5859,475.9748 Q728.2656,474.3264 728.2656,471.2014 Q728.2656,468.0764 729.5859,466.4202 Q730.9063,464.7639 733.4063,464.7639 Q734.1094,464.7639 734.7578,464.9202 Q735.4063,465.0764 735.9688,465.3733 L735.9688,468.092 Q735.3438,467.5139 734.75,467.2405 Q734.1563,466.967 733.5313,466.967 Q732.1875,466.967 731.5,468.0373 Q730.8125,469.1077 730.8125,471.2014 Q730.8125,473.2952 731.5,474.3655 Q732.1875,475.4358 733.5313,475.4358 Q734.1563,475.4358 734.75,475.1623 Q735.3438,474.8889 735.9688,474.3108 L735.9688,477.0295 Z "/><text fill="#000000" font-family="sans-serif" font-size="12" lengthAdjust="spacingAndGlyphs" textLength="55" x="747" y="475.5432">Manager</text><line style="stroke: #A80036; stroke-width: 1.5;" x1="719" x2="804" y1="487.3889" y2="487.3889"/><!--MD5=[3fd616f346a44cd59a91eb10b19e157c]
class User--><rect fill="#FEFECE" filter="url(#fsbhfyhn2du7v)" height="40" id="User" style="stroke: #A80036; stroke-width: 1.5;" width="61" x="1005" y="426.3889"/><ellipse cx="1020" cy="442.3889" fill="#ADD1B2" rx="11" ry="11" style="stroke: #A80036; stroke-width: 1.0;"/><path d="M1022.9688,448.0295 Q1022.3906,448.3264 1021.75,448.4748 Q1021.1094,448.6233 1020.4063,448.6233 Q1017.9063,448.6233 1016.5859,446.9748 Q1015.2656,445.3264 1015.2656,442.2014 Q1015.2656,439.0764 1016.5859,437.4202 Q1017.9063,435.7639 1020.4063,435.7639 Q1021.1094,435.7639 1021.7578,435.9202 Q1022.4063,436.0764 1022.9688,436.3733 L1022.9688,439.092 Q1022.3438,438.5139 1021.75,438.2405 Q1021.1563,437.967 1020.5313,437.967 Q1019.1875,437.967 1018.5,439.0373 Q1017.8125,440.1077 1017.8125,442.2014 Q1017.8125,444.2952 1018.5,445.3655 Q1019.1875,446.4358 1020.5313,446.4358 Q1021.1563,446.4358 1021.75,446.1623 Q1022.3438,445.8889 1022.9688,445.3108 L1022.9688,448.0295 Z "/><text fill="#000000" font-family="sans-serif" font-size="12" lengthAdjust="spacingAndGlyphs" textLength="29" x="1034" y="446.5432">User</text><line style="stroke: #A80036; stroke-width: 1.5;" x1="1006" x2="1065" y1="458.3889" y2="458.3889"/><!--MD5=[894442645724153f40a9f7a43026dbfc]
class Invoice--><rect fill="#FEFECE" filter="url(#fsbhfyhn2du7v)" height="65.6094" id="Invoice" style="stroke: #A80036; stroke-width: 1.5;" width="109" x="1260" y="45.3889"/><ellipse cx="1290.3" cy="61.3889" fill="#ADD1B2" rx="11" ry="11" style="stroke: #A80036; stroke-width: 1.0;"/><path d="M1293.2688,67.0295 Q1292.6906,67.3264 1292.05,67.4748 Q1291.4094,67.6233 1290.7063,67.6233 Q1288.2063,67.6233 1286.8859,65.9748 Q1285.5656,64.3264 1285.5656,61.2014 Q1285.5656,58.0764 1286.8859,56.4201 Q1288.2063,54.7639 1290.7063,54.7639 Q1291.4094,54.7639 1292.0578,54.9201 Q1292.7063,55.0764 1293.2688,55.3733 L1293.2688,58.092 Q1292.6438,57.5139 1292.05,57.2405 Q1291.4563,56.967 1290.8313,56.967 Q1289.4875,56.967 1288.8,58.0373 Q1288.1125,59.1076 1288.1125,61.2014 Q1288.1125,63.2951 1288.8,64.3655 Q1289.4875,65.4358 1290.8313,65.4358 Q1291.4563,65.4358 1292.05,65.1623 Q1292.6438,64.8889 1293.2688,64.3108 L1293.2688,67.0295 Z "/><text fill="#000000" font-family="sans-serif" font-size="12" lengthAdjust="spacingAndGlyphs" textLength="43" x="1307.7" y="65.5432">Invoice</text><line style="stroke: #A80036; stroke-width: 1.5;" x1="1261" x2="1368" y1="77.3889" y2="77.3889"/><text fill="#000000" font-family="sans-serif" font-size="11" lengthAdjust="spacingAndGlyphs" textLength="96" x="1266" y="91.5993">-double amountE</text><text fill="#000000" font-family="sans-serif" font-size="11" lengthAdjust="spacingAndGlyphs" textLength="97" x="1266" y="104.404">-double amountC</text><!--MD5=[4555bb1b0911a5adf28ce6dbe60fed2e]
class Transaction--><rect fill="#FEFECE" filter="url(#fsbhfyhn2du7v)" height="78.4141" id="Transaction" style="stroke: #A80036; stroke-width: 1.5;" width="169" x="951" y="128.3889"/><ellipse cx="994.35" cy="144.3889" fill="#ADD1B2" rx="11" ry="11" style="stroke: #A80036; stroke-width: 1.0;"/><path d="M997.3188,150.0295 Q996.7406,150.3264 996.1,150.4748 Q995.4594,150.6233 994.7563,150.6233 Q992.2563,150.6233 990.9359,148.9748 Q989.6156,147.3264 989.6156,144.2014 Q989.6156,141.0764 990.9359,139.4201 Q992.2563,137.7639 994.7563,137.7639 Q995.4594,137.7639 996.1078,137.9201 Q996.7563,138.0764 997.3188,138.3733 L997.3188,141.092 Q996.6938,140.5139 996.1,140.2405 Q995.5063,139.967 994.8813,139.967 Q993.5375,139.967 992.85,141.0373 Q992.1625,142.1076 992.1625,144.2014 Q992.1625,146.2951 992.85,147.3655 Q993.5375,148.4358 994.8813,148.4358 Q995.5063,148.4358 996.1,148.1623 Q996.6938,147.8889 997.3188,147.3108 L997.3188,150.0295 Z "/><text fill="#000000" font-family="sans-serif" font-size="12" lengthAdjust="spacingAndGlyphs" textLength="74" x="1014.65" y="148.5432">Transaction</text><line style="stroke: #A80036; stroke-width: 1.5;" x1="952" x2="1119" y1="160.3889" y2="160.3889"/><text fill="#000000" font-family="sans-serif" font-size="11" lengthAdjust="spacingAndGlyphs" textLength="81" x="957" y="174.5993">-Data endDate</text><text fill="#000000" font-family="sans-serif" font-size="11" lengthAdjust="spacingAndGlyphs" textLength="76" x="957" y="187.404">-double delay</text><text fill="#000000" font-family="sans-serif" font-size="11" lengthAdjust="spacingAndGlyphs" textLength="157" x="957" y="200.2087">-String descriptionOfQuality</text><!--MD5=[0f39e4cb6f03951afbf6d14bd2505654]
class Address--><rect fill="#FEFECE" filter="url(#fsbhfyhn2du7v)" height="78.4141" id="Address" style="stroke: #A80036; stroke-width: 1.5;" width="125" x="973" y="274.3889"/><ellipse cx="1006.9" cy="290.3889" fill="#ADD1B2" rx="11" ry="11" style="stroke: #A80036; stroke-width: 1.0;"/><path d="M1009.8688,296.0295 Q1009.2906,296.3264 1008.65,296.4748 Q1008.0094,296.6233 1007.3063,296.6233 Q1004.8063,296.6233 1003.4859,294.9748 Q1002.1656,293.3264 1002.1656,290.2014 Q1002.1656,287.0764 1003.4859,285.4202 Q1004.8063,283.7639 1007.3063,283.7639 Q1008.0094,283.7639 1008.6578,283.9202 Q1009.3063,284.0764 1009.8688,284.3733 L1009.8688,287.092 Q1009.2438,286.5139 1008.65,286.2405 Q1008.0563,285.967 1007.4313,285.967 Q1006.0875,285.967 1005.4,287.0373 Q1004.7125,288.1077 1004.7125,290.2014 Q1004.7125,292.2952 1005.4,293.3655 Q1006.0875,294.4358 1007.4313,294.4358 Q1008.0563,294.4358 1008.65,294.1623 Q1009.2438,293.8889 1009.8688,293.3108 L1009.8688,296.0295 Z "/><text fill="#000000" font-family="sans-serif" font-size="12" lengthAdjust="spacingAndGlyphs" textLength="51" x="1025.1" y="294.5432">Address</text><line style="stroke: #A80036; stroke-width: 1.5;" x1="974" x2="1097" y1="306.3889" y2="306.3889"/><text fill="#000000" font-family="sans-serif" font-size="11" lengthAdjust="spacingAndGlyphs" textLength="76" x="979" y="320.5993">-String street</text><text fill="#000000" font-family="sans-serif" font-size="11" lengthAdjust="spacingAndGlyphs" textLength="113" x="979" y="333.404">-String doorNumber</text><text fill="#000000" font-family="sans-serif" font-size="11" lengthAdjust="spacingAndGlyphs" textLength="61" x="979" y="346.2087">-String city</text><!--MD5=[da547346deef918ea16944ba046651ef]
class Administrator--><rect fill="#FEFECE" filter="url(#fsbhfyhn2du7v)" height="40" id="Administrator" style="stroke: #A80036; stroke-width: 1.5;" width="116" x="188" y="365.3889"/><ellipse cx="203" cy="381.3889" fill="#ADD1B2" rx="11" ry="11" style="stroke: #A80036; stroke-width: 1.0;"/><path d="M205.9688,387.0295 Q205.3906,387.3264 204.75,387.4748 Q204.1094,387.6233 203.4063,387.6233 Q200.9063,387.6233 199.5859,385.9748 Q198.2656,384.3264 198.2656,381.2014 Q198.2656,378.0764 199.5859,376.4202 Q200.9063,374.7639 203.4063,374.7639 Q204.1094,374.7639 204.7578,374.9202 Q205.4063,375.0764 205.9688,375.3733 L205.9688,378.092 Q205.3438,377.5139 204.75,377.2405 Q204.1563,376.967 203.5313,376.967 Q202.1875,376.967 201.5,378.0373 Q200.8125,379.1077 200.8125,381.2014 Q200.8125,383.2952 201.5,384.3655 Q202.1875,385.4358 203.5313,385.4358 Q204.1563,385.4358 204.75,385.1623 Q205.3438,384.8889 205.9688,384.3108 L205.9688,387.0295 Z "/><text fill="#000000" font-family="sans-serif" font-size="12" lengthAdjust="spacingAndGlyphs" textLength="84" x="217" y="385.5432">Administrator</text><line style="stroke: #A80036; stroke-width: 1.5;" x1="189" x2="303" y1="397.3889" y2="397.3889"/><!--MD5=[83bb469d45366b675450ee1d8d93a557]
link Freelancer to Transaction--><path d="M828.2745,87.6889 C857.1511,94.6047 891.1077,103.7287 921,114.3889 C932.4508,118.4724 944.3182,123.2765 955.8834,128.2966 " fill="none" id="Freelancer-Transaction" style="stroke: #A80036; stroke-width: 1.0;"/><text fill="#000000" font-family="sans-serif" font-size="13" lengthAdjust="spacingAndGlyphs" textLength="46" x="860" y="91.4558">receive</text><polygon fill="#000000" points="909,85.4553,915,88.4553,909,91.4553,909,85.4553" style="stroke: #000000; stroke-width: 1.0;"/><text fill="#000000" font-family="sans-serif" font-size="13" lengthAdjust="spacingAndGlyphs" textLength="8" x="836.0155" y="102.1675">1</text><text fill="#000000" font-family="sans-serif" font-size="13" lengthAdjust="spacingAndGlyphs" textLength="8" x="935.0796" y="118.2075">1</text><!--MD5=[54bee63c8a6ef557b9a4f39e751f6c26]
link Task to Transaction--><path d="M564.2214,172.8029 C602.2982,173.0258 651.3854,173.2773 695,173.3889 C754.1109,173.54 768.8951,174.2432 828,173.3889 C868.45,172.8042 913.3215,171.5786 950.9601,170.3867 " fill="none" id="Task-Transaction" style="stroke: #A80036; stroke-width: 1.0;"/><text fill="#000000" font-family="sans-serif" font-size="13" lengthAdjust="spacingAndGlyphs" textLength="58" x="726" y="169.4558">results in</text><polygon fill="#000000" points="787,163.4553,793,166.4553,787,169.4553,787,163.4553" style="stroke: #000000; stroke-width: 1.0;"/><text fill="#000000" font-family="sans-serif" font-size="13" lengthAdjust="spacingAndGlyphs" textLength="8" x="572.1673" y="185.7912">1</text><text fill="#000000" font-family="sans-serif" font-size="13" lengthAdjust="spacingAndGlyphs" textLength="8" x="935.0745" y="183.376">1</text><!--MD5=[8853e9d83a8841c20c4ef075af762602]
link Task to Freelancer--><path d="M564.3882,148.2118 C594.9372,136.7957 631.8619,122.9487 665,110.3889 C674.6474,106.7324 684.8293,102.8518 694.819,99.0323 " fill="none" id="Task-Freelancer" style="stroke: #A80036; stroke-width: 1.0;"/><text fill="#000000" font-family="sans-serif" font-size="13" lengthAdjust="spacingAndGlyphs" textLength="56" x="595" y="106.4558">made by</text><polygon fill="#000000" points="654,100.4553,660,103.4553,654,106.4553,654,100.4553" style="stroke: #000000; stroke-width: 1.0;"/><text fill="#000000" font-family="sans-serif" font-size="13" lengthAdjust="spacingAndGlyphs" textLength="23" x="571.9077" y="158.6424">1..*</text><text fill="#000000" font-family="sans-serif" font-size="13" lengthAdjust="spacingAndGlyphs" textLength="8" x="679.0883" y="114.7516">1</text><!--MD5=[874150c88719dac3f651931978d26083]
link Freelancer to Address--><path d="M828.3548,128.963 C857.093,153.1119 890.9222,181.8875 921,208.3889 C945.3854,229.8747 972.183,254.3975 993.7191,274.3379 " fill="none" id="Freelancer-Address" style="stroke: #A80036; stroke-width: 1.0;"/><text fill="#000000" font-family="sans-serif" font-size="13" lengthAdjust="spacingAndGlyphs" textLength="23" x="871.5" y="151.4558">has</text><polygon fill="#000000" points="897.5,145.4553,903.5,148.4553,897.5,151.4553,897.5,145.4553" style="stroke: #000000; stroke-width: 1.0;"/><text fill="#000000" font-family="sans-serif" font-size="13" lengthAdjust="spacingAndGlyphs" textLength="8" x="836.1045" y="147.956">1</text><text fill="#000000" font-family="sans-serif" font-size="13" lengthAdjust="spacingAndGlyphs" textLength="8" x="977.8505" y="263.3797">1</text><!--MD5=[0f7004bed4496639b3a5258ab2ead378]
link Platform to Administrator--><path d="M63.3924,212.6848 C77.3896,230.6589 99.0074,257.2485 120,278.3889 C152.3545,310.971 193.4846,344.6224 219.7824,365.279 " fill="none" id="Platform-Administrator" style="stroke: #A80036; stroke-width: 1.0;"/><text fill="#000000" font-family="sans-serif" font-size="13" lengthAdjust="spacingAndGlyphs" textLength="23" x="121" y="274.4558">has</text><polygon fill="#000000" points="147,268.4553,153,271.4553,147,274.4553,147,268.4553" style="stroke: #000000; stroke-width: 1.0;"/><text fill="#000000" font-family="sans-serif" font-size="13" lengthAdjust="spacingAndGlyphs" textLength="8" x="58.5965" y="232.588">1</text><text fill="#000000" font-family="sans-serif" font-size="13" lengthAdjust="spacingAndGlyphs" textLength="8" x="202.906" y="354.255">1</text><!--MD5=[7640e466c042ba2d6f9c19c816f7f0fc]
link Platform to Organization--><path d="M90.0706,210.3725 C171.9451,245.3709 352.6713,322.6249 444.1461,361.727 " fill="none" id="Platform-Organization" style="stroke: #A80036; stroke-width: 1.0;"/><text fill="#000000" font-family="sans-serif" font-size="13" lengthAdjust="spacingAndGlyphs" textLength="92" x="193.5" y="249.4558">has registered</text><polygon fill="#000000" points="288.5,243.4553,294.5,246.4553,288.5,249.4553,288.5,243.4553" style="stroke: #000000; stroke-width: 1.0;"/><text fill="#000000" font-family="sans-serif" font-size="13" lengthAdjust="spacingAndGlyphs" textLength="8" x="97.989" y="226.8308">1</text><text fill="#000000" font-family="sans-serif" font-size="13" lengthAdjust="spacingAndGlyphs" textLength="23" x="413.4161" y="371.9089">1..*</text><!--MD5=[22697d4d863c2e08ab1d60ca0d61f844]
link Platform to Freelancer--><path d="M90.1038,173.1155 C99.7859,169.171 110.138,165.3315 120,162.3889 C323.9057,101.5466 576.9148,82.0219 694.9922,75.9765 " fill="none" id="Platform-Freelancer" style="stroke: #A80036; stroke-width: 1.0;"/><text fill="#000000" font-family="sans-serif" font-size="13" lengthAdjust="spacingAndGlyphs" textLength="23" x="351.5" y="99.4558">has</text><polygon fill="#000000" points="377.5,93.4553,383.5,96.4553,377.5,99.4553,377.5,93.4553" style="stroke: #000000; stroke-width: 1.0;"/><text fill="#000000" font-family="sans-serif" font-size="13" lengthAdjust="spacingAndGlyphs" textLength="8" x="98.0279" y="183.1703">1</text><text fill="#000000" font-family="sans-serif" font-size="13" lengthAdjust="spacingAndGlyphs" textLength="23" x="663.9476" y="89.1095">1..*</text><!--MD5=[ec97d39b7e7a4ec2b79aa9dbbb3f5070]
link Organization to Address--><path d="M554.7406,385.754 C635.932,385.2392 791.8467,380.2384 921,352.3889 C938.141,348.6927 956.2816,343.2586 972.9461,337.6135 " fill="none" id="Organization-Address" style="stroke: #A80036; stroke-width: 1.0;"/><text fill="#000000" font-family="sans-serif" font-size="13" lengthAdjust="spacingAndGlyphs" textLength="23" x="743.5" y="364.4558">has</text><polygon fill="#000000" points="769.5,358.4553,775.5,361.4553,769.5,364.4553,769.5,358.4553" style="stroke: #000000; stroke-width: 1.0;"/><text fill="#000000" font-family="sans-serif" font-size="13" lengthAdjust="spacingAndGlyphs" textLength="8" x="562.3308" y="398.8106">1</text><text fill="#000000" font-family="sans-serif" font-size="13" lengthAdjust="spacingAndGlyphs" textLength="8" x="956.8348" y="353.5297">1</text><!--MD5=[65ab54bb4516ebbc699d18e0b28e9aea]
link Freelancer to User--><path d="M813.1076,138.6329 C818.6437,147.3348 823.7841,156.3734 828,165.3889 C850.9225,214.4068 830.465,236.8053 858,283.3889 C886.8005,332.1134 909.2899,332.1289 951,370.3889 C971.7925,389.4615 995.7222,410.9405 1012.7964,426.1863 " fill="none" id="Freelancer-User" style="stroke: #A80036; stroke-width: 1.0;"/><text fill="#000000" font-family="sans-serif" font-size="13" lengthAdjust="spacingAndGlyphs" textLength="46" x="860" y="279.4558">acts as</text><polygon fill="#000000" points="878.5,288.5217,881.5,294.5217,884.5,288.5217,878.5,288.5217" style="stroke: #000000; stroke-width: 1.0;"/><text fill="#000000" font-family="sans-serif" font-size="13" lengthAdjust="spacingAndGlyphs" textLength="8" x="810.0171" y="158.2273">1</text><text fill="#000000" font-family="sans-serif" font-size="13" lengthAdjust="spacingAndGlyphs" textLength="8" x="997.286" y="415.4805">1</text><!--MD5=[bc039f41cf0b27fadee5cae63fc6e1fe]
link Organization to Manager--><path d="M554.7885,407.0039 C567.6151,411.8645 581.2461,416.9071 594,421.3889 C635.7973,436.0765 683.9828,451.4499 717.9106,462.0201 " fill="none" id="Organization-Manager" style="stroke: #A80036; stroke-width: 1.0;"/><text fill="#000000" font-family="sans-serif" font-size="13" lengthAdjust="spacingAndGlyphs" textLength="23" x="611.5" y="417.4558">has</text><polygon fill="#000000" points="637.5,411.4553,643.5,414.4553,637.5,417.4553,637.5,411.4553" style="stroke: #000000; stroke-width: 1.0;"/><text fill="#000000" font-family="sans-serif" font-size="13" lengthAdjust="spacingAndGlyphs" textLength="8" x="562.3848" y="422.7831">1</text><text fill="#000000" font-family="sans-serif" font-size="13" lengthAdjust="spacingAndGlyphs" textLength="8" x="702.0286" y="473.126">1</text><!--MD5=[45817597bcd7048073a670d966abfd17]
link Organization to Collaborator--><path d="M554.7433,365.9904 C599.4828,350.2804 662.1837,328.2633 706.7818,312.6029 " fill="none" id="Organization-Collaborator" style="stroke: #A80036; stroke-width: 1.0;"/><text fill="#000000" font-family="sans-serif" font-size="13" lengthAdjust="spacingAndGlyphs" textLength="23" x="611.5" y="324.4558">has</text><polygon fill="#000000" points="637.5,318.4553,643.5,321.4553,637.5,324.4553,637.5,318.4553" style="stroke: #000000; stroke-width: 1.0;"/><text fill="#000000" font-family="sans-serif" font-size="13" lengthAdjust="spacingAndGlyphs" textLength="8" x="562.3338" y="376.5148">1</text><text fill="#000000" font-family="sans-serif" font-size="13" lengthAdjust="spacingAndGlyphs" textLength="8" x="690.8915" y="328.2947">1</text><!--MD5=[04ce0ecdab38a3951889ff50c232570f]
link Collaborator to User--><path d="M797.7352,326.7226 C815.1172,341.6234 836.749,358.6568 858,371.3889 C906.4989,400.4459 968.3197,423.824 1004.7372,436.358 " fill="none" id="Collaborator-User" style="stroke: #A80036; stroke-width: 1.0;"/><text fill="#000000" font-family="sans-serif" font-size="13" lengthAdjust="spacingAndGlyphs" textLength="46" x="860" y="367.4558">acts as</text><polygon fill="#000000" points="909,361.4553,915,364.4553,909,367.4553,909,361.4553" style="stroke: #000000; stroke-width: 1.0;"/><text fill="#000000" font-family="sans-serif" font-size="13" lengthAdjust="spacingAndGlyphs" textLength="8" x="795.4771" y="346.1096">1</text><text fill="#000000" font-family="sans-serif" font-size="13" lengthAdjust="spacingAndGlyphs" textLength="8" x="989.1328" y="447.8858">1</text><!--MD5=[6eb6e197a729f6ec2412743e0bdbca1d]
link Manager to User--><path d="M805.208,477.0353 C821.7447,477.5826 840.7377,478.1206 858,478.3889 C885.9966,478.8239 893.2595,482.1924 921,478.3889 C950.0374,474.4075 982.0906,464.9973 1004.8798,457.4058 " fill="none" id="Manager-User" style="stroke: #A80036; stroke-width: 1.0;"/><text fill="#000000" font-family="sans-serif" font-size="13" lengthAdjust="spacingAndGlyphs" textLength="46" x="860" y="474.4558">acts as</text><polygon fill="#000000" points="909,468.4553,915,471.4553,909,474.4553,909,468.4553" style="stroke: #000000; stroke-width: 1.0;"/><text fill="#000000" font-family="sans-serif" font-size="13" lengthAdjust="spacingAndGlyphs" textLength="8" x="813.1096" y="490.6281">1</text><text fill="#000000" font-family="sans-serif" font-size="13" lengthAdjust="spacingAndGlyphs" textLength="8" x="988.8739" y="473.7701">1</text><!--MD5=[2a41c1af413c0662bf55a6b8913ea24f]
link Administrator to Organization--><path d="M304.158,385.3889 C346.2566,385.3889 402.8017,385.3889 444.2207,385.3889 " fill="none" id="Administrator-Organization" style="stroke: #A80036; stroke-width: 1.0;"/><text fill="#000000" font-family="sans-serif" font-size="13" lengthAdjust="spacingAndGlyphs" textLength="56" x="335" y="381.4558">registers</text><polygon fill="#000000" points="394,375.4553,400,378.4553,394,381.4553,394,375.4553" style="stroke: #000000; stroke-width: 1.0;"/><text fill="#000000" font-family="sans-serif" font-size="13" lengthAdjust="spacingAndGlyphs" textLength="8" x="312.122" y="398.4252">1</text><text fill="#000000" font-family="sans-serif" font-size="13" lengthAdjust="spacingAndGlyphs" textLength="8" x="428.6255" y="398.3987">1</text><!--MD5=[edc107c0a572352bcd12c9afaba4390b]
link Administrator to User--><path d="M265.097,405.6687 C281.7766,422.2126 307.4206,444.9685 334,458.3889 C531.2005,557.9587 609.1369,543.4071 828,513.3889 C892.8829,504.4898 964.8337,477.0208 1004.6689,460.1443 " fill="none" id="Administrator-User" style="stroke: #A80036; stroke-width: 1.0;"/><text fill="#000000" font-family="sans-serif" font-size="13" lengthAdjust="spacingAndGlyphs" textLength="46" x="600" y="529.4558">acts as</text><polygon fill="#000000" points="649,523.4553,655,526.4553,649,529.4553,649,523.4553" style="stroke: #000000; stroke-width: 1.0;"/><text fill="#000000" font-family="sans-serif" font-size="13" lengthAdjust="spacingAndGlyphs" textLength="8" x="261.343" y="425.5673">1</text><text fill="#000000" font-family="sans-serif" font-size="13" lengthAdjust="spacingAndGlyphs" textLength="8" x="988.9056" y="484.7378">1</text><!--MD5=[4efa0d2d92bfa98962c417ef05ea0136]
link Transaction to Invoice--><path d="M1120.3456,140.3234 C1165.7158,125.8505 1220.2478,108.455 1259.9523,95.7894 " fill="none" id="Transaction-Invoice" style="stroke: #A80036; stroke-width: 1.0;"/><text fill="#000000" font-family="sans-serif" font-size="13" lengthAdjust="spacingAndGlyphs" textLength="65" x="1151" y="102.4558">generates</text><polygon fill="#000000" points="1219,96.4553,1225,99.4553,1219,102.4553,1219,96.4553" style="stroke: #000000; stroke-width: 1.0;"/><text fill="#000000" font-family="sans-serif" font-size="13" lengthAdjust="spacingAndGlyphs" textLength="8" x="1127.9808" y="150.6968">1</text><text fill="#000000" font-family="sans-serif" font-size="13" lengthAdjust="spacingAndGlyphs" textLength="8" x="1244.085" y="111.2375">1</text><!--MD5=[757406b2e460220911d4cccaa97c87d9]
link Administrator to Collaborator--><path d="M304.2386,366.0636 C341.3516,354.2652 390.632,339.5469 435,329.3889 C504.7992,313.4083 522.8343,311.3107 594,303.3889 C631.4939,299.2152 673.9167,296.7052 706.6873,295.2437 " fill="none" id="Administrator-Collaborator" style="stroke: #A80036; stroke-width: 1.0;"/><text fill="#000000" font-family="sans-serif" font-size="13" lengthAdjust="spacingAndGlyphs" textLength="56" x="465" y="302.4558">registers</text><polygon fill="#000000" points="524,296.4553,530,299.4553,524,302.4553,524,296.4553" style="stroke: #000000; stroke-width: 1.0;"/><text fill="#000000" font-family="sans-serif" font-size="13" lengthAdjust="spacingAndGlyphs" textLength="8" x="311.8239" y="376.6974">1</text><text fill="#000000" font-family="sans-serif" font-size="13" lengthAdjust="spacingAndGlyphs" textLength="8" x="691.1519" y="308.5427">1</text><!--MD5=[64d713fdb760e3b6b59069371d93ba85]
link Administrator to Manager--><path d="M286.1041,405.5118 C323.5729,423.2315 381.5934,447.9455 435,459.3889 C534.4703,480.7022 654.7176,480.0129 717.8784,477.6839 " fill="none" id="Administrator-Manager" style="stroke: #A80036; stroke-width: 1.0;"/><text fill="#000000" font-family="sans-serif" font-size="13" lengthAdjust="spacingAndGlyphs" textLength="56" x="465" y="455.4558">registers</text><polygon fill="#000000" points="524,449.4553,530,452.4553,524,455.4553,524,449.4553" style="stroke: #000000; stroke-width: 1.0;"/><text fill="#000000" font-family="sans-serif" font-size="13" lengthAdjust="spacingAndGlyphs" textLength="8" x="288.2584" y="425.3663">1</text><text fill="#000000" font-family="sans-serif" font-size="13" lengthAdjust="spacingAndGlyphs" textLength="8" x="701.9911" y="491.3841">1</text><!--MD5=[ed78a468ed200fe64308209ec6c86f1e]
link Platform to Task--><path d="M90.0706,190.5253 C169.2087,187.0197 340.7011,179.4231 434.6821,175.2601 " fill="none" id="Platform-Task" style="stroke: #A80036; stroke-width: 1.0;"/><text fill="#000000" font-family="sans-serif" font-size="13" lengthAdjust="spacingAndGlyphs" textLength="92" x="193.5" y="176.4558">has registered</text><polygon fill="#000000" points="288.5,170.4553,294.5,173.4553,288.5,176.4553,288.5,170.4553" style="stroke: #000000; stroke-width: 1.0;"/><text fill="#000000" font-family="sans-serif" font-size="13" lengthAdjust="spacingAndGlyphs" textLength="8" x="97.989" y="203.5724">1</text><text fill="#000000" font-family="sans-serif" font-size="13" lengthAdjust="spacingAndGlyphs" textLength="23" x="403.8118" y="188.4022">1..*</text><!--MD5=[8b5db564ea9bd1758097b07ca3fd81a4]
link Collaborator to Transaction--><path d="M816.3051,275.2636 C847.5072,264.3307 887.027,249.4388 921,233.3889 C937.9078,225.4011 955.655,215.81 971.9935,206.446 " fill="none" id="Collaborator-Transaction" style="stroke: #A80036; stroke-width: 1.0;"/><text fill="#000000" font-family="sans-serif" font-size="13" lengthAdjust="spacingAndGlyphs" textLength="48" x="859" y="229.4558">creates</text><polygon fill="#000000" points="910,223.4553,916,226.4553,910,229.4553,910,223.4553" style="stroke: #000000; stroke-width: 1.0;"/><text fill="#000000" font-family="sans-serif" font-size="13" lengthAdjust="spacingAndGlyphs" textLength="8" x="823.8395" y="286.0027">1</text><text fill="#000000" font-family="sans-serif" font-size="13" lengthAdjust="spacingAndGlyphs" textLength="23" x="935.633" y="226.7808">1..*</text><!--MD5=[2dffed8b43a6af8e86a4c453c2e29d39]
link Freelancer to Invoice--><path d="M828.2002,71.045 C838.1872,70.7724 848.3633,70.5386 858,70.3889 C1003.0386,68.1349 1173.9896,73.1914 1259.6913,76.2585 " fill="none" id="Freelancer-Invoice" style="stroke: #A80036; stroke-width: 1.0;"/><text fill="#000000" font-family="sans-serif" font-size="13" lengthAdjust="spacingAndGlyphs" textLength="53" x="1002.5" y="65.4558">receives</text><polygon fill="#000000" points="1058.5,59.4553,1064.5,62.4553,1058.5,65.4553,1058.5,59.4553" style="stroke: #000000; stroke-width: 1.0;"/><text fill="#000000" font-family="sans-serif" font-size="13" lengthAdjust="spacingAndGlyphs" textLength="8" x="835.933" y="83.7032">1</text><text fill="#000000" font-family="sans-serif" font-size="13" lengthAdjust="spacingAndGlyphs" textLength="8" x="1244.1564" y="89.0469">1</text><!--MD5=[e2310f53a75b880786fab2c1ced73aa0]
@startuml
skinparam classAttributeIconSize 0
hide methods
left to right direction

class Platform{
}
class Freelancer {
  -String idF
  -String name
  -String levelExpertise
  -String email
  -String nif
  -String ibanAccount
  -String coutry
}

class Organization {
  -String nome
  -String email
  -String nif
}

class Collaborator{
  -String nome
  -String email
}

class Task {
  -String idT
  -String description
  -Time timeDuration
  -double costHour
  -String taskCategory
}

class Manager {
}

class User {
}

class Invoice {
  -double amountE
  -double amountC
}

class Transaction {
  -Data endDate
  -double delay
  -String descriptionOfQuality
}

class Address{
  -String street
  -String doorNumber
  -String city
}

class Administrator {
}


Freelancer "1" - - "1" Transaction: receive >
Task "1" - - "1" Transaction: results in >
Task "1..*" - - "1" Freelancer: made by >
Freelancer "1" - - "1" Address: has >
Platform "1" - - "1" Administrator: has >
Platform "1" - - "1..*" Organization: has registered >
Platform "1" - - "1..*" Freelancer: has >
Organization "1" - - "1" Address: has >
Freelancer "1" - - "1" User: acts as >
Organization "1" - - "1" Manager: has >
Organization "1" - - "1" Collaborator: has >
Collaborator "1" - - "1" User: acts as >
Manager "1" - - "1" User: acts as >
Administrator "1" - - "1" Organization: registers >
Administrator "1" - - "1" User: acts as >
Transaction "1" - - "1" Invoice: generates >
Administrator "1" - - "1" Collaborator: registers >
Administrator "1" - - "1" Manager: registers >
Platform "1" - - "1..*" Task: has registered >
Collaborator "1" - - "1..*" Transaction: creates >
Freelancer "1" - - "1" Invoice: receives >
@enduml

PlantUML version 1.2019.12(Sun Nov 03 10:24:54 UTC 2019)
(GPL source distribution)
Java Runtime: OpenJDK Runtime Environment
JVM: OpenJDK 64-Bit Server VM
Java Version: 1.8.0_232-heroku-b09
Operating System: Linux
Default Encoding: UTF-8
Language: en
Country: US
--></g></svg>