<?xml version="1.0" encoding="UTF-8" standalone="no"?><svg xmlns="http://www.w3.org/2000/svg" xmlns:xlink="http://www.w3.org/1999/xlink" contentScriptType="application/ecmascript" contentStyleType="text/css" height="624px" preserveAspectRatio="none" style="width:1405px;height:624px;" version="1.1" viewBox="0 0 1405 624" width="1405px" zoomAndPan="magnify"><defs><filter height="300%" id="fxoc0kywndrqs" width="300%" x="-1" y="-1"><feGaussianBlur result="blurOut" stdDeviation="2.0"/><feColorMatrix in="blurOut" result="blurOut2" type="matrix" values="0 0 0 0 0 0 0 0 0 0 0 0 0 0 0 0 0 0 .4 0"/><feOffset dx="4.0" dy="4.0" in="blurOut2" result="blurOut3"/><feBlend in="SourceGraphic" in2="blurOut3" mode="normal"/></filter></defs><g><!--MD5=[99b8db98afdc2c8404e39242ef4c1e65]
class Platform--><rect fill="#FEFECE" filter="url(#fxoc0kywndrqs)" height="40" id="Platform" style="stroke: #A80036; stroke-width: 1.5;" width="84" x="6" y="367"/><ellipse cx="21" cy="383" fill="#ADD1B2" rx="11" ry="11" style="stroke: #A80036; stroke-width: 1.0;"/><path d="M23.9688,388.6406 Q23.3906,388.9375 22.75,389.0859 Q22.1094,389.2344 21.4063,389.2344 Q18.9063,389.2344 17.5859,387.5859 Q16.2656,385.9375 16.2656,382.8125 Q16.2656,379.6875 17.5859,378.0313 Q18.9063,376.375 21.4063,376.375 Q22.1094,376.375 22.7578,376.5313 Q23.4063,376.6875 23.9688,376.9844 L23.9688,379.7031 Q23.3438,379.125 22.75,378.8516 Q22.1563,378.5781 21.5313,378.5781 Q20.1875,378.5781 19.5,379.6484 Q18.8125,380.7188 18.8125,382.8125 Q18.8125,384.9063 19.5,385.9766 Q20.1875,387.0469 21.5313,387.0469 Q22.1563,387.0469 22.75,386.7734 Q23.3438,386.5 23.9688,385.9219 L23.9688,388.6406 Z "/><text fill="#000000" font-family="sans-serif" font-size="12" lengthAdjust="spacingAndGlyphs" textLength="52" x="35" y="387.1543">Platform</text><line style="stroke: #A80036; stroke-width: 1.5;" x1="7" x2="89" y1="399" y2="399"/><!--MD5=[0f39e4cb6f03951afbf6d14bd2505654]
class Address--><rect fill="#FEFECE" filter="url(#fxoc0kywndrqs)" height="78.4141" id="Address" style="stroke: #A80036; stroke-width: 1.5;" width="121" x="1273" y="267"/><ellipse cx="1305.1" cy="283" fill="#ADD1B2" rx="11" ry="11" style="stroke: #A80036; stroke-width: 1.0;"/><path d="M1308.0688,288.6406 Q1307.4906,288.9375 1306.85,289.0859 Q1306.2094,289.2344 1305.5063,289.2344 Q1303.0063,289.2344 1301.6859,287.5859 Q1300.3656,285.9375 1300.3656,282.8125 Q1300.3656,279.6875 1301.6859,278.0313 Q1303.0063,276.375 1305.5063,276.375 Q1306.2094,276.375 1306.8578,276.5313 Q1307.5063,276.6875 1308.0688,276.9844 L1308.0688,279.7031 Q1307.4438,279.125 1306.85,278.8516 Q1306.2563,278.5781 1305.6313,278.5781 Q1304.2875,278.5781 1303.6,279.6484 Q1302.9125,280.7188 1302.9125,282.8125 Q1302.9125,284.9063 1303.6,285.9766 Q1304.2875,287.0469 1305.6313,287.0469 Q1306.2563,287.0469 1306.85,286.7734 Q1307.4438,286.5 1308.0688,285.9219 L1308.0688,288.6406 Z "/><text fill="#000000" font-family="sans-serif" font-size="12" lengthAdjust="spacingAndGlyphs" textLength="51" x="1322.9" y="287.1543">Address</text><line style="stroke: #A80036; stroke-width: 1.5;" x1="1274" x2="1393" y1="299" y2="299"/><text fill="#000000" font-family="sans-serif" font-size="11" lengthAdjust="spacingAndGlyphs" textLength="72" x="1279" y="313.2104">String street</text><text fill="#000000" font-family="sans-serif" font-size="11" lengthAdjust="spacingAndGlyphs" textLength="109" x="1279" y="326.0151">String doorNumber</text><text fill="#000000" font-family="sans-serif" font-size="11" lengthAdjust="spacingAndGlyphs" textLength="57" x="1279" y="338.8198">String city</text><!--MD5=[1f687b5315377fe49fca59b457947463]
class Freelancer--><rect fill="#FEFECE" filter="url(#fxoc0kywndrqs)" height="129.6328" id="Freelancer" style="stroke: #A80036; stroke-width: 1.5;" width="100" x="972" y="241"/><ellipse cx="987.45" cy="257" fill="#ADD1B2" rx="11" ry="11" style="stroke: #A80036; stroke-width: 1.0;"/><path d="M990.4188,262.6406 Q989.8406,262.9375 989.2,263.0859 Q988.5594,263.2344 987.8563,263.2344 Q985.3563,263.2344 984.0359,261.5859 Q982.7156,259.9375 982.7156,256.8125 Q982.7156,253.6875 984.0359,252.0313 Q985.3563,250.375 987.8563,250.375 Q988.5594,250.375 989.2078,250.5313 Q989.8563,250.6875 990.4188,250.9844 L990.4188,253.7031 Q989.7938,253.125 989.2,252.8516 Q988.6063,252.5781 987.9813,252.5781 Q986.6375,252.5781 985.95,253.6484 Q985.2625,254.7188 985.2625,256.8125 Q985.2625,258.9063 985.95,259.9766 Q986.6375,261.0469 987.9813,261.0469 Q988.6063,261.0469 989.2,260.7734 Q989.7938,260.5 990.4188,259.9219 L990.4188,262.6406 Z "/><text fill="#000000" font-family="sans-serif" font-size="12" lengthAdjust="spacingAndGlyphs" textLength="67" x="1001.55" y="261.1543">Freelancer</text><line style="stroke: #A80036; stroke-width: 1.5;" x1="973" x2="1071" y1="273" y2="273"/><text fill="#000000" font-family="sans-serif" font-size="11" lengthAdjust="spacingAndGlyphs" textLength="76" x="978" y="287.2104">-String freeID</text><text fill="#000000" font-family="sans-serif" font-size="11" lengthAdjust="spacingAndGlyphs" textLength="74" x="978" y="300.0151">-String name</text><text fill="#000000" font-family="sans-serif" font-size="11" lengthAdjust="spacingAndGlyphs" textLength="88" x="978" y="312.8198">-String levelExp</text><text fill="#000000" font-family="sans-serif" font-size="11" lengthAdjust="spacingAndGlyphs" textLength="73" x="978" y="325.6245">-String email</text><text fill="#000000" font-family="sans-serif" font-size="11" lengthAdjust="spacingAndGlyphs" textLength="56" x="978" y="338.4292">-String nif</text><text fill="#000000" font-family="sans-serif" font-size="11" lengthAdjust="spacingAndGlyphs" textLength="66" x="978" y="351.2339">-String iban</text><text fill="#000000" font-family="sans-serif" font-size="11" lengthAdjust="spacingAndGlyphs" textLength="84" x="978" y="364.0386">-String country</text><!--MD5=[b34797a66dc35cbf1d65f7e3ca75530e]
class Task--><rect fill="#FEFECE" filter="url(#fxoc0kywndrqs)" height="116.8281" id="Task" style="stroke: #A80036; stroke-width: 1.5;" width="129" x="692" y="191.5"/><ellipse cx="737.75" cy="207.5" fill="#ADD1B2" rx="11" ry="11" style="stroke: #A80036; stroke-width: 1.0;"/><path d="M740.7188,213.1406 Q740.1406,213.4375 739.5,213.5859 Q738.8594,213.7344 738.1563,213.7344 Q735.6563,213.7344 734.3359,212.0859 Q733.0156,210.4375 733.0156,207.3125 Q733.0156,204.1875 734.3359,202.5313 Q735.6563,200.875 738.1563,200.875 Q738.8594,200.875 739.5078,201.0313 Q740.1563,201.1875 740.7188,201.4844 L740.7188,204.2031 Q740.0938,203.625 739.5,203.3516 Q738.9063,203.0781 738.2813,203.0781 Q736.9375,203.0781 736.25,204.1484 Q735.5625,205.2188 735.5625,207.3125 Q735.5625,209.4063 736.25,210.4766 Q736.9375,211.5469 738.2813,211.5469 Q738.9063,211.5469 739.5,211.2734 Q740.0938,211 740.7188,210.4219 L740.7188,213.1406 Z "/><text fill="#000000" font-family="sans-serif" font-size="12" lengthAdjust="spacingAndGlyphs" textLength="29" x="758.25" y="211.6543">Task</text><line style="stroke: #A80036; stroke-width: 1.5;" x1="693" x2="820" y1="223.5" y2="223.5"/><text fill="#000000" font-family="sans-serif" font-size="11" lengthAdjust="spacingAndGlyphs" textLength="59" x="698" y="237.7104">-String idT</text><text fill="#000000" font-family="sans-serif" font-size="11" lengthAdjust="spacingAndGlyphs" textLength="105" x="698" y="250.5151">-String description</text><text fill="#000000" font-family="sans-serif" font-size="11" lengthAdjust="spacingAndGlyphs" textLength="109" x="698" y="263.3198">-Time timeDuration</text><text fill="#000000" font-family="sans-serif" font-size="11" lengthAdjust="spacingAndGlyphs" textLength="97" x="698" y="276.1245">-double costHour</text><text fill="#000000" font-family="sans-serif" font-size="11" lengthAdjust="spacingAndGlyphs" textLength="117" x="698" y="288.9292">-String taskCategory</text><text fill="#000000" font-family="sans-serif" font-size="11" lengthAdjust="spacingAndGlyphs" textLength="98" x="698" y="301.7339">-Boolean isPayed</text><!--MD5=[3fd616f346a44cd59a91eb10b19e157c]
class User--><rect fill="#FEFECE" filter="url(#fxoc0kywndrqs)" height="40" id="User" style="stroke: #A80036; stroke-width: 1.5;" width="61" x="726" y="431"/><ellipse cx="741" cy="447" fill="#ADD1B2" rx="11" ry="11" style="stroke: #A80036; stroke-width: 1.0;"/><path d="M743.9688,452.6406 Q743.3906,452.9375 742.75,453.0859 Q742.1094,453.2344 741.4063,453.2344 Q738.9063,453.2344 737.5859,451.5859 Q736.2656,449.9375 736.2656,446.8125 Q736.2656,443.6875 737.5859,442.0313 Q738.9063,440.375 741.4063,440.375 Q742.1094,440.375 742.7578,440.5313 Q743.4063,440.6875 743.9688,440.9844 L743.9688,443.7031 Q743.3438,443.125 742.75,442.8516 Q742.1563,442.5781 741.5313,442.5781 Q740.1875,442.5781 739.5,443.6484 Q738.8125,444.7188 738.8125,446.8125 Q738.8125,448.9063 739.5,449.9766 Q740.1875,451.0469 741.5313,451.0469 Q742.1563,451.0469 742.75,450.7734 Q743.3438,450.5 743.9688,449.9219 L743.9688,452.6406 Z "/><text fill="#000000" font-family="sans-serif" font-size="12" lengthAdjust="spacingAndGlyphs" textLength="29" x="755" y="451.1543">User</text><line style="stroke: #A80036; stroke-width: 1.5;" x1="727" x2="786" y1="463" y2="463"/><!--MD5=[4045d6f6a06909f8c0c16b57fdb55c63]
class TransactionExecution--><rect fill="#FEFECE" filter="url(#fxoc0kywndrqs)" height="78.4141" id="TransactionExecution" style="stroke: #A80036; stroke-width: 1.5;" width="169" x="672" y="78"/><ellipse cx="687.9" cy="94" fill="#ADD1B2" rx="11" ry="11" style="stroke: #A80036; stroke-width: 1.0;"/><path d="M690.8688,99.6406 Q690.2906,99.9375 689.65,100.0859 Q689.0094,100.2344 688.3063,100.2344 Q685.8063,100.2344 684.4859,98.5859 Q683.1656,96.9375 683.1656,93.8125 Q683.1656,90.6875 684.4859,89.0313 Q685.8063,87.375 688.3063,87.375 Q689.0094,87.375 689.6578,87.5313 Q690.3063,87.6875 690.8688,87.9844 L690.8688,90.7031 Q690.2438,90.125 689.65,89.8516 Q689.0563,89.5781 688.4313,89.5781 Q687.0875,89.5781 686.4,90.6484 Q685.7125,91.7188 685.7125,93.8125 Q685.7125,95.9063 686.4,96.9766 Q687.0875,98.0469 688.4313,98.0469 Q689.0563,98.0469 689.65,97.7734 Q690.2438,97.5 690.8688,96.9219 L690.8688,99.6406 Z "/><text fill="#000000" font-family="sans-serif" font-size="12" lengthAdjust="spacingAndGlyphs" textLength="135" x="702.1" y="98.1543">TransactionExecution</text><line style="stroke: #A80036; stroke-width: 1.5;" x1="673" x2="840" y1="110" y2="110"/><text fill="#000000" font-family="sans-serif" font-size="11" lengthAdjust="spacingAndGlyphs" textLength="81" x="678" y="124.2104">-Data endDate</text><text fill="#000000" font-family="sans-serif" font-size="11" lengthAdjust="spacingAndGlyphs" textLength="76" x="678" y="137.0151">-double delay</text><text fill="#000000" font-family="sans-serif" font-size="11" lengthAdjust="spacingAndGlyphs" textLength="157" x="678" y="149.8198">-String descriptionOfQuality</text><!--MD5=[86cfdc25119a3a20e0664f11a0f5b002]
class Writer--><rect fill="#FEFECE" filter="url(#fxoc0kywndrqs)" height="52.8047" id="Writer" style="stroke: #A80036; stroke-width: 1.5;" width="104" x="1281.5" y="455.5"/><ellipse cx="1312.25" cy="471.5" fill="#ADD1B2" rx="11" ry="11" style="stroke: #A80036; stroke-width: 1.0;"/><path d="M1315.2188,477.1406 Q1314.6406,477.4375 1314,477.5859 Q1313.3594,477.7344 1312.6563,477.7344 Q1310.1563,477.7344 1308.8359,476.0859 Q1307.5156,474.4375 1307.5156,471.3125 Q1307.5156,468.1875 1308.8359,466.5313 Q1310.1563,464.875 1312.6563,464.875 Q1313.3594,464.875 1314.0078,465.0313 Q1314.6563,465.1875 1315.2188,465.4844 L1315.2188,468.2031 Q1314.5938,467.625 1314,467.3516 Q1313.4063,467.0781 1312.7813,467.0781 Q1311.4375,467.0781 1310.75,468.1484 Q1310.0625,469.2188 1310.0625,471.3125 Q1310.0625,473.4063 1310.75,474.4766 Q1311.4375,475.5469 1312.7813,475.5469 Q1313.4063,475.5469 1314,475.2734 Q1314.5938,475 1315.2188,474.4219 L1315.2188,477.1406 Z "/><text fill="#000000" font-family="sans-serif" font-size="12" lengthAdjust="spacingAndGlyphs" textLength="37" x="1329.75" y="475.6543">Writer</text><line style="stroke: #A80036; stroke-width: 1.5;" x1="1282.5" x2="1384.5" y1="487.5" y2="487.5"/><text fill="#000000" font-family="sans-serif" font-size="11" lengthAdjust="spacingAndGlyphs" textLength="92" x="1287.5" y="501.7104">-String fileName</text><!--MD5=[86c7c362de55a38b660185a1328fe18d]
class Organization--><rect fill="#FEFECE" filter="url(#fxoc0kywndrqs)" height="40" id="Organization" style="stroke: #A80036; stroke-width: 1.5;" width="110" x="175" y="277"/><ellipse cx="190" cy="293" fill="#ADD1B2" rx="11" ry="11" style="stroke: #A80036; stroke-width: 1.0;"/><path d="M192.9688,298.6406 Q192.3906,298.9375 191.75,299.0859 Q191.1094,299.2344 190.4063,299.2344 Q187.9063,299.2344 186.5859,297.5859 Q185.2656,295.9375 185.2656,292.8125 Q185.2656,289.6875 186.5859,288.0313 Q187.9063,286.375 190.4063,286.375 Q191.1094,286.375 191.7578,286.5313 Q192.4063,286.6875 192.9688,286.9844 L192.9688,289.7031 Q192.3438,289.125 191.75,288.8516 Q191.1563,288.5781 190.5313,288.5781 Q189.1875,288.5781 188.5,289.6484 Q187.8125,290.7188 187.8125,292.8125 Q187.8125,294.9063 188.5,295.9766 Q189.1875,297.0469 190.5313,297.0469 Q191.1563,297.0469 191.75,296.7734 Q192.3438,296.5 192.9688,295.9219 L192.9688,298.6406 Z "/><text fill="#000000" font-family="sans-serif" font-size="12" lengthAdjust="spacingAndGlyphs" textLength="78" x="204" y="297.1543">Organization</text><line style="stroke: #A80036; stroke-width: 1.5;" x1="176" x2="284" y1="309" y2="309"/><!--MD5=[f483d6e5de34a60207b28a5563be5e8b]
class Collaborator--><rect fill="#FEFECE" filter="url(#fxoc0kywndrqs)" height="40" id="Collaborator" style="stroke: #A80036; stroke-width: 1.5;" width="109" x="370" y="277"/><ellipse cx="385" cy="293" fill="#ADD1B2" rx="11" ry="11" style="stroke: #A80036; stroke-width: 1.0;"/><path d="M387.9688,298.6406 Q387.3906,298.9375 386.75,299.0859 Q386.1094,299.2344 385.4063,299.2344 Q382.9063,299.2344 381.5859,297.5859 Q380.2656,295.9375 380.2656,292.8125 Q380.2656,289.6875 381.5859,288.0313 Q382.9063,286.375 385.4063,286.375 Q386.1094,286.375 386.7578,286.5313 Q387.4063,286.6875 387.9688,286.9844 L387.9688,289.7031 Q387.3438,289.125 386.75,288.8516 Q386.1563,288.5781 385.5313,288.5781 Q384.1875,288.5781 383.5,289.6484 Q382.8125,290.7188 382.8125,292.8125 Q382.8125,294.9063 383.5,295.9766 Q384.1875,297.0469 385.5313,297.0469 Q386.1563,297.0469 386.75,296.7734 Q387.3438,296.5 387.9688,295.9219 L387.9688,298.6406 Z "/><text fill="#000000" font-family="sans-serif" font-size="12" lengthAdjust="spacingAndGlyphs" textLength="77" x="399" y="297.1543">Collaborator</text><line style="stroke: #A80036; stroke-width: 1.5;" x1="371" x2="478" y1="309" y2="309"/><!--MD5=[874150c88719dac3f651931978d26083]
link Freelancer to Address--><path d="M1072.0479,306 C1126.7375,306 1214.3495,306 1272.8911,306 " fill="none" id="Freelancer-Address" style="stroke: #A80036; stroke-width: 1.0;"/><text fill="#000000" font-family="sans-serif" font-size="13" lengthAdjust="spacingAndGlyphs" textLength="23" x="1154.5" y="302.0669">has</text><polygon fill="#000000" points="1180.5,296.0664,1186.5,299.0664,1180.5,302.0664,1180.5,296.0664" style="stroke: #000000; stroke-width: 1.0;"/><text fill="#000000" font-family="sans-serif" font-size="13" lengthAdjust="spacingAndGlyphs" textLength="8" x="1079.9862" y="319.2052">1</text><text fill="#000000" font-family="sans-serif" font-size="13" lengthAdjust="spacingAndGlyphs" textLength="8" x="1257.0169" y="318.9638">1</text><!--MD5=[535e17355da54b57e77a1c7dbde973e0]
link Freelancer to Writer--><path d="M1072.0479,334.2774 C1131.123,367.6554 1228.6122,422.7375 1286.3815,455.3777 " fill="none" id="Freelancer-Writer" style="stroke: #A80036; stroke-width: 1.0;"/><text fill="#000000" font-family="sans-serif" font-size="13" lengthAdjust="spacingAndGlyphs" textLength="126" x="1103" y="350.0669">receives email from</text><polygon fill="#000000" points="1232,344.0664,1238,347.0664,1232,350.0664,1232,344.0664" style="stroke: #000000; stroke-width: 1.0;"/><text fill="#000000" font-family="sans-serif" font-size="13" lengthAdjust="spacingAndGlyphs" textLength="8" x="1079.9862" y="351.6358">1</text><text fill="#000000" font-family="sans-serif" font-size="13" lengthAdjust="spacingAndGlyphs" textLength="8" x="1266.5603" y="444.5918">1</text><!--MD5=[8853e9d83a8841c20c4ef075af762602]
link Task to Freelancer--><path d="M821.1091,263.6275 C867.4642,273.4049 929.0278,286.39 971.731,295.3971 " fill="none" id="Task-Freelancer" style="stroke: #A80036; stroke-width: 1.0;"/><text fill="#000000" font-family="sans-serif" font-size="13" lengthAdjust="spacingAndGlyphs" textLength="56" x="872" y="271.0669">made by</text><polygon fill="#000000" points="931,265.0664,937,268.0664,931,271.0664,931,265.0664" style="stroke: #000000; stroke-width: 1.0;"/><text fill="#000000" font-family="sans-serif" font-size="13" lengthAdjust="spacingAndGlyphs" textLength="23" x="828.9579" y="277.8889">1..*</text><text fill="#000000" font-family="sans-serif" font-size="13" lengthAdjust="spacingAndGlyphs" textLength="8" x="956.0994" y="307.0628">1</text><!--MD5=[22697d4d863c2e08ab1d60ca0d61f844]
link Platform to Freelancer--><path d="M48.6402,366.7616 C52.2231,290.5265 75.7727,25 230,25 C230,25 230,25 756.5,25 C874.6245,25 955.818,157.8164 995.0284,240.8267 " fill="none" id="Platform-Freelancer" style="stroke: #A80036; stroke-width: 1.0;"/><text fill="#000000" font-family="sans-serif" font-size="13" lengthAdjust="spacingAndGlyphs" textLength="23" x="406.5" y="21.0669">has</text><polygon fill="#000000" points="432.5,15.0664,438.5,18.0664,432.5,21.0664,432.5,15.0664" style="stroke: #000000; stroke-width: 1.0;"/><text fill="#000000" font-family="sans-serif" font-size="13" lengthAdjust="spacingAndGlyphs" textLength="8" x="39.6953" y="356.0457">1</text><text fill="#000000" font-family="sans-serif" font-size="13" lengthAdjust="spacingAndGlyphs" textLength="23" x="967.8206" y="229.9723">1..*</text><!--MD5=[22697d4d863c2e08ab1d60ca0d61f844]
link Platform to Freelancer--><path d="M61.354,407.2148 C88.3177,445.3237 153.2756,524 230,524 C230,524 230,524 756.5,524 C853.8639,524 935.0178,435.3491 981.0422,371.1119 " fill="none" id="Platform-Freelancer-1" style="stroke: #A80036; stroke-width: 1.0;"/><text fill="#000000" font-family="sans-serif" font-size="13" lengthAdjust="spacingAndGlyphs" textLength="94" x="371" y="520.0669">sends email to</text><polygon fill="#000000" points="468,514.0664,474,517.0664,468,520.0664,468,514.0664" style="stroke: #000000; stroke-width: 1.0;"/><text fill="#000000" font-family="sans-serif" font-size="13" lengthAdjust="spacingAndGlyphs" textLength="8" x="66.2348" y="427.0952">1</text><text fill="#000000" font-family="sans-serif" font-size="13" lengthAdjust="spacingAndGlyphs" textLength="8" x="968.4059" y="390.6927">1</text><!--MD5=[0bf675f16fbaf9ae71c3659ee262a45e]
link Platform to Writer--><path d="M53.6529,407.3641 C70.3994,462.7499 125.2453,612 230,612 C230,612 230,612 1022,612 C1128.3598,612 1240.483,546.6544 1296.7345,508.6211 " fill="none" id="Platform-Writer" style="stroke: #A80036; stroke-width: 1.0;"/><text fill="#000000" font-family="sans-serif" font-size="13" lengthAdjust="spacingAndGlyphs" textLength="118" x="510" y="608.0669">sends emails from</text><polygon fill="#000000" points="631,602.0664,637,605.0664,631,608.0664,631,602.0664" style="stroke: #000000; stroke-width: 1.0;"/><text fill="#000000" font-family="sans-serif" font-size="13" lengthAdjust="spacingAndGlyphs" textLength="8" x="46.0971" y="426.9373">1</text><text fill="#000000" font-family="sans-serif" font-size="13" lengthAdjust="spacingAndGlyphs" textLength="8" x="1279.817" y="528.1879">1</text><!--MD5=[7640e466c042ba2d6f9c19c816f7f0fc]
link Platform to Organization--><path d="M88.8444,366.8022 C118.8183,351.98 159.3501,331.9368 189.292,317.1303 " fill="none" id="Platform-Organization" style="stroke: #A80036; stroke-width: 1.0;"/><text fill="#000000" font-family="sans-serif" font-size="13" lengthAdjust="spacingAndGlyphs" textLength="23" x="121" y="336.0669">has</text><text fill="#000000" font-family="sans-serif" font-size="13" lengthAdjust="spacingAndGlyphs" textLength="8" x="91.2069" y="356.0978">1</text><text fill="#000000" font-family="sans-serif" font-size="13" lengthAdjust="spacingAndGlyphs" textLength="23" x="151.6085" y="336.9869">1..*</text><!--MD5=[48e68154f0bb02cefa44ee5fd25eaeea]
link Organization to TransactionExecution--><path d="M261.2051,276.8959 C311.324,245.6017 413.8103,185.6565 509,155 C561.7585,138.0087 623.3572,128.5164 671.9035,123.2681 " fill="none" id="Organization-TransactionExecution" style="stroke: #A80036; stroke-width: 1.0;"/><text fill="#000000" font-family="sans-serif" font-size="13" lengthAdjust="spacingAndGlyphs" textLength="23" x="413" y="162.0669">has</text><text fill="#000000" font-family="sans-serif" font-size="13" lengthAdjust="spacingAndGlyphs" textLength="8" x="261.1966" y="265.8736">1</text><text fill="#000000" font-family="sans-serif" font-size="13" lengthAdjust="spacingAndGlyphs" textLength="23" x="640.9455" y="136.4635">1..*</text><!--MD5=[45817597bcd7048073a670d966abfd17]
link Organization to Collaborator--><path d="M285.2156,297 C311.7208,297 343.3843,297 369.8195,297 " fill="none" id="Organization-Collaborator" style="stroke: #A80036; stroke-width: 1.0;"/><text fill="#000000" font-family="sans-serif" font-size="13" lengthAdjust="spacingAndGlyphs" textLength="23" x="316" y="293.0669">has</text><text fill="#000000" font-family="sans-serif" font-size="13" lengthAdjust="spacingAndGlyphs" textLength="8" x="293.1727" y="310.0836">1</text><text fill="#000000" font-family="sans-serif" font-size="13" lengthAdjust="spacingAndGlyphs" textLength="8" x="353.9343" y="310.0836">1</text><!--MD5=[d2c3650dbd07e79cdad2ffd4a879dec6]
link Collaborator to Freelancer--><path d="M479.1442,310.1475 C529.0278,321.4327 604.9788,336.8246 672,343 C746.7943,349.8916 766.2703,350.5599 841,343 C885.6748,338.4805 935.6186,327.8385 971.7075,319.1222 " fill="none" id="Collaborator-Freelancer" style="stroke: #A80036; stroke-width: 1.0;"/><text fill="#000000" font-family="sans-serif" font-size="13" lengthAdjust="spacingAndGlyphs" textLength="48" x="726" y="339.0669">creates</text><polygon fill="#000000" points="777,333.0664,783,336.0664,777,339.0664,777,333.0664" style="stroke: #000000; stroke-width: 1.0;"/><text fill="#000000" font-family="sans-serif" font-size="13" lengthAdjust="spacingAndGlyphs" textLength="8" x="487.0245" y="324.9978">1</text><text fill="#000000" font-family="sans-serif" font-size="13" lengthAdjust="spacingAndGlyphs" textLength="8" x="956.0726" y="334.1242">1</text><!--MD5=[f919d21ae7a75ef5ececc535e09d5009]
link Collaborator to Task--><path d="M479.323,289.2389 C537.7063,280.9738 630.0464,267.9016 691.9148,259.1431 " fill="none" id="Collaborator-Task" style="stroke: #A80036; stroke-width: 1.0;"/><text fill="#000000" font-family="sans-serif" font-size="13" lengthAdjust="spacingAndGlyphs" textLength="48" x="545" y="263.0669">creates</text><polygon fill="#000000" points="596,257.0664,602,260.0664,596,263.0664,596,257.0664" style="stroke: #000000; stroke-width: 1.0;"/><text fill="#000000" font-family="sans-serif" font-size="13" lengthAdjust="spacingAndGlyphs" textLength="8" x="486.8597" y="301.2808">1</text><text fill="#000000" font-family="sans-serif" font-size="13" lengthAdjust="spacingAndGlyphs" textLength="23" x="661.0685" y="272.942">1..*</text><!--MD5=[04ce0ecdab38a3951889ff50c232570f]
link Collaborator to User--><path d="M434.5778,317.1831 C448.0081,341.8471 474.1851,382.8931 509,404 C578.1903,445.9473 676.6314,451.8126 725.9134,451.8394 " fill="none" id="Collaborator-User" style="stroke: #A80036; stroke-width: 1.0;"/><text fill="#000000" font-family="sans-serif" font-size="13" lengthAdjust="spacingAndGlyphs" textLength="46" x="546" y="400.0669">acts as</text><polygon fill="#000000" points="595,394.0664,601,397.0664,595,400.0664,595,394.0664" style="stroke: #000000; stroke-width: 1.0;"/><text fill="#000000" font-family="sans-serif" font-size="13" lengthAdjust="spacingAndGlyphs" textLength="8" x="428.2872" y="337.0545">1</text><text fill="#000000" font-family="sans-serif" font-size="13" lengthAdjust="spacingAndGlyphs" textLength="8" x="709.9152" y="465.8501">1</text><!--MD5=[2ab7a6a303d213bb8ebe4ab6162585db]
link Collaborator to TransactionExecution--><path d="M453.696,276.7956 C469.737,266.0028 490.1513,252.7625 509,242 C566.3054,209.2791 583.113,205.7807 642,176 C654.6718,169.5916 668.102,162.7322 681.1348,156.0399 " fill="none" id="Collaborator-TransactionExecution" style="stroke: #A80036; stroke-width: 1.0;"/><text fill="#000000" font-family="sans-serif" font-size="13" lengthAdjust="spacingAndGlyphs" textLength="48" x="545" y="172.0669">creates</text><polygon fill="#000000" points="596,166.0664,602,169.0664,596,172.0664,596,166.0664" style="stroke: #000000; stroke-width: 1.0;"/><text fill="#000000" font-family="sans-serif" font-size="13" lengthAdjust="spacingAndGlyphs" textLength="8" x="452.7824" y="266.0893">1</text><text fill="#000000" font-family="sans-serif" font-size="13" lengthAdjust="spacingAndGlyphs" textLength="8" x="658.9979" y="176.3717">1</text><!--MD5=[fcdd4dc74bc0207eaed6eb249aae2fb9]
link TransactionExecution to Freelancer--><path d="M815.3295,156.2795 C823.9735,162.1679 832.7428,168.207 841,174 C885.5738,205.2715 935.5271,241.8173 971.6453,268.5163 " fill="none" id="TransactionExecution-Freelancer" style="stroke: #A80036; stroke-width: 1.0;"/><text fill="#000000" font-family="sans-serif" font-size="13" lengthAdjust="spacingAndGlyphs" textLength="23" x="895" y="195.0669">has</text><text fill="#000000" font-family="sans-serif" font-size="13" lengthAdjust="spacingAndGlyphs" textLength="8" x="816.7533" y="176.3625">1</text><text fill="#000000" font-family="sans-serif" font-size="13" lengthAdjust="spacingAndGlyphs" textLength="8" x="956.0017" y="276.4019">1</text><!--MD5=[9afed8cc89be3b594e8326575c9d0f74]
@startuml
skinparam classAttributeIconSize 0
hide methods
left to right direction

class Platform{
}
class Address{
  String street
  String doorNumber
  String city
}
class Freelancer {
  -String freeID
  -String name
  -String levelExp
  -String email
  -String nif
  -String iban
  -String country
}


class Task {
  -String idT
  -String description
  -Time timeDuration
  -double costHour
  -String taskCategory
  -Boolean isPayed
}

class User {
}



class TransactionExecution{
  -Data endDate
  -double delay
  -String descriptionOfQuality
  }

class Writer{
  -String fileName
  }



Freelancer "1" - - "1" Address: has >
Freelancer "1" - - "1" Writer: receives email from >

Task "1..*" - - "1" Freelancer: made by >



Platform "1" - - "1..*" Freelancer: has >
Platform "1" - - "1" Freelancer: sends email to >
Platform "1" - - "1" Writer : sends emails from >
Platform "1" - - "1..*" Organization: has



Organization "1" - - "1..*" TransactionExecution : has
Organization "1" - - "1" Collaborator: has




Collaborator "1" - - "1" Freelancer: creates >
Collaborator "1" - - "1..*" Task: creates >
Collaborator "1" - - "1" User: acts as >
Collaborator "1" - - "1" TransactionExecution: creates >


TransactionExecution "1" - - "1" Freelancer:has
@enduml

PlantUML version 1.2019.12(Sun Nov 03 10:24:54 UTC 2019)
(GPL source distribution)
Java Runtime: OpenJDK Runtime Environment
JVM: OpenJDK 64-Bit Server VM
Java Version: 1.8.0_232-heroku-b09
Operating System: Linux
Default Encoding: UTF-8
Language: en
Country: US
--></g></svg>