<?xml version="1.0" encoding="UTF-8" standalone="no"?><svg xmlns="http://www.w3.org/2000/svg" xmlns:xlink="http://www.w3.org/1999/xlink" contentScriptType="application/ecmascript" contentStyleType="text/css" height="627px" preserveAspectRatio="none" style="width:297px;height:627px;" version="1.1" viewBox="0 0 297 627" width="297px" zoomAndPan="magnify"><defs><filter height="300%" id="fw03shby6am7h" width="300%" x="-1" y="-1"><feGaussianBlur result="blurOut" stdDeviation="2.0"/><feColorMatrix in="blurOut" result="blurOut2" type="matrix" values="0 0 0 0 0 0 0 0 0 0 0 0 0 0 0 0 0 0 .4 0"/><feOffset dx="4.0" dy="4.0" in="blurOut2" result="blurOut3"/><feBlend in="SourceGraphic" in2="blurOut3" mode="normal"/></filter></defs><g><!--MD5=[4555bb1b0911a5adf28ce6dbe60fed2e]
class Transaction--><rect fill="#FEFECE" filter="url(#fw03shby6am7h)" height="86.4141" id="Transaction" style="stroke: #A80036; stroke-width: 1.5;" width="238" x="6" y="530"/><ellipse cx="83.75" cy="546" fill="#ADD1B2" rx="11" ry="11" style="stroke: #A80036; stroke-width: 1.0;"/><path d="M86.7188,551.6406 Q86.1406,551.9375 85.5,552.0859 Q84.8594,552.2344 84.1563,552.2344 Q81.6563,552.2344 80.3359,550.5859 Q79.0156,548.9375 79.0156,545.8125 Q79.0156,542.6875 80.3359,541.0313 Q81.6563,539.375 84.1563,539.375 Q84.8594,539.375 85.5078,539.5313 Q86.1563,539.6875 86.7188,539.9844 L86.7188,542.7031 Q86.0938,542.125 85.5,541.8516 Q84.9063,541.5781 84.2813,541.5781 Q82.9375,541.5781 82.25,542.6484 Q81.5625,543.7188 81.5625,545.8125 Q81.5625,547.9063 82.25,548.9766 Q82.9375,550.0469 84.2813,550.0469 Q84.9063,550.0469 85.5,549.7734 Q86.0938,549.5 86.7188,548.9219 L86.7188,551.6406 Z "/><text fill="#000000" font-family="sans-serif" font-size="12" lengthAdjust="spacingAndGlyphs" textLength="74" x="104.25" y="550.1543">Transaction</text><line style="stroke: #A80036; stroke-width: 1.5;" x1="7" x2="243" y1="562" y2="562"/><line style="stroke: #A80036; stroke-width: 1.5;" x1="7" x2="243" y1="570" y2="570"/><text fill="#000000" font-family="sans-serif" font-size="11" lengthAdjust="spacingAndGlyphs" textLength="226" x="12" y="584.2104">create(task, freel, endDate, delay, qow)</text><text fill="#000000" font-family="sans-serif" font-size="11" lengthAdjust="spacingAndGlyphs" textLength="183" x="12" y="597.0151">validateTaskExecution(taskExec)</text><text fill="#000000" font-family="sans-serif" font-size="11" lengthAdjust="spacingAndGlyphs" textLength="160" x="12" y="609.8198">addTaskExecution(taskExec)</text><!--MD5=[dc112212ffdae1b478a87df5bc652088]
class DefinePayment--><rect fill="#FEFECE" filter="url(#fw03shby6am7h)" height="86.4141" id="DefinePayment" style="stroke: #A80036; stroke-width: 1.5;" width="126" x="120" y="250"/><ellipse cx="135" cy="266" fill="#ADD1B2" rx="11" ry="11" style="stroke: #A80036; stroke-width: 1.0;"/><path d="M137.9688,271.6406 Q137.3906,271.9375 136.75,272.0859 Q136.1094,272.2344 135.4063,272.2344 Q132.9063,272.2344 131.5859,270.5859 Q130.2656,268.9375 130.2656,265.8125 Q130.2656,262.6875 131.5859,261.0313 Q132.9063,259.375 135.4063,259.375 Q136.1094,259.375 136.7578,259.5313 Q137.4063,259.6875 137.9688,259.9844 L137.9688,262.7031 Q137.3438,262.125 136.75,261.8516 Q136.1563,261.5781 135.5313,261.5781 Q134.1875,261.5781 133.5,262.6484 Q132.8125,263.7188 132.8125,265.8125 Q132.8125,267.9063 133.5,268.9766 Q134.1875,270.0469 135.5313,270.0469 Q136.1563,270.0469 136.75,269.7734 Q137.3438,269.5 137.9688,268.9219 L137.9688,271.6406 Z "/><text fill="#000000" font-family="sans-serif" font-size="12" lengthAdjust="spacingAndGlyphs" textLength="94" x="149" y="270.1543">DefinePayment</text><line style="stroke: #A80036; stroke-width: 1.5;" x1="121" x2="245" y1="282" y2="282"/><text fill="#000000" font-family="sans-serif" font-size="11" lengthAdjust="spacingAndGlyphs" textLength="95" x="126" y="296.2104">-Time timeToPay</text><text fill="#000000" font-family="sans-serif" font-size="11" lengthAdjust="spacingAndGlyphs" textLength="93" x="126" y="309.0151">-Data dateToPay</text><text fill="#000000" font-family="sans-serif" font-size="11" lengthAdjust="spacingAndGlyphs" textLength="62" x="126" y="321.8198">-int nrDays</text><line style="stroke: #A80036; stroke-width: 1.5;" x1="121" x2="245" y1="328.4141" y2="328.4141"/><!--MD5=[764fca796ce7f635542948d8fc39db5e]
class Payment--><rect fill="#FEFECE" filter="url(#fw03shby6am7h)" height="73.6094" id="Payment" style="stroke: #A80036; stroke-width: 1.5;" width="96" x="135" y="396"/><ellipse cx="154.5" cy="412" fill="#ADD1B2" rx="11" ry="11" style="stroke: #A80036; stroke-width: 1.0;"/><path d="M157.4688,417.6406 Q156.8906,417.9375 156.25,418.0859 Q155.6094,418.2344 154.9063,418.2344 Q152.4063,418.2344 151.0859,416.5859 Q149.7656,414.9375 149.7656,411.8125 Q149.7656,408.6875 151.0859,407.0313 Q152.4063,405.375 154.9063,405.375 Q155.6094,405.375 156.2578,405.5313 Q156.9063,405.6875 157.4688,405.9844 L157.4688,408.7031 Q156.8438,408.125 156.25,407.8516 Q155.6563,407.5781 155.0313,407.5781 Q153.6875,407.5781 153,408.6484 Q152.3125,409.7188 152.3125,411.8125 Q152.3125,413.9063 153,414.9766 Q153.6875,416.0469 155.0313,416.0469 Q155.6563,416.0469 156.25,415.7734 Q156.8438,415.5 157.4688,414.9219 L157.4688,417.6406 Z "/><text fill="#000000" font-family="sans-serif" font-size="12" lengthAdjust="spacingAndGlyphs" textLength="54" x="169.5" y="416.1543">Payment</text><line style="stroke: #A80036; stroke-width: 1.5;" x1="136" x2="230" y1="428" y2="428"/><text fill="#000000" font-family="sans-serif" font-size="11" lengthAdjust="spacingAndGlyphs" textLength="83" x="141" y="442.2104">-double valueE</text><text fill="#000000" font-family="sans-serif" font-size="11" lengthAdjust="spacingAndGlyphs" textLength="84" x="141" y="455.0151">-double valueC</text><line style="stroke: #A80036; stroke-width: 1.5;" x1="136" x2="230" y1="461.6094" y2="461.6094"/><!--MD5=[21e9303e9a6d1efef92aaf3b4b0c3213]
class DefinePaymentController--><rect fill="#FEFECE" filter="url(#fw03shby6am7h)" height="73.6094" id="DefinePaymentController" style="stroke: #A80036; stroke-width: 1.5;" width="207" x="79.5" y="116"/><ellipse cx="103.5" cy="132" fill="#ADD1B2" rx="11" ry="11" style="stroke: #A80036; stroke-width: 1.0;"/><path d="M106.4688,137.6406 Q105.8906,137.9375 105.25,138.0859 Q104.6094,138.2344 103.9063,138.2344 Q101.4063,138.2344 100.0859,136.5859 Q98.7656,134.9375 98.7656,131.8125 Q98.7656,128.6875 100.0859,127.0313 Q101.4063,125.375 103.9063,125.375 Q104.6094,125.375 105.2578,125.5313 Q105.9063,125.6875 106.4688,125.9844 L106.4688,128.7031 Q105.8438,128.125 105.25,127.8516 Q104.6563,127.5781 104.0313,127.5781 Q102.6875,127.5781 102,128.6484 Q101.3125,129.7188 101.3125,131.8125 Q101.3125,133.9063 102,134.9766 Q102.6875,136.0469 104.0313,136.0469 Q104.6563,136.0469 105.25,135.7734 Q105.8438,135.5 106.4688,134.9219 L106.4688,137.6406 Z "/><text fill="#000000" font-family="sans-serif" font-size="12" lengthAdjust="spacingAndGlyphs" textLength="155" x="119.5" y="136.1543">DefinePaymentController</text><line style="stroke: #A80036; stroke-width: 1.5;" x1="80.5" x2="285.5" y1="148" y2="148"/><line style="stroke: #A80036; stroke-width: 1.5;" x1="80.5" x2="285.5" y1="156" y2="156"/><text fill="#000000" font-family="sans-serif" font-size="11" lengthAdjust="spacingAndGlyphs" textLength="195" x="85.5" y="170.2104">+newPayment(time, date, nrDays)</text><text fill="#000000" font-family="sans-serif" font-size="11" lengthAdjust="spacingAndGlyphs" textLength="118" x="85.5" y="183.0151">+registersPayment()</text><!--MD5=[0582f2f224cab4acb6092e7e06f2ec46]
class PaymentUI--><rect fill="#FEFECE" filter="url(#fw03shby6am7h)" height="48" id="PaymentUI" style="stroke: #A80036; stroke-width: 1.5;" width="98" x="134" y="8"/><ellipse cx="149" cy="24" fill="#ADD1B2" rx="11" ry="11" style="stroke: #A80036; stroke-width: 1.0;"/><path d="M151.9688,29.6406 Q151.3906,29.9375 150.75,30.0859 Q150.1094,30.2344 149.4063,30.2344 Q146.9063,30.2344 145.5859,28.5859 Q144.2656,26.9375 144.2656,23.8125 Q144.2656,20.6875 145.5859,19.0313 Q146.9063,17.375 149.4063,17.375 Q150.1094,17.375 150.7578,17.5313 Q151.4063,17.6875 151.9688,17.9844 L151.9688,20.7031 Q151.3438,20.125 150.75,19.8516 Q150.1563,19.5781 149.5313,19.5781 Q148.1875,19.5781 147.5,20.6484 Q146.8125,21.7188 146.8125,23.8125 Q146.8125,25.9063 147.5,26.9766 Q148.1875,28.0469 149.5313,28.0469 Q150.1563,28.0469 150.75,27.7734 Q151.3438,27.5 151.9688,26.9219 L151.9688,29.6406 Z "/><text fill="#000000" font-family="sans-serif" font-size="12" lengthAdjust="spacingAndGlyphs" textLength="66" x="163" y="28.1543">PaymentUI</text><line style="stroke: #A80036; stroke-width: 1.5;" x1="135" x2="231" y1="40" y2="40"/><line style="stroke: #A80036; stroke-width: 1.5;" x1="135" x2="231" y1="48" y2="48"/><!--MD5=[0623b4328678d73e7aca26cac89081d6]
link PaymentUI to DefinePaymentController--><path d="M183,56.1953 C183,71.8292 183,92.5956 183,110.885 " fill="none" id="PaymentUI-&gt;DefinePaymentController" style="stroke: #A80036; stroke-width: 1.0; stroke-dasharray: 7.0,7.0;"/><polygon fill="#A80036" points="183,115.9716,187,106.9716,183,110.9716,179,106.9716,183,115.9716" style="stroke: #A80036; stroke-width: 1.0;"/><!--MD5=[e8a6a1af88e534532104c038c137f2db]
link DefinePaymentController to Transaction--><path d="M141.1844,190.4394 C125.756,206.98 110.0776,227.7245 102,250 C68.3323,342.8448 91.7026,460.3667 109.6834,524.9768 " fill="none" id="DefinePaymentController-&gt;Transaction" style="stroke: #A80036; stroke-width: 1.0; stroke-dasharray: 7.0,7.0;"/><polygon fill="#A80036" points="111.0766,529.9174,112.4836,520.1696,109.7195,525.1051,104.784,522.3409,111.0766,529.9174" style="stroke: #A80036; stroke-width: 1.0;"/><!--MD5=[dffd669b0e019a9b876e8ed9cceb8efb]
link DefinePaymentController to DefinePayment--><path d="M183,190.1499 C183,206.8146 183,226.6917 183,244.5095 " fill="none" id="DefinePaymentController-&gt;DefinePayment" style="stroke: #A80036; stroke-width: 1.0; stroke-dasharray: 7.0,7.0;"/><polygon fill="#A80036" points="183,249.9672,187,240.9672,183,244.9672,179,240.9672,183,249.9672" style="stroke: #A80036; stroke-width: 1.0;"/><!--MD5=[ca8f850f255adbf18de391874edbc773]
link DefinePaymentController to Payment--><path d="M224.8156,190.4394 C240.244,206.98 255.9224,227.7245 264,250 C277.03,285.9327 277.03,300.0673 264,336 C256.5535,356.5352 242.6474,375.7693 228.4325,391.6082 " fill="none" id="DefinePaymentController-&gt;Payment" style="stroke: #A80036; stroke-width: 1.0; stroke-dasharray: 7.0,7.0;"/><polygon fill="#A80036" points="224.8156,395.5606,233.8424,391.6215,228.1911,391.872,227.9406,386.2207,224.8156,395.5606" style="stroke: #A80036; stroke-width: 1.0;"/><!--MD5=[c4629210b2ba88e64afbee18491f07dd]
link Payment to Transaction--><path d="M167.6093,470.1499 C160.6459,486.9582 152.3285,507.0347 144.8982,524.9698 " fill="none" id="Payment-&gt;Transaction" style="stroke: #A80036; stroke-width: 1.0; stroke-dasharray: 7.0,7.0;"/><polygon fill="#A80036" points="142.8279,529.9672,149.968,523.1835,144.7416,525.3479,142.5772,520.1215,142.8279,529.9672" style="stroke: #A80036; stroke-width: 1.0;"/><text fill="#000000" font-family="sans-serif" font-size="13" lengthAdjust="spacingAndGlyphs" textLength="8" x="156.3977" y="489.6553">1</text><text fill="#000000" font-family="sans-serif" font-size="13" lengthAdjust="spacingAndGlyphs" textLength="7" x="138.1114" y="518.958">*</text><!--MD5=[8d90593bea2390679155cfb91b569b68]
link DefinePayment to Payment--><path d="M183,336.147 C183,353.4758 183,373.3925 183,390.6415 " fill="none" id="DefinePayment-&gt;Payment" style="stroke: #A80036; stroke-width: 1.0; stroke-dasharray: 7.0,7.0;"/><polygon fill="#A80036" points="183,395.9032,187,386.9032,183,390.9032,179,386.9032,183,395.9032" style="stroke: #A80036; stroke-width: 1.0;"/><text fill="#000000" font-family="sans-serif" font-size="13" lengthAdjust="spacingAndGlyphs" textLength="8" x="174.3375" y="356.579">1</text><text fill="#000000" font-family="sans-serif" font-size="13" lengthAdjust="spacingAndGlyphs" textLength="7" x="175.3547" y="384.7958">*</text><!--MD5=[c8c882a40e68b2b3c69b162e38e2c0eb]
@startuml
skinparam classAttributeIconSize 0


class Transaction {
  create(task, freel, endDate, delay, qow)
  validateTaskExecution(taskExec)
  addTaskExecution(taskExec)
}

class DefinePayment {
  -Time timeToPay
  -Data dateToPay
  -int nrDays
}

class Payment {
  -double valueE
  -double valueC
}

class DefinePaymentController {
  +newPayment(time, date, nrDays)
  +registersPayment()
}

class PaymentUI {
}

PaymentUI ..> DefinePaymentController
DefinePaymentController ..> Transaction
DefinePaymentController ..> DefinePayment
DefinePaymentController ..> Payment
Payment "1" ..> "*" Transaction
DefinePayment "1" ..> "*" Payment
@enduml

PlantUML version 1.2019.12(Sun Nov 03 10:24:54 UTC 2019)
(GPL source distribution)
Java Runtime: OpenJDK Runtime Environment
JVM: OpenJDK 64-Bit Server VM
Java Version: 1.8.0_232-heroku-b09
Operating System: Linux
Default Encoding: UTF-8
Language: en
Country: US
--></g></svg>