<?xml version="1.0" encoding="UTF-8" standalone="no"?><svg xmlns="http://www.w3.org/2000/svg" xmlns:xlink="http://www.w3.org/1999/xlink" contentScriptType="application/ecmascript" contentStyleType="text/css" height="148px" preserveAspectRatio="none" style="width:755px;height:148px;" version="1.1" viewBox="0 0 755 148" width="755.2px" zoomAndPan="magnify"><defs><filter height="300%" id="f15tk25xpd9052" width="300%" x="-1" y="-1"><feGaussianBlur result="blurOut" stdDeviation="1.6"/><feColorMatrix in="blurOut" result="blurOut2" type="matrix" values="0 0 0 0 0 0 0 0 0 0 0 0 0 0 0 0 0 0 .4 0"/><feOffset dx="3.2" dy="3.2" in="blurOut2" result="blurOut3"/><feBlend in="SourceGraphic" in2="blurOut3" mode="normal"/></filter></defs><g><!--MD5=[99b8db98afdc2c8404e39242ef4c1e65]
class Platform--><rect fill="#FEFECE" filter="url(#f15tk25xpd9052)" height="32" id="Platform" style="stroke: #A80036; stroke-width: 1.2000000000000002;" width="62.4" x="4.8" y="68.8"/><ellipse cx="16.8" cy="81.6" fill="#ADD1B2" rx="8.8" ry="8.8" style="stroke: #A80036; stroke-width: 0.8;"/><path d="M18.4,78.8 Q18.5625,78.4 18.75,78.2 Q18.9375,78 19.15,78 Q19.525,78 19.7625,78.225 Q20,78.45 20,78.975 L20,80.225 Q20,80.75 19.775,80.975 Q19.55,81.2 19.2,81.2 Q18.8875,81.2 18.6875,81.0625 Q18.4875,80.925 18.4,80.5625 Q18.3625,80.3125 18.225,80.175 Q17.975,79.9125 17.525,79.7625 Q17.075,79.6 16.625,79.6 Q16.0625,79.6 15.5875,79.825 Q15.125,80.05 14.7625,80.55 Q14.4,81.05 14.4,81.7375 L14.4,82.475 Q14.4,83.3 15.075,83.85 Q15.75,84.4 16.95,84.4 Q17.6625,84.4 18.1625,84.2375 Q18.45,84.15 18.775,83.8625 Q18.9875,83.7 19.1,83.65 Q19.2125,83.6 19.35,83.6 Q19.6125,83.6 19.8,83.8125 Q20,84.0125 20,84.3 Q20,84.575 19.725,84.9 Q19.325,85.375 18.6875,85.6375 Q17.85,86 16.825,86 Q15.625,86 14.6625,85.525 Q13.8875,85.15 13.3375,84.3375 Q12.8,83.525 12.8,82.5625 L12.8,81.6875 Q12.8,80.6875 13.275,79.8125 Q13.7625,78.9375 14.6,78.475 Q15.45,78 16.4,78 Q16.975,78 17.475,78.2 Q17.975,78.4 18.4,78.8 Z "/><text fill="#000000" font-family="sans-serif" font-size="9.6" lengthAdjust="spacingAndGlyphs" textLength="36.8" x="28" y="85.5281">Platform</text><line style="stroke: #A80036; stroke-width: 1.2000000000000002;" x1="5.6" x2="66.4" y1="94.4" y2="94.4"/><!--MD5=[86c7c362de55a38b660185a1328fe18d]
class Organization--><rect fill="#FEFECE" filter="url(#f15tk25xpd9052)" height="65.2063" id="Organization" style="stroke: #A80036; stroke-width: 1.2000000000000002;" width="80.8" x="192.8" y="52"/><ellipse cx="204.8" cy="64.8" fill="#ADD1B2" rx="8.8" ry="8.8" style="stroke: #A80036; stroke-width: 0.8;"/><path d="M206.4,62 Q206.5625,61.6 206.75,61.4 Q206.9375,61.2 207.15,61.2 Q207.525,61.2 207.7625,61.425 Q208,61.65 208,62.175 L208,63.425 Q208,63.95 207.775,64.175 Q207.55,64.4 207.2,64.4 Q206.8875,64.4 206.6875,64.2625 Q206.4875,64.125 206.4,63.7625 Q206.3625,63.5125 206.225,63.375 Q205.975,63.1125 205.525,62.9625 Q205.075,62.8 204.625,62.8 Q204.0625,62.8 203.5875,63.025 Q203.125,63.25 202.7625,63.75 Q202.4,64.25 202.4,64.9375 L202.4,65.675 Q202.4,66.5 203.075,67.05 Q203.75,67.6 204.95,67.6 Q205.6625,67.6 206.1625,67.4375 Q206.45,67.35 206.775,67.0625 Q206.9875,66.9 207.1,66.85 Q207.2125,66.8 207.35,66.8 Q207.6125,66.8 207.8,67.0125 Q208,67.2125 208,67.5 Q208,67.775 207.725,68.1 Q207.325,68.575 206.6875,68.8375 Q205.85,69.2 204.825,69.2 Q203.625,69.2 202.6625,68.725 Q201.8875,68.35 201.3375,67.5375 Q200.8,66.725 200.8,65.7625 L200.8,64.8875 Q200.8,63.8875 201.275,63.0125 Q201.7625,62.1375 202.6,61.675 Q203.45,61.2 204.4,61.2 Q204.975,61.2 205.475,61.4 Q205.975,61.6 206.4,62 Z "/><text fill="#000000" font-family="sans-serif" font-size="9.6" lengthAdjust="spacingAndGlyphs" textLength="55.2" x="216" y="68.7281">Organization</text><line style="stroke: #A80036; stroke-width: 1.2000000000000002;" x1="193.6" x2="272.8" y1="77.6" y2="77.6"/><text fill="#000000" font-family="sans-serif" font-size="8.8" lengthAdjust="spacingAndGlyphs" textLength="48.8" x="197.6" y="89.9352">-String name</text><text fill="#000000" font-family="sans-serif" font-size="8.8" lengthAdjust="spacingAndGlyphs" textLength="47.2" x="197.6" y="101.0039">-String email</text><text fill="#000000" font-family="sans-serif" font-size="8.8" lengthAdjust="spacingAndGlyphs" textLength="37.6" x="197.6" y="112.0727">-String nif</text><!--MD5=[b24ed8d4ae84bae9290d9aab401637c7]
class Manager--><rect fill="#FEFECE" filter="url(#f15tk25xpd9052)" height="65.2063" id="Manager" style="stroke: #A80036; stroke-width: 1.2000000000000002;" width="64.8" x="350.4" y="7.2"/><ellipse cx="362.76" cy="20" fill="#ADD1B2" rx="8.8" ry="8.8" style="stroke: #A80036; stroke-width: 0.8;"/><path d="M364.36,17.2 Q364.5225,16.8 364.71,16.6 Q364.8975,16.4 365.11,16.4 Q365.485,16.4 365.7225,16.625 Q365.96,16.85 365.96,17.375 L365.96,18.625 Q365.96,19.15 365.735,19.375 Q365.51,19.6 365.16,19.6 Q364.8475,19.6 364.6475,19.4625 Q364.4475,19.325 364.36,18.9625 Q364.3225,18.7125 364.185,18.575 Q363.935,18.3125 363.485,18.1625 Q363.035,18 362.585,18 Q362.0225,18 361.5475,18.225 Q361.085,18.45 360.7225,18.95 Q360.36,19.45 360.36,20.1375 L360.36,20.875 Q360.36,21.7 361.035,22.25 Q361.71,22.8 362.91,22.8 Q363.6225,22.8 364.1225,22.6375 Q364.41,22.55 364.735,22.2625 Q364.9475,22.1 365.06,22.05 Q365.1725,22 365.31,22 Q365.5725,22 365.76,22.2125 Q365.96,22.4125 365.96,22.7 Q365.96,22.975 365.685,23.3 Q365.285,23.775 364.6475,24.0375 Q363.81,24.4 362.785,24.4 Q361.585,24.4 360.6225,23.925 Q359.8475,23.55 359.2975,22.7375 Q358.76,21.925 358.76,20.9625 L358.76,20.0875 Q358.76,19.0875 359.235,18.2125 Q359.7225,17.3375 360.56,16.875 Q361.41,16.4 362.36,16.4 Q362.935,16.4 363.435,16.6 Q363.935,16.8 364.36,17.2 Z "/><text fill="#000000" font-family="sans-serif" font-size="9.6" lengthAdjust="spacingAndGlyphs" textLength="38.4" x="374.04" y="23.9281">Manager</text><line style="stroke: #A80036; stroke-width: 1.2000000000000002;" x1="351.2" x2="414.4" y1="32.8" y2="32.8"/><text fill="#000000" font-family="sans-serif" font-size="8.8" lengthAdjust="spacingAndGlyphs" textLength="55.2" x="355.2" y="45.1352">-String nameM</text><text fill="#000000" font-family="sans-serif" font-size="8.8" lengthAdjust="spacingAndGlyphs" textLength="53.6" x="355.2" y="56.2039">-String emailM</text><text fill="#000000" font-family="sans-serif" font-size="8.8" lengthAdjust="spacingAndGlyphs" textLength="42.4" x="355.2" y="67.2727">-String role</text><!--MD5=[3fd616f346a44cd59a91eb10b19e157c]
class User--><rect fill="#FEFECE" filter="url(#f15tk25xpd9052)" height="32" id="User" style="stroke: #A80036; stroke-width: 1.2000000000000002;" width="47.2" x="532.4" y="6.4"/><ellipse cx="544.4" cy="19.2" fill="#ADD1B2" rx="8.8" ry="8.8" style="stroke: #A80036; stroke-width: 0.8;"/><path d="M546,16.4 Q546.1625,16 546.35,15.8 Q546.5375,15.6 546.75,15.6 Q547.125,15.6 547.3625,15.825 Q547.6,16.05 547.6,16.575 L547.6,17.825 Q547.6,18.35 547.375,18.575 Q547.15,18.8 546.8,18.8 Q546.4875,18.8 546.2875,18.6625 Q546.0875,18.525 546,18.1625 Q545.9625,17.9125 545.825,17.775 Q545.575,17.5125 545.125,17.3625 Q544.675,17.2 544.225,17.2 Q543.6625,17.2 543.1875,17.425 Q542.725,17.65 542.3625,18.15 Q542,18.65 542,19.3375 L542,20.075 Q542,20.9 542.675,21.45 Q543.35,22 544.55,22 Q545.2625,22 545.7625,21.8375 Q546.05,21.75 546.375,21.4625 Q546.5875,21.3 546.7,21.25 Q546.8125,21.2 546.95,21.2 Q547.2125,21.2 547.4,21.4125 Q547.6,21.6125 547.6,21.9 Q547.6,22.175 547.325,22.5 Q546.925,22.975 546.2875,23.2375 Q545.45,23.6 544.425,23.6 Q543.225,23.6 542.2625,23.125 Q541.4875,22.75 540.9375,21.9375 Q540.4,21.125 540.4,20.1625 L540.4,19.2875 Q540.4,18.2875 540.875,17.4125 Q541.3625,16.5375 542.2,16.075 Q543.05,15.6 544,15.6 Q544.575,15.6 545.075,15.8 Q545.575,16 546,16.4 Z "/><text fill="#000000" font-family="sans-serif" font-size="9.6" lengthAdjust="spacingAndGlyphs" textLength="21.6" x="555.6" y="23.1281">User</text><line style="stroke: #A80036; stroke-width: 1.2000000000000002;" x1="533.2" x2="578.8" y1="32" y2="32"/><!--MD5=[764fca796ce7f635542948d8fc39db5e]
class Payment--><rect fill="#FEFECE" filter="url(#f15tk25xpd9052)" height="54.1375" id="Payment" style="stroke: #A80036; stroke-width: 1.2000000000000002;" width="67.2" x="679.2" y="80"/><ellipse cx="692.64" cy="92.8" fill="#ADD1B2" rx="8.8" ry="8.8" style="stroke: #A80036; stroke-width: 0.8;"/><path d="M694.24,90 Q694.4025,89.6 694.59,89.4 Q694.7775,89.2 694.99,89.2 Q695.365,89.2 695.6025,89.425 Q695.84,89.65 695.84,90.175 L695.84,91.425 Q695.84,91.95 695.615,92.175 Q695.39,92.4 695.04,92.4 Q694.7275,92.4 694.5275,92.2625 Q694.3275,92.125 694.24,91.7625 Q694.2025,91.5125 694.065,91.375 Q693.815,91.1125 693.365,90.9625 Q692.915,90.8 692.465,90.8 Q691.9025,90.8 691.4275,91.025 Q690.965,91.25 690.6025,91.75 Q690.24,92.25 690.24,92.9375 L690.24,93.675 Q690.24,94.5 690.915,95.05 Q691.59,95.6 692.79,95.6 Q693.5025,95.6 694.0025,95.4375 Q694.29,95.35 694.615,95.0625 Q694.8275,94.9 694.94,94.85 Q695.0525,94.8 695.19,94.8 Q695.4525,94.8 695.64,95.0125 Q695.84,95.2125 695.84,95.5 Q695.84,95.775 695.565,96.1 Q695.165,96.575 694.5275,96.8375 Q693.69,97.2 692.665,97.2 Q691.465,97.2 690.5025,96.725 Q689.7275,96.35 689.1775,95.5375 Q688.64,94.725 688.64,93.7625 L688.64,92.8875 Q688.64,91.8875 689.115,91.0125 Q689.6025,90.1375 690.44,89.675 Q691.29,89.2 692.24,89.2 Q692.815,89.2 693.315,89.4 Q693.815,89.6 694.24,90 Z "/><text fill="#000000" font-family="sans-serif" font-size="9.6" lengthAdjust="spacingAndGlyphs" textLength="38.4" x="704.16" y="96.7281">Payment</text><line style="stroke: #A80036; stroke-width: 1.2000000000000002;" x1="680" x2="745.6" y1="105.6" y2="105.6"/><text fill="#000000" font-family="sans-serif" font-size="8.8" lengthAdjust="spacingAndGlyphs" textLength="56.8" x="684" y="117.9352">-double valueE</text><text fill="#000000" font-family="sans-serif" font-size="8.8" lengthAdjust="spacingAndGlyphs" textLength="57.6" x="684" y="129.0039">-double valueC</text><!--MD5=[dc112212ffdae1b478a87df5bc652088]
class DefinePayment--><rect fill="#FEFECE" filter="url(#f15tk25xpd9052)" height="65.2063" id="DefinePayment" style="stroke: #A80036; stroke-width: 1.2000000000000002;" width="92.8" x="509.6" y="74.4"/><ellipse cx="521.6" cy="87.2" fill="#ADD1B2" rx="8.8" ry="8.8" style="stroke: #A80036; stroke-width: 0.8;"/><path d="M523.2,84.4 Q523.3625,84 523.55,83.8 Q523.7375,83.6 523.95,83.6 Q524.325,83.6 524.5625,83.825 Q524.8,84.05 524.8,84.575 L524.8,85.825 Q524.8,86.35 524.575,86.575 Q524.35,86.8 524,86.8 Q523.6875,86.8 523.4875,86.6625 Q523.2875,86.525 523.2,86.1625 Q523.1625,85.9125 523.025,85.775 Q522.775,85.5125 522.325,85.3625 Q521.875,85.2 521.425,85.2 Q520.8625,85.2 520.3875,85.425 Q519.925,85.65 519.5625,86.15 Q519.2,86.65 519.2,87.3375 L519.2,88.075 Q519.2,88.9 519.875,89.45 Q520.55,90 521.75,90 Q522.4625,90 522.9625,89.8375 Q523.25,89.75 523.575,89.4625 Q523.7875,89.3 523.9,89.25 Q524.0125,89.2 524.15,89.2 Q524.4125,89.2 524.6,89.4125 Q524.8,89.6125 524.8,89.9 Q524.8,90.175 524.525,90.5 Q524.125,90.975 523.4875,91.2375 Q522.65,91.6 521.625,91.6 Q520.425,91.6 519.4625,91.125 Q518.6875,90.75 518.1375,89.9375 Q517.6,89.125 517.6,88.1625 L517.6,87.2875 Q517.6,86.2875 518.075,85.4125 Q518.5625,84.5375 519.4,84.075 Q520.25,83.6 521.2,83.6 Q521.775,83.6 522.275,83.8 Q522.775,84 523.2,84.4 Z "/><text fill="#000000" font-family="sans-serif" font-size="9.6" lengthAdjust="spacingAndGlyphs" textLength="67.2" x="532.8" y="91.1281">DefinePayment</text><line style="stroke: #A80036; stroke-width: 1.2000000000000002;" x1="510.4" x2="601.6" y1="100" y2="100"/><text fill="#000000" font-family="sans-serif" font-size="8.8" lengthAdjust="spacingAndGlyphs" textLength="62.4" x="514.4" y="112.3352">-Time timeToPay</text><text fill="#000000" font-family="sans-serif" font-size="8.8" lengthAdjust="spacingAndGlyphs" textLength="64" x="514.4" y="123.4039">-Date dateToPay</text><text fill="#000000" font-family="sans-serif" font-size="8.8" lengthAdjust="spacingAndGlyphs" textLength="42.4" x="514.4" y="134.4727">-int nrDays</text><!--MD5=[7640e466c042ba2d6f9c19c816f7f0fc]
link Platform to Organization--><path d="M67.3625,84.8 C101.1008,84.8 155.5296,84.8 192.5816,84.8 " fill="none" id="Platform-Organization" style="stroke: #A80036; stroke-width: 0.8;"/><text fill="#000000" font-family="sans-serif" font-size="10.4" lengthAdjust="spacingAndGlyphs" textLength="65.6" x="92" y="81.9961">has registered</text><polygon fill="#000000" points="160,76.5406,164.8,78.9406,160,81.3406,160,76.5406" style="stroke: #000000; stroke-width: 0.8;"/><text fill="#000000" font-family="sans-serif" font-size="10.4" lengthAdjust="spacingAndGlyphs" textLength="5.6" x="73.6612" y="96.802">1</text><text fill="#000000" font-family="sans-serif" font-size="10.4" lengthAdjust="spacingAndGlyphs" textLength="16" x="170.3524" y="96.4593">1..*</text><!--MD5=[bc039f41cf0b27fadee5cae63fc6e1fe]
link Organization to Manager--><path d="M273.6616,72.7944 C297.636,65.5372 327.7896,56.4096 350.1936,49.628 " fill="none" id="Organization-Manager" style="stroke: #A80036; stroke-width: 0.8;"/><text fill="#000000" font-family="sans-serif" font-size="10.4" lengthAdjust="spacingAndGlyphs" textLength="16.8" x="298.4" y="54.7961">has</text><polygon fill="#000000" points="317.6,49.3406,322.4,51.7406,317.6,54.1406,317.6,49.3406" style="stroke: #000000; stroke-width: 0.8;"/><text fill="#000000" font-family="sans-serif" font-size="10.4" lengthAdjust="spacingAndGlyphs" textLength="5.6" x="280.0156" y="82.8167">1</text><text fill="#000000" font-family="sans-serif" font-size="10.4" lengthAdjust="spacingAndGlyphs" textLength="5.6" x="338.5081" y="63.2369">1</text><!--MD5=[cb0755ad77e11534d97f26a610810f27]
link Organization to DefinePayment--><path d="M273.7504,91.3208 C296.1904,94.736 324.7888,98.6456 350.4,100.8 C404.9896,105.3919 468.0136,106.7752 509.5696,107.1486 " fill="none" id="Organization-DefinePayment" style="stroke: #A80036; stroke-width: 0.8;"/><text fill="#000000" font-family="sans-serif" font-size="10.4" lengthAdjust="spacingAndGlyphs" textLength="42.4" x="356.4" y="97.9961">executes</text><polygon fill="#000000" points="401.2,92.5406,406,94.9406,401.2,97.3406,401.2,92.5406" style="stroke: #000000; stroke-width: 0.8;"/><text fill="#000000" font-family="sans-serif" font-size="10.4" lengthAdjust="spacingAndGlyphs" textLength="5.6" x="280.1175" y="104.0642">1</text><text fill="#000000" font-family="sans-serif" font-size="10.4" lengthAdjust="spacingAndGlyphs" textLength="16" x="487.2761" y="118.7177">1..*</text><!--MD5=[6eb6e197a729f6ec2412743e0bdbca1d]
link Manager to User--><path d="M415.2744,36.7512 C449.1688,33.2752 502.1104,27.8448 532.2192,24.7568 " fill="none" id="Manager-User" style="stroke: #A80036; stroke-width: 0.8;"/><text fill="#000000" font-family="sans-serif" font-size="10.4" lengthAdjust="spacingAndGlyphs" textLength="34.4" x="440" y="27.5961">acts as</text><polygon fill="#000000" points="476.8,22.1406,481.6,24.5406,476.8,26.9406,476.8,22.1406" style="stroke: #000000; stroke-width: 0.8;"/><text fill="#000000" font-family="sans-serif" font-size="10.4" lengthAdjust="spacingAndGlyphs" textLength="5.6" x="421.5577" y="48.1687">1</text><text fill="#000000" font-family="sans-serif" font-size="10.4" lengthAdjust="spacingAndGlyphs" textLength="5.6" x="520.4724" y="37.6104">1</text><!--MD5=[7607ad5d3fcdbaed39551b8453eb8b3b]
link Manager to DefinePayment--><path d="M415.2744,52.404 C441.712,62.757 479.7376,77.6484 509.4784,89.2949 " fill="none" id="Manager-DefinePayment" style="stroke: #A80036; stroke-width: 0.8;"/><text fill="#000000" font-family="sans-serif" font-size="10.4" lengthAdjust="spacingAndGlyphs" textLength="32.8" x="446" y="61.1961">defines</text><text fill="#000000" font-family="sans-serif" font-size="10.4" lengthAdjust="spacingAndGlyphs" textLength="5.6" x="421.5577" y="66.6097">1</text><text fill="#000000" font-family="sans-serif" font-size="10.4" lengthAdjust="spacingAndGlyphs" textLength="5.6" x="497.5591" y="98.6601">1</text><!--MD5=[8d90593bea2390679155cfb91b569b68]
link DefinePayment to Payment--><path d="M602.5256,107.2 C627.1144,107.2 656.8712,107.2 679.1512,107.2 " fill="none" id="DefinePayment-Payment" style="stroke: #A80036; stroke-width: 0.8;"/><text fill="#000000" font-family="sans-serif" font-size="10.4" lengthAdjust="spacingAndGlyphs" textLength="16.8" x="627.2" y="104.3961">has</text><polygon fill="#000000" points="646.4,98.9406,651.2,101.3406,646.4,103.7406,646.4,98.9406" style="stroke: #000000; stroke-width: 0.8;"/><text fill="#000000" font-family="sans-serif" font-size="10.4" lengthAdjust="spacingAndGlyphs" textLength="5.6" x="608.8454" y="118.8593">1</text><text fill="#000000" font-family="sans-serif" font-size="10.4" lengthAdjust="spacingAndGlyphs" textLength="16" x="656.7737" y="119.0177">1..*</text><!--MD5=[52e5ff1ace7b925ac8046d1aa4502dbf]
@startuml
skinparam classAttributeIconSize 0
hide methods
left to right direction

class Platform{
}

class Organization {
  -String name
  -String email
  -String nif
}

class Manager {
  -String nameM
  -String emailM
  -String role
}

class User {
}

class Payment{
  -double valueE
  -double valueC
}

class DefinePayment{
  -Time timeToPay
  -Date dateToPay
  -int nrDays
  }

Platform "1" - - "1..*" Organization: has registered >
Organization "1" - - "1" Manager: has >
Organization "1" - - "1..*" DefinePayment: executes >
Manager "1" - - "1" User: acts as >
Manager "1" - - "1" DefinePayment: defines
DefinePayment "1" - - "1..*" Payment: has >

@enduml

PlantUML version 1.2020.09(Sun May 10 11:51:06 BST 2020)
(GPL source distribution)
Java Runtime: OpenJDK Runtime Environment
JVM: OpenJDK 64-Bit Server VM
Java Version: 11.0.6+8-b765.40
Operating System: Windows 10
Default Encoding: Cp1252
Language: pt
Country: PT
--></g></svg>