<?xml version="1.0" encoding="UTF-8" standalone="no"?><svg xmlns="http://www.w3.org/2000/svg" xmlns:xlink="http://www.w3.org/1999/xlink" contentScriptType="application/ecmascript" contentStyleType="text/css" height="652px" preserveAspectRatio="none" style="width:411px;height:652px;" version="1.1" viewBox="0 0 411 652" width="411px" zoomAndPan="magnify"><defs><filter height="300%" id="f3iq1gyq4tl7x" width="300%" x="-1" y="-1"><feGaussianBlur result="blurOut" stdDeviation="2.0"/><feColorMatrix in="blurOut" result="blurOut2" type="matrix" values="0 0 0 0 0 0 0 0 0 0 0 0 0 0 0 0 0 0 .4 0"/><feOffset dx="4.0" dy="4.0" in="blurOut2" result="blurOut3"/><feBlend in="SourceGraphic" in2="blurOut3" mode="normal"/></filter></defs><g><!--MD5=[4555bb1b0911a5adf28ce6dbe60fed2e]
class Transaction--><rect fill="#FEFECE" filter="url(#f3iq1gyq4tl7x)" height="86.4141" id="Transaction" style="stroke: #A80036; stroke-width: 1.5;" width="238" x="6" y="250"/><ellipse cx="83.75" cy="266" fill="#ADD1B2" rx="11" ry="11" style="stroke: #A80036; stroke-width: 1.0;"/><path d="M86.7188,271.6406 Q86.1406,271.9375 85.5,272.0859 Q84.8594,272.2344 84.1563,272.2344 Q81.6563,272.2344 80.3359,270.5859 Q79.0156,268.9375 79.0156,265.8125 Q79.0156,262.6875 80.3359,261.0313 Q81.6563,259.375 84.1563,259.375 Q84.8594,259.375 85.5078,259.5313 Q86.1563,259.6875 86.7188,259.9844 L86.7188,262.7031 Q86.0938,262.125 85.5,261.8516 Q84.9063,261.5781 84.2813,261.5781 Q82.9375,261.5781 82.25,262.6484 Q81.5625,263.7188 81.5625,265.8125 Q81.5625,267.9063 82.25,268.9766 Q82.9375,270.0469 84.2813,270.0469 Q84.9063,270.0469 85.5,269.7734 Q86.0938,269.5 86.7188,268.9219 L86.7188,271.6406 Z "/><text fill="#000000" font-family="sans-serif" font-size="12" lengthAdjust="spacingAndGlyphs" textLength="74" x="104.25" y="270.1543">Transaction</text><line style="stroke: #A80036; stroke-width: 1.5;" x1="7" x2="243" y1="282" y2="282"/><line style="stroke: #A80036; stroke-width: 1.5;" x1="7" x2="243" y1="290" y2="290"/><text fill="#000000" font-family="sans-serif" font-size="11" lengthAdjust="spacingAndGlyphs" textLength="226" x="12" y="304.2104">create(task, freel, endDate, delay, qow)</text><text fill="#000000" font-family="sans-serif" font-size="11" lengthAdjust="spacingAndGlyphs" textLength="183" x="12" y="317.0151">validateTaskExecution(taskExec)</text><text fill="#000000" font-family="sans-serif" font-size="11" lengthAdjust="spacingAndGlyphs" textLength="160" x="12" y="329.8198">addTaskExecution(taskExec)</text><!--MD5=[e01e8cf8d8f9173b7968f7e16ae53c99]
class PaymentList--><rect fill="#FEFECE" filter="url(#f3iq1gyq4tl7x)" height="99.2188" id="PaymentList" style="stroke: #A80036; stroke-width: 1.5;" width="207" x="107.5" y="396"/><ellipse cx="169.25" cy="412" fill="#ADD1B2" rx="11" ry="11" style="stroke: #A80036; stroke-width: 1.0;"/><path d="M172.2188,417.6406 Q171.6406,417.9375 171,418.0859 Q170.3594,418.2344 169.6563,418.2344 Q167.1563,418.2344 165.8359,416.5859 Q164.5156,414.9375 164.5156,411.8125 Q164.5156,408.6875 165.8359,407.0313 Q167.1563,405.375 169.6563,405.375 Q170.3594,405.375 171.0078,405.5313 Q171.6563,405.6875 172.2188,405.9844 L172.2188,408.7031 Q171.5938,408.125 171,407.8516 Q170.4063,407.5781 169.7813,407.5781 Q168.4375,407.5781 167.75,408.6484 Q167.0625,409.7188 167.0625,411.8125 Q167.0625,413.9063 167.75,414.9766 Q168.4375,416.0469 169.7813,416.0469 Q170.4063,416.0469 171,415.7734 Q171.5938,415.5 172.2188,414.9219 L172.2188,417.6406 Z "/><text fill="#000000" font-family="sans-serif" font-size="12" lengthAdjust="spacingAndGlyphs" textLength="75" x="189.75" y="416.1543">PaymentList</text><line style="stroke: #A80036; stroke-width: 1.5;" x1="108.5" x2="313.5" y1="428" y2="428"/><line style="stroke: #A80036; stroke-width: 1.5;" x1="108.5" x2="313.5" y1="436" y2="436"/><text fill="#000000" font-family="sans-serif" font-size="11" lengthAdjust="spacingAndGlyphs" textLength="195" x="113.5" y="450.2104">+newPayment(date, time, nrDays)</text><text fill="#000000" font-family="sans-serif" font-size="11" lengthAdjust="spacingAndGlyphs" textLength="142" x="113.5" y="463.0151">+registersPayment(task)</text><text fill="#000000" font-family="sans-serif" font-size="11" lengthAdjust="spacingAndGlyphs" textLength="131" x="113.5" y="475.8198">-addPayment(payment)</text><text fill="#000000" font-family="sans-serif" font-size="11" lengthAdjust="spacingAndGlyphs" textLength="136" x="113.5" y="488.6245">-validatesPayment(task)</text><!--MD5=[764fca796ce7f635542948d8fc39db5e]
class Payment--><rect fill="#FEFECE" filter="url(#f3iq1gyq4tl7x)" height="86.4141" id="Payment" style="stroke: #A80036; stroke-width: 1.5;" width="107" x="235.5" y="555"/><ellipse cx="259.95" cy="571" fill="#ADD1B2" rx="11" ry="11" style="stroke: #A80036; stroke-width: 1.0;"/><path d="M262.9188,576.6406 Q262.3406,576.9375 261.7,577.0859 Q261.0594,577.2344 260.3563,577.2344 Q257.8563,577.2344 256.5359,575.5859 Q255.2156,573.9375 255.2156,570.8125 Q255.2156,567.6875 256.5359,566.0313 Q257.8563,564.375 260.3563,564.375 Q261.0594,564.375 261.7078,564.5313 Q262.3563,564.6875 262.9188,564.9844 L262.9188,567.7031 Q262.2938,567.125 261.7,566.8516 Q261.1063,566.5781 260.4813,566.5781 Q259.1375,566.5781 258.45,567.6484 Q257.7625,568.7188 257.7625,570.8125 Q257.7625,572.9063 258.45,573.9766 Q259.1375,575.0469 260.4813,575.0469 Q261.1063,575.0469 261.7,574.7734 Q262.2938,574.5 262.9188,573.9219 L262.9188,576.6406 Z "/><text fill="#000000" font-family="sans-serif" font-size="12" lengthAdjust="spacingAndGlyphs" textLength="54" x="276.05" y="575.1543">Payment</text><line style="stroke: #A80036; stroke-width: 1.5;" x1="236.5" x2="341.5" y1="587" y2="587"/><text fill="#000000" font-family="sans-serif" font-size="11" lengthAdjust="spacingAndGlyphs" textLength="95" x="241.5" y="601.2104">-Time timeToPay</text><text fill="#000000" font-family="sans-serif" font-size="11" lengthAdjust="spacingAndGlyphs" textLength="93" x="241.5" y="614.0151">-Data dateToPay</text><text fill="#000000" font-family="sans-serif" font-size="11" lengthAdjust="spacingAndGlyphs" textLength="62" x="241.5" y="626.8198">-int nrDays</text><line style="stroke: #A80036; stroke-width: 1.5;" x1="236.5" x2="341.5" y1="633.4141" y2="633.4141"/><!--MD5=[21e9303e9a6d1efef92aaf3b4b0c3213]
class DefinePaymentController--><rect fill="#FEFECE" filter="url(#f3iq1gyq4tl7x)" height="73.6094" id="DefinePaymentController" style="stroke: #A80036; stroke-width: 1.5;" width="207" x="193.5" y="116"/><ellipse cx="217.5" cy="132" fill="#ADD1B2" rx="11" ry="11" style="stroke: #A80036; stroke-width: 1.0;"/><path d="M220.4688,137.6406 Q219.8906,137.9375 219.25,138.0859 Q218.6094,138.2344 217.9063,138.2344 Q215.4063,138.2344 214.0859,136.5859 Q212.7656,134.9375 212.7656,131.8125 Q212.7656,128.6875 214.0859,127.0313 Q215.4063,125.375 217.9063,125.375 Q218.6094,125.375 219.2578,125.5313 Q219.9063,125.6875 220.4688,125.9844 L220.4688,128.7031 Q219.8438,128.125 219.25,127.8516 Q218.6563,127.5781 218.0313,127.5781 Q216.6875,127.5781 216,128.6484 Q215.3125,129.7188 215.3125,131.8125 Q215.3125,133.9063 216,134.9766 Q216.6875,136.0469 218.0313,136.0469 Q218.6563,136.0469 219.25,135.7734 Q219.8438,135.5 220.4688,134.9219 L220.4688,137.6406 Z "/><text fill="#000000" font-family="sans-serif" font-size="12" lengthAdjust="spacingAndGlyphs" textLength="155" x="233.5" y="136.1543">DefinePaymentController</text><line style="stroke: #A80036; stroke-width: 1.5;" x1="194.5" x2="399.5" y1="148" y2="148"/><line style="stroke: #A80036; stroke-width: 1.5;" x1="194.5" x2="399.5" y1="156" y2="156"/><text fill="#000000" font-family="sans-serif" font-size="11" lengthAdjust="spacingAndGlyphs" textLength="195" x="199.5" y="170.2104">+newPayment(time, date, nrDays)</text><text fill="#000000" font-family="sans-serif" font-size="11" lengthAdjust="spacingAndGlyphs" textLength="118" x="199.5" y="183.0151">+registersPayment()</text><!--MD5=[0582f2f224cab4acb6092e7e06f2ec46]
class PaymentUI--><rect fill="#FEFECE" filter="url(#f3iq1gyq4tl7x)" height="48" id="PaymentUI" style="stroke: #A80036; stroke-width: 1.5;" width="98" x="248" y="8"/><ellipse cx="263" cy="24" fill="#ADD1B2" rx="11" ry="11" style="stroke: #A80036; stroke-width: 1.0;"/><path d="M265.9688,29.6406 Q265.3906,29.9375 264.75,30.0859 Q264.1094,30.2344 263.4063,30.2344 Q260.9063,30.2344 259.5859,28.5859 Q258.2656,26.9375 258.2656,23.8125 Q258.2656,20.6875 259.5859,19.0313 Q260.9063,17.375 263.4063,17.375 Q264.1094,17.375 264.7578,17.5313 Q265.4063,17.6875 265.9688,17.9844 L265.9688,20.7031 Q265.3438,20.125 264.75,19.8516 Q264.1563,19.5781 263.5313,19.5781 Q262.1875,19.5781 261.5,20.6484 Q260.8125,21.7188 260.8125,23.8125 Q260.8125,25.9063 261.5,26.9766 Q262.1875,28.0469 263.5313,28.0469 Q264.1563,28.0469 264.75,27.7734 Q265.3438,27.5 265.9688,26.9219 L265.9688,29.6406 Z "/><text fill="#000000" font-family="sans-serif" font-size="12" lengthAdjust="spacingAndGlyphs" textLength="66" x="277" y="28.1543">PaymentUI</text><line style="stroke: #A80036; stroke-width: 1.5;" x1="249" x2="345" y1="40" y2="40"/><line style="stroke: #A80036; stroke-width: 1.5;" x1="249" x2="345" y1="48" y2="48"/><!--MD5=[0623b4328678d73e7aca26cac89081d6]
link PaymentUI to DefinePaymentController--><path d="M297,56.1953 C297,71.8292 297,92.5956 297,110.885 " fill="none" id="PaymentUI-&gt;DefinePaymentController" style="stroke: #A80036; stroke-width: 1.0; stroke-dasharray: 7.0,7.0;"/><polygon fill="#A80036" points="297,115.9716,301,106.9716,297,110.9716,293,106.9716,297,115.9716" style="stroke: #A80036; stroke-width: 1.0;"/><!--MD5=[e8a6a1af88e534532104c038c137f2db]
link DefinePaymentController to Transaction--><path d="M251.3587,190.1499 C230.0025,207.5329 204.3519,228.4112 181.7581,246.8016 " fill="none" id="DefinePaymentController-&gt;Transaction" style="stroke: #A80036; stroke-width: 1.0; stroke-dasharray: 7.0,7.0;"/><polygon fill="#A80036" points="177.8689,249.9672,187.374,247.388,181.7467,246.8108,182.3238,241.1835,177.8689,249.9672" style="stroke: #A80036; stroke-width: 1.0;"/><!--MD5=[0d03ede83636e6a58e00daa8d7009eaf]
link DefinePaymentController to PaymentList--><path d="M292.3038,190.0965 C286.9636,227.5274 276.8682,286.6824 261,336 C255.0906,354.3663 246.9408,373.7265 238.935,390.9751 " fill="none" id="DefinePaymentController-&gt;PaymentList" style="stroke: #A80036; stroke-width: 1.0; stroke-dasharray: 7.0,7.0;"/><polygon fill="#A80036" points="236.6827,395.7816,244.1236,389.3292,238.8043,391.254,236.8795,385.9347,236.6827,395.7816" style="stroke: #A80036; stroke-width: 1.0;"/><!--MD5=[ca8f850f255adbf18de391874edbc773]
link DefinePaymentController to Payment--><path d="M307.9674,190.0389 C325.0672,253.168 353.9558,385.4175 332,495 C328.2594,513.6698 321.0551,533.1823 313.5973,550.1399 " fill="none" id="DefinePaymentController-&gt;Payment" style="stroke: #A80036; stroke-width: 1.0; stroke-dasharray: 7.0,7.0;"/><polygon fill="#A80036" points="311.4898,554.8522,318.8158,548.2696,313.5312,550.2879,311.5129,545.0034,311.4898,554.8522" style="stroke: #A80036; stroke-width: 1.0;"/><!--MD5=[2781e0718711bc39761fe9a79464eb15]
link Transaction to PaymentList--><path d="M149.4141,336.2925 C159.0735,353.4211 170.2824,373.2973 180.4693,391.3612 " fill="none" id="Transaction-&gt;PaymentList" style="stroke: #A80036; stroke-width: 1.0; stroke-dasharray: 7.0,7.0;"/><polygon fill="#A80036" points="183.0356,395.9119,182.0988,386.1077,180.5795,391.5567,175.1305,390.0374,183.0356,395.9119" style="stroke: #A80036; stroke-width: 1.0;"/><text fill="#000000" font-family="sans-serif" font-size="13" lengthAdjust="spacingAndGlyphs" textLength="8" x="144.6676" y="356.432">1</text><text fill="#000000" font-family="sans-serif" font-size="13" lengthAdjust="spacingAndGlyphs" textLength="8" x="170.5406" y="384.9447">1</text><!--MD5=[ae69d896363ac1c7dc5e3a47f6934d9e]
link PaymentList to Payment--><path d="M236.3244,495.0124 C245.351,512.6606 255.4968,532.497 264.4567,550.0148 " fill="none" id="PaymentList-&gt;Payment" style="stroke: #A80036; stroke-width: 1.0; stroke-dasharray: 7.0,7.0;"/><polygon fill="#A80036" points="266.9505,554.8904,266.4134,545.0562,264.6737,550.4389,259.291,548.6991,266.9505,554.8904" style="stroke: #A80036; stroke-width: 1.0;"/><text fill="#000000" font-family="sans-serif" font-size="13" lengthAdjust="spacingAndGlyphs" textLength="8" x="231.4564" y="515.4467">1</text><text fill="#000000" font-family="sans-serif" font-size="13" lengthAdjust="spacingAndGlyphs" textLength="7" x="255.8785" y="543.869">*</text><!--MD5=[7ad211ad945c316f35206016914e96f2]
@startuml
skinparam classAttributeIconSize 0


class Transaction {
  create(task, freel, endDate, delay, qow)
  validateTaskExecution(taskExec)
  addTaskExecution(taskExec)
}

class PaymentList {
  +newPayment(date, time, nrDays)
  +registersPayment(task)
  -addPayment(payment)
  -validatesPayment(task)
}

class Payment {
  -Time timeToPay
  -Data dateToPay
  -int nrDays
}

class DefinePaymentController {
  +newPayment(time, date, nrDays)
  +registersPayment()
}

class PaymentUI {
}

PaymentUI ..> DefinePaymentController
DefinePaymentController ..> Transaction
DefinePaymentController ..> PaymentList
DefinePaymentController ..> Payment
Transaction "1" ..> "1" PaymentList
PaymentList "1" ..> "*" Payment
@enduml

PlantUML version 1.2019.12(Sun Nov 03 10:24:54 UTC 2019)
(GPL source distribution)
Java Runtime: OpenJDK Runtime Environment
JVM: OpenJDK 64-Bit Server VM
Java Version: 1.8.0_232-heroku-b09
Operating System: Linux
Default Encoding: UTF-8
Language: en
Country: US
--></g></svg>