<?xml version="1.0" encoding="UTF-8" standalone="no"?><svg xmlns="http://www.w3.org/2000/svg" xmlns:xlink="http://www.w3.org/1999/xlink" contentScriptType="application/ecmascript" contentStyleType="text/css" height="182px" preserveAspectRatio="none" style="width:1054px;height:182px;" version="1.1" viewBox="0 0 1054 182" width="1054px" zoomAndPan="magnify"><defs><filter height="300%" id="f1d3rmr9292egt" width="300%" x="-1" y="-1"><feGaussianBlur result="blurOut" stdDeviation="2.0"/><feColorMatrix in="blurOut" result="blurOut2" type="matrix" values="0 0 0 0 0 0 0 0 0 0 0 0 0 0 0 0 0 0 .4 0"/><feOffset dx="4.0" dy="4.0" in="blurOut2" result="blurOut3"/><feBlend in="SourceGraphic" in2="blurOut3" mode="normal"/></filter></defs><g><!--MD5=[b24ed8d4ae84bae9290d9aab401637c7]
class Manager--><rect fill="#FEFECE" filter="url(#f1d3rmr9292egt)" height="65.6094" id="Manager" style="stroke: #A80036; stroke-width: 1.5;" width="87" x="465" y="25"/><ellipse cx="480" cy="41" fill="#ADD1B2" rx="11" ry="11" style="stroke: #A80036; stroke-width: 1.0;"/><path d="M482.9688,46.6406 Q482.3906,46.9375 481.75,47.0859 Q481.1094,47.2344 480.4063,47.2344 Q477.9063,47.2344 476.5859,45.5859 Q475.2656,43.9375 475.2656,40.8125 Q475.2656,37.6875 476.5859,36.0313 Q477.9063,34.375 480.4063,34.375 Q481.1094,34.375 481.7578,34.5313 Q482.4063,34.6875 482.9688,34.9844 L482.9688,37.7031 Q482.3438,37.125 481.75,36.8516 Q481.1563,36.5781 480.5313,36.5781 Q479.1875,36.5781 478.5,37.6484 Q477.8125,38.7188 477.8125,40.8125 Q477.8125,42.9063 478.5,43.9766 Q479.1875,45.0469 480.5313,45.0469 Q481.1563,45.0469 481.75,44.7734 Q482.3438,44.5 482.9688,43.9219 L482.9688,46.6406 Z "/><text fill="#000000" font-family="sans-serif" font-size="12" lengthAdjust="spacingAndGlyphs" textLength="55" x="494" y="45.1543">Manager</text><line style="stroke: #A80036; stroke-width: 1.5;" x1="466" x2="551" y1="57" y2="57"/><text fill="#000000" font-family="sans-serif" font-size="11" lengthAdjust="spacingAndGlyphs" textLength="74" x="471" y="71.2104">-String nome</text><text fill="#000000" font-family="sans-serif" font-size="11" lengthAdjust="spacingAndGlyphs" textLength="73" x="471" y="84.0151">-String email</text><!--MD5=[3fd616f346a44cd59a91eb10b19e157c]
class User--><rect fill="#FEFECE" filter="url(#f1d3rmr9292egt)" height="40" id="User" style="stroke: #A80036; stroke-width: 1.5;" width="61" x="732.5" y="8"/><ellipse cx="747.5" cy="24" fill="#ADD1B2" rx="11" ry="11" style="stroke: #A80036; stroke-width: 1.0;"/><path d="M750.4688,29.6406 Q749.8906,29.9375 749.25,30.0859 Q748.6094,30.2344 747.9063,30.2344 Q745.4063,30.2344 744.0859,28.5859 Q742.7656,26.9375 742.7656,23.8125 Q742.7656,20.6875 744.0859,19.0313 Q745.4063,17.375 747.9063,17.375 Q748.6094,17.375 749.2578,17.5313 Q749.9063,17.6875 750.4688,17.9844 L750.4688,20.7031 Q749.8438,20.125 749.25,19.8516 Q748.6563,19.5781 748.0313,19.5781 Q746.6875,19.5781 746,20.6484 Q745.3125,21.7188 745.3125,23.8125 Q745.3125,25.9063 746,26.9766 Q746.6875,28.0469 748.0313,28.0469 Q748.6563,28.0469 749.25,27.7734 Q749.8438,27.5 750.4688,26.9219 L750.4688,29.6406 Z "/><text fill="#000000" font-family="sans-serif" font-size="12" lengthAdjust="spacingAndGlyphs" textLength="29" x="761.5" y="28.1543">User</text><line style="stroke: #A80036; stroke-width: 1.5;" x1="733.5" x2="792.5" y1="40" y2="40"/><!--MD5=[764fca796ce7f635542948d8fc39db5e]
class Payment--><rect fill="#FEFECE" filter="url(#f1d3rmr9292egt)" height="65.6094" id="Payment" style="stroke: #A80036; stroke-width: 1.5;" width="96" x="947" y="99"/><ellipse cx="966.5" cy="115" fill="#ADD1B2" rx="11" ry="11" style="stroke: #A80036; stroke-width: 1.0;"/><path d="M969.4688,120.6406 Q968.8906,120.9375 968.25,121.0859 Q967.6094,121.2344 966.9063,121.2344 Q964.4063,121.2344 963.0859,119.5859 Q961.7656,117.9375 961.7656,114.8125 Q961.7656,111.6875 963.0859,110.0313 Q964.4063,108.375 966.9063,108.375 Q967.6094,108.375 968.2578,108.5313 Q968.9063,108.6875 969.4688,108.9844 L969.4688,111.7031 Q968.8438,111.125 968.25,110.8516 Q967.6563,110.5781 967.0313,110.5781 Q965.6875,110.5781 965,111.6484 Q964.3125,112.7188 964.3125,114.8125 Q964.3125,116.9063 965,117.9766 Q965.6875,119.0469 967.0313,119.0469 Q967.6563,119.0469 968.25,118.7734 Q968.8438,118.5 969.4688,117.9219 L969.4688,120.6406 Z "/><text fill="#000000" font-family="sans-serif" font-size="12" lengthAdjust="spacingAndGlyphs" textLength="54" x="981.5" y="119.1543">Payment</text><line style="stroke: #A80036; stroke-width: 1.5;" x1="948" x2="1042" y1="131" y2="131"/><text fill="#000000" font-family="sans-serif" font-size="11" lengthAdjust="spacingAndGlyphs" textLength="83" x="953" y="145.2104">-double valueE</text><text fill="#000000" font-family="sans-serif" font-size="11" lengthAdjust="spacingAndGlyphs" textLength="84" x="953" y="158.0151">-double valueC</text><!--MD5=[dc112212ffdae1b478a87df5bc652088]
class DefinePayment--><rect fill="#FEFECE" filter="url(#f1d3rmr9292egt)" height="78.4141" id="DefinePayment" style="stroke: #A80036; stroke-width: 1.5;" width="126" x="700" y="93"/><ellipse cx="715" cy="109" fill="#ADD1B2" rx="11" ry="11" style="stroke: #A80036; stroke-width: 1.0;"/><path d="M717.9688,114.6406 Q717.3906,114.9375 716.75,115.0859 Q716.1094,115.2344 715.4063,115.2344 Q712.9063,115.2344 711.5859,113.5859 Q710.2656,111.9375 710.2656,108.8125 Q710.2656,105.6875 711.5859,104.0313 Q712.9063,102.375 715.4063,102.375 Q716.1094,102.375 716.7578,102.5313 Q717.4063,102.6875 717.9688,102.9844 L717.9688,105.7031 Q717.3438,105.125 716.75,104.8516 Q716.1563,104.5781 715.5313,104.5781 Q714.1875,104.5781 713.5,105.6484 Q712.8125,106.7188 712.8125,108.8125 Q712.8125,110.9063 713.5,111.9766 Q714.1875,113.0469 715.5313,113.0469 Q716.1563,113.0469 716.75,112.7734 Q717.3438,112.5 717.9688,111.9219 L717.9688,114.6406 Z "/><text fill="#000000" font-family="sans-serif" font-size="12" lengthAdjust="spacingAndGlyphs" textLength="94" x="729" y="113.1543">DefinePayment</text><line style="stroke: #A80036; stroke-width: 1.5;" x1="701" x2="825" y1="125" y2="125"/><text fill="#000000" font-family="sans-serif" font-size="11" lengthAdjust="spacingAndGlyphs" textLength="95" x="706" y="139.2104">-Time timeToPay</text><text fill="#000000" font-family="sans-serif" font-size="11" lengthAdjust="spacingAndGlyphs" textLength="93" x="706" y="152.0151">-Data dateToPay</text><text fill="#000000" font-family="sans-serif" font-size="11" lengthAdjust="spacingAndGlyphs" textLength="62" x="706" y="164.8198">-int nrDays</text><!--MD5=[99b8db98afdc2c8404e39242ef4c1e65]
class Platform--><rect fill="#FEFECE" filter="url(#f1d3rmr9292egt)" height="40" id="Platform" style="stroke: #A80036; stroke-width: 1.5;" width="84" x="6" y="94"/><ellipse cx="21" cy="110" fill="#ADD1B2" rx="11" ry="11" style="stroke: #A80036; stroke-width: 1.0;"/><path d="M23.9688,115.6406 Q23.3906,115.9375 22.75,116.0859 Q22.1094,116.2344 21.4063,116.2344 Q18.9063,116.2344 17.5859,114.5859 Q16.2656,112.9375 16.2656,109.8125 Q16.2656,106.6875 17.5859,105.0313 Q18.9063,103.375 21.4063,103.375 Q22.1094,103.375 22.7578,103.5313 Q23.4063,103.6875 23.9688,103.9844 L23.9688,106.7031 Q23.3438,106.125 22.75,105.8516 Q22.1563,105.5781 21.5313,105.5781 Q20.1875,105.5781 19.5,106.6484 Q18.8125,107.7188 18.8125,109.8125 Q18.8125,111.9063 19.5,112.9766 Q20.1875,114.0469 21.5313,114.0469 Q22.1563,114.0469 22.75,113.7734 Q23.3438,113.5 23.9688,112.9219 L23.9688,115.6406 Z "/><text fill="#000000" font-family="sans-serif" font-size="12" lengthAdjust="spacingAndGlyphs" textLength="52" x="35" y="114.1543">Platform</text><line style="stroke: #A80036; stroke-width: 1.5;" x1="7" x2="89" y1="126" y2="126"/><!--MD5=[86c7c362de55a38b660185a1328fe18d]
class Organization--><rect fill="#FEFECE" filter="url(#f1d3rmr9292egt)" height="40" id="Organization" style="stroke: #A80036; stroke-width: 1.5;" width="110" x="257" y="94"/><ellipse cx="272" cy="110" fill="#ADD1B2" rx="11" ry="11" style="stroke: #A80036; stroke-width: 1.0;"/><path d="M274.9688,115.6406 Q274.3906,115.9375 273.75,116.0859 Q273.1094,116.2344 272.4063,116.2344 Q269.9063,116.2344 268.5859,114.5859 Q267.2656,112.9375 267.2656,109.8125 Q267.2656,106.6875 268.5859,105.0313 Q269.9063,103.375 272.4063,103.375 Q273.1094,103.375 273.7578,103.5313 Q274.4063,103.6875 274.9688,103.9844 L274.9688,106.7031 Q274.3438,106.125 273.75,105.8516 Q273.1563,105.5781 272.5313,105.5781 Q271.1875,105.5781 270.5,106.6484 Q269.8125,107.7188 269.8125,109.8125 Q269.8125,111.9063 270.5,112.9766 Q271.1875,114.0469 272.5313,114.0469 Q273.1563,114.0469 273.75,113.7734 Q274.3438,113.5 274.9688,112.9219 L274.9688,115.6406 Z "/><text fill="#000000" font-family="sans-serif" font-size="12" lengthAdjust="spacingAndGlyphs" textLength="78" x="286" y="114.1543">Organization</text><line style="stroke: #A80036; stroke-width: 1.5;" x1="258" x2="366" y1="126" y2="126"/><!--MD5=[7640e466c042ba2d6f9c19c816f7f0fc]
link Platform to Organization--><path d="M90.1235,114 C135.2517,114 207.0707,114 256.716,114 " fill="none" id="Platform-Organization" style="stroke: #A80036; stroke-width: 1.0;"/><text fill="#000000" font-family="sans-serif" font-size="13" lengthAdjust="spacingAndGlyphs" textLength="92" x="121" y="110.0669">has registered</text><polygon fill="#000000" points="216,104.0664,222,107.0664,216,110.0664,216,104.0664" style="stroke: #000000; stroke-width: 1.0;"/><text fill="#000000" font-family="sans-serif" font-size="13" lengthAdjust="spacingAndGlyphs" textLength="8" x="98.051" y="127.3674">1</text><text fill="#000000" font-family="sans-serif" font-size="13" lengthAdjust="spacingAndGlyphs" textLength="23" x="225.9941" y="126.9418">1..*</text><!--MD5=[bc039f41cf0b27fadee5cae63fc6e1fe]
link Organization to Manager--><path d="M367.2591,98.2519 C398.1353,89.4525 436.0674,78.6424 464.8445,70.4413 " fill="none" id="Organization-Manager" style="stroke: #A80036; stroke-width: 1.0;"/><text fill="#000000" font-family="sans-serif" font-size="13" lengthAdjust="spacingAndGlyphs" textLength="23" x="398" y="76.0669">has</text><polygon fill="#000000" points="424,70.0664,430,73.0664,424,76.0664,424,70.0664" style="stroke: #000000; stroke-width: 1.0;"/><text fill="#000000" font-family="sans-serif" font-size="13" lengthAdjust="spacingAndGlyphs" textLength="8" x="374.8517" y="109.2705">1</text><text fill="#000000" font-family="sans-serif" font-size="13" lengthAdjust="spacingAndGlyphs" textLength="8" x="448.9516" y="85.8543">1</text><!--MD5=[cb0755ad77e11534d97f26a610810f27]
link Organization to DefinePayment--><path d="M367.1998,118.615 C396.2776,120.8824 432.5469,123.4531 465,125 C546.0267,128.8621 639.5526,130.6191 699.8928,131.4009 " fill="none" id="Organization-DefinePayment" style="stroke: #A80036; stroke-width: 1.0;"/><text fill="#000000" font-family="sans-serif" font-size="13" lengthAdjust="spacingAndGlyphs" textLength="37" x="483.5" y="121.0669">saves</text><polygon fill="#000000" points="523.5,115.0664,529.5,118.0664,523.5,121.0664,523.5,115.0664" style="stroke: #000000; stroke-width: 1.0;"/><text fill="#000000" font-family="sans-serif" font-size="13" lengthAdjust="spacingAndGlyphs" textLength="8" x="375.1548" y="132.3188">1</text><text fill="#000000" font-family="sans-serif" font-size="13" lengthAdjust="spacingAndGlyphs" textLength="8" x="684.1335" y="144.2495">1</text><!--MD5=[6eb6e197a729f6ec2412743e0bdbca1d]
link Manager to User--><path d="M552.2501,52.8428 C603.5553,46.795 687.2834,36.9253 732.2073,31.6298 " fill="none" id="Manager-User" style="stroke: #A80036; stroke-width: 1.0;"/><text fill="#000000" font-family="sans-serif" font-size="13" lengthAdjust="spacingAndGlyphs" textLength="46" x="596.5" y="36.0669">acts as</text><polygon fill="#000000" points="645.5,30.0664,651.5,33.0664,645.5,36.0664,645.5,30.0664" style="stroke: #000000; stroke-width: 1.0;"/><text fill="#000000" font-family="sans-serif" font-size="13" lengthAdjust="spacingAndGlyphs" textLength="8" x="559.8603" y="65.3248">1</text><text fill="#000000" font-family="sans-serif" font-size="13" lengthAdjust="spacingAndGlyphs" textLength="8" x="716.5964" y="46.1459">1</text><!--MD5=[7607ad5d3fcdbaed39551b8453eb8b3b]
link Manager to DefinePayment--><path d="M552.2501,70.7211 C592.8964,82.5396 653.8928,100.2753 699.8217,113.6299 " fill="none" id="Manager-DefinePayment" style="stroke: #A80036; stroke-width: 1.0;"/><text fill="#000000" font-family="sans-serif" font-size="13" lengthAdjust="spacingAndGlyphs" textLength="73" x="583" y="76.0669">determines</text><polygon fill="#000000" points="659,70.0664,665,73.0664,659,76.0664,659,70.0664" style="stroke: #000000; stroke-width: 1.0;"/><text fill="#000000" font-family="sans-serif" font-size="13" lengthAdjust="spacingAndGlyphs" textLength="8" x="559.8603" y="86.0524">1</text><text fill="#000000" font-family="sans-serif" font-size="13" lengthAdjust="spacingAndGlyphs" textLength="8" x="684.0542" y="124.4237">1</text><!--MD5=[8d90593bea2390679155cfb91b569b68]
link DefinePayment to Payment--><path d="M826.0886,132 C864.0613,132 911.6614,132 946.6448,132 " fill="none" id="DefinePayment-Payment" style="stroke: #A80036; stroke-width: 1.0;"/><text fill="#000000" font-family="sans-serif" font-size="13" lengthAdjust="spacingAndGlyphs" textLength="46" x="857" y="128.0669">defines</text><polygon fill="#000000" points="906,122.0664,912,125.0664,906,128.0664,906,122.0664" style="stroke: #000000; stroke-width: 1.0;"/><text fill="#000000" font-family="sans-serif" font-size="13" lengthAdjust="spacingAndGlyphs" textLength="8" x="833.8457" y="144.9178">1</text><text fill="#000000" font-family="sans-serif" font-size="13" lengthAdjust="spacingAndGlyphs" textLength="23" x="915.9759" y="145.0614">1..*</text><!--MD5=[acdc8b9e597ab287d9ee36aed708c90e]
@startuml
skinparam classAttributeIconSize 0
hide methods
left to right direction



class Manager {
  -String nome
  -String email
}

class User {
}



class Payment{
  -double valueE
  -double valueC
}

class DefinePayment{
  -Time timeToPay
  -Data dateToPay
  -int nrDays
}



Platform "1" - - "1..*" Organization: has registered >

Organization "1" - - "1" Manager: has >
Organization "1" - - "1" DefinePayment: saves >

Manager "1" - - "1" User: acts as >
Manager "1" - - "1" DefinePayment: determines >


DefinePayment "1" - - "1..*" Payment: defines >
@enduml

PlantUML version 1.2019.12(Sun Nov 03 10:24:54 UTC 2019)
(GPL source distribution)
Java Runtime: OpenJDK Runtime Environment
JVM: OpenJDK 64-Bit Server VM
Java Version: 1.8.0_232-heroku-b09
Operating System: Linux
Default Encoding: UTF-8
Language: en
Country: US
--></g></svg>