<?xml version="1.0" encoding="UTF-8" standalone="no"?><svg xmlns="http://www.w3.org/2000/svg" xmlns:xlink="http://www.w3.org/1999/xlink" contentScriptType="application/ecmascript" contentStyleType="text/css" height="159px" preserveAspectRatio="none" style="width:791px;height:159px;" version="1.1" viewBox="0 0 791 159" width="791px" zoomAndPan="magnify"><defs><filter height="300%" id="f12wyeiamvu6g1" width="300%" x="-1" y="-1"><feGaussianBlur result="blurOut" stdDeviation="2.0"/><feColorMatrix in="blurOut" result="blurOut2" type="matrix" values="0 0 0 0 0 0 0 0 0 0 0 0 0 0 0 0 0 0 .4 0"/><feOffset dx="4.0" dy="4.0" in="blurOut2" result="blurOut3"/><feBlend in="SourceGraphic" in2="blurOut3" mode="normal"/></filter></defs><g><!--MD5=[b24ed8d4ae84bae9290d9aab401637c7]
class Manager--><rect fill="#FEFECE" filter="url(#f12wyeiamvu6g1)" height="65.6094" id="Manager" style="stroke: #A80036; stroke-width: 1.5;" width="87" x="465" y="39"/><ellipse cx="480" cy="55" fill="#ADD1B2" rx="11" ry="11" style="stroke: #A80036; stroke-width: 1.0;"/><path d="M482.9688,60.6406 Q482.3906,60.9375 481.75,61.0859 Q481.1094,61.2344 480.4063,61.2344 Q477.9063,61.2344 476.5859,59.5859 Q475.2656,57.9375 475.2656,54.8125 Q475.2656,51.6875 476.5859,50.0313 Q477.9063,48.375 480.4063,48.375 Q481.1094,48.375 481.7578,48.5313 Q482.4063,48.6875 482.9688,48.9844 L482.9688,51.7031 Q482.3438,51.125 481.75,50.8516 Q481.1563,50.5781 480.5313,50.5781 Q479.1875,50.5781 478.5,51.6484 Q477.8125,52.7188 477.8125,54.8125 Q477.8125,56.9063 478.5,57.9766 Q479.1875,59.0469 480.5313,59.0469 Q481.1563,59.0469 481.75,58.7734 Q482.3438,58.5 482.9688,57.9219 L482.9688,60.6406 Z "/><text fill="#000000" font-family="sans-serif" font-size="12" lengthAdjust="spacingAndGlyphs" textLength="55" x="494" y="59.1543">Manager</text><line style="stroke: #A80036; stroke-width: 1.5;" x1="466" x2="551" y1="71" y2="71"/><text fill="#000000" font-family="sans-serif" font-size="11" lengthAdjust="spacingAndGlyphs" textLength="74" x="471" y="85.2104">-String nome</text><text fill="#000000" font-family="sans-serif" font-size="11" lengthAdjust="spacingAndGlyphs" textLength="73" x="471" y="98.0151">-String email</text><!--MD5=[3fd616f346a44cd59a91eb10b19e157c]
class User--><rect fill="#FEFECE" filter="url(#f12wyeiamvu6g1)" height="40" id="User" style="stroke: #A80036; stroke-width: 1.5;" width="61" x="696" y="8"/><ellipse cx="711" cy="24" fill="#ADD1B2" rx="11" ry="11" style="stroke: #A80036; stroke-width: 1.0;"/><path d="M713.9688,29.6406 Q713.3906,29.9375 712.75,30.0859 Q712.1094,30.2344 711.4063,30.2344 Q708.9063,30.2344 707.5859,28.5859 Q706.2656,26.9375 706.2656,23.8125 Q706.2656,20.6875 707.5859,19.0313 Q708.9063,17.375 711.4063,17.375 Q712.1094,17.375 712.7578,17.5313 Q713.4063,17.6875 713.9688,17.9844 L713.9688,20.7031 Q713.3438,20.125 712.75,19.8516 Q712.1563,19.5781 711.5313,19.5781 Q710.1875,19.5781 709.5,20.6484 Q708.8125,21.7188 708.8125,23.8125 Q708.8125,25.9063 709.5,26.9766 Q710.1875,28.0469 711.5313,28.0469 Q712.1563,28.0469 712.75,27.7734 Q713.3438,27.5 713.9688,26.9219 L713.9688,29.6406 Z "/><text fill="#000000" font-family="sans-serif" font-size="12" lengthAdjust="spacingAndGlyphs" textLength="29" x="725" y="28.1543">User</text><line style="stroke: #A80036; stroke-width: 1.5;" x1="697" x2="756" y1="40" y2="40"/><!--MD5=[764fca796ce7f635542948d8fc39db5e]
class Payment--><rect fill="#FEFECE" filter="url(#f12wyeiamvu6g1)" height="65.6094" id="Payment" style="stroke: #A80036; stroke-width: 1.5;" width="107" x="673" y="83"/><ellipse cx="697.45" cy="99" fill="#ADD1B2" rx="11" ry="11" style="stroke: #A80036; stroke-width: 1.0;"/><path d="M700.4188,104.6406 Q699.8406,104.9375 699.2,105.0859 Q698.5594,105.2344 697.8563,105.2344 Q695.3563,105.2344 694.0359,103.5859 Q692.7156,101.9375 692.7156,98.8125 Q692.7156,95.6875 694.0359,94.0313 Q695.3563,92.375 697.8563,92.375 Q698.5594,92.375 699.2078,92.5313 Q699.8563,92.6875 700.4188,92.9844 L700.4188,95.7031 Q699.7938,95.125 699.2,94.8516 Q698.6063,94.5781 697.9813,94.5781 Q696.6375,94.5781 695.95,95.6484 Q695.2625,96.7188 695.2625,98.8125 Q695.2625,100.9063 695.95,101.9766 Q696.6375,103.0469 697.9813,103.0469 Q698.6063,103.0469 699.2,102.7734 Q699.7938,102.5 700.4188,101.9219 L700.4188,104.6406 Z "/><text fill="#000000" font-family="sans-serif" font-size="12" lengthAdjust="spacingAndGlyphs" textLength="54" x="713.55" y="103.1543">Payment</text><line style="stroke: #A80036; stroke-width: 1.5;" x1="674" x2="779" y1="115" y2="115"/><text fill="#000000" font-family="sans-serif" font-size="11" lengthAdjust="spacingAndGlyphs" textLength="95" x="679" y="129.2104">-Time timeToPay</text><text fill="#000000" font-family="sans-serif" font-size="11" lengthAdjust="spacingAndGlyphs" textLength="93" x="679" y="142.0151">-Data dateToPay</text><!--MD5=[99b8db98afdc2c8404e39242ef4c1e65]
class Platform--><rect fill="#FEFECE" filter="url(#f12wyeiamvu6g1)" height="40" id="Platform" style="stroke: #A80036; stroke-width: 1.5;" width="84" x="6" y="52"/><ellipse cx="21" cy="68" fill="#ADD1B2" rx="11" ry="11" style="stroke: #A80036; stroke-width: 1.0;"/><path d="M23.9688,73.6406 Q23.3906,73.9375 22.75,74.0859 Q22.1094,74.2344 21.4063,74.2344 Q18.9063,74.2344 17.5859,72.5859 Q16.2656,70.9375 16.2656,67.8125 Q16.2656,64.6875 17.5859,63.0313 Q18.9063,61.375 21.4063,61.375 Q22.1094,61.375 22.7578,61.5313 Q23.4063,61.6875 23.9688,61.9844 L23.9688,64.7031 Q23.3438,64.125 22.75,63.8516 Q22.1563,63.5781 21.5313,63.5781 Q20.1875,63.5781 19.5,64.6484 Q18.8125,65.7188 18.8125,67.8125 Q18.8125,69.9063 19.5,70.9766 Q20.1875,72.0469 21.5313,72.0469 Q22.1563,72.0469 22.75,71.7734 Q23.3438,71.5 23.9688,70.9219 L23.9688,73.6406 Z "/><text fill="#000000" font-family="sans-serif" font-size="12" lengthAdjust="spacingAndGlyphs" textLength="52" x="35" y="72.1543">Platform</text><line style="stroke: #A80036; stroke-width: 1.5;" x1="7" x2="89" y1="84" y2="84"/><!--MD5=[86c7c362de55a38b660185a1328fe18d]
class Organization--><rect fill="#FEFECE" filter="url(#f12wyeiamvu6g1)" height="78.4141" id="Organization" style="stroke: #A80036; stroke-width: 1.5;" width="110" x="257" y="33"/><ellipse cx="272" cy="49" fill="#ADD1B2" rx="11" ry="11" style="stroke: #A80036; stroke-width: 1.0;"/><path d="M274.9688,54.6406 Q274.3906,54.9375 273.75,55.0859 Q273.1094,55.2344 272.4063,55.2344 Q269.9063,55.2344 268.5859,53.5859 Q267.2656,51.9375 267.2656,48.8125 Q267.2656,45.6875 268.5859,44.0313 Q269.9063,42.375 272.4063,42.375 Q273.1094,42.375 273.7578,42.5313 Q274.4063,42.6875 274.9688,42.9844 L274.9688,45.7031 Q274.3438,45.125 273.75,44.8516 Q273.1563,44.5781 272.5313,44.5781 Q271.1875,44.5781 270.5,45.6484 Q269.8125,46.7188 269.8125,48.8125 Q269.8125,50.9063 270.5,51.9766 Q271.1875,53.0469 272.5313,53.0469 Q273.1563,53.0469 273.75,52.7734 Q274.3438,52.5 274.9688,51.9219 L274.9688,54.6406 Z "/><text fill="#000000" font-family="sans-serif" font-size="12" lengthAdjust="spacingAndGlyphs" textLength="78" x="286" y="53.1543">Organization</text><line style="stroke: #A80036; stroke-width: 1.5;" x1="258" x2="366" y1="65" y2="65"/><text fill="#000000" font-family="sans-serif" font-size="11" lengthAdjust="spacingAndGlyphs" textLength="74" x="263" y="79.2104">-String name</text><text fill="#000000" font-family="sans-serif" font-size="11" lengthAdjust="spacingAndGlyphs" textLength="73" x="263" y="92.0151">-String email</text><text fill="#000000" font-family="sans-serif" font-size="11" lengthAdjust="spacingAndGlyphs" textLength="56" x="263" y="104.8198">-String nif</text><!--MD5=[6eb6e197a729f6ec2412743e0bdbca1d]
link Manager to User--><path d="M552.0916,63.2017 C594.7107,54.5997 658.5005,41.7247 695.9684,34.1623 " fill="none" id="Manager-User" style="stroke: #A80036; stroke-width: 1.0;"/><text fill="#000000" font-family="sans-serif" font-size="13" lengthAdjust="spacingAndGlyphs" textLength="46" x="583" y="43.0669">acts as</text><polygon fill="#000000" points="632,37.0664,638,40.0664,632,43.0664,632,37.0664" style="stroke: #000000; stroke-width: 1.0;"/><text fill="#000000" font-family="sans-serif" font-size="13" lengthAdjust="spacingAndGlyphs" textLength="8" x="559.974" y="75.0969">1</text><text fill="#000000" font-family="sans-serif" font-size="13" lengthAdjust="spacingAndGlyphs" textLength="8" x="679.983" y="49.404">1</text><!--MD5=[21898ab70dd7e221b590f87a1f131a40]
link Manager to Payment--><path d="M552.0916,80.7983 C586.8827,87.8204 635.7817,97.6899 672.9531,105.1924 " fill="none" id="Manager-Payment" style="stroke: #A80036; stroke-width: 1.0;"/><text fill="#000000" font-family="sans-serif" font-size="13" lengthAdjust="spacingAndGlyphs" textLength="46" x="583" y="83.0669">defines</text><polygon fill="#000000" points="632,77.0664,638,80.0664,632,83.0664,632,77.0664" style="stroke: #000000; stroke-width: 1.0;"/><text fill="#000000" font-family="sans-serif" font-size="13" lengthAdjust="spacingAndGlyphs" textLength="8" x="559.974" y="95.6079">1</text><text fill="#000000" font-family="sans-serif" font-size="13" lengthAdjust="spacingAndGlyphs" textLength="8" x="656.8606" y="116.831">1</text><!--MD5=[bc039f41cf0b27fadee5cae63fc6e1fe]
link Organization to Manager--><path d="M367.2591,72 C398.1353,72 436.0674,72 464.8445,72 " fill="none" id="Organization-Manager" style="stroke: #A80036; stroke-width: 1.0;"/><text fill="#000000" font-family="sans-serif" font-size="13" lengthAdjust="spacingAndGlyphs" textLength="23" x="398" y="68.0669">has</text><polygon fill="#000000" points="424,62.0664,430,65.0664,424,68.0664,424,62.0664" style="stroke: #000000; stroke-width: 1.0;"/><text fill="#000000" font-family="sans-serif" font-size="13" lengthAdjust="spacingAndGlyphs" textLength="8" x="374.8517" y="85.0098">1</text><text fill="#000000" font-family="sans-serif" font-size="13" lengthAdjust="spacingAndGlyphs" textLength="8" x="448.9516" y="85.3524">1</text><!--MD5=[7640e466c042ba2d6f9c19c816f7f0fc]
link Platform to Organization--><path d="M90.1235,72 C135.2517,72 207.0707,72 256.716,72 " fill="none" id="Platform-Organization" style="stroke: #A80036; stroke-width: 1.0;"/><text fill="#000000" font-family="sans-serif" font-size="13" lengthAdjust="spacingAndGlyphs" textLength="92" x="121" y="68.0669">has registered</text><polygon fill="#000000" points="216,62.0664,222,65.0664,216,68.0664,216,62.0664" style="stroke: #000000; stroke-width: 1.0;"/><text fill="#000000" font-family="sans-serif" font-size="13" lengthAdjust="spacingAndGlyphs" textLength="8" x="98.051" y="85.3674">1</text><text fill="#000000" font-family="sans-serif" font-size="13" lengthAdjust="spacingAndGlyphs" textLength="23" x="225.9941" y="84.9178">1..*</text><!--MD5=[bda583db7f411fab221b2cc8c1f7bb00]
@startuml
skinparam classAttributeIconSize 0
hide methods
left to right direction


class Manager {
  -String nome
  -String email
}

class User {
}


class Payment{
  -Time timeToPay
  -Data dateToPay
}

class Platform{
}


class Organization {
  -String name
  -String email
  -String nif
}


Manager "1" - - "1" User: acts as >
Manager "1" - - "1" Payment: defines >

Organization "1" - - "1" Manager : has >
Platform "1" - - "1..*" Organization: has registered >
@enduml

PlantUML version 1.2019.12(Sun Nov 03 10:24:54 UTC 2019)
(GPL source distribution)
Java Runtime: OpenJDK Runtime Environment
JVM: OpenJDK 64-Bit Server VM
Java Version: 1.8.0_232-heroku-b09
Operating System: Linux
Default Encoding: UTF-8
Language: en
Country: US
--></g></svg>