<?xml version="1.0" encoding="UTF-8" standalone="no"?><svg xmlns="http://www.w3.org/2000/svg" xmlns:xlink="http://www.w3.org/1999/xlink" contentScriptType="application/ecmascript" contentStyleType="text/css" height="800px" preserveAspectRatio="none" style="width:480px;height:800px;" version="1.1" viewBox="0 0 480 800" width="480px" zoomAndPan="magnify"><defs><filter height="300%" id="frhb6oevmotyx" width="300%" x="-1" y="-1"><feGaussianBlur result="blurOut" stdDeviation="2.0"/><feColorMatrix in="blurOut" result="blurOut2" type="matrix" values="0 0 0 0 0 0 0 0 0 0 0 0 0 0 0 0 0 0 .4 0"/><feOffset dx="4.0" dy="4.0" in="blurOut2" result="blurOut3"/><feBlend in="SourceGraphic" in2="blurOut3" mode="normal"/></filter></defs><g><!--MD5=[dc112212ffdae1b478a87df5bc652088]
class DefinePayment--><rect fill="#FEFECE" filter="url(#frhb6oevmotyx)" height="86.4141" id="DefinePayment" style="stroke: #A80036; stroke-width: 1.5;" width="126" x="97" y="703"/><ellipse cx="112" cy="719" fill="#ADD1B2" rx="11" ry="11" style="stroke: #A80036; stroke-width: 1.0;"/><path d="M114.9688,724.6406 Q114.3906,724.9375 113.75,725.0859 Q113.1094,725.2344 112.4063,725.2344 Q109.9063,725.2344 108.5859,723.5859 Q107.2656,721.9375 107.2656,718.8125 Q107.2656,715.6875 108.5859,714.0313 Q109.9063,712.375 112.4063,712.375 Q113.1094,712.375 113.7578,712.5313 Q114.4063,712.6875 114.9688,712.9844 L114.9688,715.7031 Q114.3438,715.125 113.75,714.8516 Q113.1563,714.5781 112.5313,714.5781 Q111.1875,714.5781 110.5,715.6484 Q109.8125,716.7188 109.8125,718.8125 Q109.8125,720.9063 110.5,721.9766 Q111.1875,723.0469 112.5313,723.0469 Q113.1563,723.0469 113.75,722.7734 Q114.3438,722.5 114.9688,721.9219 L114.9688,724.6406 Z "/><text fill="#000000" font-family="sans-serif" font-size="12" lengthAdjust="spacingAndGlyphs" textLength="94" x="126" y="723.1543">DefinePayment</text><line style="stroke: #A80036; stroke-width: 1.5;" x1="98" x2="222" y1="735" y2="735"/><text fill="#000000" font-family="sans-serif" font-size="11" lengthAdjust="spacingAndGlyphs" textLength="95" x="103" y="749.2104">-Time timeToPay</text><text fill="#000000" font-family="sans-serif" font-size="11" lengthAdjust="spacingAndGlyphs" textLength="93" x="103" y="762.0151">-Data dateToPay</text><text fill="#000000" font-family="sans-serif" font-size="11" lengthAdjust="spacingAndGlyphs" textLength="62" x="103" y="774.8198">-int nrDays</text><line style="stroke: #A80036; stroke-width: 1.5;" x1="98" x2="222" y1="781.4141" y2="781.4141"/><!--MD5=[99b8db98afdc2c8404e39242ef4c1e65]
class Platform--><rect fill="#FEFECE" filter="url(#frhb6oevmotyx)" height="73.6094" id="Platform" style="stroke: #A80036; stroke-width: 1.5;" width="287" x="16.5" y="250"/><ellipse cx="129.75" cy="266" fill="#ADD1B2" rx="11" ry="11" style="stroke: #A80036; stroke-width: 1.0;"/><path d="M132.7188,271.6406 Q132.1406,271.9375 131.5,272.0859 Q130.8594,272.2344 130.1563,272.2344 Q127.6563,272.2344 126.3359,270.5859 Q125.0156,268.9375 125.0156,265.8125 Q125.0156,262.6875 126.3359,261.0313 Q127.6563,259.375 130.1563,259.375 Q130.8594,259.375 131.5078,259.5313 Q132.1563,259.6875 132.7188,259.9844 L132.7188,262.7031 Q132.0938,262.125 131.5,261.8516 Q130.9063,261.5781 130.2813,261.5781 Q128.9375,261.5781 128.25,262.6484 Q127.5625,263.7188 127.5625,265.8125 Q127.5625,267.9063 128.25,268.9766 Q128.9375,270.0469 130.2813,270.0469 Q130.9063,270.0469 131.5,269.7734 Q132.0938,269.5 132.7188,268.9219 L132.7188,271.6406 Z "/><text fill="#000000" font-family="sans-serif" font-size="12" lengthAdjust="spacingAndGlyphs" textLength="52" x="150.25" y="270.1543">Platform</text><line style="stroke: #A80036; stroke-width: 1.5;" x1="17.5" x2="302.5" y1="282" y2="282"/><line style="stroke: #A80036; stroke-width: 1.5;" x1="17.5" x2="302.5" y1="290" y2="290"/><text fill="#000000" font-family="sans-serif" font-size="11" lengthAdjust="spacingAndGlyphs" textLength="275" x="22.5" y="304.2104">+OrganizationRegister getOrganizationRegister()</text><text fill="#000000" font-family="sans-serif" font-size="11" lengthAdjust="spacingAndGlyphs" textLength="155" x="22.5" y="317.0151">+schedulesPayment(email)</text><!--MD5=[21e9303e9a6d1efef92aaf3b4b0c3213]
class DefinePaymentController--><rect fill="#FEFECE" filter="url(#frhb6oevmotyx)" height="73.6094" id="DefinePaymentController" style="stroke: #A80036; stroke-width: 1.5;" width="207" x="178.5" y="116"/><ellipse cx="202.5" cy="132" fill="#ADD1B2" rx="11" ry="11" style="stroke: #A80036; stroke-width: 1.0;"/><path d="M205.4688,137.6406 Q204.8906,137.9375 204.25,138.0859 Q203.6094,138.2344 202.9063,138.2344 Q200.4063,138.2344 199.0859,136.5859 Q197.7656,134.9375 197.7656,131.8125 Q197.7656,128.6875 199.0859,127.0313 Q200.4063,125.375 202.9063,125.375 Q203.6094,125.375 204.2578,125.5313 Q204.9063,125.6875 205.4688,125.9844 L205.4688,128.7031 Q204.8438,128.125 204.25,127.8516 Q203.6563,127.5781 203.0313,127.5781 Q201.6875,127.5781 201,128.6484 Q200.3125,129.7188 200.3125,131.8125 Q200.3125,133.9063 201,134.9766 Q201.6875,136.0469 203.0313,136.0469 Q203.6563,136.0469 204.25,135.7734 Q204.8438,135.5 205.4688,134.9219 L205.4688,137.6406 Z "/><text fill="#000000" font-family="sans-serif" font-size="12" lengthAdjust="spacingAndGlyphs" textLength="155" x="218.5" y="136.1543">DefinePaymentController</text><line style="stroke: #A80036; stroke-width: 1.5;" x1="179.5" x2="384.5" y1="148" y2="148"/><line style="stroke: #A80036; stroke-width: 1.5;" x1="179.5" x2="384.5" y1="156" y2="156"/><text fill="#000000" font-family="sans-serif" font-size="11" lengthAdjust="spacingAndGlyphs" textLength="195" x="184.5" y="170.2104">+newPayment(time, date, nrDays)</text><text fill="#000000" font-family="sans-serif" font-size="11" lengthAdjust="spacingAndGlyphs" textLength="118" x="184.5" y="183.0151">+registersPayment()</text><!--MD5=[e45a4727c47b726c25e081782e8bc183]
class ApplicationPOT--><rect fill="#FEFECE" filter="url(#frhb6oevmotyx)" height="73.6094" id="ApplicationPOT" style="stroke: #A80036; stroke-width: 1.5;" width="130" x="339" y="250"/><ellipse cx="356.25" cy="266" fill="#ADD1B2" rx="11" ry="11" style="stroke: #A80036; stroke-width: 1.0;"/><path d="M359.2188,271.6406 Q358.6406,271.9375 358,272.0859 Q357.3594,272.2344 356.6563,272.2344 Q354.1563,272.2344 352.8359,270.5859 Q351.5156,268.9375 351.5156,265.8125 Q351.5156,262.6875 352.8359,261.0313 Q354.1563,259.375 356.6563,259.375 Q357.3594,259.375 358.0078,259.5313 Q358.6563,259.6875 359.2188,259.9844 L359.2188,262.7031 Q358.5938,262.125 358,261.8516 Q357.4063,261.5781 356.7813,261.5781 Q355.4375,261.5781 354.75,262.6484 Q354.0625,263.7188 354.0625,265.8125 Q354.0625,267.9063 354.75,268.9766 Q355.4375,270.0469 356.7813,270.0469 Q357.4063,270.0469 358,269.7734 Q358.5938,269.5 359.2188,268.9219 L359.2188,271.6406 Z "/><text fill="#000000" font-family="sans-serif" font-size="12" lengthAdjust="spacingAndGlyphs" textLength="93" x="370.75" y="270.1543">ApplicationPOT</text><line style="stroke: #A80036; stroke-width: 1.5;" x1="340" x2="468" y1="282" y2="282"/><line style="stroke: #A80036; stroke-width: 1.5;" x1="340" x2="468" y1="290" y2="290"/><text fill="#000000" font-family="sans-serif" font-size="11" lengthAdjust="spacingAndGlyphs" textLength="118" x="345" y="304.2104">+static getInstance()</text><text fill="#000000" font-family="sans-serif" font-size="11" lengthAdjust="spacingAndGlyphs" textLength="65" x="345" y="317.0151">+getLogin()</text><!--MD5=[bf6f636222406559e0ae8c46c1f32994]
class RegisterOrganization--><rect fill="#FEFECE" filter="url(#frhb6oevmotyx)" height="60.8047" id="RegisterOrganization" style="stroke: #A80036; stroke-width: 1.5;" width="221" x="49.5" y="384"/><ellipse cx="91.05" cy="400" fill="#ADD1B2" rx="11" ry="11" style="stroke: #A80036; stroke-width: 1.0;"/><path d="M94.0188,405.6406 Q93.4406,405.9375 92.8,406.0859 Q92.1594,406.2344 91.4563,406.2344 Q88.9563,406.2344 87.6359,404.5859 Q86.3156,402.9375 86.3156,399.8125 Q86.3156,396.6875 87.6359,395.0313 Q88.9563,393.375 91.4563,393.375 Q92.1594,393.375 92.8078,393.5313 Q93.4563,393.6875 94.0188,393.9844 L94.0188,396.7031 Q93.3938,396.125 92.8,395.8516 Q92.2063,395.5781 91.5813,395.5781 Q90.2375,395.5781 89.55,396.6484 Q88.8625,397.7188 88.8625,399.8125 Q88.8625,401.9063 89.55,402.9766 Q90.2375,404.0469 91.5813,404.0469 Q92.2063,404.0469 92.8,403.7734 Q93.3938,403.5 94.0188,402.9219 L94.0188,405.6406 Z "/><text fill="#000000" font-family="sans-serif" font-size="12" lengthAdjust="spacingAndGlyphs" textLength="130" x="110.95" y="404.1543">RegisterOrganization</text><line style="stroke: #A80036; stroke-width: 1.5;" x1="50.5" x2="269.5" y1="416" y2="416"/><line style="stroke: #A80036; stroke-width: 1.5;" x1="50.5" x2="269.5" y1="424" y2="424"/><text fill="#000000" font-family="sans-serif" font-size="11" lengthAdjust="spacingAndGlyphs" textLength="209" x="55.5" y="438.2104">+getOrganizationByUserEmail(email)</text><!--MD5=[0582f2f224cab4acb6092e7e06f2ec46]
class PaymentUI--><rect fill="#FEFECE" filter="url(#frhb6oevmotyx)" height="48" id="PaymentUI" style="stroke: #A80036; stroke-width: 1.5;" width="98" x="233" y="8"/><ellipse cx="248" cy="24" fill="#ADD1B2" rx="11" ry="11" style="stroke: #A80036; stroke-width: 1.0;"/><path d="M250.9688,29.6406 Q250.3906,29.9375 249.75,30.0859 Q249.1094,30.2344 248.4063,30.2344 Q245.9063,30.2344 244.5859,28.5859 Q243.2656,26.9375 243.2656,23.8125 Q243.2656,20.6875 244.5859,19.0313 Q245.9063,17.375 248.4063,17.375 Q249.1094,17.375 249.7578,17.5313 Q250.4063,17.6875 250.9688,17.9844 L250.9688,20.7031 Q250.3438,20.125 249.75,19.8516 Q249.1563,19.5781 248.5313,19.5781 Q247.1875,19.5781 246.5,20.6484 Q245.8125,21.7188 245.8125,23.8125 Q245.8125,25.9063 246.5,26.9766 Q247.1875,28.0469 248.5313,28.0469 Q249.1563,28.0469 249.75,27.7734 Q250.3438,27.5 250.9688,26.9219 L250.9688,29.6406 Z "/><text fill="#000000" font-family="sans-serif" font-size="12" lengthAdjust="spacingAndGlyphs" textLength="66" x="262" y="28.1543">PaymentUI</text><line style="stroke: #A80036; stroke-width: 1.5;" x1="234" x2="330" y1="40" y2="40"/><line style="stroke: #A80036; stroke-width: 1.5;" x1="234" x2="330" y1="48" y2="48"/><!--MD5=[86c7c362de55a38b660185a1328fe18d]
class Organization--><rect fill="#FEFECE" filter="url(#frhb6oevmotyx)" height="137.6328" id="Organization" style="stroke: #A80036; stroke-width: 1.5;" width="308" x="6" y="505"/><ellipse cx="116.75" cy="521" fill="#ADD1B2" rx="11" ry="11" style="stroke: #A80036; stroke-width: 1.0;"/><path d="M119.7188,526.6406 Q119.1406,526.9375 118.5,527.0859 Q117.8594,527.2344 117.1563,527.2344 Q114.6563,527.2344 113.3359,525.5859 Q112.0156,523.9375 112.0156,520.8125 Q112.0156,517.6875 113.3359,516.0313 Q114.6563,514.375 117.1563,514.375 Q117.8594,514.375 118.5078,514.5313 Q119.1563,514.6875 119.7188,514.9844 L119.7188,517.7031 Q119.0938,517.125 118.5,516.8516 Q117.9063,516.5781 117.2813,516.5781 Q115.9375,516.5781 115.25,517.6484 Q114.5625,518.7188 114.5625,520.8125 Q114.5625,522.9063 115.25,523.9766 Q115.9375,525.0469 117.2813,525.0469 Q117.9063,525.0469 118.5,524.7734 Q119.0938,524.5 119.7188,523.9219 L119.7188,526.6406 Z "/><text fill="#000000" font-family="sans-serif" font-size="12" lengthAdjust="spacingAndGlyphs" textLength="78" x="137.25" y="525.1543">Organization</text><line style="stroke: #A80036; stroke-width: 1.5;" x1="7" x2="313" y1="537" y2="537"/><text fill="#000000" font-family="sans-serif" font-size="11" lengthAdjust="spacingAndGlyphs" textLength="74" x="12" y="551.2104">-String name</text><text fill="#000000" font-family="sans-serif" font-size="11" lengthAdjust="spacingAndGlyphs" textLength="73" x="12" y="564.0151">-String email</text><text fill="#000000" font-family="sans-serif" font-size="11" lengthAdjust="spacingAndGlyphs" textLength="59" x="12" y="576.8198">-String NIF</text><line style="stroke: #A80036; stroke-width: 1.5;" x1="7" x2="313" y1="583.4141" y2="583.4141"/><text fill="#000000" font-family="sans-serif" font-size="11" lengthAdjust="spacingAndGlyphs" textLength="177" x="12" y="597.6245">+Organization(name, email,nif)</text><text fill="#000000" font-family="sans-serif" font-size="11" lengthAdjust="spacingAndGlyphs" textLength="209" x="12" y="610.4292">+DefinePayment getDefinePayment()</text><text fill="#000000" font-family="sans-serif" font-size="11" lengthAdjust="spacingAndGlyphs" textLength="209" x="12" y="623.2339">+DefinePayment setDefinePayment()</text><text fill="#000000" font-family="sans-serif" font-size="11" lengthAdjust="spacingAndGlyphs" textLength="296" x="12" y="636.0386">+DefinePayment newDefinePayment(time, date, rtp)</text><!--MD5=[0623b4328678d73e7aca26cac89081d6]
link PaymentUI to DefinePaymentController--><path d="M282,56.1953 C282,71.8292 282,92.5956 282,110.885 " fill="none" id="PaymentUI-&gt;DefinePaymentController" style="stroke: #A80036; stroke-width: 1.0; stroke-dasharray: 7.0,7.0;"/><polygon fill="#A80036" points="282,115.9716,286,106.9716,282,110.9716,278,106.9716,282,115.9716" style="stroke: #A80036; stroke-width: 1.0;"/><!--MD5=[d66a3020d1c5529f0c9f7f9b21cca456]
link DefinePaymentController to Platform--><path d="M248.0162,190.3265 C232.2847,207.6054 213.549,228.1839 197.4151,245.9047 " fill="none" id="DefinePaymentController-&gt;Platform" style="stroke: #A80036; stroke-width: 1.0; stroke-dasharray: 7.0,7.0;"/><polygon fill="#A80036" points="193.8016,249.8737,202.8184,245.9117,197.1678,246.1765,196.903,240.5259,193.8016,249.8737" style="stroke: #A80036; stroke-width: 1.0;"/><!--MD5=[c1f843b348aa504c1a4d05dba91159e2]
link DefinePaymentController to ApplicationPOT--><path d="M315.9838,190.3265 C331.7153,207.6054 350.451,228.1839 366.5849,245.9047 " fill="none" id="DefinePaymentController-&gt;ApplicationPOT" style="stroke: #A80036; stroke-width: 1.0; stroke-dasharray: 7.0,7.0;"/><polygon fill="#A80036" points="370.1984,249.8737,367.097,240.5259,366.8322,246.1765,361.1816,245.9117,370.1984,249.8737" style="stroke: #A80036; stroke-width: 1.0;"/><!--MD5=[ac4cc276e9ceab0b214a306c222564f6]
link Platform to RegisterOrganization--><path d="M160,324.221 C160,341.4069 160,361.7234 160,378.7273 " fill="none" id="Platform-&gt;RegisterOrganization" style="stroke: #A80036; stroke-width: 1.0; stroke-dasharray: 7.0,7.0;"/><polygon fill="#A80036" points="160,383.8909,164,374.8909,160,378.8909,156,374.8909,160,383.8909" style="stroke: #A80036; stroke-width: 1.0;"/><text fill="#000000" font-family="sans-serif" font-size="13" lengthAdjust="spacingAndGlyphs" textLength="8" x="151.3375" y="343.7382">1</text><text fill="#000000" font-family="sans-serif" font-size="13" lengthAdjust="spacingAndGlyphs" textLength="8" x="151.175" y="373.1316">1</text><!--MD5=[f099c38114634f7b0b0cd46ad2e921be]
link RegisterOrganization to Organization--><path d="M160,445.2532 C160,460.7266 160,480.2179 160,499.3197 " fill="none" id="RegisterOrganization-&gt;Organization" style="stroke: #A80036; stroke-width: 1.0; stroke-dasharray: 7.0,7.0;"/><polygon fill="#A80036" points="160,504.6934,164,495.6934,160,499.6934,156,495.6934,160,504.6934" style="stroke: #A80036; stroke-width: 1.0;"/><text fill="#000000" font-family="sans-serif" font-size="13" lengthAdjust="spacingAndGlyphs" textLength="8" x="151.2125" y="464.8835">1</text><text fill="#000000" font-family="sans-serif" font-size="13" lengthAdjust="spacingAndGlyphs" textLength="7" x="152.6391" y="493.8654">*</text><!--MD5=[cb0755ad77e11534d97f26a610810f27]
link Organization to DefinePayment--><path d="M160,643.4632 C160,661.6295 160,680.8188 160,697.6216 " fill="none" id="Organization-&gt;DefinePayment" style="stroke: #A80036; stroke-width: 1.0; stroke-dasharray: 7.0,7.0;"/><polygon fill="#A80036" points="160,702.7559,164,693.7559,160,697.7559,156,693.7559,160,702.7559" style="stroke: #A80036; stroke-width: 1.0;"/><!--MD5=[5a4e33c3bb1f167e58f392175c208d8b]
@startuml
skinparam classAttributeIconSize 0


class DefinePayment {
  -Time timeToPay
  -Data dateToPay
  -int nrDays
}


class Platform {
  +OrganizationRegister getOrganizationRegister()
  +schedulesPayment(email)
}

class DefinePaymentController {
  +newPayment(time, date, nrDays)
  +registersPayment()
}

class ApplicationPOT {
  +static getInstance()
  +getLogin()
}

class RegisterOrganization {
  +getOrganizationByUserEmail(email)
}

class PaymentUI {
}

class Organization {
  -String name
  -String email
  -String NIF
  +Organization(name, email,nif)
  +DefinePayment getDefinePayment()
  +DefinePayment setDefinePayment()
  +DefinePayment newDefinePayment(time, date, rtp)
}

PaymentUI ..> DefinePaymentController
DefinePaymentController ..> Platform
DefinePaymentController ..> ApplicationPOT
Platform "1" ..> "1" RegisterOrganization
RegisterOrganization "1" ..> "*" Organization
Organization ..> DefinePayment
@enduml

PlantUML version 1.2019.12(Sun Nov 03 10:24:54 UTC 2019)
(GPL source distribution)
Java Runtime: OpenJDK Runtime Environment
JVM: OpenJDK 64-Bit Server VM
Java Version: 1.8.0_232-heroku-b09
Operating System: Linux
Default Encoding: UTF-8
Language: en
Country: US
--></g></svg>