<?xml version="1.0" encoding="UTF-8" standalone="no"?><svg xmlns="http://www.w3.org/2000/svg" xmlns:xlink="http://www.w3.org/1999/xlink" contentScriptType="application/ecmascript" contentStyleType="text/css" height="395px" preserveAspectRatio="none" style="width:1683px;height:395px;" version="1.1" viewBox="0 0 1683 395" width="1683px" zoomAndPan="magnify"><defs><filter height="300%" id="fngmoww8m66ip" width="300%" x="-1" y="-1"><feGaussianBlur result="blurOut" stdDeviation="2.0"/><feColorMatrix in="blurOut" result="blurOut2" type="matrix" values="0 0 0 0 0 0 0 0 0 0 0 0 0 0 0 0 0 0 .4 0"/><feOffset dx="4.0" dy="4.0" in="blurOut2" result="blurOut3"/><feBlend in="SourceGraphic" in2="blurOut3" mode="normal"/></filter></defs><g><!--MD5=[ecaed46f78f8cfe1e9ce18477649be18]
class Plataforma--><rect fill="#FEFECE" filter="url(#fngmoww8m66ip)" height="52.8047" id="Plataforma" style="stroke: #A80036; stroke-width: 1.5;" width="118" x="6" y="141"/><ellipse cx="31.8" cy="157" fill="#ADD1B2" rx="11" ry="11" style="stroke: #A80036; stroke-width: 1.0;"/><path d="M34.1438,152.6719 C33.2063,152.2344 32.6125,152.0938 31.7375,152.0938 C29.1125,152.0938 27.1125,154.1719 27.1125,156.8906 L27.1125,158.0156 C27.1125,160.5938 29.2219,162.4844 32.1125,162.4844 C33.3313,162.4844 34.4875,162.1875 35.2375,161.6406 C35.8156,161.2344 36.1438,160.7813 36.1438,160.3906 C36.1438,159.9375 35.7531,159.5469 35.2844,159.5469 C35.0656,159.5469 34.8625,159.625 34.675,159.8125 C34.2219,160.2969 34.2219,160.2969 34.0344,160.3906 C33.6125,160.6563 32.925,160.7813 32.1594,160.7813 C30.1125,160.7813 28.8156,159.6875 28.8156,157.9844 L28.8156,156.8906 C28.8156,155.1094 30.0656,153.7969 31.8,153.7969 C32.3781,153.7969 32.9875,153.9531 33.4563,154.2031 C33.9406,154.4844 34.1125,154.7031 34.2063,155.1094 C34.2688,155.5156 34.3,155.6406 34.4406,155.7656 C34.5813,155.9063 34.8156,156.0156 35.0344,156.0156 C35.3,156.0156 35.5656,155.875 35.7375,155.6563 C35.8469,155.5 35.8781,155.3125 35.8781,154.8906 L35.8781,153.4688 C35.8781,153.0313 35.8625,152.9063 35.7688,152.75 C35.6125,152.4844 35.3313,152.3438 35.0344,152.3438 C34.7375,152.3438 34.5344,152.4375 34.3156,152.75 L34.1438,152.6719 Z "/><text fill="#000000" font-family="sans-serif" font-size="12" lengthAdjust="spacingAndGlyphs" textLength="62" x="48.2" y="161.1543">Plataforma</text><line style="stroke: #A80036; stroke-width: 1.5;" x1="7" x2="123" y1="173" y2="173"/><text fill="#000000" font-family="sans-serif" font-size="11" lengthAdjust="spacingAndGlyphs" textLength="106" x="12" y="187.2104">-String designacao</text><!--MD5=[d0e9f237fb3c72e1245c36c562ad52c4]
class TipoRegimento--><rect fill="#FEFECE" filter="url(#fngmoww8m66ip)" height="65.6094" id="TipoRegimento" style="stroke: #A80036; stroke-width: 1.5;" width="146" x="969" y="26.5"/><ellipse cx="994.8" cy="42.5" fill="#ADD1B2" rx="11" ry="11" style="stroke: #A80036; stroke-width: 1.0;"/><path d="M997.1438,38.1719 C996.2063,37.7344 995.6125,37.5938 994.7375,37.5938 C992.1125,37.5938 990.1125,39.6719 990.1125,42.3906 L990.1125,43.5156 C990.1125,46.0938 992.2219,47.9844 995.1125,47.9844 C996.3313,47.9844 997.4875,47.6875 998.2375,47.1406 C998.8156,46.7344 999.1438,46.2813 999.1438,45.8906 C999.1438,45.4375 998.7531,45.0469 998.2844,45.0469 C998.0656,45.0469 997.8625,45.125 997.675,45.3125 C997.2219,45.7969 997.2219,45.7969 997.0344,45.8906 C996.6125,46.1563 995.925,46.2813 995.1594,46.2813 C993.1125,46.2813 991.8156,45.1875 991.8156,43.4844 L991.8156,42.3906 C991.8156,40.6094 993.0656,39.2969 994.8,39.2969 C995.3781,39.2969 995.9875,39.4531 996.4563,39.7031 C996.9406,39.9844 997.1125,40.2031 997.2063,40.6094 C997.2688,41.0156 997.3,41.1406 997.4406,41.2656 C997.5813,41.4063 997.8156,41.5156 998.0344,41.5156 C998.3,41.5156 998.5656,41.375 998.7375,41.1563 C998.8469,41 998.8781,40.8125 998.8781,40.3906 L998.8781,38.9688 C998.8781,38.5313 998.8625,38.4063 998.7688,38.25 C998.6125,37.9844 998.3313,37.8438 998.0344,37.8438 C997.7375,37.8438 997.5344,37.9375 997.3156,38.25 L997.1438,38.1719 Z "/><text fill="#000000" font-family="sans-serif" font-size="12" lengthAdjust="spacingAndGlyphs" textLength="90" x="1011.2" y="46.6543">TipoRegimento</text><line style="stroke: #A80036; stroke-width: 1.5;" x1="970" x2="1114" y1="58.5" y2="58.5"/><text fill="#000000" font-family="sans-serif" font-size="11" lengthAdjust="spacingAndGlyphs" textLength="106" x="975" y="72.7104">-String designacao</text><text fill="#000000" font-family="sans-serif" font-size="11" lengthAdjust="spacingAndGlyphs" textLength="134" x="975" y="85.5151">-String descricaoRegras</text><!--MD5=[1f687b5315377fe49fca59b457947463]
class Freelancer--><rect fill="#FEFECE" filter="url(#fngmoww8m66ip)" height="91.2188" id="Freelancer" style="stroke: #A80036; stroke-width: 1.5;" width="102" x="1570" y="293"/><ellipse cx="1587.25" cy="309" fill="#ADD1B2" rx="11" ry="11" style="stroke: #A80036; stroke-width: 1.0;"/><path d="M1589.5938,304.6719 C1588.6563,304.2344 1588.0625,304.0938 1587.1875,304.0938 C1584.5625,304.0938 1582.5625,306.1719 1582.5625,308.8906 L1582.5625,310.0156 C1582.5625,312.5938 1584.6719,314.4844 1587.5625,314.4844 C1588.7813,314.4844 1589.9375,314.1875 1590.6875,313.6406 C1591.2656,313.2344 1591.5938,312.7813 1591.5938,312.3906 C1591.5938,311.9375 1591.2031,311.5469 1590.7344,311.5469 C1590.5156,311.5469 1590.3125,311.625 1590.125,311.8125 C1589.6719,312.2969 1589.6719,312.2969 1589.4844,312.3906 C1589.0625,312.6563 1588.375,312.7813 1587.6094,312.7813 C1585.5625,312.7813 1584.2656,311.6875 1584.2656,309.9844 L1584.2656,308.8906 C1584.2656,307.1094 1585.5156,305.7969 1587.25,305.7969 C1587.8281,305.7969 1588.4375,305.9531 1588.9063,306.2031 C1589.3906,306.4844 1589.5625,306.7031 1589.6563,307.1094 C1589.7188,307.5156 1589.75,307.6406 1589.8906,307.7656 C1590.0313,307.9063 1590.2656,308.0156 1590.4844,308.0156 C1590.75,308.0156 1591.0156,307.875 1591.1875,307.6563 C1591.2969,307.5 1591.3281,307.3125 1591.3281,306.8906 L1591.3281,305.4688 C1591.3281,305.0313 1591.3125,304.9063 1591.2188,304.75 C1591.0625,304.4844 1590.7813,304.3438 1590.4844,304.3438 C1590.1875,304.3438 1589.9844,304.4375 1589.7656,304.75 L1589.5938,304.6719 Z "/><text fill="#000000" font-family="sans-serif" font-size="12" lengthAdjust="spacingAndGlyphs" textLength="65" x="1601.75" y="313.1543">Freelancer</text><line style="stroke: #A80036; stroke-width: 1.5;" x1="1571" x2="1671" y1="325" y2="325"/><text fill="#000000" font-family="sans-serif" font-size="11" lengthAdjust="spacingAndGlyphs" textLength="74" x="1576" y="339.2104">-String nome</text><text fill="#000000" font-family="sans-serif" font-size="11" lengthAdjust="spacingAndGlyphs" textLength="58" x="1576" y="352.0151">-String NIF</text><text fill="#000000" font-family="sans-serif" font-size="11" lengthAdjust="spacingAndGlyphs" textLength="90" x="1576" y="364.8198">-String telefone</text><text fill="#000000" font-family="sans-serif" font-size="11" lengthAdjust="spacingAndGlyphs" textLength="73" x="1576" y="377.6245">-String email</text><!--MD5=[19db0db7353a4bf63eefc676e5ba9b80]
class Anuncio--><rect fill="#FEFECE" filter="url(#fngmoww8m66ip)" height="116.8281" id="Anuncio" style="stroke: #A80036; stroke-width: 1.5;" width="156" x="252" y="109"/><ellipse cx="302.25" cy="125" fill="#ADD1B2" rx="11" ry="11" style="stroke: #A80036; stroke-width: 1.0;"/><path d="M304.5938,120.6719 C303.6563,120.2344 303.0625,120.0938 302.1875,120.0938 C299.5625,120.0938 297.5625,122.1719 297.5625,124.8906 L297.5625,126.0156 C297.5625,128.5938 299.6719,130.4844 302.5625,130.4844 C303.7813,130.4844 304.9375,130.1875 305.6875,129.6406 C306.2656,129.2344 306.5938,128.7813 306.5938,128.3906 C306.5938,127.9375 306.2031,127.5469 305.7344,127.5469 C305.5156,127.5469 305.3125,127.625 305.125,127.8125 C304.6719,128.2969 304.6719,128.2969 304.4844,128.3906 C304.0625,128.6563 303.375,128.7813 302.6094,128.7813 C300.5625,128.7813 299.2656,127.6875 299.2656,125.9844 L299.2656,124.8906 C299.2656,123.1094 300.5156,121.7969 302.25,121.7969 C302.8281,121.7969 303.4375,121.9531 303.9063,122.2031 C304.3906,122.4844 304.5625,122.7031 304.6563,123.1094 C304.7188,123.5156 304.75,123.6406 304.8906,123.7656 C305.0313,123.9063 305.2656,124.0156 305.4844,124.0156 C305.75,124.0156 306.0156,123.875 306.1875,123.6563 C306.2969,123.5 306.3281,123.3125 306.3281,122.8906 L306.3281,121.4688 C306.3281,121.0313 306.3125,120.9063 306.2188,120.75 C306.0625,120.4844 305.7813,120.3438 305.4844,120.3438 C305.1875,120.3438 304.9844,120.4375 304.7656,120.75 L304.5938,120.6719 Z "/><text fill="#000000" font-family="sans-serif" font-size="12" lengthAdjust="spacingAndGlyphs" textLength="47" x="322.75" y="129.1543">Anuncio</text><line style="stroke: #A80036; stroke-width: 1.5;" x1="253" x2="407" y1="141" y2="141"/><text fill="#000000" font-family="sans-serif" font-size="11" lengthAdjust="spacingAndGlyphs" textLength="142" x="258" y="155.2104">-Date dtInicioPublicitacao</text><text fill="#000000" font-family="sans-serif" font-size="11" lengthAdjust="spacingAndGlyphs" textLength="133" x="258" y="168.0151">-Date dtFimPublicitacao</text><text fill="#000000" font-family="sans-serif" font-size="11" lengthAdjust="spacingAndGlyphs" textLength="144" x="258" y="180.8198">-Date dtInicioCandidatura</text><text fill="#000000" font-family="sans-serif" font-size="11" lengthAdjust="spacingAndGlyphs" textLength="135" x="258" y="193.6245">-Date dtFimCandidatura</text><text fill="#000000" font-family="sans-serif" font-size="11" lengthAdjust="spacingAndGlyphs" textLength="126" x="258" y="206.4292">-Date dtInicioSeriacao</text><text fill="#000000" font-family="sans-serif" font-size="11" lengthAdjust="spacingAndGlyphs" textLength="117" x="258" y="219.2339">-Date dtFimSeriacao</text><!--MD5=[475c5b924ed41035684e2831311827d2]
class Candidatura--><rect fill="#FEFECE" filter="url(#fngmoww8m66ip)" height="104.0234" id="Candidatura" style="stroke: #A80036; stroke-width: 1.5;" width="150" x="1262" y="221.5"/><ellipse cx="1298.15" cy="237.5" fill="#ADD1B2" rx="11" ry="11" style="stroke: #A80036; stroke-width: 1.0;"/><path d="M1300.4938,233.1719 C1299.5563,232.7344 1298.9625,232.5938 1298.0875,232.5938 C1295.4625,232.5938 1293.4625,234.6719 1293.4625,237.3906 L1293.4625,238.5156 C1293.4625,241.0938 1295.5719,242.9844 1298.4625,242.9844 C1299.6813,242.9844 1300.8375,242.6875 1301.5875,242.1406 C1302.1656,241.7344 1302.4938,241.2813 1302.4938,240.8906 C1302.4938,240.4375 1302.1031,240.0469 1301.6344,240.0469 C1301.4156,240.0469 1301.2125,240.125 1301.025,240.3125 C1300.5719,240.7969 1300.5719,240.7969 1300.3844,240.8906 C1299.9625,241.1563 1299.275,241.2813 1298.5094,241.2813 C1296.4625,241.2813 1295.1656,240.1875 1295.1656,238.4844 L1295.1656,237.3906 C1295.1656,235.6094 1296.4156,234.2969 1298.15,234.2969 C1298.7281,234.2969 1299.3375,234.4531 1299.8063,234.7031 C1300.2906,234.9844 1300.4625,235.2031 1300.5563,235.6094 C1300.6188,236.0156 1300.65,236.1406 1300.7906,236.2656 C1300.9313,236.4063 1301.1656,236.5156 1301.3844,236.5156 C1301.65,236.5156 1301.9156,236.375 1302.0875,236.1563 C1302.1969,236 1302.2281,235.8125 1302.2281,235.3906 L1302.2281,233.9688 C1302.2281,233.5313 1302.2125,233.4063 1302.1188,233.25 C1301.9625,232.9844 1301.6813,232.8438 1301.3844,232.8438 C1301.0875,232.8438 1300.8844,232.9375 1300.6656,233.25 L1300.4938,233.1719 Z "/><text fill="#000000" font-family="sans-serif" font-size="12" lengthAdjust="spacingAndGlyphs" textLength="71" x="1316.85" y="241.6543">Candidatura</text><line style="stroke: #A80036; stroke-width: 1.5;" x1="1263" x2="1411" y1="253.5" y2="253.5"/><text fill="#000000" font-family="sans-serif" font-size="11" lengthAdjust="spacingAndGlyphs" textLength="129" x="1268" y="267.7104">-Date dataCandidatura</text><text fill="#000000" font-family="sans-serif" font-size="11" lengthAdjust="spacingAndGlyphs" textLength="138" x="1268" y="280.5151">-Double valorPretendido</text><text fill="#000000" font-family="sans-serif" font-size="11" lengthAdjust="spacingAndGlyphs" textLength="85" x="1268" y="293.3198">-Integer nrDias</text><text fill="#000000" font-family="sans-serif" font-size="11" lengthAdjust="spacingAndGlyphs" textLength="135" x="1268" y="306.1245">-String txtApresentacao</text><text fill="#000000" font-family="sans-serif" font-size="11" lengthAdjust="spacingAndGlyphs" textLength="113" x="1268" y="318.9292">-String txtMotivacao</text><!--MD5=[716bba0e94eea125d5a66a891f2c3c34]
class Classificacao--><rect fill="#FEFECE" filter="url(#fngmoww8m66ip)" height="52.8047" id="Classificacao" style="stroke: #A80036; stroke-width: 1.5;" width="110" x="987" y="201"/><ellipse cx="1002" cy="217" fill="#ADD1B2" rx="11" ry="11" style="stroke: #A80036; stroke-width: 1.0;"/><path d="M1004.3438,212.6719 C1003.4063,212.2344 1002.8125,212.0938 1001.9375,212.0938 C999.3125,212.0938 997.3125,214.1719 997.3125,216.8906 L997.3125,218.0156 C997.3125,220.5938 999.4219,222.4844 1002.3125,222.4844 C1003.5313,222.4844 1004.6875,222.1875 1005.4375,221.6406 C1006.0156,221.2344 1006.3438,220.7813 1006.3438,220.3906 C1006.3438,219.9375 1005.9531,219.5469 1005.4844,219.5469 C1005.2656,219.5469 1005.0625,219.625 1004.875,219.8125 C1004.4219,220.2969 1004.4219,220.2969 1004.2344,220.3906 C1003.8125,220.6563 1003.125,220.7813 1002.3594,220.7813 C1000.3125,220.7813 999.0156,219.6875 999.0156,217.9844 L999.0156,216.8906 C999.0156,215.1094 1000.2656,213.7969 1002,213.7969 C1002.5781,213.7969 1003.1875,213.9531 1003.6563,214.2031 C1004.1406,214.4844 1004.3125,214.7031 1004.4063,215.1094 C1004.4688,215.5156 1004.5,215.6406 1004.6406,215.7656 C1004.7813,215.9063 1005.0156,216.0156 1005.2344,216.0156 C1005.5,216.0156 1005.7656,215.875 1005.9375,215.6563 C1006.0469,215.5 1006.0781,215.3125 1006.0781,214.8906 L1006.0781,213.4688 C1006.0781,213.0313 1006.0625,212.9063 1005.9688,212.75 C1005.8125,212.4844 1005.5313,212.3438 1005.2344,212.3438 C1004.9375,212.3438 1004.7344,212.4375 1004.5156,212.75 L1004.3438,212.6719 Z "/><text fill="#000000" font-family="sans-serif" font-size="12" lengthAdjust="spacingAndGlyphs" textLength="78" x="1016" y="221.1543">Classificacao</text><line style="stroke: #A80036; stroke-width: 1.5;" x1="988" x2="1096" y1="233" y2="233"/><text fill="#000000" font-family="sans-serif" font-size="11" lengthAdjust="spacingAndGlyphs" textLength="77" x="993" y="247.2104">-Integer lugar</text><!--MD5=[aca0f236260d30190baee83e33cc7802]
class ProcessoSeriacao--><rect fill="#FEFECE" filter="url(#fngmoww8m66ip)" height="65.6094" id="ProcessoSeriacao" style="stroke: #A80036; stroke-width: 1.5;" width="141" x="548" y="186.5"/><ellipse cx="563" cy="202.5" fill="#ADD1B2" rx="11" ry="11" style="stroke: #A80036; stroke-width: 1.0;"/><path d="M565.3438,198.1719 C564.4063,197.7344 563.8125,197.5938 562.9375,197.5938 C560.3125,197.5938 558.3125,199.6719 558.3125,202.3906 L558.3125,203.5156 C558.3125,206.0938 560.4219,207.9844 563.3125,207.9844 C564.5313,207.9844 565.6875,207.6875 566.4375,207.1406 C567.0156,206.7344 567.3438,206.2813 567.3438,205.8906 C567.3438,205.4375 566.9531,205.0469 566.4844,205.0469 C566.2656,205.0469 566.0625,205.125 565.875,205.3125 C565.4219,205.7969 565.4219,205.7969 565.2344,205.8906 C564.8125,206.1563 564.125,206.2813 563.3594,206.2813 C561.3125,206.2813 560.0156,205.1875 560.0156,203.4844 L560.0156,202.3906 C560.0156,200.6094 561.2656,199.2969 563,199.2969 C563.5781,199.2969 564.1875,199.4531 564.6563,199.7031 C565.1406,199.9844 565.3125,200.2031 565.4063,200.6094 C565.4688,201.0156 565.5,201.1406 565.6406,201.2656 C565.7813,201.4063 566.0156,201.5156 566.2344,201.5156 C566.5,201.5156 566.7656,201.375 566.9375,201.1563 C567.0469,201 567.0781,200.8125 567.0781,200.3906 L567.0781,198.9688 C567.0781,198.5313 567.0625,198.4063 566.9688,198.25 C566.8125,197.9844 566.5313,197.8438 566.2344,197.8438 C565.9375,197.8438 565.7344,197.9375 565.5156,198.25 L565.3438,198.1719 Z "/><text fill="#000000" font-family="sans-serif" font-size="12" lengthAdjust="spacingAndGlyphs" textLength="109" x="577" y="206.6543">ProcessoSeriacao</text><line style="stroke: #A80036; stroke-width: 1.5;" x1="549" x2="688" y1="218.5" y2="218.5"/><text fill="#000000" font-family="sans-serif" font-size="11" lengthAdjust="spacingAndGlyphs" textLength="123" x="554" y="232.7104">-Date dataRealizacao</text><text fill="#000000" font-family="sans-serif" font-size="11" lengthAdjust="spacingAndGlyphs" textLength="97" x="554" y="245.5151">-String conclusao</text><!--MD5=[b13f1373868ca481312b07735b265fb3]
class ProcessoAdjudicacao--><rect fill="#FEFECE" filter="url(#fngmoww8m66ip)" height="40" id="ProcessoAdjudicacao" style="stroke: #A80036; stroke-width: 1.5;" width="161" x="538" y="111.5"/><ellipse cx="553" cy="127.5" fill="#ADD1B2" rx="11" ry="11" style="stroke: #A80036; stroke-width: 1.0;"/><path d="M555.3438,123.1719 C554.4063,122.7344 553.8125,122.5938 552.9375,122.5938 C550.3125,122.5938 548.3125,124.6719 548.3125,127.3906 L548.3125,128.5156 C548.3125,131.0938 550.4219,132.9844 553.3125,132.9844 C554.5313,132.9844 555.6875,132.6875 556.4375,132.1406 C557.0156,131.7344 557.3438,131.2813 557.3438,130.8906 C557.3438,130.4375 556.9531,130.0469 556.4844,130.0469 C556.2656,130.0469 556.0625,130.125 555.875,130.3125 C555.4219,130.7969 555.4219,130.7969 555.2344,130.8906 C554.8125,131.1563 554.125,131.2813 553.3594,131.2813 C551.3125,131.2813 550.0156,130.1875 550.0156,128.4844 L550.0156,127.3906 C550.0156,125.6094 551.2656,124.2969 553,124.2969 C553.5781,124.2969 554.1875,124.4531 554.6563,124.7031 C555.1406,124.9844 555.3125,125.2031 555.4063,125.6094 C555.4688,126.0156 555.5,126.1406 555.6406,126.2656 C555.7813,126.4063 556.0156,126.5156 556.2344,126.5156 C556.5,126.5156 556.7656,126.375 556.9375,126.1563 C557.0469,126 557.0781,125.8125 557.0781,125.3906 L557.0781,123.9688 C557.0781,123.5313 557.0625,123.4063 556.9688,123.25 C556.8125,122.9844 556.5313,122.8438 556.2344,122.8438 C555.9375,122.8438 555.7344,122.9375 555.5156,123.25 L555.3438,123.1719 Z "/><text fill="#000000" font-family="sans-serif" font-size="12" lengthAdjust="spacingAndGlyphs" textLength="129" x="567" y="131.6543">ProcessoAdjudicacao</text><line style="stroke: #A80036; stroke-width: 1.5;" x1="539" x2="698" y1="143.5" y2="143.5"/><!--MD5=[956ecced288de5de0c5f024757c210bf]
link Plataforma to TipoRegimento--><path d="M122.3,140.907 C158.634,124.651 207.295,104.543 252,91.5 C546.229,5.657 635.25,-9.434 939,31.5 C948.736,32.812 958.858,34.799 968.779,37.12 " fill="none" id="Plataforma-TipoRegimento" style="stroke: #A80036; stroke-width: 1.0;"/><text fill="#000000" font-family="sans-serif" font-size="13" lengthAdjust="spacingAndGlyphs" textLength="49" x="442" y="21.5669">suporta</text><polygon fill="#000000" points="494,15.5664,500,18.5664,494,21.5664,494,15.5664" style="stroke: #000000; stroke-width: 1.0;"/><text fill="#000000" font-family="sans-serif" font-size="13" lengthAdjust="spacingAndGlyphs" textLength="8" x="126.6256" y="130.1278">1</text><text fill="#000000" font-family="sans-serif" font-size="13" lengthAdjust="spacingAndGlyphs" textLength="7" x="953.8671" y="47.6794">*</text><!--MD5=[3d9e8e0d764359bffb897b36dc4b633a]
link Plataforma to Anuncio--><path d="M124.042,167.5 C161.557,167.5 210.817,167.5 251.641,167.5 " fill="none" id="Plataforma-Anuncio" style="stroke: #A80036; stroke-width: 1.0;"/><text fill="#000000" font-family="sans-serif" font-size="13" lengthAdjust="spacingAndGlyphs" textLength="53" x="155" y="163.5669">publicita</text><polygon fill="#000000" points="211,157.5664,217,160.5664,211,163.5664,211,157.5664" style="stroke: #000000; stroke-width: 1.0;"/><text fill="#000000" font-family="sans-serif" font-size="13" lengthAdjust="spacingAndGlyphs" textLength="8" x="132.1193" y="180.5489">1</text><text fill="#000000" font-family="sans-serif" font-size="13" lengthAdjust="spacingAndGlyphs" textLength="7" x="237.0946" y="180.2723">*</text><!--MD5=[39c0de7668d8063a4eb96c23050b3de2]
link Plataforma to Freelancer--><path d="M81.9838,194.223 C118.204,251 212.509,378.5 329,378.5 C329,378.5 329,378.5 1338,378.5 C1419.84,378.5 1513.72,361.7823 1569.87,349.9624 " fill="none" id="Plataforma-Freelancer" style="stroke: #A80036; stroke-width: 1.0;"/><text fill="#000000" font-family="sans-serif" font-size="13" lengthAdjust="spacingAndGlyphs" textLength="53" x="801" y="374.5669">tem/usa</text><polygon fill="#000000" points="857,368.5664,863,371.5664,857,374.5664,857,368.5664" style="stroke: #000000; stroke-width: 1.0;"/><text fill="#000000" font-family="sans-serif" font-size="13" lengthAdjust="spacingAndGlyphs" textLength="8" x="76.824" y="213.8121">1</text><text fill="#000000" font-family="sans-serif" font-size="13" lengthAdjust="spacingAndGlyphs" textLength="7" x="1554.8462" y="364.8081">*</text><!--MD5=[3fb03004f687adcfc695220fdd65ad26]
link Anuncio to TipoRegimento--><path d="M408.147,131.881 C418.097,127.8 428.225,123.893 438,120.5 C481.383,105.44 493.113,104.195 538,94.5 C622.205,76.312 643.192,69.135 729,61.5 C811.011,54.203 905.626,54.866 968.966,56.609 " fill="none" id="Anuncio-TipoRegimento" style="stroke: #A80036; stroke-width: 1.0;"/><text fill="#000000" font-family="sans-serif" font-size="13" lengthAdjust="spacingAndGlyphs" textLength="74" x="575" y="60.5669">rege-se por</text><polygon fill="#000000" points="652,54.5664,658,57.5664,652,60.5664,652,54.5664" style="stroke: #000000; stroke-width: 1.0;"/><text fill="#000000" font-family="sans-serif" font-size="13" lengthAdjust="spacingAndGlyphs" textLength="7" x="415.929" y="141.2823">*</text><text fill="#000000" font-family="sans-serif" font-size="13" lengthAdjust="spacingAndGlyphs" textLength="8" x="953.0219" y="69.1782">1</text><!--MD5=[27b52c98fcb5387c047ce09b42fcb62d]
link Anuncio to Candidatura--><path d="M408.321,214.6 C446.084,235.318 492.996,257.791 538,270.5 C795.489,343.2176 1118.63,307.927 1261.83,286.2054 " fill="none" id="Anuncio-Candidatura" style="stroke: #A80036; stroke-width: 1.0;"/><text fill="#000000" font-family="sans-serif" font-size="13" lengthAdjust="spacingAndGlyphs" textLength="44" x="805.5" y="301.5669">recebe</text><polygon fill="#000000" points="852.5,295.5664,858.5,298.5664,852.5,301.5664,852.5,295.5664" style="stroke: #000000; stroke-width: 1.0;"/><text fill="#000000" font-family="sans-serif" font-size="13" lengthAdjust="spacingAndGlyphs" textLength="8" x="415.91" y="231.7144">1</text><text fill="#000000" font-family="sans-serif" font-size="13" lengthAdjust="spacingAndGlyphs" textLength="7" x="1247.0859" y="300.2666">*</text><!--MD5=[02d330b3691aaed85c2b7230cc23c1df]
link Anuncio to ProcessoSeriacao--><path d="M408.154,181.503 C451.577,189.385 505.377,199.15 547.565,206.807 " fill="none" id="Anuncio-ProcessoSeriacao" style="stroke: #A80036; stroke-width: 1.0;"/><text fill="#000000" font-family="sans-serif" font-size="13" lengthAdjust="spacingAndGlyphs" textLength="55" x="439" y="182.5669">espoleta</text><polygon fill="#000000" points="497,176.5664,503,179.5664,497,182.5664,497,176.5664" style="stroke: #000000; stroke-width: 1.0;"/><text fill="#000000" font-family="sans-serif" font-size="13" lengthAdjust="spacingAndGlyphs" textLength="8" x="415.9843" y="195.6339">1</text><text fill="#000000" font-family="sans-serif" font-size="13" lengthAdjust="spacingAndGlyphs" textLength="24" x="515.9194" y="218.4193">0..1</text><!--MD5=[829f38e8f34fbafe07b9d0d067b545e6]
link Anuncio to ProcessoAdjudicacao--><path d="M408.154,157.805 C448.345,152.755 497.426,146.588 537.961,141.494 " fill="none" id="Anuncio-ProcessoAdjudicacao" style="stroke: #A80036; stroke-width: 1.0;"/><text fill="#000000" font-family="sans-serif" font-size="13" lengthAdjust="spacingAndGlyphs" textLength="55" x="439" y="141.5669">espoleta</text><polygon fill="#000000" points="497,135.5664,503,138.5664,497,141.5664,497,135.5664" style="stroke: #000000; stroke-width: 1.0;"/><text fill="#000000" font-family="sans-serif" font-size="13" lengthAdjust="spacingAndGlyphs" textLength="8" x="415.9843" y="169.6772">1</text><text fill="#000000" font-family="sans-serif" font-size="13" lengthAdjust="spacingAndGlyphs" textLength="24" x="506.0084" y="155.07">0..1</text><!--MD5=[a66e767a4304f5fa76db98d7839a7a61]
link Candidatura to Freelancer--><path d="M1412.09,290.578 C1461.86,302.0503 1526.12,316.8601 1569.93,326.96 " fill="none" id="Candidatura-Freelancer" style="stroke: #A80036; stroke-width: 1.0;"/><text fill="#000000" font-family="sans-serif" font-size="13" lengthAdjust="spacingAndGlyphs" textLength="83" x="1443" y="293.5669">realizada por</text><polygon fill="#000000" points="1529,287.5664,1535,290.5664,1529,293.5664,1529,287.5664" style="stroke: #000000; stroke-width: 1.0;"/><text fill="#000000" font-family="sans-serif" font-size="13" lengthAdjust="spacingAndGlyphs" textLength="7" x="1420.1946" y="305.1851">*</text><text fill="#000000" font-family="sans-serif" font-size="13" lengthAdjust="spacingAndGlyphs" textLength="8" x="1553.8416" y="338.4272">1</text><!--MD5=[577fefe1351fe0f89ea5388d9641a019]
link ProcessoSeriacao to TipoRegimento--><path d="M689.07,222.193 C769.914,224.15 897.534,223.259 939,200.5 C982.039,176.878 1011.54,126.432 1027.34,92.734 " fill="none" id="ProcessoSeriacao-TipoRegimento" style="stroke: #A80036; stroke-width: 1.0;"/><text fill="#000000" font-family="sans-serif" font-size="13" lengthAdjust="spacingAndGlyphs" textLength="195" x="730" y="196.5669">decorre em concord창ncia com</text><polygon fill="#000000" points="928,190.5664,934,193.5664,928,196.5664,928,190.5664" style="stroke: #000000; stroke-width: 1.0;"/><text fill="#000000" font-family="sans-serif" font-size="13" lengthAdjust="spacingAndGlyphs" textLength="7" x="697.1714" y="235.4034">*</text><text fill="#000000" font-family="sans-serif" font-size="13" lengthAdjust="spacingAndGlyphs" textLength="8" x="1016.0162" y="112.1033">1</text><!--MD5=[52bd50d7906bad09d4dfcc260d1229dc]
link ProcessoSeriacao to Classificacao--><path d="M689.158,244.546 C702.235,248.267 715.912,251.515 729,253.5 C821.278,267.497 846.392,265.117 939,253.5 C954.775,251.521 971.609,247.884 986.959,243.945 " fill="none" id="ProcessoSeriacao-Classificacao" style="stroke: #A80036; stroke-width: 1.0;"/><text fill="#000000" font-family="sans-serif" font-size="13" lengthAdjust="spacingAndGlyphs" textLength="44" x="805.5" y="249.5669">resulta</text><polygon fill="#000000" points="852.5,243.5664,858.5,246.5664,852.5,249.5664,852.5,243.5664" style="stroke: #000000; stroke-width: 1.0;"/><text fill="#000000" font-family="sans-serif" font-size="13" lengthAdjust="spacingAndGlyphs" textLength="8" x="696.8571" y="259.9962">1</text><text fill="#000000" font-family="sans-serif" font-size="13" lengthAdjust="spacingAndGlyphs" textLength="7" x="972.0926" y="259.2515">*</text><!--MD5=[d828ccaccbc00bd20f34a1cd93f6d886]
link ProcessoAdjudicacao to Classificacao--><path d="M699.225,139.407 C778.918,147.862 895.661,161.896 939,175.5 C958.818,181.721 979.452,191.528 996.935,200.956 " fill="none" id="ProcessoAdjudicacao-Classificacao" style="stroke: #A80036; stroke-width: 1.0;"/><text fill="#000000" font-family="sans-serif" font-size="13" lengthAdjust="spacingAndGlyphs" textLength="44" x="805.5" y="139.5669">resulta</text><polygon fill="#000000" points="852.5,133.5664,858.5,136.5664,852.5,139.5664,852.5,133.5664" style="stroke: #000000; stroke-width: 1.0;"/><text fill="#000000" font-family="sans-serif" font-size="13" lengthAdjust="spacingAndGlyphs" textLength="8" x="707.0356" y="152.9003">1</text><text fill="#000000" font-family="sans-serif" font-size="13" lengthAdjust="spacingAndGlyphs" textLength="7" x="978.0973" y="189.7647">*</text><!--MD5=[e556371285cc07107374df985ff74caf]
link ProcessoAdjudicacao to TipoRegimento--><path d="M699.199,120.847 C763.994,111.81 857.67,97.887 939,82.5 C948.721,80.661 958.926,78.562 968.968,76.398 " fill="none" id="ProcessoAdjudicacao-TipoRegimento" style="stroke: #A80036; stroke-width: 1.0;"/><text fill="#000000" font-family="sans-serif" font-size="13" lengthAdjust="spacingAndGlyphs" textLength="195" x="730" y="78.5669">decorre em concord창ncia com</text><polygon fill="#000000" points="928,72.5664,934,75.5664,928,78.5664,928,72.5664" style="stroke: #000000; stroke-width: 1.0;"/><text fill="#000000" font-family="sans-serif" font-size="13" lengthAdjust="spacingAndGlyphs" textLength="7" x="706.9611" y="132.6293">*</text><text fill="#000000" font-family="sans-serif" font-size="13" lengthAdjust="spacingAndGlyphs" textLength="8" x="953.0241" y="91.0079">1</text><!--MD5=[471b8c6ff5fcf31b4b6fb9b4f947344d]
link Classificacao to Candidatura--><path d="M1097.08,235.991 C1143.38,243.259 1210.49,253.796 1261.81,261.852 " fill="none" id="Classificacao-Candidatura" style="stroke: #A80036; stroke-width: 1.0;"/><text fill="#000000" font-family="sans-serif" font-size="13" lengthAdjust="spacingAndGlyphs" textLength="72" x="1146" y="239.5669">referente a</text><polygon fill="#000000" points="1221,233.5664,1227,236.5664,1221,239.5664,1221,233.5664" style="stroke: #000000; stroke-width: 1.0;"/><text fill="#000000" font-family="sans-serif" font-size="13" lengthAdjust="spacingAndGlyphs" textLength="24" x="1104.8361" y="249.9258">0..1</text><text fill="#000000" font-family="sans-serif" font-size="13" lengthAdjust="spacingAndGlyphs" textLength="8" x="1246.0147" y="273.516">1</text><!--MD5=[ee5ffee1c3ec17c0736088781b37d74f]
@startuml
skinparam classAttributeIconSize 0
hide methods
left to right direction

class Plataforma {
  -String designacao
}

class TipoRegimento
{
    -String designacao
    -String descricaoRegras
}


class Freelancer {
    -String nome
    -String NIF
    -String telefone
    -String email
}

class Anuncio
{
    -Date dtInicioPublicitacao
    -Date dtFimPublicitacao
    -Date dtInicioCandidatura
    -Date dtFimCandidatura
    -Date dtInicioSeriacao
    -Date dtFimSeriacao
}

class Candidatura
{
    -Date dataCandidatura
    -Double valorPretendido
    -Integer nrDias
    -String txtApresentacao
    -String txtMotivacao
}

class Classificacao
{
    -Integer lugar
}

class ProcessoSeriacao
{
    -Date dataRealizacao
    -String conclusao
}

class ProcessoAdjudicacao
{
    
}



Plataforma "1" - - "*" TipoRegimento : suporta >
Plataforma "1" - - "*" Anuncio : publicita >
Plataforma "1" - - "*" Freelancer : tem/usa  >



Anuncio "*" - - "1" TipoRegimento: rege-se por >
Anuncio "1" - - "*" Candidatura: recebe >
Anuncio "1" - - "0..1" ProcessoSeriacao: espoleta >
Anuncio "1" - - "0..1" ProcessoAdjudicacao: espoleta >

Candidatura "*" - - "1"  Freelancer: realizada por >

ProcessoSeriacao "*" - - "1" TipoRegimento: decorre em concord창ncia com >
ProcessoSeriacao "1" - - "*" Classificacao: resulta >

ProcessoAdjudicacao "1" - - "*" Classificacao: resulta >
ProcessoAdjudicacao "*" - - "1" TipoRegimento: decorre em concord창ncia com >

Classificacao "0..1" - - "1" Candidatura: referente a >
@enduml

PlantUML version 1.2020.10(Sun May 17 09:48:49 UTC 2020)
(GPL source distribution)
Java Runtime: Java(TM) SE Runtime Environment
JVM: Java HotSpot(TM) 64-Bit Server VM
Operating System: Linux
Default Encoding: UTF-8
Language: en
Country: US
--></g></svg>