<?xml version="1.0" encoding="UTF-8" standalone="no"?><svg xmlns="http://www.w3.org/2000/svg" xmlns:xlink="http://www.w3.org/1999/xlink" contentScriptType="application/ecmascript" contentStyleType="text/css" height="371px" preserveAspectRatio="none" style="width:1190px;height:371px;" version="1.1" viewBox="0 0 1190 371" width="1190px" zoomAndPan="magnify"><defs><filter height="300%" id="f14mrxkx7tcfti" width="300%" x="-1" y="-1"><feGaussianBlur result="blurOut" stdDeviation="2.0"/><feColorMatrix in="blurOut" result="blurOut2" type="matrix" values="0 0 0 0 0 0 0 0 0 0 0 0 0 0 0 0 0 0 .4 0"/><feOffset dx="4.0" dy="4.0" in="blurOut2" result="blurOut3"/><feBlend in="SourceGraphic" in2="blurOut3" mode="normal"/></filter></defs><g><!--MD5=[99b8db98afdc2c8404e39242ef4c1e65]
class Platform--><rect fill="#FEFECE" filter="url(#f14mrxkx7tcfti)" height="40" id="Platform" style="stroke: #A80036; stroke-width: 1.5;" width="84" x="6" y="177"/><ellipse cx="21" cy="193" fill="#ADD1B2" rx="11" ry="11" style="stroke: #A80036; stroke-width: 1.0;"/><path d="M23.9688,198.6406 Q23.3906,198.9375 22.75,199.0859 Q22.1094,199.2344 21.4063,199.2344 Q18.9063,199.2344 17.5859,197.5859 Q16.2656,195.9375 16.2656,192.8125 Q16.2656,189.6875 17.5859,188.0313 Q18.9063,186.375 21.4063,186.375 Q22.1094,186.375 22.7578,186.5313 Q23.4063,186.6875 23.9688,186.9844 L23.9688,189.7031 Q23.3438,189.125 22.75,188.8516 Q22.1563,188.5781 21.5313,188.5781 Q20.1875,188.5781 19.5,189.6484 Q18.8125,190.7188 18.8125,192.8125 Q18.8125,194.9063 19.5,195.9766 Q20.1875,197.0469 21.5313,197.0469 Q22.1563,197.0469 22.75,196.7734 Q23.3438,196.5 23.9688,195.9219 L23.9688,198.6406 Z "/><text fill="#000000" font-family="sans-serif" font-size="12" lengthAdjust="spacingAndGlyphs" textLength="52" x="35" y="197.1543">Platform</text><line style="stroke: #A80036; stroke-width: 1.5;" x1="7" x2="89" y1="209" y2="209"/><!--MD5=[1f687b5315377fe49fca59b457947463]
class Freelancer--><rect fill="#FEFECE" filter="url(#f14mrxkx7tcfti)" height="129.6328" id="Freelancer" style="stroke: #A80036; stroke-width: 1.5;" width="100" x="196" y="87"/><ellipse cx="211.45" cy="103" fill="#ADD1B2" rx="11" ry="11" style="stroke: #A80036; stroke-width: 1.0;"/><path d="M214.4188,108.6406 Q213.8406,108.9375 213.2,109.0859 Q212.5594,109.2344 211.8563,109.2344 Q209.3563,109.2344 208.0359,107.5859 Q206.7156,105.9375 206.7156,102.8125 Q206.7156,99.6875 208.0359,98.0313 Q209.3563,96.375 211.8563,96.375 Q212.5594,96.375 213.2078,96.5313 Q213.8563,96.6875 214.4188,96.9844 L214.4188,99.7031 Q213.7938,99.125 213.2,98.8516 Q212.6063,98.5781 211.9813,98.5781 Q210.6375,98.5781 209.95,99.6484 Q209.2625,100.7188 209.2625,102.8125 Q209.2625,104.9063 209.95,105.9766 Q210.6375,107.0469 211.9813,107.0469 Q212.6063,107.0469 213.2,106.7734 Q213.7938,106.5 214.4188,105.9219 L214.4188,108.6406 Z "/><text fill="#000000" font-family="sans-serif" font-size="12" lengthAdjust="spacingAndGlyphs" textLength="67" x="225.55" y="107.1543">Freelancer</text><line style="stroke: #A80036; stroke-width: 1.5;" x1="197" x2="295" y1="119" y2="119"/><text fill="#000000" font-family="sans-serif" font-size="11" lengthAdjust="spacingAndGlyphs" textLength="76" x="202" y="133.2104">-String freeID</text><text fill="#000000" font-family="sans-serif" font-size="11" lengthAdjust="spacingAndGlyphs" textLength="74" x="202" y="146.0151">-String name</text><text fill="#000000" font-family="sans-serif" font-size="11" lengthAdjust="spacingAndGlyphs" textLength="88" x="202" y="158.8198">-String levelExp</text><text fill="#000000" font-family="sans-serif" font-size="11" lengthAdjust="spacingAndGlyphs" textLength="73" x="202" y="171.6245">-String email</text><text fill="#000000" font-family="sans-serif" font-size="11" lengthAdjust="spacingAndGlyphs" textLength="56" x="202" y="184.4292">-String nif</text><text fill="#000000" font-family="sans-serif" font-size="11" lengthAdjust="spacingAndGlyphs" textLength="66" x="202" y="197.2339">-String iban</text><text fill="#000000" font-family="sans-serif" font-size="11" lengthAdjust="spacingAndGlyphs" textLength="84" x="202" y="210.0386">-String country</text><!--MD5=[86c7c362de55a38b660185a1328fe18d]
class Organization--><rect fill="#FEFECE" filter="url(#f14mrxkx7tcfti)" height="78.4141" id="Organization" style="stroke: #A80036; stroke-width: 1.5;" width="110" x="435" y="282"/><ellipse cx="450" cy="298" fill="#ADD1B2" rx="11" ry="11" style="stroke: #A80036; stroke-width: 1.0;"/><path d="M452.9688,303.6406 Q452.3906,303.9375 451.75,304.0859 Q451.1094,304.2344 450.4063,304.2344 Q447.9063,304.2344 446.5859,302.5859 Q445.2656,300.9375 445.2656,297.8125 Q445.2656,294.6875 446.5859,293.0313 Q447.9063,291.375 450.4063,291.375 Q451.1094,291.375 451.7578,291.5313 Q452.4063,291.6875 452.9688,291.9844 L452.9688,294.7031 Q452.3438,294.125 451.75,293.8516 Q451.1563,293.5781 450.5313,293.5781 Q449.1875,293.5781 448.5,294.6484 Q447.8125,295.7188 447.8125,297.8125 Q447.8125,299.9063 448.5,300.9766 Q449.1875,302.0469 450.5313,302.0469 Q451.1563,302.0469 451.75,301.7734 Q452.3438,301.5 452.9688,300.9219 L452.9688,303.6406 Z "/><text fill="#000000" font-family="sans-serif" font-size="12" lengthAdjust="spacingAndGlyphs" textLength="78" x="464" y="302.1543">Organization</text><line style="stroke: #A80036; stroke-width: 1.5;" x1="436" x2="544" y1="314" y2="314"/><text fill="#000000" font-family="sans-serif" font-size="11" lengthAdjust="spacingAndGlyphs" textLength="74" x="441" y="328.2104">-String nome</text><text fill="#000000" font-family="sans-serif" font-size="11" lengthAdjust="spacingAndGlyphs" textLength="73" x="441" y="341.0151">-String email</text><text fill="#000000" font-family="sans-serif" font-size="11" lengthAdjust="spacingAndGlyphs" textLength="56" x="441" y="353.8198">-String nif</text><!--MD5=[b34797a66dc35cbf1d65f7e3ca75530e]
class Task--><rect fill="#FEFECE" filter="url(#f14mrxkx7tcfti)" height="116.8281" id="Task" style="stroke: #A80036; stroke-width: 1.5;" width="129" x="743" y="58.5"/><ellipse cx="788.75" cy="74.5" fill="#ADD1B2" rx="11" ry="11" style="stroke: #A80036; stroke-width: 1.0;"/><path d="M791.7188,80.1406 Q791.1406,80.4375 790.5,80.5859 Q789.8594,80.7344 789.1563,80.7344 Q786.6563,80.7344 785.3359,79.0859 Q784.0156,77.4375 784.0156,74.3125 Q784.0156,71.1875 785.3359,69.5313 Q786.6563,67.875 789.1563,67.875 Q789.8594,67.875 790.5078,68.0313 Q791.1563,68.1875 791.7188,68.4844 L791.7188,71.2031 Q791.0938,70.625 790.5,70.3516 Q789.9063,70.0781 789.2813,70.0781 Q787.9375,70.0781 787.25,71.1484 Q786.5625,72.2188 786.5625,74.3125 Q786.5625,76.4063 787.25,77.4766 Q787.9375,78.5469 789.2813,78.5469 Q789.9063,78.5469 790.5,78.2734 Q791.0938,78 791.7188,77.4219 L791.7188,80.1406 Z "/><text fill="#000000" font-family="sans-serif" font-size="12" lengthAdjust="spacingAndGlyphs" textLength="29" x="809.25" y="78.6543">Task</text><line style="stroke: #A80036; stroke-width: 1.5;" x1="744" x2="871" y1="90.5" y2="90.5"/><text fill="#000000" font-family="sans-serif" font-size="11" lengthAdjust="spacingAndGlyphs" textLength="59" x="749" y="104.7104">-String idT</text><text fill="#000000" font-family="sans-serif" font-size="11" lengthAdjust="spacingAndGlyphs" textLength="105" x="749" y="117.5151">-String description</text><text fill="#000000" font-family="sans-serif" font-size="11" lengthAdjust="spacingAndGlyphs" textLength="109" x="749" y="130.3198">-Time timeDuration</text><text fill="#000000" font-family="sans-serif" font-size="11" lengthAdjust="spacingAndGlyphs" textLength="97" x="749" y="143.1245">-double costHour</text><text fill="#000000" font-family="sans-serif" font-size="11" lengthAdjust="spacingAndGlyphs" textLength="117" x="749" y="155.9292">-String taskCategory</text><text fill="#000000" font-family="sans-serif" font-size="11" lengthAdjust="spacingAndGlyphs" textLength="98" x="749" y="168.7339">-Boolean isPayed</text><!--MD5=[4555bb1b0911a5adf28ce6dbe60fed2e]
class Transaction--><rect fill="#FEFECE" filter="url(#f14mrxkx7tcfti)" height="40" id="Transaction" style="stroke: #A80036; stroke-width: 1.5;" width="106" x="437" y="12"/><ellipse cx="452" cy="28" fill="#ADD1B2" rx="11" ry="11" style="stroke: #A80036; stroke-width: 1.0;"/><path d="M454.9688,33.6406 Q454.3906,33.9375 453.75,34.0859 Q453.1094,34.2344 452.4063,34.2344 Q449.9063,34.2344 448.5859,32.5859 Q447.2656,30.9375 447.2656,27.8125 Q447.2656,24.6875 448.5859,23.0313 Q449.9063,21.375 452.4063,21.375 Q453.1094,21.375 453.7578,21.5313 Q454.4063,21.6875 454.9688,21.9844 L454.9688,24.7031 Q454.3438,24.125 453.75,23.8516 Q453.1563,23.5781 452.5313,23.5781 Q451.1875,23.5781 450.5,24.6484 Q449.8125,25.7188 449.8125,27.8125 Q449.8125,29.9063 450.5,30.9766 Q451.1875,32.0469 452.5313,32.0469 Q453.1563,32.0469 453.75,31.7734 Q454.3438,31.5 454.9688,30.9219 L454.9688,33.6406 Z "/><text fill="#000000" font-family="sans-serif" font-size="12" lengthAdjust="spacingAndGlyphs" textLength="74" x="466" y="32.1543">Transaction</text><line style="stroke: #A80036; stroke-width: 1.5;" x1="438" x2="542" y1="44" y2="44"/><!--MD5=[da547346deef918ea16944ba046651ef]
class Administrator--><rect fill="#FEFECE" filter="url(#f14mrxkx7tcfti)" height="40" id="Administrator" style="stroke: #A80036; stroke-width: 1.5;" width="116" x="188" y="252"/><ellipse cx="203" cy="268" fill="#ADD1B2" rx="11" ry="11" style="stroke: #A80036; stroke-width: 1.0;"/><path d="M205.9688,273.6406 Q205.3906,273.9375 204.75,274.0859 Q204.1094,274.2344 203.4063,274.2344 Q200.9063,274.2344 199.5859,272.5859 Q198.2656,270.9375 198.2656,267.8125 Q198.2656,264.6875 199.5859,263.0313 Q200.9063,261.375 203.4063,261.375 Q204.1094,261.375 204.7578,261.5313 Q205.4063,261.6875 205.9688,261.9844 L205.9688,264.7031 Q205.3438,264.125 204.75,263.8516 Q204.1563,263.5781 203.5313,263.5781 Q202.1875,263.5781 201.5,264.6484 Q200.8125,265.7188 200.8125,267.8125 Q200.8125,269.9063 201.5,270.9766 Q202.1875,272.0469 203.5313,272.0469 Q204.1563,272.0469 204.75,271.7734 Q205.3438,271.5 205.9688,270.9219 L205.9688,273.6406 Z "/><text fill="#000000" font-family="sans-serif" font-size="12" lengthAdjust="spacingAndGlyphs" textLength="84" x="217" y="272.1543">Administrator</text><line style="stroke: #A80036; stroke-width: 1.5;" x1="189" x2="303" y1="284" y2="284"/><!--MD5=[5ce80547de3caced9d0089e35ded5090]
class TaskExecution--><rect fill="#FEFECE" filter="url(#f14mrxkx7tcfti)" height="78.4141" id="TaskExecution" style="stroke: #A80036; stroke-width: 1.5;" width="169" x="1010" y="78"/><ellipse cx="1046.15" cy="94" fill="#ADD1B2" rx="11" ry="11" style="stroke: #A80036; stroke-width: 1.0;"/><path d="M1049.1188,99.6406 Q1048.5406,99.9375 1047.9,100.0859 Q1047.2594,100.2344 1046.5563,100.2344 Q1044.0563,100.2344 1042.7359,98.5859 Q1041.4156,96.9375 1041.4156,93.8125 Q1041.4156,90.6875 1042.7359,89.0313 Q1044.0563,87.375 1046.5563,87.375 Q1047.2594,87.375 1047.9078,87.5313 Q1048.5563,87.6875 1049.1188,87.9844 L1049.1188,90.7031 Q1048.4938,90.125 1047.9,89.8516 Q1047.3063,89.5781 1046.6813,89.5781 Q1045.3375,89.5781 1044.65,90.6484 Q1043.9625,91.7188 1043.9625,93.8125 Q1043.9625,95.9063 1044.65,96.9766 Q1045.3375,98.0469 1046.6813,98.0469 Q1047.3063,98.0469 1047.9,97.7734 Q1048.4938,97.5 1049.1188,96.9219 L1049.1188,99.6406 Z "/><text fill="#000000" font-family="sans-serif" font-size="12" lengthAdjust="spacingAndGlyphs" textLength="90" x="1064.85" y="98.1543">TaskExecution</text><line style="stroke: #A80036; stroke-width: 1.5;" x1="1011" x2="1178" y1="110" y2="110"/><text fill="#000000" font-family="sans-serif" font-size="11" lengthAdjust="spacingAndGlyphs" textLength="81" x="1016" y="124.2104">-Data endDate</text><text fill="#000000" font-family="sans-serif" font-size="11" lengthAdjust="spacingAndGlyphs" textLength="76" x="1016" y="137.0151">-double delay</text><text fill="#000000" font-family="sans-serif" font-size="11" lengthAdjust="spacingAndGlyphs" textLength="157" x="1016" y="149.8198">-String descriptionOfQuality</text><!--MD5=[83bb469d45366b675450ee1d8d93a557]
link Freelancer to Transaction--><path d="M296.4161,123.7488 C308.6347,117.111 321.717,110.1758 334,104 C370.7768,85.509 413.2354,66.0312 444.5632,52.0038 " fill="none" id="Freelancer-Transaction" style="stroke: #A80036; stroke-width: 1.0;"/><text fill="#000000" font-family="sans-serif" font-size="13" lengthAdjust="spacingAndGlyphs" textLength="46" x="340" y="67.0669">receive</text><polygon fill="#000000" points="389,61.0664,395,64.0664,389,67.0664,389,61.0664" style="stroke: #000000; stroke-width: 1.0;"/><text fill="#000000" font-family="sans-serif" font-size="13" lengthAdjust="spacingAndGlyphs" textLength="8" x="304.0684" y="132.9327">1</text><text fill="#000000" font-family="sans-serif" font-size="13" lengthAdjust="spacingAndGlyphs" textLength="8" x="422.0411" y="72.1694">1</text><!--MD5=[8853e9d83a8841c20c4ef075af762602]
link Task to Freelancer--><path d="M742.5929,121.0459 C629.4235,128.1 398.3432,142.504 296.3235,148.8632 " fill="none" id="Task-Freelancer" style="stroke: #A80036; stroke-width: 1.0;"/><polygon fill="#000000" points="462.5,123.0664,456.5,126.0664,462.5,129.0664,462.5,123.0664" style="stroke: #000000; stroke-width: 1.0;"/><text fill="#000000" font-family="sans-serif" font-size="13" lengthAdjust="spacingAndGlyphs" textLength="56" x="468.5" y="129.0669">made by</text><text fill="#000000" font-family="sans-serif" font-size="13" lengthAdjust="spacingAndGlyphs" textLength="23" x="712.0716" y="134.2643">1..*</text><text fill="#000000" font-family="sans-serif" font-size="13" lengthAdjust="spacingAndGlyphs" textLength="8" x="303.9627" y="161.5788">1</text><!--MD5=[3781be57b219e856d6dd67e0b949b069]
link Platform to Transaction--><path d="M63.626,176.8576 C87.2029,148.037 134.8072,95.6844 188,70 C268.422,31.1679 374.2753,27.0457 436.9342,28.7287 " fill="none" id="Platform-Transaction" style="stroke: #A80036; stroke-width: 1.0;"/><text fill="#000000" font-family="sans-serif" font-size="13" lengthAdjust="spacingAndGlyphs" textLength="23" x="228" y="32.0669">has</text><polygon fill="#000000" points="254,26.0664,260,29.0664,254,32.0664,254,26.0664" style="stroke: #000000; stroke-width: 1.0;"/><text fill="#000000" font-family="sans-serif" font-size="13" lengthAdjust="spacingAndGlyphs" textLength="8" x="59.0411" y="165.824">1</text><text fill="#000000" font-family="sans-serif" font-size="13" lengthAdjust="spacingAndGlyphs" textLength="23" x="406.0652" y="41.3191">1..*</text><!--MD5=[0f7004bed4496639b3a5258ab2ead378]
link Platform to Administrator--><path d="M90.476,213.0894 C120.4745,224.4525 160.8861,239.7599 192.9966,251.9229 " fill="none" id="Platform-Administrator" style="stroke: #A80036; stroke-width: 1.0;"/><text fill="#000000" font-family="sans-serif" font-size="13" lengthAdjust="spacingAndGlyphs" textLength="23" x="121" y="221.0669">has</text><polygon fill="#000000" points="147,215.0664,153,218.0664,147,221.0664,147,215.0664" style="stroke: #000000; stroke-width: 1.0;"/><text fill="#000000" font-family="sans-serif" font-size="13" lengthAdjust="spacingAndGlyphs" textLength="8" x="97.8831" y="228.9264">1</text><text fill="#000000" font-family="sans-serif" font-size="13" lengthAdjust="spacingAndGlyphs" textLength="8" x="171.8146" y="242.6279">1</text><!--MD5=[7640e466c042ba2d6f9c19c816f7f0fc]
link Platform to Organization--><path d="M61.6945,217.0211 C83.98,247.6055 131.3476,304.7531 188,327 C269.2723,358.9149 372.5756,346.7774 434.8734,334.3898 " fill="none" id="Platform-Organization" style="stroke: #A80036; stroke-width: 1.0;"/><text fill="#000000" font-family="sans-serif" font-size="13" lengthAdjust="spacingAndGlyphs" textLength="92" x="193.5" y="323.0669">has registered</text><polygon fill="#000000" points="288.5,317.0664,294.5,320.0664,288.5,323.0664,288.5,317.0664" style="stroke: #000000; stroke-width: 1.0;"/><text fill="#000000" font-family="sans-serif" font-size="13" lengthAdjust="spacingAndGlyphs" textLength="8" x="56.5423" y="237.1918">1</text><text fill="#000000" font-family="sans-serif" font-size="13" lengthAdjust="spacingAndGlyphs" textLength="23" x="404.1697" y="348.8558">1..*</text><!--MD5=[22697d4d863c2e08ab1d60ca0d61f844]
link Platform to Freelancer--><path d="M90.476,187.3464 C121.3835,180.3219 163.3448,170.7853 195.8923,163.3881 " fill="none" id="Platform-Freelancer" style="stroke: #A80036; stroke-width: 1.0;"/><text fill="#000000" font-family="sans-serif" font-size="13" lengthAdjust="spacingAndGlyphs" textLength="23" x="121" y="169.0669">has</text><polygon fill="#000000" points="147,163.0664,153,166.0664,147,169.0664,147,163.0664" style="stroke: #000000; stroke-width: 1.0;"/><text fill="#000000" font-family="sans-serif" font-size="13" lengthAdjust="spacingAndGlyphs" textLength="8" x="97.8831" y="199.0806">1</text><text fill="#000000" font-family="sans-serif" font-size="13" lengthAdjust="spacingAndGlyphs" textLength="23" x="164.9988" y="177.9071">1..*</text><!--MD5=[4078351e3988aa35b1504a42837f2ab1]
link Organization to Task--><path d="M510.247,281.8226 C525.0214,256.9315 547.278,225.9415 575,207 C627.526,171.1108 654.0616,192.9432 713,169 C722.889,164.9827 733.0592,160.1764 742.8952,155.1316 " fill="none" id="Organization-Task" style="stroke: #A80036; stroke-width: 1.0;"/><text fill="#000000" font-family="sans-serif" font-size="13" lengthAdjust="spacingAndGlyphs" textLength="23" x="626" y="165.0669">has</text><polygon fill="#000000" points="652,159.0664,658,162.0664,652,165.0664,652,159.0664" style="stroke: #000000; stroke-width: 1.0;"/><text fill="#000000" font-family="sans-serif" font-size="13" lengthAdjust="spacingAndGlyphs" textLength="8" x="505.0395" y="270.8426">1</text><text fill="#000000" font-family="sans-serif" font-size="13" lengthAdjust="spacingAndGlyphs" textLength="23" x="712.0469" y="171.92">1..*</text><!--MD5=[2a41c1af413c0662bf55a6b8913ea24f]
link Administrator to Organization--><path d="M304.1341,283.6745 C343.7431,291.6287 395.8601,302.0949 434.825,309.9198 " fill="none" id="Administrator-Organization" style="stroke: #A80036; stroke-width: 1.0;"/><text fill="#000000" font-family="sans-serif" font-size="13" lengthAdjust="spacingAndGlyphs" textLength="56" x="335" y="286.0669">registers</text><polygon fill="#000000" points="394,280.0664,400,283.0664,394,286.0664,394,280.0664" style="stroke: #000000; stroke-width: 1.0;"/><text fill="#000000" font-family="sans-serif" font-size="13" lengthAdjust="spacingAndGlyphs" textLength="8" x="312.095" y="298.2066">1</text><text fill="#000000" font-family="sans-serif" font-size="13" lengthAdjust="spacingAndGlyphs" textLength="8" x="418.8734" y="321.4867">1</text><!--MD5=[8e4873cec2cb3febaaa9495c716fc885]
link Transaction to Task--><path d="M543.1424,46.2271 C598.1321,60.9488 684.0622,83.9536 742.93,99.7136 " fill="none" id="Transaction-Task" style="stroke: #A80036; stroke-width: 1.0;"/><text fill="#000000" font-family="sans-serif" font-size="13" lengthAdjust="spacingAndGlyphs" textLength="23" x="626" y="50.0669">has</text><polygon fill="#000000" points="652,44.0664,658,47.0664,652,50.0664,652,44.0664" style="stroke: #000000; stroke-width: 1.0;"/><text fill="#000000" font-family="sans-serif" font-size="13" lengthAdjust="spacingAndGlyphs" textLength="8" x="551.1781" y="61.3587">1</text><text fill="#000000" font-family="sans-serif" font-size="13" lengthAdjust="spacingAndGlyphs" textLength="8" x="727.0016" y="110.6666">1</text><!--MD5=[590de1eb4160e0577c453d6e7f1b2aac]
link Transaction to TaskExecution--><path d="M543.1897,27.348 C617.6126,22.1682 756.6501,17.3485 872,41 C918.5858,50.552 968.8501,67.1495 1009.7972,82.4018 " fill="none" id="Transaction-TaskExecution" style="stroke: #A80036; stroke-width: 1.0;"/><text fill="#000000" font-family="sans-serif" font-size="13" lengthAdjust="spacingAndGlyphs" textLength="23" x="789.5" y="21.0669">has</text><polygon fill="#000000" points="815.5,15.0664,821.5,18.0664,815.5,21.0664,815.5,15.0664" style="stroke: #000000; stroke-width: 1.0;"/><text fill="#000000" font-family="sans-serif" font-size="13" lengthAdjust="spacingAndGlyphs" textLength="8" x="550.8746" y="39.8065">1</text><text fill="#000000" font-family="sans-serif" font-size="13" lengthAdjust="spacingAndGlyphs" textLength="8" x="993.8971" y="92.0427">1</text><!--MD5=[b5492b811c5199351212545c210346d5]
link TaskExecution to Freelancer--><path d="M1009.747,147.9235 C968.4644,162.4786 917.9327,179.5508 872,193 C744.2312,230.4111 707.1874,247.8406 575,232 C474.3206,219.9351 359.9419,187.806 296.0387,168.1303 " fill="none" id="TaskExecution-Freelancer" style="stroke: #A80036; stroke-width: 1.0;"/><text fill="#000000" font-family="sans-serif" font-size="13" lengthAdjust="spacingAndGlyphs" textLength="136" x="576" y="228.0669">related to the work of</text><text fill="#000000" font-family="sans-serif" font-size="13" lengthAdjust="spacingAndGlyphs" textLength="8" x="994.1198" y="163.2803">1</text><text fill="#000000" font-family="sans-serif" font-size="13" lengthAdjust="spacingAndGlyphs" textLength="8" x="303.9756" y="183.7046">1</text><!--MD5=[bdc7b78a1b1f03a53fec8289ba75cac4]
link Task to TaskExecution--><path d="M872.2663,117 C912.9368,117 965.8282,117 1009.8082,117 " fill="none" id="Task-TaskExecution" style="stroke: #A80036; stroke-width: 1.0;"/><text fill="#000000" font-family="sans-serif" font-size="13" lengthAdjust="spacingAndGlyphs" textLength="63" x="903" y="113.0669">originates</text><polygon fill="#000000" points="969,107.0664,975,110.0664,969,113.0664,969,107.0664" style="stroke: #000000; stroke-width: 1.0;"/><text fill="#000000" font-family="sans-serif" font-size="13" lengthAdjust="spacingAndGlyphs" textLength="8" x="879.7876" y="129.9039">1</text><text fill="#000000" font-family="sans-serif" font-size="13" lengthAdjust="spacingAndGlyphs" textLength="8" x="993.9091" y="129.7223">1</text><!--MD5=[f536a796de73925f6bd0c260bcaf3143]
@startuml
skinparam classAttributeIconSize 0
hide methods
left to right direction

class Platform{
}
class Freelancer {
  -String freeID
  -String name
  -String levelExp
  -String email
  -String nif
  -String iban
  -String country
}

class Organization {
  -String nome
  -String email
  -String nif
}


class Task {
  -String idT
  -String description
  -Time timeDuration
  -double costHour
  -String taskCategory
  -Boolean isPayed
}

class Transaction {

}


class Administrator {
}


class TaskExecution{
  -Data endDate
  -double delay
  -String descriptionOfQuality
  }

Freelancer "1" - - "1" Transaction: receive >


Task "1..*" - - "1" Freelancer: made by >


Platform "1" - - "1..*" Transaction: has >
Platform "1" - - "1" Administrator: has >
Platform "1" - - "1..*" Organization: has registered >
Platform "1" - - "1..*" Freelancer: has >


Organization "1" - - "1..*" Task: has >


Administrator "1" - - "1" Organization: registers >

Transaction "1" - - "1" Task: has >
Transaction "1" - - "1" TaskExecution: has >


TaskExecution "1" - - "1" Freelancer: related to the work of

Task "1" - - "1" TaskExecution : originates >
@enduml

PlantUML version 1.2019.12(Sun Nov 03 10:24:54 UTC 2019)
(GPL source distribution)
Java Runtime: OpenJDK Runtime Environment
JVM: OpenJDK 64-Bit Server VM
Java Version: 1.8.0_232-heroku-b09
Operating System: Linux
Default Encoding: UTF-8
Language: en
Country: US
--></g></svg>