<?xml version="1.0" encoding="UTF-8" standalone="no"?><svg xmlns="http://www.w3.org/2000/svg" xmlns:xlink="http://www.w3.org/1999/xlink" contentScriptType="application/ecmascript" contentStyleType="text/css" height="929px" preserveAspectRatio="none" style="width:733px;height:929px;" version="1.1" viewBox="0 0 733 929" width="733px" zoomAndPan="magnify"><defs><filter height="300%" id="fhazi35cnvk7c" width="300%" x="-1" y="-1"><feGaussianBlur result="blurOut" stdDeviation="2.0"/><feColorMatrix in="blurOut" result="blurOut2" type="matrix" values="0 0 0 0 0 0 0 0 0 0 0 0 0 0 0 0 0 0 .4 0"/><feOffset dx="4.0" dy="4.0" in="blurOut2" result="blurOut3"/><feBlend in="SourceGraphic" in2="blurOut3" mode="normal"/></filter></defs><g><!--MD5=[18bacfdd868ad0298cc929aa4e4727ba]
class CheckPerformanceUI--><rect fill="#FEFECE" filter="url(#fhazi35cnvk7c)" height="48" id="CheckPerformanceUI" style="stroke: #A80036; stroke-width: 1.5;" width="162" x="269.1187" y="8"/><ellipse cx="284.1187" cy="24" fill="#ADD1B2" rx="11" ry="11" style="stroke: #A80036; stroke-width: 1.0;"/><path d="M287.0875,29.6406 Q286.5093,29.9375 285.8687,30.0859 Q285.2281,30.2344 284.525,30.2344 Q282.025,30.2344 280.7046,28.5859 Q279.3843,26.9375 279.3843,23.8125 Q279.3843,20.6875 280.7046,19.0313 Q282.025,17.375 284.525,17.375 Q285.2281,17.375 285.8765,17.5313 Q286.525,17.6875 287.0875,17.9844 L287.0875,20.7031 Q286.4625,20.125 285.8687,19.8516 Q285.275,19.5781 284.65,19.5781 Q283.3062,19.5781 282.6187,20.6484 Q281.9312,21.7188 281.9312,23.8125 Q281.9312,25.9063 282.6187,26.9766 Q283.3062,28.0469 284.65,28.0469 Q285.275,28.0469 285.8687,27.7734 Q286.4625,27.5 287.0875,26.9219 L287.0875,29.6406 Z "/><text fill="#000000" font-family="sans-serif" font-size="12" lengthAdjust="spacingAndGlyphs" textLength="130" x="298.1187" y="28.1543">CheckPerformanceUI</text><line style="stroke: #A80036; stroke-width: 1.5;" x1="270.1187" x2="430.1187" y1="40" y2="40"/><line style="stroke: #A80036; stroke-width: 1.5;" x1="270.1187" x2="430.1187" y1="48" y2="48"/><!--MD5=[d15821809a5a16e983914593597d6c97]
class CheckPerformanceController--><rect fill="#FEFECE" filter="url(#fhazi35cnvk7c)" height="60.8047" id="CheckPerformanceController" style="stroke: #A80036; stroke-width: 1.5;" width="211" x="244.6187" y="117"/><ellipse cx="259.6187" cy="133" fill="#ADD1B2" rx="11" ry="11" style="stroke: #A80036; stroke-width: 1.0;"/><path d="M262.5875,138.6406 Q262.0093,138.9375 261.3687,139.0859 Q260.7281,139.2344 260.025,139.2344 Q257.525,139.2344 256.2046,137.5859 Q254.8843,135.9375 254.8843,132.8125 Q254.8843,129.6875 256.2046,128.0313 Q257.525,126.375 260.025,126.375 Q260.7281,126.375 261.3765,126.5313 Q262.025,126.6875 262.5875,126.9844 L262.5875,129.7031 Q261.9625,129.125 261.3687,128.8516 Q260.775,128.5781 260.15,128.5781 Q258.8062,128.5781 258.1187,129.6484 Q257.4312,130.7188 257.4312,132.8125 Q257.4312,134.9063 258.1187,135.9766 Q258.8062,137.0469 260.15,137.0469 Q260.775,137.0469 261.3687,136.7734 Q261.9625,136.5 262.5875,135.9219 L262.5875,138.6406 Z "/><text fill="#000000" font-family="sans-serif" font-size="12" lengthAdjust="spacingAndGlyphs" textLength="179" x="273.6187" y="137.1543">CheckPerformanceController</text><line style="stroke: #A80036; stroke-width: 1.5;" x1="245.6187" x2="454.6187" y1="149" y2="149"/><line style="stroke: #A80036; stroke-width: 1.5;" x1="245.6187" x2="454.6187" y1="157" y2="157"/><text fill="#000000" font-family="sans-serif" font-size="11" lengthAdjust="spacingAndGlyphs" textLength="129" x="250.6187" y="171.2104">+checkPerformances()</text><!--MD5=[99b8db98afdc2c8404e39242ef4c1e65]
class Platform--><rect fill="#FEFECE" filter="url(#fhazi35cnvk7c)" height="60.8047" id="Platform" style="stroke: #A80036; stroke-width: 1.5;" width="154" x="273.1187" y="239"/><ellipse cx="319.8687" cy="255" fill="#ADD1B2" rx="11" ry="11" style="stroke: #A80036; stroke-width: 1.0;"/><path d="M322.8375,260.6406 Q322.2593,260.9375 321.6187,261.0859 Q320.9781,261.2344 320.275,261.2344 Q317.775,261.2344 316.4546,259.5859 Q315.1343,257.9375 315.1343,254.8125 Q315.1343,251.6875 316.4546,250.0313 Q317.775,248.375 320.275,248.375 Q320.9781,248.375 321.6265,248.5313 Q322.275,248.6875 322.8375,248.9844 L322.8375,251.7031 Q322.2125,251.125 321.6187,250.8516 Q321.025,250.5781 320.4,250.5781 Q319.0562,250.5781 318.3687,251.6484 Q317.6812,252.7188 317.6812,254.8125 Q317.6812,256.9063 318.3687,257.9766 Q319.0562,259.0469 320.4,259.0469 Q321.025,259.0469 321.6187,258.7734 Q322.2125,258.5 322.8375,257.9219 L322.8375,260.6406 Z "/><text fill="#000000" font-family="sans-serif" font-size="12" lengthAdjust="spacingAndGlyphs" textLength="52" x="340.3687" y="259.1543">Platform</text><line style="stroke: #A80036; stroke-width: 1.5;" x1="274.1187" x2="426.1187" y1="271" y2="271"/><line style="stroke: #A80036; stroke-width: 1.5;" x1="274.1187" x2="426.1187" y1="279" y2="279"/><text fill="#000000" font-family="sans-serif" font-size="11" lengthAdjust="spacingAndGlyphs" textLength="142" x="279.1187" y="293.2104">+getRegisterFreelancer()</text><!--MD5=[6735b55cc4e757c70976e457f6d95f3d]
class RegisterFreelancer--><rect fill="#FEFECE" filter="url(#fhazi35cnvk7c)" height="73.6094" id="RegisterFreelancer" style="stroke: #A80036; stroke-width: 1.5;" width="270" x="215.1187" y="377"/><ellipse cx="286.3687" cy="393" fill="#ADD1B2" rx="11" ry="11" style="stroke: #A80036; stroke-width: 1.0;"/><path d="M289.3375,398.6406 Q288.7593,398.9375 288.1187,399.0859 Q287.4781,399.2344 286.775,399.2344 Q284.275,399.2344 282.9546,397.5859 Q281.6343,395.9375 281.6343,392.8125 Q281.6343,389.6875 282.9546,388.0313 Q284.275,386.375 286.775,386.375 Q287.4781,386.375 288.1265,386.5313 Q288.775,386.6875 289.3375,386.9844 L289.3375,389.7031 Q288.7125,389.125 288.1187,388.8516 Q287.525,388.5781 286.9,388.5781 Q285.5562,388.5781 284.8687,389.6484 Q284.1812,390.7188 284.1812,392.8125 Q284.1812,394.9063 284.8687,395.9766 Q285.5562,397.0469 286.9,397.0469 Q287.525,397.0469 288.1187,396.7734 Q288.7125,396.5 289.3375,395.9219 L289.3375,398.6406 Z "/><text fill="#000000" font-family="sans-serif" font-size="12" lengthAdjust="spacingAndGlyphs" textLength="119" x="306.8687" y="397.1543">RegisterFreelancer</text><line style="stroke: #A80036; stroke-width: 1.5;" x1="216.1187" x2="484.1187" y1="409" y2="409"/><line style="stroke: #A80036; stroke-width: 1.5;" x1="216.1187" x2="484.1187" y1="417" y2="417"/><text fill="#000000" font-family="sans-serif" font-size="11" lengthAdjust="spacingAndGlyphs" textLength="115" x="221.1187" y="431.2104">+getListFreelancer()</text><text fill="#000000" font-family="sans-serif" font-size="11" lengthAdjust="spacingAndGlyphs" textLength="258" x="221.1187" y="444.0151">+calculateProbabilityHigherThanThreeHours()</text><!--MD5=[764fca796ce7f635542948d8fc39db5e]
class Payment--><rect fill="#FEFECE" filter="url(#fhazi35cnvk7c)" height="60.8047" id="Payment" style="stroke: #A80036; stroke-width: 1.5;" width="141" x="201.6187" y="858"/><ellipse cx="241.3687" cy="874" fill="#ADD1B2" rx="11" ry="11" style="stroke: #A80036; stroke-width: 1.0;"/><path d="M244.3375,879.6406 Q243.7593,879.9375 243.1187,880.0859 Q242.4781,880.2344 241.775,880.2344 Q239.275,880.2344 237.9546,878.5859 Q236.6343,876.9375 236.6343,873.8125 Q236.6343,870.6875 237.9546,869.0313 Q239.275,867.375 241.775,867.375 Q242.4781,867.375 243.1265,867.5313 Q243.775,867.6875 244.3375,867.9844 L244.3375,870.7031 Q243.7125,870.125 243.1187,869.8516 Q242.525,869.5781 241.9,869.5781 Q240.5562,869.5781 239.8687,870.6484 Q239.1812,871.7188 239.1812,873.8125 Q239.1812,875.9063 239.8687,876.9766 Q240.5562,878.0469 241.9,878.0469 Q242.525,878.0469 243.1187,877.7734 Q243.7125,877.5 244.3375,876.9219 L244.3375,879.6406 Z "/><text fill="#000000" font-family="sans-serif" font-size="12" lengthAdjust="spacingAndGlyphs" textLength="54" x="260.8687" y="878.1543">Payment</text><line style="stroke: #A80036; stroke-width: 1.5;" x1="202.6187" x2="341.6187" y1="890" y2="890"/><line style="stroke: #A80036; stroke-width: 1.5;" x1="202.6187" x2="341.6187" y1="898" y2="898"/><text fill="#000000" font-family="sans-serif" font-size="11" lengthAdjust="spacingAndGlyphs" textLength="129" x="207.6187" y="912.2104">+getListTransactions()</text><!--MD5=[4555bb1b0911a5adf28ce6dbe60fed2e]
class Transaction--><rect fill="#FEFECE" filter="url(#fhazi35cnvk7c)" height="60.8047" id="Transaction" style="stroke: #A80036; stroke-width: 1.5;" width="134" x="471.1187" y="239"/><ellipse cx="498.7187" cy="255" fill="#ADD1B2" rx="11" ry="11" style="stroke: #A80036; stroke-width: 1.0;"/><path d="M501.6875,260.6406 Q501.1093,260.9375 500.4687,261.0859 Q499.8281,261.2344 499.125,261.2344 Q496.625,261.2344 495.3046,259.5859 Q493.9843,257.9375 493.9843,254.8125 Q493.9843,251.6875 495.3046,250.0313 Q496.625,248.375 499.125,248.375 Q499.8281,248.375 500.4765,248.5313 Q501.125,248.6875 501.6875,248.9844 L501.6875,251.7031 Q501.0625,251.125 500.4687,250.8516 Q499.875,250.5781 499.25,250.5781 Q497.9062,250.5781 497.2187,251.6484 Q496.5312,252.7188 496.5312,254.8125 Q496.5312,256.9063 497.2187,257.9766 Q497.9062,259.0469 499.25,259.0469 Q499.875,259.0469 500.4687,258.7734 Q501.0625,258.5 501.6875,257.9219 L501.6875,260.6406 Z "/><text fill="#000000" font-family="sans-serif" font-size="12" lengthAdjust="spacingAndGlyphs" textLength="74" x="515.5187" y="259.1543">Transaction</text><line style="stroke: #A80036; stroke-width: 1.5;" x1="472.1187" x2="604.1187" y1="271" y2="271"/><line style="stroke: #A80036; stroke-width: 1.5;" x1="472.1187" x2="604.1187" y1="279" y2="279"/><text fill="#000000" font-family="sans-serif" font-size="11" lengthAdjust="spacingAndGlyphs" textLength="122" x="477.1187" y="293.2104">+getPayementValue()</text><!--MD5=[1f687b5315377fe49fca59b457947463]
class Freelancer--><rect fill="#FEFECE" filter="url(#fhazi35cnvk7c)" height="252.875" id="Freelancer" style="stroke: #A80036; stroke-width: 1.5;" width="425" x="59.6187" y="528"/><ellipse cx="234.3687" cy="544" fill="#ADD1B2" rx="11" ry="11" style="stroke: #A80036; stroke-width: 1.0;"/><path d="M237.3375,549.6406 Q236.7593,549.9375 236.1187,550.0859 Q235.4781,550.2344 234.775,550.2344 Q232.275,550.2344 230.9546,548.5859 Q229.6343,546.9375 229.6343,543.8125 Q229.6343,540.6875 230.9546,539.0313 Q232.275,537.375 234.775,537.375 Q235.4781,537.375 236.1265,537.5313 Q236.775,537.6875 237.3375,537.9844 L237.3375,540.7031 Q236.7125,540.125 236.1187,539.8516 Q235.525,539.5781 234.9,539.5781 Q233.5562,539.5781 232.8687,540.6484 Q232.1812,541.7188 232.1812,543.8125 Q232.1812,545.9063 232.8687,546.9766 Q233.5562,548.0469 234.9,548.0469 Q235.525,548.0469 236.1187,547.7734 Q236.7125,547.5 237.3375,546.9219 L237.3375,549.6406 Z "/><text fill="#000000" font-family="sans-serif" font-size="12" lengthAdjust="spacingAndGlyphs" textLength="67" x="254.8687" y="548.1543">Freelancer</text><line style="stroke: #A80036; stroke-width: 1.5;" x1="60.6187" x2="483.6187" y1="560" y2="560"/><line style="stroke: #A80036; stroke-width: 1.5;" x1="60.6187" x2="483.6187" y1="568" y2="568"/><text fill="#000000" font-family="sans-serif" font-size="11" lengthAdjust="spacingAndGlyphs" textLength="118" x="65.6187" y="582.2104">+getListPayements()</text><text fill="#000000" font-family="sans-serif" font-size="11" lengthAdjust="spacingAndGlyphs" textLength="240" x="65.6187" y="595.0151">+averageOfEachFreelancer(paymentTotal)</text><text fill="#000000" font-family="sans-serif" font-size="11" lengthAdjust="spacingAndGlyphs" textLength="250" x="65.6187" y="607.8198">+calculateDeviation(averageFreel, payment)</text><text fill="#000000" font-family="sans-serif" font-size="11" lengthAdjust="spacingAndGlyphs" textLength="265" x="65.6187" y="620.6245">+calculateDeviation(sumAllPaymentsDeviation)</text><text fill="#000000" font-family="sans-serif" font-size="11" lengthAdjust="spacingAndGlyphs" textLength="82" x="65.6187" y="633.4292">+getTaskList()</text><text fill="#000000" font-family="sans-serif" font-size="11" lengthAdjust="spacingAndGlyphs" textLength="160" x="65.6187" y="646.2339">+delaySumMean(delayTask)</text><text fill="#000000" font-family="sans-serif" font-size="11" lengthAdjust="spacingAndGlyphs" textLength="213" x="65.6187" y="659.0386">+delayMean(sumDelaysOfFreelancer)</text><text fill="#000000" font-family="sans-serif" font-size="11" lengthAdjust="spacingAndGlyphs" textLength="314" x="65.6187" y="671.8433">+deviationDelay(delayTask, averageDelayOfFreelancer)</text><text fill="#000000" font-family="sans-serif" font-size="11" lengthAdjust="spacingAndGlyphs" textLength="280" x="65.6187" y="684.6479">+sumDeviationDelay(deviationDelayOfFreelancer)</text><text fill="#000000" font-family="sans-serif" font-size="11" lengthAdjust="spacingAndGlyphs" textLength="403" x="65.6187" y="697.4526">+calculateDeviationOfOneFreelancer(sumDeviationDelaysOfFreelancer)</text><text fill="#000000" font-family="sans-serif" font-size="11" lengthAdjust="spacingAndGlyphs" textLength="336" x="65.6187" y="710.2573">+averageDelayOfAllFreelancers(totalDelayOfAllFreelancers)</text><text fill="#000000" font-family="sans-serif" font-size="11" lengthAdjust="spacingAndGlyphs" textLength="372" x="65.6187" y="723.062">+averagePaymentOfAllFreelancers(totalPaymentOfAllFreelancers)</text><text fill="#000000" font-family="sans-serif" font-size="11" lengthAdjust="spacingAndGlyphs" textLength="342" x="65.6187" y="735.8667">+deviationDelay (delayTask , averageDelayOfAllFreelancers)</text><text fill="#000000" font-family="sans-serif" font-size="11" lengthAdjust="spacingAndGlyphs" textLength="413" x="65.6187" y="748.6714">+calculateDeviationOfAllFreelancers(sumDelayDeviationOfAllFreelancers)</text><text fill="#000000" font-family="sans-serif" font-size="11" lengthAdjust="spacingAndGlyphs" textLength="364" x="65.6187" y="761.4761">+calculateDeviation(averagePaymentOfAllFreelancers, payment)</text><text fill="#000000" font-family="sans-serif" font-size="11" lengthAdjust="spacingAndGlyphs" textLength="407" x="65.6187" y="774.2808">+calculatePaymentDeviationOfAllFreelancers(sumAllPaymentsDeviation)</text><!--MD5=[5ce80547de3caced9d0089e35ded5090]
class TaskExecution--><rect fill="#FEFECE" filter="url(#fhazi35cnvk7c)" height="60.8047" id="TaskExecution" style="stroke: #A80036; stroke-width: 1.5;" width="122" x="600.1187" y="383.5"/><ellipse cx="615.1187" cy="399.5" fill="#ADD1B2" rx="11" ry="11" style="stroke: #A80036; stroke-width: 1.0;"/><path d="M618.0875,405.1406 Q617.5093,405.4375 616.8687,405.5859 Q616.2281,405.7344 615.525,405.7344 Q613.025,405.7344 611.7046,404.0859 Q610.3843,402.4375 610.3843,399.3125 Q610.3843,396.1875 611.7046,394.5313 Q613.025,392.875 615.525,392.875 Q616.2281,392.875 616.8765,393.0313 Q617.525,393.1875 618.0875,393.4844 L618.0875,396.2031 Q617.4625,395.625 616.8687,395.3516 Q616.275,395.0781 615.65,395.0781 Q614.3062,395.0781 613.6187,396.1484 Q612.9312,397.2188 612.9312,399.3125 Q612.9312,401.4063 613.6187,402.4766 Q614.3062,403.5469 615.65,403.5469 Q616.275,403.5469 616.8687,403.2734 Q617.4625,403 618.0875,402.4219 L618.0875,405.1406 Z "/><text fill="#000000" font-family="sans-serif" font-size="12" lengthAdjust="spacingAndGlyphs" textLength="90" x="629.1187" y="403.6543">TaskExecution</text><line style="stroke: #A80036; stroke-width: 1.5;" x1="601.1187" x2="721.1187" y1="415.5" y2="415.5"/><line style="stroke: #A80036; stroke-width: 1.5;" x1="601.1187" x2="721.1187" y1="423.5" y2="423.5"/><text fill="#000000" font-family="sans-serif" font-size="11" lengthAdjust="spacingAndGlyphs" textLength="107" x="606.1187" y="437.7104">+getDelayByTask()</text><!--MD5=[00d80cb1b444f71274b1ed2d244b169b]
link CheckPerformanceUI to CheckPerformanceController--><path d="M350.1187,56.2126 C350.1187,72.1586 350.1187,93.3253 350.1187,111.2618 " fill="none" id="CheckPerformanceUI-&gt;CheckPerformanceController" style="stroke: #A80036; stroke-width: 1.0; stroke-dasharray: 7.0,7.0;"/><polygon fill="#A80036" points="350.1187,116.7152,354.1187,107.7152,350.1187,111.7152,346.1187,107.7152,350.1187,116.7152" style="stroke: #A80036; stroke-width: 1.0;"/><!--MD5=[ef5bf7071b278fc43f9e5dbe6e344799]
link CheckPerformanceController to Platform--><path d="M350.1187,178.2858 C350.1187,195.0462 350.1187,215.878 350.1187,233.4005 " fill="none" id="CheckPerformanceController-&gt;Platform" style="stroke: #A80036; stroke-width: 1.0; stroke-dasharray: 7.0,7.0;"/><polygon fill="#A80036" points="350.1187,238.7241,354.1187,229.7241,350.1187,233.7241,346.1187,229.7241,350.1187,238.7241" style="stroke: #A80036; stroke-width: 1.0;"/><!--MD5=[2ac1aa6305e608dce63059bebae9c69e]
link CheckPerformanceController to Payment--><path d="M244.5695,164.0939 C143.4492,183.0603 6.1187,218.252 6.1187,269.5 C6.1187,269.5 6.1187,269.5 6.1187,654.5 C6.1187,712.9546 4.2197,736.496 42.1187,781 C81.7762,827.569 146.0249,855.2388 196.5503,870.8147 " fill="none" id="CheckPerformanceController-&gt;Payment" style="stroke: #A80036; stroke-width: 1.0; stroke-dasharray: 7.0,7.0;"/><polygon fill="#A80036" points="201.3958,872.2846,193.9447,865.8441,196.6111,870.833,191.6222,873.4995,201.3958,872.2846" style="stroke: #A80036; stroke-width: 1.0;"/><!--MD5=[5ac719efde8b5aceb37c2cab2fe6b17c]
link CheckPerformanceController to Transaction--><path d="M397.559,178.2858 C424.7144,195.9079 458.8054,218.0307 486.6126,236.0758 " fill="none" id="CheckPerformanceController-&gt;Transaction" style="stroke: #A80036; stroke-width: 1.0; stroke-dasharray: 7.0,7.0;"/><polygon fill="#A80036" points="491.0195,238.9356,485.6473,230.6809,486.8253,236.2138,481.2924,237.3917,491.0195,238.9356" style="stroke: #A80036; stroke-width: 1.0;"/><!--MD5=[7e52af798b11e64b14b9a61fb72cb0d8]
link CheckPerformanceController to Freelancer--><path d="M312.2174,178.0036 C293.4904,194.5444 271.6415,216.231 256.1187,239 C218.6422,293.9708 211.2669,311.7819 198.1187,377 C188.4449,424.9842 197.0733,476.9756 211.3893,522.8441 " fill="none" id="CheckPerformanceController-&gt;Freelancer" style="stroke: #A80036; stroke-width: 1.0; stroke-dasharray: 7.0,7.0;"/><polygon fill="#A80036" points="212.9762,527.8332,214.06,518.0442,211.4606,523.0684,206.4363,520.4691,212.9762,527.8332" style="stroke: #A80036; stroke-width: 1.0;"/><!--MD5=[12c9cbbabad6d8b1a31c8e07aec93289]
link CheckPerformanceController to TaskExecution--><path d="M455.6275,171.8534 C522.0532,189.2031 599.5419,213.8252 623.1187,239 C658.4064,276.6795 663.9045,339.1024 663.4114,378.3193 " fill="none" id="CheckPerformanceController-&gt;TaskExecution" style="stroke: #A80036; stroke-width: 1.0; stroke-dasharray: 7.0,7.0;"/><polygon fill="#A80036" points="663.3109,383.4569,667.4863,374.5369,663.4088,378.4579,659.4878,374.3803,663.3109,383.4569" style="stroke: #A80036; stroke-width: 1.0;"/><!--MD5=[bd4dc258c99bd36fa08dcfc6a9cf30bc]
link Platform to RegisterFreelancer--><path d="M350.1187,300.1447 C350.1187,321.0172 350.1187,348.917 350.1187,371.8741 " fill="none" id="Platform-&gt;RegisterFreelancer" style="stroke: #A80036; stroke-width: 1.0;"/><polygon fill="#A80036" points="350.1187,376.9929,354.1187,367.9929,350.1187,371.9929,346.1187,367.9929,350.1187,376.9929" style="stroke: #A80036; stroke-width: 1.0;"/><text fill="#000000" font-family="sans-serif" font-size="13" lengthAdjust="spacingAndGlyphs" textLength="23" x="351.1187" y="343.0669">has</text><text fill="#000000" font-family="sans-serif" font-size="13" lengthAdjust="spacingAndGlyphs" textLength="8" x="341.3312" y="319.7536">1</text><text fill="#000000" font-family="sans-serif" font-size="13" lengthAdjust="spacingAndGlyphs" textLength="8" x="341.3812" y="365.9021">1</text><!--MD5=[49ce8ea186f6865d1a47f1469d32fd2e]
link RegisterFreelancer to Freelancer--><path d="M338.1021,451.0511 C331.6855,470.8357 323.3574,496.514 314.7909,522.9274 " fill="none" id="RegisterFreelancer-&gt;Freelancer" style="stroke: #A80036; stroke-width: 1.0;"/><polygon fill="#A80036" points="313.189,527.8666,319.7705,520.5397,314.7316,523.1105,312.1607,518.0716,313.189,527.8666" style="stroke: #A80036; stroke-width: 1.0;"/><text fill="#000000" font-family="sans-serif" font-size="13" lengthAdjust="spacingAndGlyphs" textLength="23" x="327.1187" y="494.0669">has</text><text fill="#000000" font-family="sans-serif" font-size="13" lengthAdjust="spacingAndGlyphs" textLength="8" x="327.4494" y="470.5401">1</text><text fill="#000000" font-family="sans-serif" font-size="13" lengthAdjust="spacingAndGlyphs" textLength="7" x="308.4784" y="516.7676">*</text><!--MD5=[a1bcd49bda1d48eee0717f7ad534cdd6]
link Freelancer to Payment--><path d="M272.1187,781.0881 C272.1187,807.3829 272.1187,833.0275 272.1187,852.6614 " fill="none" id="Freelancer-&gt;Payment" style="stroke: #A80036; stroke-width: 1.0;"/><polygon fill="#A80036" points="272.1187,857.7771,276.1187,848.7771,272.1187,852.7771,268.1187,848.7771,272.1187,857.7771" style="stroke: #A80036; stroke-width: 1.0;"/><text fill="#000000" font-family="sans-serif" font-size="13" lengthAdjust="spacingAndGlyphs" textLength="23" x="273.1187" y="824.0669">has</text><text fill="#000000" font-family="sans-serif" font-size="13" lengthAdjust="spacingAndGlyphs" textLength="8" x="263.8875" y="800.9144">1</text><text fill="#000000" font-family="sans-serif" font-size="13" lengthAdjust="spacingAndGlyphs" textLength="16" x="254.4687" y="846.9944">1..</text><!--MD5=[ee25a9e267be641cadbaef6c1594e19f]
link Transaction to Payment--><path d="M545.7847,300.2994 C565.1007,385.5141 607.0901,628.1941 502.1187,781 C466.8195,832.3847 400.3188,859.8042 347.8685,874.0546 " fill="none" id="Transaction-&gt;Payment" style="stroke: #A80036; stroke-width: 1.0;"/><polygon fill="#A80036" points="342.8381,875.3929,352.564,876.9441,347.67,874.1072,350.5069,869.2131,342.8381,875.3929" style="stroke: #A80036; stroke-width: 1.0;"/><text fill="#000000" font-family="sans-serif" font-size="13" lengthAdjust="spacingAndGlyphs" textLength="63" x="571.1187" y="494.0669">originates</text><text fill="#000000" font-family="sans-serif" font-size="13" lengthAdjust="spacingAndGlyphs" textLength="23" x="522.0299" y="319.9388">1..*</text><text fill="#000000" font-family="sans-serif" font-size="13" lengthAdjust="spacingAndGlyphs" textLength="8" x="350.5435" y="870.3516">1</text><!--MD5=[590de1eb4160e0577c453d6e7f1b2aac]
link Transaction to TaskExecution--><path d="M558.0911,300.2299 C568.0461,314.8467 580.6094,332.2982 593.1187,347 C602.5884,358.1294 613.6015,369.5404 623.9715,379.7187 " fill="none" id="Transaction-&gt;TaskExecution" style="stroke: #A80036; stroke-width: 1.0;"/><polygon fill="#A80036" points="627.7589,383.41,624.1055,374.2638,624.1782,379.9202,618.5218,379.9929,627.7589,383.41" style="stroke: #A80036; stroke-width: 1.0;"/><text fill="#000000" font-family="sans-serif" font-size="13" lengthAdjust="spacingAndGlyphs" textLength="48" x="594.1187" y="343.0669">creates</text><text fill="#000000" font-family="sans-serif" font-size="13" lengthAdjust="spacingAndGlyphs" textLength="8" x="553.2357" y="319.8556">1</text><text fill="#000000" font-family="sans-serif" font-size="13" lengthAdjust="spacingAndGlyphs" textLength="8" x="612.0534" y="372.6547">1</text><!--MD5=[6e72019cb01cbb46d3deb4c2d8f13199]
@startuml
skinparam classAttributeIconSize 0


class CheckPerformanceUI{
  }

class CheckPerformanceController{
  +checkPerformances()
  }

class Platform {
  +getRegisterFreelancer()
  }

class RegisterFreelancer{
  +getListFreelancer()
  +calculateProbabilityHigherThanThreeHours()
  }

class Payment {
  +getListTransactions()
  }

class Transaction{
  +getPayementValue()
  }

class Freelancer {
  +getListPayements()
  +averageOfEachFreelancer(paymentTotal)
  +calculateDeviation(averageFreel, payment)
  +calculateDeviation(sumAllPaymentsDeviation)
  +getTaskList()
  +delaySumMean(delayTask)
  +delayMean(sumDelaysOfFreelancer)
  +deviationDelay(delayTask, averageDelayOfFreelancer)
  +sumDeviationDelay(deviationDelayOfFreelancer)
  +calculateDeviationOfOneFreelancer(sumDeviationDelaysOfFreelancer)
  +averageDelayOfAllFreelancers(totalDelayOfAllFreelancers)
  +averagePaymentOfAllFreelancers(totalPaymentOfAllFreelancers)
  +deviationDelay (delayTask , averageDelayOfAllFreelancers)
  +calculateDeviationOfAllFreelancers(sumDelayDeviationOfAllFreelancers)
  +calculateDeviation(averagePaymentOfAllFreelancers, payment)
  +calculatePaymentDeviationOfAllFreelancers(sumAllPaymentsDeviation)
  }

class TaskExecution{
  +getDelayByTask()
  }


CheckPerformanceUI ..> CheckPerformanceController
CheckPerformanceController ..> Platform
CheckPerformanceController ..> Payment
CheckPerformanceController ..> Transaction
CheckPerformanceController ..> Freelancer
CheckPerformanceController ..> TaskExecution


Platform "1" - -> "1" RegisterFreelancer: has
RegisterFreelancer "1" - -> "*" Freelancer: has
Freelancer "1" - -> "1.." Payment: has
Transaction "1..*" - -> "1"Payment: originates 
Transaction "1" - -> "1" TaskExecution: creates
@enduml

PlantUML version 1.2019.12(Sun Nov 03 10:24:54 UTC 2019)
(GPL source distribution)
Java Runtime: OpenJDK Runtime Environment
JVM: OpenJDK 64-Bit Server VM
Java Version: 1.8.0_232-heroku-b09
Operating System: Linux
Default Encoding: UTF-8
Language: en
Country: US
--></g></svg>