<?xml version="1.0" encoding="UTF-8" standalone="no"?><svg xmlns="http://www.w3.org/2000/svg" xmlns:xlink="http://www.w3.org/1999/xlink" contentScriptType="application/ecmascript" contentStyleType="text/css" height="226px" preserveAspectRatio="none" style="width:533px;height:226px;" version="1.1" viewBox="0 0 533 226" width="533px" zoomAndPan="magnify"><defs><filter height="300%" id="f1oaff1ojg7p9q" width="300%" x="-1" y="-1"><feGaussianBlur result="blurOut" stdDeviation="2.0"/><feColorMatrix in="blurOut" result="blurOut2" type="matrix" values="0 0 0 0 0 0 0 0 0 0 0 0 0 0 0 0 0 0 .4 0"/><feOffset dx="4.0" dy="4.0" in="blurOut2" result="blurOut3"/><feBlend in="SourceGraphic" in2="blurOut3" mode="normal"/></filter></defs><g><!--MD5=[3ed78abb7ad3a3fd83e44d4afd5ddf5d]
class WatchStatisticsController--><rect fill="#FEFECE" filter="url(#f1oaff1ojg7p9q)" height="48" id="WatchStatisticsController" style="stroke: #A80036; stroke-width: 1.5;" width="190" x="169" y="8"/><ellipse cx="184" cy="24" fill="#ADD1B2" rx="11" ry="11" style="stroke: #A80036; stroke-width: 1.0;"/><path d="M186.9688,29.6406 Q186.3906,29.9375 185.75,30.0859 Q185.1094,30.2344 184.4063,30.2344 Q181.9063,30.2344 180.5859,28.5859 Q179.2656,26.9375 179.2656,23.8125 Q179.2656,20.6875 180.5859,19.0313 Q181.9063,17.375 184.4063,17.375 Q185.1094,17.375 185.7578,17.5313 Q186.4063,17.6875 186.9688,17.9844 L186.9688,20.7031 Q186.3438,20.125 185.75,19.8516 Q185.1563,19.5781 184.5313,19.5781 Q183.1875,19.5781 182.5,20.6484 Q181.8125,21.7188 181.8125,23.8125 Q181.8125,25.9063 182.5,26.9766 Q183.1875,28.0469 184.5313,28.0469 Q185.1563,28.0469 185.75,27.7734 Q186.3438,27.5 186.9688,26.9219 L186.9688,29.6406 Z "/><text fill="#000000" font-family="sans-serif" font-size="12" lengthAdjust="spacingAndGlyphs" textLength="158" x="198" y="28.1543">WatchStatisticsController</text><line style="stroke: #A80036; stroke-width: 1.5;" x1="170" x2="358" y1="40" y2="40"/><line style="stroke: #A80036; stroke-width: 1.5;" x1="170" x2="358" y1="48" y2="48"/><!--MD5=[40d2668bbcd459976779c45dfe17221f]
class Statistics--><rect fill="#FEFECE" filter="url(#f1oaff1ojg7p9q)" height="99.2188" id="Statistics" style="stroke: #A80036; stroke-width: 1.5;" width="516" x="6" y="116"/><ellipse cx="230.75" cy="132" fill="#ADD1B2" rx="11" ry="11" style="stroke: #A80036; stroke-width: 1.0;"/><path d="M233.7188,137.6406 Q233.1406,137.9375 232.5,138.0859 Q231.8594,138.2344 231.1563,138.2344 Q228.6563,138.2344 227.3359,136.5859 Q226.0156,134.9375 226.0156,131.8125 Q226.0156,128.6875 227.3359,127.0313 Q228.6563,125.375 231.1563,125.375 Q231.8594,125.375 232.5078,125.5313 Q233.1563,125.6875 233.7188,125.9844 L233.7188,128.7031 Q233.0938,128.125 232.5,127.8516 Q231.9063,127.5781 231.2813,127.5781 Q229.9375,127.5781 229.25,128.6484 Q228.5625,129.7188 228.5625,131.8125 Q228.5625,133.9063 229.25,134.9766 Q229.9375,136.0469 231.2813,136.0469 Q231.9063,136.0469 232.5,135.7734 Q233.0938,135.5 233.7188,134.9219 L233.7188,137.6406 Z "/><text fill="#000000" font-family="sans-serif" font-size="12" lengthAdjust="spacingAndGlyphs" textLength="58" x="251.25" y="136.1543">Statistics</text><line style="stroke: #A80036; stroke-width: 1.5;" x1="7" x2="521" y1="148" y2="148"/><line style="stroke: #A80036; stroke-width: 1.5;" x1="7" x2="521" y1="156" y2="156"/><ellipse cx="17" cy="167" fill="#84BE84" rx="3" ry="3" style="stroke: #038048; stroke-width: 1.0;"/><text fill="#000000" font-family="sans-serif" font-size="11" lengthAdjust="spacingAndGlyphs" textLength="479" x="26" y="170.2104">getPaymentDeviationOfEachFreelancer(String email, List&lt;TransactionExecutino&gt; ltr)</text><ellipse cx="17" cy="179.8047" fill="#84BE84" rx="3" ry="3" style="stroke: #038048; stroke-width: 1.0;"/><text fill="#000000" font-family="sans-serif" font-size="11" lengthAdjust="spacingAndGlyphs" textLength="490" x="26" y="183.0151">getTaskExecutionDelayOfEachFreelancer(String email, List&lt;TransactionExecutino&gt; ltr)</text><ellipse cx="17" cy="192.6094" fill="#84BE84" rx="3" ry="3" style="stroke: #038048; stroke-width: 1.0;"/><text fill="#000000" font-family="sans-serif" font-size="11" lengthAdjust="spacingAndGlyphs" textLength="406" x="26" y="195.8198">getTaskExecutionDelayOfAllFreelancers(List&lt;TransactionExecutino&gt; ltr)</text><ellipse cx="17" cy="205.4141" fill="#84BE84" rx="3" ry="3" style="stroke: #038048; stroke-width: 1.0;"/><text fill="#000000" font-family="sans-serif" font-size="11" lengthAdjust="spacingAndGlyphs" textLength="395" x="26" y="208.6245">getPaymentDeviationOfAllFreelancers(List&lt;TransactionExecutino&gt; ltr)</text><!--MD5=[6c80be46068fd163d80128d13e36f310]
link WatchStatisticsController to Statistics--><path d="M264,56.1758 C264,71.3545 264,91.5739 264,110.4937 " fill="none" id="WatchStatisticsController-&gt;Statistics" style="stroke: #A80036; stroke-width: 1.0; stroke-dasharray: 7.0,7.0;"/><polygon fill="#A80036" points="264,115.7903,268,106.7903,264,110.7903,260,106.7903,264,115.7903" style="stroke: #A80036; stroke-width: 1.0;"/><!--MD5=[cc8fa524554c8175d18bb533b27bdcd3]
@startuml
class WatchStatisticsController{
  }

class Statistics {
  +getPaymentDeviationOfEachFreelancer(String email, List<TransactionExecutino> ltr)
  +getTaskExecutionDelayOfEachFreelancer(String email, List<TransactionExecutino> ltr)
  +getTaskExecutionDelayOfAllFreelancers(List<TransactionExecutino> ltr)
  +getPaymentDeviationOfAllFreelancers(List<TransactionExecutino> ltr)
  }


WatchStatisticsController ..> Statistics
@enduml

PlantUML version 1.2019.12(Sun Nov 03 10:24:54 UTC 2019)
(GPL source distribution)
Java Runtime: OpenJDK Runtime Environment
JVM: OpenJDK 64-Bit Server VM
Java Version: 1.8.0_232-heroku-b09
Operating System: Linux
Default Encoding: UTF-8
Language: en
Country: US
--></g></svg>