<?xml version="1.0" encoding="UTF-8" standalone="no"?><svg xmlns="http://www.w3.org/2000/svg" xmlns:xlink="http://www.w3.org/1999/xlink" contentScriptType="application/ecmascript" contentStyleType="text/css" height="772px" preserveAspectRatio="none" style="width:575px;height:772px;" version="1.1" viewBox="0 0 575 772" width="575px" zoomAndPan="magnify"><defs><filter height="300%" id="f1kjpaktyx1qmf" width="300%" x="-1" y="-1"><feGaussianBlur result="blurOut" stdDeviation="2.0"/><feColorMatrix in="blurOut" result="blurOut2" type="matrix" values="0 0 0 0 0 0 0 0 0 0 0 0 0 0 0 0 0 0 .4 0"/><feOffset dx="4.0" dy="4.0" in="blurOut2" result="blurOut3"/><feBlend in="SourceGraphic" in2="blurOut3" mode="normal"/></filter></defs><g><!--MD5=[45b10b8ff4ed64a4a6f2a6ab6acf684c]
class WatchStatisticsUI--><rect fill="#FEFECE" filter="url(#f1kjpaktyx1qmf)" height="48" id="WatchStatisticsUI" style="stroke: #A80036; stroke-width: 1.5;" width="141" x="195.5" y="8"/><ellipse cx="210.5" cy="24" fill="#ADD1B2" rx="11" ry="11" style="stroke: #A80036; stroke-width: 1.0;"/><path d="M213.4688,29.6406 Q212.8906,29.9375 212.25,30.0859 Q211.6094,30.2344 210.9063,30.2344 Q208.4063,30.2344 207.0859,28.5859 Q205.7656,26.9375 205.7656,23.8125 Q205.7656,20.6875 207.0859,19.0313 Q208.4063,17.375 210.9063,17.375 Q211.6094,17.375 212.2578,17.5313 Q212.9063,17.6875 213.4688,17.9844 L213.4688,20.7031 Q212.8438,20.125 212.25,19.8516 Q211.6563,19.5781 211.0313,19.5781 Q209.6875,19.5781 209,20.6484 Q208.3125,21.7188 208.3125,23.8125 Q208.3125,25.9063 209,26.9766 Q209.6875,28.0469 211.0313,28.0469 Q211.6563,28.0469 212.25,27.7734 Q212.8438,27.5 213.4688,26.9219 L213.4688,29.6406 Z "/><text fill="#000000" font-family="sans-serif" font-size="12" lengthAdjust="spacingAndGlyphs" textLength="109" x="224.5" y="28.1543">WatchStatisticsUI</text><line style="stroke: #A80036; stroke-width: 1.5;" x1="196.5" x2="335.5" y1="40" y2="40"/><line style="stroke: #A80036; stroke-width: 1.5;" x1="196.5" x2="335.5" y1="48" y2="48"/><!--MD5=[3ed78abb7ad3a3fd83e44d4afd5ddf5d]
class WatchStatisticsController--><rect fill="#FEFECE" filter="url(#f1kjpaktyx1qmf)" height="60.8047" id="WatchStatisticsController" style="stroke: #A80036; stroke-width: 1.5;" width="190" x="171" y="117"/><ellipse cx="186" cy="133" fill="#ADD1B2" rx="11" ry="11" style="stroke: #A80036; stroke-width: 1.0;"/><path d="M188.9688,138.6406 Q188.3906,138.9375 187.75,139.0859 Q187.1094,139.2344 186.4063,139.2344 Q183.9063,139.2344 182.5859,137.5859 Q181.2656,135.9375 181.2656,132.8125 Q181.2656,129.6875 182.5859,128.0313 Q183.9063,126.375 186.4063,126.375 Q187.1094,126.375 187.7578,126.5313 Q188.4063,126.6875 188.9688,126.9844 L188.9688,129.7031 Q188.3438,129.125 187.75,128.8516 Q187.1563,128.5781 186.5313,128.5781 Q185.1875,128.5781 184.5,129.6484 Q183.8125,130.7188 183.8125,132.8125 Q183.8125,134.9063 184.5,135.9766 Q185.1875,137.0469 186.5313,137.0469 Q187.1563,137.0469 187.75,136.7734 Q188.3438,136.5 188.9688,135.9219 L188.9688,138.6406 Z "/><text fill="#000000" font-family="sans-serif" font-size="12" lengthAdjust="spacingAndGlyphs" textLength="158" x="200" y="137.1543">WatchStatisticsController</text><line style="stroke: #A80036; stroke-width: 1.5;" x1="172" x2="360" y1="149" y2="149"/><line style="stroke: #A80036; stroke-width: 1.5;" x1="172" x2="360" y1="157" y2="157"/><ellipse cx="182" cy="168" fill="#84BE84" rx="3" ry="3" style="stroke: #038048; stroke-width: 1.0;"/><text fill="#000000" font-family="sans-serif" font-size="11" lengthAdjust="spacingAndGlyphs" textLength="93" x="191" y="171.2104">getFreelancers()</text><!--MD5=[e45a4727c47b726c25e081782e8bc183]
class ApplicationPOT--><rect fill="#FEFECE" filter="url(#f1kjpaktyx1qmf)" height="86.4141" id="ApplicationPOT" style="stroke: #A80036; stroke-width: 1.5;" width="165" x="251.5" y="239"/><ellipse cx="284.5" cy="255" fill="#ADD1B2" rx="11" ry="11" style="stroke: #A80036; stroke-width: 1.0;"/><path d="M287.4688,260.6406 Q286.8906,260.9375 286.25,261.0859 Q285.6094,261.2344 284.9063,261.2344 Q282.4063,261.2344 281.0859,259.5859 Q279.7656,257.9375 279.7656,254.8125 Q279.7656,251.6875 281.0859,250.0313 Q282.4063,248.375 284.9063,248.375 Q285.6094,248.375 286.2578,248.5313 Q286.9063,248.6875 287.4688,248.9844 L287.4688,251.7031 Q286.8438,251.125 286.25,250.8516 Q285.6563,250.5781 285.0313,250.5781 Q283.6875,250.5781 283,251.6484 Q282.3125,252.7188 282.3125,254.8125 Q282.3125,256.9063 283,257.9766 Q283.6875,259.0469 285.0313,259.0469 Q285.6563,259.0469 286.25,258.7734 Q286.8438,258.5 287.4688,257.9219 L287.4688,260.6406 Z "/><text fill="#000000" font-family="sans-serif" font-size="12" lengthAdjust="spacingAndGlyphs" textLength="93" x="302.5" y="259.1543">ApplicationPOT</text><line style="stroke: #A80036; stroke-width: 1.5;" x1="252.5" x2="415.5" y1="271" y2="271"/><line style="stroke: #A80036; stroke-width: 1.5;" x1="252.5" x2="415.5" y1="279" y2="279"/><ellipse cx="262.5" cy="290" fill="#84BE84" rx="3" ry="3" style="stroke: #038048; stroke-width: 1.0;"/><text fill="#000000" font-family="sans-serif" font-size="11" lengthAdjust="spacingAndGlyphs" textLength="74" x="271.5" y="293.2104">getInstance()</text><ellipse cx="262.5" cy="302.8047" fill="#84BE84" rx="3" ry="3" style="stroke: #038048; stroke-width: 1.0;"/><text fill="#000000" font-family="sans-serif" font-size="11" lengthAdjust="spacingAndGlyphs" textLength="74" x="271.5" y="306.0151">getPlatform()</text><ellipse cx="262.5" cy="315.6094" fill="#84BE84" rx="3" ry="3" style="stroke: #038048; stroke-width: 1.0;"/><text fill="#000000" font-family="sans-serif" font-size="11" lengthAdjust="spacingAndGlyphs" textLength="139" x="271.5" y="318.8198">getFacadeAuthorization()</text><!--MD5=[99b8db98afdc2c8404e39242ef4c1e65]
class Platform--><rect fill="#FEFECE" filter="url(#f1kjpaktyx1qmf)" height="73.6094" id="Platform" style="stroke: #A80036; stroke-width: 1.5;" width="84" x="156" y="386"/><ellipse cx="171" cy="402" fill="#ADD1B2" rx="11" ry="11" style="stroke: #A80036; stroke-width: 1.0;"/><path d="M173.9688,407.6406 Q173.3906,407.9375 172.75,408.0859 Q172.1094,408.2344 171.4063,408.2344 Q168.9063,408.2344 167.5859,406.5859 Q166.2656,404.9375 166.2656,401.8125 Q166.2656,398.6875 167.5859,397.0313 Q168.9063,395.375 171.4063,395.375 Q172.1094,395.375 172.7578,395.5313 Q173.4063,395.6875 173.9688,395.9844 L173.9688,398.7031 Q173.3438,398.125 172.75,397.8516 Q172.1563,397.5781 171.5313,397.5781 Q170.1875,397.5781 169.5,398.6484 Q168.8125,399.7188 168.8125,401.8125 Q168.8125,403.9063 169.5,404.9766 Q170.1875,406.0469 171.5313,406.0469 Q172.1563,406.0469 172.75,405.7734 Q173.3438,405.5 173.9688,404.9219 L173.9688,407.6406 Z "/><text fill="#000000" font-family="sans-serif" font-size="12" lengthAdjust="spacingAndGlyphs" textLength="52" x="185" y="406.1543">Platform</text><line style="stroke: #A80036; stroke-width: 1.5;" x1="157" x2="239" y1="418" y2="418"/><line style="stroke: #A80036; stroke-width: 1.5;" x1="157" x2="239" y1="426" y2="426"/><ellipse cx="167" cy="437" fill="#84BE84" rx="3" ry="3" style="stroke: #038048; stroke-width: 1.0;"/><text fill="#000000" font-family="sans-serif" font-size="11" lengthAdjust="spacingAndGlyphs" textLength="41" x="176" y="440.2104">getST()</text><ellipse cx="167" cy="449.8047" fill="#84BE84" rx="3" ry="3" style="stroke: #038048; stroke-width: 1.0;"/><text fill="#000000" font-family="sans-serif" font-size="11" lengthAdjust="spacingAndGlyphs" textLength="52" x="176" y="453.0151">getrOrg()</text><!--MD5=[c5b08e60048ef1bcd788d24cf324082e]
class UserSession--><rect fill="#FEFECE" filter="url(#f1kjpaktyx1qmf)" height="60.8047" id="UserSession" style="stroke: #A80036; stroke-width: 1.5;" width="110" x="388" y="537"/><ellipse cx="403" cy="553" fill="#ADD1B2" rx="11" ry="11" style="stroke: #A80036; stroke-width: 1.0;"/><path d="M405.9688,558.6406 Q405.3906,558.9375 404.75,559.0859 Q404.1094,559.2344 403.4063,559.2344 Q400.9063,559.2344 399.5859,557.5859 Q398.2656,555.9375 398.2656,552.8125 Q398.2656,549.6875 399.5859,548.0313 Q400.9063,546.375 403.4063,546.375 Q404.1094,546.375 404.7578,546.5313 Q405.4063,546.6875 405.9688,546.9844 L405.9688,549.7031 Q405.3438,549.125 404.75,548.8516 Q404.1563,548.5781 403.5313,548.5781 Q402.1875,548.5781 401.5,549.6484 Q400.8125,550.7188 400.8125,552.8125 Q400.8125,554.9063 401.5,555.9766 Q402.1875,557.0469 403.5313,557.0469 Q404.1563,557.0469 404.75,556.7734 Q405.3438,556.5 405.9688,555.9219 L405.9688,558.6406 Z "/><text fill="#000000" font-family="sans-serif" font-size="12" lengthAdjust="spacingAndGlyphs" textLength="78" x="417" y="557.1543">UserSession</text><line style="stroke: #A80036; stroke-width: 1.5;" x1="389" x2="497" y1="569" y2="569"/><line style="stroke: #A80036; stroke-width: 1.5;" x1="389" x2="497" y1="577" y2="577"/><ellipse cx="399" cy="588" fill="#84BE84" rx="3" ry="3" style="stroke: #038048; stroke-width: 1.0;"/><text fill="#000000" font-family="sans-serif" font-size="11" lengthAdjust="spacingAndGlyphs" textLength="84" x="408" y="591.2104">getUserEmail()</text><!--MD5=[bf6f636222406559e0ae8c46c1f32994]
class RegisterOrganization--><rect fill="#FEFECE" filter="url(#f1kjpaktyx1qmf)" height="60.8047" id="RegisterOrganization" style="stroke: #A80036; stroke-width: 1.5;" width="162" x="85" y="537"/><ellipse cx="100" cy="553" fill="#ADD1B2" rx="11" ry="11" style="stroke: #A80036; stroke-width: 1.0;"/><path d="M102.9688,558.6406 Q102.3906,558.9375 101.75,559.0859 Q101.1094,559.2344 100.4063,559.2344 Q97.9063,559.2344 96.5859,557.5859 Q95.2656,555.9375 95.2656,552.8125 Q95.2656,549.6875 96.5859,548.0313 Q97.9063,546.375 100.4063,546.375 Q101.1094,546.375 101.7578,546.5313 Q102.4063,546.6875 102.9688,546.9844 L102.9688,549.7031 Q102.3438,549.125 101.75,548.8516 Q101.1563,548.5781 100.5313,548.5781 Q99.1875,548.5781 98.5,549.6484 Q97.8125,550.7188 97.8125,552.8125 Q97.8125,554.9063 98.5,555.9766 Q99.1875,557.0469 100.5313,557.0469 Q101.1563,557.0469 101.75,556.7734 Q102.3438,556.5 102.9688,555.9219 L102.9688,558.6406 Z "/><text fill="#000000" font-family="sans-serif" font-size="12" lengthAdjust="spacingAndGlyphs" textLength="130" x="114" y="557.1543">RegisterOrganization</text><line style="stroke: #A80036; stroke-width: 1.5;" x1="86" x2="246" y1="569" y2="569"/><line style="stroke: #A80036; stroke-width: 1.5;" x1="86" x2="246" y1="577" y2="577"/><ellipse cx="96" cy="588" fill="#84BE84" rx="3" ry="3" style="stroke: #038048; stroke-width: 1.0;"/><text fill="#000000" font-family="sans-serif" font-size="11" lengthAdjust="spacingAndGlyphs" textLength="50" x="105" y="591.2104">getlOrg()</text><!--MD5=[86c7c362de55a38b660185a1328fe18d]
class Organization--><rect fill="#FEFECE" filter="url(#f1kjpaktyx1qmf)" height="86.4141" id="Organization" style="stroke: #A80036; stroke-width: 1.5;" width="110" x="6" y="675"/><ellipse cx="21" cy="691" fill="#ADD1B2" rx="11" ry="11" style="stroke: #A80036; stroke-width: 1.0;"/><path d="M23.9688,696.6406 Q23.3906,696.9375 22.75,697.0859 Q22.1094,697.2344 21.4063,697.2344 Q18.9063,697.2344 17.5859,695.5859 Q16.2656,693.9375 16.2656,690.8125 Q16.2656,687.6875 17.5859,686.0313 Q18.9063,684.375 21.4063,684.375 Q22.1094,684.375 22.7578,684.5313 Q23.4063,684.6875 23.9688,684.9844 L23.9688,687.7031 Q23.3438,687.125 22.75,686.8516 Q22.1563,686.5781 21.5313,686.5781 Q20.1875,686.5781 19.5,687.6484 Q18.8125,688.7188 18.8125,690.8125 Q18.8125,692.9063 19.5,693.9766 Q20.1875,695.0469 21.5313,695.0469 Q22.1563,695.0469 22.75,694.7734 Q23.3438,694.5 23.9688,693.9219 L23.9688,696.6406 Z "/><text fill="#000000" font-family="sans-serif" font-size="12" lengthAdjust="spacingAndGlyphs" textLength="78" x="35" y="695.1543">Organization</text><line style="stroke: #A80036; stroke-width: 1.5;" x1="7" x2="115" y1="707" y2="707"/><rect fill="none" height="6" style="stroke: #C82930; stroke-width: 1.0;" width="6" x="14" y="715"/><text fill="#000000" font-family="sans-serif" font-size="11" lengthAdjust="spacingAndGlyphs" textLength="70" x="26" y="721.2104">String nome</text><rect fill="none" height="6" style="stroke: #C82930; stroke-width: 1.0;" width="6" x="14" y="727.8047"/><text fill="#000000" font-family="sans-serif" font-size="11" lengthAdjust="spacingAndGlyphs" textLength="69" x="26" y="734.0151">String email</text><rect fill="none" height="6" style="stroke: #C82930; stroke-width: 1.0;" width="6" x="14" y="740.6094"/><text fill="#000000" font-family="sans-serif" font-size="11" lengthAdjust="spacingAndGlyphs" textLength="55" x="26" y="746.8198">String NIF</text><line style="stroke: #A80036; stroke-width: 1.5;" x1="7" x2="115" y1="753.4141" y2="753.4141"/><!--MD5=[c92a301914785b9701ae4dd841eeae97]
class FacadeAuthorization--><rect fill="#FEFECE" filter="url(#f1kjpaktyx1qmf)" height="60.8047" id="FacadeAuthorization" style="stroke: #A80036; stroke-width: 1.5;" width="160" x="275" y="392.5"/><ellipse cx="290" cy="408.5" fill="#ADD1B2" rx="11" ry="11" style="stroke: #A80036; stroke-width: 1.0;"/><path d="M292.9688,414.1406 Q292.3906,414.4375 291.75,414.5859 Q291.1094,414.7344 290.4063,414.7344 Q287.9063,414.7344 286.5859,413.0859 Q285.2656,411.4375 285.2656,408.3125 Q285.2656,405.1875 286.5859,403.5313 Q287.9063,401.875 290.4063,401.875 Q291.1094,401.875 291.7578,402.0313 Q292.4063,402.1875 292.9688,402.4844 L292.9688,405.2031 Q292.3438,404.625 291.75,404.3516 Q291.1563,404.0781 290.5313,404.0781 Q289.1875,404.0781 288.5,405.1484 Q287.8125,406.2188 287.8125,408.3125 Q287.8125,410.4063 288.5,411.4766 Q289.1875,412.5469 290.5313,412.5469 Q291.1563,412.5469 291.75,412.2734 Q292.3438,412 292.9688,411.4219 L292.9688,414.1406 Z "/><text fill="#000000" font-family="sans-serif" font-size="12" lengthAdjust="spacingAndGlyphs" textLength="128" x="304" y="412.6543">FacadeAuthorization</text><line style="stroke: #A80036; stroke-width: 1.5;" x1="276" x2="434" y1="424.5" y2="424.5"/><line style="stroke: #A80036; stroke-width: 1.5;" x1="276" x2="434" y1="432.5" y2="432.5"/><ellipse cx="286" cy="443.5" fill="#84BE84" rx="3" ry="3" style="stroke: #038048; stroke-width: 1.0;"/><text fill="#000000" font-family="sans-serif" font-size="11" lengthAdjust="spacingAndGlyphs" textLength="99" x="295" y="446.7104">getUserSession()</text><!--MD5=[681bd264a5afbdbb7acc45dbd74a008f]
link WatchStatisticsUI to WatchStatisticsController--><path d="M266,56.2126 C266,72.1586 266,93.3253 266,111.2618 " fill="none" id="WatchStatisticsUI-&gt;WatchStatisticsController" style="stroke: #A80036; stroke-width: 1.0; stroke-dasharray: 7.0,7.0;"/><polygon fill="#A80036" points="266,116.7152,270,107.7152,266,111.7152,262,107.7152,266,116.7152" style="stroke: #A80036; stroke-width: 1.0;"/><!--MD5=[5634d1f2ffd6742e637ee3f5d81cd11b]
link WatchStatisticsController to ApplicationPOT--><path d="M281.4303,178.0201 C289.811,194.5968 300.3632,215.4683 309.8102,234.1541 " fill="none" id="WatchStatisticsController-&gt;ApplicationPOT" style="stroke: #A80036; stroke-width: 1.0; stroke-dasharray: 7.0,7.0;"/><polygon fill="#A80036" points="312.1862,238.8536,311.6951,229.017,309.9302,234.3915,304.5557,232.6266,312.1862,238.8536" style="stroke: #A80036; stroke-width: 1.0;"/><!--MD5=[a3147ce88a635d4643ae6077965016dc]
link WatchStatisticsController to Platform--><path d="M254.0738,178.0728 C247.5132,195.6923 239.594,218.3724 234,239 C220.9544,287.1048 210.6352,343.4933 204.4482,381.045 " fill="none" id="WatchStatisticsController-&gt;Platform" style="stroke: #A80036; stroke-width: 1.0; stroke-dasharray: 7.0,7.0;"/><polygon fill="#A80036" points="203.6399,385.9866,209.0403,377.7504,204.447,381.0522,201.1452,376.4589,203.6399,385.9866" style="stroke: #A80036; stroke-width: 1.0;"/><!--MD5=[c73f39b2b7c857c691dc93c12183c94f]
link WatchStatisticsController to UserSession--><path d="M357.643,178.0627 C386.5009,192.1624 415.6105,211.944 434,239 C495.1068,328.9051 470.2379,466.9551 453.5231,531.6798 " fill="none" id="WatchStatisticsController-&gt;UserSession" style="stroke: #A80036; stroke-width: 1.0; stroke-dasharray: 7.0,7.0;"/><polygon fill="#A80036" points="452.235,536.587,458.3891,528.8976,453.5045,531.7509,450.6512,526.8663,452.235,536.587" style="stroke: #A80036; stroke-width: 1.0;"/><!--MD5=[2ac7ee9d5f571fb40a3e9b7a8b69a183]
link WatchStatisticsController to RegisterOrganization--><path d="M242.396,178.059 C210.6707,221.4135 156.1565,304.5882 138,386 C126.8084,436.1819 140.8269,495.1618 152.7355,531.9434 " fill="none" id="WatchStatisticsController-&gt;RegisterOrganization" style="stroke: #A80036; stroke-width: 1.0; stroke-dasharray: 7.0,7.0;"/><polygon fill="#A80036" points="154.3243,536.7606,155.304,526.9606,152.7582,532.0122,147.7065,529.4664,154.3243,536.7606" style="stroke: #A80036; stroke-width: 1.0;"/><!--MD5=[5ac7a21f30a395131361a7e216f0d266]
link WatchStatisticsController to Organization--><path d="M170.8232,163.4608 C106.0391,180.4026 32,214.5249 32,282 C32,282 32,282 32,567.5 C32,602.2124 39.5306,640.6282 46.9168,669.959 " fill="none" id="WatchStatisticsController-&gt;Organization" style="stroke: #A80036; stroke-width: 1.0; stroke-dasharray: 7.0,7.0;"/><polygon fill="#A80036" points="48.1958,674.9558,49.8389,665.245,46.9558,670.112,42.0888,667.2289,48.1958,674.9558" style="stroke: #A80036; stroke-width: 1.0;"/><!--MD5=[f51ef758e70a5763d7cc4dbf4e3ec04c]
link WatchStatisticsController to FacadeAuthorization--><path d="M361.1412,158.5303 C422.7234,167.8521 494.8728,183.6458 514,208 C563.4943,271.02 473.9628,346.799 410.3805,389.482 " fill="none" id="WatchStatisticsController-&gt;FacadeAuthorization" style="stroke: #A80036; stroke-width: 1.0; stroke-dasharray: 7.0,7.0;"/><polygon fill="#A80036" points="405.8497,392.4973,415.5583,390.841,410.0122,389.7271,411.126,384.181,405.8497,392.4973" style="stroke: #A80036; stroke-width: 1.0;"/><!--MD5=[4b807d121e661cabe031d29ffdf91e81]
link ApplicationPOT to Platform--><path d="M292.4565,325.0708 C275.027,343.1411 254.8502,364.0598 237.6306,381.9124 " fill="none" id="ApplicationPOT-&gt;Platform" style="stroke: #A80036; stroke-width: 1.0; stroke-dasharray: 7.0,7.0;"/><polygon fill="#A80036" points="233.7768,385.9078,242.9039,382.207,237.248,382.3091,237.1459,376.6531,233.7768,385.9078" style="stroke: #A80036; stroke-width: 1.0;"/><!--MD5=[d1825128764562d69fae95bd724952fd]
link ApplicationPOT to FacadeAuthorization--><path d="M340.4148,325.0708 C343.3696,344.9102 346.8358,368.1829 349.6475,387.062 " fill="none" id="ApplicationPOT-&gt;FacadeAuthorization" style="stroke: #A80036; stroke-width: 1.0; stroke-dasharray: 7.0,7.0;"/><polygon fill="#A80036" points="350.4223,392.2638,353.0526,382.7727,349.6856,387.3184,345.1399,383.9514,350.4223,392.2638" style="stroke: #A80036; stroke-width: 1.0;"/><!--MD5=[a9ccfb21abaf09863fac9dabfab3f31b]
link FacadeAuthorization to UserSession--><path d="M373.6625,453.6447 C388.5964,478.1669 409.4376,512.389 424.3644,536.8994 " fill="none" id="FacadeAuthorization-UserSession" style="stroke: #A80036; stroke-width: 1.0;"/><text fill="#000000" font-family="sans-serif" font-size="13" lengthAdjust="spacingAndGlyphs" textLength="23" x="406" y="503.0669">has</text><text fill="#000000" font-family="sans-serif" font-size="13" lengthAdjust="spacingAndGlyphs" textLength="8" x="368.5492" y="473.2536">1</text><text fill="#000000" font-family="sans-serif" font-size="13" lengthAdjust="spacingAndGlyphs" textLength="8" x="411.6958" y="526.1419">1</text><!--MD5=[ac4cc276e9ceab0b214a306c222564f6]
link Platform to RegisterOrganization--><path d="M189.7592,460.2123 C184.5,483.9609 177.765,514.3735 172.8096,536.7503 " fill="none" id="Platform-RegisterOrganization" style="stroke: #A80036; stroke-width: 1.0;"/><text fill="#000000" font-family="sans-serif" font-size="13" lengthAdjust="spacingAndGlyphs" textLength="23" x="184" y="503.0669">has</text><text fill="#000000" font-family="sans-serif" font-size="13" lengthAdjust="spacingAndGlyphs" textLength="8" x="179.7318" y="479.728">1</text><text fill="#000000" font-family="sans-serif" font-size="13" lengthAdjust="spacingAndGlyphs" textLength="8" x="165.3891" y="525.962">1</text><!--MD5=[f099c38114634f7b0b0cd46ad2e921be]
link RegisterOrganization to Organization--><path d="M144.4983,598.3191 C129.0787,620.4205 108.101,650.4886 91.03,674.957 " fill="none" id="RegisterOrganization-Organization" style="stroke: #A80036; stroke-width: 1.0;"/><text fill="#000000" font-family="sans-serif" font-size="13" lengthAdjust="spacingAndGlyphs" textLength="23" x="124" y="641.0669">has</text><text fill="#000000" font-family="sans-serif" font-size="13" lengthAdjust="spacingAndGlyphs" textLength="8" x="131.4777" y="617.9624">1</text><text fill="#000000" font-family="sans-serif" font-size="13" lengthAdjust="spacingAndGlyphs" textLength="23" x="70.9832" y="663.9462">1..*</text><!--MD5=[33040c7def9653540ff5d5f07779938d]
@startuml
class WatchStatisticsUI{  
  
}

class WatchStatisticsController{
  +getFreelancers()
  }

class ApplicationPOT{
  +getInstance()
  +getPlatform()
  +getFacadeAuthorization()
  }

class Platform {
  +getST()
  +getrOrg()
  }

class UserSession {
  +getUserEmail()
  }

class RegisterOrganization{
  +getlOrg()
  }

class Organization {
  -String nome
  -String email
  -String NIF
  }



class FacadeAuthorization {  
  +getUserSession()
}



WatchStatisticsUI ..> WatchStatisticsController

WatchStatisticsController ..> ApplicationPOT
WatchStatisticsController ..> Platform
WatchStatisticsController ..> UserSession
WatchStatisticsController ..> RegisterOrganization
WatchStatisticsController ..> Organization
WatchStatisticsController ..> FacadeAuthorization

ApplicationPOT  ..> Platform
ApplicationPOT  ..> FacadeAuthorization

FacadeAuthorization "1"- - "1" UserSession: has


Platform "1" - - "1" RegisterOrganization : has

RegisterOrganization "1" - - "1..*" Organization : has
@enduml

PlantUML version 1.2019.12(Sun Nov 03 10:24:54 UTC 2019)
(GPL source distribution)
Java Runtime: OpenJDK Runtime Environment
JVM: OpenJDK 64-Bit Server VM
Java Version: 1.8.0_232-heroku-b09
Operating System: Linux
Default Encoding: UTF-8
Language: en
Country: US
--></g></svg>