<?xml version="1.0" encoding="UTF-8" standalone="no"?><svg xmlns="http://www.w3.org/2000/svg" xmlns:xlink="http://www.w3.org/1999/xlink" contentScriptType="application/ecmascript" contentStyleType="text/css" height="503px" preserveAspectRatio="none" style="width:248px;height:503px;" version="1.1" viewBox="0 0 248 503" width="248px" zoomAndPan="magnify"><defs><filter height="300%" id="f12qfgf04dqwmc" width="300%" x="-1" y="-1"><feGaussianBlur result="blurOut" stdDeviation="2.0"/><feColorMatrix in="blurOut" result="blurOut2" type="matrix" values="0 0 0 0 0 0 0 0 0 0 0 0 0 0 0 0 0 0 .4 0"/><feOffset dx="4.0" dy="4.0" in="blurOut2" result="blurOut3"/><feBlend in="SourceGraphic" in2="blurOut3" mode="normal"/></filter></defs><g><!--MD5=[3ed78abb7ad3a3fd83e44d4afd5ddf5d]
class WatchStatisticsController--><rect fill="#FEFECE" filter="url(#f12qfgf04dqwmc)" height="60.8047" id="WatchStatisticsController" style="stroke: #A80036; stroke-width: 1.5;" width="190" x="47" y="8"/><ellipse cx="62" cy="24" fill="#ADD1B2" rx="11" ry="11" style="stroke: #A80036; stroke-width: 1.0;"/><path d="M64.9688,29.6406 Q64.3906,29.9375 63.75,30.0859 Q63.1094,30.2344 62.4063,30.2344 Q59.9063,30.2344 58.5859,28.5859 Q57.2656,26.9375 57.2656,23.8125 Q57.2656,20.6875 58.5859,19.0313 Q59.9063,17.375 62.4063,17.375 Q63.1094,17.375 63.7578,17.5313 Q64.4063,17.6875 64.9688,17.9844 L64.9688,20.7031 Q64.3438,20.125 63.75,19.8516 Q63.1563,19.5781 62.5313,19.5781 Q61.1875,19.5781 60.5,20.6484 Q59.8125,21.7188 59.8125,23.8125 Q59.8125,25.9063 60.5,26.9766 Q61.1875,28.0469 62.5313,28.0469 Q63.1563,28.0469 63.75,27.7734 Q64.3438,27.5 64.9688,26.9219 L64.9688,29.6406 Z "/><text fill="#000000" font-family="sans-serif" font-size="12" lengthAdjust="spacingAndGlyphs" textLength="158" x="76" y="28.1543">WatchStatisticsController</text><line style="stroke: #A80036; stroke-width: 1.5;" x1="48" x2="236" y1="40" y2="40"/><line style="stroke: #A80036; stroke-width: 1.5;" x1="48" x2="236" y1="48" y2="48"/><ellipse cx="58" cy="59" fill="#84BE84" rx="3" ry="3" style="stroke: #038048; stroke-width: 1.0;"/><text fill="#000000" font-family="sans-serif" font-size="11" lengthAdjust="spacingAndGlyphs" textLength="59" x="67" y="62.2104">add(trans)</text><!--MD5=[86c7c362de55a38b660185a1328fe18d]
class Organization--><rect fill="#FEFECE" filter="url(#f12qfgf04dqwmc)" height="60.8047" id="Organization" style="stroke: #A80036; stroke-width: 1.5;" width="110" x="6" y="130"/><ellipse cx="21" cy="146" fill="#ADD1B2" rx="11" ry="11" style="stroke: #A80036; stroke-width: 1.0;"/><path d="M23.9688,151.6406 Q23.3906,151.9375 22.75,152.0859 Q22.1094,152.2344 21.4063,152.2344 Q18.9063,152.2344 17.5859,150.5859 Q16.2656,148.9375 16.2656,145.8125 Q16.2656,142.6875 17.5859,141.0313 Q18.9063,139.375 21.4063,139.375 Q22.1094,139.375 22.7578,139.5313 Q23.4063,139.6875 23.9688,139.9844 L23.9688,142.7031 Q23.3438,142.125 22.75,141.8516 Q22.1563,141.5781 21.5313,141.5781 Q20.1875,141.5781 19.5,142.6484 Q18.8125,143.7188 18.8125,145.8125 Q18.8125,147.9063 19.5,148.9766 Q20.1875,150.0469 21.5313,150.0469 Q22.1563,150.0469 22.75,149.7734 Q23.3438,149.5 23.9688,148.9219 L23.9688,151.6406 Z "/><text fill="#000000" font-family="sans-serif" font-size="12" lengthAdjust="spacingAndGlyphs" textLength="78" x="35" y="150.1543">Organization</text><line style="stroke: #A80036; stroke-width: 1.5;" x1="7" x2="115" y1="162" y2="162"/><line style="stroke: #A80036; stroke-width: 1.5;" x1="7" x2="115" y1="170" y2="170"/><ellipse cx="17" cy="181" fill="#84BE84" rx="3" ry="3" style="stroke: #038048; stroke-width: 1.0;"/><text fill="#000000" font-family="sans-serif" font-size="11" lengthAdjust="spacingAndGlyphs" textLength="66" x="26" y="184.2104">getRTrans()</text><!--MD5=[f6ed7daa03e434106607816c975112f0]
class RegisterTransaction--><rect fill="#FEFECE" filter="url(#f12qfgf04dqwmc)" height="60.8047" id="RegisterTransaction" style="stroke: #A80036; stroke-width: 1.5;" width="158" x="36" y="268"/><ellipse cx="51" cy="284" fill="#ADD1B2" rx="11" ry="11" style="stroke: #A80036; stroke-width: 1.0;"/><path d="M53.9688,289.6406 Q53.3906,289.9375 52.75,290.0859 Q52.1094,290.2344 51.4063,290.2344 Q48.9063,290.2344 47.5859,288.5859 Q46.2656,286.9375 46.2656,283.8125 Q46.2656,280.6875 47.5859,279.0313 Q48.9063,277.375 51.4063,277.375 Q52.1094,277.375 52.7578,277.5313 Q53.4063,277.6875 53.9688,277.9844 L53.9688,280.7031 Q53.3438,280.125 52.75,279.8516 Q52.1563,279.5781 51.5313,279.5781 Q50.1875,279.5781 49.5,280.6484 Q48.8125,281.7188 48.8125,283.8125 Q48.8125,285.9063 49.5,286.9766 Q50.1875,288.0469 51.5313,288.0469 Q52.1563,288.0469 52.75,287.7734 Q53.3438,287.5 53.9688,286.9219 L53.9688,289.6406 Z "/><text fill="#000000" font-family="sans-serif" font-size="12" lengthAdjust="spacingAndGlyphs" textLength="126" x="65" y="288.1543">RegisterTransaction</text><line style="stroke: #A80036; stroke-width: 1.5;" x1="37" x2="193" y1="300" y2="300"/><line style="stroke: #A80036; stroke-width: 1.5;" x1="37" x2="193" y1="308" y2="308"/><ellipse cx="47" cy="319" fill="#84BE84" rx="3" ry="3" style="stroke: #038048; stroke-width: 1.0;"/><text fill="#000000" font-family="sans-serif" font-size="11" lengthAdjust="spacingAndGlyphs" textLength="100" x="56" y="322.2104">getTransactions()</text><!--MD5=[4045d6f6a06909f8c0c16b57fdb55c63]
class TransactionExecution--><rect fill="#FEFECE" filter="url(#f12qfgf04dqwmc)" height="86.4141" id="TransactionExecution" style="stroke: #A80036; stroke-width: 1.5;" width="179" x="25.5" y="406"/><ellipse cx="45.9" cy="422" fill="#ADD1B2" rx="11" ry="11" style="stroke: #A80036; stroke-width: 1.0;"/><path d="M48.8688,427.6406 Q48.2906,427.9375 47.65,428.0859 Q47.0094,428.2344 46.3063,428.2344 Q43.8063,428.2344 42.4859,426.5859 Q41.1656,424.9375 41.1656,421.8125 Q41.1656,418.6875 42.4859,417.0313 Q43.8063,415.375 46.3063,415.375 Q47.0094,415.375 47.6578,415.5313 Q48.3063,415.6875 48.8688,415.9844 L48.8688,418.7031 Q48.2438,418.125 47.65,417.8516 Q47.0563,417.5781 46.4313,417.5781 Q45.0875,417.5781 44.4,418.6484 Q43.7125,419.7188 43.7125,421.8125 Q43.7125,423.9063 44.4,424.9766 Q45.0875,426.0469 46.4313,426.0469 Q47.0563,426.0469 47.65,425.7734 Q48.2438,425.5 48.8688,424.9219 L48.8688,427.6406 Z "/><text fill="#000000" font-family="sans-serif" font-size="12" lengthAdjust="spacingAndGlyphs" textLength="135" x="61.1" y="426.1543">TransactionExecution</text><line style="stroke: #A80036; stroke-width: 1.5;" x1="26.5" x2="203.5" y1="438" y2="438"/><rect fill="none" height="6" style="stroke: #C82930; stroke-width: 1.0;" width="6" x="33.5" y="446"/><text fill="#000000" font-family="sans-serif" font-size="11" lengthAdjust="spacingAndGlyphs" textLength="77" x="45.5" y="452.2104">Data endDate</text><rect fill="none" height="6" style="stroke: #C82930; stroke-width: 1.0;" width="6" x="33.5" y="458.8047"/><text fill="#000000" font-family="sans-serif" font-size="11" lengthAdjust="spacingAndGlyphs" textLength="72" x="45.5" y="465.0151">double delay</text><rect fill="none" height="6" style="stroke: #C82930; stroke-width: 1.0;" width="6" x="33.5" y="471.6094"/><text fill="#000000" font-family="sans-serif" font-size="11" lengthAdjust="spacingAndGlyphs" textLength="153" x="45.5" y="477.8198">String descriptionOfQuality</text><line style="stroke: #A80036; stroke-width: 1.5;" x1="26.5" x2="203.5" y1="484.4141" y2="484.4141"/><!--MD5=[5ac7a21f30a395131361a7e216f0d266]
link WatchStatisticsController to Organization--><path d="M121.5603,69.2858 C110.2406,86.3352 96.1238,107.5975 84.3679,125.3038 " fill="none" id="WatchStatisticsController-&gt;Organization" style="stroke: #A80036; stroke-width: 1.0; stroke-dasharray: 7.0,7.0;"/><polygon fill="#A80036" points="81.4332,129.7241,89.7437,124.4388,84.1989,125.5586,83.079,120.0137,81.4332,129.7241" style="stroke: #A80036; stroke-width: 1.0;"/><!--MD5=[9902323caa82453da688fe66dc60835f]
link WatchStatisticsController to RegisterTransaction--><path d="M141.4914,69.2615 C140.7217,100.1269 138.7966,148.9861 134,191 C131.2651,214.9555 126.5562,241.6496 122.5107,262.4445 " fill="none" id="WatchStatisticsController-&gt;RegisterTransaction" style="stroke: #A80036; stroke-width: 1.0; stroke-dasharray: 7.0,7.0;"/><polygon fill="#A80036" points="121.498,267.599,127.1579,259.5389,122.4618,262.6928,119.3079,257.9967,121.498,267.599" style="stroke: #A80036; stroke-width: 1.0;"/><!--MD5=[1cee15229ba43e7dfa4358cbff3c895a]
link Organization to RegisterTransaction--><path d="M72.9844,191.1267 C81.9331,213.9956 94.1085,245.1106 103.0492,267.9589 " fill="none" id="Organization-RegisterTransaction" style="stroke: #A80036; stroke-width: 1.0;"/><text fill="#000000" font-family="sans-serif" font-size="13" lengthAdjust="spacingAndGlyphs" textLength="23" x="93" y="234.0669">has</text><text fill="#000000" font-family="sans-serif" font-size="13" lengthAdjust="spacingAndGlyphs" textLength="8" x="66.6312" y="211.0911">1</text><text fill="#000000" font-family="sans-serif" font-size="13" lengthAdjust="spacingAndGlyphs" textLength="8" x="91.56" y="256.7402">1</text><!--MD5=[1d0ba793ebf64dcf1aa20e2f414a81a9]
link RegisterTransaction to TransactionExecution--><path d="M115,329.3191 C115,351.4205 115,381.4886 115,405.957 " fill="none" id="RegisterTransaction-TransactionExecution" style="stroke: #A80036; stroke-width: 1.0;"/><text fill="#000000" font-family="sans-serif" font-size="13" lengthAdjust="spacingAndGlyphs" textLength="23" x="116" y="372.0669">has</text><text fill="#000000" font-family="sans-serif" font-size="13" lengthAdjust="spacingAndGlyphs" textLength="8" x="106.2125" y="348.9624">1</text><text fill="#000000" font-family="sans-serif" font-size="13" lengthAdjust="spacingAndGlyphs" textLength="23" x="90.1672" y="394.9462">1..*</text><!--MD5=[b68212bd7edf889a08ed47b6ee59ab6b]
@startuml
class WatchStatisticsController{
  +add(trans)
  }

class Organization {
  +getRTrans()
  }

class RegisterTransaction{
  +getTransactions()
  }

class TransactionExecution{
  -Data endDate
-double delay
-String descriptionOfQuality
  }

WatchStatisticsController ..>Organization
WatchStatisticsController ..>RegisterTransaction

Organization "1" - - "1" RegisterTransaction: has

RegisterTransaction "1" - - "1..*" TransactionExecution : has
@enduml

PlantUML version 1.2019.12(Sun Nov 03 10:24:54 UTC 2019)
(GPL source distribution)
Java Runtime: OpenJDK Runtime Environment
JVM: OpenJDK 64-Bit Server VM
Java Version: 1.8.0_232-heroku-b09
Operating System: Linux
Default Encoding: UTF-8
Language: en
Country: US
--></g></svg>