<?xml version="1.0" encoding="UTF-8" standalone="no"?><svg xmlns="http://www.w3.org/2000/svg" xmlns:xlink="http://www.w3.org/1999/xlink" contentScriptType="application/ecmascript" contentStyleType="text/css" height="297px" preserveAspectRatio="none" style="width:1523px;height:297px;" version="1.1" viewBox="0 0 1523 297" width="1523px" zoomAndPan="magnify"><defs><filter height="300%" id="f1niuz35v4abrb" width="300%" x="-1" y="-1"><feGaussianBlur result="blurOut" stdDeviation="2.0"/><feColorMatrix in="blurOut" result="blurOut2" type="matrix" values="0 0 0 0 0 0 0 0 0 0 0 0 0 0 0 0 0 0 .4 0"/><feOffset dx="4.0" dy="4.0" in="blurOut2" result="blurOut3"/><feBlend in="SourceGraphic" in2="blurOut3" mode="normal"/></filter></defs><g><!--MD5=[f483d6e5de34a60207b28a5563be5e8b]
class Collaborator--><rect fill="#FEFECE" filter="url(#f1niuz35v4abrb)" height="86.4141" id="Collaborator" style="stroke: #A80036; stroke-width: 1.5;" width="109" x="409" y="117"/><ellipse cx="424" cy="133" fill="#ADD1B2" rx="11" ry="11" style="stroke: #A80036; stroke-width: 1.0;"/><path d="M426.9688,138.6406 Q426.3906,138.9375 425.75,139.0859 Q425.1094,139.2344 424.4063,139.2344 Q421.9063,139.2344 420.5859,137.5859 Q419.2656,135.9375 419.2656,132.8125 Q419.2656,129.6875 420.5859,128.0313 Q421.9063,126.375 424.4063,126.375 Q425.1094,126.375 425.7578,126.5313 Q426.4063,126.6875 426.9688,126.9844 L426.9688,129.7031 Q426.3438,129.125 425.75,128.8516 Q425.1563,128.5781 424.5313,128.5781 Q423.1875,128.5781 422.5,129.6484 Q421.8125,130.7188 421.8125,132.8125 Q421.8125,134.9063 422.5,135.9766 Q423.1875,137.0469 424.5313,137.0469 Q425.1563,137.0469 425.75,136.7734 Q426.3438,136.5 426.9688,135.9219 L426.9688,138.6406 Z "/><text fill="#000000" font-family="sans-serif" font-size="12" lengthAdjust="spacingAndGlyphs" textLength="77" x="438" y="137.1543">Collaborator</text><line style="stroke: #A80036; stroke-width: 1.5;" x1="410" x2="517" y1="149" y2="149"/><rect fill="none" height="6" style="stroke: #C82930; stroke-width: 1.0;" width="6" x="417" y="157"/><text fill="#000000" font-family="sans-serif" font-size="11" lengthAdjust="spacingAndGlyphs" textLength="78" x="429" y="163.2104">String nameC</text><rect fill="none" height="6" style="stroke: #C82930; stroke-width: 1.0;" width="6" x="417" y="169.8047"/><text fill="#000000" font-family="sans-serif" font-size="11" lengthAdjust="spacingAndGlyphs" textLength="77" x="429" y="176.0151">String emailC</text><rect fill="none" height="6" style="stroke: #C82930; stroke-width: 1.0;" width="6" x="417" y="182.6094"/><text fill="#000000" font-family="sans-serif" font-size="11" lengthAdjust="spacingAndGlyphs" textLength="60" x="429" y="188.8198">String role</text><line style="stroke: #A80036; stroke-width: 1.5;" x1="410" x2="517" y1="195.4141" y2="195.4141"/><!--MD5=[4045d6f6a06909f8c0c16b57fdb55c63]
class TransactionExecution--><rect fill="#FEFECE" filter="url(#f1niuz35v4abrb)" height="99.2188" id="TransactionExecution" style="stroke: #A80036; stroke-width: 1.5;" width="179" x="628" y="8.5"/><ellipse cx="648.4" cy="24.5" fill="#ADD1B2" rx="11" ry="11" style="stroke: #A80036; stroke-width: 1.0;"/><path d="M651.3688,30.1406 Q650.7906,30.4375 650.15,30.5859 Q649.5094,30.7344 648.8063,30.7344 Q646.3063,30.7344 644.9859,29.0859 Q643.6656,27.4375 643.6656,24.3125 Q643.6656,21.1875 644.9859,19.5313 Q646.3063,17.875 648.8063,17.875 Q649.5094,17.875 650.1578,18.0313 Q650.8063,18.1875 651.3688,18.4844 L651.3688,21.2031 Q650.7438,20.625 650.15,20.3516 Q649.5563,20.0781 648.9313,20.0781 Q647.5875,20.0781 646.9,21.1484 Q646.2125,22.2188 646.2125,24.3125 Q646.2125,26.4063 646.9,27.4766 Q647.5875,28.5469 648.9313,28.5469 Q649.5563,28.5469 650.15,28.2734 Q650.7438,28 651.3688,27.4219 L651.3688,30.1406 Z "/><text fill="#000000" font-family="sans-serif" font-size="12" lengthAdjust="spacingAndGlyphs" textLength="135" x="663.6" y="28.6543">TransactionExecution</text><line style="stroke: #A80036; stroke-width: 1.5;" x1="629" x2="806" y1="40.5" y2="40.5"/><rect fill="none" height="6" style="stroke: #C82930; stroke-width: 1.0;" width="6" x="636" y="48.5"/><text fill="#000000" font-family="sans-serif" font-size="11" lengthAdjust="spacingAndGlyphs" textLength="77" x="648" y="54.7104">Date endDate</text><rect fill="none" height="6" style="stroke: #C82930; stroke-width: 1.0;" width="6" x="636" y="61.3047"/><text fill="#000000" font-family="sans-serif" font-size="11" lengthAdjust="spacingAndGlyphs" textLength="72" x="648" y="67.5151">double delay</text><rect fill="none" height="6" style="stroke: #C82930; stroke-width: 1.0;" width="6" x="636" y="74.1094"/><text fill="#000000" font-family="sans-serif" font-size="11" lengthAdjust="spacingAndGlyphs" textLength="153" x="648" y="80.3198">String descriptionOfQuality</text><rect fill="none" height="6" style="stroke: #C82930; stroke-width: 1.0;" width="6" x="636" y="86.9141"/><text fill="#000000" font-family="sans-serif" font-size="11" lengthAdjust="spacingAndGlyphs" textLength="59" x="648" y="93.1245">int transID</text><line style="stroke: #A80036; stroke-width: 1.5;" x1="629" x2="806" y1="99.7188" y2="99.7188"/><!--MD5=[b34797a66dc35cbf1d65f7e3ca75530e]
class Task--><rect fill="#FEFECE" filter="url(#f1niuz35v4abrb)" height="137.6328" id="Task" style="stroke: #A80036; stroke-width: 1.5;" width="139" x="917" y="75"/><ellipse cx="967.75" cy="91" fill="#ADD1B2" rx="11" ry="11" style="stroke: #A80036; stroke-width: 1.0;"/><path d="M970.7188,96.6406 Q970.1406,96.9375 969.5,97.0859 Q968.8594,97.2344 968.1563,97.2344 Q965.6563,97.2344 964.3359,95.5859 Q963.0156,93.9375 963.0156,90.8125 Q963.0156,87.6875 964.3359,86.0313 Q965.6563,84.375 968.1563,84.375 Q968.8594,84.375 969.5078,84.5313 Q970.1563,84.6875 970.7188,84.9844 L970.7188,87.7031 Q970.0938,87.125 969.5,86.8516 Q968.9063,86.5781 968.2813,86.5781 Q966.9375,86.5781 966.25,87.6484 Q965.5625,88.7188 965.5625,90.8125 Q965.5625,92.9063 966.25,93.9766 Q966.9375,95.0469 968.2813,95.0469 Q968.9063,95.0469 969.5,94.7734 Q970.0938,94.5 970.7188,93.9219 L970.7188,96.6406 Z "/><text fill="#000000" font-family="sans-serif" font-size="12" lengthAdjust="spacingAndGlyphs" textLength="29" x="988.25" y="95.1543">Task</text><line style="stroke: #A80036; stroke-width: 1.5;" x1="918" x2="1055" y1="107" y2="107"/><rect fill="none" height="6" style="stroke: #C82930; stroke-width: 1.0;" width="6" x="925" y="115"/><text fill="#000000" font-family="sans-serif" font-size="11" lengthAdjust="spacingAndGlyphs" textLength="75" x="937" y="121.2104">String idTask</text><rect fill="none" height="6" style="stroke: #C82930; stroke-width: 1.0;" width="6" x="925" y="127.8047"/><text fill="#000000" font-family="sans-serif" font-size="11" lengthAdjust="spacingAndGlyphs" textLength="101" x="937" y="134.0151">String description</text><rect fill="none" height="6" style="stroke: #C82930; stroke-width: 1.0;" width="6" x="925" y="140.6094"/><text fill="#000000" font-family="sans-serif" font-size="11" lengthAdjust="spacingAndGlyphs" textLength="70" x="937" y="146.8198">int timeTask</text><rect fill="none" height="6" style="stroke: #C82930; stroke-width: 1.0;" width="6" x="925" y="153.4141"/><text fill="#000000" font-family="sans-serif" font-size="11" lengthAdjust="spacingAndGlyphs" textLength="93" x="937" y="159.6245">double costHour</text><rect fill="none" height="6" style="stroke: #C82930; stroke-width: 1.0;" width="6" x="925" y="166.2188"/><text fill="#000000" font-family="sans-serif" font-size="11" lengthAdjust="spacingAndGlyphs" textLength="113" x="937" y="172.4292">String taskCategory</text><rect fill="none" height="6" style="stroke: #C82930; stroke-width: 1.0;" width="6" x="925" y="179.0234"/><text fill="#000000" font-family="sans-serif" font-size="11" lengthAdjust="spacingAndGlyphs" textLength="93" x="937" y="185.2339">boolean isPayed</text><rect fill="none" height="6" style="stroke: #C82930; stroke-width: 1.0;" width="6" x="925" y="191.8281"/><text fill="#000000" font-family="sans-serif" font-size="11" lengthAdjust="spacingAndGlyphs" textLength="106" x="937" y="198.0386">boolean isFinished</text><line style="stroke: #A80036; stroke-width: 1.5;" x1="918" x2="1055" y1="204.6328" y2="204.6328"/><!--MD5=[764fca796ce7f635542948d8fc39db5e]
class Payment--><rect fill="#FEFECE" filter="url(#f1niuz35v4abrb)" height="73.6094" id="Payment" style="stroke: #A80036; stroke-width: 1.5;" width="106" x="1406" y="46"/><ellipse cx="1430" cy="62" fill="#ADD1B2" rx="11" ry="11" style="stroke: #A80036; stroke-width: 1.0;"/><path d="M1432.9688,67.6406 Q1432.3906,67.9375 1431.75,68.0859 Q1431.1094,68.2344 1430.4063,68.2344 Q1427.9063,68.2344 1426.5859,66.5859 Q1425.2656,64.9375 1425.2656,61.8125 Q1425.2656,58.6875 1426.5859,57.0313 Q1427.9063,55.375 1430.4063,55.375 Q1431.1094,55.375 1431.7578,55.5313 Q1432.4063,55.6875 1432.9688,55.9844 L1432.9688,58.7031 Q1432.3438,58.125 1431.75,57.8516 Q1431.1563,57.5781 1430.5313,57.5781 Q1429.1875,57.5781 1428.5,58.6484 Q1427.8125,59.7188 1427.8125,61.8125 Q1427.8125,63.9063 1428.5,64.9766 Q1429.1875,66.0469 1430.5313,66.0469 Q1431.1563,66.0469 1431.75,65.7734 Q1432.3438,65.5 1432.9688,64.9219 L1432.9688,67.6406 Z "/><text fill="#000000" font-family="sans-serif" font-size="12" lengthAdjust="spacingAndGlyphs" textLength="54" x="1446" y="66.1543">Payment</text><line style="stroke: #A80036; stroke-width: 1.5;" x1="1407" x2="1511" y1="78" y2="78"/><rect fill="none" height="6" style="stroke: #C82930; stroke-width: 1.0;" width="6" x="1414" y="86"/><text fill="#000000" font-family="sans-serif" font-size="11" lengthAdjust="spacingAndGlyphs" textLength="79" x="1426" y="92.2104">double valueE</text><rect fill="none" height="6" style="stroke: #C82930; stroke-width: 1.0;" width="6" x="1414" y="98.8047"/><text fill="#000000" font-family="sans-serif" font-size="11" lengthAdjust="spacingAndGlyphs" textLength="80" x="1426" y="105.0151">double valueC</text><line style="stroke: #A80036; stroke-width: 1.5;" x1="1407" x2="1511" y1="111.6094" y2="111.6094"/><!--MD5=[1f687b5315377fe49fca59b457947463]
class Freelancer--><rect fill="#FEFECE" filter="url(#f1niuz35v4abrb)" height="137.6328" id="Freelancer" style="stroke: #A80036; stroke-width: 1.5;" width="110" x="1181" y="75"/><ellipse cx="1200.95" cy="91" fill="#ADD1B2" rx="11" ry="11" style="stroke: #A80036; stroke-width: 1.0;"/><path d="M1203.9188,96.6406 Q1203.3406,96.9375 1202.7,97.0859 Q1202.0594,97.2344 1201.3563,97.2344 Q1198.8563,97.2344 1197.5359,95.5859 Q1196.2156,93.9375 1196.2156,90.8125 Q1196.2156,87.6875 1197.5359,86.0313 Q1198.8563,84.375 1201.3563,84.375 Q1202.0594,84.375 1202.7078,84.5313 Q1203.3563,84.6875 1203.9188,84.9844 L1203.9188,87.7031 Q1203.2938,87.125 1202.7,86.8516 Q1202.1063,86.5781 1201.4813,86.5781 Q1200.1375,86.5781 1199.45,87.6484 Q1198.7625,88.7188 1198.7625,90.8125 Q1198.7625,92.9063 1199.45,93.9766 Q1200.1375,95.0469 1201.4813,95.0469 Q1202.1063,95.0469 1202.7,94.7734 Q1203.2938,94.5 1203.9188,93.9219 L1203.9188,96.6406 Z "/><text fill="#000000" font-family="sans-serif" font-size="12" lengthAdjust="spacingAndGlyphs" textLength="67" x="1216.05" y="95.1543">Freelancer</text><line style="stroke: #A80036; stroke-width: 1.5;" x1="1182" x2="1290" y1="107" y2="107"/><rect fill="none" height="6" style="stroke: #C82930; stroke-width: 1.0;" width="6" x="1189" y="115"/><text fill="#000000" font-family="sans-serif" font-size="11" lengthAdjust="spacingAndGlyphs" textLength="72" x="1201" y="121.2104">String freeID</text><rect fill="none" height="6" style="stroke: #C82930; stroke-width: 1.0;" width="6" x="1189" y="127.8047"/><text fill="#000000" font-family="sans-serif" font-size="11" lengthAdjust="spacingAndGlyphs" textLength="70" x="1201" y="134.0151">String name</text><rect fill="none" height="6" style="stroke: #C82930; stroke-width: 1.0;" width="6" x="1189" y="140.6094"/><text fill="#000000" font-family="sans-serif" font-size="11" lengthAdjust="spacingAndGlyphs" textLength="84" x="1201" y="146.8198">String levelExp</text><rect fill="none" height="6" style="stroke: #C82930; stroke-width: 1.0;" width="6" x="1189" y="153.4141"/><text fill="#000000" font-family="sans-serif" font-size="11" lengthAdjust="spacingAndGlyphs" textLength="69" x="1201" y="159.6245">String email</text><rect fill="none" height="6" style="stroke: #C82930; stroke-width: 1.0;" width="6" x="1189" y="166.2188"/><text fill="#000000" font-family="sans-serif" font-size="11" lengthAdjust="spacingAndGlyphs" textLength="52" x="1201" y="172.4292">String nif</text><rect fill="none" height="6" style="stroke: #C82930; stroke-width: 1.0;" width="6" x="1189" y="179.0234"/><text fill="#000000" font-family="sans-serif" font-size="11" lengthAdjust="spacingAndGlyphs" textLength="62" x="1201" y="185.2339">String iban</text><rect fill="none" height="6" style="stroke: #C82930; stroke-width: 1.0;" width="6" x="1189" y="191.8281"/><text fill="#000000" font-family="sans-serif" font-size="11" lengthAdjust="spacingAndGlyphs" textLength="80" x="1201" y="198.0386">String country</text><line style="stroke: #A80036; stroke-width: 1.5;" x1="1182" x2="1290" y1="204.6328" y2="204.6328"/><!--MD5=[99b8db98afdc2c8404e39242ef4c1e65]
class Platform--><rect fill="#FEFECE" filter="url(#f1niuz35v4abrb)" height="48" id="Platform" style="stroke: #A80036; stroke-width: 1.5;" width="84" x="6" y="210"/><ellipse cx="21" cy="226" fill="#ADD1B2" rx="11" ry="11" style="stroke: #A80036; stroke-width: 1.0;"/><path d="M23.9688,231.6406 Q23.3906,231.9375 22.75,232.0859 Q22.1094,232.2344 21.4063,232.2344 Q18.9063,232.2344 17.5859,230.5859 Q16.2656,228.9375 16.2656,225.8125 Q16.2656,222.6875 17.5859,221.0313 Q18.9063,219.375 21.4063,219.375 Q22.1094,219.375 22.7578,219.5313 Q23.4063,219.6875 23.9688,219.9844 L23.9688,222.7031 Q23.3438,222.125 22.75,221.8516 Q22.1563,221.5781 21.5313,221.5781 Q20.1875,221.5781 19.5,222.6484 Q18.8125,223.7188 18.8125,225.8125 Q18.8125,227.9063 19.5,228.9766 Q20.1875,230.0469 21.5313,230.0469 Q22.1563,230.0469 22.75,229.7734 Q23.3438,229.5 23.9688,228.9219 L23.9688,231.6406 Z "/><text fill="#000000" font-family="sans-serif" font-size="12" lengthAdjust="spacingAndGlyphs" textLength="52" x="35" y="230.1543">Platform</text><line style="stroke: #A80036; stroke-width: 1.5;" x1="7" x2="89" y1="242" y2="242"/><line style="stroke: #A80036; stroke-width: 1.5;" x1="7" x2="89" y1="250" y2="250"/><!--MD5=[da547346deef918ea16944ba046651ef]
class Administrator--><rect fill="#FEFECE" filter="url(#f1niuz35v4abrb)" height="48" id="Administrator" style="stroke: #A80036; stroke-width: 1.5;" width="116" x="175" y="210"/><ellipse cx="190" cy="226" fill="#ADD1B2" rx="11" ry="11" style="stroke: #A80036; stroke-width: 1.0;"/><path d="M192.9688,231.6406 Q192.3906,231.9375 191.75,232.0859 Q191.1094,232.2344 190.4063,232.2344 Q187.9063,232.2344 186.5859,230.5859 Q185.2656,228.9375 185.2656,225.8125 Q185.2656,222.6875 186.5859,221.0313 Q187.9063,219.375 190.4063,219.375 Q191.1094,219.375 191.7578,219.5313 Q192.4063,219.6875 192.9688,219.9844 L192.9688,222.7031 Q192.3438,222.125 191.75,221.8516 Q191.1563,221.5781 190.5313,221.5781 Q189.1875,221.5781 188.5,222.6484 Q187.8125,223.7188 187.8125,225.8125 Q187.8125,227.9063 188.5,228.9766 Q189.1875,230.0469 190.5313,230.0469 Q191.1563,230.0469 191.75,229.7734 Q192.3438,229.5 192.9688,228.9219 L192.9688,231.6406 Z "/><text fill="#000000" font-family="sans-serif" font-size="12" lengthAdjust="spacingAndGlyphs" textLength="84" x="204" y="230.1543">Administrator</text><line style="stroke: #A80036; stroke-width: 1.5;" x1="176" x2="290" y1="242" y2="242"/><line style="stroke: #A80036; stroke-width: 1.5;" x1="176" x2="290" y1="250" y2="250"/><!--MD5=[3fd616f346a44cd59a91eb10b19e157c]
class User--><rect fill="#FEFECE" filter="url(#f1niuz35v4abrb)" height="48" id="User" style="stroke: #A80036; stroke-width: 1.5;" width="61" x="433" y="238"/><ellipse cx="448" cy="254" fill="#ADD1B2" rx="11" ry="11" style="stroke: #A80036; stroke-width: 1.0;"/><path d="M450.9688,259.6406 Q450.3906,259.9375 449.75,260.0859 Q449.1094,260.2344 448.4063,260.2344 Q445.9063,260.2344 444.5859,258.5859 Q443.2656,256.9375 443.2656,253.8125 Q443.2656,250.6875 444.5859,249.0313 Q445.9063,247.375 448.4063,247.375 Q449.1094,247.375 449.7578,247.5313 Q450.4063,247.6875 450.9688,247.9844 L450.9688,250.7031 Q450.3438,250.125 449.75,249.8516 Q449.1563,249.5781 448.5313,249.5781 Q447.1875,249.5781 446.5,250.6484 Q445.8125,251.7188 445.8125,253.8125 Q445.8125,255.9063 446.5,256.9766 Q447.1875,258.0469 448.5313,258.0469 Q449.1563,258.0469 449.75,257.7734 Q450.3438,257.5 450.9688,256.9219 L450.9688,259.6406 Z "/><text fill="#000000" font-family="sans-serif" font-size="12" lengthAdjust="spacingAndGlyphs" textLength="29" x="462" y="258.1543">User</text><line style="stroke: #A80036; stroke-width: 1.5;" x1="434" x2="493" y1="270" y2="270"/><line style="stroke: #A80036; stroke-width: 1.5;" x1="434" x2="493" y1="278" y2="278"/><!--MD5=[0f7004bed4496639b3a5258ab2ead378]
link Platform to Administrator--><path d="M90.4427,234 C115.5117,234 147.6002,234 174.9833,234 " fill="none" id="Platform-Administrator" style="stroke: #A80036; stroke-width: 1.0;"/><text fill="#000000" font-family="sans-serif" font-size="13" lengthAdjust="spacingAndGlyphs" textLength="23" x="121" y="230.0669">has</text><text fill="#000000" font-family="sans-serif" font-size="13" lengthAdjust="spacingAndGlyphs" textLength="8" x="98.1348" y="247.3201">1</text><text fill="#000000" font-family="sans-serif" font-size="13" lengthAdjust="spacingAndGlyphs" textLength="8" x="159.0374" y="247.0363">1</text><!--MD5=[edc107c0a572352bcd12c9afaba4390b]
link Administrator to User--><path d="M291.1649,241.0656 C336.2428,246.5414 396.9085,253.9108 432.936,258.2872 " fill="none" id="Administrator-User" style="stroke: #A80036; stroke-width: 1.0;"/><text fill="#000000" font-family="sans-serif" font-size="13" lengthAdjust="spacingAndGlyphs" textLength="46" x="327" y="241.0669">acts as</text><text fill="#000000" font-family="sans-serif" font-size="13" lengthAdjust="spacingAndGlyphs" textLength="8" x="299.1298" y="255.0072">1</text><text fill="#000000" font-family="sans-serif" font-size="13" lengthAdjust="spacingAndGlyphs" textLength="8" x="416.9431" y="271.2452">1</text><!--MD5=[757406b2e460220911d4cccaa97c87d9]
link Administrator to Collaborator--><path d="M291.1649,215.3267 C327.3072,203.7235 373.4701,188.9033 408.9204,177.5223 " fill="none" id="Administrator-Collaborator" style="stroke: #A80036; stroke-width: 1.0;"/><text fill="#000000" font-family="sans-serif" font-size="13" lengthAdjust="spacingAndGlyphs" textLength="56" x="322" y="184.0669">registers</text><text fill="#000000" font-family="sans-serif" font-size="13" lengthAdjust="spacingAndGlyphs" textLength="8" x="299.1298" y="225.9705">1</text><text fill="#000000" font-family="sans-serif" font-size="13" lengthAdjust="spacingAndGlyphs" textLength="23" x="377.8669" y="192.6216">1..*</text><!--MD5=[2ab7a6a303d213bb8ebe4ab6162585db]
link Collaborator to TransactionExecution--><path d="M518.3015,137.9931 C550.24,125.1674 591.3008,108.6784 627.8367,94.0065 " fill="none" id="Collaborator-TransactionExecution" style="stroke: #A80036; stroke-width: 1.0;"/><text fill="#000000" font-family="sans-serif" font-size="13" lengthAdjust="spacingAndGlyphs" textLength="48" x="549" y="105.0669">creates</text><text fill="#000000" font-family="sans-serif" font-size="13" lengthAdjust="spacingAndGlyphs" textLength="8" x="525.8354" y="148.1833">1</text><text fill="#000000" font-family="sans-serif" font-size="13" lengthAdjust="spacingAndGlyphs" textLength="8" x="612.0802" y="109.6727">1</text><!--MD5=[d2c3650dbd07e79cdad2ffd4a879dec6]
link Collaborator to Freelancer--><path d="M518.0766,178.8924 C623.3087,212.6126 861.096,275.6319 1056,231 C1100.3213,220.8507 1146.4166,198.3071 1180.8645,178.7116 " fill="none" id="Collaborator-Freelancer" style="stroke: #A80036; stroke-width: 1.0;"/><text fill="#000000" font-family="sans-serif" font-size="13" lengthAdjust="spacingAndGlyphs" textLength="48" x="838" y="239.0669">creates</text><text fill="#000000" font-family="sans-serif" font-size="13" lengthAdjust="spacingAndGlyphs" textLength="8" x="525.9478" y="194.4869">1</text><text fill="#000000" font-family="sans-serif" font-size="13" lengthAdjust="spacingAndGlyphs" textLength="8" x="1164.9182" y="196.4843">1</text><!--MD5=[f919d21ae7a75ef5ececc535e09d5009]
link Collaborator to Task--><path d="M518.4817,158.318 C614.2074,155.3894 811.3022,149.3598 916.5869,146.1388 " fill="none" id="Collaborator-Task" style="stroke: #A80036; stroke-width: 1.0;"/><text fill="#000000" font-family="sans-serif" font-size="13" lengthAdjust="spacingAndGlyphs" textLength="48" x="693.5" y="146.0669">creates</text><text fill="#000000" font-family="sans-serif" font-size="13" lengthAdjust="spacingAndGlyphs" textLength="8" x="526.0387" y="171.1123">1</text><text fill="#000000" font-family="sans-serif" font-size="13" lengthAdjust="spacingAndGlyphs" textLength="8" x="900.9646" y="159.2255">1</text><!--MD5=[57cb959bbb8d6516b63cb4c28268197c]
link TransactionExecution to Task--><path d="M807.0731,86.6368 C842.8368,98.0705 883.3885,111.035 916.8815,121.7428 " fill="none" id="TransactionExecution-Task" style="stroke: #A80036; stroke-width: 1.0;"/><text fill="#000000" font-family="sans-serif" font-size="13" lengthAdjust="spacingAndGlyphs" textLength="23" x="850.5" y="95.0669">has</text><text fill="#000000" font-family="sans-serif" font-size="13" lengthAdjust="spacingAndGlyphs" textLength="8" x="815.1145" y="101.8055">1</text><text fill="#000000" font-family="sans-serif" font-size="13" lengthAdjust="spacingAndGlyphs" textLength="8" x="900.8295" y="132.223">1</text><!--MD5=[209a2c3229d506e84b8c72b391c080a4]
link TransactionExecution to Payment--><path d="M807.0666,53.5052 C920.0587,48.8319 1120.2507,43.8654 1291,57 C1329.6964,59.9766 1372.9666,66.7556 1405.9013,72.6451 " fill="none" id="TransactionExecution-Payment" style="stroke: #A80036; stroke-width: 1.0;"/><text fill="#000000" font-family="sans-serif" font-size="13" lengthAdjust="spacingAndGlyphs" textLength="63" x="1087" y="45.0669">originates</text><text fill="#000000" font-family="sans-serif" font-size="13" lengthAdjust="spacingAndGlyphs" textLength="8" x="815.1075" y="65.8267">1</text><text fill="#000000" font-family="sans-serif" font-size="13" lengthAdjust="spacingAndGlyphs" textLength="8" x="1389.8718" y="84.3473">1</text><!--MD5=[8853e9d83a8841c20c4ef075af762602]
link Task to Freelancer--><path d="M1056.3314,144 C1095.6876,144 1144.1549,144 1180.828,144 " fill="none" id="Task-Freelancer" style="stroke: #A80036; stroke-width: 1.0;"/><text fill="#000000" font-family="sans-serif" font-size="13" lengthAdjust="spacingAndGlyphs" textLength="56" x="1090.5" y="140.0669">made by</text><text fill="#000000" font-family="sans-serif" font-size="13" lengthAdjust="spacingAndGlyphs" textLength="8" x="1063.9453" y="156.8661">1</text><text fill="#000000" font-family="sans-serif" font-size="13" lengthAdjust="spacingAndGlyphs" textLength="8" x="1164.8768" y="157.1083">1</text><!--MD5=[a1bcd49bda1d48eee0717f7ad534cdd6]
link Freelancer to Payment--><path d="M1291.1236,128.9213 C1326.0766,119.3602 1371.06,107.0553 1405.6635,97.5898 " fill="none" id="Freelancer-Payment" style="stroke: #A80036; stroke-width: 1.0;"/><text fill="#000000" font-family="sans-serif" font-size="13" lengthAdjust="spacingAndGlyphs" textLength="53" x="1322" y="103.0669">receives</text><text fill="#000000" font-family="sans-serif" font-size="13" lengthAdjust="spacingAndGlyphs" textLength="8" x="1299.0683" y="140.0034">1</text><text fill="#000000" font-family="sans-serif" font-size="13" lengthAdjust="spacingAndGlyphs" textLength="23" x="1375.1668" y="112.2411">1..*</text><!--MD5=[26b0b6775a84d1d5640e581d943e89a8]
@startuml
left to right direction

class Collaborator{
  -String nameC
  -String emailC
  -String role
  }

class TransactionExecution {
  -Date endDate
  -double delay
  -String descriptionOfQuality
  -int transID
  }

class Task{
  -String idTask
  -String description
  -int timeTask
  -double costHour
  -String taskCategory
  -boolean isPayed
  -boolean isFinished
  }

class Payment{
  -double valueE
  -double valueC
}

class Freelancer {
  -String freeID
  -String name
  -String levelExp
  -String email
  -String nif
  -String iban
  -String country
}


Platform "1" - - "1" Administrator : has

Administrator "1" - - "1" User : acts as
Administrator "1" - - "1..*" Collaborator : registers

Collaborator "1" - - "1" TransactionExecution: creates
Collaborator "1" - - "1" Freelancer: creates
Collaborator "1" - - "1" Task: creates

TransactionExecution "1" - - "1" Task: has
TransactionExecution "1" - - "1" Payment: originates

Task "1" - - "1" Freelancer: made by

Freelancer "1" - - "1..*" Payment: receives
@enduml

PlantUML version 1.2019.12(Sun Nov 03 10:24:54 UTC 2019)
(GPL source distribution)
Java Runtime: OpenJDK Runtime Environment
JVM: OpenJDK 64-Bit Server VM
Java Version: 1.8.0_232-heroku-b09
Operating System: Linux
Default Encoding: UTF-8
Language: en
Country: US
--></g></svg>